<svg xmlns="http://www.w3.org/2000/svg" viewBox="0 0 29 20">
   <path d="m 14.484375,0 c 0,0 -9.0633829,-6.2439739e-4 -11.3066406,0.609375 C 1.9292256,0.9393747 0.95487701,1.9006263 0.59960941,3.1406251 7.2997e-4,5.3406229 0,9.9804689 0,9.9804689 c 0,0 7.2997e-4,4.6686741 0.59960941,6.8886721 0.3552676,1.209998 1.32961619,2.19125 2.57812499,2.53125 C 5.4209921,20.00039 14.484375,20 14.484375,20 c 0,0 9.084493,3.9e-4 11.337891,-0.599609 1.268798,-0.34 2.223694,-1.321252 2.558593,-2.53125 C 29.000059,14.649143 29,9.9804689 29,9.9804689 c 0,0 5.9e-5,-4.639846 -0.619141,-6.8398438 C 28.04596,1.9006263 27.091064,0.9393747 25.822266,0.609375 23.568868,-6.2439739e-4 14.484375,0 14.484375,0 Z M 11.5,5.7500001 19,10 11.5,14.25 Z" fill="#fff"/>
</svg>
