<svg xmlns="http://www.w3.org/2000/svg" viewBox="0 0 896.01837 692.69238">
   <path id="path1" d="m 318.57031,0 c 0,0 -45.58285,149.65076 -126.77343,219.31641 0,0 78.78194,45.75697 77.92187,44.38086 22.53383,-22.70584 42.83181,-45.75538 60.0332,-68.11719 18.06147,-8.08466 35.43561,-15.48273 52.29297,-22.36328 -20.9857,37.84306 -54.52941,94.60782 -88.24414,130.38672 l 47.47656,41.97265 c 0,0 32.51058,-31.47934 67.77344,-69.15039 h 40.25196 v 69.83789 H 292.08008 v 55.73242 h 157.22266 v 133.6543 l -6.02149,-0.17187 c -17.37341,-0.86007 -44.20818,-3.78326 -54.87305,-20.64063 -12.72903,-20.64167 -3.26799,-57.96952 -2.75195,-81.1914 H 277.11524 l -3.95508,2.23632 c 0,0 -39.90811,179.4114 114.73242,175.45508 144.49171,3.95632 227.40331,-40.7681 267.31055,-71.55859 l 15.82421,59.51758 89.10352,-37.67188 -60.37695,-148.61914 -72.2461,22.87695 13.41797,50.74414 C 622.6923,500.7321 601.19035,511.05234 578.3125,518.79297 V 401.99609 H 731.57617 V 346.0918 H 578.3125 V 276.25391 H 732.09375 V 220.52149 H 458.58984 c 19.78161,-24.25397 35.09237,-46.44383 39.22071,-60.37696 L 449.99024,147.07031 C 654.68682,73.10432 768.73117,85.83383 767.8711,206.93164 V 525.8457 c 0,0 12.04199,109.40079 -112.4961,101.66016 l -67.42969,-14.62109 -15.65429,64.50586 c 0,0 290.87731,83.94372 314.61523,-141.39454 23.56591,-225.33825 -6.02148,-369.14257 -6.02148,-369.14257 0,0 -26.66263,-207.79338 -478.19922,-79.12696 19.43757,-33.88674 28.55469,-55.73242 28.55469,-55.73242 z M 155.33008,13.07227 c -44.72362,0 -80.503911,32.51059 -80.503911,72.58984 0.17202,39.73522 35.780291,72.24609 80.503911,72.24609 44.3796,0 80.33008,-32.33886 80.33008,-72.24609 0,-40.25126 -35.95048,-72.58984 -80.33008,-72.58984 z m -66.742191,174.42187 -50.91601,78.61133 93.919921,58.48437 c 0,0 62.44019,32.16608 32.50976,92.54297 C 136.40732,474.24144 0,599.29688 0,599.29688 l 122.13086,76.71875 C 206.76172,491.44467 201.08643,516.04191 222.24414,449.64453 244.08991,382.21507 248.90487,330.43863 211.92188,292.76758 164.44603,244.77569 159.11361,240.30242 88.587889,187.49414 Z" fill="#fff"/>
</svg>
