<svg xmlns="http://www.w3.org/2000/svg" viewBox="0 0 393.79745 318.99759">
   <path id="path1" d="M 291.08008 0.01171875 C 283.25503 -0.10640891 275.4116 0.64954851 267.70898 2.2871094 L 267.69922 2.2871094 C 259.55823 4.0361076 254.36356 12.044789 256.10156 20.175781 C 257.82956 28.326773 265.84706 33.532201 273.99805 31.783203 C 299.05502 26.465208 326.15766 34.249348 344.55664 54.611328 C 362.90462 74.984308 367.90601 102.77012 360.04102 127.12109 L 360.04102 127.13086 C 357.47402 135.05685 361.81082 143.54628 369.75781 146.11328 C 377.6738 148.67028 386.18105 144.33296 388.74805 136.41797 L 388.74805 136.36719 C 399.79304 102.10522 392.79833 63.058081 366.94336 34.412109 C 346.73635 12.008226 319.02666 0.43360324 291.08008 0.01171875 z M 165.53125 45.035156 C 137.76136 44.528813 95.916307 66.526426 58.714844 103.71289 C 21.569881 140.87885 0 180.25505 0 214.29102 C 0 279.40795 83.516019 318.99805 165.21094 318.99805 C 272.31083 318.99805 343.55469 256.7839 343.55469 207.37695 C 343.55469 177.52298 318.41424 160.58802 295.82227 153.58203 C 290.26927 151.92503 286.46586 150.80004 289.38086 143.49805 C 295.67085 127.68706 296.3149 114.03263 289.50391 104.30664 C 276.70992 86.030656 241.73058 87.021701 201.64062 103.80469 C 201.64062 103.79469 189.05144 109.31693 192.27344 99.335938 C 198.45043 79.504957 197.50901 62.897444 187.91602 53.314453 C 182.48027 47.873459 174.78788 45.203937 165.53125 45.035156 z M 288.64648 53.523438 C 285.3782 53.580094 282.11045 53.950204 278.89258 54.634766 C 271.87659 56.127764 267.39692 63.031882 268.91992 70.046875 C 270.40292 77.031868 277.30698 81.531811 284.29297 80.007812 L 284.29297 80.027344 C 292.69996 78.247346 301.78151 80.835726 307.9375 87.636719 C 314.10449 94.468712 315.75056 103.77651 313.10156 111.9375 L 313.12109 111.9375 C 310.9221 118.74849 314.6558 126.08006 321.4668 128.28906 C 328.29879 130.46706 335.61155 126.74582 337.81055 119.92383 C 343.20254 103.23484 339.82778 84.212939 327.2168 70.251953 C 316.98743 58.909464 302.80906 53.277926 288.64648 53.523438 z M 162.2168 139.88086 C 222.14375 137.95747 271.83868 166.36004 275.81836 206.47656 C 280.03136 249.28852 230.62348 289.20521 165.43555 295.6582 C 100.23661 302.0912 43.967652 272.62713 39.722656 229.82617 C 35.48866 187.03521 84.926534 147.11682 150.10547 140.67383 C 154.18103 140.27052 158.22167 140.00909 162.2168 139.88086 z M 154.23438 171.47461 C 128.52991 171.75011 103.32636 186.12548 92.382812 208.3457 C 78.657826 236.21468 91.932328 267.16212 123.2793 277.28711 C 155.73026 287.7491 194.00142 271.70397 207.31641 241.625 C 220.42839 212.20203 204.04437 181.90827 171.94141 173.61328 C 166.12535 172.09828 160.16617 171.41103 154.23438 171.47461 z M 162.82422 207.83398 C 163.85831 207.81719 164.88647 207.989 165.85547 208.375 C 169.79246 209.808 171.20439 214.21754 169.02539 218.14453 C 166.75539 222.04153 161.71386 223.91115 157.75586 222.28516 C 153.86986 220.69016 152.6521 216.34404 154.87109 212.49805 C 156.57359 209.6443 159.72194 207.88437 162.82422 207.83398 z M 133 217.06836 C 135.74114 217.10347 138.45086 217.62705 140.97461 218.68555 C 151.1906 223.04354 154.44262 234.64042 148.26562 244.81641 C 141.94563 254.8594 128.44529 259.26581 118.2793 254.63281 C 108.25631 250.07182 105.30157 238.38221 111.60156 228.57422 C 116.26506 221.24148 124.77659 216.96303 133 217.06836 z" fill="#fff"/>
</svg>
