<?xml version="1.0" encoding="utf-8" standalone="no"?>
<!DOCTYPE svg PUBLIC "-//W3C//DTD SVG 1.1//EN"
  "http://www.w3.org/Graphics/SVG/1.1/DTD/svg11.dtd">
<svg xmlns:xlink="http://www.w3.org/1999/xlink" width="1152pt" height="648pt" viewBox="0 0 1152 648" xmlns="http://www.w3.org/2000/svg" version="1.1">
 <metadata>
  <rdf:RDF xmlns:dc="http://purl.org/dc/elements/1.1/" xmlns:cc="http://creativecommons.org/ns#" xmlns:rdf="http://www.w3.org/1999/02/22-rdf-syntax-ns#">
   <cc:Work>
    <dc:type rdf:resource="http://purl.org/dc/dcmitype/StillImage"/>
    <dc:date>2025-09-19T13:20:10.837821</dc:date>
    <dc:format>image/svg+xml</dc:format>
    <dc:creator>
     <cc:Agent>
      <dc:title>Matplotlib v3.10.3, https://matplotlib.org/</dc:title>
     </cc:Agent>
    </dc:creator>
   </cc:Work>
  </rdf:RDF>
 </metadata>
 <defs>
  <style type="text/css">*{stroke-linejoin: round; stroke-linecap: butt}</style>
 </defs>
 <g id="figure_1">
  <g id="patch_1">
   <path d="M 0 648 
L 1152 648 
L 1152 0 
L 0 0 
L 0 648 
z
" style="fill: none"/>
  </g>
  <g id="axes_1">
   <g id="line2d_1">
    <path d="M 184.987636 517.732904 
L 192.128397 508.298279 
L 199.269157 499.213183 
L 206.409917 490.464676 
L 213.550678 482.040297 
L 220.691438 473.928044 
L 227.832198 466.116362 
L 234.972959 458.594119 
L 242.113719 451.3506 
L 249.254479 444.375481 
L 256.39524 437.658822 
L 263.536 431.191053 
L 270.67676 424.962955 
L 277.817521 418.96565 
L 284.958281 413.190592 
L 292.099041 407.629546 
L 299.239802 402.274587 
L 306.380562 397.11808 
L 313.521322 392.152673 
L 320.662083 387.371287 
L 327.802843 382.767104 
L 334.943603 378.333561 
L 342.084364 374.064334 
L 349.225124 369.953336 
L 356.365884 365.994705 
L 363.506645 362.182794 
L 370.647405 358.512169 
L 377.788165 354.977592 
L 384.928926 351.574025 
L 392.069686 348.296611 
L 399.210446 345.140676 
L 406.351207 342.101719 
L 413.491967 339.175405 
L 420.632727 336.35756 
L 427.773488 333.644163 
L 434.914248 331.031344 
L 442.055008 328.515377 
L 449.195769 326.09267 
L 456.336529 323.759769 
L 463.477289 321.513344 
L 470.61805 319.350192 
L 477.75881 317.267225 
L 484.89957 315.261471 
L 492.040331 313.33007 
L 499.181091 311.470264 
L 506.321851 309.679401 
L 513.462612 307.954926 
L 520.603372 306.294377 
L 527.744132 304.695385 
L 534.884893 303.155668 
L 542.025653 301.67303 
L 549.166413 300.245354 
L 556.307174 298.870604 
L 563.447934 297.546818 
L 570.588694 296.272106 
L 577.729455 295.044649 
L 584.870215 293.862696 
L 592.010975 292.72456 
L 599.151736 291.628618 
L 606.292496 290.573303 
L 613.433256 289.557112 
L 620.574017 288.578593 
L 627.714777 287.63635 
L 634.855537 286.729038 
L 641.996298 285.855363 
L 649.137058 285.014077 
L 656.277818 284.20398 
L 663.418579 283.423915 
L 670.559339 282.67277 
L 677.700099 281.949472 
L 684.84086 281.252989 
L 691.98162 280.582326 
L 699.12238 279.936527 
L 706.26314 279.314671 
L 713.403901 278.715868 
L 720.544661 278.139265 
L 727.685421 277.584039 
L 734.826182 277.049397 
L 741.966942 276.534576 
L 749.107702 276.038842 
L 756.248463 275.561486 
L 763.389223 275.101828 
L 770.529983 274.659211 
L 777.670744 274.233003 
L 784.811504 273.822597 
L 791.952264 273.427406 
L 799.093025 273.046867 
L 806.233785 272.680435 
L 813.374545 272.327589 
L 820.515306 271.987824 
L 827.656066 271.660656 
L 834.796826 271.345617 
L 841.937587 271.042258 
L 849.078347 270.750146 
L 856.219107 270.468864 
L 863.359868 270.19801 
L 870.500628 269.937198 
L 877.641388 269.686055 
L 884.782149 269.444224 
L 891.922909 269.211358 
" clip-path="url(#pd475b6a49e)" style="fill: none; stroke: #f28d79; stroke-width: 3; stroke-linecap: round"/>
   </g>
   <g id="text_1">
    <path d="M 899.368514 269.911051 
L 900.974764 269.911051 
Q 901.760702 269.911051 902.191952 269.503238 
Q 902.624764 269.095426 902.624764 268.353238 
L 902.624764 266.262613 
Q 902.624764 265.520426 902.191952 265.112613 
Q 901.760702 264.704801 900.974764 264.704801 
L 899.368514 264.704801 
L 899.368514 263.757926 
L 900.945077 263.757926 
Q 901.799764 263.757926 902.404452 264.056363 
Q 903.010702 264.353238 903.327889 264.925113 
Q 903.645077 265.496988 903.645077 266.301676 
L 903.645077 268.314176 
Q 903.645077 269.118863 903.327889 269.690738 
Q 903.010702 270.262613 902.402889 270.561051 
Q 901.795077 270.857926 900.940389 270.857926 
L 899.368514 270.857926 
L 899.368514 269.911051 
z
M 898.695077 263.757926 
L 899.690389 263.757926 
L 899.690389 270.857926 
L 898.695077 270.857926 
L 898.695077 263.757926 
z
M 907.624764 267.332926 
L 907.620077 267.507926 
Q 907.498202 267.732926 907.251327 267.837613 
Q 907.004452 267.942301 906.668514 267.942301 
Q 906.160702 267.942301 905.774764 267.684488 
Q 905.388827 267.425113 905.176327 266.954801 
Q 904.963827 266.482926 904.963827 265.862613 
L 904.963827 265.857926 
Q 904.963827 265.168863 905.195077 264.681363 
Q 905.427889 264.192301 905.874764 263.939176 
Q 906.321639 263.684488 906.946639 263.684488 
Q 907.571639 263.684488 908.015389 263.943863 
Q 908.460702 264.203238 908.691952 264.696988 
Q 908.923202 265.189176 908.923202 265.882926 
L 908.923202 265.887613 
Q 908.923202 266.267301 908.824764 266.700113 
Q 908.727889 267.132926 908.548202 267.556363 
Q 908.518514 267.620426 908.488827 267.686051 
Q 908.460702 267.751676 908.426327 267.815738 
L 906.912264 270.857926 
L 905.837264 270.857926 
L 907.624764 267.332926 
z
M 906.946639 267.034488 
Q 907.415389 267.034488 907.671639 266.717301 
Q 907.927889 266.400113 907.927889 265.823551 
L 907.927889 265.818863 
Q 907.927889 265.257926 907.671639 264.950113 
Q 907.415389 264.642301 906.946639 264.642301 
Q 906.473202 264.642301 906.216952 264.950113 
Q 905.960702 265.257926 905.960702 265.823551 
L 905.960702 265.828238 
Q 905.960702 266.404801 906.216952 266.720426 
Q 906.473202 267.034488 906.946639 267.034488 
z
M 910.1441 268.904801 
L 912.526913 263.762613 
L 913.553475 263.762613 
L 911.228475 268.845426 
L 914.709725 268.845426 
L 914.709725 269.768863 
L 910.1441 269.768863 
L 910.1441 268.904801 
z
M 913.2066 266.682926 
L 914.178475 266.682926 
L 914.178475 270.862613 
L 913.2066 270.862613 
L 913.2066 266.682926 
z
M 917.957577 270.931363 
Q 916.960702 270.931363 916.445077 270.400113 
Q 915.931014 269.867301 915.931014 268.914176 
L 915.931014 265.687613 
Q 915.931014 264.729801 916.448202 264.200113 
Q 916.965389 263.670426 917.957577 263.670426 
Q 918.952889 263.670426 919.468514 264.198551 
Q 919.984139 264.725113 919.984139 265.687613 
L 919.984139 268.914176 
Q 919.984139 269.871988 919.465389 270.401676 
Q 918.948202 270.931363 917.957577 270.931363 
z
M 917.957577 269.984488 
Q 918.484139 269.984488 918.735702 269.707926 
Q 918.987264 269.431363 918.987264 268.914176 
L 918.987264 265.687613 
Q 918.987264 265.168863 918.737264 264.893863 
Q 918.488827 264.617301 917.957577 264.617301 
Q 917.424764 264.617301 917.174764 264.893863 
Q 916.926327 265.168863 916.926327 265.687613 
L 916.926327 268.914176 
Q 916.926327 269.431363 917.177889 269.707926 
Q 917.429452 269.984488 917.957577 269.984488 
z
M 923.475155 270.931363 
Q 922.47828 270.931363 921.962655 270.400113 
Q 921.448592 269.867301 921.448592 268.914176 
L 921.448592 265.687613 
Q 921.448592 264.729801 921.96578 264.200113 
Q 922.482967 263.670426 923.475155 263.670426 
Q 924.470467 263.670426 924.986092 264.198551 
Q 925.501717 264.725113 925.501717 265.687613 
L 925.501717 268.914176 
Q 925.501717 269.871988 924.982967 270.401676 
Q 924.46578 270.931363 923.475155 270.931363 
z
M 923.475155 269.984488 
Q 924.001717 269.984488 924.25328 269.707926 
Q 924.504842 269.431363 924.504842 268.914176 
L 924.504842 265.687613 
Q 924.504842 265.168863 924.254842 264.893863 
Q 924.006405 264.617301 923.475155 264.617301 
Q 922.942342 264.617301 922.692342 264.893863 
Q 922.443905 265.168863 922.443905 265.687613 
L 922.443905 268.914176 
Q 922.443905 269.431363 922.695467 269.707926 
Q 922.94703 269.984488 923.475155 269.984488 
z
M 930.554842 272.386051 
Q 929.686092 271.443863 929.25328 270.275113 
Q 928.82203 269.104801 928.82203 267.693863 
Q 928.82203 266.282926 929.25328 265.114176 
Q 929.686092 263.943863 930.554842 263.001676 
L 931.237655 263.621988 
Q 930.501717 264.442301 930.13453 265.457926 
Q 929.768905 266.473551 929.768905 267.693863 
Q 929.768905 268.914176 930.13453 269.929801 
Q 930.501717 270.945426 931.237655 271.770426 
L 930.554842 272.386051 
z
M 933.782772 270.857926 
L 932.785897 270.857926 
L 932.785897 264.842301 
L 931.774959 265.462613 
L 931.774959 264.431363 
L 932.785897 263.757926 
L 933.782772 263.757926 
L 933.782772 270.857926 
z
M 937.420467 270.931363 
Q 936.423592 270.931363 935.907967 270.400113 
Q 935.393905 269.867301 935.393905 268.914176 
L 935.393905 265.687613 
Q 935.393905 264.729801 935.911092 264.200113 
Q 936.42828 263.670426 937.420467 263.670426 
Q 938.41578 263.670426 938.931405 264.198551 
Q 939.44703 264.725113 939.44703 265.687613 
L 939.44703 268.914176 
Q 939.44703 269.871988 938.92828 270.401676 
Q 938.411092 270.931363 937.420467 270.931363 
z
M 937.420467 269.984488 
Q 937.94703 269.984488 938.198592 269.707926 
Q 938.450155 269.431363 938.450155 268.914176 
L 938.450155 265.687613 
Q 938.450155 265.168863 938.200155 264.893863 
Q 937.951717 264.617301 937.420467 264.617301 
Q 936.887655 264.617301 936.637655 264.893863 
Q 936.389217 265.168863 936.389217 265.687613 
L 936.389217 268.914176 
Q 936.389217 269.431363 936.64078 269.707926 
Q 936.892342 269.984488 937.420467 269.984488 
z
M 942.742733 270.931363 
Q 942.117733 270.931363 941.67242 270.679801 
Q 941.22867 270.428238 940.995858 269.946988 
Q 940.764608 269.465738 940.764608 268.787613 
L 940.764608 268.782926 
Q 940.764608 268.387613 940.856795 267.953238 
Q 940.950545 267.517301 941.125545 267.098551 
Q 941.155233 267.025113 941.189608 266.954801 
Q 941.223983 266.882926 941.258358 266.814176 
L 942.800545 263.757926 
L 943.875545 263.757926 
L 942.063045 267.298551 
L 942.067733 267.121988 
Q 942.19117 266.892301 942.425545 266.765738 
Q 942.65992 266.639176 942.97242 266.639176 
Q 943.523983 266.639176 943.919295 266.889176 
Q 944.314608 267.137613 944.519295 267.614176 
Q 944.723983 268.089176 944.723983 268.757926 
L 944.723983 268.762613 
Q 944.723983 269.446988 944.492733 269.936051 
Q 944.261483 270.423551 943.814608 270.678238 
Q 943.367733 270.931363 942.742733 270.931363 
z
M 942.742733 269.973551 
Q 943.21617 269.973551 943.47242 269.681363 
Q 943.72867 269.387613 943.72867 268.845426 
L 943.72867 268.840738 
Q 943.72867 268.245426 943.45992 267.920426 
Q 943.19117 267.595426 942.692733 267.595426 
Q 942.248983 267.595426 942.005233 267.923551 
Q 941.761483 268.250113 941.761483 268.845426 
L 941.761483 268.851676 
Q 941.761483 269.392301 942.017733 269.682926 
Q 942.273983 269.973551 942.742733 269.973551 
z
M 947.874569 270.931363 
Q 947.249569 270.931363 946.804256 270.679801 
Q 946.360506 270.428238 946.127694 269.946988 
Q 945.896444 269.465738 945.896444 268.787613 
L 945.896444 268.782926 
Q 945.896444 268.387613 945.988631 267.953238 
Q 946.082381 267.517301 946.257381 267.098551 
Q 946.287069 267.025113 946.321444 266.954801 
Q 946.355819 266.882926 946.390194 266.814176 
L 947.932381 263.757926 
L 949.007381 263.757926 
L 947.194881 267.298551 
L 947.199569 267.121988 
Q 947.323006 266.892301 947.557381 266.765738 
Q 947.791756 266.639176 948.104256 266.639176 
Q 948.655819 266.639176 949.051131 266.889176 
Q 949.446444 267.137613 949.651131 267.614176 
Q 949.855819 268.089176 949.855819 268.757926 
L 949.855819 268.762613 
Q 949.855819 269.446988 949.624569 269.936051 
Q 949.393319 270.423551 948.946444 270.678238 
Q 948.499569 270.931363 947.874569 270.931363 
z
M 947.874569 269.973551 
Q 948.348006 269.973551 948.604256 269.681363 
Q 948.860506 269.387613 948.860506 268.845426 
L 948.860506 268.840738 
Q 948.860506 268.245426 948.591756 267.920426 
Q 948.323006 267.595426 947.824569 267.595426 
Q 947.380819 267.595426 947.137069 267.923551 
Q 946.893319 268.250113 946.893319 268.845426 
L 946.893319 268.851676 
Q 946.893319 269.392301 947.149569 269.682926 
Q 947.405819 269.973551 947.874569 269.973551 
z
M 954.842342 264.646988 
L 953.006405 270.857926 
L 951.94703 270.857926 
L 953.782967 264.704801 
L 951.975155 264.704801 
L 951.975155 265.726676 
L 950.979842 265.726676 
L 950.979842 263.757926 
L 954.842342 263.757926 
L 954.842342 264.646988 
z
M 955.574959 271.770426 
Q 956.310897 270.945426 956.676522 269.929801 
Q 957.043709 268.914176 957.043709 267.693863 
Q 957.043709 266.473551 956.676522 265.457926 
Q 956.310897 264.442301 955.574959 263.621988 
L 956.257772 263.001676 
Q 957.126522 263.943863 957.557772 265.114176 
Q 957.990584 266.282926 957.990584 267.693863 
Q 957.990584 269.104801 957.557772 270.275113 
Q 957.126522 271.443863 956.257772 272.386051 
L 955.574959 271.770426 
z
" style="fill: #ffffff; stroke: #000000"/>
    <path d="M 899.368514 269.911051 
L 900.974764 269.911051 
Q 901.760702 269.911051 902.191952 269.503238 
Q 902.624764 269.095426 902.624764 268.353238 
L 902.624764 266.262613 
Q 902.624764 265.520426 902.191952 265.112613 
Q 901.760702 264.704801 900.974764 264.704801 
L 899.368514 264.704801 
L 899.368514 263.757926 
L 900.945077 263.757926 
Q 901.799764 263.757926 902.404452 264.056363 
Q 903.010702 264.353238 903.327889 264.925113 
Q 903.645077 265.496988 903.645077 266.301676 
L 903.645077 268.314176 
Q 903.645077 269.118863 903.327889 269.690738 
Q 903.010702 270.262613 902.402889 270.561051 
Q 901.795077 270.857926 900.940389 270.857926 
L 899.368514 270.857926 
L 899.368514 269.911051 
z
M 898.695077 263.757926 
L 899.690389 263.757926 
L 899.690389 270.857926 
L 898.695077 270.857926 
L 898.695077 263.757926 
z
M 907.624764 267.332926 
L 907.620077 267.507926 
Q 907.498202 267.732926 907.251327 267.837613 
Q 907.004452 267.942301 906.668514 267.942301 
Q 906.160702 267.942301 905.774764 267.684488 
Q 905.388827 267.425113 905.176327 266.954801 
Q 904.963827 266.482926 904.963827 265.862613 
L 904.963827 265.857926 
Q 904.963827 265.168863 905.195077 264.681363 
Q 905.427889 264.192301 905.874764 263.939176 
Q 906.321639 263.684488 906.946639 263.684488 
Q 907.571639 263.684488 908.015389 263.943863 
Q 908.460702 264.203238 908.691952 264.696988 
Q 908.923202 265.189176 908.923202 265.882926 
L 908.923202 265.887613 
Q 908.923202 266.267301 908.824764 266.700113 
Q 908.727889 267.132926 908.548202 267.556363 
Q 908.518514 267.620426 908.488827 267.686051 
Q 908.460702 267.751676 908.426327 267.815738 
L 906.912264 270.857926 
L 905.837264 270.857926 
L 907.624764 267.332926 
z
M 906.946639 267.034488 
Q 907.415389 267.034488 907.671639 266.717301 
Q 907.927889 266.400113 907.927889 265.823551 
L 907.927889 265.818863 
Q 907.927889 265.257926 907.671639 264.950113 
Q 907.415389 264.642301 906.946639 264.642301 
Q 906.473202 264.642301 906.216952 264.950113 
Q 905.960702 265.257926 905.960702 265.823551 
L 905.960702 265.828238 
Q 905.960702 266.404801 906.216952 266.720426 
Q 906.473202 267.034488 906.946639 267.034488 
z
M 910.1441 268.904801 
L 912.526913 263.762613 
L 913.553475 263.762613 
L 911.228475 268.845426 
L 914.709725 268.845426 
L 914.709725 269.768863 
L 910.1441 269.768863 
L 910.1441 268.904801 
z
M 913.2066 266.682926 
L 914.178475 266.682926 
L 914.178475 270.862613 
L 913.2066 270.862613 
L 913.2066 266.682926 
z
M 917.957577 270.931363 
Q 916.960702 270.931363 916.445077 270.400113 
Q 915.931014 269.867301 915.931014 268.914176 
L 915.931014 265.687613 
Q 915.931014 264.729801 916.448202 264.200113 
Q 916.965389 263.670426 917.957577 263.670426 
Q 918.952889 263.670426 919.468514 264.198551 
Q 919.984139 264.725113 919.984139 265.687613 
L 919.984139 268.914176 
Q 919.984139 269.871988 919.465389 270.401676 
Q 918.948202 270.931363 917.957577 270.931363 
z
M 917.957577 269.984488 
Q 918.484139 269.984488 918.735702 269.707926 
Q 918.987264 269.431363 918.987264 268.914176 
L 918.987264 265.687613 
Q 918.987264 265.168863 918.737264 264.893863 
Q 918.488827 264.617301 917.957577 264.617301 
Q 917.424764 264.617301 917.174764 264.893863 
Q 916.926327 265.168863 916.926327 265.687613 
L 916.926327 268.914176 
Q 916.926327 269.431363 917.177889 269.707926 
Q 917.429452 269.984488 917.957577 269.984488 
z
M 923.475155 270.931363 
Q 922.47828 270.931363 921.962655 270.400113 
Q 921.448592 269.867301 921.448592 268.914176 
L 921.448592 265.687613 
Q 921.448592 264.729801 921.96578 264.200113 
Q 922.482967 263.670426 923.475155 263.670426 
Q 924.470467 263.670426 924.986092 264.198551 
Q 925.501717 264.725113 925.501717 265.687613 
L 925.501717 268.914176 
Q 925.501717 269.871988 924.982967 270.401676 
Q 924.46578 270.931363 923.475155 270.931363 
z
M 923.475155 269.984488 
Q 924.001717 269.984488 924.25328 269.707926 
Q 924.504842 269.431363 924.504842 268.914176 
L 924.504842 265.687613 
Q 924.504842 265.168863 924.254842 264.893863 
Q 924.006405 264.617301 923.475155 264.617301 
Q 922.942342 264.617301 922.692342 264.893863 
Q 922.443905 265.168863 922.443905 265.687613 
L 922.443905 268.914176 
Q 922.443905 269.431363 922.695467 269.707926 
Q 922.94703 269.984488 923.475155 269.984488 
z
M 930.554842 272.386051 
Q 929.686092 271.443863 929.25328 270.275113 
Q 928.82203 269.104801 928.82203 267.693863 
Q 928.82203 266.282926 929.25328 265.114176 
Q 929.686092 263.943863 930.554842 263.001676 
L 931.237655 263.621988 
Q 930.501717 264.442301 930.13453 265.457926 
Q 929.768905 266.473551 929.768905 267.693863 
Q 929.768905 268.914176 930.13453 269.929801 
Q 930.501717 270.945426 931.237655 271.770426 
L 930.554842 272.386051 
z
M 933.782772 270.857926 
L 932.785897 270.857926 
L 932.785897 264.842301 
L 931.774959 265.462613 
L 931.774959 264.431363 
L 932.785897 263.757926 
L 933.782772 263.757926 
L 933.782772 270.857926 
z
M 937.420467 270.931363 
Q 936.423592 270.931363 935.907967 270.400113 
Q 935.393905 269.867301 935.393905 268.914176 
L 935.393905 265.687613 
Q 935.393905 264.729801 935.911092 264.200113 
Q 936.42828 263.670426 937.420467 263.670426 
Q 938.41578 263.670426 938.931405 264.198551 
Q 939.44703 264.725113 939.44703 265.687613 
L 939.44703 268.914176 
Q 939.44703 269.871988 938.92828 270.401676 
Q 938.411092 270.931363 937.420467 270.931363 
z
M 937.420467 269.984488 
Q 937.94703 269.984488 938.198592 269.707926 
Q 938.450155 269.431363 938.450155 268.914176 
L 938.450155 265.687613 
Q 938.450155 265.168863 938.200155 264.893863 
Q 937.951717 264.617301 937.420467 264.617301 
Q 936.887655 264.617301 936.637655 264.893863 
Q 936.389217 265.168863 936.389217 265.687613 
L 936.389217 268.914176 
Q 936.389217 269.431363 936.64078 269.707926 
Q 936.892342 269.984488 937.420467 269.984488 
z
M 942.742733 270.931363 
Q 942.117733 270.931363 941.67242 270.679801 
Q 941.22867 270.428238 940.995858 269.946988 
Q 940.764608 269.465738 940.764608 268.787613 
L 940.764608 268.782926 
Q 940.764608 268.387613 940.856795 267.953238 
Q 940.950545 267.517301 941.125545 267.098551 
Q 941.155233 267.025113 941.189608 266.954801 
Q 941.223983 266.882926 941.258358 266.814176 
L 942.800545 263.757926 
L 943.875545 263.757926 
L 942.063045 267.298551 
L 942.067733 267.121988 
Q 942.19117 266.892301 942.425545 266.765738 
Q 942.65992 266.639176 942.97242 266.639176 
Q 943.523983 266.639176 943.919295 266.889176 
Q 944.314608 267.137613 944.519295 267.614176 
Q 944.723983 268.089176 944.723983 268.757926 
L 944.723983 268.762613 
Q 944.723983 269.446988 944.492733 269.936051 
Q 944.261483 270.423551 943.814608 270.678238 
Q 943.367733 270.931363 942.742733 270.931363 
z
M 942.742733 269.973551 
Q 943.21617 269.973551 943.47242 269.681363 
Q 943.72867 269.387613 943.72867 268.845426 
L 943.72867 268.840738 
Q 943.72867 268.245426 943.45992 267.920426 
Q 943.19117 267.595426 942.692733 267.595426 
Q 942.248983 267.595426 942.005233 267.923551 
Q 941.761483 268.250113 941.761483 268.845426 
L 941.761483 268.851676 
Q 941.761483 269.392301 942.017733 269.682926 
Q 942.273983 269.973551 942.742733 269.973551 
z
M 947.874569 270.931363 
Q 947.249569 270.931363 946.804256 270.679801 
Q 946.360506 270.428238 946.127694 269.946988 
Q 945.896444 269.465738 945.896444 268.787613 
L 945.896444 268.782926 
Q 945.896444 268.387613 945.988631 267.953238 
Q 946.082381 267.517301 946.257381 267.098551 
Q 946.287069 267.025113 946.321444 266.954801 
Q 946.355819 266.882926 946.390194 266.814176 
L 947.932381 263.757926 
L 949.007381 263.757926 
L 947.194881 267.298551 
L 947.199569 267.121988 
Q 947.323006 266.892301 947.557381 266.765738 
Q 947.791756 266.639176 948.104256 266.639176 
Q 948.655819 266.639176 949.051131 266.889176 
Q 949.446444 267.137613 949.651131 267.614176 
Q 949.855819 268.089176 949.855819 268.757926 
L 949.855819 268.762613 
Q 949.855819 269.446988 949.624569 269.936051 
Q 949.393319 270.423551 948.946444 270.678238 
Q 948.499569 270.931363 947.874569 270.931363 
z
M 947.874569 269.973551 
Q 948.348006 269.973551 948.604256 269.681363 
Q 948.860506 269.387613 948.860506 268.845426 
L 948.860506 268.840738 
Q 948.860506 268.245426 948.591756 267.920426 
Q 948.323006 267.595426 947.824569 267.595426 
Q 947.380819 267.595426 947.137069 267.923551 
Q 946.893319 268.250113 946.893319 268.845426 
L 946.893319 268.851676 
Q 946.893319 269.392301 947.149569 269.682926 
Q 947.405819 269.973551 947.874569 269.973551 
z
M 954.842342 264.646988 
L 953.006405 270.857926 
L 951.94703 270.857926 
L 953.782967 264.704801 
L 951.975155 264.704801 
L 951.975155 265.726676 
L 950.979842 265.726676 
L 950.979842 263.757926 
L 954.842342 263.757926 
L 954.842342 264.646988 
z
M 955.574959 271.770426 
Q 956.310897 270.945426 956.676522 269.929801 
Q 957.043709 268.914176 957.043709 267.693863 
Q 957.043709 266.473551 956.676522 265.457926 
Q 956.310897 264.442301 955.574959 263.621988 
L 956.257772 263.001676 
Q 957.126522 263.943863 957.557772 265.114176 
Q 957.990584 266.282926 957.990584 267.693863 
Q 957.990584 269.104801 957.557772 270.275113 
Q 957.126522 271.443863 956.257772 272.386051 
L 955.574959 271.770426 
z
" style="fill: #ffffff"/>
   </g>
  </g>
 </g>
 <defs>
  <clipPath id="pd475b6a49e">
   <rect x="144" y="77.76" width="892.8" height="498.96"/>
  </clipPath>
 </defs>
</svg>
