<?xml version="1.0" encoding="utf-8" standalone="no"?>
<!DOCTYPE svg PUBLIC "-//W3C//DTD SVG 1.1//EN"
  "http://www.w3.org/Graphics/SVG/1.1/DTD/svg11.dtd">
<svg xmlns:xlink="http://www.w3.org/1999/xlink" width="1152pt" height="648pt" viewBox="0 0 1152 648" xmlns="http://www.w3.org/2000/svg" version="1.1">
 <metadata>
  <rdf:RDF xmlns:dc="http://purl.org/dc/elements/1.1/" xmlns:cc="http://creativecommons.org/ns#" xmlns:rdf="http://www.w3.org/1999/02/22-rdf-syntax-ns#">
   <cc:Work>
    <dc:type rdf:resource="http://purl.org/dc/dcmitype/StillImage"/>
    <dc:date>2025-09-19T13:20:10.940273</dc:date>
    <dc:format>image/svg+xml</dc:format>
    <dc:creator>
     <cc:Agent>
      <dc:title>Matplotlib v3.10.3, https://matplotlib.org/</dc:title>
     </cc:Agent>
    </dc:creator>
   </cc:Work>
  </rdf:RDF>
 </metadata>
 <defs>
  <style type="text/css">*{stroke-linejoin: round; stroke-linecap: butt}</style>
 </defs>
 <g id="figure_1">
  <g id="patch_1">
   <path d="M 0 648 
L 1152 648 
L 1152 0 
L 0 0 
L 0 648 
z
" style="fill: none"/>
  </g>
  <g id="axes_1">
   <g id="line2d_1">
    <path d="M 195.133091 531.264689 
L 198.195174 525.987733 
L 201.257256 520.851917 
L 204.319339 515.853468 
L 207.381421 510.988718 
L 210.443504 506.254093 
L 213.505587 501.646117 
L 216.567669 497.161404 
L 219.629752 492.796661 
L 222.691835 488.548682 
L 225.753917 484.414344 
L 228.816 480.390612 
L 231.878083 476.474528 
L 234.940165 472.663214 
L 238.002248 468.953871 
L 241.064331 465.343771 
L 244.126413 461.830263 
L 247.188496 458.410762 
L 250.250579 455.082756 
L 253.312661 451.843799 
L 256.374744 448.691509 
L 259.436826 445.623568 
L 262.498909 442.637722 
L 265.560992 439.731774 
L 268.623074 436.903589 
L 271.685157 434.151086 
L 274.74724 431.472241 
L 277.809322 428.865085 
L 280.871405 426.327699 
L 283.933488 423.858218 
L 286.99557 421.454826 
L 290.057653 419.115754 
L 293.119736 416.839282 
L 296.181818 414.623736 
L 299.243901 412.467486 
L 302.305983 410.368945 
L 305.368066 408.32657 
L 308.430149 406.338858 
L 311.492231 404.404346 
L 314.554314 402.521612 
L 317.616397 400.68927 
L 320.678479 398.905972 
L 323.740562 397.170405 
L 326.802645 395.481293 
L 329.864727 393.837392 
L 332.92681 392.237493 
L 335.988893 390.680419 
L 339.050975 389.165023 
L 342.113058 387.69019 
L 345.17514 386.254835 
L 348.237223 384.857901 
L 351.299306 383.498361 
L 354.361388 382.175213 
L 357.423471 380.887484 
L 360.485554 379.634225 
L 363.547636 378.414515 
L 366.609719 377.227456 
L 369.671802 376.072173 
L 372.733884 374.947816 
L 375.795967 373.853558 
L 378.85805 372.788593 
L 381.920132 371.752137 
L 384.982215 370.743427 
L 388.044298 369.761721 
L 391.10638 368.806295 
L 394.168463 367.876446 
L 397.230545 366.97149 
L 400.292628 366.090761 
L 403.354711 365.233609 
L 406.416793 364.399405 
L 409.478876 363.587533 
L 412.540959 362.797396 
L 415.603041 362.028412 
L 418.665124 361.280015 
L 421.727207 360.551654 
L 424.789289 359.842792 
L 427.851372 359.152908 
L 430.913455 358.481494 
L 433.975537 357.828055 
L 437.03762 357.192109 
L 440.099702 356.57319 
L 443.161785 355.970841 
L 446.223868 355.384617 
L 449.28595 354.814089 
L 452.348033 354.258835 
L 455.410116 353.718447 
L 458.472198 353.192527 
L 461.534281 352.680687 
L 464.596364 352.182551 
L 467.658446 351.697751 
L 470.720529 351.225931 
L 473.782612 350.766743 
L 476.844694 350.319849 
L 479.906777 349.88492 
L 482.96886 349.461636 
L 486.030942 349.049684 
L 489.093025 348.648762 
L 492.155107 348.258573 
L 495.21719 347.878832 
L 498.279273 347.509258 
" clip-path="url(#pc0dacf941f)" style="fill: none; stroke: #f2b679; stroke-width: 3; stroke-linecap: round"/>
   </g>
   <g id="text_1">
    <path d="M 505.724878 348.208951 
L 507.331128 348.208951 
Q 508.117065 348.208951 508.548315 347.801138 
Q 508.981128 347.393326 508.981128 346.651138 
L 508.981128 344.560513 
Q 508.981128 343.818326 508.548315 343.410513 
Q 508.117065 343.002701 507.331128 343.002701 
L 505.724878 343.002701 
L 505.724878 342.055826 
L 507.30144 342.055826 
Q 508.156128 342.055826 508.760815 342.354263 
Q 509.367065 342.651138 509.684253 343.223013 
Q 510.00144 343.794888 510.00144 344.599576 
L 510.00144 346.612076 
Q 510.00144 347.416763 509.684253 347.988638 
Q 509.367065 348.560513 508.759253 348.858951 
Q 508.15144 349.155826 507.296753 349.155826 
L 505.724878 349.155826 
L 505.724878 348.208951 
z
M 505.05144 342.055826 
L 506.046753 342.055826 
L 506.046753 349.155826 
L 505.05144 349.155826 
L 505.05144 342.055826 
z
M 513.546753 349.229263 
Q 512.903003 349.229263 512.41394 348.985513 
Q 511.92644 348.740201 511.659253 348.293326 
Q 511.393628 347.846451 511.393628 347.255826 
L 511.393628 347.138638 
Q 511.393628 346.607388 511.659253 346.138638 
Q 511.92644 345.669888 512.37019 345.430826 
Q 511.993628 345.224576 511.767065 344.837076 
Q 511.540503 344.448013 511.540503 344.018326 
L 511.540503 343.848013 
Q 511.540503 343.291763 511.78894 342.869888 
Q 512.037378 342.446451 512.492065 342.215201 
Q 512.946753 341.982388 513.546753 341.982388 
Q 514.146753 341.982388 514.60144 342.215201 
Q 515.056128 342.446451 515.304565 342.869888 
Q 515.553003 343.291763 515.553003 343.848013 
L 515.553003 344.018326 
Q 515.553003 344.458951 515.321753 344.844888 
Q 515.090503 345.229263 514.709253 345.430826 
Q 515.15769 345.674576 515.428003 346.141763 
Q 515.699878 346.607388 515.699878 347.138638 
L 515.699878 347.255826 
Q 515.699878 347.846451 515.434253 348.293326 
Q 515.168628 348.740201 514.679565 348.985513 
Q 514.192065 349.229263 513.546753 349.229263 
z
M 513.546753 348.271451 
Q 513.893628 348.271451 514.156128 348.135513 
Q 514.42019 347.998013 514.56394 347.752701 
Q 514.709253 347.505826 514.709253 347.182388 
L 514.709253 347.115201 
Q 514.709253 346.787076 514.56394 346.541763 
Q 514.42019 346.294888 514.156128 346.158951 
Q 513.893628 346.021451 513.546753 346.021451 
Q 513.199878 346.021451 512.935815 346.158951 
Q 512.673315 346.294888 512.528003 346.543326 
Q 512.384253 346.791763 512.384253 347.119888 
L 512.384253 347.193326 
Q 512.384253 347.515201 512.528003 347.758951 
Q 512.673315 348.002701 512.935815 348.137076 
Q 513.199878 348.271451 513.546753 348.271451 
z
M 513.546753 345.063638 
Q 513.84519 345.063638 514.073315 344.935513 
Q 514.303003 344.805826 514.429565 344.566763 
Q 514.55769 344.326138 514.55769 344.013638 
L 514.55769 343.946451 
Q 514.55769 343.648013 514.429565 343.418326 
Q 514.303003 343.188638 514.073315 343.065201 
Q 513.84519 342.940201 513.546753 342.940201 
Q 513.248315 342.940201 513.018628 343.065201 
Q 512.790503 343.188638 512.662378 343.418326 
Q 512.535815 343.648013 512.535815 343.951138 
L 512.535815 344.024576 
Q 512.535815 344.330826 512.662378 344.568326 
Q 512.790503 344.805826 513.018628 344.935513 
Q 513.248315 345.063638 513.546753 345.063638 
z
M 516.993628 347.202701 
L 519.37644 342.060513 
L 520.403003 342.060513 
L 518.078003 347.143326 
L 521.559253 347.143326 
L 521.559253 348.066763 
L 516.993628 348.066763 
L 516.993628 347.202701 
z
M 520.056128 344.980826 
L 521.028003 344.980826 
L 521.028003 349.160513 
L 520.056128 349.160513 
L 520.056128 344.980826 
z
M 524.807104 349.229263 
Q 523.810229 349.229263 523.294604 348.698013 
Q 522.780542 348.165201 522.780542 347.212076 
L 522.780542 343.985513 
Q 522.780542 343.027701 523.297729 342.498013 
Q 523.814917 341.968326 524.807104 341.968326 
Q 525.802417 341.968326 526.318042 342.496451 
Q 526.833667 343.023013 526.833667 343.985513 
L 526.833667 347.212076 
Q 526.833667 348.169888 526.314917 348.699576 
Q 525.797729 349.229263 524.807104 349.229263 
z
M 524.807104 348.282388 
Q 525.333667 348.282388 525.585229 348.005826 
Q 525.836792 347.729263 525.836792 347.212076 
L 525.836792 343.985513 
Q 525.836792 343.466763 525.586792 343.191763 
Q 525.338354 342.915201 524.807104 342.915201 
Q 524.274292 342.915201 524.024292 343.191763 
Q 523.775854 343.466763 523.775854 343.985513 
L 523.775854 347.212076 
Q 523.775854 347.729263 524.027417 348.005826 
Q 524.278979 348.282388 524.807104 348.282388 
z
M 530.324682 349.229263 
Q 529.327807 349.229263 528.812182 348.698013 
Q 528.29812 348.165201 528.29812 347.212076 
L 528.29812 343.985513 
Q 528.29812 343.027701 528.815307 342.498013 
Q 529.332495 341.968326 530.324682 341.968326 
Q 531.319995 341.968326 531.83562 342.496451 
Q 532.351245 343.023013 532.351245 343.985513 
L 532.351245 347.212076 
Q 532.351245 348.169888 531.832495 348.699576 
Q 531.315307 349.229263 530.324682 349.229263 
z
M 530.324682 348.282388 
Q 530.851245 348.282388 531.102807 348.005826 
Q 531.35437 347.729263 531.35437 347.212076 
L 531.35437 343.985513 
Q 531.35437 343.466763 531.10437 343.191763 
Q 530.855932 342.915201 530.324682 342.915201 
Q 529.79187 342.915201 529.54187 343.191763 
Q 529.293432 343.466763 529.293432 343.985513 
L 529.293432 347.212076 
Q 529.293432 347.729263 529.544995 348.005826 
Q 529.796557 348.282388 530.324682 348.282388 
z
M 540.77312 342.055826 
L 541.705932 342.055826 
L 541.705932 349.155826 
L 540.734057 349.155826 
L 540.734057 343.838638 
L 540.782495 344.151138 
L 539.03562 348.169888 
L 538.34187 348.169888 
L 536.593432 344.248013 
L 536.64187 343.838638 
L 536.64187 349.155826 
L 535.671557 349.155826 
L 535.671557 342.055826 
L 536.602807 342.055826 
L 538.688745 346.743326 
L 540.77312 342.055826 
z
M 545.397339 342.055826 
L 546.247339 342.055826 
L 548.864526 349.155826 
L 547.789526 349.155826 
L 545.822339 343.427701 
L 543.855151 349.155826 
L 542.780151 349.155826 
L 545.397339 342.055826 
z
M 543.986401 346.651138 
L 547.722339 346.651138 
L 547.722339 347.598013 
L 543.986401 347.598013 
L 543.986401 346.651138 
z
M 551.671948 346.035513 
L 551.520386 345.791763 
L 549.215698 342.055826 
L 550.334448 342.055826 
L 552.048511 344.946451 
L 552.209448 345.210513 
L 554.636011 349.155826 
L 553.517261 349.155826 
L 551.671948 346.035513 
z
M 551.628198 345.098013 
L 553.409448 342.055826 
L 554.528198 342.055826 
L 552.179761 345.899576 
L 550.275073 349.155826 
L 549.157886 349.155826 
L 551.628198 345.098013 
z
" style="fill: #ffffff; stroke: #000000"/>
    <path d="M 505.724878 348.208951 
L 507.331128 348.208951 
Q 508.117065 348.208951 508.548315 347.801138 
Q 508.981128 347.393326 508.981128 346.651138 
L 508.981128 344.560513 
Q 508.981128 343.818326 508.548315 343.410513 
Q 508.117065 343.002701 507.331128 343.002701 
L 505.724878 343.002701 
L 505.724878 342.055826 
L 507.30144 342.055826 
Q 508.156128 342.055826 508.760815 342.354263 
Q 509.367065 342.651138 509.684253 343.223013 
Q 510.00144 343.794888 510.00144 344.599576 
L 510.00144 346.612076 
Q 510.00144 347.416763 509.684253 347.988638 
Q 509.367065 348.560513 508.759253 348.858951 
Q 508.15144 349.155826 507.296753 349.155826 
L 505.724878 349.155826 
L 505.724878 348.208951 
z
M 505.05144 342.055826 
L 506.046753 342.055826 
L 506.046753 349.155826 
L 505.05144 349.155826 
L 505.05144 342.055826 
z
M 513.546753 349.229263 
Q 512.903003 349.229263 512.41394 348.985513 
Q 511.92644 348.740201 511.659253 348.293326 
Q 511.393628 347.846451 511.393628 347.255826 
L 511.393628 347.138638 
Q 511.393628 346.607388 511.659253 346.138638 
Q 511.92644 345.669888 512.37019 345.430826 
Q 511.993628 345.224576 511.767065 344.837076 
Q 511.540503 344.448013 511.540503 344.018326 
L 511.540503 343.848013 
Q 511.540503 343.291763 511.78894 342.869888 
Q 512.037378 342.446451 512.492065 342.215201 
Q 512.946753 341.982388 513.546753 341.982388 
Q 514.146753 341.982388 514.60144 342.215201 
Q 515.056128 342.446451 515.304565 342.869888 
Q 515.553003 343.291763 515.553003 343.848013 
L 515.553003 344.018326 
Q 515.553003 344.458951 515.321753 344.844888 
Q 515.090503 345.229263 514.709253 345.430826 
Q 515.15769 345.674576 515.428003 346.141763 
Q 515.699878 346.607388 515.699878 347.138638 
L 515.699878 347.255826 
Q 515.699878 347.846451 515.434253 348.293326 
Q 515.168628 348.740201 514.679565 348.985513 
Q 514.192065 349.229263 513.546753 349.229263 
z
M 513.546753 348.271451 
Q 513.893628 348.271451 514.156128 348.135513 
Q 514.42019 347.998013 514.56394 347.752701 
Q 514.709253 347.505826 514.709253 347.182388 
L 514.709253 347.115201 
Q 514.709253 346.787076 514.56394 346.541763 
Q 514.42019 346.294888 514.156128 346.158951 
Q 513.893628 346.021451 513.546753 346.021451 
Q 513.199878 346.021451 512.935815 346.158951 
Q 512.673315 346.294888 512.528003 346.543326 
Q 512.384253 346.791763 512.384253 347.119888 
L 512.384253 347.193326 
Q 512.384253 347.515201 512.528003 347.758951 
Q 512.673315 348.002701 512.935815 348.137076 
Q 513.199878 348.271451 513.546753 348.271451 
z
M 513.546753 345.063638 
Q 513.84519 345.063638 514.073315 344.935513 
Q 514.303003 344.805826 514.429565 344.566763 
Q 514.55769 344.326138 514.55769 344.013638 
L 514.55769 343.946451 
Q 514.55769 343.648013 514.429565 343.418326 
Q 514.303003 343.188638 514.073315 343.065201 
Q 513.84519 342.940201 513.546753 342.940201 
Q 513.248315 342.940201 513.018628 343.065201 
Q 512.790503 343.188638 512.662378 343.418326 
Q 512.535815 343.648013 512.535815 343.951138 
L 512.535815 344.024576 
Q 512.535815 344.330826 512.662378 344.568326 
Q 512.790503 344.805826 513.018628 344.935513 
Q 513.248315 345.063638 513.546753 345.063638 
z
M 516.993628 347.202701 
L 519.37644 342.060513 
L 520.403003 342.060513 
L 518.078003 347.143326 
L 521.559253 347.143326 
L 521.559253 348.066763 
L 516.993628 348.066763 
L 516.993628 347.202701 
z
M 520.056128 344.980826 
L 521.028003 344.980826 
L 521.028003 349.160513 
L 520.056128 349.160513 
L 520.056128 344.980826 
z
M 524.807104 349.229263 
Q 523.810229 349.229263 523.294604 348.698013 
Q 522.780542 348.165201 522.780542 347.212076 
L 522.780542 343.985513 
Q 522.780542 343.027701 523.297729 342.498013 
Q 523.814917 341.968326 524.807104 341.968326 
Q 525.802417 341.968326 526.318042 342.496451 
Q 526.833667 343.023013 526.833667 343.985513 
L 526.833667 347.212076 
Q 526.833667 348.169888 526.314917 348.699576 
Q 525.797729 349.229263 524.807104 349.229263 
z
M 524.807104 348.282388 
Q 525.333667 348.282388 525.585229 348.005826 
Q 525.836792 347.729263 525.836792 347.212076 
L 525.836792 343.985513 
Q 525.836792 343.466763 525.586792 343.191763 
Q 525.338354 342.915201 524.807104 342.915201 
Q 524.274292 342.915201 524.024292 343.191763 
Q 523.775854 343.466763 523.775854 343.985513 
L 523.775854 347.212076 
Q 523.775854 347.729263 524.027417 348.005826 
Q 524.278979 348.282388 524.807104 348.282388 
z
M 530.324682 349.229263 
Q 529.327807 349.229263 528.812182 348.698013 
Q 528.29812 348.165201 528.29812 347.212076 
L 528.29812 343.985513 
Q 528.29812 343.027701 528.815307 342.498013 
Q 529.332495 341.968326 530.324682 341.968326 
Q 531.319995 341.968326 531.83562 342.496451 
Q 532.351245 343.023013 532.351245 343.985513 
L 532.351245 347.212076 
Q 532.351245 348.169888 531.832495 348.699576 
Q 531.315307 349.229263 530.324682 349.229263 
z
M 530.324682 348.282388 
Q 530.851245 348.282388 531.102807 348.005826 
Q 531.35437 347.729263 531.35437 347.212076 
L 531.35437 343.985513 
Q 531.35437 343.466763 531.10437 343.191763 
Q 530.855932 342.915201 530.324682 342.915201 
Q 529.79187 342.915201 529.54187 343.191763 
Q 529.293432 343.466763 529.293432 343.985513 
L 529.293432 347.212076 
Q 529.293432 347.729263 529.544995 348.005826 
Q 529.796557 348.282388 530.324682 348.282388 
z
M 540.77312 342.055826 
L 541.705932 342.055826 
L 541.705932 349.155826 
L 540.734057 349.155826 
L 540.734057 343.838638 
L 540.782495 344.151138 
L 539.03562 348.169888 
L 538.34187 348.169888 
L 536.593432 344.248013 
L 536.64187 343.838638 
L 536.64187 349.155826 
L 535.671557 349.155826 
L 535.671557 342.055826 
L 536.602807 342.055826 
L 538.688745 346.743326 
L 540.77312 342.055826 
z
M 545.397339 342.055826 
L 546.247339 342.055826 
L 548.864526 349.155826 
L 547.789526 349.155826 
L 545.822339 343.427701 
L 543.855151 349.155826 
L 542.780151 349.155826 
L 545.397339 342.055826 
z
M 543.986401 346.651138 
L 547.722339 346.651138 
L 547.722339 347.598013 
L 543.986401 347.598013 
L 543.986401 346.651138 
z
M 551.671948 346.035513 
L 551.520386 345.791763 
L 549.215698 342.055826 
L 550.334448 342.055826 
L 552.048511 344.946451 
L 552.209448 345.210513 
L 554.636011 349.155826 
L 553.517261 349.155826 
L 551.671948 346.035513 
z
M 551.628198 345.098013 
L 553.409448 342.055826 
L 554.528198 342.055826 
L 552.179761 345.899576 
L 550.275073 349.155826 
L 549.157886 349.155826 
L 551.628198 345.098013 
z
" style="fill: #ffffff"/>
   </g>
  </g>
 </g>
 <defs>
  <clipPath id="pc0dacf941f">
   <rect x="144" y="77.76" width="892.8" height="498.96"/>
  </clipPath>
 </defs>
</svg>
