<?xml version="1.0" encoding="utf-8" standalone="no"?>
<!DOCTYPE svg PUBLIC "-//W3C//DTD SVG 1.1//EN"
  "http://www.w3.org/Graphics/SVG/1.1/DTD/svg11.dtd">
<svg xmlns:xlink="http://www.w3.org/1999/xlink" width="1152pt" height="648pt" viewBox="0 0 1152 648" xmlns="http://www.w3.org/2000/svg" version="1.1">
 <metadata>
  <rdf:RDF xmlns:dc="http://purl.org/dc/elements/1.1/" xmlns:cc="http://creativecommons.org/ns#" xmlns:rdf="http://www.w3.org/1999/02/22-rdf-syntax-ns#">
   <cc:Work>
    <dc:type rdf:resource="http://purl.org/dc/dcmitype/StillImage"/>
    <dc:date>2024-12-23T18:23:21.226791</dc:date>
    <dc:format>image/svg+xml</dc:format>
    <dc:creator>
     <cc:Agent>
      <dc:title>Matplotlib v3.9.2, https://matplotlib.org/</dc:title>
     </cc:Agent>
    </dc:creator>
   </cc:Work>
  </rdf:RDF>
 </metadata>
 <defs>
  <style type="text/css">*{stroke-linejoin: round; stroke-linecap: butt}</style>
 </defs>
 <g id="figure_1">
  <g id="patch_1">
   <path d="M 0 648 
L 1152 648 
L 1152 0 
L 0 0 
L 0 648 
z
" style="fill: none"/>
  </g>
  <g id="axes_1">
   <g id="line2d_1">
    <path d="M 216.235636 476.850402 
L 219.174744 474.510291 
L 222.113851 472.171658 
L 225.052959 469.835978 
L 227.992066 467.504717 
L 230.931174 465.17933 
L 233.870281 462.861259 
L 236.809388 460.551927 
L 239.748496 458.252735 
L 242.687603 455.965058 
L 245.626711 453.690244 
L 248.565818 451.429611 
L 251.504926 449.184439 
L 254.444033 446.955976 
L 257.38314 444.745426 
L 260.322248 442.553954 
L 263.261355 440.382681 
L 266.200463 438.232681 
L 269.13957 436.104981 
L 272.078678 434.000559 
L 275.017785 431.920343 
L 277.956893 429.865209 
L 280.896 427.835981 
L 283.835107 425.833429 
L 286.774215 423.858271 
L 289.713322 421.911172 
L 292.65243 419.992741 
L 295.591537 418.103535 
L 298.530645 416.244058 
L 301.469752 414.41476 
L 304.40886 412.616041 
L 307.347967 410.848247 
L 310.287074 409.111677 
L 313.226182 407.406578 
L 316.165289 405.733151 
L 319.104397 404.091549 
L 322.043504 402.481881 
L 324.982612 400.904212 
L 327.921719 399.358563 
L 330.860826 397.844917 
L 333.799934 396.363217 
L 336.739041 394.913369 
L 339.678149 393.495244 
L 342.617256 392.108677 
L 345.556364 390.753476 
L 348.495471 389.429414 
L 351.434579 388.136239 
L 354.373686 386.87367 
L 357.312793 385.641405 
L 360.251901 384.439115 
L 363.191008 383.266452 
L 366.130116 382.123049 
L 369.069223 381.008519 
L 372.008331 379.92246 
L 374.947438 378.864456 
L 377.886545 377.834075 
L 380.825653 376.830876 
L 383.76476 375.854407 
L 386.703868 374.904205 
L 389.642975 373.979802 
L 392.582083 373.080721 
L 395.52119 372.206481 
L 398.460298 371.356597 
L 401.399405 370.530578 
L 404.338512 369.727935 
L 407.27762 368.948175 
L 410.216727 368.190805 
L 413.155835 367.455332 
L 416.094942 366.741266 
L 419.03405 366.048116 
L 421.973157 365.375396 
L 424.912264 364.722623 
L 427.851372 364.089316 
L 430.790479 363.475001 
L 433.729587 362.879206 
L 436.668694 362.301466 
L 439.607802 361.741322 
L 442.546909 361.19832 
L 445.486017 360.672012 
L 448.425124 360.161957 
L 451.364231 359.667722 
L 454.303339 359.18888 
L 457.242446 358.725012 
L 460.181554 358.275705 
L 463.120661 357.840555 
L 466.059769 357.419167 
L 468.998876 357.01115 
L 471.937983 356.616124 
L 474.877091 356.233717 
L 477.816198 355.863563 
L 480.755306 355.505306 
L 483.694413 355.158597 
L 486.633521 354.823094 
L 489.572628 354.498466 
L 492.511736 354.184388 
L 495.450843 353.880541 
L 498.38995 353.586618 
L 501.329058 353.302316 
L 504.268165 353.027342 
L 507.207273 352.761409 
" clip-path="url(#p8dd62276d6)" style="fill: none; stroke: #30b2f2; stroke-width: 3; stroke-linecap: round"/>
   </g>
   <g id="text_1">
    <path d="M 516.112253 354.481414 
Q 515.599753 354.481414 515.140378 354.384539 
Q 514.682565 354.286102 514.284128 354.090789 
Q 513.88569 353.895477 513.538815 353.601727 
L 513.538815 353.601727 
L 514.159128 352.840789 
L 514.159128 352.840789 
Q 514.565378 353.192352 515.052878 353.368914 
Q 515.54194 353.543914 516.112253 353.543914 
Q 516.884128 353.543914 517.309128 353.257977 
Q 517.734128 352.972039 517.734128 352.450164 
L 517.734128 352.445477 
Q 517.734128 352.073602 517.540378 351.856414 
Q 517.34819 351.639227 517.04194 351.534539 
Q 516.737253 351.429852 516.25444 351.340789 
Q 516.238815 351.336102 516.221628 351.336102 
Q 516.206003 351.336102 516.190378 351.331414 
L 516.11694 351.317352 
Q 515.40444 351.195477 514.957565 351.042352 
Q 514.51069 350.887664 514.193503 350.479852 
Q 513.876315 350.072039 513.876315 349.320477 
L 513.876315 349.315789 
Q 513.876315 348.656414 514.171628 348.190789 
Q 514.46694 347.723602 515.032565 347.479852 
Q 515.599753 347.234539 516.395065 347.234539 
Q 516.776315 347.234539 517.145065 347.318914 
Q 517.513815 347.401727 517.871628 347.565789 
Q 518.231003 347.728289 518.577878 347.976727 
L 518.577878 347.976727 
L 518.012253 348.768914 
L 518.012253 348.768914 
Q 517.606003 348.470477 517.202878 348.322039 
Q 516.801315 348.172039 516.395065 348.172039 
Q 515.668503 348.172039 515.265378 348.462664 
Q 514.862253 348.753289 514.862253 349.286102 
L 514.862253 349.290789 
Q 514.862253 349.656414 515.070065 349.867352 
Q 515.277878 350.076727 515.587253 350.176727 
Q 515.89819 350.276727 516.449753 350.384539 
Q 516.468503 350.389227 516.48569 350.392352 
Q 516.502878 350.393914 516.52319 350.398602 
Q 516.546628 350.403289 516.576315 350.409539 
Q 516.606003 350.414227 516.62944 350.418914 
Q 517.274753 350.550164 517.706003 350.731414 
Q 518.138815 350.911102 518.42944 351.314227 
Q 518.720065 351.717352 518.720065 352.415789 
L 518.720065 352.425164 
Q 518.720065 353.075164 518.412253 353.536102 
Q 518.10444 353.997039 517.520065 354.239227 
Q 516.937253 354.481414 516.112253 354.481414 
z
M 520.810104 353.461102 
L 522.416354 353.461102 
Q 523.202292 353.461102 523.633542 353.053289 
Q 524.066354 352.645477 524.066354 351.903289 
L 524.066354 349.812664 
Q 524.066354 349.070477 523.633542 348.662664 
Q 523.202292 348.254852 522.416354 348.254852 
L 520.810104 348.254852 
L 520.810104 347.307977 
L 522.386667 347.307977 
Q 523.241354 347.307977 523.846042 347.606414 
Q 524.452292 347.903289 524.769479 348.475164 
Q 525.086667 349.047039 525.086667 349.851727 
L 525.086667 351.864227 
Q 525.086667 352.668914 524.769479 353.240789 
Q 524.452292 353.812664 523.844479 354.111102 
Q 523.236667 354.407977 522.381979 354.407977 
L 520.810104 354.407977 
L 520.810104 353.461102 
z
M 520.136667 347.307977 
L 521.131979 347.307977 
L 521.131979 354.407977 
L 520.136667 354.407977 
L 520.136667 347.307977 
z
M 528.631979 354.481414 
Q 527.988229 354.481414 527.499167 354.237664 
Q 527.011667 353.992352 526.744479 353.545477 
Q 526.478854 353.098602 526.478854 352.507977 
L 526.478854 352.390789 
Q 526.478854 351.859539 526.744479 351.390789 
Q 527.011667 350.922039 527.455417 350.682977 
Q 527.078854 350.476727 526.852292 350.089227 
Q 526.625729 349.700164 526.625729 349.270477 
L 526.625729 349.100164 
Q 526.625729 348.543914 526.874167 348.122039 
Q 527.122604 347.698602 527.577292 347.467352 
Q 528.031979 347.234539 528.631979 347.234539 
Q 529.231979 347.234539 529.686667 347.467352 
Q 530.141354 347.698602 530.389792 348.122039 
Q 530.638229 348.543914 530.638229 349.100164 
L 530.638229 349.270477 
Q 530.638229 349.711102 530.406979 350.097039 
Q 530.175729 350.481414 529.794479 350.682977 
Q 530.242917 350.926727 530.513229 351.393914 
Q 530.785104 351.859539 530.785104 352.390789 
L 530.785104 352.507977 
Q 530.785104 353.098602 530.519479 353.545477 
Q 530.253854 353.992352 529.764792 354.237664 
Q 529.277292 354.481414 528.631979 354.481414 
z
M 528.631979 353.523602 
Q 528.978854 353.523602 529.241354 353.387664 
Q 529.505417 353.250164 529.649167 353.004852 
Q 529.794479 352.757977 529.794479 352.434539 
L 529.794479 352.367352 
Q 529.794479 352.039227 529.649167 351.793914 
Q 529.505417 351.547039 529.241354 351.411102 
Q 528.978854 351.273602 528.631979 351.273602 
Q 528.285104 351.273602 528.021042 351.411102 
Q 527.758542 351.547039 527.613229 351.795477 
Q 527.469479 352.043914 527.469479 352.372039 
L 527.469479 352.445477 
Q 527.469479 352.767352 527.613229 353.011102 
Q 527.758542 353.254852 528.021042 353.389227 
Q 528.285104 353.523602 528.631979 353.523602 
z
M 528.631979 350.315789 
Q 528.930417 350.315789 529.158542 350.187664 
Q 529.388229 350.057977 529.514792 349.818914 
Q 529.642917 349.578289 529.642917 349.265789 
L 529.642917 349.198602 
Q 529.642917 348.900164 529.514792 348.670477 
Q 529.388229 348.440789 529.158542 348.317352 
Q 528.930417 348.192352 528.631979 348.192352 
Q 528.333542 348.192352 528.103854 348.317352 
Q 527.875729 348.440789 527.747604 348.670477 
Q 527.621042 348.900164 527.621042 349.203289 
L 527.621042 349.276727 
Q 527.621042 349.582977 527.747604 349.820477 
Q 527.875729 350.057977 528.103854 350.187664 
Q 528.333542 350.315789 528.631979 350.315789 
z
M 534.456979 354.481414 
Q 533.944479 354.481414 533.485104 354.384539 
Q 533.027292 354.286102 532.628854 354.090789 
Q 532.230417 353.895477 531.883542 353.601727 
L 531.883542 353.601727 
L 532.503854 352.840789 
L 532.503854 352.840789 
Q 532.910104 353.192352 533.397604 353.368914 
Q 533.886667 353.543914 534.456979 353.543914 
Q 535.228854 353.543914 535.653854 353.257977 
Q 536.078854 352.972039 536.078854 352.450164 
L 536.078854 352.445477 
Q 536.078854 352.073602 535.885104 351.856414 
Q 535.692917 351.639227 535.386667 351.534539 
Q 535.081979 351.429852 534.599167 351.340789 
Q 534.583542 351.336102 534.566354 351.336102 
Q 534.550729 351.336102 534.535104 351.331414 
L 534.461667 351.317352 
Q 533.749167 351.195477 533.302292 351.042352 
Q 532.855417 350.887664 532.538229 350.479852 
Q 532.221042 350.072039 532.221042 349.320477 
L 532.221042 349.315789 
Q 532.221042 348.656414 532.516354 348.190789 
Q 532.811667 347.723602 533.377292 347.479852 
Q 533.944479 347.234539 534.739792 347.234539 
Q 535.121042 347.234539 535.489792 347.318914 
Q 535.858542 347.401727 536.216354 347.565789 
Q 536.575729 347.728289 536.922604 347.976727 
L 536.922604 347.976727 
L 536.356979 348.768914 
L 536.356979 348.768914 
Q 535.950729 348.470477 535.547604 348.322039 
Q 535.146042 348.172039 534.739792 348.172039 
Q 534.013229 348.172039 533.610104 348.462664 
Q 533.206979 348.753289 533.206979 349.286102 
L 533.206979 349.290789 
Q 533.206979 349.656414 533.414792 349.867352 
Q 533.622604 350.076727 533.931979 350.176727 
Q 534.242917 350.276727 534.794479 350.384539 
Q 534.813229 350.389227 534.830417 350.392352 
Q 534.847604 350.393914 534.867917 350.398602 
Q 534.891354 350.403289 534.921042 350.409539 
Q 534.950729 350.414227 534.974167 350.418914 
Q 535.619479 350.550164 536.050729 350.731414 
Q 536.483542 350.911102 536.774167 351.314227 
Q 537.064792 351.717352 537.064792 352.415789 
L 537.064792 352.425164 
Q 537.064792 353.075164 536.756979 353.536102 
Q 536.449167 353.997039 535.864792 354.239227 
Q 535.281979 354.481414 534.456979 354.481414 
z
M 545.043503 350.584539 
L 545.043503 351.825164 
Q 545.043503 352.615789 544.73569 353.218914 
Q 544.427878 353.822039 543.863815 354.151727 
Q 543.299753 354.481414 542.557565 354.481414 
Q 541.806003 354.481414 541.237253 354.172039 
Q 540.668503 353.861102 540.356003 353.295477 
Q 540.043503 352.728289 540.043503 351.981414 
L 540.043503 349.886102 
Q 540.043503 349.095477 540.351315 348.495477 
Q 540.659128 347.893914 541.221628 347.564227 
Q 541.78569 347.234539 542.527878 347.234539 
Q 543.138815 347.234539 543.652878 347.497039 
Q 544.168503 347.757977 544.515378 348.236102 
Q 544.862253 348.714227 544.984128 349.343914 
L 544.984128 349.343914 
L 543.906003 349.343914 
L 543.906003 349.343914 
Q 543.81694 348.987664 543.607565 348.731414 
Q 543.39819 348.475164 543.113815 348.340789 
Q 542.831003 348.206414 542.527878 348.206414 
Q 542.088815 348.206414 541.756003 348.417352 
Q 541.424753 348.626727 541.243503 349.004852 
Q 541.063815 349.382977 541.063815 349.886102 
L 541.063815 351.981414 
Q 541.063815 352.440789 541.24819 352.784539 
Q 541.434128 353.128289 541.77319 353.318914 
Q 542.113815 353.509539 542.557565 353.509539 
Q 542.996628 353.509539 543.327878 353.312664 
Q 543.66069 353.114227 543.84194 352.739227 
Q 544.02319 352.362664 544.02319 351.843914 
L 544.02319 351.536102 
L 542.582565 351.536102 
L 542.582565 350.584539 
L 545.043503 350.584539 
z
M 548.631784 354.481414 
Q 547.928659 354.481414 547.430221 354.217352 
Q 546.933346 353.953289 546.670846 353.443914 
Q 546.409909 352.932977 546.409909 352.211102 
L 546.409909 351.639227 
Q 546.409909 350.887664 546.661471 350.356414 
Q 546.913034 349.823602 547.391159 349.545477 
Q 547.870846 349.265789 548.544284 349.265789 
Q 549.178659 349.265789 549.627096 349.584539 
Q 550.077096 349.901727 550.313034 350.501727 
Q 550.550534 351.101727 550.550534 351.942352 
L 550.550534 352.273602 
L 547.133346 352.273602 
L 547.133346 351.473602 
L 549.603659 351.473602 
L 549.603659 351.473602 
Q 549.559909 350.853289 549.283346 350.509539 
Q 549.008346 350.164227 548.544284 350.164227 
Q 547.977096 350.164227 547.667721 350.536102 
Q 547.358346 350.906414 547.358346 351.586102 
L 547.358346 352.229852 
Q 547.358346 352.859539 547.689596 353.197039 
Q 548.022409 353.534539 548.631784 353.534539 
Q 548.934909 353.534539 549.231784 353.412664 
Q 549.530221 353.289227 549.764596 353.070477 
L 549.764596 353.070477 
L 550.419284 353.723602 
L 550.419284 353.723602 
Q 550.042721 354.086102 549.573971 354.284539 
Q 549.105221 354.481414 548.631784 354.481414 
z
M 551.918112 349.339227 
L 552.914987 349.339227 
L 552.914987 354.407977 
L 551.918112 354.407977 
L 551.918112 349.339227 
z
M 554.994675 351.336102 
Q 554.994675 350.800164 554.71655 350.507977 
Q 554.438425 350.214227 553.9353 350.214227 
Q 553.446237 350.214227 553.180612 350.473602 
Q 552.914987 350.731414 552.914987 351.200164 
L 552.811862 350.223602 
Q 553.046237 349.764227 553.424362 349.515789 
Q 553.802487 349.265789 554.261862 349.265789 
Q 555.086862 349.265789 555.538425 349.806414 
Q 555.989987 350.345477 555.989987 351.331414 
L 555.989987 354.407977 
L 554.994675 354.407977 
L 554.994675 351.336102 
z
M 559.29155 354.481414 
Q 558.696237 354.481414 558.24155 354.264227 
Q 557.786862 354.047039 557.5103 353.634539 
Q 557.2353 353.222039 557.161862 352.640789 
L 557.161862 352.640789 
L 558.177487 352.640789 
L 558.177487 352.640789 
Q 558.221237 352.942352 558.368112 353.137664 
Q 558.514987 353.332977 558.746237 353.428289 
Q 558.97905 353.523602 559.29155 353.523602 
Q 559.783737 353.523602 560.057175 353.261102 
Q 560.330612 352.997039 560.330612 352.518914 
L 560.330612 352.303289 
Q 560.330612 351.770477 560.071237 351.481414 
Q 559.813425 351.190789 559.339987 351.190789 
L 558.836862 351.190789 
L 558.836862 350.242352 
L 559.339987 350.242352 
Q 559.755612 350.242352 559.983737 349.993914 
Q 560.213425 349.745477 560.213425 349.290789 
L 560.213425 349.070477 
Q 560.213425 348.651727 559.971237 348.422039 
Q 559.730612 348.192352 559.286862 348.192352 
Q 559.032175 348.192352 558.832175 348.287664 
Q 558.632175 348.382977 558.493112 348.581414 
Q 558.35405 348.778289 558.289987 349.075164 
L 558.289987 349.075164 
L 557.27905 349.075164 
L 557.27905 349.075164 
Q 557.377487 348.495477 557.6478 348.079852 
Q 557.919675 347.664227 558.333737 347.450164 
Q 558.749362 347.234539 559.286862 347.234539 
Q 560.20405 347.234539 560.707175 347.718914 
Q 561.2103 348.201727 561.2103 349.081414 
L 561.2103 349.198602 
Q 561.2103 349.729852 560.921237 350.125164 
Q 560.633737 350.520477 560.107175 350.701727 
Q 560.688425 350.828289 561.007175 351.273602 
Q 561.327487 351.717352 561.327487 352.406414 
L 561.327487 352.523602 
Q 561.327487 353.143914 561.088425 353.582977 
Q 560.849362 354.022039 560.39155 354.251727 
Q 559.9353 354.481414 559.29155 354.481414 
z
" style="fill: #ffffff; stroke: #000000"/>
    <path d="M 516.112253 354.481414 
Q 515.599753 354.481414 515.140378 354.384539 
Q 514.682565 354.286102 514.284128 354.090789 
Q 513.88569 353.895477 513.538815 353.601727 
L 513.538815 353.601727 
L 514.159128 352.840789 
L 514.159128 352.840789 
Q 514.565378 353.192352 515.052878 353.368914 
Q 515.54194 353.543914 516.112253 353.543914 
Q 516.884128 353.543914 517.309128 353.257977 
Q 517.734128 352.972039 517.734128 352.450164 
L 517.734128 352.445477 
Q 517.734128 352.073602 517.540378 351.856414 
Q 517.34819 351.639227 517.04194 351.534539 
Q 516.737253 351.429852 516.25444 351.340789 
Q 516.238815 351.336102 516.221628 351.336102 
Q 516.206003 351.336102 516.190378 351.331414 
L 516.11694 351.317352 
Q 515.40444 351.195477 514.957565 351.042352 
Q 514.51069 350.887664 514.193503 350.479852 
Q 513.876315 350.072039 513.876315 349.320477 
L 513.876315 349.315789 
Q 513.876315 348.656414 514.171628 348.190789 
Q 514.46694 347.723602 515.032565 347.479852 
Q 515.599753 347.234539 516.395065 347.234539 
Q 516.776315 347.234539 517.145065 347.318914 
Q 517.513815 347.401727 517.871628 347.565789 
Q 518.231003 347.728289 518.577878 347.976727 
L 518.577878 347.976727 
L 518.012253 348.768914 
L 518.012253 348.768914 
Q 517.606003 348.470477 517.202878 348.322039 
Q 516.801315 348.172039 516.395065 348.172039 
Q 515.668503 348.172039 515.265378 348.462664 
Q 514.862253 348.753289 514.862253 349.286102 
L 514.862253 349.290789 
Q 514.862253 349.656414 515.070065 349.867352 
Q 515.277878 350.076727 515.587253 350.176727 
Q 515.89819 350.276727 516.449753 350.384539 
Q 516.468503 350.389227 516.48569 350.392352 
Q 516.502878 350.393914 516.52319 350.398602 
Q 516.546628 350.403289 516.576315 350.409539 
Q 516.606003 350.414227 516.62944 350.418914 
Q 517.274753 350.550164 517.706003 350.731414 
Q 518.138815 350.911102 518.42944 351.314227 
Q 518.720065 351.717352 518.720065 352.415789 
L 518.720065 352.425164 
Q 518.720065 353.075164 518.412253 353.536102 
Q 518.10444 353.997039 517.520065 354.239227 
Q 516.937253 354.481414 516.112253 354.481414 
z
M 520.810104 353.461102 
L 522.416354 353.461102 
Q 523.202292 353.461102 523.633542 353.053289 
Q 524.066354 352.645477 524.066354 351.903289 
L 524.066354 349.812664 
Q 524.066354 349.070477 523.633542 348.662664 
Q 523.202292 348.254852 522.416354 348.254852 
L 520.810104 348.254852 
L 520.810104 347.307977 
L 522.386667 347.307977 
Q 523.241354 347.307977 523.846042 347.606414 
Q 524.452292 347.903289 524.769479 348.475164 
Q 525.086667 349.047039 525.086667 349.851727 
L 525.086667 351.864227 
Q 525.086667 352.668914 524.769479 353.240789 
Q 524.452292 353.812664 523.844479 354.111102 
Q 523.236667 354.407977 522.381979 354.407977 
L 520.810104 354.407977 
L 520.810104 353.461102 
z
M 520.136667 347.307977 
L 521.131979 347.307977 
L 521.131979 354.407977 
L 520.136667 354.407977 
L 520.136667 347.307977 
z
M 528.631979 354.481414 
Q 527.988229 354.481414 527.499167 354.237664 
Q 527.011667 353.992352 526.744479 353.545477 
Q 526.478854 353.098602 526.478854 352.507977 
L 526.478854 352.390789 
Q 526.478854 351.859539 526.744479 351.390789 
Q 527.011667 350.922039 527.455417 350.682977 
Q 527.078854 350.476727 526.852292 350.089227 
Q 526.625729 349.700164 526.625729 349.270477 
L 526.625729 349.100164 
Q 526.625729 348.543914 526.874167 348.122039 
Q 527.122604 347.698602 527.577292 347.467352 
Q 528.031979 347.234539 528.631979 347.234539 
Q 529.231979 347.234539 529.686667 347.467352 
Q 530.141354 347.698602 530.389792 348.122039 
Q 530.638229 348.543914 530.638229 349.100164 
L 530.638229 349.270477 
Q 530.638229 349.711102 530.406979 350.097039 
Q 530.175729 350.481414 529.794479 350.682977 
Q 530.242917 350.926727 530.513229 351.393914 
Q 530.785104 351.859539 530.785104 352.390789 
L 530.785104 352.507977 
Q 530.785104 353.098602 530.519479 353.545477 
Q 530.253854 353.992352 529.764792 354.237664 
Q 529.277292 354.481414 528.631979 354.481414 
z
M 528.631979 353.523602 
Q 528.978854 353.523602 529.241354 353.387664 
Q 529.505417 353.250164 529.649167 353.004852 
Q 529.794479 352.757977 529.794479 352.434539 
L 529.794479 352.367352 
Q 529.794479 352.039227 529.649167 351.793914 
Q 529.505417 351.547039 529.241354 351.411102 
Q 528.978854 351.273602 528.631979 351.273602 
Q 528.285104 351.273602 528.021042 351.411102 
Q 527.758542 351.547039 527.613229 351.795477 
Q 527.469479 352.043914 527.469479 352.372039 
L 527.469479 352.445477 
Q 527.469479 352.767352 527.613229 353.011102 
Q 527.758542 353.254852 528.021042 353.389227 
Q 528.285104 353.523602 528.631979 353.523602 
z
M 528.631979 350.315789 
Q 528.930417 350.315789 529.158542 350.187664 
Q 529.388229 350.057977 529.514792 349.818914 
Q 529.642917 349.578289 529.642917 349.265789 
L 529.642917 349.198602 
Q 529.642917 348.900164 529.514792 348.670477 
Q 529.388229 348.440789 529.158542 348.317352 
Q 528.930417 348.192352 528.631979 348.192352 
Q 528.333542 348.192352 528.103854 348.317352 
Q 527.875729 348.440789 527.747604 348.670477 
Q 527.621042 348.900164 527.621042 349.203289 
L 527.621042 349.276727 
Q 527.621042 349.582977 527.747604 349.820477 
Q 527.875729 350.057977 528.103854 350.187664 
Q 528.333542 350.315789 528.631979 350.315789 
z
M 534.456979 354.481414 
Q 533.944479 354.481414 533.485104 354.384539 
Q 533.027292 354.286102 532.628854 354.090789 
Q 532.230417 353.895477 531.883542 353.601727 
L 531.883542 353.601727 
L 532.503854 352.840789 
L 532.503854 352.840789 
Q 532.910104 353.192352 533.397604 353.368914 
Q 533.886667 353.543914 534.456979 353.543914 
Q 535.228854 353.543914 535.653854 353.257977 
Q 536.078854 352.972039 536.078854 352.450164 
L 536.078854 352.445477 
Q 536.078854 352.073602 535.885104 351.856414 
Q 535.692917 351.639227 535.386667 351.534539 
Q 535.081979 351.429852 534.599167 351.340789 
Q 534.583542 351.336102 534.566354 351.336102 
Q 534.550729 351.336102 534.535104 351.331414 
L 534.461667 351.317352 
Q 533.749167 351.195477 533.302292 351.042352 
Q 532.855417 350.887664 532.538229 350.479852 
Q 532.221042 350.072039 532.221042 349.320477 
L 532.221042 349.315789 
Q 532.221042 348.656414 532.516354 348.190789 
Q 532.811667 347.723602 533.377292 347.479852 
Q 533.944479 347.234539 534.739792 347.234539 
Q 535.121042 347.234539 535.489792 347.318914 
Q 535.858542 347.401727 536.216354 347.565789 
Q 536.575729 347.728289 536.922604 347.976727 
L 536.922604 347.976727 
L 536.356979 348.768914 
L 536.356979 348.768914 
Q 535.950729 348.470477 535.547604 348.322039 
Q 535.146042 348.172039 534.739792 348.172039 
Q 534.013229 348.172039 533.610104 348.462664 
Q 533.206979 348.753289 533.206979 349.286102 
L 533.206979 349.290789 
Q 533.206979 349.656414 533.414792 349.867352 
Q 533.622604 350.076727 533.931979 350.176727 
Q 534.242917 350.276727 534.794479 350.384539 
Q 534.813229 350.389227 534.830417 350.392352 
Q 534.847604 350.393914 534.867917 350.398602 
Q 534.891354 350.403289 534.921042 350.409539 
Q 534.950729 350.414227 534.974167 350.418914 
Q 535.619479 350.550164 536.050729 350.731414 
Q 536.483542 350.911102 536.774167 351.314227 
Q 537.064792 351.717352 537.064792 352.415789 
L 537.064792 352.425164 
Q 537.064792 353.075164 536.756979 353.536102 
Q 536.449167 353.997039 535.864792 354.239227 
Q 535.281979 354.481414 534.456979 354.481414 
z
M 545.043503 350.584539 
L 545.043503 351.825164 
Q 545.043503 352.615789 544.73569 353.218914 
Q 544.427878 353.822039 543.863815 354.151727 
Q 543.299753 354.481414 542.557565 354.481414 
Q 541.806003 354.481414 541.237253 354.172039 
Q 540.668503 353.861102 540.356003 353.295477 
Q 540.043503 352.728289 540.043503 351.981414 
L 540.043503 349.886102 
Q 540.043503 349.095477 540.351315 348.495477 
Q 540.659128 347.893914 541.221628 347.564227 
Q 541.78569 347.234539 542.527878 347.234539 
Q 543.138815 347.234539 543.652878 347.497039 
Q 544.168503 347.757977 544.515378 348.236102 
Q 544.862253 348.714227 544.984128 349.343914 
L 544.984128 349.343914 
L 543.906003 349.343914 
L 543.906003 349.343914 
Q 543.81694 348.987664 543.607565 348.731414 
Q 543.39819 348.475164 543.113815 348.340789 
Q 542.831003 348.206414 542.527878 348.206414 
Q 542.088815 348.206414 541.756003 348.417352 
Q 541.424753 348.626727 541.243503 349.004852 
Q 541.063815 349.382977 541.063815 349.886102 
L 541.063815 351.981414 
Q 541.063815 352.440789 541.24819 352.784539 
Q 541.434128 353.128289 541.77319 353.318914 
Q 542.113815 353.509539 542.557565 353.509539 
Q 542.996628 353.509539 543.327878 353.312664 
Q 543.66069 353.114227 543.84194 352.739227 
Q 544.02319 352.362664 544.02319 351.843914 
L 544.02319 351.536102 
L 542.582565 351.536102 
L 542.582565 350.584539 
L 545.043503 350.584539 
z
M 548.631784 354.481414 
Q 547.928659 354.481414 547.430221 354.217352 
Q 546.933346 353.953289 546.670846 353.443914 
Q 546.409909 352.932977 546.409909 352.211102 
L 546.409909 351.639227 
Q 546.409909 350.887664 546.661471 350.356414 
Q 546.913034 349.823602 547.391159 349.545477 
Q 547.870846 349.265789 548.544284 349.265789 
Q 549.178659 349.265789 549.627096 349.584539 
Q 550.077096 349.901727 550.313034 350.501727 
Q 550.550534 351.101727 550.550534 351.942352 
L 550.550534 352.273602 
L 547.133346 352.273602 
L 547.133346 351.473602 
L 549.603659 351.473602 
L 549.603659 351.473602 
Q 549.559909 350.853289 549.283346 350.509539 
Q 549.008346 350.164227 548.544284 350.164227 
Q 547.977096 350.164227 547.667721 350.536102 
Q 547.358346 350.906414 547.358346 351.586102 
L 547.358346 352.229852 
Q 547.358346 352.859539 547.689596 353.197039 
Q 548.022409 353.534539 548.631784 353.534539 
Q 548.934909 353.534539 549.231784 353.412664 
Q 549.530221 353.289227 549.764596 353.070477 
L 549.764596 353.070477 
L 550.419284 353.723602 
L 550.419284 353.723602 
Q 550.042721 354.086102 549.573971 354.284539 
Q 549.105221 354.481414 548.631784 354.481414 
z
M 551.918112 349.339227 
L 552.914987 349.339227 
L 552.914987 354.407977 
L 551.918112 354.407977 
L 551.918112 349.339227 
z
M 554.994675 351.336102 
Q 554.994675 350.800164 554.71655 350.507977 
Q 554.438425 350.214227 553.9353 350.214227 
Q 553.446237 350.214227 553.180612 350.473602 
Q 552.914987 350.731414 552.914987 351.200164 
L 552.811862 350.223602 
Q 553.046237 349.764227 553.424362 349.515789 
Q 553.802487 349.265789 554.261862 349.265789 
Q 555.086862 349.265789 555.538425 349.806414 
Q 555.989987 350.345477 555.989987 351.331414 
L 555.989987 354.407977 
L 554.994675 354.407977 
L 554.994675 351.336102 
z
M 559.29155 354.481414 
Q 558.696237 354.481414 558.24155 354.264227 
Q 557.786862 354.047039 557.5103 353.634539 
Q 557.2353 353.222039 557.161862 352.640789 
L 557.161862 352.640789 
L 558.177487 352.640789 
L 558.177487 352.640789 
Q 558.221237 352.942352 558.368112 353.137664 
Q 558.514987 353.332977 558.746237 353.428289 
Q 558.97905 353.523602 559.29155 353.523602 
Q 559.783737 353.523602 560.057175 353.261102 
Q 560.330612 352.997039 560.330612 352.518914 
L 560.330612 352.303289 
Q 560.330612 351.770477 560.071237 351.481414 
Q 559.813425 351.190789 559.339987 351.190789 
L 558.836862 351.190789 
L 558.836862 350.242352 
L 559.339987 350.242352 
Q 559.755612 350.242352 559.983737 349.993914 
Q 560.213425 349.745477 560.213425 349.290789 
L 560.213425 349.070477 
Q 560.213425 348.651727 559.971237 348.422039 
Q 559.730612 348.192352 559.286862 348.192352 
Q 559.032175 348.192352 558.832175 348.287664 
Q 558.632175 348.382977 558.493112 348.581414 
Q 558.35405 348.778289 558.289987 349.075164 
L 558.289987 349.075164 
L 557.27905 349.075164 
L 557.27905 349.075164 
Q 557.377487 348.495477 557.6478 348.079852 
Q 557.919675 347.664227 558.333737 347.450164 
Q 558.749362 347.234539 559.286862 347.234539 
Q 560.20405 347.234539 560.707175 347.718914 
Q 561.2103 348.201727 561.2103 349.081414 
L 561.2103 349.198602 
Q 561.2103 349.729852 560.921237 350.125164 
Q 560.633737 350.520477 560.107175 350.701727 
Q 560.688425 350.828289 561.007175 351.273602 
Q 561.327487 351.717352 561.327487 352.406414 
L 561.327487 352.523602 
Q 561.327487 353.143914 561.088425 353.582977 
Q 560.849362 354.022039 560.39155 354.251727 
Q 559.9353 354.481414 559.29155 354.481414 
z
" style="fill: #ffffff"/>
   </g>
  </g>
 </g>
 <defs>
  <clipPath id="p8dd62276d6">
   <rect x="144" y="77.76" width="892.8" height="498.96"/>
  </clipPath>
 </defs>
</svg>
