<?xml version="1.0" encoding="utf-8" standalone="no"?>
<!DOCTYPE svg PUBLIC "-//W3C//DTD SVG 1.1//EN"
  "http://www.w3.org/Graphics/SVG/1.1/DTD/svg11.dtd">
<svg xmlns:xlink="http://www.w3.org/1999/xlink" width="1152pt" height="648pt" viewBox="0 0 1152 648" xmlns="http://www.w3.org/2000/svg" version="1.1">
 <metadata>
  <rdf:RDF xmlns:dc="http://purl.org/dc/elements/1.1/" xmlns:cc="http://creativecommons.org/ns#" xmlns:rdf="http://www.w3.org/1999/02/22-rdf-syntax-ns#">
   <cc:Work>
    <dc:type rdf:resource="http://purl.org/dc/dcmitype/StillImage"/>
    <dc:date>2025-09-19T13:20:11.051383</dc:date>
    <dc:format>image/svg+xml</dc:format>
    <dc:creator>
     <cc:Agent>
      <dc:title>Matplotlib v3.10.3, https://matplotlib.org/</dc:title>
     </cc:Agent>
    </dc:creator>
   </cc:Work>
  </rdf:RDF>
 </metadata>
 <defs>
  <style type="text/css">*{stroke-linejoin: round; stroke-linecap: butt}</style>
 </defs>
 <g id="figure_1">
  <g id="patch_1">
   <path d="M 0 648 
L 1152 648 
L 1152 0 
L 0 0 
L 0 648 
z
" style="fill: none"/>
  </g>
  <g id="axes_1">
   <g id="PathCollection_1">
    <defs>
     <path id="meb58e5ecd0" d="M 0 2.738613 
C 0.726289 2.738613 1.422928 2.450055 1.936492 1.936492 
C 2.450055 1.422928 2.738613 0.726289 2.738613 0 
C 2.738613 -0.726289 2.450055 -1.422928 1.936492 -1.936492 
C 1.422928 -2.450055 0.726289 -2.738613 0 -2.738613 
C -0.726289 -2.738613 -1.422928 -2.450055 -1.936492 -1.936492 
C -2.450055 -1.422928 -2.738613 -0.726289 -2.738613 0 
C -2.738613 0.726289 -2.450055 1.422928 -1.936492 1.936492 
C -1.422928 2.450055 -0.726289 2.738613 0 2.738613 
z
" style="stroke: #ff0000"/>
    </defs>
    <g clip-path="url(#p849a9382e0)">
     <use xlink:href="#meb58e5ecd0" x="609.473455" y="399.955104" style="fill: #ff0000; stroke: #ff0000"/>
     <use xlink:href="#meb58e5ecd0" x="318.096" y="454.341744" style="fill: #ff0000; stroke: #ff0000"/>
    </g>
   </g>
   <g id="text_1">
    <path d="M 617.026872 398.486047 
L 620.161247 394.501672 
L 621.386247 394.501672 
L 616.879997 399.979797 
L 617.026872 398.486047 
z
M 616.245622 394.501672 
L 617.240935 394.501672 
L 617.240935 401.601672 
L 616.245622 401.601672 
L 616.245622 394.501672 
z
M 618.208122 397.81261 
L 618.99406 397.084485 
L 621.684685 401.601672 
L 620.464372 401.601672 
L 618.208122 397.81261 
z
M 625.028825 398.076672 
L 625.024138 398.251672 
Q 624.902263 398.476672 624.655388 398.58136 
Q 624.408513 398.686047 624.072575 398.686047 
Q 623.564763 398.686047 623.178825 398.428235 
Q 622.792888 398.168859 622.580388 397.698547 
Q 622.367888 397.226672 622.367888 396.606359 
L 622.367888 396.601672 
Q 622.367888 395.91261 622.599138 395.42511 
Q 622.83195 394.936047 623.278825 394.682922 
Q 623.7257 394.428235 624.3507 394.428235 
Q 624.9757 394.428235 625.41945 394.68761 
Q 625.864763 394.946984 626.096013 395.440735 
Q 626.327263 395.932922 626.327263 396.626672 
L 626.327263 396.63136 
Q 626.327263 397.011047 626.228825 397.44386 
Q 626.13195 397.876672 625.952263 398.30011 
Q 625.922575 398.364172 625.892888 398.429797 
Q 625.864763 398.495422 625.830388 398.559484 
L 624.316325 401.601672 
L 623.241325 401.601672 
L 625.028825 398.076672 
z
M 624.3507 397.778234 
Q 624.81945 397.778234 625.0757 397.461047 
Q 625.33195 397.14386 625.33195 396.567297 
L 625.33195 396.56261 
Q 625.33195 396.001672 625.0757 395.69386 
Q 624.81945 395.386047 624.3507 395.386047 
Q 623.877263 395.386047 623.621013 395.69386 
Q 623.364763 396.001672 623.364763 396.567297 
L 623.364763 396.571984 
Q 623.364763 397.148547 623.621013 397.464172 
Q 623.877263 397.778234 624.3507 397.778234 
z
M 629.673161 401.67511 
Q 628.676286 401.67511 628.160661 401.14386 
Q 627.646599 400.611047 627.646599 399.657922 
L 627.646599 396.431359 
Q 627.646599 395.473547 628.163786 394.94386 
Q 628.680974 394.414172 629.673161 394.414172 
Q 630.668474 394.414172 631.184099 394.942297 
Q 631.699724 395.46886 631.699724 396.431359 
L 631.699724 399.657922 
Q 631.699724 400.615735 631.180974 401.145422 
Q 630.663786 401.67511 629.673161 401.67511 
z
M 629.673161 400.728234 
Q 630.199724 400.728234 630.451286 400.451672 
Q 630.702849 400.17511 630.702849 399.657922 
L 630.702849 396.431359 
Q 630.702849 395.91261 630.452849 395.637609 
Q 630.204411 395.361047 629.673161 395.361047 
Q 629.140349 395.361047 628.890349 395.637609 
Q 628.641911 395.91261 628.641911 396.431359 
L 628.641911 399.657922 
Q 628.641911 400.17511 628.893474 400.451672 
Q 629.145036 400.728234 629.673161 400.728234 
z
M 633.056364 400.73761 
L 635.531364 397.436047 
Q 635.746989 397.153234 635.865739 396.848547 
Q 635.986052 396.542297 635.986052 396.279797 
L 635.986052 396.26886 
Q 635.986052 395.845422 635.736052 395.611047 
Q 635.487614 395.376672 635.029802 395.376672 
Q 634.593864 395.376672 634.325114 395.632922 
Q 634.057927 395.889172 633.998552 396.357922 
L 633.998552 396.36261 
L 632.968864 396.36261 
L 632.968864 396.357922 
Q 633.056364 395.746984 633.326677 395.315735 
Q 633.598552 394.882922 634.028239 394.65636 
Q 634.457927 394.428235 635.018864 394.428235 
Q 635.654802 394.428235 636.103239 394.645422 
Q 636.553239 394.86261 636.787614 395.278234 
Q 637.021989 395.69386 637.021989 396.279797 
L 637.021989 396.284485 
Q 637.021989 396.659485 636.865739 397.070422 
Q 636.709489 397.479797 636.429802 397.861047 
L 634.375114 400.654797 
L 637.061052 400.654797 
L 637.061052 401.601672 
L 633.056364 401.601672 
L 633.056364 400.73761 
z
M 640.356755 401.67511 
Q 639.35988 401.67511 638.844255 401.14386 
Q 638.330192 400.611047 638.330192 399.657922 
L 638.330192 396.431359 
Q 638.330192 395.473547 638.84738 394.94386 
Q 639.364567 394.414172 640.356755 394.414172 
Q 641.352067 394.414172 641.867692 394.942297 
Q 642.383317 395.46886 642.383317 396.431359 
L 642.383317 399.657922 
Q 642.383317 400.615735 641.864567 401.145422 
Q 641.34738 401.67511 640.356755 401.67511 
z
M 640.356755 400.728234 
Q 640.883317 400.728234 641.13488 400.451672 
Q 641.386442 400.17511 641.386442 399.657922 
L 641.386442 396.431359 
Q 641.386442 395.91261 641.136442 395.637609 
Q 640.888005 395.361047 640.356755 395.361047 
Q 639.823942 395.361047 639.573942 395.637609 
Q 639.325505 395.91261 639.325505 396.431359 
L 639.325505 399.657922 
Q 639.325505 400.17511 639.577067 400.451672 
Q 639.82863 400.728234 640.356755 400.728234 
z
" style="fill: #ffffff; stroke: #000000"/>
    <path d="M 617.026872 398.486047 
L 620.161247 394.501672 
L 621.386247 394.501672 
L 616.879997 399.979797 
L 617.026872 398.486047 
z
M 616.245622 394.501672 
L 617.240935 394.501672 
L 617.240935 401.601672 
L 616.245622 401.601672 
L 616.245622 394.501672 
z
M 618.208122 397.81261 
L 618.99406 397.084485 
L 621.684685 401.601672 
L 620.464372 401.601672 
L 618.208122 397.81261 
z
M 625.028825 398.076672 
L 625.024138 398.251672 
Q 624.902263 398.476672 624.655388 398.58136 
Q 624.408513 398.686047 624.072575 398.686047 
Q 623.564763 398.686047 623.178825 398.428235 
Q 622.792888 398.168859 622.580388 397.698547 
Q 622.367888 397.226672 622.367888 396.606359 
L 622.367888 396.601672 
Q 622.367888 395.91261 622.599138 395.42511 
Q 622.83195 394.936047 623.278825 394.682922 
Q 623.7257 394.428235 624.3507 394.428235 
Q 624.9757 394.428235 625.41945 394.68761 
Q 625.864763 394.946984 626.096013 395.440735 
Q 626.327263 395.932922 626.327263 396.626672 
L 626.327263 396.63136 
Q 626.327263 397.011047 626.228825 397.44386 
Q 626.13195 397.876672 625.952263 398.30011 
Q 625.922575 398.364172 625.892888 398.429797 
Q 625.864763 398.495422 625.830388 398.559484 
L 624.316325 401.601672 
L 623.241325 401.601672 
L 625.028825 398.076672 
z
M 624.3507 397.778234 
Q 624.81945 397.778234 625.0757 397.461047 
Q 625.33195 397.14386 625.33195 396.567297 
L 625.33195 396.56261 
Q 625.33195 396.001672 625.0757 395.69386 
Q 624.81945 395.386047 624.3507 395.386047 
Q 623.877263 395.386047 623.621013 395.69386 
Q 623.364763 396.001672 623.364763 396.567297 
L 623.364763 396.571984 
Q 623.364763 397.148547 623.621013 397.464172 
Q 623.877263 397.778234 624.3507 397.778234 
z
M 629.673161 401.67511 
Q 628.676286 401.67511 628.160661 401.14386 
Q 627.646599 400.611047 627.646599 399.657922 
L 627.646599 396.431359 
Q 627.646599 395.473547 628.163786 394.94386 
Q 628.680974 394.414172 629.673161 394.414172 
Q 630.668474 394.414172 631.184099 394.942297 
Q 631.699724 395.46886 631.699724 396.431359 
L 631.699724 399.657922 
Q 631.699724 400.615735 631.180974 401.145422 
Q 630.663786 401.67511 629.673161 401.67511 
z
M 629.673161 400.728234 
Q 630.199724 400.728234 630.451286 400.451672 
Q 630.702849 400.17511 630.702849 399.657922 
L 630.702849 396.431359 
Q 630.702849 395.91261 630.452849 395.637609 
Q 630.204411 395.361047 629.673161 395.361047 
Q 629.140349 395.361047 628.890349 395.637609 
Q 628.641911 395.91261 628.641911 396.431359 
L 628.641911 399.657922 
Q 628.641911 400.17511 628.893474 400.451672 
Q 629.145036 400.728234 629.673161 400.728234 
z
M 633.056364 400.73761 
L 635.531364 397.436047 
Q 635.746989 397.153234 635.865739 396.848547 
Q 635.986052 396.542297 635.986052 396.279797 
L 635.986052 396.26886 
Q 635.986052 395.845422 635.736052 395.611047 
Q 635.487614 395.376672 635.029802 395.376672 
Q 634.593864 395.376672 634.325114 395.632922 
Q 634.057927 395.889172 633.998552 396.357922 
L 633.998552 396.36261 
L 632.968864 396.36261 
L 632.968864 396.357922 
Q 633.056364 395.746984 633.326677 395.315735 
Q 633.598552 394.882922 634.028239 394.65636 
Q 634.457927 394.428235 635.018864 394.428235 
Q 635.654802 394.428235 636.103239 394.645422 
Q 636.553239 394.86261 636.787614 395.278234 
Q 637.021989 395.69386 637.021989 396.279797 
L 637.021989 396.284485 
Q 637.021989 396.659485 636.865739 397.070422 
Q 636.709489 397.479797 636.429802 397.861047 
L 634.375114 400.654797 
L 637.061052 400.654797 
L 637.061052 401.601672 
L 633.056364 401.601672 
L 633.056364 400.73761 
z
M 640.356755 401.67511 
Q 639.35988 401.67511 638.844255 401.14386 
Q 638.330192 400.611047 638.330192 399.657922 
L 638.330192 396.431359 
Q 638.330192 395.473547 638.84738 394.94386 
Q 639.364567 394.414172 640.356755 394.414172 
Q 641.352067 394.414172 641.867692 394.942297 
Q 642.383317 395.46886 642.383317 396.431359 
L 642.383317 399.657922 
Q 642.383317 400.615735 641.864567 401.145422 
Q 641.34738 401.67511 640.356755 401.67511 
z
M 640.356755 400.728234 
Q 640.883317 400.728234 641.13488 400.451672 
Q 641.386442 400.17511 641.386442 399.657922 
L 641.386442 396.431359 
Q 641.386442 395.91261 641.136442 395.637609 
Q 640.888005 395.361047 640.356755 395.361047 
Q 639.823942 395.361047 639.573942 395.637609 
Q 639.325505 395.91261 639.325505 396.431359 
L 639.325505 399.657922 
Q 639.325505 400.17511 639.577067 400.451672 
Q 639.82863 400.728234 640.356755 400.728234 
z
" style="fill: #ffffff"/>
   </g>
   <g id="text_2">
    <path d="M 325.649417 452.872687 
L 328.783793 448.888312 
L 330.008792 448.888312 
L 325.502543 454.366437 
L 325.649417 452.872687 
z
M 324.868167 448.888312 
L 325.86348 448.888312 
L 325.86348 455.988312 
L 324.868167 455.988312 
L 324.868167 448.888312 
z
M 326.830668 452.19925 
L 327.616605 451.471125 
L 330.30723 455.988312 
L 329.086917 455.988312 
L 326.830668 452.19925 
z
M 333.651371 452.463312 
L 333.646683 452.638312 
Q 333.524808 452.863312 333.277933 452.968 
Q 333.031058 453.072687 332.695121 453.072687 
Q 332.187308 453.072687 331.801371 452.814875 
Q 331.415433 452.555499 331.202933 452.085187 
Q 330.990433 451.613312 330.990433 450.992999 
L 330.990433 450.988312 
Q 330.990433 450.29925 331.221683 449.81175 
Q 331.454496 449.322687 331.901371 449.069562 
Q 332.348246 448.814875 332.973246 448.814875 
Q 333.598246 448.814875 334.041996 449.07425 
Q 334.487308 449.333624 334.718558 449.827375 
Q 334.949808 450.319562 334.949808 451.013312 
L 334.949808 451.018 
Q 334.949808 451.397687 334.851371 451.8305 
Q 334.754496 452.263312 334.574808 452.68675 
Q 334.545121 452.750812 334.515433 452.816437 
Q 334.487308 452.882062 334.452933 452.946124 
L 332.938871 455.988312 
L 331.863871 455.988312 
L 333.651371 452.463312 
z
M 332.973246 452.164874 
Q 333.441996 452.164874 333.698246 451.847687 
Q 333.954496 451.5305 333.954496 450.953937 
L 333.954496 450.94925 
Q 333.954496 450.388312 333.698246 450.0805 
Q 333.441996 449.772687 332.973246 449.772687 
Q 332.499808 449.772687 332.243558 450.0805 
Q 331.987308 450.388312 331.987308 450.953937 
L 331.987308 450.958624 
Q 331.987308 451.535187 332.243558 451.850812 
Q 332.499808 452.164874 332.973246 452.164874 
z
M 338.295707 456.06175 
Q 337.298832 456.06175 336.783207 455.5305 
Q 336.269144 454.997687 336.269144 454.044562 
L 336.269144 450.817999 
Q 336.269144 449.860187 336.786332 449.3305 
Q 337.303519 448.800812 338.295707 448.800812 
Q 339.291019 448.800812 339.806644 449.328937 
Q 340.322269 449.8555 340.322269 450.817999 
L 340.322269 454.044562 
Q 340.322269 455.002375 339.803519 455.532062 
Q 339.286332 456.06175 338.295707 456.06175 
z
M 338.295707 455.114874 
Q 338.822269 455.114874 339.073832 454.838312 
Q 339.325394 454.56175 339.325394 454.044562 
L 339.325394 450.817999 
Q 339.325394 450.29925 339.075394 450.024249 
Q 338.826957 449.747687 338.295707 449.747687 
Q 337.762894 449.747687 337.512894 450.024249 
Q 337.264457 450.29925 337.264457 450.817999 
L 337.264457 454.044562 
Q 337.264457 454.56175 337.516019 454.838312 
Q 337.767582 455.114874 338.295707 455.114874 
z
M 341.67891 455.12425 
L 344.15391 451.822687 
Q 344.369535 451.539874 344.488285 451.235187 
Q 344.608597 450.928937 344.608597 450.666437 
L 344.608597 450.6555 
Q 344.608597 450.232062 344.358597 449.997687 
Q 344.11016 449.763312 343.652347 449.763312 
Q 343.21641 449.763312 342.94766 450.019562 
Q 342.680472 450.275812 342.621097 450.744562 
L 342.621097 450.74925 
L 341.59141 450.74925 
L 341.59141 450.744562 
Q 341.67891 450.133624 341.949222 449.702375 
Q 342.221097 449.269562 342.650785 449.043 
Q 343.080472 448.814875 343.64141 448.814875 
Q 344.277347 448.814875 344.725785 449.032062 
Q 345.175785 449.24925 345.41016 449.664874 
Q 345.644535 450.0805 345.644535 450.666437 
L 345.644535 450.671125 
Q 345.644535 451.046125 345.488285 451.457062 
Q 345.332035 451.866437 345.052347 452.247687 
L 342.99766 455.041437 
L 345.683597 455.041437 
L 345.683597 455.988312 
L 341.67891 455.988312 
L 341.67891 455.12425 
z
M 348.9793 456.06175 
Q 347.982425 456.06175 347.4668 455.5305 
Q 346.952738 454.997687 346.952738 454.044562 
L 346.952738 450.817999 
Q 346.952738 449.860187 347.469925 449.3305 
Q 347.987113 448.800812 348.9793 448.800812 
Q 349.974613 448.800812 350.490238 449.328937 
Q 351.005863 449.8555 351.005863 450.817999 
L 351.005863 454.044562 
Q 351.005863 455.002375 350.487113 455.532062 
Q 349.969925 456.06175 348.9793 456.06175 
z
M 348.9793 455.114874 
Q 349.505863 455.114874 349.757425 454.838312 
Q 350.008988 454.56175 350.008988 454.044562 
L 350.008988 450.817999 
Q 350.008988 450.29925 349.758988 450.024249 
Q 349.51055 449.747687 348.9793 449.747687 
Q 348.446488 449.747687 348.196488 450.024249 
Q 347.94805 450.29925 347.94805 450.817999 
L 347.94805 454.044562 
Q 347.94805 454.56175 348.199613 454.838312 
Q 348.451175 455.114874 348.9793 455.114874 
z
" style="fill: #ffffff; stroke: #000000"/>
    <path d="M 325.649417 452.872687 
L 328.783793 448.888312 
L 330.008792 448.888312 
L 325.502543 454.366437 
L 325.649417 452.872687 
z
M 324.868167 448.888312 
L 325.86348 448.888312 
L 325.86348 455.988312 
L 324.868167 455.988312 
L 324.868167 448.888312 
z
M 326.830668 452.19925 
L 327.616605 451.471125 
L 330.30723 455.988312 
L 329.086917 455.988312 
L 326.830668 452.19925 
z
M 333.651371 452.463312 
L 333.646683 452.638312 
Q 333.524808 452.863312 333.277933 452.968 
Q 333.031058 453.072687 332.695121 453.072687 
Q 332.187308 453.072687 331.801371 452.814875 
Q 331.415433 452.555499 331.202933 452.085187 
Q 330.990433 451.613312 330.990433 450.992999 
L 330.990433 450.988312 
Q 330.990433 450.29925 331.221683 449.81175 
Q 331.454496 449.322687 331.901371 449.069562 
Q 332.348246 448.814875 332.973246 448.814875 
Q 333.598246 448.814875 334.041996 449.07425 
Q 334.487308 449.333624 334.718558 449.827375 
Q 334.949808 450.319562 334.949808 451.013312 
L 334.949808 451.018 
Q 334.949808 451.397687 334.851371 451.8305 
Q 334.754496 452.263312 334.574808 452.68675 
Q 334.545121 452.750812 334.515433 452.816437 
Q 334.487308 452.882062 334.452933 452.946124 
L 332.938871 455.988312 
L 331.863871 455.988312 
L 333.651371 452.463312 
z
M 332.973246 452.164874 
Q 333.441996 452.164874 333.698246 451.847687 
Q 333.954496 451.5305 333.954496 450.953937 
L 333.954496 450.94925 
Q 333.954496 450.388312 333.698246 450.0805 
Q 333.441996 449.772687 332.973246 449.772687 
Q 332.499808 449.772687 332.243558 450.0805 
Q 331.987308 450.388312 331.987308 450.953937 
L 331.987308 450.958624 
Q 331.987308 451.535187 332.243558 451.850812 
Q 332.499808 452.164874 332.973246 452.164874 
z
M 338.295707 456.06175 
Q 337.298832 456.06175 336.783207 455.5305 
Q 336.269144 454.997687 336.269144 454.044562 
L 336.269144 450.817999 
Q 336.269144 449.860187 336.786332 449.3305 
Q 337.303519 448.800812 338.295707 448.800812 
Q 339.291019 448.800812 339.806644 449.328937 
Q 340.322269 449.8555 340.322269 450.817999 
L 340.322269 454.044562 
Q 340.322269 455.002375 339.803519 455.532062 
Q 339.286332 456.06175 338.295707 456.06175 
z
M 338.295707 455.114874 
Q 338.822269 455.114874 339.073832 454.838312 
Q 339.325394 454.56175 339.325394 454.044562 
L 339.325394 450.817999 
Q 339.325394 450.29925 339.075394 450.024249 
Q 338.826957 449.747687 338.295707 449.747687 
Q 337.762894 449.747687 337.512894 450.024249 
Q 337.264457 450.29925 337.264457 450.817999 
L 337.264457 454.044562 
Q 337.264457 454.56175 337.516019 454.838312 
Q 337.767582 455.114874 338.295707 455.114874 
z
M 341.67891 455.12425 
L 344.15391 451.822687 
Q 344.369535 451.539874 344.488285 451.235187 
Q 344.608597 450.928937 344.608597 450.666437 
L 344.608597 450.6555 
Q 344.608597 450.232062 344.358597 449.997687 
Q 344.11016 449.763312 343.652347 449.763312 
Q 343.21641 449.763312 342.94766 450.019562 
Q 342.680472 450.275812 342.621097 450.744562 
L 342.621097 450.74925 
L 341.59141 450.74925 
L 341.59141 450.744562 
Q 341.67891 450.133624 341.949222 449.702375 
Q 342.221097 449.269562 342.650785 449.043 
Q 343.080472 448.814875 343.64141 448.814875 
Q 344.277347 448.814875 344.725785 449.032062 
Q 345.175785 449.24925 345.41016 449.664874 
Q 345.644535 450.0805 345.644535 450.666437 
L 345.644535 450.671125 
Q 345.644535 451.046125 345.488285 451.457062 
Q 345.332035 451.866437 345.052347 452.247687 
L 342.99766 455.041437 
L 345.683597 455.041437 
L 345.683597 455.988312 
L 341.67891 455.988312 
L 341.67891 455.12425 
z
M 348.9793 456.06175 
Q 347.982425 456.06175 347.4668 455.5305 
Q 346.952738 454.997687 346.952738 454.044562 
L 346.952738 450.817999 
Q 346.952738 449.860187 347.469925 449.3305 
Q 347.987113 448.800812 348.9793 448.800812 
Q 349.974613 448.800812 350.490238 449.328937 
Q 351.005863 449.8555 351.005863 450.817999 
L 351.005863 454.044562 
Q 351.005863 455.002375 350.487113 455.532062 
Q 349.969925 456.06175 348.9793 456.06175 
z
M 348.9793 455.114874 
Q 349.505863 455.114874 349.757425 454.838312 
Q 350.008988 454.56175 350.008988 454.044562 
L 350.008988 450.817999 
Q 350.008988 450.29925 349.758988 450.024249 
Q 349.51055 449.747687 348.9793 449.747687 
Q 348.446488 449.747687 348.196488 450.024249 
Q 347.94805 450.29925 347.94805 450.817999 
L 347.94805 454.044562 
Q 347.94805 454.56175 348.199613 454.838312 
Q 348.451175 455.114874 348.9793 455.114874 
z
" style="fill: #ffffff"/>
   </g>
  </g>
 </g>
 <defs>
  <clipPath id="p849a9382e0">
   <rect x="144" y="77.76" width="892.8" height="498.96"/>
  </clipPath>
 </defs>
</svg>
