<?xml version="1.0" encoding="utf-8" standalone="no"?>
<!DOCTYPE svg PUBLIC "-//W3C//DTD SVG 1.1//EN"
  "http://www.w3.org/Graphics/SVG/1.1/DTD/svg11.dtd">
<svg xmlns:xlink="http://www.w3.org/1999/xlink" width="1152pt" height="648pt" viewBox="0 0 1152 648" xmlns="http://www.w3.org/2000/svg" version="1.1">
 <metadata>
  <rdf:RDF xmlns:dc="http://purl.org/dc/elements/1.1/" xmlns:cc="http://creativecommons.org/ns#" xmlns:rdf="http://www.w3.org/1999/02/22-rdf-syntax-ns#">
   <cc:Work>
    <dc:type rdf:resource="http://purl.org/dc/dcmitype/StillImage"/>
    <dc:date>2025-09-19T13:20:11.236166</dc:date>
    <dc:format>image/svg+xml</dc:format>
    <dc:creator>
     <cc:Agent>
      <dc:title>Matplotlib v3.10.3, https://matplotlib.org/</dc:title>
     </cc:Agent>
    </dc:creator>
   </cc:Work>
  </rdf:RDF>
 </metadata>
 <defs>
  <style type="text/css">*{stroke-linejoin: round; stroke-linecap: butt}</style>
 </defs>
 <g id="figure_1">
  <g id="patch_1">
   <path d="M 0 648 
L 1152 648 
L 1152 0 
L 0 0 
L 0 648 
z
" style="fill: none"/>
  </g>
  <g id="axes_1">
   <g id="line2d_1">
    <path d="M 236.526545 512.224432 
L 239.535339 509.666336 
L 242.544132 507.112634 
L 245.552926 504.567688 
L 248.561719 502.035803 
L 251.570512 499.521194 
L 254.579306 497.027958 
L 257.588099 494.560053 
L 260.596893 492.121269 
L 263.605686 489.715209 
L 266.614479 487.345269 
L 269.623273 485.014621 
L 272.632066 482.726202 
L 275.64086 480.482698 
L 278.649653 478.286542 
L 281.658446 476.139906 
L 284.66724 474.044697 
L 287.676033 472.002562 
L 290.684826 470.014885 
L 293.69362 468.082798 
L 296.702413 466.207183 
L 299.711207 464.388683 
L 302.72 462.627713 
L 305.728793 460.924469 
L 308.737587 459.278946 
L 311.74638 457.690943 
L 314.755174 456.160086 
L 317.763967 454.685835 
L 320.77276 453.267505 
L 323.781554 451.904273 
L 326.790347 450.5952 
L 329.79914 449.339241 
L 332.807934 448.135256 
L 335.816727 446.982029 
L 338.825521 445.878277 
L 341.834314 444.82266 
L 344.843107 443.813795 
L 347.851901 442.850266 
L 350.860694 441.930631 
L 353.869488 441.053433 
L 356.878281 440.217207 
L 359.887074 439.420488 
L 362.895868 438.661816 
L 365.904661 437.939741 
L 368.913455 437.252833 
L 371.922248 436.59968 
L 374.931041 435.978897 
L 377.939835 435.389125 
L 380.948628 434.829037 
L 383.957421 434.29734 
L 386.966215 433.792774 
L 389.975008 433.314118 
L 392.983802 432.860188 
L 395.992595 432.429838 
L 399.001388 432.02196 
L 402.010182 431.635487 
L 405.018975 431.269392 
L 408.027769 430.922684 
L 411.036562 430.594415 
L 414.045355 430.283671 
L 417.054149 429.989579 
L 420.062942 429.711302 
L 423.071736 429.448038 
L 426.080529 429.199021 
L 429.089322 428.96352 
L 432.098116 428.740836 
L 435.106909 428.530304 
L 438.115702 428.331289 
L 441.124496 428.143185 
L 444.133289 427.965417 
L 447.142083 427.797437 
L 450.150876 427.638724 
L 453.159669 427.488783 
L 456.168463 427.347144 
L 459.177256 427.213358 
L 462.18605 427.087004 
L 465.194843 426.967676 
L 468.203636 426.854995 
L 471.21243 426.748597 
L 474.221223 426.648141 
L 477.230017 426.553299 
L 480.23881 426.463765 
L 483.247603 426.379245 
L 486.256397 426.299465 
L 489.26519 426.224162 
L 492.273983 426.153088 
L 495.282777 426.08601 
L 498.29157 426.022705 
L 501.300364 425.962964 
L 504.309157 425.906588 
L 507.31795 425.85339 
L 510.326744 425.803192 
L 513.335537 425.755827 
L 516.344331 425.711137 
L 519.353124 425.668972 
L 522.361917 425.629189 
L 525.370711 425.591656 
L 528.379504 425.556246 
L 531.388298 425.52284 
L 534.397091 425.491326 
" clip-path="url(#pe0e7dbea25)" style="fill: none; stroke: #30b1f2; stroke-width: 3; stroke-linecap: round"/>
   </g>
   <g id="text_1">
    <path d="M 542.198946 420.619144 
L 543.194258 420.619144 
L 543.194258 427.137894 
L 542.198946 427.137894 
L 542.198946 420.619144 
z
M 540.191133 420.037894 
L 545.202071 420.037894 
L 545.202071 420.984769 
L 540.191133 420.984769 
L 540.191133 420.037894 
z
M 547.960274 427.211331 
Q 547.257149 427.211331 546.758712 426.947269 
Q 546.261837 426.683206 545.999337 426.173831 
Q 545.738399 425.662894 545.738399 424.941019 
L 545.738399 424.369144 
Q 545.738399 423.617581 545.989962 423.086331 
Q 546.241524 422.553519 546.719649 422.275394 
Q 547.199337 421.995706 547.872774 421.995706 
Q 548.507149 421.995706 548.955587 422.314456 
Q 549.405587 422.631644 549.641524 423.231644 
Q 549.879024 423.831644 549.879024 424.672269 
L 549.879024 425.003519 
L 546.461837 425.003519 
L 546.461837 424.203519 
L 548.932149 424.203519 
L 548.932149 424.203519 
Q 548.888399 423.583206 548.611837 423.239456 
Q 548.336837 422.894144 547.872774 422.894144 
Q 547.305587 422.894144 546.996212 423.266019 
Q 546.686837 423.636331 546.686837 424.316019 
L 546.686837 424.959769 
Q 546.686837 425.589456 547.018087 425.926956 
Q 547.350899 426.264456 547.960274 426.264456 
Q 548.263399 426.264456 548.560274 426.142581 
Q 548.858712 426.019144 549.093087 425.800394 
L 549.093087 425.800394 
L 549.747774 426.453519 
L 549.747774 426.453519 
Q 549.371212 426.816019 548.902462 427.014456 
Q 548.433712 427.211331 547.960274 427.211331 
z
M 551.246602 422.069144 
L 552.243477 422.069144 
L 552.243477 427.137894 
L 551.246602 427.137894 
L 551.246602 422.069144 
z
M 554.323165 424.066019 
Q 554.323165 423.530081 554.04504 423.237894 
Q 553.766915 422.944144 553.26379 422.944144 
Q 552.774727 422.944144 552.509102 423.203519 
Q 552.243477 423.461331 552.243477 423.930081 
L 552.140352 422.953519 
Q 552.374727 422.494144 552.752852 422.245706 
Q 553.130977 421.995706 553.590352 421.995706 
Q 554.415352 421.995706 554.866915 422.536331 
Q 555.318477 423.075394 555.318477 424.061331 
L 555.318477 427.137894 
L 554.323165 427.137894 
L 554.323165 424.066019 
z
M 558.624727 427.211331 
Q 558.174727 427.211331 557.780977 427.123831 
Q 557.38879 427.034769 557.046602 426.859769 
Q 556.705977 426.683206 556.416915 426.420706 
L 556.416915 426.420706 
L 557.009102 425.692581 
L 557.009102 425.692581 
Q 557.418477 426.005081 557.823165 426.161331 
Q 558.229415 426.317581 558.624727 426.317581 
Q 559.215352 426.317581 559.510665 426.134769 
Q 559.805977 425.951956 559.805977 425.584769 
Q 559.805977 425.341019 559.64504 425.219144 
Q 559.484102 425.097269 559.24504 425.056644 
Q 559.005977 425.014456 558.571602 424.980081 
Q 558.53254 424.980081 558.487227 424.978519 
Q 558.443477 424.975394 558.404415 424.969144 
Q 558.385665 424.969144 558.365352 424.967581 
Q 558.346602 424.964456 558.32629 424.964456 
Q 557.834102 424.925394 557.491915 424.820706 
Q 557.149727 424.716019 556.923165 424.428519 
Q 556.696602 424.139456 556.696602 423.601956 
Q 556.696602 423.066019 556.915352 422.709769 
Q 557.135665 422.351956 557.57004 422.173831 
Q 558.004415 421.995706 558.659102 421.995706 
Q 559.054415 421.995706 559.412227 422.069144 
Q 559.771602 422.142581 560.098165 422.286331 
Q 560.42629 422.430081 560.729415 422.650394 
L 560.729415 422.650394 
L 560.127852 423.378519 
L 560.127852 423.378519 
Q 559.748165 423.133206 559.379415 423.011331 
Q 559.010665 422.889456 558.659102 422.889456 
Q 558.15129 422.889456 557.896602 423.062894 
Q 557.643477 423.236331 557.643477 423.583206 
Q 557.643477 423.787894 557.787227 423.891019 
Q 557.930977 423.992581 558.149727 424.026956 
Q 558.37004 424.061331 558.77629 424.086331 
Q 558.805977 424.091019 558.837227 424.091019 
Q 558.868477 424.091019 558.902852 424.095706 
Q 558.916915 424.095706 558.930977 424.095706 
Q 558.946602 424.095706 558.962227 424.100394 
Q 559.493477 424.134769 559.866915 424.242581 
Q 560.240352 424.350394 560.493477 424.667581 
Q 560.748165 424.984769 560.748165 425.584769 
Q 560.748165 426.131644 560.51379 426.491019 
Q 560.279415 426.850394 559.80754 427.031644 
Q 559.337227 427.211331 558.624727 427.211331 
z
M 563.961837 427.211331 
Q 563.302462 427.211331 562.833712 426.953519 
Q 562.364962 426.694144 562.118087 426.198831 
Q 561.871212 425.701956 561.871212 425.003519 
L 561.871212 424.178519 
Q 561.871212 423.491019 562.118087 423.000394 
Q 562.364962 422.508206 562.833712 422.251956 
Q 563.302462 421.995706 563.961837 421.995706 
Q 564.621212 421.995706 565.089962 422.251956 
Q 565.558712 422.508206 565.804024 423.000394 
Q 566.050899 423.491019 566.050899 424.178519 
L 566.050899 425.019144 
Q 566.050899 425.711331 565.804024 426.203519 
Q 565.558712 426.694144 565.089962 426.953519 
Q 564.621212 427.211331 563.961837 427.211331 
z
M 563.961837 426.264456 
Q 564.483712 426.264456 564.769649 425.937894 
Q 565.055587 425.609769 565.055587 425.019144 
L 565.055587 424.178519 
Q 565.055587 423.587894 564.769649 423.266019 
Q 564.483712 422.944144 563.961837 422.944144 
Q 563.438399 422.944144 563.152462 423.266019 
Q 562.868087 423.587894 562.868087 424.178519 
L 562.868087 425.019144 
Q 562.868087 425.609769 563.152462 425.937894 
Q 563.438399 426.264456 563.961837 426.264456 
z
M 567.467305 422.069144 
L 568.46418 422.069144 
L 568.46418 427.137894 
L 567.467305 427.137894 
L 567.467305 422.069144 
z
M 570.254805 423.270706 
Q 570.123555 423.109769 569.923555 423.026956 
Q 569.723555 422.944144 569.459493 422.944144 
Q 568.986055 422.944144 568.725118 423.205081 
Q 568.46418 423.466019 568.46418 423.930081 
L 568.361055 422.953519 
Q 568.59543 422.498831 568.965743 422.247269 
Q 569.337618 421.995706 569.786055 421.995706 
Q 570.13293 421.995706 570.41418 422.095706 
Q 570.69543 422.195706 570.904805 422.391019 
L 570.254805 423.270706 
z
M 578.39543 423.314456 
L 578.39543 424.555081 
Q 578.39543 425.345706 578.087618 425.948831 
Q 577.779805 426.551956 577.215743 426.881644 
Q 576.65168 427.211331 575.909493 427.211331 
Q 575.15793 427.211331 574.58918 426.901956 
Q 574.02043 426.591019 573.70793 426.025394 
Q 573.39543 425.458206 573.39543 424.711331 
L 573.39543 422.616019 
Q 573.39543 421.825394 573.703243 421.225394 
Q 574.011055 420.623831 574.573555 420.294144 
Q 575.137618 419.964456 575.879805 419.964456 
Q 576.490743 419.964456 577.004805 420.226956 
Q 577.52043 420.487894 577.867305 420.966019 
Q 578.21418 421.444144 578.336055 422.073831 
L 578.336055 422.073831 
L 577.25793 422.073831 
L 577.25793 422.073831 
Q 577.168868 421.717581 576.959493 421.461331 
Q 576.750118 421.205081 576.465743 421.070706 
Q 576.18293 420.936331 575.879805 420.936331 
Q 575.440743 420.936331 575.10793 421.147269 
Q 574.77668 421.356644 574.59543 421.734769 
Q 574.415743 422.112894 574.415743 422.616019 
L 574.415743 424.711331 
Q 574.415743 425.170706 574.600118 425.514456 
Q 574.786055 425.858206 575.125118 426.048831 
Q 575.465743 426.239456 575.909493 426.239456 
Q 576.348555 426.239456 576.679805 426.042581 
Q 577.012618 425.844144 577.193868 425.469144 
Q 577.375118 425.092581 577.375118 424.573831 
L 577.375118 424.266019 
L 575.934493 424.266019 
L 575.934493 423.314456 
L 578.39543 423.314456 
z
M 581.696212 427.211331 
Q 581.100899 427.211331 580.646212 426.994144 
Q 580.191524 426.776956 579.914962 426.364456 
Q 579.639962 425.951956 579.566524 425.370706 
L 579.566524 425.370706 
L 580.582149 425.370706 
L 580.582149 425.370706 
Q 580.625899 425.672269 580.772774 425.867581 
Q 580.919649 426.062894 581.150899 426.158206 
Q 581.383712 426.253519 581.696212 426.253519 
Q 582.188399 426.253519 582.461837 425.991019 
Q 582.735274 425.726956 582.735274 425.248831 
L 582.735274 425.033206 
Q 582.735274 424.500394 582.475899 424.211331 
Q 582.218087 423.920706 581.744649 423.920706 
L 581.241524 423.920706 
L 581.241524 422.972269 
L 581.744649 422.972269 
Q 582.160274 422.972269 582.388399 422.723831 
Q 582.618087 422.475394 582.618087 422.020706 
L 582.618087 421.800394 
Q 582.618087 421.381644 582.375899 421.151956 
Q 582.135274 420.922269 581.691524 420.922269 
Q 581.436837 420.922269 581.236837 421.017581 
Q 581.036837 421.112894 580.897774 421.311331 
Q 580.758712 421.508206 580.694649 421.805081 
L 580.694649 421.805081 
L 579.683712 421.805081 
L 579.683712 421.805081 
Q 579.782149 421.225394 580.052462 420.809769 
Q 580.324337 420.394144 580.738399 420.180081 
Q 581.154024 419.964456 581.691524 419.964456 
Q 582.608712 419.964456 583.111837 420.448831 
Q 583.614962 420.931644 583.614962 421.811331 
L 583.614962 421.928519 
Q 583.614962 422.459769 583.325899 422.855081 
Q 583.038399 423.250394 582.511837 423.431644 
Q 583.093087 423.558206 583.411837 424.003519 
Q 583.732149 424.447269 583.732149 425.136331 
L 583.732149 425.253519 
Q 583.732149 425.873831 583.493087 426.312894 
Q 583.254024 426.751956 582.796212 426.981644 
Q 582.339962 427.211331 581.696212 427.211331 
z
" style="fill: #ffffff; stroke: #000000"/>
    <path d="M 542.198946 420.619144 
L 543.194258 420.619144 
L 543.194258 427.137894 
L 542.198946 427.137894 
L 542.198946 420.619144 
z
M 540.191133 420.037894 
L 545.202071 420.037894 
L 545.202071 420.984769 
L 540.191133 420.984769 
L 540.191133 420.037894 
z
M 547.960274 427.211331 
Q 547.257149 427.211331 546.758712 426.947269 
Q 546.261837 426.683206 545.999337 426.173831 
Q 545.738399 425.662894 545.738399 424.941019 
L 545.738399 424.369144 
Q 545.738399 423.617581 545.989962 423.086331 
Q 546.241524 422.553519 546.719649 422.275394 
Q 547.199337 421.995706 547.872774 421.995706 
Q 548.507149 421.995706 548.955587 422.314456 
Q 549.405587 422.631644 549.641524 423.231644 
Q 549.879024 423.831644 549.879024 424.672269 
L 549.879024 425.003519 
L 546.461837 425.003519 
L 546.461837 424.203519 
L 548.932149 424.203519 
L 548.932149 424.203519 
Q 548.888399 423.583206 548.611837 423.239456 
Q 548.336837 422.894144 547.872774 422.894144 
Q 547.305587 422.894144 546.996212 423.266019 
Q 546.686837 423.636331 546.686837 424.316019 
L 546.686837 424.959769 
Q 546.686837 425.589456 547.018087 425.926956 
Q 547.350899 426.264456 547.960274 426.264456 
Q 548.263399 426.264456 548.560274 426.142581 
Q 548.858712 426.019144 549.093087 425.800394 
L 549.093087 425.800394 
L 549.747774 426.453519 
L 549.747774 426.453519 
Q 549.371212 426.816019 548.902462 427.014456 
Q 548.433712 427.211331 547.960274 427.211331 
z
M 551.246602 422.069144 
L 552.243477 422.069144 
L 552.243477 427.137894 
L 551.246602 427.137894 
L 551.246602 422.069144 
z
M 554.323165 424.066019 
Q 554.323165 423.530081 554.04504 423.237894 
Q 553.766915 422.944144 553.26379 422.944144 
Q 552.774727 422.944144 552.509102 423.203519 
Q 552.243477 423.461331 552.243477 423.930081 
L 552.140352 422.953519 
Q 552.374727 422.494144 552.752852 422.245706 
Q 553.130977 421.995706 553.590352 421.995706 
Q 554.415352 421.995706 554.866915 422.536331 
Q 555.318477 423.075394 555.318477 424.061331 
L 555.318477 427.137894 
L 554.323165 427.137894 
L 554.323165 424.066019 
z
M 558.624727 427.211331 
Q 558.174727 427.211331 557.780977 427.123831 
Q 557.38879 427.034769 557.046602 426.859769 
Q 556.705977 426.683206 556.416915 426.420706 
L 556.416915 426.420706 
L 557.009102 425.692581 
L 557.009102 425.692581 
Q 557.418477 426.005081 557.823165 426.161331 
Q 558.229415 426.317581 558.624727 426.317581 
Q 559.215352 426.317581 559.510665 426.134769 
Q 559.805977 425.951956 559.805977 425.584769 
Q 559.805977 425.341019 559.64504 425.219144 
Q 559.484102 425.097269 559.24504 425.056644 
Q 559.005977 425.014456 558.571602 424.980081 
Q 558.53254 424.980081 558.487227 424.978519 
Q 558.443477 424.975394 558.404415 424.969144 
Q 558.385665 424.969144 558.365352 424.967581 
Q 558.346602 424.964456 558.32629 424.964456 
Q 557.834102 424.925394 557.491915 424.820706 
Q 557.149727 424.716019 556.923165 424.428519 
Q 556.696602 424.139456 556.696602 423.601956 
Q 556.696602 423.066019 556.915352 422.709769 
Q 557.135665 422.351956 557.57004 422.173831 
Q 558.004415 421.995706 558.659102 421.995706 
Q 559.054415 421.995706 559.412227 422.069144 
Q 559.771602 422.142581 560.098165 422.286331 
Q 560.42629 422.430081 560.729415 422.650394 
L 560.729415 422.650394 
L 560.127852 423.378519 
L 560.127852 423.378519 
Q 559.748165 423.133206 559.379415 423.011331 
Q 559.010665 422.889456 558.659102 422.889456 
Q 558.15129 422.889456 557.896602 423.062894 
Q 557.643477 423.236331 557.643477 423.583206 
Q 557.643477 423.787894 557.787227 423.891019 
Q 557.930977 423.992581 558.149727 424.026956 
Q 558.37004 424.061331 558.77629 424.086331 
Q 558.805977 424.091019 558.837227 424.091019 
Q 558.868477 424.091019 558.902852 424.095706 
Q 558.916915 424.095706 558.930977 424.095706 
Q 558.946602 424.095706 558.962227 424.100394 
Q 559.493477 424.134769 559.866915 424.242581 
Q 560.240352 424.350394 560.493477 424.667581 
Q 560.748165 424.984769 560.748165 425.584769 
Q 560.748165 426.131644 560.51379 426.491019 
Q 560.279415 426.850394 559.80754 427.031644 
Q 559.337227 427.211331 558.624727 427.211331 
z
M 563.961837 427.211331 
Q 563.302462 427.211331 562.833712 426.953519 
Q 562.364962 426.694144 562.118087 426.198831 
Q 561.871212 425.701956 561.871212 425.003519 
L 561.871212 424.178519 
Q 561.871212 423.491019 562.118087 423.000394 
Q 562.364962 422.508206 562.833712 422.251956 
Q 563.302462 421.995706 563.961837 421.995706 
Q 564.621212 421.995706 565.089962 422.251956 
Q 565.558712 422.508206 565.804024 423.000394 
Q 566.050899 423.491019 566.050899 424.178519 
L 566.050899 425.019144 
Q 566.050899 425.711331 565.804024 426.203519 
Q 565.558712 426.694144 565.089962 426.953519 
Q 564.621212 427.211331 563.961837 427.211331 
z
M 563.961837 426.264456 
Q 564.483712 426.264456 564.769649 425.937894 
Q 565.055587 425.609769 565.055587 425.019144 
L 565.055587 424.178519 
Q 565.055587 423.587894 564.769649 423.266019 
Q 564.483712 422.944144 563.961837 422.944144 
Q 563.438399 422.944144 563.152462 423.266019 
Q 562.868087 423.587894 562.868087 424.178519 
L 562.868087 425.019144 
Q 562.868087 425.609769 563.152462 425.937894 
Q 563.438399 426.264456 563.961837 426.264456 
z
M 567.467305 422.069144 
L 568.46418 422.069144 
L 568.46418 427.137894 
L 567.467305 427.137894 
L 567.467305 422.069144 
z
M 570.254805 423.270706 
Q 570.123555 423.109769 569.923555 423.026956 
Q 569.723555 422.944144 569.459493 422.944144 
Q 568.986055 422.944144 568.725118 423.205081 
Q 568.46418 423.466019 568.46418 423.930081 
L 568.361055 422.953519 
Q 568.59543 422.498831 568.965743 422.247269 
Q 569.337618 421.995706 569.786055 421.995706 
Q 570.13293 421.995706 570.41418 422.095706 
Q 570.69543 422.195706 570.904805 422.391019 
L 570.254805 423.270706 
z
M 578.39543 423.314456 
L 578.39543 424.555081 
Q 578.39543 425.345706 578.087618 425.948831 
Q 577.779805 426.551956 577.215743 426.881644 
Q 576.65168 427.211331 575.909493 427.211331 
Q 575.15793 427.211331 574.58918 426.901956 
Q 574.02043 426.591019 573.70793 426.025394 
Q 573.39543 425.458206 573.39543 424.711331 
L 573.39543 422.616019 
Q 573.39543 421.825394 573.703243 421.225394 
Q 574.011055 420.623831 574.573555 420.294144 
Q 575.137618 419.964456 575.879805 419.964456 
Q 576.490743 419.964456 577.004805 420.226956 
Q 577.52043 420.487894 577.867305 420.966019 
Q 578.21418 421.444144 578.336055 422.073831 
L 578.336055 422.073831 
L 577.25793 422.073831 
L 577.25793 422.073831 
Q 577.168868 421.717581 576.959493 421.461331 
Q 576.750118 421.205081 576.465743 421.070706 
Q 576.18293 420.936331 575.879805 420.936331 
Q 575.440743 420.936331 575.10793 421.147269 
Q 574.77668 421.356644 574.59543 421.734769 
Q 574.415743 422.112894 574.415743 422.616019 
L 574.415743 424.711331 
Q 574.415743 425.170706 574.600118 425.514456 
Q 574.786055 425.858206 575.125118 426.048831 
Q 575.465743 426.239456 575.909493 426.239456 
Q 576.348555 426.239456 576.679805 426.042581 
Q 577.012618 425.844144 577.193868 425.469144 
Q 577.375118 425.092581 577.375118 424.573831 
L 577.375118 424.266019 
L 575.934493 424.266019 
L 575.934493 423.314456 
L 578.39543 423.314456 
z
M 581.696212 427.211331 
Q 581.100899 427.211331 580.646212 426.994144 
Q 580.191524 426.776956 579.914962 426.364456 
Q 579.639962 425.951956 579.566524 425.370706 
L 579.566524 425.370706 
L 580.582149 425.370706 
L 580.582149 425.370706 
Q 580.625899 425.672269 580.772774 425.867581 
Q 580.919649 426.062894 581.150899 426.158206 
Q 581.383712 426.253519 581.696212 426.253519 
Q 582.188399 426.253519 582.461837 425.991019 
Q 582.735274 425.726956 582.735274 425.248831 
L 582.735274 425.033206 
Q 582.735274 424.500394 582.475899 424.211331 
Q 582.218087 423.920706 581.744649 423.920706 
L 581.241524 423.920706 
L 581.241524 422.972269 
L 581.744649 422.972269 
Q 582.160274 422.972269 582.388399 422.723831 
Q 582.618087 422.475394 582.618087 422.020706 
L 582.618087 421.800394 
Q 582.618087 421.381644 582.375899 421.151956 
Q 582.135274 420.922269 581.691524 420.922269 
Q 581.436837 420.922269 581.236837 421.017581 
Q 581.036837 421.112894 580.897774 421.311331 
Q 580.758712 421.508206 580.694649 421.805081 
L 580.694649 421.805081 
L 579.683712 421.805081 
L 579.683712 421.805081 
Q 579.782149 421.225394 580.052462 420.809769 
Q 580.324337 420.394144 580.738399 420.180081 
Q 581.154024 419.964456 581.691524 419.964456 
Q 582.608712 419.964456 583.111837 420.448831 
Q 583.614962 420.931644 583.614962 421.811331 
L 583.614962 421.928519 
Q 583.614962 422.459769 583.325899 422.855081 
Q 583.038399 423.250394 582.511837 423.431644 
Q 583.093087 423.558206 583.411837 424.003519 
Q 583.732149 424.447269 583.732149 425.136331 
L 583.732149 425.253519 
Q 583.732149 425.873831 583.493087 426.312894 
Q 583.254024 426.751956 582.796212 426.981644 
Q 582.339962 427.211331 581.696212 427.211331 
z
" style="fill: #ffffff"/>
   </g>
  </g>
 </g>
 <defs>
  <clipPath id="pe0e7dbea25">
   <rect x="144" y="77.76" width="892.8" height="498.96"/>
  </clipPath>
 </defs>
</svg>
