<?xml version="1.0" encoding="utf-8" standalone="no"?>
<!DOCTYPE svg PUBLIC "-//W3C//DTD SVG 1.1//EN"
  "http://www.w3.org/Graphics/SVG/1.1/DTD/svg11.dtd">
<svg xmlns:xlink="http://www.w3.org/1999/xlink" width="1152pt" height="648pt" viewBox="0 0 1152 648" xmlns="http://www.w3.org/2000/svg" version="1.1">
 <metadata>
  <rdf:RDF xmlns:dc="http://purl.org/dc/elements/1.1/" xmlns:cc="http://creativecommons.org/ns#" xmlns:rdf="http://www.w3.org/1999/02/22-rdf-syntax-ns#">
   <cc:Work>
    <dc:type rdf:resource="http://purl.org/dc/dcmitype/StillImage"/>
    <dc:date>2025-09-19T13:20:10.686960</dc:date>
    <dc:format>image/svg+xml</dc:format>
    <dc:creator>
     <cc:Agent>
      <dc:title>Matplotlib v3.10.3, https://matplotlib.org/</dc:title>
     </cc:Agent>
    </dc:creator>
   </cc:Work>
  </rdf:RDF>
 </metadata>
 <defs>
  <style type="text/css">*{stroke-linejoin: round; stroke-linecap: butt}</style>
 </defs>
 <g id="figure_1">
  <g id="patch_1">
   <path d="M 0 648 
L 1152 648 
L 1152 0 
L 0 0 
L 0 648 
z
" style="fill: none"/>
  </g>
  <g id="axes_1">
   <g id="line2d_1">
    <path d="M 216.235636 496.824321 
L 219.174744 494.952233 
L 222.113851 493.081327 
L 225.052959 491.212782 
L 227.992066 489.347773 
L 230.931174 487.487464 
L 233.870281 485.633008 
L 236.809388 483.785542 
L 239.748496 481.946188 
L 242.687603 480.116046 
L 245.626711 478.296196 
L 248.565818 476.487689 
L 251.504926 474.691551 
L 254.444033 472.90878 
L 257.38314 471.140341 
L 260.322248 469.387163 
L 263.261355 467.650145 
L 266.200463 465.930145 
L 269.13957 464.227985 
L 272.078678 462.544447 
L 275.017785 460.880274 
L 277.956893 459.236167 
L 280.896 457.612784 
L 283.835107 456.010743 
L 286.774215 454.430617 
L 289.713322 452.872938 
L 292.65243 451.338193 
L 295.591537 449.826828 
L 298.530645 448.339246 
L 301.469752 446.875808 
L 304.40886 445.436833 
L 307.347967 444.022598 
L 310.287074 442.633341 
L 313.226182 441.269262 
L 316.165289 439.930521 
L 319.104397 438.617239 
L 322.043504 437.329505 
L 324.982612 436.067369 
L 327.921719 434.83085 
L 330.860826 433.619934 
L 333.799934 432.434574 
L 336.739041 431.274695 
L 339.678149 430.140195 
L 342.617256 429.030942 
L 345.556364 427.946781 
L 348.495471 426.887531 
L 351.434579 425.852991 
L 354.373686 424.842936 
L 357.312793 423.857124 
L 360.251901 422.895292 
L 363.191008 421.957162 
L 366.130116 421.042439 
L 369.069223 420.150815 
L 372.008331 419.281968 
L 374.947438 418.435565 
L 377.886545 417.61126 
L 380.825653 416.808701 
L 383.76476 416.027526 
L 386.703868 415.267364 
L 389.642975 414.527842 
L 392.582083 413.808577 
L 395.52119 413.109185 
L 398.460298 412.429277 
L 401.399405 411.768463 
L 404.338512 411.126348 
L 407.27762 410.50254 
L 410.216727 409.896644 
L 413.155835 409.308266 
L 416.094942 408.737012 
L 419.03405 408.182493 
L 421.973157 407.644317 
L 424.912264 407.122098 
L 427.851372 406.615453 
L 430.790479 406.124001 
L 433.729587 405.647365 
L 436.668694 405.185173 
L 439.607802 404.737058 
L 442.546909 404.302656 
L 445.486017 403.881609 
L 448.425124 403.473566 
L 451.364231 403.078178 
L 454.303339 402.695104 
L 457.242446 402.324009 
L 460.181554 401.964564 
L 463.120661 401.616444 
L 466.059769 401.279333 
L 468.998876 400.95292 
L 471.937983 400.636899 
L 474.877091 400.330973 
L 477.816198 400.03485 
L 480.755306 399.748245 
L 483.694413 399.470877 
L 486.633521 399.202475 
L 489.572628 398.942773 
L 492.511736 398.69151 
L 495.450843 398.448433 
L 498.38995 398.213294 
L 501.329058 397.985853 
L 504.268165 397.765873 
L 507.207273 397.553127 
" clip-path="url(#p88425c0926)" style="fill: none; stroke: #79b6f2; stroke-width: 3; stroke-linecap: round"/>
   </g>
   <g id="text_1">
    <path d="M 516.112253 399.273133 
Q 515.599753 399.273133 515.140378 399.176258 
Q 514.682565 399.07782 514.284128 398.882508 
Q 513.88569 398.687195 513.538815 398.393445 
L 513.538815 398.393445 
L 514.159128 397.632508 
L 514.159128 397.632508 
Q 514.565378 397.98407 515.052878 398.160633 
Q 515.54194 398.335633 516.112253 398.335633 
Q 516.884128 398.335633 517.309128 398.049695 
Q 517.734128 397.763758 517.734128 397.241883 
L 517.734128 397.237195 
Q 517.734128 396.86532 517.540378 396.648133 
Q 517.34819 396.430945 517.04194 396.326258 
Q 516.737253 396.22157 516.25444 396.132508 
Q 516.238815 396.12782 516.221628 396.12782 
Q 516.206003 396.12782 516.190378 396.123133 
L 516.11694 396.10907 
Q 515.40444 395.987195 514.957565 395.83407 
Q 514.51069 395.679383 514.193503 395.27157 
Q 513.876315 394.863758 513.876315 394.112195 
L 513.876315 394.107508 
Q 513.876315 393.448133 514.171628 392.982508 
Q 514.46694 392.51532 515.032565 392.27157 
Q 515.599753 392.026258 516.395065 392.026258 
Q 516.776315 392.026258 517.145065 392.110633 
Q 517.513815 392.193445 517.871628 392.357508 
Q 518.231003 392.520008 518.577878 392.768445 
L 518.577878 392.768445 
L 518.012253 393.560633 
L 518.012253 393.560633 
Q 517.606003 393.262195 517.202878 393.113758 
Q 516.801315 392.963758 516.395065 392.963758 
Q 515.668503 392.963758 515.265378 393.254383 
Q 514.862253 393.545008 514.862253 394.07782 
L 514.862253 394.082508 
Q 514.862253 394.448133 515.070065 394.65907 
Q 515.277878 394.868445 515.587253 394.968445 
Q 515.89819 395.068445 516.449753 395.176258 
Q 516.468503 395.180945 516.48569 395.18407 
Q 516.502878 395.185633 516.52319 395.19032 
Q 516.546628 395.195008 516.576315 395.201258 
Q 516.606003 395.205945 516.62944 395.210633 
Q 517.274753 395.341883 517.706003 395.523133 
Q 518.138815 395.70282 518.42944 396.105945 
Q 518.720065 396.50907 518.720065 397.207508 
L 518.720065 397.216883 
Q 518.720065 397.866883 518.412253 398.32782 
Q 518.10444 398.788758 517.520065 399.030945 
Q 516.937253 399.273133 516.112253 399.273133 
z
M 520.810104 398.25282 
L 522.416354 398.25282 
Q 523.202292 398.25282 523.633542 397.845008 
Q 524.066354 397.437195 524.066354 396.695008 
L 524.066354 394.604383 
Q 524.066354 393.862195 523.633542 393.454383 
Q 523.202292 393.04657 522.416354 393.04657 
L 520.810104 393.04657 
L 520.810104 392.099695 
L 522.386667 392.099695 
Q 523.241354 392.099695 523.846042 392.398133 
Q 524.452292 392.695008 524.769479 393.266883 
Q 525.086667 393.838758 525.086667 394.643445 
L 525.086667 396.655945 
Q 525.086667 397.460633 524.769479 398.032508 
Q 524.452292 398.604383 523.844479 398.90282 
Q 523.236667 399.199695 522.381979 399.199695 
L 520.810104 399.199695 
L 520.810104 398.25282 
z
M 520.136667 392.099695 
L 521.131979 392.099695 
L 521.131979 399.199695 
L 520.136667 399.199695 
L 520.136667 392.099695 
z
M 528.631979 399.273133 
Q 527.988229 399.273133 527.499167 399.029383 
Q 527.011667 398.78407 526.744479 398.337195 
Q 526.478854 397.89032 526.478854 397.299695 
L 526.478854 397.182508 
Q 526.478854 396.651258 526.744479 396.182508 
Q 527.011667 395.713758 527.455417 395.474695 
Q 527.078854 395.268445 526.852292 394.880945 
Q 526.625729 394.491883 526.625729 394.062195 
L 526.625729 393.891883 
Q 526.625729 393.335633 526.874167 392.913758 
Q 527.122604 392.49032 527.577292 392.25907 
Q 528.031979 392.026258 528.631979 392.026258 
Q 529.231979 392.026258 529.686667 392.25907 
Q 530.141354 392.49032 530.389792 392.913758 
Q 530.638229 393.335633 530.638229 393.891883 
L 530.638229 394.062195 
Q 530.638229 394.50282 530.406979 394.888758 
Q 530.175729 395.273133 529.794479 395.474695 
Q 530.242917 395.718445 530.513229 396.185633 
Q 530.785104 396.651258 530.785104 397.182508 
L 530.785104 397.299695 
Q 530.785104 397.89032 530.519479 398.337195 
Q 530.253854 398.78407 529.764792 399.029383 
Q 529.277292 399.273133 528.631979 399.273133 
z
M 528.631979 398.31532 
Q 528.978854 398.31532 529.241354 398.179383 
Q 529.505417 398.041883 529.649167 397.79657 
Q 529.794479 397.549695 529.794479 397.226258 
L 529.794479 397.15907 
Q 529.794479 396.830945 529.649167 396.585633 
Q 529.505417 396.338758 529.241354 396.20282 
Q 528.978854 396.06532 528.631979 396.06532 
Q 528.285104 396.06532 528.021042 396.20282 
Q 527.758542 396.338758 527.613229 396.587195 
Q 527.469479 396.835633 527.469479 397.163758 
L 527.469479 397.237195 
Q 527.469479 397.55907 527.613229 397.80282 
Q 527.758542 398.04657 528.021042 398.180945 
Q 528.285104 398.31532 528.631979 398.31532 
z
M 528.631979 395.107508 
Q 528.930417 395.107508 529.158542 394.979383 
Q 529.388229 394.849695 529.514792 394.610633 
Q 529.642917 394.370008 529.642917 394.057508 
L 529.642917 393.99032 
Q 529.642917 393.691883 529.514792 393.462195 
Q 529.388229 393.232508 529.158542 393.10907 
Q 528.930417 392.98407 528.631979 392.98407 
Q 528.333542 392.98407 528.103854 393.10907 
Q 527.875729 393.232508 527.747604 393.462195 
Q 527.621042 393.691883 527.621042 393.995008 
L 527.621042 394.068445 
Q 527.621042 394.374695 527.747604 394.612195 
Q 527.875729 394.849695 528.103854 394.979383 
Q 528.333542 395.107508 528.631979 395.107508 
z
M 534.017917 399.273133 
Q 533.567917 399.273133 533.174167 399.185633 
Q 532.781979 399.09657 532.439792 398.92157 
Q 532.099167 398.745008 531.810104 398.482508 
L 531.810104 398.482508 
L 532.402292 397.754383 
L 532.402292 397.754383 
Q 532.811667 398.066883 533.216354 398.223133 
Q 533.622604 398.379383 534.017917 398.379383 
Q 534.608542 398.379383 534.903854 398.19657 
Q 535.199167 398.013758 535.199167 397.64657 
Q 535.199167 397.40282 535.038229 397.280945 
Q 534.877292 397.15907 534.638229 397.118445 
Q 534.399167 397.076258 533.964792 397.041883 
Q 533.925729 397.041883 533.880417 397.04032 
Q 533.836667 397.037195 533.797604 397.030945 
Q 533.778854 397.030945 533.758542 397.029383 
Q 533.739792 397.026258 533.719479 397.026258 
Q 533.227292 396.987195 532.885104 396.882508 
Q 532.542917 396.77782 532.316354 396.49032 
Q 532.089792 396.201258 532.089792 395.663758 
Q 532.089792 395.12782 532.308542 394.77157 
Q 532.528854 394.413758 532.963229 394.235633 
Q 533.397604 394.057508 534.052292 394.057508 
Q 534.447604 394.057508 534.805417 394.130945 
Q 535.164792 394.204383 535.491354 394.348133 
Q 535.819479 394.491883 536.122604 394.712195 
L 536.122604 394.712195 
L 535.521042 395.44032 
L 535.521042 395.44032 
Q 535.141354 395.195008 534.772604 395.073133 
Q 534.403854 394.951258 534.052292 394.951258 
Q 533.544479 394.951258 533.289792 395.124695 
Q 533.036667 395.298133 533.036667 395.645008 
Q 533.036667 395.849695 533.180417 395.95282 
Q 533.324167 396.054383 533.542917 396.088758 
Q 533.763229 396.123133 534.169479 396.148133 
Q 534.199167 396.15282 534.230417 396.15282 
Q 534.261667 396.15282 534.296042 396.157508 
Q 534.310104 396.157508 534.324167 396.157508 
Q 534.339792 396.157508 534.355417 396.162195 
Q 534.886667 396.19657 535.260104 396.304383 
Q 535.633542 396.412195 535.886667 396.729383 
Q 536.141354 397.04657 536.141354 397.64657 
Q 536.141354 398.193445 535.906979 398.55282 
Q 535.672604 398.912195 535.200729 399.093445 
Q 534.730417 399.273133 534.017917 399.273133 
z
M 544.071823 395.376258 
L 544.071823 396.616883 
Q 544.071823 397.407508 543.764011 398.010633 
Q 543.456198 398.613758 542.892136 398.943445 
Q 542.328073 399.273133 541.585886 399.273133 
Q 540.834323 399.273133 540.265573 398.963758 
Q 539.696823 398.65282 539.384323 398.087195 
Q 539.071823 397.520008 539.071823 396.773133 
L 539.071823 394.67782 
Q 539.071823 393.887195 539.379636 393.287195 
Q 539.687448 392.685633 540.249948 392.355945 
Q 540.814011 392.026258 541.556198 392.026258 
Q 542.167136 392.026258 542.681198 392.288758 
Q 543.196823 392.549695 543.543698 393.02782 
Q 543.890573 393.505945 544.012448 394.135633 
L 544.012448 394.135633 
L 542.934323 394.135633 
L 542.934323 394.135633 
Q 542.845261 393.779383 542.635886 393.523133 
Q 542.426511 393.266883 542.142136 393.132508 
Q 541.859323 392.998133 541.556198 392.998133 
Q 541.117136 392.998133 540.784323 393.20907 
Q 540.453073 393.418445 540.271823 393.79657 
Q 540.092136 394.174695 540.092136 394.67782 
L 540.092136 396.773133 
Q 540.092136 397.232508 540.276511 397.576258 
Q 540.462448 397.920008 540.801511 398.110633 
Q 541.142136 398.301258 541.585886 398.301258 
Q 542.024948 398.301258 542.356198 398.104383 
Q 542.689011 397.905945 542.870261 397.530945 
Q 543.051511 397.154383 543.051511 396.635633 
L 543.051511 396.32782 
L 541.610886 396.32782 
L 541.610886 395.376258 
L 544.071823 395.376258 
z
M 547.660104 399.273133 
Q 546.956979 399.273133 546.458542 399.00907 
Q 545.961667 398.745008 545.699167 398.235633 
Q 545.438229 397.724695 545.438229 397.00282 
L 545.438229 396.430945 
Q 545.438229 395.679383 545.689792 395.148133 
Q 545.941354 394.61532 546.419479 394.337195 
Q 546.899167 394.057508 547.572604 394.057508 
Q 548.206979 394.057508 548.655417 394.376258 
Q 549.105417 394.693445 549.341354 395.293445 
Q 549.578854 395.893445 549.578854 396.73407 
L 549.578854 397.06532 
L 546.161667 397.06532 
L 546.161667 396.26532 
L 548.631979 396.26532 
L 548.631979 396.26532 
Q 548.588229 395.645008 548.311667 395.301258 
Q 548.036667 394.955945 547.572604 394.955945 
Q 547.005417 394.955945 546.696042 395.32782 
Q 546.386667 395.698133 546.386667 396.37782 
L 546.386667 397.02157 
Q 546.386667 397.651258 546.717917 397.988758 
Q 547.050729 398.326258 547.660104 398.326258 
Q 547.963229 398.326258 548.260104 398.204383 
Q 548.558542 398.080945 548.792917 397.862195 
L 548.792917 397.862195 
L 549.447604 398.51532 
L 549.447604 398.51532 
Q 549.071042 398.87782 548.602292 399.076258 
Q 548.133542 399.273133 547.660104 399.273133 
z
M 550.946432 394.130945 
L 551.943307 394.130945 
L 551.943307 399.199695 
L 550.946432 399.199695 
L 550.946432 394.130945 
z
M 554.022995 396.12782 
Q 554.022995 395.591883 553.74487 395.299695 
Q 553.466745 395.005945 552.96362 395.005945 
Q 552.474557 395.005945 552.208932 395.26532 
Q 551.943307 395.523133 551.943307 395.991883 
L 551.840182 395.01532 
Q 552.074557 394.555945 552.452682 394.307508 
Q 552.830807 394.057508 553.290182 394.057508 
Q 554.115182 394.057508 554.566745 394.598133 
Q 555.018307 395.137195 555.018307 396.123133 
L 555.018307 399.199695 
L 554.022995 399.199695 
L 554.022995 396.12782 
z
M 558.31987 399.273133 
Q 557.724557 399.273133 557.26987 399.055945 
Q 556.815182 398.838758 556.53862 398.426258 
Q 556.26362 398.013758 556.190182 397.432508 
L 556.190182 397.432508 
L 557.205807 397.432508 
L 557.205807 397.432508 
Q 557.249557 397.73407 557.396432 397.929383 
Q 557.543307 398.124695 557.774557 398.220008 
Q 558.00737 398.31532 558.31987 398.31532 
Q 558.812057 398.31532 559.085495 398.05282 
Q 559.358932 397.788758 559.358932 397.310633 
L 559.358932 397.095008 
Q 559.358932 396.562195 559.099557 396.273133 
Q 558.841745 395.982508 558.368307 395.982508 
L 557.865182 395.982508 
L 557.865182 395.03407 
L 558.368307 395.03407 
Q 558.783932 395.03407 559.012057 394.785633 
Q 559.241745 394.537195 559.241745 394.082508 
L 559.241745 393.862195 
Q 559.241745 393.443445 558.999557 393.213758 
Q 558.758932 392.98407 558.315182 392.98407 
Q 558.060495 392.98407 557.860495 393.079383 
Q 557.660495 393.174695 557.521432 393.373133 
Q 557.38237 393.570008 557.318307 393.866883 
L 557.318307 393.866883 
L 556.30737 393.866883 
L 556.30737 393.866883 
Q 556.405807 393.287195 556.67612 392.87157 
Q 556.947995 392.455945 557.362057 392.241883 
Q 557.777682 392.026258 558.315182 392.026258 
Q 559.23237 392.026258 559.735495 392.510633 
Q 560.23862 392.993445 560.23862 393.873133 
L 560.23862 393.99032 
Q 560.23862 394.52157 559.949557 394.916883 
Q 559.662057 395.312195 559.135495 395.493445 
Q 559.716745 395.620008 560.035495 396.06532 
Q 560.355807 396.50907 560.355807 397.198133 
L 560.355807 397.31532 
Q 560.355807 397.935633 560.116745 398.374695 
Q 559.877682 398.813758 559.41987 399.043445 
Q 558.96362 399.273133 558.31987 399.273133 
z
" style="fill: #ffffff; stroke: #000000"/>
    <path d="M 516.112253 399.273133 
Q 515.599753 399.273133 515.140378 399.176258 
Q 514.682565 399.07782 514.284128 398.882508 
Q 513.88569 398.687195 513.538815 398.393445 
L 513.538815 398.393445 
L 514.159128 397.632508 
L 514.159128 397.632508 
Q 514.565378 397.98407 515.052878 398.160633 
Q 515.54194 398.335633 516.112253 398.335633 
Q 516.884128 398.335633 517.309128 398.049695 
Q 517.734128 397.763758 517.734128 397.241883 
L 517.734128 397.237195 
Q 517.734128 396.86532 517.540378 396.648133 
Q 517.34819 396.430945 517.04194 396.326258 
Q 516.737253 396.22157 516.25444 396.132508 
Q 516.238815 396.12782 516.221628 396.12782 
Q 516.206003 396.12782 516.190378 396.123133 
L 516.11694 396.10907 
Q 515.40444 395.987195 514.957565 395.83407 
Q 514.51069 395.679383 514.193503 395.27157 
Q 513.876315 394.863758 513.876315 394.112195 
L 513.876315 394.107508 
Q 513.876315 393.448133 514.171628 392.982508 
Q 514.46694 392.51532 515.032565 392.27157 
Q 515.599753 392.026258 516.395065 392.026258 
Q 516.776315 392.026258 517.145065 392.110633 
Q 517.513815 392.193445 517.871628 392.357508 
Q 518.231003 392.520008 518.577878 392.768445 
L 518.577878 392.768445 
L 518.012253 393.560633 
L 518.012253 393.560633 
Q 517.606003 393.262195 517.202878 393.113758 
Q 516.801315 392.963758 516.395065 392.963758 
Q 515.668503 392.963758 515.265378 393.254383 
Q 514.862253 393.545008 514.862253 394.07782 
L 514.862253 394.082508 
Q 514.862253 394.448133 515.070065 394.65907 
Q 515.277878 394.868445 515.587253 394.968445 
Q 515.89819 395.068445 516.449753 395.176258 
Q 516.468503 395.180945 516.48569 395.18407 
Q 516.502878 395.185633 516.52319 395.19032 
Q 516.546628 395.195008 516.576315 395.201258 
Q 516.606003 395.205945 516.62944 395.210633 
Q 517.274753 395.341883 517.706003 395.523133 
Q 518.138815 395.70282 518.42944 396.105945 
Q 518.720065 396.50907 518.720065 397.207508 
L 518.720065 397.216883 
Q 518.720065 397.866883 518.412253 398.32782 
Q 518.10444 398.788758 517.520065 399.030945 
Q 516.937253 399.273133 516.112253 399.273133 
z
M 520.810104 398.25282 
L 522.416354 398.25282 
Q 523.202292 398.25282 523.633542 397.845008 
Q 524.066354 397.437195 524.066354 396.695008 
L 524.066354 394.604383 
Q 524.066354 393.862195 523.633542 393.454383 
Q 523.202292 393.04657 522.416354 393.04657 
L 520.810104 393.04657 
L 520.810104 392.099695 
L 522.386667 392.099695 
Q 523.241354 392.099695 523.846042 392.398133 
Q 524.452292 392.695008 524.769479 393.266883 
Q 525.086667 393.838758 525.086667 394.643445 
L 525.086667 396.655945 
Q 525.086667 397.460633 524.769479 398.032508 
Q 524.452292 398.604383 523.844479 398.90282 
Q 523.236667 399.199695 522.381979 399.199695 
L 520.810104 399.199695 
L 520.810104 398.25282 
z
M 520.136667 392.099695 
L 521.131979 392.099695 
L 521.131979 399.199695 
L 520.136667 399.199695 
L 520.136667 392.099695 
z
M 528.631979 399.273133 
Q 527.988229 399.273133 527.499167 399.029383 
Q 527.011667 398.78407 526.744479 398.337195 
Q 526.478854 397.89032 526.478854 397.299695 
L 526.478854 397.182508 
Q 526.478854 396.651258 526.744479 396.182508 
Q 527.011667 395.713758 527.455417 395.474695 
Q 527.078854 395.268445 526.852292 394.880945 
Q 526.625729 394.491883 526.625729 394.062195 
L 526.625729 393.891883 
Q 526.625729 393.335633 526.874167 392.913758 
Q 527.122604 392.49032 527.577292 392.25907 
Q 528.031979 392.026258 528.631979 392.026258 
Q 529.231979 392.026258 529.686667 392.25907 
Q 530.141354 392.49032 530.389792 392.913758 
Q 530.638229 393.335633 530.638229 393.891883 
L 530.638229 394.062195 
Q 530.638229 394.50282 530.406979 394.888758 
Q 530.175729 395.273133 529.794479 395.474695 
Q 530.242917 395.718445 530.513229 396.185633 
Q 530.785104 396.651258 530.785104 397.182508 
L 530.785104 397.299695 
Q 530.785104 397.89032 530.519479 398.337195 
Q 530.253854 398.78407 529.764792 399.029383 
Q 529.277292 399.273133 528.631979 399.273133 
z
M 528.631979 398.31532 
Q 528.978854 398.31532 529.241354 398.179383 
Q 529.505417 398.041883 529.649167 397.79657 
Q 529.794479 397.549695 529.794479 397.226258 
L 529.794479 397.15907 
Q 529.794479 396.830945 529.649167 396.585633 
Q 529.505417 396.338758 529.241354 396.20282 
Q 528.978854 396.06532 528.631979 396.06532 
Q 528.285104 396.06532 528.021042 396.20282 
Q 527.758542 396.338758 527.613229 396.587195 
Q 527.469479 396.835633 527.469479 397.163758 
L 527.469479 397.237195 
Q 527.469479 397.55907 527.613229 397.80282 
Q 527.758542 398.04657 528.021042 398.180945 
Q 528.285104 398.31532 528.631979 398.31532 
z
M 528.631979 395.107508 
Q 528.930417 395.107508 529.158542 394.979383 
Q 529.388229 394.849695 529.514792 394.610633 
Q 529.642917 394.370008 529.642917 394.057508 
L 529.642917 393.99032 
Q 529.642917 393.691883 529.514792 393.462195 
Q 529.388229 393.232508 529.158542 393.10907 
Q 528.930417 392.98407 528.631979 392.98407 
Q 528.333542 392.98407 528.103854 393.10907 
Q 527.875729 393.232508 527.747604 393.462195 
Q 527.621042 393.691883 527.621042 393.995008 
L 527.621042 394.068445 
Q 527.621042 394.374695 527.747604 394.612195 
Q 527.875729 394.849695 528.103854 394.979383 
Q 528.333542 395.107508 528.631979 395.107508 
z
M 534.017917 399.273133 
Q 533.567917 399.273133 533.174167 399.185633 
Q 532.781979 399.09657 532.439792 398.92157 
Q 532.099167 398.745008 531.810104 398.482508 
L 531.810104 398.482508 
L 532.402292 397.754383 
L 532.402292 397.754383 
Q 532.811667 398.066883 533.216354 398.223133 
Q 533.622604 398.379383 534.017917 398.379383 
Q 534.608542 398.379383 534.903854 398.19657 
Q 535.199167 398.013758 535.199167 397.64657 
Q 535.199167 397.40282 535.038229 397.280945 
Q 534.877292 397.15907 534.638229 397.118445 
Q 534.399167 397.076258 533.964792 397.041883 
Q 533.925729 397.041883 533.880417 397.04032 
Q 533.836667 397.037195 533.797604 397.030945 
Q 533.778854 397.030945 533.758542 397.029383 
Q 533.739792 397.026258 533.719479 397.026258 
Q 533.227292 396.987195 532.885104 396.882508 
Q 532.542917 396.77782 532.316354 396.49032 
Q 532.089792 396.201258 532.089792 395.663758 
Q 532.089792 395.12782 532.308542 394.77157 
Q 532.528854 394.413758 532.963229 394.235633 
Q 533.397604 394.057508 534.052292 394.057508 
Q 534.447604 394.057508 534.805417 394.130945 
Q 535.164792 394.204383 535.491354 394.348133 
Q 535.819479 394.491883 536.122604 394.712195 
L 536.122604 394.712195 
L 535.521042 395.44032 
L 535.521042 395.44032 
Q 535.141354 395.195008 534.772604 395.073133 
Q 534.403854 394.951258 534.052292 394.951258 
Q 533.544479 394.951258 533.289792 395.124695 
Q 533.036667 395.298133 533.036667 395.645008 
Q 533.036667 395.849695 533.180417 395.95282 
Q 533.324167 396.054383 533.542917 396.088758 
Q 533.763229 396.123133 534.169479 396.148133 
Q 534.199167 396.15282 534.230417 396.15282 
Q 534.261667 396.15282 534.296042 396.157508 
Q 534.310104 396.157508 534.324167 396.157508 
Q 534.339792 396.157508 534.355417 396.162195 
Q 534.886667 396.19657 535.260104 396.304383 
Q 535.633542 396.412195 535.886667 396.729383 
Q 536.141354 397.04657 536.141354 397.64657 
Q 536.141354 398.193445 535.906979 398.55282 
Q 535.672604 398.912195 535.200729 399.093445 
Q 534.730417 399.273133 534.017917 399.273133 
z
M 544.071823 395.376258 
L 544.071823 396.616883 
Q 544.071823 397.407508 543.764011 398.010633 
Q 543.456198 398.613758 542.892136 398.943445 
Q 542.328073 399.273133 541.585886 399.273133 
Q 540.834323 399.273133 540.265573 398.963758 
Q 539.696823 398.65282 539.384323 398.087195 
Q 539.071823 397.520008 539.071823 396.773133 
L 539.071823 394.67782 
Q 539.071823 393.887195 539.379636 393.287195 
Q 539.687448 392.685633 540.249948 392.355945 
Q 540.814011 392.026258 541.556198 392.026258 
Q 542.167136 392.026258 542.681198 392.288758 
Q 543.196823 392.549695 543.543698 393.02782 
Q 543.890573 393.505945 544.012448 394.135633 
L 544.012448 394.135633 
L 542.934323 394.135633 
L 542.934323 394.135633 
Q 542.845261 393.779383 542.635886 393.523133 
Q 542.426511 393.266883 542.142136 393.132508 
Q 541.859323 392.998133 541.556198 392.998133 
Q 541.117136 392.998133 540.784323 393.20907 
Q 540.453073 393.418445 540.271823 393.79657 
Q 540.092136 394.174695 540.092136 394.67782 
L 540.092136 396.773133 
Q 540.092136 397.232508 540.276511 397.576258 
Q 540.462448 397.920008 540.801511 398.110633 
Q 541.142136 398.301258 541.585886 398.301258 
Q 542.024948 398.301258 542.356198 398.104383 
Q 542.689011 397.905945 542.870261 397.530945 
Q 543.051511 397.154383 543.051511 396.635633 
L 543.051511 396.32782 
L 541.610886 396.32782 
L 541.610886 395.376258 
L 544.071823 395.376258 
z
M 547.660104 399.273133 
Q 546.956979 399.273133 546.458542 399.00907 
Q 545.961667 398.745008 545.699167 398.235633 
Q 545.438229 397.724695 545.438229 397.00282 
L 545.438229 396.430945 
Q 545.438229 395.679383 545.689792 395.148133 
Q 545.941354 394.61532 546.419479 394.337195 
Q 546.899167 394.057508 547.572604 394.057508 
Q 548.206979 394.057508 548.655417 394.376258 
Q 549.105417 394.693445 549.341354 395.293445 
Q 549.578854 395.893445 549.578854 396.73407 
L 549.578854 397.06532 
L 546.161667 397.06532 
L 546.161667 396.26532 
L 548.631979 396.26532 
L 548.631979 396.26532 
Q 548.588229 395.645008 548.311667 395.301258 
Q 548.036667 394.955945 547.572604 394.955945 
Q 547.005417 394.955945 546.696042 395.32782 
Q 546.386667 395.698133 546.386667 396.37782 
L 546.386667 397.02157 
Q 546.386667 397.651258 546.717917 397.988758 
Q 547.050729 398.326258 547.660104 398.326258 
Q 547.963229 398.326258 548.260104 398.204383 
Q 548.558542 398.080945 548.792917 397.862195 
L 548.792917 397.862195 
L 549.447604 398.51532 
L 549.447604 398.51532 
Q 549.071042 398.87782 548.602292 399.076258 
Q 548.133542 399.273133 547.660104 399.273133 
z
M 550.946432 394.130945 
L 551.943307 394.130945 
L 551.943307 399.199695 
L 550.946432 399.199695 
L 550.946432 394.130945 
z
M 554.022995 396.12782 
Q 554.022995 395.591883 553.74487 395.299695 
Q 553.466745 395.005945 552.96362 395.005945 
Q 552.474557 395.005945 552.208932 395.26532 
Q 551.943307 395.523133 551.943307 395.991883 
L 551.840182 395.01532 
Q 552.074557 394.555945 552.452682 394.307508 
Q 552.830807 394.057508 553.290182 394.057508 
Q 554.115182 394.057508 554.566745 394.598133 
Q 555.018307 395.137195 555.018307 396.123133 
L 555.018307 399.199695 
L 554.022995 399.199695 
L 554.022995 396.12782 
z
M 558.31987 399.273133 
Q 557.724557 399.273133 557.26987 399.055945 
Q 556.815182 398.838758 556.53862 398.426258 
Q 556.26362 398.013758 556.190182 397.432508 
L 556.190182 397.432508 
L 557.205807 397.432508 
L 557.205807 397.432508 
Q 557.249557 397.73407 557.396432 397.929383 
Q 557.543307 398.124695 557.774557 398.220008 
Q 558.00737 398.31532 558.31987 398.31532 
Q 558.812057 398.31532 559.085495 398.05282 
Q 559.358932 397.788758 559.358932 397.310633 
L 559.358932 397.095008 
Q 559.358932 396.562195 559.099557 396.273133 
Q 558.841745 395.982508 558.368307 395.982508 
L 557.865182 395.982508 
L 557.865182 395.03407 
L 558.368307 395.03407 
Q 558.783932 395.03407 559.012057 394.785633 
Q 559.241745 394.537195 559.241745 394.082508 
L 559.241745 393.862195 
Q 559.241745 393.443445 558.999557 393.213758 
Q 558.758932 392.98407 558.315182 392.98407 
Q 558.060495 392.98407 557.860495 393.079383 
Q 557.660495 393.174695 557.521432 393.373133 
Q 557.38237 393.570008 557.318307 393.866883 
L 557.318307 393.866883 
L 556.30737 393.866883 
L 556.30737 393.866883 
Q 556.405807 393.287195 556.67612 392.87157 
Q 556.947995 392.455945 557.362057 392.241883 
Q 557.777682 392.026258 558.315182 392.026258 
Q 559.23237 392.026258 559.735495 392.510633 
Q 560.23862 392.993445 560.23862 393.873133 
L 560.23862 393.99032 
Q 560.23862 394.52157 559.949557 394.916883 
Q 559.662057 395.312195 559.135495 395.493445 
Q 559.716745 395.620008 560.035495 396.06532 
Q 560.355807 396.50907 560.355807 397.198133 
L 560.355807 397.31532 
Q 560.355807 397.935633 560.116745 398.374695 
Q 559.877682 398.813758 559.41987 399.043445 
Q 558.96362 399.273133 558.31987 399.273133 
z
" style="fill: #ffffff"/>
   </g>
  </g>
 </g>
 <defs>
  <clipPath id="p88425c0926">
   <rect x="144" y="77.76" width="892.8" height="498.96"/>
  </clipPath>
 </defs>
</svg>
