<?xml version="1.0" encoding="utf-8" standalone="no"?>
<!DOCTYPE svg PUBLIC "-//W3C//DTD SVG 1.1//EN"
  "http://www.w3.org/Graphics/SVG/1.1/DTD/svg11.dtd">
<svg xmlns:xlink="http://www.w3.org/1999/xlink" width="1152pt" height="648pt" viewBox="0 0 1152 648" xmlns="http://www.w3.org/2000/svg" version="1.1">
 <metadata>
  <rdf:RDF xmlns:dc="http://purl.org/dc/elements/1.1/" xmlns:cc="http://creativecommons.org/ns#" xmlns:rdf="http://www.w3.org/1999/02/22-rdf-syntax-ns#">
   <cc:Work>
    <dc:type rdf:resource="http://purl.org/dc/dcmitype/StillImage"/>
    <dc:date>2025-09-19T13:20:10.446809</dc:date>
    <dc:format>image/svg+xml</dc:format>
    <dc:creator>
     <cc:Agent>
      <dc:title>Matplotlib v3.10.3, https://matplotlib.org/</dc:title>
     </cc:Agent>
    </dc:creator>
   </cc:Work>
  </rdf:RDF>
 </metadata>
 <defs>
  <style type="text/css">*{stroke-linejoin: round; stroke-linecap: butt}</style>
 </defs>
 <g id="figure_1">
  <g id="patch_1">
   <path d="M 0 648 
L 1152 648 
L 1152 0 
L 0 0 
L 0 648 
z
" style="fill: none"/>
  </g>
  <g id="axes_1">
   <g id="PathCollection_1">
    <defs>
     <path id="m5a0cb5bbc6" d="M 0 2.738613 
C 0.726289 2.738613 1.422928 2.450055 1.936492 1.936492 
C 2.450055 1.422928 2.738613 0.726289 2.738613 0 
C 2.738613 -0.726289 2.450055 -1.422928 1.936492 -1.936492 
C 1.422928 -2.450055 0.726289 -2.738613 0 -2.738613 
C -0.726289 -2.738613 -1.422928 -2.450055 -1.936492 -1.936492 
C -2.450055 -1.422928 -2.738613 -0.726289 -2.738613 0 
C -2.738613 0.726289 -2.450055 1.422928 -1.936492 1.936492 
C -1.422928 2.450055 -0.726289 2.738613 0 2.738613 
z
" style="stroke: #80ff80"/>
    </defs>
    <g clip-path="url(#p3097ef53b4)">
     <use xlink:href="#m5a0cb5bbc6" x="620.836364" y="276.745248" style="fill: #80ff80; stroke: #80ff80"/>
     <use xlink:href="#m5a0cb5bbc6" x="244.642909" y="446.32512" style="fill: #80ff80; stroke: #80ff80"/>
    </g>
   </g>
   <g id="text_1">
    <path d="M 629.541344 271.291816 
L 630.391344 271.291816 
L 633.008531 278.391816 
L 631.933531 278.391816 
L 629.966344 272.663691 
L 627.999156 278.391816 
L 626.924156 278.391816 
L 629.541344 271.291816 
z
M 628.130406 275.887129 
L 631.866344 275.887129 
L 631.866344 276.834003 
L 628.130406 276.834003 
L 628.130406 275.887129 
z
M 635.650328 278.391816 
L 634.653453 278.391816 
L 634.653453 272.376191 
L 633.642516 272.996504 
L 633.642516 271.965254 
L 634.653453 271.291816 
L 635.650328 271.291816 
L 635.650328 278.391816 
z
M 639.341148 278.465254 
Q 638.697398 278.465254 638.208336 278.221503 
Q 637.720836 277.976191 637.453648 277.529316 
Q 637.188023 277.082441 637.188023 276.491816 
L 637.188023 276.374629 
Q 637.188023 275.843379 637.453648 275.374629 
Q 637.720836 274.905879 638.164586 274.666816 
Q 637.788023 274.460566 637.561461 274.073066 
Q 637.334898 273.684004 637.334898 273.254316 
L 637.334898 273.084003 
Q 637.334898 272.527754 637.583336 272.105879 
Q 637.831773 271.682441 638.286461 271.451191 
Q 638.741148 271.218379 639.341148 271.218379 
Q 639.941148 271.218379 640.395836 271.451191 
Q 640.850523 271.682441 641.098961 272.105879 
Q 641.347398 272.527754 641.347398 273.084003 
L 641.347398 273.254316 
Q 641.347398 273.694941 641.116148 274.080878 
Q 640.884898 274.465254 640.503648 274.666816 
Q 640.952086 274.910566 641.222398 275.377753 
Q 641.494273 275.843379 641.494273 276.374629 
L 641.494273 276.491816 
Q 641.494273 277.082441 641.228648 277.529316 
Q 640.963023 277.976191 640.473961 278.221503 
Q 639.986461 278.465254 639.341148 278.465254 
z
M 639.341148 277.507441 
Q 639.688023 277.507441 639.950523 277.371504 
Q 640.214586 277.234004 640.358336 276.988691 
Q 640.503648 276.741816 640.503648 276.418379 
L 640.503648 276.351191 
Q 640.503648 276.023066 640.358336 275.777754 
Q 640.214586 275.530879 639.950523 275.394941 
Q 639.688023 275.257441 639.341148 275.257441 
Q 638.994273 275.257441 638.730211 275.394941 
Q 638.467711 275.530879 638.322398 275.779316 
Q 638.178648 276.027754 638.178648 276.355879 
L 638.178648 276.429316 
Q 638.178648 276.751191 638.322398 276.994941 
Q 638.467711 277.238691 638.730211 277.373066 
Q 638.994273 277.507441 639.341148 277.507441 
z
M 639.341148 274.299628 
Q 639.639586 274.299628 639.867711 274.171504 
Q 640.097398 274.041816 640.223961 273.802753 
Q 640.352086 273.562129 640.352086 273.249629 
L 640.352086 273.182441 
Q 640.352086 272.884004 640.223961 272.654316 
Q 640.097398 272.424628 639.867711 272.301191 
Q 639.639586 272.176191 639.341148 272.176191 
Q 639.042711 272.176191 638.813023 272.301191 
Q 638.584898 272.424628 638.456773 272.654316 
Q 638.330211 272.884004 638.330211 273.187129 
L 638.330211 273.260566 
Q 638.330211 273.566816 638.456773 273.804316 
Q 638.584898 274.041816 638.813023 274.171504 
Q 639.042711 274.299628 639.341148 274.299628 
z
" style="fill: #ffffff; stroke: #000000"/>
    <path d="M 629.541344 271.291816 
L 630.391344 271.291816 
L 633.008531 278.391816 
L 631.933531 278.391816 
L 629.966344 272.663691 
L 627.999156 278.391816 
L 626.924156 278.391816 
L 629.541344 271.291816 
z
M 628.130406 275.887129 
L 631.866344 275.887129 
L 631.866344 276.834003 
L 628.130406 276.834003 
L 628.130406 275.887129 
z
M 635.650328 278.391816 
L 634.653453 278.391816 
L 634.653453 272.376191 
L 633.642516 272.996504 
L 633.642516 271.965254 
L 634.653453 271.291816 
L 635.650328 271.291816 
L 635.650328 278.391816 
z
M 639.341148 278.465254 
Q 638.697398 278.465254 638.208336 278.221503 
Q 637.720836 277.976191 637.453648 277.529316 
Q 637.188023 277.082441 637.188023 276.491816 
L 637.188023 276.374629 
Q 637.188023 275.843379 637.453648 275.374629 
Q 637.720836 274.905879 638.164586 274.666816 
Q 637.788023 274.460566 637.561461 274.073066 
Q 637.334898 273.684004 637.334898 273.254316 
L 637.334898 273.084003 
Q 637.334898 272.527754 637.583336 272.105879 
Q 637.831773 271.682441 638.286461 271.451191 
Q 638.741148 271.218379 639.341148 271.218379 
Q 639.941148 271.218379 640.395836 271.451191 
Q 640.850523 271.682441 641.098961 272.105879 
Q 641.347398 272.527754 641.347398 273.084003 
L 641.347398 273.254316 
Q 641.347398 273.694941 641.116148 274.080878 
Q 640.884898 274.465254 640.503648 274.666816 
Q 640.952086 274.910566 641.222398 275.377753 
Q 641.494273 275.843379 641.494273 276.374629 
L 641.494273 276.491816 
Q 641.494273 277.082441 641.228648 277.529316 
Q 640.963023 277.976191 640.473961 278.221503 
Q 639.986461 278.465254 639.341148 278.465254 
z
M 639.341148 277.507441 
Q 639.688023 277.507441 639.950523 277.371504 
Q 640.214586 277.234004 640.358336 276.988691 
Q 640.503648 276.741816 640.503648 276.418379 
L 640.503648 276.351191 
Q 640.503648 276.023066 640.358336 275.777754 
Q 640.214586 275.530879 639.950523 275.394941 
Q 639.688023 275.257441 639.341148 275.257441 
Q 638.994273 275.257441 638.730211 275.394941 
Q 638.467711 275.530879 638.322398 275.779316 
Q 638.178648 276.027754 638.178648 276.355879 
L 638.178648 276.429316 
Q 638.178648 276.751191 638.322398 276.994941 
Q 638.467711 277.238691 638.730211 277.373066 
Q 638.994273 277.507441 639.341148 277.507441 
z
M 639.341148 274.299628 
Q 639.639586 274.299628 639.867711 274.171504 
Q 640.097398 274.041816 640.223961 273.802753 
Q 640.352086 273.562129 640.352086 273.249629 
L 640.352086 273.182441 
Q 640.352086 272.884004 640.223961 272.654316 
Q 640.097398 272.424628 639.867711 272.301191 
Q 639.639586 272.176191 639.341148 272.176191 
Q 639.042711 272.176191 638.813023 272.301191 
Q 638.584898 272.424628 638.456773 272.654316 
Q 638.330211 272.884004 638.330211 273.187129 
L 638.330211 273.260566 
Q 638.330211 273.566816 638.456773 273.804316 
Q 638.584898 274.041816 638.813023 274.171504 
Q 639.042711 274.299628 639.341148 274.299628 
z
" style="fill: #ffffff"/>
   </g>
   <g id="text_2">
    <path d="M 253.347889 440.871688 
L 254.197889 440.871688 
L 256.815077 447.971688 
L 255.740077 447.971688 
L 253.772889 442.243563 
L 251.805702 447.971688 
L 250.730702 447.971688 
L 253.347889 440.871688 
z
M 251.936952 445.467001 
L 255.672889 445.467001 
L 255.672889 446.413876 
L 251.936952 446.413876 
L 251.936952 445.467001 
z
M 259.456873 447.971688 
L 258.459998 447.971688 
L 258.459998 441.956063 
L 257.449061 442.576376 
L 257.449061 441.545126 
L 258.459998 440.871688 
L 259.456873 440.871688 
L 259.456873 447.971688 
z
M 263.147694 448.045126 
Q 262.503944 448.045126 262.014881 447.801376 
Q 261.527381 447.556063 261.260194 447.109188 
Q 260.994569 446.662313 260.994569 446.071688 
L 260.994569 445.954501 
Q 260.994569 445.423251 261.260194 444.954501 
Q 261.527381 444.485751 261.971131 444.246688 
Q 261.594569 444.040438 261.368006 443.652938 
Q 261.141444 443.263876 261.141444 442.834188 
L 261.141444 442.663876 
Q 261.141444 442.107626 261.389881 441.685751 
Q 261.638319 441.262313 262.093006 441.031063 
Q 262.547694 440.798251 263.147694 440.798251 
Q 263.747694 440.798251 264.202381 441.031063 
Q 264.657069 441.262313 264.905506 441.685751 
Q 265.153944 442.107626 265.153944 442.663876 
L 265.153944 442.834188 
Q 265.153944 443.274813 264.922694 443.660751 
Q 264.691444 444.045126 264.310194 444.246688 
Q 264.758631 444.490438 265.028944 444.957626 
Q 265.300819 445.423251 265.300819 445.954501 
L 265.300819 446.071688 
Q 265.300819 446.662313 265.035194 447.109188 
Q 264.769569 447.556063 264.280506 447.801376 
Q 263.793006 448.045126 263.147694 448.045126 
z
M 263.147694 447.087313 
Q 263.494569 447.087313 263.757069 446.951376 
Q 264.021131 446.813876 264.164881 446.568563 
Q 264.310194 446.321688 264.310194 445.998251 
L 264.310194 445.931063 
Q 264.310194 445.602938 264.164881 445.357626 
Q 264.021131 445.110751 263.757069 444.974813 
Q 263.494569 444.837313 263.147694 444.837313 
Q 262.800819 444.837313 262.536756 444.974813 
Q 262.274256 445.110751 262.128944 445.359188 
Q 261.985194 445.607626 261.985194 445.935751 
L 261.985194 446.009188 
Q 261.985194 446.331063 262.128944 446.574813 
Q 262.274256 446.818563 262.536756 446.952938 
Q 262.800819 447.087313 263.147694 447.087313 
z
M 263.147694 443.879501 
Q 263.446131 443.879501 263.674256 443.751376 
Q 263.903944 443.621688 264.030506 443.382626 
Q 264.158631 443.142001 264.158631 442.829501 
L 264.158631 442.762313 
Q 264.158631 442.463876 264.030506 442.234188 
Q 263.903944 442.004501 263.674256 441.881063 
Q 263.446131 441.756063 263.147694 441.756063 
Q 262.849256 441.756063 262.619569 441.881063 
Q 262.391444 442.004501 262.263319 442.234188 
Q 262.136756 442.463876 262.136756 442.767001 
L 262.136756 442.840438 
Q 262.136756 443.146688 262.263319 443.384188 
Q 262.391444 443.621688 262.619569 443.751376 
Q 262.849256 443.879501 263.147694 443.879501 
z
" style="fill: #ffffff; stroke: #000000"/>
    <path d="M 253.347889 440.871688 
L 254.197889 440.871688 
L 256.815077 447.971688 
L 255.740077 447.971688 
L 253.772889 442.243563 
L 251.805702 447.971688 
L 250.730702 447.971688 
L 253.347889 440.871688 
z
M 251.936952 445.467001 
L 255.672889 445.467001 
L 255.672889 446.413876 
L 251.936952 446.413876 
L 251.936952 445.467001 
z
M 259.456873 447.971688 
L 258.459998 447.971688 
L 258.459998 441.956063 
L 257.449061 442.576376 
L 257.449061 441.545126 
L 258.459998 440.871688 
L 259.456873 440.871688 
L 259.456873 447.971688 
z
M 263.147694 448.045126 
Q 262.503944 448.045126 262.014881 447.801376 
Q 261.527381 447.556063 261.260194 447.109188 
Q 260.994569 446.662313 260.994569 446.071688 
L 260.994569 445.954501 
Q 260.994569 445.423251 261.260194 444.954501 
Q 261.527381 444.485751 261.971131 444.246688 
Q 261.594569 444.040438 261.368006 443.652938 
Q 261.141444 443.263876 261.141444 442.834188 
L 261.141444 442.663876 
Q 261.141444 442.107626 261.389881 441.685751 
Q 261.638319 441.262313 262.093006 441.031063 
Q 262.547694 440.798251 263.147694 440.798251 
Q 263.747694 440.798251 264.202381 441.031063 
Q 264.657069 441.262313 264.905506 441.685751 
Q 265.153944 442.107626 265.153944 442.663876 
L 265.153944 442.834188 
Q 265.153944 443.274813 264.922694 443.660751 
Q 264.691444 444.045126 264.310194 444.246688 
Q 264.758631 444.490438 265.028944 444.957626 
Q 265.300819 445.423251 265.300819 445.954501 
L 265.300819 446.071688 
Q 265.300819 446.662313 265.035194 447.109188 
Q 264.769569 447.556063 264.280506 447.801376 
Q 263.793006 448.045126 263.147694 448.045126 
z
M 263.147694 447.087313 
Q 263.494569 447.087313 263.757069 446.951376 
Q 264.021131 446.813876 264.164881 446.568563 
Q 264.310194 446.321688 264.310194 445.998251 
L 264.310194 445.931063 
Q 264.310194 445.602938 264.164881 445.357626 
Q 264.021131 445.110751 263.757069 444.974813 
Q 263.494569 444.837313 263.147694 444.837313 
Q 262.800819 444.837313 262.536756 444.974813 
Q 262.274256 445.110751 262.128944 445.359188 
Q 261.985194 445.607626 261.985194 445.935751 
L 261.985194 446.009188 
Q 261.985194 446.331063 262.128944 446.574813 
Q 262.274256 446.818563 262.536756 446.952938 
Q 262.800819 447.087313 263.147694 447.087313 
z
M 263.147694 443.879501 
Q 263.446131 443.879501 263.674256 443.751376 
Q 263.903944 443.621688 264.030506 443.382626 
Q 264.158631 443.142001 264.158631 442.829501 
L 264.158631 442.762313 
Q 264.158631 442.463876 264.030506 442.234188 
Q 263.903944 442.004501 263.674256 441.881063 
Q 263.446131 441.756063 263.147694 441.756063 
Q 262.849256 441.756063 262.619569 441.881063 
Q 262.391444 442.004501 262.263319 442.234188 
Q 262.136756 442.463876 262.136756 442.767001 
L 262.136756 442.840438 
Q 262.136756 443.146688 262.263319 443.384188 
Q 262.391444 443.621688 262.619569 443.751376 
Q 262.849256 443.879501 263.147694 443.879501 
z
" style="fill: #ffffff"/>
   </g>
  </g>
 </g>
 <defs>
  <clipPath id="p3097ef53b4">
   <rect x="144" y="77.76" width="892.8" height="498.96"/>
  </clipPath>
 </defs>
</svg>
