<?xml version="1.0" encoding="utf-8" standalone="no"?>
<!DOCTYPE svg PUBLIC "-//W3C//DTD SVG 1.1//EN"
  "http://www.w3.org/Graphics/SVG/1.1/DTD/svg11.dtd">
<svg xmlns:xlink="http://www.w3.org/1999/xlink" width="1152pt" height="648pt" viewBox="0 0 1152 648" xmlns="http://www.w3.org/2000/svg" version="1.1">
 <metadata>
  <rdf:RDF xmlns:dc="http://purl.org/dc/elements/1.1/" xmlns:cc="http://creativecommons.org/ns#" xmlns:rdf="http://www.w3.org/1999/02/22-rdf-syntax-ns#">
   <cc:Work>
    <dc:type rdf:resource="http://purl.org/dc/dcmitype/StillImage"/>
    <dc:date>2025-09-19T13:20:11.029429</dc:date>
    <dc:format>image/svg+xml</dc:format>
    <dc:creator>
     <cc:Agent>
      <dc:title>Matplotlib v3.10.3, https://matplotlib.org/</dc:title>
     </cc:Agent>
    </dc:creator>
   </cc:Work>
  </rdf:RDF>
 </metadata>
 <defs>
  <style type="text/css">*{stroke-linejoin: round; stroke-linecap: butt}</style>
 </defs>
 <g id="figure_1">
  <g id="patch_1">
   <path d="M 0 648 
L 1152 648 
L 1152 0 
L 0 0 
L 0 648 
z
" style="fill: none"/>
  </g>
  <g id="axes_1">
   <g id="line2d_1">
    <path d="M 240.584727 481.008079 
L 243.404959 479.597641 
L 246.22519 478.203314 
L 249.045421 476.824915 
L 251.865653 475.462262 
L 254.685884 474.115175 
L 257.506116 472.783477 
L 260.326347 471.466992 
L 263.146579 470.165547 
L 265.96681 468.878971 
L 268.787041 467.607093 
L 271.607273 466.349746 
L 274.427504 465.106764 
L 277.247736 463.877984 
L 280.067967 462.663243 
L 282.888198 461.462381 
L 285.70843 460.27524 
L 288.528661 459.101663 
L 291.348893 457.941495 
L 294.169124 456.794585 
L 296.989355 455.660779 
L 299.809587 454.539929 
L 302.629818 453.431887 
L 305.45005 452.336507 
L 308.270281 451.253643 
L 311.090512 450.183155 
L 313.910744 449.124899 
L 316.730975 448.078737 
L 319.551207 447.04453 
L 322.371438 446.022142 
L 325.191669 445.011438 
L 328.011901 444.012285 
L 330.832132 443.024551 
L 333.652364 442.048106 
L 336.472595 441.08282 
L 339.292826 440.128566 
L 342.113058 439.185219 
L 344.933289 438.252654 
L 347.753521 437.330747 
L 350.573752 436.419378 
L 353.393983 435.518425 
L 356.214215 434.62777 
L 359.034446 433.747295 
L 361.854678 432.876884 
L 364.674909 432.016423 
L 367.49514 431.165797 
L 370.315372 430.324894 
L 373.135603 429.493603 
L 375.955835 428.671814 
L 378.776066 427.85942 
L 381.596298 427.056312 
L 384.416529 426.262384 
L 387.23676 425.477533 
L 390.056992 424.701653 
L 392.877223 423.934643 
L 395.697455 423.176401 
L 398.517686 422.426827 
L 401.337917 421.685823 
L 404.158149 420.953289 
L 406.97838 420.22913 
L 409.798612 419.51325 
L 412.618843 418.805555 
L 415.439074 418.10595 
L 418.259306 417.414343 
L 421.079537 416.730643 
L 423.899769 416.05476 
L 426.72 415.386605 
L 429.540231 414.726088 
L 432.360463 414.073124 
L 435.180694 413.427625 
L 438.000926 412.789506 
L 440.821157 412.158683 
L 443.641388 411.535073 
L 446.46162 410.918593 
L 449.281851 410.309161 
L 452.102083 409.706698 
L 454.922314 409.111124 
L 457.742545 408.522359 
L 460.562777 407.940326 
L 463.383008 407.364949 
L 466.20324 406.79615 
L 469.023471 406.233856 
L 471.843702 405.677991 
L 474.663934 405.128482 
L 477.484165 404.585257 
L 480.304397 404.048243 
L 483.124628 403.51737 
L 485.94486 402.992568 
L 488.765091 402.473766 
L 491.585322 401.960898 
L 494.405554 401.453894 
L 497.225785 400.952688 
L 500.046017 400.457213 
L 502.866248 399.967404 
L 505.686479 399.483197 
L 508.506711 399.004527 
L 511.326942 398.531331 
L 514.147174 398.063546 
L 516.967405 397.60111 
L 519.787636 397.143963 
" clip-path="url(#p76ba5b1768)" style="fill: none; stroke: #f2de79; stroke-width: 3; stroke-linecap: round"/>
   </g>
   <g id="text_1">
    <path d="M 527.233241 397.843656 
L 528.839491 397.843656 
Q 529.625429 397.843656 530.056679 397.435844 
Q 530.489491 397.028031 530.489491 396.285844 
L 530.489491 394.195219 
Q 530.489491 393.453031 530.056679 393.045219 
Q 529.625429 392.637406 528.839491 392.637406 
L 527.233241 392.637406 
L 527.233241 391.690531 
L 528.809804 391.690531 
Q 529.664491 391.690531 530.269179 391.988969 
Q 530.875429 392.285844 531.192616 392.857719 
Q 531.509804 393.429594 531.509804 394.234281 
L 531.509804 396.246781 
Q 531.509804 397.051469 531.192616 397.623344 
Q 530.875429 398.195219 530.267616 398.493656 
Q 529.659804 398.790531 528.805116 398.790531 
L 527.233241 398.790531 
L 527.233241 397.843656 
z
M 526.559804 391.690531 
L 527.555116 391.690531 
L 527.555116 398.790531 
L 526.559804 398.790531 
L 526.559804 391.690531 
z
M 535.489491 395.265531 
L 535.484804 395.440531 
Q 535.362929 395.665531 535.116054 395.770219 
Q 534.869179 395.874906 534.533241 395.874906 
Q 534.025429 395.874906 533.639491 395.617094 
Q 533.253554 395.357719 533.041054 394.887406 
Q 532.828554 394.415531 532.828554 393.795219 
L 532.828554 393.790531 
Q 532.828554 393.101469 533.059804 392.613969 
Q 533.292616 392.124906 533.739491 391.871781 
Q 534.186366 391.617094 534.811366 391.617094 
Q 535.436366 391.617094 535.880116 391.876469 
Q 536.325429 392.135844 536.556679 392.629594 
Q 536.787929 393.121781 536.787929 393.815531 
L 536.787929 393.820219 
Q 536.787929 394.199906 536.689491 394.632719 
Q 536.592616 395.065531 536.412929 395.488969 
Q 536.383241 395.553031 536.353554 395.618656 
Q 536.325429 395.684281 536.291054 395.748344 
L 534.776991 398.790531 
L 533.701991 398.790531 
L 535.489491 395.265531 
z
M 534.811366 394.967094 
Q 535.280116 394.967094 535.536366 394.649906 
Q 535.792616 394.332719 535.792616 393.756156 
L 535.792616 393.751469 
Q 535.792616 393.190531 535.536366 392.882719 
Q 535.280116 392.574906 534.811366 392.574906 
Q 534.337929 392.574906 534.081679 392.882719 
Q 533.825429 393.190531 533.825429 393.756156 
L 533.825429 393.760844 
Q 533.825429 394.337406 534.081679 394.653031 
Q 534.337929 394.967094 534.811366 394.967094 
z
M 537.999452 397.926469 
L 540.474452 394.624906 
Q 540.690077 394.342094 540.808827 394.037406 
Q 540.92914 393.731156 540.92914 393.468656 
L 540.92914 393.457719 
Q 540.92914 393.034281 540.67914 392.799906 
Q 540.430702 392.565531 539.97289 392.565531 
Q 539.536952 392.565531 539.268202 392.821781 
Q 539.001015 393.078031 538.94164 393.546781 
L 538.94164 393.551469 
L 537.911952 393.551469 
L 537.911952 393.546781 
Q 537.999452 392.935844 538.269765 392.504594 
Q 538.54164 392.071781 538.971327 391.845219 
Q 539.401015 391.617094 539.961952 391.617094 
Q 540.59789 391.617094 541.046327 391.834281 
Q 541.496327 392.051469 541.730702 392.467094 
Q 541.965077 392.882719 541.965077 393.468656 
L 541.965077 393.473344 
Q 541.965077 393.848344 541.808827 394.259281 
Q 541.652577 394.668656 541.37289 395.049906 
L 539.318202 397.843656 
L 542.00414 397.843656 
L 542.00414 398.790531 
L 537.999452 398.790531 
L 537.999452 397.926469 
z
M 545.299843 398.863969 
Q 544.302968 398.863969 543.787343 398.332719 
Q 543.27328 397.799906 543.27328 396.846781 
L 543.27328 393.620219 
Q 543.27328 392.662406 543.790468 392.132719 
Q 544.307655 391.603031 545.299843 391.603031 
Q 546.295155 391.603031 546.81078 392.131156 
Q 547.326405 392.657719 547.326405 393.620219 
L 547.326405 396.846781 
Q 547.326405 397.804594 546.807655 398.334281 
Q 546.290468 398.863969 545.299843 398.863969 
z
M 545.299843 397.917094 
Q 545.826405 397.917094 546.077968 397.640531 
Q 546.32953 397.363969 546.32953 396.846781 
L 546.32953 393.620219 
Q 546.32953 393.101469 546.07953 392.826469 
Q 545.831093 392.549906 545.299843 392.549906 
Q 544.76703 392.549906 544.51703 392.826469 
Q 544.268593 393.101469 544.268593 393.620219 
L 544.268593 396.846781 
Q 544.268593 397.363969 544.520155 397.640531 
Q 544.771718 397.917094 545.299843 397.917094 
z
M 550.817421 398.863969 
Q 549.820546 398.863969 549.304921 398.332719 
Q 548.790859 397.799906 548.790859 396.846781 
L 548.790859 393.620219 
Q 548.790859 392.662406 549.308046 392.132719 
Q 549.825234 391.603031 550.817421 391.603031 
Q 551.812734 391.603031 552.328359 392.131156 
Q 552.843984 392.657719 552.843984 393.620219 
L 552.843984 396.846781 
Q 552.843984 397.804594 552.325234 398.334281 
Q 551.808046 398.863969 550.817421 398.863969 
z
M 550.817421 397.917094 
Q 551.343984 397.917094 551.595546 397.640531 
Q 551.847109 397.363969 551.847109 396.846781 
L 551.847109 393.620219 
Q 551.847109 393.101469 551.597109 392.826469 
Q 551.348671 392.549906 550.817421 392.549906 
Q 550.284609 392.549906 550.034609 392.826469 
Q 549.786171 393.101469 549.786171 393.620219 
L 549.786171 396.846781 
Q 549.786171 397.363969 550.037734 397.640531 
Q 550.289296 397.917094 550.817421 397.917094 
z
M 558.224062 395.045219 
L 558.224062 395.992094 
L 554.259999 395.992094 
L 554.259999 395.045219 
L 558.224062 395.045219 
z
M 556.739687 397.501469 
L 555.744374 397.501469 
L 555.744374 393.535844 
L 556.739687 393.535844 
L 556.739687 397.501469 
z
" style="fill: #ffffff; stroke: #000000"/>
    <path d="M 527.233241 397.843656 
L 528.839491 397.843656 
Q 529.625429 397.843656 530.056679 397.435844 
Q 530.489491 397.028031 530.489491 396.285844 
L 530.489491 394.195219 
Q 530.489491 393.453031 530.056679 393.045219 
Q 529.625429 392.637406 528.839491 392.637406 
L 527.233241 392.637406 
L 527.233241 391.690531 
L 528.809804 391.690531 
Q 529.664491 391.690531 530.269179 391.988969 
Q 530.875429 392.285844 531.192616 392.857719 
Q 531.509804 393.429594 531.509804 394.234281 
L 531.509804 396.246781 
Q 531.509804 397.051469 531.192616 397.623344 
Q 530.875429 398.195219 530.267616 398.493656 
Q 529.659804 398.790531 528.805116 398.790531 
L 527.233241 398.790531 
L 527.233241 397.843656 
z
M 526.559804 391.690531 
L 527.555116 391.690531 
L 527.555116 398.790531 
L 526.559804 398.790531 
L 526.559804 391.690531 
z
M 535.489491 395.265531 
L 535.484804 395.440531 
Q 535.362929 395.665531 535.116054 395.770219 
Q 534.869179 395.874906 534.533241 395.874906 
Q 534.025429 395.874906 533.639491 395.617094 
Q 533.253554 395.357719 533.041054 394.887406 
Q 532.828554 394.415531 532.828554 393.795219 
L 532.828554 393.790531 
Q 532.828554 393.101469 533.059804 392.613969 
Q 533.292616 392.124906 533.739491 391.871781 
Q 534.186366 391.617094 534.811366 391.617094 
Q 535.436366 391.617094 535.880116 391.876469 
Q 536.325429 392.135844 536.556679 392.629594 
Q 536.787929 393.121781 536.787929 393.815531 
L 536.787929 393.820219 
Q 536.787929 394.199906 536.689491 394.632719 
Q 536.592616 395.065531 536.412929 395.488969 
Q 536.383241 395.553031 536.353554 395.618656 
Q 536.325429 395.684281 536.291054 395.748344 
L 534.776991 398.790531 
L 533.701991 398.790531 
L 535.489491 395.265531 
z
M 534.811366 394.967094 
Q 535.280116 394.967094 535.536366 394.649906 
Q 535.792616 394.332719 535.792616 393.756156 
L 535.792616 393.751469 
Q 535.792616 393.190531 535.536366 392.882719 
Q 535.280116 392.574906 534.811366 392.574906 
Q 534.337929 392.574906 534.081679 392.882719 
Q 533.825429 393.190531 533.825429 393.756156 
L 533.825429 393.760844 
Q 533.825429 394.337406 534.081679 394.653031 
Q 534.337929 394.967094 534.811366 394.967094 
z
M 537.999452 397.926469 
L 540.474452 394.624906 
Q 540.690077 394.342094 540.808827 394.037406 
Q 540.92914 393.731156 540.92914 393.468656 
L 540.92914 393.457719 
Q 540.92914 393.034281 540.67914 392.799906 
Q 540.430702 392.565531 539.97289 392.565531 
Q 539.536952 392.565531 539.268202 392.821781 
Q 539.001015 393.078031 538.94164 393.546781 
L 538.94164 393.551469 
L 537.911952 393.551469 
L 537.911952 393.546781 
Q 537.999452 392.935844 538.269765 392.504594 
Q 538.54164 392.071781 538.971327 391.845219 
Q 539.401015 391.617094 539.961952 391.617094 
Q 540.59789 391.617094 541.046327 391.834281 
Q 541.496327 392.051469 541.730702 392.467094 
Q 541.965077 392.882719 541.965077 393.468656 
L 541.965077 393.473344 
Q 541.965077 393.848344 541.808827 394.259281 
Q 541.652577 394.668656 541.37289 395.049906 
L 539.318202 397.843656 
L 542.00414 397.843656 
L 542.00414 398.790531 
L 537.999452 398.790531 
L 537.999452 397.926469 
z
M 545.299843 398.863969 
Q 544.302968 398.863969 543.787343 398.332719 
Q 543.27328 397.799906 543.27328 396.846781 
L 543.27328 393.620219 
Q 543.27328 392.662406 543.790468 392.132719 
Q 544.307655 391.603031 545.299843 391.603031 
Q 546.295155 391.603031 546.81078 392.131156 
Q 547.326405 392.657719 547.326405 393.620219 
L 547.326405 396.846781 
Q 547.326405 397.804594 546.807655 398.334281 
Q 546.290468 398.863969 545.299843 398.863969 
z
M 545.299843 397.917094 
Q 545.826405 397.917094 546.077968 397.640531 
Q 546.32953 397.363969 546.32953 396.846781 
L 546.32953 393.620219 
Q 546.32953 393.101469 546.07953 392.826469 
Q 545.831093 392.549906 545.299843 392.549906 
Q 544.76703 392.549906 544.51703 392.826469 
Q 544.268593 393.101469 544.268593 393.620219 
L 544.268593 396.846781 
Q 544.268593 397.363969 544.520155 397.640531 
Q 544.771718 397.917094 545.299843 397.917094 
z
M 550.817421 398.863969 
Q 549.820546 398.863969 549.304921 398.332719 
Q 548.790859 397.799906 548.790859 396.846781 
L 548.790859 393.620219 
Q 548.790859 392.662406 549.308046 392.132719 
Q 549.825234 391.603031 550.817421 391.603031 
Q 551.812734 391.603031 552.328359 392.131156 
Q 552.843984 392.657719 552.843984 393.620219 
L 552.843984 396.846781 
Q 552.843984 397.804594 552.325234 398.334281 
Q 551.808046 398.863969 550.817421 398.863969 
z
M 550.817421 397.917094 
Q 551.343984 397.917094 551.595546 397.640531 
Q 551.847109 397.363969 551.847109 396.846781 
L 551.847109 393.620219 
Q 551.847109 393.101469 551.597109 392.826469 
Q 551.348671 392.549906 550.817421 392.549906 
Q 550.284609 392.549906 550.034609 392.826469 
Q 549.786171 393.101469 549.786171 393.620219 
L 549.786171 396.846781 
Q 549.786171 397.363969 550.037734 397.640531 
Q 550.289296 397.917094 550.817421 397.917094 
z
M 558.224062 395.045219 
L 558.224062 395.992094 
L 554.259999 395.992094 
L 554.259999 395.045219 
L 558.224062 395.045219 
z
M 556.739687 397.501469 
L 555.744374 397.501469 
L 555.744374 393.535844 
L 556.739687 393.535844 
L 556.739687 397.501469 
z
" style="fill: #ffffff"/>
   </g>
  </g>
 </g>
 <defs>
  <clipPath id="p76ba5b1768">
   <rect x="144" y="77.76" width="892.8" height="498.96"/>
  </clipPath>
 </defs>
</svg>
