<?xml version="1.0" encoding="utf-8" standalone="no"?>
<!DOCTYPE svg PUBLIC "-//W3C//DTD SVG 1.1//EN"
  "http://www.w3.org/Graphics/SVG/1.1/DTD/svg11.dtd">
<svg xmlns:xlink="http://www.w3.org/1999/xlink" width="1152pt" height="648pt" viewBox="0 0 1152 648" xmlns="http://www.w3.org/2000/svg" version="1.1">
 <metadata>
  <rdf:RDF xmlns:dc="http://purl.org/dc/elements/1.1/" xmlns:cc="http://creativecommons.org/ns#" xmlns:rdf="http://www.w3.org/1999/02/22-rdf-syntax-ns#">
   <cc:Work>
    <dc:type rdf:resource="http://purl.org/dc/dcmitype/StillImage"/>
    <dc:date>2025-09-19T13:20:11.007206</dc:date>
    <dc:format>image/svg+xml</dc:format>
    <dc:creator>
     <cc:Agent>
      <dc:title>Matplotlib v3.10.3, https://matplotlib.org/</dc:title>
     </cc:Agent>
    </dc:creator>
   </cc:Work>
  </rdf:RDF>
 </metadata>
 <defs>
  <style type="text/css">*{stroke-linejoin: round; stroke-linecap: butt}</style>
 </defs>
 <g id="figure_1">
  <g id="patch_1">
   <path d="M 0 648 
L 1152 648 
L 1152 0 
L 0 0 
L 0 648 
z
" style="fill: none"/>
  </g>
  <g id="axes_1">
   <g id="line2d_1">
    <path d="M 226.786909 497.118209 
L 231.09514 491.74978 
L 235.403372 486.527247 
L 239.711603 481.446655 
L 244.019835 476.504156 
L 248.328066 471.696004 
L 252.636298 467.018557 
L 256.944529 462.468268 
L 261.25276 458.041689 
L 265.560992 453.735462 
L 269.869223 449.546322 
L 274.177455 445.471092 
L 278.485686 441.50668 
L 282.793917 437.650079 
L 287.102149 433.89836 
L 291.41038 430.248678 
L 295.718612 426.698261 
L 300.026843 423.244415 
L 304.335074 419.884516 
L 308.643306 416.616014 
L 312.951537 413.436425 
L 317.259769 410.343336 
L 321.568 407.334395 
L 325.876231 404.407317 
L 330.184463 401.559877 
L 334.492694 398.789912 
L 338.800926 396.095317 
L 343.109157 393.474043 
L 347.417388 390.924097 
L 351.72562 388.443541 
L 356.033851 386.030489 
L 360.342083 383.683106 
L 364.650314 381.399606 
L 368.958545 379.178254 
L 373.266777 377.017358 
L 377.575008 374.915276 
L 381.88324 372.870409 
L 386.191471 370.8812 
L 390.499702 368.946136 
L 394.807934 367.063744 
L 399.116165 365.232592 
L 403.424397 363.451287 
L 407.732628 361.718473 
L 412.04086 360.03283 
L 416.349091 358.393075 
L 420.657322 356.797961 
L 424.965554 355.246273 
L 429.273785 353.736829 
L 433.582017 352.268481 
L 437.890248 350.840109 
L 442.198479 349.450627 
L 446.506711 348.098977 
L 450.814942 346.784128 
L 455.123174 345.505079 
L 459.431405 344.260857 
L 463.739636 343.050514 
L 468.047868 341.873127 
L 472.356099 340.7278 
L 476.664331 339.61366 
L 480.972562 338.529858 
L 485.280793 337.47557 
L 489.589025 336.44999 
L 493.897256 335.452339 
L 498.205488 334.481856 
L 502.513719 333.537801 
L 506.82195 332.619455 
L 511.130182 331.726118 
L 515.438413 330.857109 
L 519.746645 330.011767 
L 524.054876 329.189446 
L 528.363107 328.38952 
L 532.671339 327.61138 
L 536.97957 326.854432 
L 541.287802 326.1181 
L 545.596033 325.401822 
L 549.904264 324.705051 
L 554.212496 324.027258 
L 558.520727 323.367925 
L 562.828959 322.72655 
L 567.13719 322.102643 
L 571.445421 321.49573 
L 575.753653 320.905346 
L 580.061884 320.331043 
L 584.370116 319.772383 
L 588.678347 319.228938 
L 592.986579 318.700296 
L 597.29481 318.186053 
L 601.603041 317.685817 
L 605.911273 317.199206 
L 610.219504 316.72585 
L 614.527736 316.265387 
L 618.835967 315.817466 
L 623.144198 315.381747 
L 627.45243 314.957896 
L 631.760661 314.54559 
L 636.068893 314.144515 
L 640.377124 313.754365 
L 644.685355 313.374842 
L 648.993587 313.005658 
L 653.301818 312.64653 
" clip-path="url(#p2279db00cc)" style="fill: none; stroke: #f2d230; stroke-width: 3; stroke-linecap: round"/>
   </g>
   <g id="text_1">
    <path d="M 660.747423 313.346223 
L 662.353673 313.346223 
Q 663.139611 313.346223 663.570861 312.93841 
Q 664.003673 312.530598 664.003673 311.78841 
L 664.003673 309.697785 
Q 664.003673 308.955598 663.570861 308.547785 
Q 663.139611 308.139973 662.353673 308.139973 
L 660.747423 308.139973 
L 660.747423 307.193098 
L 662.323986 307.193098 
Q 663.178673 307.193098 663.783361 307.491535 
Q 664.389611 307.78841 664.706798 308.360285 
Q 665.023986 308.93216 665.023986 309.736848 
L 665.023986 311.749348 
Q 665.023986 312.554035 664.706798 313.12591 
Q 664.389611 313.697785 663.781798 313.996223 
Q 663.173986 314.293098 662.319298 314.293098 
L 660.747423 314.293098 
L 660.747423 313.346223 
z
M 660.073986 307.193098 
L 661.069298 307.193098 
L 661.069298 314.293098 
L 660.073986 314.293098 
L 660.073986 307.193098 
z
M 669.003673 310.768098 
L 668.998986 310.943098 
Q 668.877111 311.168098 668.630236 311.272785 
Q 668.383361 311.377473 668.047423 311.377473 
Q 667.539611 311.377473 667.153673 311.11966 
Q 666.767736 310.860285 666.555236 310.389973 
Q 666.342736 309.918098 666.342736 309.297785 
L 666.342736 309.293098 
Q 666.342736 308.604035 666.573986 308.116535 
Q 666.806798 307.627473 667.253673 307.374348 
Q 667.700548 307.11966 668.325548 307.11966 
Q 668.950548 307.11966 669.394298 307.379035 
Q 669.839611 307.63841 670.070861 308.13216 
Q 670.302111 308.624348 670.302111 309.318098 
L 670.302111 309.322785 
Q 670.302111 309.702473 670.203673 310.135285 
Q 670.106798 310.568098 669.927111 310.991535 
Q 669.897423 311.055598 669.867736 311.121223 
Q 669.839611 311.186848 669.805236 311.25091 
L 668.291173 314.293098 
L 667.216173 314.293098 
L 669.003673 310.768098 
z
M 668.325548 310.46966 
Q 668.794298 310.46966 669.050548 310.152473 
Q 669.306798 309.835285 669.306798 309.258723 
L 669.306798 309.254035 
Q 669.306798 308.693098 669.050548 308.385285 
Q 668.794298 308.077473 668.325548 308.077473 
Q 667.852111 308.077473 667.595861 308.385285 
Q 667.339611 308.693098 667.339611 309.258723 
L 667.339611 309.26341 
Q 667.339611 309.839973 667.595861 310.155598 
Q 667.852111 310.46966 668.325548 310.46966 
z
M 673.457384 314.366535 
Q 672.862072 314.366535 672.407384 314.149348 
Q 671.952697 313.93216 671.676134 313.51966 
Q 671.401134 313.10716 671.327697 312.52591 
L 671.327697 312.52591 
L 672.343322 312.52591 
L 672.343322 312.52591 
Q 672.387072 312.827473 672.533947 313.022785 
Q 672.680822 313.218098 672.912072 313.31341 
Q 673.144884 313.408723 673.457384 313.408723 
Q 673.949572 313.408723 674.223009 313.146223 
Q 674.496447 312.88216 674.496447 312.404035 
L 674.496447 312.18841 
Q 674.496447 311.655598 674.237072 311.366535 
Q 673.979259 311.07591 673.505822 311.07591 
L 673.002697 311.07591 
L 673.002697 310.127473 
L 673.505822 310.127473 
Q 673.921447 310.127473 674.149572 309.879035 
Q 674.379259 309.630598 674.379259 309.17591 
L 674.379259 308.955598 
Q 674.379259 308.536848 674.137072 308.30716 
Q 673.896447 308.077473 673.452697 308.077473 
Q 673.198009 308.077473 672.998009 308.172785 
Q 672.798009 308.268098 672.658947 308.466535 
Q 672.519884 308.66341 672.455822 308.960285 
L 672.455822 308.960285 
L 671.444884 308.960285 
L 671.444884 308.960285 
Q 671.543322 308.380598 671.813634 307.964973 
Q 672.085509 307.549348 672.499572 307.335285 
Q 672.915197 307.11966 673.452697 307.11966 
Q 674.369884 307.11966 674.873009 307.604035 
Q 675.376134 308.086848 675.376134 308.966535 
L 675.376134 309.083723 
Q 675.376134 309.614973 675.087072 310.010285 
Q 674.799572 310.405598 674.273009 310.586848 
Q 674.854259 310.71341 675.173009 311.158723 
Q 675.493322 311.602473 675.493322 312.291535 
L 675.493322 312.408723 
Q 675.493322 313.029035 675.254259 313.468098 
Q 675.015197 313.90716 674.557384 314.136848 
Q 674.101134 314.366535 673.457384 314.366535 
z
M 678.936095 314.366535 
Q 677.93922 314.366535 677.423595 313.835285 
Q 676.909533 313.302473 676.909533 312.349348 
L 676.909533 309.122785 
Q 676.909533 308.164973 677.42672 307.635285 
Q 677.943908 307.105598 678.936095 307.105598 
Q 679.931408 307.105598 680.447033 307.633723 
Q 680.962658 308.160285 680.962658 309.122785 
L 680.962658 312.349348 
Q 680.962658 313.30716 680.443908 313.836848 
Q 679.92672 314.366535 678.936095 314.366535 
z
M 678.936095 313.41966 
Q 679.462658 313.41966 679.71422 313.143098 
Q 679.965783 312.866535 679.965783 312.349348 
L 679.965783 309.122785 
Q 679.965783 308.604035 679.715783 308.329035 
Q 679.467345 308.052473 678.936095 308.052473 
Q 678.403283 308.052473 678.153283 308.329035 
Q 677.904845 308.604035 677.904845 309.122785 
L 677.904845 312.349348 
Q 677.904845 312.866535 678.156408 313.143098 
Q 678.40797 313.41966 678.936095 313.41966 
z
M 684.453673 314.366535 
Q 683.456798 314.366535 682.941173 313.835285 
Q 682.427111 313.302473 682.427111 312.349348 
L 682.427111 309.122785 
Q 682.427111 308.164973 682.944298 307.635285 
Q 683.461486 307.105598 684.453673 307.105598 
Q 685.448986 307.105598 685.964611 307.633723 
Q 686.480236 308.160285 686.480236 309.122785 
L 686.480236 312.349348 
Q 686.480236 313.30716 685.961486 313.836848 
Q 685.444298 314.366535 684.453673 314.366535 
z
M 684.453673 313.41966 
Q 684.980236 313.41966 685.231798 313.143098 
Q 685.483361 312.866535 685.483361 312.349348 
L 685.483361 309.122785 
Q 685.483361 308.604035 685.233361 308.329035 
Q 684.984923 308.052473 684.453673 308.052473 
Q 683.920861 308.052473 683.670861 308.329035 
Q 683.422423 308.604035 683.422423 309.122785 
L 683.422423 312.349348 
Q 683.422423 312.866535 683.673986 313.143098 
Q 683.925548 313.41966 684.453673 313.41966 
z
M 691.860314 310.547785 
L 691.860314 311.49466 
L 687.896251 311.49466 
L 687.896251 310.547785 
L 691.860314 310.547785 
z
M 690.375939 313.004035 
L 689.380626 313.004035 
L 689.380626 309.03841 
L 690.375939 309.03841 
L 690.375939 313.004035 
z
" style="fill: #ffffff; stroke: #000000"/>
    <path d="M 660.747423 313.346223 
L 662.353673 313.346223 
Q 663.139611 313.346223 663.570861 312.93841 
Q 664.003673 312.530598 664.003673 311.78841 
L 664.003673 309.697785 
Q 664.003673 308.955598 663.570861 308.547785 
Q 663.139611 308.139973 662.353673 308.139973 
L 660.747423 308.139973 
L 660.747423 307.193098 
L 662.323986 307.193098 
Q 663.178673 307.193098 663.783361 307.491535 
Q 664.389611 307.78841 664.706798 308.360285 
Q 665.023986 308.93216 665.023986 309.736848 
L 665.023986 311.749348 
Q 665.023986 312.554035 664.706798 313.12591 
Q 664.389611 313.697785 663.781798 313.996223 
Q 663.173986 314.293098 662.319298 314.293098 
L 660.747423 314.293098 
L 660.747423 313.346223 
z
M 660.073986 307.193098 
L 661.069298 307.193098 
L 661.069298 314.293098 
L 660.073986 314.293098 
L 660.073986 307.193098 
z
M 669.003673 310.768098 
L 668.998986 310.943098 
Q 668.877111 311.168098 668.630236 311.272785 
Q 668.383361 311.377473 668.047423 311.377473 
Q 667.539611 311.377473 667.153673 311.11966 
Q 666.767736 310.860285 666.555236 310.389973 
Q 666.342736 309.918098 666.342736 309.297785 
L 666.342736 309.293098 
Q 666.342736 308.604035 666.573986 308.116535 
Q 666.806798 307.627473 667.253673 307.374348 
Q 667.700548 307.11966 668.325548 307.11966 
Q 668.950548 307.11966 669.394298 307.379035 
Q 669.839611 307.63841 670.070861 308.13216 
Q 670.302111 308.624348 670.302111 309.318098 
L 670.302111 309.322785 
Q 670.302111 309.702473 670.203673 310.135285 
Q 670.106798 310.568098 669.927111 310.991535 
Q 669.897423 311.055598 669.867736 311.121223 
Q 669.839611 311.186848 669.805236 311.25091 
L 668.291173 314.293098 
L 667.216173 314.293098 
L 669.003673 310.768098 
z
M 668.325548 310.46966 
Q 668.794298 310.46966 669.050548 310.152473 
Q 669.306798 309.835285 669.306798 309.258723 
L 669.306798 309.254035 
Q 669.306798 308.693098 669.050548 308.385285 
Q 668.794298 308.077473 668.325548 308.077473 
Q 667.852111 308.077473 667.595861 308.385285 
Q 667.339611 308.693098 667.339611 309.258723 
L 667.339611 309.26341 
Q 667.339611 309.839973 667.595861 310.155598 
Q 667.852111 310.46966 668.325548 310.46966 
z
M 673.457384 314.366535 
Q 672.862072 314.366535 672.407384 314.149348 
Q 671.952697 313.93216 671.676134 313.51966 
Q 671.401134 313.10716 671.327697 312.52591 
L 671.327697 312.52591 
L 672.343322 312.52591 
L 672.343322 312.52591 
Q 672.387072 312.827473 672.533947 313.022785 
Q 672.680822 313.218098 672.912072 313.31341 
Q 673.144884 313.408723 673.457384 313.408723 
Q 673.949572 313.408723 674.223009 313.146223 
Q 674.496447 312.88216 674.496447 312.404035 
L 674.496447 312.18841 
Q 674.496447 311.655598 674.237072 311.366535 
Q 673.979259 311.07591 673.505822 311.07591 
L 673.002697 311.07591 
L 673.002697 310.127473 
L 673.505822 310.127473 
Q 673.921447 310.127473 674.149572 309.879035 
Q 674.379259 309.630598 674.379259 309.17591 
L 674.379259 308.955598 
Q 674.379259 308.536848 674.137072 308.30716 
Q 673.896447 308.077473 673.452697 308.077473 
Q 673.198009 308.077473 672.998009 308.172785 
Q 672.798009 308.268098 672.658947 308.466535 
Q 672.519884 308.66341 672.455822 308.960285 
L 672.455822 308.960285 
L 671.444884 308.960285 
L 671.444884 308.960285 
Q 671.543322 308.380598 671.813634 307.964973 
Q 672.085509 307.549348 672.499572 307.335285 
Q 672.915197 307.11966 673.452697 307.11966 
Q 674.369884 307.11966 674.873009 307.604035 
Q 675.376134 308.086848 675.376134 308.966535 
L 675.376134 309.083723 
Q 675.376134 309.614973 675.087072 310.010285 
Q 674.799572 310.405598 674.273009 310.586848 
Q 674.854259 310.71341 675.173009 311.158723 
Q 675.493322 311.602473 675.493322 312.291535 
L 675.493322 312.408723 
Q 675.493322 313.029035 675.254259 313.468098 
Q 675.015197 313.90716 674.557384 314.136848 
Q 674.101134 314.366535 673.457384 314.366535 
z
M 678.936095 314.366535 
Q 677.93922 314.366535 677.423595 313.835285 
Q 676.909533 313.302473 676.909533 312.349348 
L 676.909533 309.122785 
Q 676.909533 308.164973 677.42672 307.635285 
Q 677.943908 307.105598 678.936095 307.105598 
Q 679.931408 307.105598 680.447033 307.633723 
Q 680.962658 308.160285 680.962658 309.122785 
L 680.962658 312.349348 
Q 680.962658 313.30716 680.443908 313.836848 
Q 679.92672 314.366535 678.936095 314.366535 
z
M 678.936095 313.41966 
Q 679.462658 313.41966 679.71422 313.143098 
Q 679.965783 312.866535 679.965783 312.349348 
L 679.965783 309.122785 
Q 679.965783 308.604035 679.715783 308.329035 
Q 679.467345 308.052473 678.936095 308.052473 
Q 678.403283 308.052473 678.153283 308.329035 
Q 677.904845 308.604035 677.904845 309.122785 
L 677.904845 312.349348 
Q 677.904845 312.866535 678.156408 313.143098 
Q 678.40797 313.41966 678.936095 313.41966 
z
M 684.453673 314.366535 
Q 683.456798 314.366535 682.941173 313.835285 
Q 682.427111 313.302473 682.427111 312.349348 
L 682.427111 309.122785 
Q 682.427111 308.164973 682.944298 307.635285 
Q 683.461486 307.105598 684.453673 307.105598 
Q 685.448986 307.105598 685.964611 307.633723 
Q 686.480236 308.160285 686.480236 309.122785 
L 686.480236 312.349348 
Q 686.480236 313.30716 685.961486 313.836848 
Q 685.444298 314.366535 684.453673 314.366535 
z
M 684.453673 313.41966 
Q 684.980236 313.41966 685.231798 313.143098 
Q 685.483361 312.866535 685.483361 312.349348 
L 685.483361 309.122785 
Q 685.483361 308.604035 685.233361 308.329035 
Q 684.984923 308.052473 684.453673 308.052473 
Q 683.920861 308.052473 683.670861 308.329035 
Q 683.422423 308.604035 683.422423 309.122785 
L 683.422423 312.349348 
Q 683.422423 312.866535 683.673986 313.143098 
Q 683.925548 313.41966 684.453673 313.41966 
z
M 691.860314 310.547785 
L 691.860314 311.49466 
L 687.896251 311.49466 
L 687.896251 310.547785 
L 691.860314 310.547785 
z
M 690.375939 313.004035 
L 689.380626 313.004035 
L 689.380626 309.03841 
L 690.375939 309.03841 
L 690.375939 313.004035 
z
" style="fill: #ffffff"/>
   </g>
  </g>
 </g>
 <defs>
  <clipPath id="p2279db00cc">
   <rect x="144" y="77.76" width="892.8" height="498.96"/>
  </clipPath>
 </defs>
</svg>
