<?xml version="1.0" encoding="utf-8" standalone="no"?>
<!DOCTYPE svg PUBLIC "-//W3C//DTD SVG 1.1//EN"
  "http://www.w3.org/Graphics/SVG/1.1/DTD/svg11.dtd">
<svg xmlns:xlink="http://www.w3.org/1999/xlink" width="1152pt" height="648pt" viewBox="0 0 1152 648" xmlns="http://www.w3.org/2000/svg" version="1.1">
 <metadata>
  <rdf:RDF xmlns:dc="http://purl.org/dc/elements/1.1/" xmlns:cc="http://creativecommons.org/ns#" xmlns:rdf="http://www.w3.org/1999/02/22-rdf-syntax-ns#">
   <cc:Work>
    <dc:type rdf:resource="http://purl.org/dc/dcmitype/StillImage"/>
    <dc:date>2025-09-19T13:20:11.257937</dc:date>
    <dc:format>image/svg+xml</dc:format>
    <dc:creator>
     <cc:Agent>
      <dc:title>Matplotlib v3.10.3, https://matplotlib.org/</dc:title>
     </cc:Agent>
    </dc:creator>
   </cc:Work>
  </rdf:RDF>
 </metadata>
 <defs>
  <style type="text/css">*{stroke-linejoin: round; stroke-linecap: butt}</style>
 </defs>
 <g id="figure_1">
  <g id="patch_1">
   <path d="M 0 648 
L 1152 648 
L 1152 0 
L 0 0 
L 0 648 
z
" style="fill: none"/>
  </g>
  <g id="axes_1">
   <g id="line2d_1">
    <path d="M 212.989091 506.987494 
L 215.858512 505.177206 
L 218.727934 503.403003 
L 221.597355 501.664167 
L 224.466777 499.959995 
L 227.336198 498.289796 
L 230.20562 496.652893 
L 233.075041 495.048626 
L 235.944463 493.476342 
L 238.813884 491.935406 
L 241.683306 490.425194 
L 244.552727 488.945094 
L 247.422149 487.494506 
L 250.29157 486.072842 
L 253.160992 484.679527 
L 256.030413 483.313996 
L 258.899835 481.975696 
L 261.769256 480.664084 
L 264.638678 479.378628 
L 267.508099 478.118808 
L 270.377521 476.884113 
L 273.246942 475.674042 
L 276.116364 474.488105 
L 278.985785 473.325821 
L 281.855207 472.186719 
L 284.724628 471.070337 
L 287.59405 469.976222 
L 290.463471 468.90393 
L 293.332893 467.853027 
L 296.202314 466.823086 
L 299.071736 465.81369 
L 301.941157 464.824429 
L 304.810579 463.854902 
L 307.68 462.904715 
L 310.549421 461.973484 
L 313.418843 461.060829 
L 316.288264 460.166382 
L 319.157686 459.289779 
L 322.027107 458.430664 
L 324.896529 457.588688 
L 327.76595 456.763511 
L 330.635372 455.954797 
L 333.504793 455.162217 
L 336.374215 454.385451 
L 339.243636 453.624183 
L 342.113058 452.878103 
L 344.982479 452.14691 
L 347.851901 451.430306 
L 350.721322 450.728001 
L 353.590744 450.039708 
L 356.460165 449.365149 
L 359.329587 448.704051 
L 362.199008 448.056143 
L 365.06843 447.421165 
L 367.937851 446.798857 
L 370.807273 446.188966 
L 373.676694 445.591246 
L 376.546116 445.005454 
L 379.415537 444.431351 
L 382.284959 443.868705 
L 385.15438 443.317286 
L 388.023802 442.776872 
L 390.893223 442.247242 
L 393.762645 441.728182 
L 396.632066 441.21948 
L 399.501488 440.72093 
L 402.370909 440.23233 
L 405.240331 439.75348 
L 408.109752 439.284187 
L 410.979174 438.82426 
L 413.848595 438.373512 
L 416.718017 437.93176 
L 419.587438 437.498824 
L 422.45686 437.074529 
L 425.326281 436.658702 
L 428.195702 436.251174 
L 431.065124 435.851779 
L 433.934545 435.460356 
L 436.803967 435.076745 
L 439.673388 434.700791 
L 442.54281 434.332341 
L 445.412231 433.971244 
L 448.281653 433.617354 
L 451.151074 433.270528 
L 454.020496 432.930625 
L 456.889917 432.597506 
L 459.759339 432.271035 
L 462.62876 431.951081 
L 465.498182 431.637514 
L 468.367603 431.330205 
L 471.237025 431.02903 
L 474.106446 430.733866 
L 476.975868 430.444595 
L 479.845289 430.161097 
L 482.714711 429.883258 
L 485.584132 429.610965 
L 488.453554 429.344107 
L 491.322975 429.082576 
L 494.192397 428.826265 
L 497.061818 428.57507 
" clip-path="url(#p13456ce0fc)" style="fill: none; stroke: #30b1f2; stroke-width: 3; stroke-linecap: round"/>
   </g>
   <g id="text_1">
    <path d="M 504.863673 423.702888 
L 505.858986 423.702888 
L 505.858986 430.221638 
L 504.863673 430.221638 
L 504.863673 423.702888 
z
M 502.855861 423.121638 
L 507.866798 423.121638 
L 507.866798 424.068513 
L 502.855861 424.068513 
L 502.855861 423.121638 
z
M 510.625001 430.295076 
Q 509.921876 430.295076 509.423439 430.031013 
Q 508.926564 429.766951 508.664064 429.257576 
Q 508.403126 428.746638 508.403126 428.024763 
L 508.403126 427.452888 
Q 508.403126 426.701326 508.654689 426.170076 
Q 508.906251 425.637263 509.384376 425.359138 
Q 509.864064 425.079451 510.537501 425.079451 
Q 511.171876 425.079451 511.620314 425.398201 
Q 512.070314 425.715388 512.306251 426.315388 
Q 512.543751 426.915388 512.543751 427.756013 
L 512.543751 428.087263 
L 509.126564 428.087263 
L 509.126564 427.287263 
L 511.596876 427.287263 
L 511.596876 427.287263 
Q 511.553126 426.666951 511.276564 426.323201 
Q 511.001564 425.977888 510.537501 425.977888 
Q 509.970314 425.977888 509.660939 426.349763 
Q 509.351564 426.720076 509.351564 427.399763 
L 509.351564 428.043513 
Q 509.351564 428.673201 509.682814 429.010701 
Q 510.015626 429.348201 510.625001 429.348201 
Q 510.928126 429.348201 511.225001 429.226326 
Q 511.523439 429.102888 511.757814 428.884138 
L 511.757814 428.884138 
L 512.412501 429.537263 
L 512.412501 429.537263 
Q 512.035939 429.899763 511.567189 430.098201 
Q 511.098439 430.295076 510.625001 430.295076 
z
M 513.911329 425.152888 
L 514.908204 425.152888 
L 514.908204 430.221638 
L 513.911329 430.221638 
L 513.911329 425.152888 
z
M 516.987892 427.149763 
Q 516.987892 426.613826 516.709767 426.321638 
Q 516.431642 426.027888 515.928517 426.027888 
Q 515.439454 426.027888 515.173829 426.287263 
Q 514.908204 426.545076 514.908204 427.013826 
L 514.805079 426.037263 
Q 515.039454 425.577888 515.417579 425.329451 
Q 515.795704 425.079451 516.255079 425.079451 
Q 517.080079 425.079451 517.531642 425.620076 
Q 517.983204 426.159138 517.983204 427.145076 
L 517.983204 430.221638 
L 516.987892 430.221638 
L 516.987892 427.149763 
z
M 521.289454 430.295076 
Q 520.839454 430.295076 520.445704 430.207576 
Q 520.053517 430.118513 519.711329 429.943513 
Q 519.370704 429.766951 519.081642 429.504451 
L 519.081642 429.504451 
L 519.673829 428.776326 
L 519.673829 428.776326 
Q 520.083204 429.088826 520.487892 429.245076 
Q 520.894142 429.401326 521.289454 429.401326 
Q 521.880079 429.401326 522.175392 429.218513 
Q 522.470704 429.035701 522.470704 428.668513 
Q 522.470704 428.424763 522.309767 428.302888 
Q 522.148829 428.181013 521.909767 428.140388 
Q 521.670704 428.098201 521.236329 428.063826 
Q 521.197267 428.063826 521.151954 428.062263 
Q 521.108204 428.059138 521.069142 428.052888 
Q 521.050392 428.052888 521.030079 428.051326 
Q 521.011329 428.048201 520.991017 428.048201 
Q 520.498829 428.009138 520.156642 427.904451 
Q 519.814454 427.799763 519.587892 427.512263 
Q 519.361329 427.223201 519.361329 426.685701 
Q 519.361329 426.149763 519.580079 425.793513 
Q 519.800392 425.435701 520.234767 425.257576 
Q 520.669142 425.079451 521.323829 425.079451 
Q 521.719142 425.079451 522.076954 425.152888 
Q 522.436329 425.226326 522.762892 425.370076 
Q 523.091017 425.513826 523.394142 425.734138 
L 523.394142 425.734138 
L 522.792579 426.462263 
L 522.792579 426.462263 
Q 522.412892 426.216951 522.044142 426.095076 
Q 521.675392 425.973201 521.323829 425.973201 
Q 520.816017 425.973201 520.561329 426.146638 
Q 520.308204 426.320076 520.308204 426.666951 
Q 520.308204 426.871638 520.451954 426.974763 
Q 520.595704 427.076326 520.814454 427.110701 
Q 521.034767 427.145076 521.441017 427.170076 
Q 521.470704 427.174763 521.501954 427.174763 
Q 521.533204 427.174763 521.567579 427.179451 
Q 521.581642 427.179451 521.595704 427.179451 
Q 521.611329 427.179451 521.626954 427.184138 
Q 522.158204 427.218513 522.531642 427.326326 
Q 522.905079 427.434138 523.158204 427.751326 
Q 523.412892 428.068513 523.412892 428.668513 
Q 523.412892 429.215388 523.178517 429.574763 
Q 522.944142 429.934138 522.472267 430.115388 
Q 522.001954 430.295076 521.289454 430.295076 
z
M 526.626564 430.295076 
Q 525.967189 430.295076 525.498439 430.037263 
Q 525.029689 429.777888 524.782814 429.282576 
Q 524.535939 428.785701 524.535939 428.087263 
L 524.535939 427.262263 
Q 524.535939 426.574763 524.782814 426.084138 
Q 525.029689 425.591951 525.498439 425.335701 
Q 525.967189 425.079451 526.626564 425.079451 
Q 527.285939 425.079451 527.754689 425.335701 
Q 528.223439 425.591951 528.468751 426.084138 
Q 528.715626 426.574763 528.715626 427.262263 
L 528.715626 428.102888 
Q 528.715626 428.795076 528.468751 429.287263 
Q 528.223439 429.777888 527.754689 430.037263 
Q 527.285939 430.295076 526.626564 430.295076 
z
M 526.626564 429.348201 
Q 527.148439 429.348201 527.434376 429.021638 
Q 527.720314 428.693513 527.720314 428.102888 
L 527.720314 427.262263 
Q 527.720314 426.671638 527.434376 426.349763 
Q 527.148439 426.027888 526.626564 426.027888 
Q 526.103126 426.027888 525.817189 426.349763 
Q 525.532814 426.671638 525.532814 427.262263 
L 525.532814 428.102888 
Q 525.532814 428.693513 525.817189 429.021638 
Q 526.103126 429.348201 526.626564 429.348201 
z
M 530.132033 425.152888 
L 531.128908 425.152888 
L 531.128908 430.221638 
L 530.132033 430.221638 
L 530.132033 425.152888 
z
M 532.919533 426.354451 
Q 532.788283 426.193513 532.588283 426.110701 
Q 532.388283 426.027888 532.12422 426.027888 
Q 531.650783 426.027888 531.389845 426.288826 
Q 531.128908 426.549763 531.128908 427.013826 
L 531.025783 426.037263 
Q 531.260158 425.582576 531.63047 425.331013 
Q 532.002345 425.079451 532.450783 425.079451 
Q 532.797658 425.079451 533.078908 425.179451 
Q 533.360158 425.279451 533.569533 425.474763 
L 532.919533 426.354451 
z
M 541.060158 426.398201 
L 541.060158 427.638826 
Q 541.060158 428.429451 540.752345 429.032576 
Q 540.444533 429.635701 539.88047 429.965388 
Q 539.316408 430.295076 538.57422 430.295076 
Q 537.822658 430.295076 537.253908 429.985701 
Q 536.685158 429.674763 536.372658 429.109138 
Q 536.060158 428.541951 536.060158 427.795076 
L 536.060158 425.699763 
Q 536.060158 424.909138 536.36797 424.309138 
Q 536.675783 423.707576 537.238283 423.377888 
Q 537.802345 423.048201 538.544533 423.048201 
Q 539.15547 423.048201 539.669533 423.310701 
Q 540.185158 423.571638 540.532033 424.049763 
Q 540.878908 424.527888 541.000783 425.157576 
L 541.000783 425.157576 
L 539.922658 425.157576 
L 539.922658 425.157576 
Q 539.833595 424.801326 539.62422 424.545076 
Q 539.414845 424.288826 539.13047 424.154451 
Q 538.847658 424.020076 538.544533 424.020076 
Q 538.10547 424.020076 537.772658 424.231013 
Q 537.441408 424.440388 537.260158 424.818513 
Q 537.08047 425.196638 537.08047 425.699763 
L 537.08047 427.795076 
Q 537.08047 428.254451 537.264845 428.598201 
Q 537.450783 428.941951 537.789845 429.132576 
Q 538.13047 429.323201 538.57422 429.323201 
Q 539.013283 429.323201 539.344533 429.126326 
Q 539.677345 428.927888 539.858595 428.552888 
Q 540.039845 428.176326 540.039845 427.657576 
L 540.039845 427.349763 
L 538.59922 427.349763 
L 538.59922 426.398201 
L 541.060158 426.398201 
z
M 542.426564 428.268513 
L 544.809376 423.126326 
L 545.835939 423.126326 
L 543.510939 428.209138 
L 546.992189 428.209138 
L 546.992189 429.132576 
L 542.426564 429.132576 
L 542.426564 428.268513 
z
M 545.489064 426.046638 
L 546.460939 426.046638 
L 546.460939 430.226326 
L 545.489064 430.226326 
L 545.489064 426.046638 
z
" style="fill: #ffffff; stroke: #000000"/>
    <path d="M 504.863673 423.702888 
L 505.858986 423.702888 
L 505.858986 430.221638 
L 504.863673 430.221638 
L 504.863673 423.702888 
z
M 502.855861 423.121638 
L 507.866798 423.121638 
L 507.866798 424.068513 
L 502.855861 424.068513 
L 502.855861 423.121638 
z
M 510.625001 430.295076 
Q 509.921876 430.295076 509.423439 430.031013 
Q 508.926564 429.766951 508.664064 429.257576 
Q 508.403126 428.746638 508.403126 428.024763 
L 508.403126 427.452888 
Q 508.403126 426.701326 508.654689 426.170076 
Q 508.906251 425.637263 509.384376 425.359138 
Q 509.864064 425.079451 510.537501 425.079451 
Q 511.171876 425.079451 511.620314 425.398201 
Q 512.070314 425.715388 512.306251 426.315388 
Q 512.543751 426.915388 512.543751 427.756013 
L 512.543751 428.087263 
L 509.126564 428.087263 
L 509.126564 427.287263 
L 511.596876 427.287263 
L 511.596876 427.287263 
Q 511.553126 426.666951 511.276564 426.323201 
Q 511.001564 425.977888 510.537501 425.977888 
Q 509.970314 425.977888 509.660939 426.349763 
Q 509.351564 426.720076 509.351564 427.399763 
L 509.351564 428.043513 
Q 509.351564 428.673201 509.682814 429.010701 
Q 510.015626 429.348201 510.625001 429.348201 
Q 510.928126 429.348201 511.225001 429.226326 
Q 511.523439 429.102888 511.757814 428.884138 
L 511.757814 428.884138 
L 512.412501 429.537263 
L 512.412501 429.537263 
Q 512.035939 429.899763 511.567189 430.098201 
Q 511.098439 430.295076 510.625001 430.295076 
z
M 513.911329 425.152888 
L 514.908204 425.152888 
L 514.908204 430.221638 
L 513.911329 430.221638 
L 513.911329 425.152888 
z
M 516.987892 427.149763 
Q 516.987892 426.613826 516.709767 426.321638 
Q 516.431642 426.027888 515.928517 426.027888 
Q 515.439454 426.027888 515.173829 426.287263 
Q 514.908204 426.545076 514.908204 427.013826 
L 514.805079 426.037263 
Q 515.039454 425.577888 515.417579 425.329451 
Q 515.795704 425.079451 516.255079 425.079451 
Q 517.080079 425.079451 517.531642 425.620076 
Q 517.983204 426.159138 517.983204 427.145076 
L 517.983204 430.221638 
L 516.987892 430.221638 
L 516.987892 427.149763 
z
M 521.289454 430.295076 
Q 520.839454 430.295076 520.445704 430.207576 
Q 520.053517 430.118513 519.711329 429.943513 
Q 519.370704 429.766951 519.081642 429.504451 
L 519.081642 429.504451 
L 519.673829 428.776326 
L 519.673829 428.776326 
Q 520.083204 429.088826 520.487892 429.245076 
Q 520.894142 429.401326 521.289454 429.401326 
Q 521.880079 429.401326 522.175392 429.218513 
Q 522.470704 429.035701 522.470704 428.668513 
Q 522.470704 428.424763 522.309767 428.302888 
Q 522.148829 428.181013 521.909767 428.140388 
Q 521.670704 428.098201 521.236329 428.063826 
Q 521.197267 428.063826 521.151954 428.062263 
Q 521.108204 428.059138 521.069142 428.052888 
Q 521.050392 428.052888 521.030079 428.051326 
Q 521.011329 428.048201 520.991017 428.048201 
Q 520.498829 428.009138 520.156642 427.904451 
Q 519.814454 427.799763 519.587892 427.512263 
Q 519.361329 427.223201 519.361329 426.685701 
Q 519.361329 426.149763 519.580079 425.793513 
Q 519.800392 425.435701 520.234767 425.257576 
Q 520.669142 425.079451 521.323829 425.079451 
Q 521.719142 425.079451 522.076954 425.152888 
Q 522.436329 425.226326 522.762892 425.370076 
Q 523.091017 425.513826 523.394142 425.734138 
L 523.394142 425.734138 
L 522.792579 426.462263 
L 522.792579 426.462263 
Q 522.412892 426.216951 522.044142 426.095076 
Q 521.675392 425.973201 521.323829 425.973201 
Q 520.816017 425.973201 520.561329 426.146638 
Q 520.308204 426.320076 520.308204 426.666951 
Q 520.308204 426.871638 520.451954 426.974763 
Q 520.595704 427.076326 520.814454 427.110701 
Q 521.034767 427.145076 521.441017 427.170076 
Q 521.470704 427.174763 521.501954 427.174763 
Q 521.533204 427.174763 521.567579 427.179451 
Q 521.581642 427.179451 521.595704 427.179451 
Q 521.611329 427.179451 521.626954 427.184138 
Q 522.158204 427.218513 522.531642 427.326326 
Q 522.905079 427.434138 523.158204 427.751326 
Q 523.412892 428.068513 523.412892 428.668513 
Q 523.412892 429.215388 523.178517 429.574763 
Q 522.944142 429.934138 522.472267 430.115388 
Q 522.001954 430.295076 521.289454 430.295076 
z
M 526.626564 430.295076 
Q 525.967189 430.295076 525.498439 430.037263 
Q 525.029689 429.777888 524.782814 429.282576 
Q 524.535939 428.785701 524.535939 428.087263 
L 524.535939 427.262263 
Q 524.535939 426.574763 524.782814 426.084138 
Q 525.029689 425.591951 525.498439 425.335701 
Q 525.967189 425.079451 526.626564 425.079451 
Q 527.285939 425.079451 527.754689 425.335701 
Q 528.223439 425.591951 528.468751 426.084138 
Q 528.715626 426.574763 528.715626 427.262263 
L 528.715626 428.102888 
Q 528.715626 428.795076 528.468751 429.287263 
Q 528.223439 429.777888 527.754689 430.037263 
Q 527.285939 430.295076 526.626564 430.295076 
z
M 526.626564 429.348201 
Q 527.148439 429.348201 527.434376 429.021638 
Q 527.720314 428.693513 527.720314 428.102888 
L 527.720314 427.262263 
Q 527.720314 426.671638 527.434376 426.349763 
Q 527.148439 426.027888 526.626564 426.027888 
Q 526.103126 426.027888 525.817189 426.349763 
Q 525.532814 426.671638 525.532814 427.262263 
L 525.532814 428.102888 
Q 525.532814 428.693513 525.817189 429.021638 
Q 526.103126 429.348201 526.626564 429.348201 
z
M 530.132033 425.152888 
L 531.128908 425.152888 
L 531.128908 430.221638 
L 530.132033 430.221638 
L 530.132033 425.152888 
z
M 532.919533 426.354451 
Q 532.788283 426.193513 532.588283 426.110701 
Q 532.388283 426.027888 532.12422 426.027888 
Q 531.650783 426.027888 531.389845 426.288826 
Q 531.128908 426.549763 531.128908 427.013826 
L 531.025783 426.037263 
Q 531.260158 425.582576 531.63047 425.331013 
Q 532.002345 425.079451 532.450783 425.079451 
Q 532.797658 425.079451 533.078908 425.179451 
Q 533.360158 425.279451 533.569533 425.474763 
L 532.919533 426.354451 
z
M 541.060158 426.398201 
L 541.060158 427.638826 
Q 541.060158 428.429451 540.752345 429.032576 
Q 540.444533 429.635701 539.88047 429.965388 
Q 539.316408 430.295076 538.57422 430.295076 
Q 537.822658 430.295076 537.253908 429.985701 
Q 536.685158 429.674763 536.372658 429.109138 
Q 536.060158 428.541951 536.060158 427.795076 
L 536.060158 425.699763 
Q 536.060158 424.909138 536.36797 424.309138 
Q 536.675783 423.707576 537.238283 423.377888 
Q 537.802345 423.048201 538.544533 423.048201 
Q 539.15547 423.048201 539.669533 423.310701 
Q 540.185158 423.571638 540.532033 424.049763 
Q 540.878908 424.527888 541.000783 425.157576 
L 541.000783 425.157576 
L 539.922658 425.157576 
L 539.922658 425.157576 
Q 539.833595 424.801326 539.62422 424.545076 
Q 539.414845 424.288826 539.13047 424.154451 
Q 538.847658 424.020076 538.544533 424.020076 
Q 538.10547 424.020076 537.772658 424.231013 
Q 537.441408 424.440388 537.260158 424.818513 
Q 537.08047 425.196638 537.08047 425.699763 
L 537.08047 427.795076 
Q 537.08047 428.254451 537.264845 428.598201 
Q 537.450783 428.941951 537.789845 429.132576 
Q 538.13047 429.323201 538.57422 429.323201 
Q 539.013283 429.323201 539.344533 429.126326 
Q 539.677345 428.927888 539.858595 428.552888 
Q 540.039845 428.176326 540.039845 427.657576 
L 540.039845 427.349763 
L 538.59922 427.349763 
L 538.59922 426.398201 
L 541.060158 426.398201 
z
M 542.426564 428.268513 
L 544.809376 423.126326 
L 545.835939 423.126326 
L 543.510939 428.209138 
L 546.992189 428.209138 
L 546.992189 429.132576 
L 542.426564 429.132576 
L 542.426564 428.268513 
z
M 545.489064 426.046638 
L 546.460939 426.046638 
L 546.460939 430.226326 
L 545.489064 430.226326 
L 545.489064 426.046638 
z
" style="fill: #ffffff"/>
   </g>
  </g>
 </g>
 <defs>
  <clipPath id="p13456ce0fc">
   <rect x="144" y="77.76" width="892.8" height="498.96"/>
  </clipPath>
 </defs>
</svg>
