<?xml version="1.0" encoding="utf-8" standalone="no"?>
<!DOCTYPE svg PUBLIC "-//W3C//DTD SVG 1.1//EN"
  "http://www.w3.org/Graphics/SVG/1.1/DTD/svg11.dtd">
<svg xmlns:xlink="http://www.w3.org/1999/xlink" width="1152pt" height="648pt" viewBox="0 0 1152 648" xmlns="http://www.w3.org/2000/svg" version="1.1">
 <metadata>
  <rdf:RDF xmlns:dc="http://purl.org/dc/elements/1.1/" xmlns:cc="http://creativecommons.org/ns#" xmlns:rdf="http://www.w3.org/1999/02/22-rdf-syntax-ns#">
   <cc:Work>
    <dc:type rdf:resource="http://purl.org/dc/dcmitype/StillImage"/>
    <dc:date>2025-09-19T13:20:10.983972</dc:date>
    <dc:format>image/svg+xml</dc:format>
    <dc:creator>
     <cc:Agent>
      <dc:title>Matplotlib v3.10.3, https://matplotlib.org/</dc:title>
     </cc:Agent>
    </dc:creator>
   </cc:Work>
  </rdf:RDF>
 </metadata>
 <defs>
  <style type="text/css">*{stroke-linejoin: round; stroke-linecap: butt}</style>
 </defs>
 <g id="figure_1">
  <g id="patch_1">
   <path d="M 0 648 
L 1152 648 
L 1152 0 
L 0 0 
L 0 648 
z
" style="fill: none"/>
  </g>
  <g id="axes_1">
   <g id="line2d_1">
    <path d="M 196.350545 521.654304 
L 199.363438 519.210936 
L 202.376331 516.81147 
L 205.389223 514.455121 
L 208.402116 512.141113 
L 211.415008 509.868688 
L 214.427901 507.637099 
L 217.440793 505.445615 
L 220.453686 503.293515 
L 223.466579 501.180093 
L 226.479471 499.104654 
L 229.492364 497.066518 
L 232.505256 495.065015 
L 235.518149 493.099487 
L 238.531041 491.169289 
L 241.543934 489.273787 
L 244.556826 487.412357 
L 247.569719 485.584388 
L 250.582612 483.78928 
L 253.595504 482.026443 
L 256.608397 480.295297 
L 259.621289 478.595273 
L 262.634182 476.925813 
L 265.647074 475.286367 
L 268.659967 473.676397 
L 271.67286 472.095373 
L 274.685752 470.542776 
L 277.698645 469.018095 
L 280.711537 467.520829 
L 283.72443 466.050486 
L 286.737322 464.606581 
L 289.750215 463.18864 
L 292.763107 461.796196 
L 295.776 460.428792 
L 298.788893 459.085978 
L 301.801785 457.767311 
L 304.814678 456.472359 
L 307.82757 455.200695 
L 310.840463 453.9519 
L 313.853355 452.725565 
L 316.866248 451.521284 
L 319.87914 450.338663 
L 322.892033 449.177311 
L 325.904926 448.036847 
L 328.917818 446.916895 
L 331.930711 445.817086 
L 334.943603 444.73706 
L 337.956496 443.676459 
L 340.969388 442.634935 
L 343.982281 441.612145 
L 346.995174 440.607753 
L 350.008066 439.621427 
L 353.020959 438.652843 
L 356.033851 437.701683 
L 359.046744 436.767632 
L 362.059636 435.850383 
L 365.072529 434.949635 
L 368.085421 434.06509 
L 371.098314 433.196458 
L 374.111207 432.343452 
L 377.124099 431.505791 
L 380.136992 430.6832 
L 383.149884 429.875407 
L 386.162777 429.082147 
L 389.175669 428.303157 
L 392.188562 427.538183 
L 395.201455 426.786971 
L 398.214347 426.049274 
L 401.22724 425.324849 
L 404.240132 424.613458 
L 407.253025 423.914866 
L 410.265917 423.228843 
L 413.27881 422.555162 
L 416.291702 421.893603 
L 419.304595 421.243947 
L 422.317488 420.605979 
L 425.33038 419.979491 
L 428.343273 419.364274 
L 431.356165 418.760127 
L 434.369058 418.166851 
L 437.38195 417.584249 
L 440.394843 417.012131 
L 443.407736 416.450307 
L 446.420628 415.898592 
L 449.433521 415.356805 
L 452.446413 414.824766 
L 455.459306 414.302301 
L 458.472198 413.789238 
L 461.485091 413.285406 
L 464.497983 412.790641 
L 467.510876 412.304779 
L 470.523769 411.82766 
L 473.536661 411.359126 
L 476.549554 410.899024 
L 479.562446 410.447201 
L 482.575339 410.003509 
L 485.588231 409.567802 
L 488.601124 409.139934 
L 491.614017 408.719767 
L 494.626909 408.307161 
" clip-path="url(#p7450fbb9fb)" style="fill: none; stroke: #f2ca79; stroke-width: 3; stroke-linecap: round"/>
   </g>
   <g id="text_1">
    <path d="M 502.072514 409.006854 
L 503.678764 409.006854 
Q 504.464702 409.006854 504.895952 408.599041 
Q 505.328764 408.191229 505.328764 407.449041 
L 505.328764 405.358416 
Q 505.328764 404.616229 504.895952 404.208416 
Q 504.464702 403.800604 503.678764 403.800604 
L 502.072514 403.800604 
L 502.072514 402.853729 
L 503.649077 402.853729 
Q 504.503764 402.853729 505.108452 403.152166 
Q 505.714702 403.449041 506.031889 404.020916 
Q 506.349077 404.592791 506.349077 405.397479 
L 506.349077 407.409979 
Q 506.349077 408.214666 506.031889 408.786541 
Q 505.714702 409.358416 505.106889 409.656854 
Q 504.499077 409.953729 503.644389 409.953729 
L 502.072514 409.953729 
L 502.072514 409.006854 
z
M 501.399077 402.853729 
L 502.394389 402.853729 
L 502.394389 409.953729 
L 501.399077 409.953729 
L 501.399077 402.853729 
z
M 509.894389 410.027166 
Q 509.250639 410.027166 508.761577 409.783416 
Q 508.274077 409.538104 508.006889 409.091229 
Q 507.741264 408.644354 507.741264 408.053729 
L 507.741264 407.936541 
Q 507.741264 407.405291 508.006889 406.936541 
Q 508.274077 406.467791 508.717827 406.228729 
Q 508.341264 406.022479 508.114702 405.634979 
Q 507.888139 405.245916 507.888139 404.816229 
L 507.888139 404.645916 
Q 507.888139 404.089666 508.136577 403.667791 
Q 508.385014 403.244354 508.839702 403.013104 
Q 509.294389 402.780291 509.894389 402.780291 
Q 510.494389 402.780291 510.949077 403.013104 
Q 511.403764 403.244354 511.652202 403.667791 
Q 511.900639 404.089666 511.900639 404.645916 
L 511.900639 404.816229 
Q 511.900639 405.256854 511.669389 405.642791 
Q 511.438139 406.027166 511.056889 406.228729 
Q 511.505327 406.472479 511.775639 406.939666 
Q 512.047514 407.405291 512.047514 407.936541 
L 512.047514 408.053729 
Q 512.047514 408.644354 511.781889 409.091229 
Q 511.516264 409.538104 511.027202 409.783416 
Q 510.539702 410.027166 509.894389 410.027166 
z
M 509.894389 409.069354 
Q 510.241264 409.069354 510.503764 408.933416 
Q 510.767827 408.795916 510.911577 408.550604 
Q 511.056889 408.303729 511.056889 407.980291 
L 511.056889 407.913104 
Q 511.056889 407.584979 510.911577 407.339666 
Q 510.767827 407.092791 510.503764 406.956854 
Q 510.241264 406.819354 509.894389 406.819354 
Q 509.547514 406.819354 509.283452 406.956854 
Q 509.020952 407.092791 508.875639 407.341229 
Q 508.731889 407.589666 508.731889 407.917791 
L 508.731889 407.991229 
Q 508.731889 408.313104 508.875639 408.556854 
Q 509.020952 408.800604 509.283452 408.934979 
Q 509.547514 409.069354 509.894389 409.069354 
z
M 509.894389 405.861541 
Q 510.192827 405.861541 510.420952 405.733416 
Q 510.650639 405.603729 510.777202 405.364666 
Q 510.905327 405.124041 510.905327 404.811541 
L 510.905327 404.744354 
Q 510.905327 404.445916 510.777202 404.216229 
Q 510.650639 403.986541 510.420952 403.863104 
Q 510.192827 403.738104 509.894389 403.738104 
Q 509.595952 403.738104 509.366264 403.863104 
Q 509.138139 403.986541 509.010014 404.216229 
Q 508.883452 404.445916 508.883452 404.749041 
L 508.883452 404.822479 
Q 508.883452 405.128729 509.010014 405.366229 
Q 509.138139 405.603729 509.366264 405.733416 
Q 509.595952 405.861541 509.894389 405.861541 
z
M 515.275639 410.027166 
Q 514.680327 410.027166 514.225639 409.809979 
Q 513.770952 409.592791 513.494389 409.180291 
Q 513.219389 408.767791 513.145952 408.186541 
L 513.145952 408.186541 
L 514.161577 408.186541 
L 514.161577 408.186541 
Q 514.205327 408.488104 514.352202 408.683416 
Q 514.499077 408.878729 514.730327 408.974041 
Q 514.963139 409.069354 515.275639 409.069354 
Q 515.767827 409.069354 516.041264 408.806854 
Q 516.314702 408.542791 516.314702 408.064666 
L 516.314702 407.849041 
Q 516.314702 407.316229 516.055327 407.027166 
Q 515.797514 406.736541 515.324077 406.736541 
L 514.820952 406.736541 
L 514.820952 405.788104 
L 515.324077 405.788104 
Q 515.739702 405.788104 515.967827 405.539666 
Q 516.197514 405.291229 516.197514 404.836541 
L 516.197514 404.616229 
Q 516.197514 404.197479 515.955327 403.967791 
Q 515.714702 403.738104 515.270952 403.738104 
Q 515.016264 403.738104 514.816264 403.833416 
Q 514.616264 403.928729 514.477202 404.127166 
Q 514.338139 404.324041 514.274077 404.620916 
L 514.274077 404.620916 
L 513.263139 404.620916 
L 513.263139 404.620916 
Q 513.361577 404.041229 513.631889 403.625604 
Q 513.903764 403.209979 514.317827 402.995916 
Q 514.733452 402.780291 515.270952 402.780291 
Q 516.188139 402.780291 516.691264 403.264666 
Q 517.194389 403.747479 517.194389 404.627166 
L 517.194389 404.744354 
Q 517.194389 405.275604 516.905327 405.670916 
Q 516.617827 406.066229 516.091264 406.247479 
Q 516.672514 406.374041 516.991264 406.819354 
Q 517.311577 407.263104 517.311577 407.952166 
L 517.311577 408.069354 
Q 517.311577 408.689666 517.072514 409.128729 
Q 516.833452 409.567791 516.375639 409.797479 
Q 515.919389 410.027166 515.275639 410.027166 
z
M 520.75435 410.027166 
Q 519.757475 410.027166 519.24185 409.495916 
Q 518.727788 408.963104 518.727788 408.009979 
L 518.727788 404.783416 
Q 518.727788 403.825604 519.244975 403.295916 
Q 519.762163 402.766229 520.75435 402.766229 
Q 521.749663 402.766229 522.265288 403.294354 
Q 522.780913 403.820916 522.780913 404.783416 
L 522.780913 408.009979 
Q 522.780913 408.967791 522.262163 409.497479 
Q 521.744975 410.027166 520.75435 410.027166 
z
M 520.75435 409.080291 
Q 521.280913 409.080291 521.532475 408.803729 
Q 521.784038 408.527166 521.784038 408.009979 
L 521.784038 404.783416 
Q 521.784038 404.264666 521.534038 403.989666 
Q 521.2856 403.713104 520.75435 403.713104 
Q 520.221538 403.713104 519.971538 403.989666 
Q 519.7231 404.264666 519.7231 404.783416 
L 519.7231 408.009979 
Q 519.7231 408.527166 519.974663 408.803729 
Q 520.226225 409.080291 520.75435 409.080291 
z
M 526.271928 410.027166 
Q 525.275053 410.027166 524.759428 409.495916 
Q 524.245366 408.963104 524.245366 408.009979 
L 524.245366 404.783416 
Q 524.245366 403.825604 524.762553 403.295916 
Q 525.279741 402.766229 526.271928 402.766229 
Q 527.267241 402.766229 527.782866 403.294354 
Q 528.298491 403.820916 528.298491 404.783416 
L 528.298491 408.009979 
Q 528.298491 408.967791 527.779741 409.497479 
Q 527.262553 410.027166 526.271928 410.027166 
z
M 526.271928 409.080291 
Q 526.798491 409.080291 527.050053 408.803729 
Q 527.301616 408.527166 527.301616 408.009979 
L 527.301616 404.783416 
Q 527.301616 404.264666 527.051616 403.989666 
Q 526.803178 403.713104 526.271928 403.713104 
Q 525.739116 403.713104 525.489116 403.989666 
Q 525.240678 404.264666 525.240678 404.783416 
L 525.240678 408.009979 
Q 525.240678 408.527166 525.492241 408.803729 
Q 525.743803 409.080291 526.271928 409.080291 
z
M 534.010991 410.027166 
Q 533.225053 410.027166 532.665678 409.717791 
Q 532.106303 409.406854 531.812553 408.814666 
Q 531.520366 408.220916 531.520366 407.384979 
L 531.520366 402.853729 
L 532.517241 402.853729 
L 532.517241 407.419354 
Q 532.517241 408.195916 532.907866 408.620916 
Q 533.298491 409.045916 534.010991 409.045916 
Q 534.728178 409.045916 535.120366 408.620916 
Q 535.514116 408.195916 535.514116 407.419354 
L 535.514116 402.853729 
L 536.510991 402.853729 
L 536.510991 407.384979 
Q 536.510991 408.220916 536.217241 408.814666 
Q 535.925053 409.406854 535.362553 409.717791 
Q 534.801616 410.027166 534.010991 410.027166 
z
M 539.069975 408.644354 
Q 539.069975 408.830291 539.149663 408.930291 
Q 539.230913 409.030291 539.376225 409.030291 
L 539.844975 409.030291 
L 539.844975 409.978729 
L 539.259038 409.978729 
Q 538.693413 409.978729 538.382475 409.627166 
Q 538.0731 409.275604 538.0731 408.634979 
L 538.0731 402.853729 
L 539.069975 402.853729 
L 539.069975 408.644354 
z
M 542.287358 409.978729 
Q 541.671733 409.978729 541.385795 409.639666 
Q 541.099858 409.299041 541.099858 408.634979 
L 541.099858 403.409979 
L 542.096733 403.409979 
L 542.096733 408.644354 
Q 542.096733 408.830291 542.17017 408.930291 
Q 542.243608 409.030291 542.384233 409.030291 
L 542.86392 409.030291 
L 542.86392 409.978729 
L 542.287358 409.978729 
z
M 540.577983 404.884979 
L 542.86392 404.884979 
L 542.86392 405.783416 
L 540.577983 405.783416 
L 540.577983 404.884979 
z
M 544.230327 404.884979 
L 545.227202 404.884979 
L 545.227202 409.953729 
L 544.230327 409.953729 
L 544.230327 404.884979 
z
M 547.017827 406.086541 
Q 546.886577 405.925604 546.686577 405.842791 
Q 546.486577 405.759979 546.222514 405.759979 
Q 545.749077 405.759979 545.488139 406.020916 
Q 545.227202 406.281854 545.227202 406.745916 
L 545.124077 405.769354 
Q 545.358452 405.314666 545.728764 405.063104 
Q 546.100639 404.811541 546.549077 404.811541 
Q 546.895952 404.811541 547.177202 404.911541 
Q 547.458452 405.011541 547.667827 405.206854 
L 547.017827 406.086541 
z
M 551.358842 406.741229 
Q 551.358842 406.242791 551.093217 405.967791 
Q 550.827592 405.691229 550.33853 405.691229 
Q 550.035405 405.691229 549.74478 405.784979 
Q 549.455717 405.877166 549.230717 406.042791 
L 548.502592 405.544354 
Q 548.791655 405.197479 549.261967 405.005291 
Q 549.733842 404.811541 550.308842 404.811541 
Q 550.940092 404.811541 551.38853 405.034979 
Q 551.83853 405.256854 552.072905 405.678729 
Q 552.30728 406.100604 552.30728 406.697479 
L 552.30728 409.953729 
L 551.358842 409.953729 
L 551.358842 406.741229 
z
M 550.11978 410.027166 
Q 549.18228 410.027166 548.718217 409.639666 
Q 548.254155 409.250604 548.254155 408.459979 
Q 548.254155 407.706854 548.679155 407.331854 
Q 549.104155 406.955291 549.96353 406.955291 
L 551.402592 406.955291 
L 551.471342 407.756854 
L 549.968217 407.756854 
Q 549.577592 407.756854 549.383842 407.930291 
Q 549.191655 408.103729 549.191655 408.459979 
Q 549.191655 408.845916 549.447905 409.031854 
Q 549.704155 409.216229 550.22603 409.216229 
Q 550.797905 409.216229 551.077592 409.094354 
Q 551.358842 408.972479 551.358842 408.713104 
L 551.461967 409.425604 
Q 551.330717 409.631854 551.136967 409.763104 
Q 550.94478 409.894354 550.690092 409.959979 
Q 550.436967 410.027166 550.11978 410.027166 
z
" style="fill: #ffffff; stroke: #000000"/>
    <path d="M 502.072514 409.006854 
L 503.678764 409.006854 
Q 504.464702 409.006854 504.895952 408.599041 
Q 505.328764 408.191229 505.328764 407.449041 
L 505.328764 405.358416 
Q 505.328764 404.616229 504.895952 404.208416 
Q 504.464702 403.800604 503.678764 403.800604 
L 502.072514 403.800604 
L 502.072514 402.853729 
L 503.649077 402.853729 
Q 504.503764 402.853729 505.108452 403.152166 
Q 505.714702 403.449041 506.031889 404.020916 
Q 506.349077 404.592791 506.349077 405.397479 
L 506.349077 407.409979 
Q 506.349077 408.214666 506.031889 408.786541 
Q 505.714702 409.358416 505.106889 409.656854 
Q 504.499077 409.953729 503.644389 409.953729 
L 502.072514 409.953729 
L 502.072514 409.006854 
z
M 501.399077 402.853729 
L 502.394389 402.853729 
L 502.394389 409.953729 
L 501.399077 409.953729 
L 501.399077 402.853729 
z
M 509.894389 410.027166 
Q 509.250639 410.027166 508.761577 409.783416 
Q 508.274077 409.538104 508.006889 409.091229 
Q 507.741264 408.644354 507.741264 408.053729 
L 507.741264 407.936541 
Q 507.741264 407.405291 508.006889 406.936541 
Q 508.274077 406.467791 508.717827 406.228729 
Q 508.341264 406.022479 508.114702 405.634979 
Q 507.888139 405.245916 507.888139 404.816229 
L 507.888139 404.645916 
Q 507.888139 404.089666 508.136577 403.667791 
Q 508.385014 403.244354 508.839702 403.013104 
Q 509.294389 402.780291 509.894389 402.780291 
Q 510.494389 402.780291 510.949077 403.013104 
Q 511.403764 403.244354 511.652202 403.667791 
Q 511.900639 404.089666 511.900639 404.645916 
L 511.900639 404.816229 
Q 511.900639 405.256854 511.669389 405.642791 
Q 511.438139 406.027166 511.056889 406.228729 
Q 511.505327 406.472479 511.775639 406.939666 
Q 512.047514 407.405291 512.047514 407.936541 
L 512.047514 408.053729 
Q 512.047514 408.644354 511.781889 409.091229 
Q 511.516264 409.538104 511.027202 409.783416 
Q 510.539702 410.027166 509.894389 410.027166 
z
M 509.894389 409.069354 
Q 510.241264 409.069354 510.503764 408.933416 
Q 510.767827 408.795916 510.911577 408.550604 
Q 511.056889 408.303729 511.056889 407.980291 
L 511.056889 407.913104 
Q 511.056889 407.584979 510.911577 407.339666 
Q 510.767827 407.092791 510.503764 406.956854 
Q 510.241264 406.819354 509.894389 406.819354 
Q 509.547514 406.819354 509.283452 406.956854 
Q 509.020952 407.092791 508.875639 407.341229 
Q 508.731889 407.589666 508.731889 407.917791 
L 508.731889 407.991229 
Q 508.731889 408.313104 508.875639 408.556854 
Q 509.020952 408.800604 509.283452 408.934979 
Q 509.547514 409.069354 509.894389 409.069354 
z
M 509.894389 405.861541 
Q 510.192827 405.861541 510.420952 405.733416 
Q 510.650639 405.603729 510.777202 405.364666 
Q 510.905327 405.124041 510.905327 404.811541 
L 510.905327 404.744354 
Q 510.905327 404.445916 510.777202 404.216229 
Q 510.650639 403.986541 510.420952 403.863104 
Q 510.192827 403.738104 509.894389 403.738104 
Q 509.595952 403.738104 509.366264 403.863104 
Q 509.138139 403.986541 509.010014 404.216229 
Q 508.883452 404.445916 508.883452 404.749041 
L 508.883452 404.822479 
Q 508.883452 405.128729 509.010014 405.366229 
Q 509.138139 405.603729 509.366264 405.733416 
Q 509.595952 405.861541 509.894389 405.861541 
z
M 515.275639 410.027166 
Q 514.680327 410.027166 514.225639 409.809979 
Q 513.770952 409.592791 513.494389 409.180291 
Q 513.219389 408.767791 513.145952 408.186541 
L 513.145952 408.186541 
L 514.161577 408.186541 
L 514.161577 408.186541 
Q 514.205327 408.488104 514.352202 408.683416 
Q 514.499077 408.878729 514.730327 408.974041 
Q 514.963139 409.069354 515.275639 409.069354 
Q 515.767827 409.069354 516.041264 408.806854 
Q 516.314702 408.542791 516.314702 408.064666 
L 516.314702 407.849041 
Q 516.314702 407.316229 516.055327 407.027166 
Q 515.797514 406.736541 515.324077 406.736541 
L 514.820952 406.736541 
L 514.820952 405.788104 
L 515.324077 405.788104 
Q 515.739702 405.788104 515.967827 405.539666 
Q 516.197514 405.291229 516.197514 404.836541 
L 516.197514 404.616229 
Q 516.197514 404.197479 515.955327 403.967791 
Q 515.714702 403.738104 515.270952 403.738104 
Q 515.016264 403.738104 514.816264 403.833416 
Q 514.616264 403.928729 514.477202 404.127166 
Q 514.338139 404.324041 514.274077 404.620916 
L 514.274077 404.620916 
L 513.263139 404.620916 
L 513.263139 404.620916 
Q 513.361577 404.041229 513.631889 403.625604 
Q 513.903764 403.209979 514.317827 402.995916 
Q 514.733452 402.780291 515.270952 402.780291 
Q 516.188139 402.780291 516.691264 403.264666 
Q 517.194389 403.747479 517.194389 404.627166 
L 517.194389 404.744354 
Q 517.194389 405.275604 516.905327 405.670916 
Q 516.617827 406.066229 516.091264 406.247479 
Q 516.672514 406.374041 516.991264 406.819354 
Q 517.311577 407.263104 517.311577 407.952166 
L 517.311577 408.069354 
Q 517.311577 408.689666 517.072514 409.128729 
Q 516.833452 409.567791 516.375639 409.797479 
Q 515.919389 410.027166 515.275639 410.027166 
z
M 520.75435 410.027166 
Q 519.757475 410.027166 519.24185 409.495916 
Q 518.727788 408.963104 518.727788 408.009979 
L 518.727788 404.783416 
Q 518.727788 403.825604 519.244975 403.295916 
Q 519.762163 402.766229 520.75435 402.766229 
Q 521.749663 402.766229 522.265288 403.294354 
Q 522.780913 403.820916 522.780913 404.783416 
L 522.780913 408.009979 
Q 522.780913 408.967791 522.262163 409.497479 
Q 521.744975 410.027166 520.75435 410.027166 
z
M 520.75435 409.080291 
Q 521.280913 409.080291 521.532475 408.803729 
Q 521.784038 408.527166 521.784038 408.009979 
L 521.784038 404.783416 
Q 521.784038 404.264666 521.534038 403.989666 
Q 521.2856 403.713104 520.75435 403.713104 
Q 520.221538 403.713104 519.971538 403.989666 
Q 519.7231 404.264666 519.7231 404.783416 
L 519.7231 408.009979 
Q 519.7231 408.527166 519.974663 408.803729 
Q 520.226225 409.080291 520.75435 409.080291 
z
M 526.271928 410.027166 
Q 525.275053 410.027166 524.759428 409.495916 
Q 524.245366 408.963104 524.245366 408.009979 
L 524.245366 404.783416 
Q 524.245366 403.825604 524.762553 403.295916 
Q 525.279741 402.766229 526.271928 402.766229 
Q 527.267241 402.766229 527.782866 403.294354 
Q 528.298491 403.820916 528.298491 404.783416 
L 528.298491 408.009979 
Q 528.298491 408.967791 527.779741 409.497479 
Q 527.262553 410.027166 526.271928 410.027166 
z
M 526.271928 409.080291 
Q 526.798491 409.080291 527.050053 408.803729 
Q 527.301616 408.527166 527.301616 408.009979 
L 527.301616 404.783416 
Q 527.301616 404.264666 527.051616 403.989666 
Q 526.803178 403.713104 526.271928 403.713104 
Q 525.739116 403.713104 525.489116 403.989666 
Q 525.240678 404.264666 525.240678 404.783416 
L 525.240678 408.009979 
Q 525.240678 408.527166 525.492241 408.803729 
Q 525.743803 409.080291 526.271928 409.080291 
z
M 534.010991 410.027166 
Q 533.225053 410.027166 532.665678 409.717791 
Q 532.106303 409.406854 531.812553 408.814666 
Q 531.520366 408.220916 531.520366 407.384979 
L 531.520366 402.853729 
L 532.517241 402.853729 
L 532.517241 407.419354 
Q 532.517241 408.195916 532.907866 408.620916 
Q 533.298491 409.045916 534.010991 409.045916 
Q 534.728178 409.045916 535.120366 408.620916 
Q 535.514116 408.195916 535.514116 407.419354 
L 535.514116 402.853729 
L 536.510991 402.853729 
L 536.510991 407.384979 
Q 536.510991 408.220916 536.217241 408.814666 
Q 535.925053 409.406854 535.362553 409.717791 
Q 534.801616 410.027166 534.010991 410.027166 
z
M 539.069975 408.644354 
Q 539.069975 408.830291 539.149663 408.930291 
Q 539.230913 409.030291 539.376225 409.030291 
L 539.844975 409.030291 
L 539.844975 409.978729 
L 539.259038 409.978729 
Q 538.693413 409.978729 538.382475 409.627166 
Q 538.0731 409.275604 538.0731 408.634979 
L 538.0731 402.853729 
L 539.069975 402.853729 
L 539.069975 408.644354 
z
M 542.287358 409.978729 
Q 541.671733 409.978729 541.385795 409.639666 
Q 541.099858 409.299041 541.099858 408.634979 
L 541.099858 403.409979 
L 542.096733 403.409979 
L 542.096733 408.644354 
Q 542.096733 408.830291 542.17017 408.930291 
Q 542.243608 409.030291 542.384233 409.030291 
L 542.86392 409.030291 
L 542.86392 409.978729 
L 542.287358 409.978729 
z
M 540.577983 404.884979 
L 542.86392 404.884979 
L 542.86392 405.783416 
L 540.577983 405.783416 
L 540.577983 404.884979 
z
M 544.230327 404.884979 
L 545.227202 404.884979 
L 545.227202 409.953729 
L 544.230327 409.953729 
L 544.230327 404.884979 
z
M 547.017827 406.086541 
Q 546.886577 405.925604 546.686577 405.842791 
Q 546.486577 405.759979 546.222514 405.759979 
Q 545.749077 405.759979 545.488139 406.020916 
Q 545.227202 406.281854 545.227202 406.745916 
L 545.124077 405.769354 
Q 545.358452 405.314666 545.728764 405.063104 
Q 546.100639 404.811541 546.549077 404.811541 
Q 546.895952 404.811541 547.177202 404.911541 
Q 547.458452 405.011541 547.667827 405.206854 
L 547.017827 406.086541 
z
M 551.358842 406.741229 
Q 551.358842 406.242791 551.093217 405.967791 
Q 550.827592 405.691229 550.33853 405.691229 
Q 550.035405 405.691229 549.74478 405.784979 
Q 549.455717 405.877166 549.230717 406.042791 
L 548.502592 405.544354 
Q 548.791655 405.197479 549.261967 405.005291 
Q 549.733842 404.811541 550.308842 404.811541 
Q 550.940092 404.811541 551.38853 405.034979 
Q 551.83853 405.256854 552.072905 405.678729 
Q 552.30728 406.100604 552.30728 406.697479 
L 552.30728 409.953729 
L 551.358842 409.953729 
L 551.358842 406.741229 
z
M 550.11978 410.027166 
Q 549.18228 410.027166 548.718217 409.639666 
Q 548.254155 409.250604 548.254155 408.459979 
Q 548.254155 407.706854 548.679155 407.331854 
Q 549.104155 406.955291 549.96353 406.955291 
L 551.402592 406.955291 
L 551.471342 407.756854 
L 549.968217 407.756854 
Q 549.577592 407.756854 549.383842 407.930291 
Q 549.191655 408.103729 549.191655 408.459979 
Q 549.191655 408.845916 549.447905 409.031854 
Q 549.704155 409.216229 550.22603 409.216229 
Q 550.797905 409.216229 551.077592 409.094354 
Q 551.358842 408.972479 551.358842 408.713104 
L 551.461967 409.425604 
Q 551.330717 409.631854 551.136967 409.763104 
Q 550.94478 409.894354 550.690092 409.959979 
Q 550.436967 410.027166 550.11978 410.027166 
z
" style="fill: #ffffff"/>
   </g>
  </g>
 </g>
 <defs>
  <clipPath id="p7450fbb9fb">
   <rect x="144" y="77.76" width="892.8" height="498.96"/>
  </clipPath>
 </defs>
</svg>
