<?xml version="1.0" encoding="utf-8" standalone="no"?>
<!DOCTYPE svg PUBLIC "-//W3C//DTD SVG 1.1//EN"
  "http://www.w3.org/Graphics/SVG/1.1/DTD/svg11.dtd">
<svg xmlns:xlink="http://www.w3.org/1999/xlink" width="1152pt" height="648pt" viewBox="0 0 1152 648" xmlns="http://www.w3.org/2000/svg" version="1.1">
 <metadata>
  <rdf:RDF xmlns:dc="http://purl.org/dc/elements/1.1/" xmlns:cc="http://creativecommons.org/ns#" xmlns:rdf="http://www.w3.org/1999/02/22-rdf-syntax-ns#">
   <cc:Work>
    <dc:type rdf:resource="http://purl.org/dc/dcmitype/StillImage"/>
    <dc:date>2025-09-19T13:20:11.214334</dc:date>
    <dc:format>image/svg+xml</dc:format>
    <dc:creator>
     <cc:Agent>
      <dc:title>Matplotlib v3.10.3, https://matplotlib.org/</dc:title>
     </cc:Agent>
    </dc:creator>
   </cc:Work>
  </rdf:RDF>
 </metadata>
 <defs>
  <style type="text/css">*{stroke-linejoin: round; stroke-linecap: butt}</style>
 </defs>
 <g id="figure_1">
  <g id="patch_1">
   <path d="M 0 648 
L 1152 648 
L 1152 0 
L 0 0 
L 0 648 
z
" style="fill: none"/>
  </g>
  <g id="axes_1">
   <g id="line2d_1">
    <path d="M 244.237091 503.87686 
L 248.438744 499.770457 
L 252.640397 495.679835 
L 256.84205 491.609172 
L 261.043702 487.562561 
L 265.245355 483.543998 
L 269.447008 479.557366 
L 273.648661 475.606419 
L 277.850314 471.69477 
L 282.051967 467.825879 
L 286.25362 464.003042 
L 290.455273 460.229382 
L 294.656926 456.50784 
L 298.858579 452.841169 
L 303.060231 449.231926 
L 307.261884 445.682473 
L 311.463537 442.194969 
L 315.66519 438.771371 
L 319.866843 435.413434 
L 324.068496 432.122709 
L 328.270149 428.90055 
L 332.471802 425.748112 
L 336.673455 422.66636 
L 340.875107 419.656068 
L 345.07676 416.717832 
L 349.278413 413.852067 
L 353.480066 411.059025 
L 357.681719 408.338792 
L 361.883372 405.691303 
L 366.085025 403.116348 
L 370.286678 400.613579 
L 374.488331 398.182521 
L 378.689983 395.82258 
L 382.891636 393.533049 
L 387.093289 391.313121 
L 391.294942 389.161895 
L 395.496595 387.078386 
L 399.698248 385.061532 
L 403.899901 383.110201 
L 408.101554 381.223202 
L 412.303207 379.39929 
L 416.50486 377.637172 
L 420.706512 375.93552 
L 424.908165 374.292969 
L 429.109818 372.708128 
L 433.311471 371.179588 
L 437.513124 369.70592 
L 441.714777 368.285688 
L 445.91643 366.917448 
L 450.118083 365.599756 
L 454.319736 364.33117 
L 458.521388 363.110254 
L 462.723041 361.935581 
L 466.924694 360.805738 
L 471.126347 359.719327 
L 475.328 358.674966 
L 479.529653 357.671294 
L 483.731306 356.706973 
L 487.932959 355.780687 
L 492.134612 354.891146 
L 496.336264 354.037085 
L 500.537917 353.217267 
L 504.73957 352.430483 
L 508.941223 351.675554 
L 513.142876 350.951329 
L 517.344529 350.256687 
L 521.546182 349.590538 
L 525.747835 348.95182 
L 529.949488 348.339504 
L 534.15114 347.752591 
L 538.352793 347.190109 
L 542.554446 346.65112 
L 546.756099 346.134713 
L 550.957752 345.640007 
L 555.159405 345.166149 
L 559.361058 344.712316 
L 563.562711 344.277712 
L 567.764364 343.861567 
L 571.966017 343.463141 
L 576.167669 343.081717 
L 580.369322 342.716605 
L 584.570975 342.36714 
L 588.772628 342.032682 
L 592.974281 341.712612 
L 597.175934 341.406338 
L 601.377587 341.113287 
L 605.57924 340.832909 
L 609.780893 340.564675 
L 613.982545 340.308078 
L 618.184198 340.062627 
L 622.385851 339.827854 
L 626.587504 339.603308 
L 630.789157 339.388554 
L 634.99081 339.183178 
L 639.192463 338.986781 
L 643.394116 338.798978 
L 647.595769 338.619403 
L 651.797421 338.447702 
L 655.999074 338.283539 
L 660.200727 338.126588 
" clip-path="url(#p91d8d0e83e)" style="fill: none; stroke: #30b1f2; stroke-width: 3; stroke-linecap: round"/>
   </g>
   <g id="text_1">
    <path d="M 666.972895 332.673156 
L 667.968207 332.673156 
L 667.968207 339.773156 
L 666.972895 339.773156 
L 666.972895 332.673156 
z
M 667.455707 338.826281 
L 671.53227 338.826281 
L 671.53227 339.773156 
L 667.455707 339.773156 
L 667.455707 338.826281 
z
M 667.455707 335.774718 
L 670.996332 335.774718 
L 670.996332 336.721593 
L 667.455707 336.721593 
L 667.455707 335.774718 
z
M 667.455707 332.673156 
L 671.53227 332.673156 
L 671.53227 333.620031 
L 667.455707 333.620031 
L 667.455707 332.673156 
z
M 672.69477 338.909093 
L 675.16977 335.607531 
Q 675.385395 335.324718 675.504145 335.020031 
Q 675.624457 334.713781 675.624457 334.451281 
L 675.624457 334.440343 
Q 675.624457 334.016906 675.374457 333.782531 
Q 675.12602 333.548156 674.668207 333.548156 
Q 674.23227 333.548156 673.96352 333.804406 
Q 673.696332 334.060656 673.636957 334.529406 
L 673.636957 334.534093 
L 672.60727 334.534093 
L 672.60727 334.529406 
Q 672.69477 333.918468 672.965082 333.487218 
Q 673.236957 333.054406 673.666645 332.827843 
Q 674.096332 332.599718 674.65727 332.599718 
Q 675.293207 332.599718 675.741645 332.816906 
Q 676.191645 333.034093 676.42602 333.449718 
Q 676.660395 333.865343 676.660395 334.451281 
L 676.660395 334.455968 
Q 676.660395 334.830968 676.504145 335.241906 
Q 676.347895 335.651281 676.068207 336.032531 
L 674.01352 338.826281 
L 676.699457 338.826281 
L 676.699457 339.773156 
L 672.69477 339.773156 
L 672.69477 338.909093 
z
M 677.87016 337.820031 
L 680.252973 332.677843 
L 681.279535 332.677843 
L 678.954535 337.760656 
L 682.435785 337.760656 
L 682.435785 338.684093 
L 677.87016 338.684093 
L 677.87016 337.820031 
z
M 680.93266 335.598156 
L 681.904535 335.598156 
L 681.904535 339.777843 
L 680.93266 339.777843 
L 680.93266 335.598156 
z
M 685.683637 339.846593 
Q 684.686762 339.846593 684.171137 339.315343 
Q 683.657074 338.782531 683.657074 337.829406 
L 683.657074 334.602843 
Q 683.657074 333.645031 684.174262 333.115343 
Q 684.691449 332.585656 685.683637 332.585656 
Q 686.678949 332.585656 687.194574 333.113781 
Q 687.710199 333.640343 687.710199 334.602843 
L 687.710199 337.829406 
Q 687.710199 338.787218 687.191449 339.316906 
Q 686.674262 339.846593 685.683637 339.846593 
z
M 685.683637 338.899718 
Q 686.210199 338.899718 686.461762 338.623156 
Q 686.713324 338.346593 686.713324 337.829406 
L 686.713324 334.602843 
Q 686.713324 334.084093 686.463324 333.809093 
Q 686.214887 333.532531 685.683637 333.532531 
Q 685.150824 333.532531 684.900824 333.809093 
Q 684.652387 334.084093 684.652387 334.602843 
L 684.652387 337.829406 
Q 684.652387 338.346593 684.903949 338.623156 
Q 685.155512 338.899718 685.683637 338.899718 
z
M 691.201215 339.846593 
Q 690.20434 339.846593 689.688715 339.315343 
Q 689.174653 338.782531 689.174653 337.829406 
L 689.174653 334.602843 
Q 689.174653 333.645031 689.69184 333.115343 
Q 690.209028 332.585656 691.201215 332.585656 
Q 692.196528 332.585656 692.712153 333.113781 
Q 693.227778 333.640343 693.227778 334.602843 
L 693.227778 337.829406 
Q 693.227778 338.787218 692.709028 339.316906 
Q 692.19184 339.846593 691.201215 339.846593 
z
M 691.201215 338.899718 
Q 691.727778 338.899718 691.97934 338.623156 
Q 692.230903 338.346593 692.230903 337.829406 
L 692.230903 334.602843 
Q 692.230903 334.084093 691.980903 333.809093 
Q 691.732465 333.532531 691.201215 333.532531 
Q 690.668403 333.532531 690.418403 333.809093 
Q 690.169965 334.084093 690.169965 334.602843 
L 690.169965 337.829406 
Q 690.169965 338.346593 690.421528 338.623156 
Q 690.67309 338.899718 691.201215 338.899718 
z
" style="fill: #ffffff; stroke: #000000"/>
    <path d="M 666.972895 332.673156 
L 667.968207 332.673156 
L 667.968207 339.773156 
L 666.972895 339.773156 
L 666.972895 332.673156 
z
M 667.455707 338.826281 
L 671.53227 338.826281 
L 671.53227 339.773156 
L 667.455707 339.773156 
L 667.455707 338.826281 
z
M 667.455707 335.774718 
L 670.996332 335.774718 
L 670.996332 336.721593 
L 667.455707 336.721593 
L 667.455707 335.774718 
z
M 667.455707 332.673156 
L 671.53227 332.673156 
L 671.53227 333.620031 
L 667.455707 333.620031 
L 667.455707 332.673156 
z
M 672.69477 338.909093 
L 675.16977 335.607531 
Q 675.385395 335.324718 675.504145 335.020031 
Q 675.624457 334.713781 675.624457 334.451281 
L 675.624457 334.440343 
Q 675.624457 334.016906 675.374457 333.782531 
Q 675.12602 333.548156 674.668207 333.548156 
Q 674.23227 333.548156 673.96352 333.804406 
Q 673.696332 334.060656 673.636957 334.529406 
L 673.636957 334.534093 
L 672.60727 334.534093 
L 672.60727 334.529406 
Q 672.69477 333.918468 672.965082 333.487218 
Q 673.236957 333.054406 673.666645 332.827843 
Q 674.096332 332.599718 674.65727 332.599718 
Q 675.293207 332.599718 675.741645 332.816906 
Q 676.191645 333.034093 676.42602 333.449718 
Q 676.660395 333.865343 676.660395 334.451281 
L 676.660395 334.455968 
Q 676.660395 334.830968 676.504145 335.241906 
Q 676.347895 335.651281 676.068207 336.032531 
L 674.01352 338.826281 
L 676.699457 338.826281 
L 676.699457 339.773156 
L 672.69477 339.773156 
L 672.69477 338.909093 
z
M 677.87016 337.820031 
L 680.252973 332.677843 
L 681.279535 332.677843 
L 678.954535 337.760656 
L 682.435785 337.760656 
L 682.435785 338.684093 
L 677.87016 338.684093 
L 677.87016 337.820031 
z
M 680.93266 335.598156 
L 681.904535 335.598156 
L 681.904535 339.777843 
L 680.93266 339.777843 
L 680.93266 335.598156 
z
M 685.683637 339.846593 
Q 684.686762 339.846593 684.171137 339.315343 
Q 683.657074 338.782531 683.657074 337.829406 
L 683.657074 334.602843 
Q 683.657074 333.645031 684.174262 333.115343 
Q 684.691449 332.585656 685.683637 332.585656 
Q 686.678949 332.585656 687.194574 333.113781 
Q 687.710199 333.640343 687.710199 334.602843 
L 687.710199 337.829406 
Q 687.710199 338.787218 687.191449 339.316906 
Q 686.674262 339.846593 685.683637 339.846593 
z
M 685.683637 338.899718 
Q 686.210199 338.899718 686.461762 338.623156 
Q 686.713324 338.346593 686.713324 337.829406 
L 686.713324 334.602843 
Q 686.713324 334.084093 686.463324 333.809093 
Q 686.214887 333.532531 685.683637 333.532531 
Q 685.150824 333.532531 684.900824 333.809093 
Q 684.652387 334.084093 684.652387 334.602843 
L 684.652387 337.829406 
Q 684.652387 338.346593 684.903949 338.623156 
Q 685.155512 338.899718 685.683637 338.899718 
z
M 691.201215 339.846593 
Q 690.20434 339.846593 689.688715 339.315343 
Q 689.174653 338.782531 689.174653 337.829406 
L 689.174653 334.602843 
Q 689.174653 333.645031 689.69184 333.115343 
Q 690.209028 332.585656 691.201215 332.585656 
Q 692.196528 332.585656 692.712153 333.113781 
Q 693.227778 333.640343 693.227778 334.602843 
L 693.227778 337.829406 
Q 693.227778 338.787218 692.709028 339.316906 
Q 692.19184 339.846593 691.201215 339.846593 
z
M 691.201215 338.899718 
Q 691.727778 338.899718 691.97934 338.623156 
Q 692.230903 338.346593 692.230903 337.829406 
L 692.230903 334.602843 
Q 692.230903 334.084093 691.980903 333.809093 
Q 691.732465 333.532531 691.201215 333.532531 
Q 690.668403 333.532531 690.418403 333.809093 
Q 690.169965 334.084093 690.169965 334.602843 
L 690.169965 337.829406 
Q 690.169965 338.346593 690.421528 338.623156 
Q 690.67309 338.899718 691.201215 338.899718 
z
" style="fill: #ffffff"/>
   </g>
  </g>
 </g>
 <defs>
  <clipPath id="p91d8d0e83e">
   <rect x="144" y="77.76" width="892.8" height="498.96"/>
  </clipPath>
 </defs>
</svg>
