<?xml version="1.0" encoding="utf-8" standalone="no"?>
<!DOCTYPE svg PUBLIC "-//W3C//DTD SVG 1.1//EN"
  "http://www.w3.org/Graphics/SVG/1.1/DTD/svg11.dtd">
<svg xmlns:xlink="http://www.w3.org/1999/xlink" width="1152pt" height="648pt" viewBox="0 0 1152 648" xmlns="http://www.w3.org/2000/svg" version="1.1">
 <metadata>
  <rdf:RDF xmlns:dc="http://purl.org/dc/elements/1.1/" xmlns:cc="http://creativecommons.org/ns#" xmlns:rdf="http://www.w3.org/1999/02/22-rdf-syntax-ns#">
   <cc:Work>
    <dc:type rdf:resource="http://purl.org/dc/dcmitype/StillImage"/>
    <dc:date>2025-09-19T13:20:10.507183</dc:date>
    <dc:format>image/svg+xml</dc:format>
    <dc:creator>
     <cc:Agent>
      <dc:title>Matplotlib v3.10.3, https://matplotlib.org/</dc:title>
     </cc:Agent>
    </dc:creator>
   </cc:Work>
  </rdf:RDF>
 </metadata>
 <defs>
  <style type="text/css">*{stroke-linejoin: round; stroke-linecap: butt}</style>
 </defs>
 <g id="figure_1">
  <g id="patch_1">
   <path d="M 0 648 
L 1152 648 
L 1152 0 
L 0 0 
L 0 648 
z
" style="fill: none"/>
  </g>
  <g id="axes_1">
   <g id="PathCollection_1">
    <defs>
     <path id="m8e287cc916" d="M 0 2.738613 
C 0.726289 2.738613 1.422928 2.450055 1.936492 1.936492 
C 2.450055 1.422928 2.738613 0.726289 2.738613 0 
C 2.738613 -0.726289 2.450055 -1.422928 1.936492 -1.936492 
C 1.422928 -2.450055 0.726289 -2.738613 0 -2.738613 
C -0.726289 -2.738613 -1.422928 -2.450055 -1.936492 -1.936492 
C -2.450055 -1.422928 -2.738613 -0.726289 -2.738613 0 
C -2.738613 0.726289 -2.450055 1.422928 -1.936492 1.936492 
C -1.422928 2.450055 -0.726289 2.738613 0 2.738613 
z
" style="stroke: #80ffbf"/>
    </defs>
    <g clip-path="url(#p08dd71d0b3)">
     <use xlink:href="#m8e287cc916" x="701.188364" y="315.131904" style="fill: #80ffbf; stroke: #80ffbf"/>
     <use xlink:href="#m8e287cc916" x="204.466909" y="478.09224" style="fill: #80ffbf; stroke: #80ffbf"/>
    </g>
   </g>
   <g id="text_1">
    <path d="M 709.893344 309.678472 
L 710.743344 309.678472 
L 713.360531 316.778472 
L 712.285531 316.778472 
L 710.318344 311.050347 
L 708.351156 316.778472 
L 707.276156 316.778472 
L 709.893344 309.678472 
z
M 708.482406 314.273785 
L 712.218344 314.273785 
L 712.218344 315.22066 
L 708.482406 315.22066 
L 708.482406 314.273785 
z
M 716.002328 316.778472 
L 715.005453 316.778472 
L 715.005453 310.762847 
L 713.994516 311.38316 
L 713.994516 310.35191 
L 715.005453 309.678472 
L 716.002328 309.678472 
L 716.002328 316.778472 
z
M 721.280648 310.567535 
L 719.444711 316.778472 
L 718.385336 316.778472 
L 720.221273 310.625347 
L 718.413461 310.625347 
L 718.413461 311.647222 
L 717.418148 311.647222 
L 717.418148 309.678472 
L 721.280648 309.678472 
L 721.280648 310.567535 
z
M 725.016 313.076909 
L 727.286312 313.076909 
Q 727.608187 313.076909 727.851937 312.925347 
Q 728.09725 312.773785 728.230062 312.49566 
Q 728.364437 312.217534 728.364437 311.856597 
L 728.364437 311.856597 
Q 728.364437 311.490972 728.230062 311.212847 
Q 728.09725 310.93316 727.851937 310.780034 
Q 727.608187 310.625347 727.286312 310.625347 
L 725.016 310.625347 
L 725.016 309.678472 
L 727.251937 309.678472 
Q 727.886312 309.678472 728.369125 309.950347 
Q 728.8535 310.22066 729.119125 310.71441 
Q 729.386312 311.206597 729.386312 311.856597 
L 729.386312 311.856597 
Q 729.386312 312.506597 729.119125 312.997222 
Q 728.8535 313.487847 728.369125 313.756597 
Q 727.886312 314.023785 727.251937 314.023785 
L 725.016 314.023785 
L 725.016 313.076909 
z
M 724.5035 309.678472 
L 725.498812 309.678472 
L 725.498812 316.778472 
L 724.5035 316.778472 
L 724.5035 309.678472 
z
M 730.630648 311.709722 
L 731.627523 311.709722 
L 731.627523 316.778472 
L 730.630648 316.778472 
L 730.630648 311.709722 
z
M 733.418148 312.911285 
Q 733.286898 312.750347 733.086898 312.667535 
Q 732.886898 312.584722 732.622836 312.584722 
Q 732.149398 312.584722 731.888461 312.84566 
Q 731.627523 313.106597 731.627523 313.57066 
L 731.524398 312.594097 
Q 731.758773 312.139409 732.129086 311.887847 
Q 732.500961 311.636285 732.949398 311.636285 
Q 733.296273 311.636285 733.577523 311.736285 
Q 733.858773 311.836285 734.068148 312.031597 
L 733.418148 312.911285 
z
M 736.841976 316.85191 
Q 736.182601 316.85191 735.713851 316.594097 
Q 735.245101 316.334722 734.998226 315.83941 
Q 734.751351 315.342534 734.751351 314.644097 
L 734.751351 313.819097 
Q 734.751351 313.131597 734.998226 312.640972 
Q 735.245101 312.148785 735.713851 311.892535 
Q 736.182601 311.636285 736.841976 311.636285 
Q 737.501351 311.636285 737.970101 311.892535 
Q 738.438851 312.148785 738.684164 312.640972 
Q 738.931039 313.131597 738.931039 313.819097 
L 738.931039 314.659722 
Q 738.931039 315.35191 738.684164 315.844097 
Q 738.438851 316.334722 737.970101 316.594097 
Q 737.501351 316.85191 736.841976 316.85191 
z
M 736.841976 315.905034 
Q 737.363851 315.905034 737.649789 315.578472 
Q 737.935726 315.250347 737.935726 314.659722 
L 737.935726 313.819097 
Q 737.935726 313.228472 737.649789 312.906597 
Q 737.363851 312.584722 736.841976 312.584722 
Q 736.318539 312.584722 736.032601 312.906597 
Q 735.748226 313.228472 735.748226 313.819097 
L 735.748226 314.659722 
Q 735.748226 315.250347 736.032601 315.578472 
Q 736.318539 315.905034 736.841976 315.905034 
z
" style="fill: #ffffff; stroke: #000000"/>
    <path d="M 709.893344 309.678472 
L 710.743344 309.678472 
L 713.360531 316.778472 
L 712.285531 316.778472 
L 710.318344 311.050347 
L 708.351156 316.778472 
L 707.276156 316.778472 
L 709.893344 309.678472 
z
M 708.482406 314.273785 
L 712.218344 314.273785 
L 712.218344 315.22066 
L 708.482406 315.22066 
L 708.482406 314.273785 
z
M 716.002328 316.778472 
L 715.005453 316.778472 
L 715.005453 310.762847 
L 713.994516 311.38316 
L 713.994516 310.35191 
L 715.005453 309.678472 
L 716.002328 309.678472 
L 716.002328 316.778472 
z
M 721.280648 310.567535 
L 719.444711 316.778472 
L 718.385336 316.778472 
L 720.221273 310.625347 
L 718.413461 310.625347 
L 718.413461 311.647222 
L 717.418148 311.647222 
L 717.418148 309.678472 
L 721.280648 309.678472 
L 721.280648 310.567535 
z
M 725.016 313.076909 
L 727.286312 313.076909 
Q 727.608187 313.076909 727.851937 312.925347 
Q 728.09725 312.773785 728.230062 312.49566 
Q 728.364437 312.217534 728.364437 311.856597 
L 728.364437 311.856597 
Q 728.364437 311.490972 728.230062 311.212847 
Q 728.09725 310.93316 727.851937 310.780034 
Q 727.608187 310.625347 727.286312 310.625347 
L 725.016 310.625347 
L 725.016 309.678472 
L 727.251937 309.678472 
Q 727.886312 309.678472 728.369125 309.950347 
Q 728.8535 310.22066 729.119125 310.71441 
Q 729.386312 311.206597 729.386312 311.856597 
L 729.386312 311.856597 
Q 729.386312 312.506597 729.119125 312.997222 
Q 728.8535 313.487847 728.369125 313.756597 
Q 727.886312 314.023785 727.251937 314.023785 
L 725.016 314.023785 
L 725.016 313.076909 
z
M 724.5035 309.678472 
L 725.498812 309.678472 
L 725.498812 316.778472 
L 724.5035 316.778472 
L 724.5035 309.678472 
z
M 730.630648 311.709722 
L 731.627523 311.709722 
L 731.627523 316.778472 
L 730.630648 316.778472 
L 730.630648 311.709722 
z
M 733.418148 312.911285 
Q 733.286898 312.750347 733.086898 312.667535 
Q 732.886898 312.584722 732.622836 312.584722 
Q 732.149398 312.584722 731.888461 312.84566 
Q 731.627523 313.106597 731.627523 313.57066 
L 731.524398 312.594097 
Q 731.758773 312.139409 732.129086 311.887847 
Q 732.500961 311.636285 732.949398 311.636285 
Q 733.296273 311.636285 733.577523 311.736285 
Q 733.858773 311.836285 734.068148 312.031597 
L 733.418148 312.911285 
z
M 736.841976 316.85191 
Q 736.182601 316.85191 735.713851 316.594097 
Q 735.245101 316.334722 734.998226 315.83941 
Q 734.751351 315.342534 734.751351 314.644097 
L 734.751351 313.819097 
Q 734.751351 313.131597 734.998226 312.640972 
Q 735.245101 312.148785 735.713851 311.892535 
Q 736.182601 311.636285 736.841976 311.636285 
Q 737.501351 311.636285 737.970101 311.892535 
Q 738.438851 312.148785 738.684164 312.640972 
Q 738.931039 313.131597 738.931039 313.819097 
L 738.931039 314.659722 
Q 738.931039 315.35191 738.684164 315.844097 
Q 738.438851 316.334722 737.970101 316.594097 
Q 737.501351 316.85191 736.841976 316.85191 
z
M 736.841976 315.905034 
Q 737.363851 315.905034 737.649789 315.578472 
Q 737.935726 315.250347 737.935726 314.659722 
L 737.935726 313.819097 
Q 737.935726 313.228472 737.649789 312.906597 
Q 737.363851 312.584722 736.841976 312.584722 
Q 736.318539 312.584722 736.032601 312.906597 
Q 735.748226 313.228472 735.748226 313.819097 
L 735.748226 314.659722 
Q 735.748226 315.250347 736.032601 315.578472 
Q 736.318539 315.905034 736.841976 315.905034 
z
" style="fill: #ffffff"/>
   </g>
   <g id="text_2">
    <path d="M 213.171889 472.638808 
L 214.021889 472.638808 
L 216.639077 479.738808 
L 215.564077 479.738808 
L 213.596889 474.010683 
L 211.629702 479.738808 
L 210.554702 479.738808 
L 213.171889 472.638808 
z
M 211.760952 477.234121 
L 215.496889 477.234121 
L 215.496889 478.180995 
L 211.760952 478.180995 
L 211.760952 477.234121 
z
M 219.280873 479.738808 
L 218.283998 479.738808 
L 218.283998 473.723183 
L 217.273061 474.343496 
L 217.273061 473.312246 
L 218.283998 472.638808 
L 219.280873 472.638808 
L 219.280873 479.738808 
z
M 224.559194 473.527871 
L 222.723256 479.738808 
L 221.663881 479.738808 
L 223.499819 473.585683 
L 221.692006 473.585683 
L 221.692006 474.607558 
L 220.696694 474.607558 
L 220.696694 472.638808 
L 224.559194 472.638808 
L 224.559194 473.527871 
z
M 228.294545 476.037245 
L 230.564858 476.037245 
Q 230.886733 476.037245 231.130483 475.885683 
Q 231.375795 475.734121 231.508608 475.455996 
Q 231.642983 475.17787 231.642983 474.816933 
L 231.642983 474.816933 
Q 231.642983 474.451308 231.508608 474.173183 
Q 231.375795 473.893496 231.130483 473.74037 
Q 230.886733 473.585683 230.564858 473.585683 
L 228.294545 473.585683 
L 228.294545 472.638808 
L 230.530483 472.638808 
Q 231.164858 472.638808 231.64767 472.910683 
Q 232.132045 473.180995 232.39767 473.674746 
Q 232.664858 474.166933 232.664858 474.816933 
L 232.664858 474.816933 
Q 232.664858 475.466933 232.39767 475.957558 
Q 232.132045 476.448183 231.64767 476.716933 
Q 231.164858 476.984121 230.530483 476.984121 
L 228.294545 476.984121 
L 228.294545 476.037245 
z
M 227.782045 472.638808 
L 228.777358 472.638808 
L 228.777358 479.738808 
L 227.782045 479.738808 
L 227.782045 472.638808 
z
M 233.909194 474.670058 
L 234.906069 474.670058 
L 234.906069 479.738808 
L 233.909194 479.738808 
L 233.909194 474.670058 
z
M 236.696694 475.871621 
Q 236.565444 475.710683 236.365444 475.627871 
Q 236.165444 475.545058 235.901381 475.545058 
Q 235.427944 475.545058 235.167006 475.805995 
Q 234.906069 476.066933 234.906069 476.530996 
L 234.802944 475.554433 
Q 235.037319 475.099745 235.407631 474.848183 
Q 235.779506 474.596621 236.227944 474.596621 
Q 236.574819 474.596621 236.856069 474.69662 
Q 237.137319 474.796621 237.346694 474.991933 
L 236.696694 475.871621 
z
M 240.120522 479.812246 
Q 239.461147 479.812246 238.992397 479.554433 
Q 238.523647 479.295058 238.276772 478.799746 
Q 238.029897 478.30287 238.029897 477.604433 
L 238.029897 476.779433 
Q 238.029897 476.091933 238.276772 475.601308 
Q 238.523647 475.109121 238.992397 474.85287 
Q 239.461147 474.596621 240.120522 474.596621 
Q 240.779897 474.596621 241.248647 474.85287 
Q 241.717397 475.109121 241.962709 475.601308 
Q 242.209584 476.091933 242.209584 476.779433 
L 242.209584 477.620058 
Q 242.209584 478.312246 241.962709 478.804433 
Q 241.717397 479.295058 241.248647 479.554433 
Q 240.779897 479.812246 240.120522 479.812246 
z
M 240.120522 478.86537 
Q 240.642397 478.86537 240.928334 478.538808 
Q 241.214272 478.210683 241.214272 477.620058 
L 241.214272 476.779433 
Q 241.214272 476.188808 240.928334 475.866933 
Q 240.642397 475.545058 240.120522 475.545058 
Q 239.597084 475.545058 239.311147 475.866933 
Q 239.026772 476.188808 239.026772 476.779433 
L 239.026772 477.620058 
Q 239.026772 478.210683 239.311147 478.538808 
Q 239.597084 478.86537 240.120522 478.86537 
z
" style="fill: #ffffff; stroke: #000000"/>
    <path d="M 213.171889 472.638808 
L 214.021889 472.638808 
L 216.639077 479.738808 
L 215.564077 479.738808 
L 213.596889 474.010683 
L 211.629702 479.738808 
L 210.554702 479.738808 
L 213.171889 472.638808 
z
M 211.760952 477.234121 
L 215.496889 477.234121 
L 215.496889 478.180995 
L 211.760952 478.180995 
L 211.760952 477.234121 
z
M 219.280873 479.738808 
L 218.283998 479.738808 
L 218.283998 473.723183 
L 217.273061 474.343496 
L 217.273061 473.312246 
L 218.283998 472.638808 
L 219.280873 472.638808 
L 219.280873 479.738808 
z
M 224.559194 473.527871 
L 222.723256 479.738808 
L 221.663881 479.738808 
L 223.499819 473.585683 
L 221.692006 473.585683 
L 221.692006 474.607558 
L 220.696694 474.607558 
L 220.696694 472.638808 
L 224.559194 472.638808 
L 224.559194 473.527871 
z
M 228.294545 476.037245 
L 230.564858 476.037245 
Q 230.886733 476.037245 231.130483 475.885683 
Q 231.375795 475.734121 231.508608 475.455996 
Q 231.642983 475.17787 231.642983 474.816933 
L 231.642983 474.816933 
Q 231.642983 474.451308 231.508608 474.173183 
Q 231.375795 473.893496 231.130483 473.74037 
Q 230.886733 473.585683 230.564858 473.585683 
L 228.294545 473.585683 
L 228.294545 472.638808 
L 230.530483 472.638808 
Q 231.164858 472.638808 231.64767 472.910683 
Q 232.132045 473.180995 232.39767 473.674746 
Q 232.664858 474.166933 232.664858 474.816933 
L 232.664858 474.816933 
Q 232.664858 475.466933 232.39767 475.957558 
Q 232.132045 476.448183 231.64767 476.716933 
Q 231.164858 476.984121 230.530483 476.984121 
L 228.294545 476.984121 
L 228.294545 476.037245 
z
M 227.782045 472.638808 
L 228.777358 472.638808 
L 228.777358 479.738808 
L 227.782045 479.738808 
L 227.782045 472.638808 
z
M 233.909194 474.670058 
L 234.906069 474.670058 
L 234.906069 479.738808 
L 233.909194 479.738808 
L 233.909194 474.670058 
z
M 236.696694 475.871621 
Q 236.565444 475.710683 236.365444 475.627871 
Q 236.165444 475.545058 235.901381 475.545058 
Q 235.427944 475.545058 235.167006 475.805995 
Q 234.906069 476.066933 234.906069 476.530996 
L 234.802944 475.554433 
Q 235.037319 475.099745 235.407631 474.848183 
Q 235.779506 474.596621 236.227944 474.596621 
Q 236.574819 474.596621 236.856069 474.69662 
Q 237.137319 474.796621 237.346694 474.991933 
L 236.696694 475.871621 
z
M 240.120522 479.812246 
Q 239.461147 479.812246 238.992397 479.554433 
Q 238.523647 479.295058 238.276772 478.799746 
Q 238.029897 478.30287 238.029897 477.604433 
L 238.029897 476.779433 
Q 238.029897 476.091933 238.276772 475.601308 
Q 238.523647 475.109121 238.992397 474.85287 
Q 239.461147 474.596621 240.120522 474.596621 
Q 240.779897 474.596621 241.248647 474.85287 
Q 241.717397 475.109121 241.962709 475.601308 
Q 242.209584 476.091933 242.209584 476.779433 
L 242.209584 477.620058 
Q 242.209584 478.312246 241.962709 478.804433 
Q 241.717397 479.295058 241.248647 479.554433 
Q 240.779897 479.812246 240.120522 479.812246 
z
M 240.120522 478.86537 
Q 240.642397 478.86537 240.928334 478.538808 
Q 241.214272 478.210683 241.214272 477.620058 
L 241.214272 476.779433 
Q 241.214272 476.188808 240.928334 475.866933 
Q 240.642397 475.545058 240.120522 475.545058 
Q 239.597084 475.545058 239.311147 475.866933 
Q 239.026772 476.188808 239.026772 476.779433 
L 239.026772 477.620058 
Q 239.026772 478.210683 239.311147 478.538808 
Q 239.597084 478.86537 240.120522 478.86537 
z
" style="fill: #ffffff"/>
   </g>
  </g>
 </g>
 <defs>
  <clipPath id="p08dd71d0b3">
   <rect x="144" y="77.76" width="892.8" height="498.96"/>
  </clipPath>
 </defs>
</svg>
