<?xml version="1.0" encoding="utf-8" standalone="no"?>
<!DOCTYPE svg PUBLIC "-//W3C//DTD SVG 1.1//EN"
  "http://www.w3.org/Graphics/SVG/1.1/DTD/svg11.dtd">
<svg xmlns:xlink="http://www.w3.org/1999/xlink" width="1152pt" height="648pt" viewBox="0 0 1152 648" xmlns="http://www.w3.org/2000/svg" version="1.1">
 <metadata>
  <rdf:RDF xmlns:dc="http://purl.org/dc/elements/1.1/" xmlns:cc="http://creativecommons.org/ns#" xmlns:rdf="http://www.w3.org/1999/02/22-rdf-syntax-ns#">
   <cc:Work>
    <dc:type rdf:resource="http://purl.org/dc/dcmitype/StillImage"/>
    <dc:date>2025-12-29T11:48:01.158098</dc:date>
    <dc:format>image/svg+xml</dc:format>
    <dc:creator>
     <cc:Agent>
      <dc:title>Matplotlib v3.10.3, https://matplotlib.org/</dc:title>
     </cc:Agent>
    </dc:creator>
   </cc:Work>
  </rdf:RDF>
 </metadata>
 <defs>
  <style type="text/css">*{stroke-linejoin: round; stroke-linecap: butt}</style>
 </defs>
 <g id="figure_1">
  <g id="patch_1">
   <path d="M 0 648 
L 1152 648 
L 1152 0 
L 0 0 
L 0 648 
z
" style="fill: none"/>
  </g>
  <g id="axes_1">
   <g id="line2d_1">
    <path d="M 195.133091 517.406015 
L 201.724562 507.925966 
L 208.316033 498.751336 
L 214.907504 489.872295 
L 221.498975 481.279327 
L 228.090446 472.963223 
L 234.681917 464.915069 
L 241.273388 457.126241 
L 247.86486 449.588387 
L 254.456331 442.293426 
L 261.047802 435.233539 
L 267.639273 428.401154 
L 274.230744 421.788946 
L 280.822215 415.389824 
L 287.413686 409.196926 
L 294.005157 403.203609 
L 300.596628 397.403445 
L 307.188099 391.790213 
L 313.77957 386.357892 
L 320.371041 381.100654 
L 326.962512 376.012859 
L 333.553983 371.089049 
L 340.145455 366.323941 
L 346.736926 361.712422 
L 353.328397 357.249543 
L 359.919868 352.930517 
L 366.511339 348.750707 
L 373.10281 344.705629 
L 379.694281 340.790942 
L 386.285752 337.002443 
L 392.877223 333.336067 
L 399.468694 329.787878 
L 406.060165 326.354069 
L 412.651636 323.030952 
L 419.243107 319.814962 
L 425.834579 316.702645 
L 432.42605 313.690661 
L 439.017521 310.775776 
L 445.608992 307.954861 
L 452.200463 305.224887 
L 458.791934 302.582923 
L 465.383405 300.026133 
L 471.974876 297.551771 
L 478.566347 295.157181 
L 485.157818 292.839792 
L 491.749289 290.597115 
L 498.34076 288.426741 
L 504.932231 286.326341 
L 511.523702 284.293659 
L 518.115174 282.326513 
L 524.706645 280.422788 
L 531.298116 278.580442 
L 537.889587 276.797496 
L 544.481058 275.072034 
L 551.072529 273.402204 
L 557.664 271.786213 
L 564.255471 270.222324 
L 570.846942 268.708859 
L 577.438413 267.244191 
L 584.029884 265.826748 
L 590.621355 264.455007 
L 597.212826 263.127495 
L 603.804298 261.842786 
L 610.395769 260.5995 
L 616.98724 259.396301 
L 623.578711 258.231897 
L 630.170182 257.105038 
L 636.761653 256.014513 
L 643.353124 254.95915 
L 649.944595 253.937816 
L 656.536066 252.949414 
L 663.127537 251.992882 
L 669.719008 251.067193 
L 676.310479 250.171352 
L 682.90195 249.304396 
L 689.493421 248.465395 
L 696.084893 247.653447 
L 702.676364 246.86768 
L 709.267835 246.10725 
L 715.859306 245.37134 
L 722.450777 244.659159 
L 729.042248 243.969942 
L 735.633719 243.302949 
L 742.22519 242.657464 
L 748.816661 242.032792 
L 755.408132 241.428262 
L 761.999603 240.843226 
L 768.591074 240.277055 
L 775.182545 239.72914 
L 781.774017 239.198892 
L 788.365488 238.685743 
L 794.956959 238.18914 
L 801.54843 237.708551 
L 808.139901 237.243459 
L 814.731372 236.793364 
L 821.322843 236.357782 
L 827.914314 235.936246 
L 834.505785 235.528303 
L 841.097256 235.133515 
L 847.688727 234.751457 
" clip-path="url(#p2c3870a321)" style="fill: none; stroke: #6699FF; stroke-width: 3; stroke-linecap: round"/>
   </g>
   <g id="text_1">
    <path d="M 856.593707 236.471462 
Q 856.081207 236.471462 855.621832 236.374587 
Q 855.16402 236.27615 854.765582 236.080837 
Q 854.367145 235.885525 854.02027 235.591775 
L 854.02027 235.591775 
L 854.640582 234.830837 
L 854.640582 234.830837 
Q 855.046832 235.1824 855.534332 235.358962 
Q 856.023395 235.533962 856.593707 235.533962 
Q 857.365582 235.533962 857.790582 235.248025 
Q 858.215582 234.962087 858.215582 234.440212 
L 858.215582 234.435525 
Q 858.215582 234.06365 858.021832 233.846462 
Q 857.829645 233.629275 857.523395 233.524587 
Q 857.218707 233.4199 856.735895 233.330837 
Q 856.72027 233.32615 856.703082 233.32615 
Q 856.687457 233.32615 856.671832 233.321462 
L 856.598395 233.3074 
Q 855.885895 233.185525 855.43902 233.0324 
Q 854.992145 232.877712 854.674957 232.4699 
Q 854.35777 232.062087 854.35777 231.310525 
L 854.35777 231.305837 
Q 854.35777 230.646462 854.653082 230.180837 
Q 854.948395 229.71365 855.51402 229.4699 
Q 856.081207 229.224587 856.87652 229.224587 
Q 857.25777 229.224587 857.62652 229.308962 
Q 857.99527 229.391775 858.353082 229.555837 
Q 858.712457 229.718337 859.059332 229.966775 
L 859.059332 229.966775 
L 858.493707 230.758962 
L 858.493707 230.758962 
Q 858.087457 230.460525 857.684332 230.312087 
Q 857.28277 230.162087 856.87652 230.162087 
Q 856.149957 230.162087 855.746832 230.452712 
Q 855.343707 230.743337 855.343707 231.27615 
L 855.343707 231.280837 
Q 855.343707 231.646462 855.55152 231.8574 
Q 855.759332 232.066775 856.068707 232.166775 
Q 856.379645 232.266775 856.931207 232.374587 
Q 856.949957 232.379275 856.967145 232.3824 
Q 856.984332 232.383962 857.004645 232.38865 
Q 857.028082 232.393337 857.05777 232.399587 
Q 857.087457 232.404275 857.110895 232.408962 
Q 857.756207 232.540212 858.187457 232.721462 
Q 858.62027 232.90115 858.910895 233.304275 
Q 859.20152 233.7074 859.20152 234.405837 
L 859.20152 234.415212 
Q 859.20152 235.065212 858.893707 235.52615 
Q 858.585895 235.987087 858.00152 236.229275 
Q 857.418707 236.471462 856.593707 236.471462 
z
M 861.291559 235.45115 
L 862.897809 235.45115 
Q 863.683746 235.45115 864.114996 235.043337 
Q 864.547809 234.635525 864.547809 233.893337 
L 864.547809 231.802712 
Q 864.547809 231.060525 864.114996 230.652712 
Q 863.683746 230.2449 862.897809 230.2449 
L 861.291559 230.2449 
L 861.291559 229.298025 
L 862.868121 229.298025 
Q 863.722809 229.298025 864.327496 229.596462 
Q 864.933746 229.893337 865.250934 230.465212 
Q 865.568121 231.037087 865.568121 231.841775 
L 865.568121 233.854275 
Q 865.568121 234.658962 865.250934 235.230837 
Q 864.933746 235.802712 864.325934 236.10115 
Q 863.718121 236.398025 862.863434 236.398025 
L 861.291559 236.398025 
L 861.291559 235.45115 
z
M 860.618121 229.298025 
L 861.613434 229.298025 
L 861.613434 236.398025 
L 860.618121 236.398025 
L 860.618121 229.298025 
z
M 869.113434 236.471462 
Q 868.469684 236.471462 867.980621 236.227712 
Q 867.493121 235.9824 867.225934 235.535525 
Q 866.960309 235.08865 866.960309 234.498025 
L 866.960309 234.380837 
Q 866.960309 233.849587 867.225934 233.380837 
Q 867.493121 232.912087 867.936871 232.673025 
Q 867.560309 232.466775 867.333746 232.079275 
Q 867.107184 231.690212 867.107184 231.260525 
L 867.107184 231.090212 
Q 867.107184 230.533962 867.355621 230.112087 
Q 867.604059 229.68865 868.058746 229.4574 
Q 868.513434 229.224587 869.113434 229.224587 
Q 869.713434 229.224587 870.168121 229.4574 
Q 870.622809 229.68865 870.871246 230.112087 
Q 871.119684 230.533962 871.119684 231.090212 
L 871.119684 231.260525 
Q 871.119684 231.70115 870.888434 232.087087 
Q 870.657184 232.471462 870.275934 232.673025 
Q 870.724371 232.916775 870.994684 233.383962 
Q 871.266559 233.849587 871.266559 234.380837 
L 871.266559 234.498025 
Q 871.266559 235.08865 871.000934 235.535525 
Q 870.735309 235.9824 870.246246 236.227712 
Q 869.758746 236.471462 869.113434 236.471462 
z
M 869.113434 235.51365 
Q 869.460309 235.51365 869.722809 235.377712 
Q 869.986871 235.240212 870.130621 234.9949 
Q 870.275934 234.748025 870.275934 234.424587 
L 870.275934 234.3574 
Q 870.275934 234.029275 870.130621 233.783962 
Q 869.986871 233.537087 869.722809 233.40115 
Q 869.460309 233.26365 869.113434 233.26365 
Q 868.766559 233.26365 868.502496 233.40115 
Q 868.239996 233.537087 868.094684 233.785525 
Q 867.950934 234.033962 867.950934 234.362087 
L 867.950934 234.435525 
Q 867.950934 234.7574 868.094684 235.00115 
Q 868.239996 235.2449 868.502496 235.379275 
Q 868.766559 235.51365 869.113434 235.51365 
z
M 869.113434 232.305837 
Q 869.411871 232.305837 869.639996 232.177712 
Q 869.869684 232.048025 869.996246 231.808962 
Q 870.124371 231.568337 870.124371 231.255837 
L 870.124371 231.18865 
Q 870.124371 230.890212 869.996246 230.660525 
Q 869.869684 230.430837 869.639996 230.3074 
Q 869.411871 230.1824 869.113434 230.1824 
Q 868.814996 230.1824 868.585309 230.3074 
Q 868.357184 230.430837 868.229059 230.660525 
Q 868.102496 230.890212 868.102496 231.193337 
L 868.102496 231.266775 
Q 868.102496 231.573025 868.229059 231.810525 
Q 868.357184 232.048025 868.585309 232.177712 
Q 868.814996 232.305837 869.113434 232.305837 
z
M 879.367731 232.574587 
L 879.367731 233.815212 
Q 879.367731 234.605837 879.059918 235.208962 
Q 878.752106 235.812087 878.188043 236.141775 
Q 877.623981 236.471462 876.881793 236.471462 
Q 876.130231 236.471462 875.561481 236.162087 
Q 874.992731 235.85115 874.680231 235.285525 
Q 874.367731 234.718337 874.367731 233.971462 
L 874.367731 231.87615 
Q 874.367731 231.085525 874.675543 230.485525 
Q 874.983356 229.883962 875.545856 229.554275 
Q 876.109918 229.224587 876.852106 229.224587 
Q 877.463043 229.224587 877.977106 229.487087 
Q 878.492731 229.748025 878.839606 230.22615 
Q 879.186481 230.704275 879.308356 231.333962 
L 879.308356 231.333962 
L 878.230231 231.333962 
L 878.230231 231.333962 
Q 878.141168 230.977712 877.931793 230.721462 
Q 877.722418 230.465212 877.438043 230.330837 
Q 877.155231 230.196462 876.852106 230.196462 
Q 876.413043 230.196462 876.080231 230.4074 
Q 875.748981 230.616775 875.567731 230.9949 
Q 875.388043 231.373025 875.388043 231.87615 
L 875.388043 233.971462 
Q 875.388043 234.430837 875.572418 234.774587 
Q 875.758356 235.118337 876.097418 235.308962 
Q 876.438043 235.499587 876.881793 235.499587 
Q 877.320856 235.499587 877.652106 235.302712 
Q 877.984918 235.104275 878.166168 234.729275 
Q 878.347418 234.352712 878.347418 233.833962 
L 878.347418 233.52615 
L 876.906793 233.52615 
L 876.906793 232.574587 
L 879.367731 232.574587 
z
M 882.956012 236.471462 
Q 882.252887 236.471462 881.754449 236.2074 
Q 881.257574 235.943337 880.995074 235.433962 
Q 880.734137 234.923025 880.734137 234.20115 
L 880.734137 233.629275 
Q 880.734137 232.877712 880.985699 232.346462 
Q 881.237262 231.81365 881.715387 231.535525 
Q 882.195074 231.255837 882.868512 231.255837 
Q 883.502887 231.255837 883.951324 231.574587 
Q 884.401324 231.891775 884.637262 232.491775 
Q 884.874762 233.091775 884.874762 233.9324 
L 884.874762 234.26365 
L 881.457574 234.26365 
L 881.457574 233.46365 
L 883.927887 233.46365 
L 883.927887 233.46365 
Q 883.884137 232.843337 883.607574 232.499587 
Q 883.332574 232.154275 882.868512 232.154275 
Q 882.301324 232.154275 881.991949 232.52615 
Q 881.682574 232.896462 881.682574 233.57615 
L 881.682574 234.2199 
Q 881.682574 234.849587 882.013824 235.187087 
Q 882.346637 235.524587 882.956012 235.524587 
Q 883.259137 235.524587 883.556012 235.402712 
Q 883.854449 235.279275 884.088824 235.060525 
L 884.088824 235.060525 
L 884.743512 235.71365 
L 884.743512 235.71365 
Q 884.366949 236.07615 883.898199 236.274587 
Q 883.429449 236.471462 882.956012 236.471462 
z
M 886.24234 231.329275 
L 887.239215 231.329275 
L 887.239215 236.398025 
L 886.24234 236.398025 
L 886.24234 231.329275 
z
M 889.318903 233.32615 
Q 889.318903 232.790212 889.040778 232.498025 
Q 888.762653 232.204275 888.259528 232.204275 
Q 887.770465 232.204275 887.50484 232.46365 
Q 887.239215 232.721462 887.239215 233.190212 
L 887.13609 232.21365 
Q 887.370465 231.754275 887.74859 231.505837 
Q 888.126715 231.255837 888.58609 231.255837 
Q 889.41109 231.255837 889.862653 231.796462 
Q 890.314215 232.335525 890.314215 233.321462 
L 890.314215 236.398025 
L 889.318903 236.398025 
L 889.318903 233.32615 
z
M 895.471637 236.471462 
Q 894.934137 236.471462 894.515387 236.262087 
Q 894.098199 236.05115 893.837262 235.65115 
Q 893.576324 235.25115 893.488824 234.68865 
L 893.488824 234.683962 
L 894.484137 234.683962 
L 894.484137 234.68865 
Q 894.538824 235.079275 894.796637 235.296462 
Q 895.056012 235.51365 895.471637 235.51365 
Q 895.949762 235.51365 896.210699 235.1949 
Q 896.471637 234.874587 896.471637 234.293337 
L 896.471637 233.698025 
Q 896.471637 233.121462 896.210699 232.802712 
Q 895.949762 232.4824 895.471637 232.4824 
Q 895.212262 232.4824 894.973199 232.629275 
Q 894.734137 232.774587 894.552887 233.03865 
L 893.645074 233.03865 
L 893.645074 229.298025 
L 897.262262 229.298025 
L 897.262262 230.2449 
L 894.640387 230.2449 
L 894.640387 231.841775 
Q 894.826324 231.690212 895.056012 231.6074 
Q 895.285699 231.524587 895.524762 231.524587 
Q 896.140387 231.524587 896.576324 231.779275 
Q 897.013824 232.0324 897.240387 232.521462 
Q 897.468512 233.008962 897.468512 233.698025 
L 897.468512 234.293337 
Q 897.468512 234.9824 897.234137 235.471462 
Q 896.999762 235.958962 896.549762 236.215212 
Q 896.101324 236.471462 895.471637 236.471462 
z
" style="fill: #ffffff; stroke: #000000"/>
    <path d="M 856.593707 236.471462 
Q 856.081207 236.471462 855.621832 236.374587 
Q 855.16402 236.27615 854.765582 236.080837 
Q 854.367145 235.885525 854.02027 235.591775 
L 854.02027 235.591775 
L 854.640582 234.830837 
L 854.640582 234.830837 
Q 855.046832 235.1824 855.534332 235.358962 
Q 856.023395 235.533962 856.593707 235.533962 
Q 857.365582 235.533962 857.790582 235.248025 
Q 858.215582 234.962087 858.215582 234.440212 
L 858.215582 234.435525 
Q 858.215582 234.06365 858.021832 233.846462 
Q 857.829645 233.629275 857.523395 233.524587 
Q 857.218707 233.4199 856.735895 233.330837 
Q 856.72027 233.32615 856.703082 233.32615 
Q 856.687457 233.32615 856.671832 233.321462 
L 856.598395 233.3074 
Q 855.885895 233.185525 855.43902 233.0324 
Q 854.992145 232.877712 854.674957 232.4699 
Q 854.35777 232.062087 854.35777 231.310525 
L 854.35777 231.305837 
Q 854.35777 230.646462 854.653082 230.180837 
Q 854.948395 229.71365 855.51402 229.4699 
Q 856.081207 229.224587 856.87652 229.224587 
Q 857.25777 229.224587 857.62652 229.308962 
Q 857.99527 229.391775 858.353082 229.555837 
Q 858.712457 229.718337 859.059332 229.966775 
L 859.059332 229.966775 
L 858.493707 230.758962 
L 858.493707 230.758962 
Q 858.087457 230.460525 857.684332 230.312087 
Q 857.28277 230.162087 856.87652 230.162087 
Q 856.149957 230.162087 855.746832 230.452712 
Q 855.343707 230.743337 855.343707 231.27615 
L 855.343707 231.280837 
Q 855.343707 231.646462 855.55152 231.8574 
Q 855.759332 232.066775 856.068707 232.166775 
Q 856.379645 232.266775 856.931207 232.374587 
Q 856.949957 232.379275 856.967145 232.3824 
Q 856.984332 232.383962 857.004645 232.38865 
Q 857.028082 232.393337 857.05777 232.399587 
Q 857.087457 232.404275 857.110895 232.408962 
Q 857.756207 232.540212 858.187457 232.721462 
Q 858.62027 232.90115 858.910895 233.304275 
Q 859.20152 233.7074 859.20152 234.405837 
L 859.20152 234.415212 
Q 859.20152 235.065212 858.893707 235.52615 
Q 858.585895 235.987087 858.00152 236.229275 
Q 857.418707 236.471462 856.593707 236.471462 
z
M 861.291559 235.45115 
L 862.897809 235.45115 
Q 863.683746 235.45115 864.114996 235.043337 
Q 864.547809 234.635525 864.547809 233.893337 
L 864.547809 231.802712 
Q 864.547809 231.060525 864.114996 230.652712 
Q 863.683746 230.2449 862.897809 230.2449 
L 861.291559 230.2449 
L 861.291559 229.298025 
L 862.868121 229.298025 
Q 863.722809 229.298025 864.327496 229.596462 
Q 864.933746 229.893337 865.250934 230.465212 
Q 865.568121 231.037087 865.568121 231.841775 
L 865.568121 233.854275 
Q 865.568121 234.658962 865.250934 235.230837 
Q 864.933746 235.802712 864.325934 236.10115 
Q 863.718121 236.398025 862.863434 236.398025 
L 861.291559 236.398025 
L 861.291559 235.45115 
z
M 860.618121 229.298025 
L 861.613434 229.298025 
L 861.613434 236.398025 
L 860.618121 236.398025 
L 860.618121 229.298025 
z
M 869.113434 236.471462 
Q 868.469684 236.471462 867.980621 236.227712 
Q 867.493121 235.9824 867.225934 235.535525 
Q 866.960309 235.08865 866.960309 234.498025 
L 866.960309 234.380837 
Q 866.960309 233.849587 867.225934 233.380837 
Q 867.493121 232.912087 867.936871 232.673025 
Q 867.560309 232.466775 867.333746 232.079275 
Q 867.107184 231.690212 867.107184 231.260525 
L 867.107184 231.090212 
Q 867.107184 230.533962 867.355621 230.112087 
Q 867.604059 229.68865 868.058746 229.4574 
Q 868.513434 229.224587 869.113434 229.224587 
Q 869.713434 229.224587 870.168121 229.4574 
Q 870.622809 229.68865 870.871246 230.112087 
Q 871.119684 230.533962 871.119684 231.090212 
L 871.119684 231.260525 
Q 871.119684 231.70115 870.888434 232.087087 
Q 870.657184 232.471462 870.275934 232.673025 
Q 870.724371 232.916775 870.994684 233.383962 
Q 871.266559 233.849587 871.266559 234.380837 
L 871.266559 234.498025 
Q 871.266559 235.08865 871.000934 235.535525 
Q 870.735309 235.9824 870.246246 236.227712 
Q 869.758746 236.471462 869.113434 236.471462 
z
M 869.113434 235.51365 
Q 869.460309 235.51365 869.722809 235.377712 
Q 869.986871 235.240212 870.130621 234.9949 
Q 870.275934 234.748025 870.275934 234.424587 
L 870.275934 234.3574 
Q 870.275934 234.029275 870.130621 233.783962 
Q 869.986871 233.537087 869.722809 233.40115 
Q 869.460309 233.26365 869.113434 233.26365 
Q 868.766559 233.26365 868.502496 233.40115 
Q 868.239996 233.537087 868.094684 233.785525 
Q 867.950934 234.033962 867.950934 234.362087 
L 867.950934 234.435525 
Q 867.950934 234.7574 868.094684 235.00115 
Q 868.239996 235.2449 868.502496 235.379275 
Q 868.766559 235.51365 869.113434 235.51365 
z
M 869.113434 232.305837 
Q 869.411871 232.305837 869.639996 232.177712 
Q 869.869684 232.048025 869.996246 231.808962 
Q 870.124371 231.568337 870.124371 231.255837 
L 870.124371 231.18865 
Q 870.124371 230.890212 869.996246 230.660525 
Q 869.869684 230.430837 869.639996 230.3074 
Q 869.411871 230.1824 869.113434 230.1824 
Q 868.814996 230.1824 868.585309 230.3074 
Q 868.357184 230.430837 868.229059 230.660525 
Q 868.102496 230.890212 868.102496 231.193337 
L 868.102496 231.266775 
Q 868.102496 231.573025 868.229059 231.810525 
Q 868.357184 232.048025 868.585309 232.177712 
Q 868.814996 232.305837 869.113434 232.305837 
z
M 879.367731 232.574587 
L 879.367731 233.815212 
Q 879.367731 234.605837 879.059918 235.208962 
Q 878.752106 235.812087 878.188043 236.141775 
Q 877.623981 236.471462 876.881793 236.471462 
Q 876.130231 236.471462 875.561481 236.162087 
Q 874.992731 235.85115 874.680231 235.285525 
Q 874.367731 234.718337 874.367731 233.971462 
L 874.367731 231.87615 
Q 874.367731 231.085525 874.675543 230.485525 
Q 874.983356 229.883962 875.545856 229.554275 
Q 876.109918 229.224587 876.852106 229.224587 
Q 877.463043 229.224587 877.977106 229.487087 
Q 878.492731 229.748025 878.839606 230.22615 
Q 879.186481 230.704275 879.308356 231.333962 
L 879.308356 231.333962 
L 878.230231 231.333962 
L 878.230231 231.333962 
Q 878.141168 230.977712 877.931793 230.721462 
Q 877.722418 230.465212 877.438043 230.330837 
Q 877.155231 230.196462 876.852106 230.196462 
Q 876.413043 230.196462 876.080231 230.4074 
Q 875.748981 230.616775 875.567731 230.9949 
Q 875.388043 231.373025 875.388043 231.87615 
L 875.388043 233.971462 
Q 875.388043 234.430837 875.572418 234.774587 
Q 875.758356 235.118337 876.097418 235.308962 
Q 876.438043 235.499587 876.881793 235.499587 
Q 877.320856 235.499587 877.652106 235.302712 
Q 877.984918 235.104275 878.166168 234.729275 
Q 878.347418 234.352712 878.347418 233.833962 
L 878.347418 233.52615 
L 876.906793 233.52615 
L 876.906793 232.574587 
L 879.367731 232.574587 
z
M 882.956012 236.471462 
Q 882.252887 236.471462 881.754449 236.2074 
Q 881.257574 235.943337 880.995074 235.433962 
Q 880.734137 234.923025 880.734137 234.20115 
L 880.734137 233.629275 
Q 880.734137 232.877712 880.985699 232.346462 
Q 881.237262 231.81365 881.715387 231.535525 
Q 882.195074 231.255837 882.868512 231.255837 
Q 883.502887 231.255837 883.951324 231.574587 
Q 884.401324 231.891775 884.637262 232.491775 
Q 884.874762 233.091775 884.874762 233.9324 
L 884.874762 234.26365 
L 881.457574 234.26365 
L 881.457574 233.46365 
L 883.927887 233.46365 
L 883.927887 233.46365 
Q 883.884137 232.843337 883.607574 232.499587 
Q 883.332574 232.154275 882.868512 232.154275 
Q 882.301324 232.154275 881.991949 232.52615 
Q 881.682574 232.896462 881.682574 233.57615 
L 881.682574 234.2199 
Q 881.682574 234.849587 882.013824 235.187087 
Q 882.346637 235.524587 882.956012 235.524587 
Q 883.259137 235.524587 883.556012 235.402712 
Q 883.854449 235.279275 884.088824 235.060525 
L 884.088824 235.060525 
L 884.743512 235.71365 
L 884.743512 235.71365 
Q 884.366949 236.07615 883.898199 236.274587 
Q 883.429449 236.471462 882.956012 236.471462 
z
M 886.24234 231.329275 
L 887.239215 231.329275 
L 887.239215 236.398025 
L 886.24234 236.398025 
L 886.24234 231.329275 
z
M 889.318903 233.32615 
Q 889.318903 232.790212 889.040778 232.498025 
Q 888.762653 232.204275 888.259528 232.204275 
Q 887.770465 232.204275 887.50484 232.46365 
Q 887.239215 232.721462 887.239215 233.190212 
L 887.13609 232.21365 
Q 887.370465 231.754275 887.74859 231.505837 
Q 888.126715 231.255837 888.58609 231.255837 
Q 889.41109 231.255837 889.862653 231.796462 
Q 890.314215 232.335525 890.314215 233.321462 
L 890.314215 236.398025 
L 889.318903 236.398025 
L 889.318903 233.32615 
z
M 895.471637 236.471462 
Q 894.934137 236.471462 894.515387 236.262087 
Q 894.098199 236.05115 893.837262 235.65115 
Q 893.576324 235.25115 893.488824 234.68865 
L 893.488824 234.683962 
L 894.484137 234.683962 
L 894.484137 234.68865 
Q 894.538824 235.079275 894.796637 235.296462 
Q 895.056012 235.51365 895.471637 235.51365 
Q 895.949762 235.51365 896.210699 235.1949 
Q 896.471637 234.874587 896.471637 234.293337 
L 896.471637 233.698025 
Q 896.471637 233.121462 896.210699 232.802712 
Q 895.949762 232.4824 895.471637 232.4824 
Q 895.212262 232.4824 894.973199 232.629275 
Q 894.734137 232.774587 894.552887 233.03865 
L 893.645074 233.03865 
L 893.645074 229.298025 
L 897.262262 229.298025 
L 897.262262 230.2449 
L 894.640387 230.2449 
L 894.640387 231.841775 
Q 894.826324 231.690212 895.056012 231.6074 
Q 895.285699 231.524587 895.524762 231.524587 
Q 896.140387 231.524587 896.576324 231.779275 
Q 897.013824 232.0324 897.240387 232.521462 
Q 897.468512 233.008962 897.468512 233.698025 
L 897.468512 234.293337 
Q 897.468512 234.9824 897.234137 235.471462 
Q 896.999762 235.958962 896.549762 236.215212 
Q 896.101324 236.471462 895.471637 236.471462 
z
" style="fill: #ffffff"/>
   </g>
  </g>
 </g>
 <defs>
  <clipPath id="p2c3870a321">
   <rect x="144" y="77.76" width="892.8" height="498.96"/>
  </clipPath>
 </defs>
</svg>
