<?xml version="1.0" encoding="utf-8" standalone="no"?>
<!DOCTYPE svg PUBLIC "-//W3C//DTD SVG 1.1//EN"
  "http://www.w3.org/Graphics/SVG/1.1/DTD/svg11.dtd">
<svg xmlns:xlink="http://www.w3.org/1999/xlink" width="1152pt" height="648pt" viewBox="0 0 1152 648" xmlns="http://www.w3.org/2000/svg" version="1.1">
 <metadata>
  <rdf:RDF xmlns:dc="http://purl.org/dc/elements/1.1/" xmlns:cc="http://creativecommons.org/ns#" xmlns:rdf="http://www.w3.org/1999/02/22-rdf-syntax-ns#">
   <cc:Work>
    <dc:type rdf:resource="http://purl.org/dc/dcmitype/StillImage"/>
    <dc:date>2025-09-19T13:20:10.355204</dc:date>
    <dc:format>image/svg+xml</dc:format>
    <dc:creator>
     <cc:Agent>
      <dc:title>Matplotlib v3.10.3, https://matplotlib.org/</dc:title>
     </cc:Agent>
    </dc:creator>
   </cc:Work>
  </rdf:RDF>
 </metadata>
 <defs>
  <style type="text/css">*{stroke-linejoin: round; stroke-linecap: butt}</style>
 </defs>
 <g id="figure_1">
  <g id="patch_1">
   <path d="M 0 648 
L 1152 648 
L 1152 0 
L 0 0 
L 0 648 
z
" style="fill: none"/>
  </g>
  <g id="axes_1">
   <g id="PathCollection_1">
    <defs>
     <path id="mc655e0eb23" d="M 0 2.738613 
C 0.726289 2.738613 1.422928 2.450055 1.936492 1.936492 
C 2.450055 1.422928 2.738613 0.726289 2.738613 0 
C 2.738613 -0.726289 2.450055 -1.422928 1.936492 -1.936492 
C 1.422928 -2.450055 0.726289 -2.738613 0 -2.738613 
C -0.726289 -2.738613 -1.422928 -2.450055 -1.936492 -1.936492 
C -2.450055 -1.422928 -2.738613 -0.726289 -2.738613 0 
C -2.738613 0.726289 -2.450055 1.422928 -1.936492 1.936492 
C -1.422928 2.450055 -0.726289 2.738613 0 2.738613 
z
" style="stroke: #ccff33"/>
    </defs>
    <g clip-path="url(#p59dd9d00b8)">
     <use xlink:href="#mc655e0eb23" x="636.663273" y="209.019744" style="fill: #ccff33; stroke: #ccff33"/>
     <use xlink:href="#mc655e0eb23" x="238.149818" y="430.990416" style="fill: #ccff33; stroke: #ccff33"/>
    </g>
   </g>
   <g id="text_1">
    <path d="M 645.368253 203.566312 
L 646.218253 203.566312 
L 648.83544 210.666312 
L 647.76044 210.666312 
L 645.793253 204.938187 
L 643.826065 210.666312 
L 642.751065 210.666312 
L 645.368253 203.566312 
z
M 643.957315 208.161625 
L 647.693253 208.161625 
L 647.693253 209.108499 
L 643.957315 209.108499 
L 643.957315 208.161625 
z
M 651.477237 210.666312 
L 650.480362 210.666312 
L 650.480362 204.650687 
L 649.469425 205.271 
L 649.469425 204.23975 
L 650.480362 203.566312 
L 651.477237 203.566312 
L 651.477237 210.666312 
z
M 655.602432 207.141312 
L 655.597745 207.316312 
Q 655.47587 207.541312 655.228995 207.646 
Q 654.98212 207.750687 654.646182 207.750687 
Q 654.13837 207.750687 653.752432 207.492874 
Q 653.366495 207.233499 653.153995 206.763187 
Q 652.941495 206.291312 652.941495 205.670999 
L 652.941495 205.666312 
Q 652.941495 204.977249 653.172745 204.48975 
Q 653.405557 204.000687 653.852432 203.747562 
Q 654.299307 203.492874 654.924307 203.492874 
Q 655.549307 203.492874 655.993057 203.75225 
Q 656.43837 204.011625 656.66962 204.505375 
Q 656.90087 204.997562 656.90087 205.691312 
L 656.90087 205.695999 
Q 656.90087 206.075687 656.802432 206.508499 
Q 656.705557 206.941312 656.52587 207.36475 
Q 656.496182 207.428812 656.466495 207.494437 
Q 656.43837 207.560062 656.403995 207.624124 
L 654.889932 210.666312 
L 653.814932 210.666312 
L 655.602432 207.141312 
z
M 654.924307 206.842874 
Q 655.393057 206.842874 655.649307 206.525687 
Q 655.905557 206.2085 655.905557 205.631937 
L 655.905557 205.62725 
Q 655.905557 205.066312 655.649307 204.758499 
Q 655.393057 204.450687 654.924307 204.450687 
Q 654.45087 204.450687 654.19462 204.758499 
Q 653.93837 205.066312 653.93837 205.631937 
L 653.93837 205.636625 
Q 653.93837 206.213187 654.19462 206.528812 
Q 654.45087 206.842874 654.924307 206.842874 
z
M 660.588565 206.96475 
L 662.858878 206.96475 
Q 663.180753 206.96475 663.424503 206.813187 
Q 663.669815 206.661625 663.802628 206.383499 
Q 663.937003 206.105375 663.937003 205.744437 
L 663.937003 205.744437 
Q 663.937003 205.378812 663.802628 205.100687 
Q 663.669815 204.820999 663.424503 204.667875 
Q 663.180753 204.513187 662.858878 204.513187 
L 660.588565 204.513187 
L 660.588565 203.566312 
L 662.824503 203.566312 
Q 663.458878 203.566312 663.94169 203.838187 
Q 664.426065 204.108499 664.69169 204.602249 
Q 664.958878 205.094437 664.958878 205.744437 
L 664.958878 205.744437 
Q 664.958878 206.394437 664.69169 206.885062 
Q 664.426065 207.375687 663.94169 207.644437 
Q 663.458878 207.911625 662.824503 207.911625 
L 660.588565 207.911625 
L 660.588565 206.96475 
z
M 660.076065 203.566312 
L 661.071378 203.566312 
L 661.071378 210.666312 
L 660.076065 210.666312 
L 660.076065 203.566312 
z
M 666.203214 205.597562 
L 667.200089 205.597562 
L 667.200089 210.666312 
L 666.203214 210.666312 
L 666.203214 205.597562 
z
M 668.990714 206.799125 
Q 668.859464 206.638187 668.659464 206.555374 
Q 668.459464 206.472562 668.195401 206.472562 
Q 667.721964 206.472562 667.461026 206.733499 
Q 667.200089 206.994437 667.200089 207.4585 
L 667.096964 206.481937 
Q 667.331339 206.02725 667.701651 205.775687 
Q 668.073526 205.524124 668.521964 205.524124 
Q 668.868839 205.524124 669.150089 205.624124 
Q 669.431339 205.724125 669.640714 205.919437 
L 668.990714 206.799125 
z
M 672.414542 210.73975 
Q 671.755167 210.73975 671.286417 210.481937 
Q 670.817667 210.222562 670.570792 209.727249 
Q 670.323917 209.230375 670.323917 208.531937 
L 670.323917 207.706937 
Q 670.323917 207.019437 670.570792 206.528812 
Q 670.817667 206.036625 671.286417 205.780374 
Q 671.755167 205.524124 672.414542 205.524124 
Q 673.073917 205.524124 673.542667 205.780374 
Q 674.011417 206.036625 674.256729 206.528812 
Q 674.503604 207.019437 674.503604 207.706937 
L 674.503604 208.547562 
Q 674.503604 209.23975 674.256729 209.731937 
Q 674.011417 210.222562 673.542667 210.481937 
Q 673.073917 210.73975 672.414542 210.73975 
z
M 672.414542 209.792875 
Q 672.936417 209.792875 673.222354 209.466312 
Q 673.508292 209.138187 673.508292 208.547562 
L 673.508292 207.706937 
Q 673.508292 207.116312 673.222354 206.794437 
Q 672.936417 206.472562 672.414542 206.472562 
Q 671.891104 206.472562 671.605167 206.794437 
Q 671.320792 207.116312 671.320792 207.706937 
L 671.320792 208.547562 
Q 671.320792 209.138187 671.605167 209.466312 
Q 671.891104 209.792875 672.414542 209.792875 
z
" style="fill: #ffffff; stroke: #000000"/>
    <path d="M 645.368253 203.566312 
L 646.218253 203.566312 
L 648.83544 210.666312 
L 647.76044 210.666312 
L 645.793253 204.938187 
L 643.826065 210.666312 
L 642.751065 210.666312 
L 645.368253 203.566312 
z
M 643.957315 208.161625 
L 647.693253 208.161625 
L 647.693253 209.108499 
L 643.957315 209.108499 
L 643.957315 208.161625 
z
M 651.477237 210.666312 
L 650.480362 210.666312 
L 650.480362 204.650687 
L 649.469425 205.271 
L 649.469425 204.23975 
L 650.480362 203.566312 
L 651.477237 203.566312 
L 651.477237 210.666312 
z
M 655.602432 207.141312 
L 655.597745 207.316312 
Q 655.47587 207.541312 655.228995 207.646 
Q 654.98212 207.750687 654.646182 207.750687 
Q 654.13837 207.750687 653.752432 207.492874 
Q 653.366495 207.233499 653.153995 206.763187 
Q 652.941495 206.291312 652.941495 205.670999 
L 652.941495 205.666312 
Q 652.941495 204.977249 653.172745 204.48975 
Q 653.405557 204.000687 653.852432 203.747562 
Q 654.299307 203.492874 654.924307 203.492874 
Q 655.549307 203.492874 655.993057 203.75225 
Q 656.43837 204.011625 656.66962 204.505375 
Q 656.90087 204.997562 656.90087 205.691312 
L 656.90087 205.695999 
Q 656.90087 206.075687 656.802432 206.508499 
Q 656.705557 206.941312 656.52587 207.36475 
Q 656.496182 207.428812 656.466495 207.494437 
Q 656.43837 207.560062 656.403995 207.624124 
L 654.889932 210.666312 
L 653.814932 210.666312 
L 655.602432 207.141312 
z
M 654.924307 206.842874 
Q 655.393057 206.842874 655.649307 206.525687 
Q 655.905557 206.2085 655.905557 205.631937 
L 655.905557 205.62725 
Q 655.905557 205.066312 655.649307 204.758499 
Q 655.393057 204.450687 654.924307 204.450687 
Q 654.45087 204.450687 654.19462 204.758499 
Q 653.93837 205.066312 653.93837 205.631937 
L 653.93837 205.636625 
Q 653.93837 206.213187 654.19462 206.528812 
Q 654.45087 206.842874 654.924307 206.842874 
z
M 660.588565 206.96475 
L 662.858878 206.96475 
Q 663.180753 206.96475 663.424503 206.813187 
Q 663.669815 206.661625 663.802628 206.383499 
Q 663.937003 206.105375 663.937003 205.744437 
L 663.937003 205.744437 
Q 663.937003 205.378812 663.802628 205.100687 
Q 663.669815 204.820999 663.424503 204.667875 
Q 663.180753 204.513187 662.858878 204.513187 
L 660.588565 204.513187 
L 660.588565 203.566312 
L 662.824503 203.566312 
Q 663.458878 203.566312 663.94169 203.838187 
Q 664.426065 204.108499 664.69169 204.602249 
Q 664.958878 205.094437 664.958878 205.744437 
L 664.958878 205.744437 
Q 664.958878 206.394437 664.69169 206.885062 
Q 664.426065 207.375687 663.94169 207.644437 
Q 663.458878 207.911625 662.824503 207.911625 
L 660.588565 207.911625 
L 660.588565 206.96475 
z
M 660.076065 203.566312 
L 661.071378 203.566312 
L 661.071378 210.666312 
L 660.076065 210.666312 
L 660.076065 203.566312 
z
M 666.203214 205.597562 
L 667.200089 205.597562 
L 667.200089 210.666312 
L 666.203214 210.666312 
L 666.203214 205.597562 
z
M 668.990714 206.799125 
Q 668.859464 206.638187 668.659464 206.555374 
Q 668.459464 206.472562 668.195401 206.472562 
Q 667.721964 206.472562 667.461026 206.733499 
Q 667.200089 206.994437 667.200089 207.4585 
L 667.096964 206.481937 
Q 667.331339 206.02725 667.701651 205.775687 
Q 668.073526 205.524124 668.521964 205.524124 
Q 668.868839 205.524124 669.150089 205.624124 
Q 669.431339 205.724125 669.640714 205.919437 
L 668.990714 206.799125 
z
M 672.414542 210.73975 
Q 671.755167 210.73975 671.286417 210.481937 
Q 670.817667 210.222562 670.570792 209.727249 
Q 670.323917 209.230375 670.323917 208.531937 
L 670.323917 207.706937 
Q 670.323917 207.019437 670.570792 206.528812 
Q 670.817667 206.036625 671.286417 205.780374 
Q 671.755167 205.524124 672.414542 205.524124 
Q 673.073917 205.524124 673.542667 205.780374 
Q 674.011417 206.036625 674.256729 206.528812 
Q 674.503604 207.019437 674.503604 207.706937 
L 674.503604 208.547562 
Q 674.503604 209.23975 674.256729 209.731937 
Q 674.011417 210.222562 673.542667 210.481937 
Q 673.073917 210.73975 672.414542 210.73975 
z
M 672.414542 209.792875 
Q 672.936417 209.792875 673.222354 209.466312 
Q 673.508292 209.138187 673.508292 208.547562 
L 673.508292 207.706937 
Q 673.508292 207.116312 673.222354 206.794437 
Q 672.936417 206.472562 672.414542 206.472562 
Q 671.891104 206.472562 671.605167 206.794437 
Q 671.320792 207.116312 671.320792 207.706937 
L 671.320792 208.547562 
Q 671.320792 209.138187 671.605167 209.466312 
Q 671.891104 209.792875 672.414542 209.792875 
z
" style="fill: #ffffff"/>
   </g>
   <g id="text_2">
    <path d="M 246.854798 425.536984 
L 247.704798 425.536984 
L 250.321986 432.636984 
L 249.246986 432.636984 
L 247.279798 426.908859 
L 245.312611 432.636984 
L 244.237611 432.636984 
L 246.854798 425.536984 
z
M 245.443861 430.132296 
L 249.179798 430.132296 
L 249.179798 431.079171 
L 245.443861 431.079171 
L 245.443861 430.132296 
z
M 252.963783 432.636984 
L 251.966908 432.636984 
L 251.966908 426.621359 
L 250.95597 427.241671 
L 250.95597 426.210421 
L 251.966908 425.536984 
L 252.963783 425.536984 
L 252.963783 432.636984 
z
M 257.088978 429.111984 
L 257.08429 429.286984 
Q 256.962415 429.511984 256.71554 429.616671 
Q 256.468665 429.721359 256.132728 429.721359 
Q 255.624915 429.721359 255.238978 429.463547 
Q 254.85304 429.204171 254.64054 428.733859 
Q 254.42804 428.261984 254.42804 427.641671 
L 254.42804 427.636984 
Q 254.42804 426.947922 254.65929 426.460421 
Q 254.892103 425.971359 255.338978 425.718234 
Q 255.785853 425.463547 256.410853 425.463547 
Q 257.035853 425.463547 257.479603 425.722921 
Q 257.924915 425.982296 258.156165 426.476046 
Q 258.387415 426.968234 258.387415 427.661984 
L 258.387415 427.666672 
Q 258.387415 428.046359 258.288978 428.479172 
Q 258.192103 428.911984 258.012415 429.335421 
Q 257.982728 429.399484 257.95304 429.465109 
Q 257.924915 429.530734 257.89054 429.594796 
L 256.376478 432.636984 
L 255.301478 432.636984 
L 257.088978 429.111984 
z
M 256.410853 428.813546 
Q 256.879603 428.813546 257.135853 428.496359 
Q 257.392103 428.179171 257.392103 427.602609 
L 257.392103 427.597921 
Q 257.392103 427.036984 257.135853 426.729172 
Q 256.879603 426.421359 256.410853 426.421359 
Q 255.937415 426.421359 255.681165 426.729172 
Q 255.424915 427.036984 255.424915 427.602609 
L 255.424915 427.607296 
Q 255.424915 428.183859 255.681165 428.499484 
Q 255.937415 428.813546 256.410853 428.813546 
z
M 262.075111 428.935421 
L 264.345423 428.935421 
Q 264.667298 428.935421 264.911048 428.783859 
Q 265.156361 428.632296 265.289173 428.354172 
Q 265.423548 428.076046 265.423548 427.715109 
L 265.423548 427.715109 
Q 265.423548 427.349484 265.289173 427.071359 
Q 265.156361 426.791672 264.911048 426.638546 
Q 264.667298 426.483859 264.345423 426.483859 
L 262.075111 426.483859 
L 262.075111 425.536984 
L 264.311048 425.536984 
Q 264.945423 425.536984 265.428236 425.808859 
Q 265.912611 426.079171 266.178236 426.572922 
Q 266.445423 427.065109 266.445423 427.715109 
L 266.445423 427.715109 
Q 266.445423 428.365109 266.178236 428.855734 
Q 265.912611 429.346359 265.428236 429.615109 
Q 264.945423 429.882296 264.311048 429.882296 
L 262.075111 429.882296 
L 262.075111 428.935421 
z
M 261.562611 425.536984 
L 262.557923 425.536984 
L 262.557923 432.636984 
L 261.562611 432.636984 
L 261.562611 425.536984 
z
M 267.689759 427.568234 
L 268.686634 427.568234 
L 268.686634 432.636984 
L 267.689759 432.636984 
L 267.689759 427.568234 
z
M 270.477259 428.769796 
Q 270.346009 428.608859 270.146009 428.526047 
Q 269.946009 428.443234 269.681947 428.443234 
Q 269.208509 428.443234 268.947572 428.704171 
Q 268.686634 428.965109 268.686634 429.429171 
L 268.583509 428.452609 
Q 268.817884 427.997921 269.188197 427.746359 
Q 269.560072 427.494797 270.008509 427.494797 
Q 270.355384 427.494797 270.636634 427.594796 
Q 270.917884 427.694796 271.127259 427.890109 
L 270.477259 428.769796 
z
M 273.901087 432.710421 
Q 273.241712 432.710421 272.772962 432.452609 
Q 272.304212 432.193234 272.057337 431.697922 
Q 271.810462 431.201046 271.810462 430.502609 
L 271.810462 429.677609 
Q 271.810462 428.990109 272.057337 428.499484 
Q 272.304212 428.007296 272.772962 427.751046 
Q 273.241712 427.494797 273.901087 427.494797 
Q 274.560462 427.494797 275.029212 427.751046 
Q 275.497962 428.007296 275.743275 428.499484 
Q 275.99015 428.990109 275.99015 429.677609 
L 275.99015 430.518234 
Q 275.99015 431.210421 275.743275 431.702609 
Q 275.497962 432.193234 275.029212 432.452609 
Q 274.560462 432.710421 273.901087 432.710421 
z
M 273.901087 431.763546 
Q 274.422962 431.763546 274.7089 431.436984 
Q 274.994837 431.108859 274.994837 430.518234 
L 274.994837 429.677609 
Q 274.994837 429.086984 274.7089 428.765109 
Q 274.422962 428.443234 273.901087 428.443234 
Q 273.37765 428.443234 273.091712 428.765109 
Q 272.807337 429.086984 272.807337 429.677609 
L 272.807337 430.518234 
Q 272.807337 431.108859 273.091712 431.436984 
Q 273.37765 431.763546 273.901087 431.763546 
z
" style="fill: #ffffff; stroke: #000000"/>
    <path d="M 246.854798 425.536984 
L 247.704798 425.536984 
L 250.321986 432.636984 
L 249.246986 432.636984 
L 247.279798 426.908859 
L 245.312611 432.636984 
L 244.237611 432.636984 
L 246.854798 425.536984 
z
M 245.443861 430.132296 
L 249.179798 430.132296 
L 249.179798 431.079171 
L 245.443861 431.079171 
L 245.443861 430.132296 
z
M 252.963783 432.636984 
L 251.966908 432.636984 
L 251.966908 426.621359 
L 250.95597 427.241671 
L 250.95597 426.210421 
L 251.966908 425.536984 
L 252.963783 425.536984 
L 252.963783 432.636984 
z
M 257.088978 429.111984 
L 257.08429 429.286984 
Q 256.962415 429.511984 256.71554 429.616671 
Q 256.468665 429.721359 256.132728 429.721359 
Q 255.624915 429.721359 255.238978 429.463547 
Q 254.85304 429.204171 254.64054 428.733859 
Q 254.42804 428.261984 254.42804 427.641671 
L 254.42804 427.636984 
Q 254.42804 426.947922 254.65929 426.460421 
Q 254.892103 425.971359 255.338978 425.718234 
Q 255.785853 425.463547 256.410853 425.463547 
Q 257.035853 425.463547 257.479603 425.722921 
Q 257.924915 425.982296 258.156165 426.476046 
Q 258.387415 426.968234 258.387415 427.661984 
L 258.387415 427.666672 
Q 258.387415 428.046359 258.288978 428.479172 
Q 258.192103 428.911984 258.012415 429.335421 
Q 257.982728 429.399484 257.95304 429.465109 
Q 257.924915 429.530734 257.89054 429.594796 
L 256.376478 432.636984 
L 255.301478 432.636984 
L 257.088978 429.111984 
z
M 256.410853 428.813546 
Q 256.879603 428.813546 257.135853 428.496359 
Q 257.392103 428.179171 257.392103 427.602609 
L 257.392103 427.597921 
Q 257.392103 427.036984 257.135853 426.729172 
Q 256.879603 426.421359 256.410853 426.421359 
Q 255.937415 426.421359 255.681165 426.729172 
Q 255.424915 427.036984 255.424915 427.602609 
L 255.424915 427.607296 
Q 255.424915 428.183859 255.681165 428.499484 
Q 255.937415 428.813546 256.410853 428.813546 
z
M 262.075111 428.935421 
L 264.345423 428.935421 
Q 264.667298 428.935421 264.911048 428.783859 
Q 265.156361 428.632296 265.289173 428.354172 
Q 265.423548 428.076046 265.423548 427.715109 
L 265.423548 427.715109 
Q 265.423548 427.349484 265.289173 427.071359 
Q 265.156361 426.791672 264.911048 426.638546 
Q 264.667298 426.483859 264.345423 426.483859 
L 262.075111 426.483859 
L 262.075111 425.536984 
L 264.311048 425.536984 
Q 264.945423 425.536984 265.428236 425.808859 
Q 265.912611 426.079171 266.178236 426.572922 
Q 266.445423 427.065109 266.445423 427.715109 
L 266.445423 427.715109 
Q 266.445423 428.365109 266.178236 428.855734 
Q 265.912611 429.346359 265.428236 429.615109 
Q 264.945423 429.882296 264.311048 429.882296 
L 262.075111 429.882296 
L 262.075111 428.935421 
z
M 261.562611 425.536984 
L 262.557923 425.536984 
L 262.557923 432.636984 
L 261.562611 432.636984 
L 261.562611 425.536984 
z
M 267.689759 427.568234 
L 268.686634 427.568234 
L 268.686634 432.636984 
L 267.689759 432.636984 
L 267.689759 427.568234 
z
M 270.477259 428.769796 
Q 270.346009 428.608859 270.146009 428.526047 
Q 269.946009 428.443234 269.681947 428.443234 
Q 269.208509 428.443234 268.947572 428.704171 
Q 268.686634 428.965109 268.686634 429.429171 
L 268.583509 428.452609 
Q 268.817884 427.997921 269.188197 427.746359 
Q 269.560072 427.494797 270.008509 427.494797 
Q 270.355384 427.494797 270.636634 427.594796 
Q 270.917884 427.694796 271.127259 427.890109 
L 270.477259 428.769796 
z
M 273.901087 432.710421 
Q 273.241712 432.710421 272.772962 432.452609 
Q 272.304212 432.193234 272.057337 431.697922 
Q 271.810462 431.201046 271.810462 430.502609 
L 271.810462 429.677609 
Q 271.810462 428.990109 272.057337 428.499484 
Q 272.304212 428.007296 272.772962 427.751046 
Q 273.241712 427.494797 273.901087 427.494797 
Q 274.560462 427.494797 275.029212 427.751046 
Q 275.497962 428.007296 275.743275 428.499484 
Q 275.99015 428.990109 275.99015 429.677609 
L 275.99015 430.518234 
Q 275.99015 431.210421 275.743275 431.702609 
Q 275.497962 432.193234 275.029212 432.452609 
Q 274.560462 432.710421 273.901087 432.710421 
z
M 273.901087 431.763546 
Q 274.422962 431.763546 274.7089 431.436984 
Q 274.994837 431.108859 274.994837 430.518234 
L 274.994837 429.677609 
Q 274.994837 429.086984 274.7089 428.765109 
Q 274.422962 428.443234 273.901087 428.443234 
Q 273.37765 428.443234 273.091712 428.765109 
Q 272.807337 429.086984 272.807337 429.677609 
L 272.807337 430.518234 
Q 272.807337 431.108859 273.091712 431.436984 
Q 273.37765 431.763546 273.901087 431.763546 
z
" style="fill: #ffffff"/>
   </g>
  </g>
 </g>
 <defs>
  <clipPath id="p59dd9d00b8">
   <rect x="144" y="77.76" width="892.8" height="498.96"/>
  </clipPath>
 </defs>
</svg>
