<?xml version="1.0" encoding="utf-8" standalone="no"?>
<!DOCTYPE svg PUBLIC "-//W3C//DTD SVG 1.1//EN"
  "http://www.w3.org/Graphics/SVG/1.1/DTD/svg11.dtd">
<svg xmlns:xlink="http://www.w3.org/1999/xlink" width="1152pt" height="648pt" viewBox="0 0 1152 648" xmlns="http://www.w3.org/2000/svg" version="1.1">
 <metadata>
  <rdf:RDF xmlns:dc="http://purl.org/dc/elements/1.1/" xmlns:cc="http://creativecommons.org/ns#" xmlns:rdf="http://www.w3.org/1999/02/22-rdf-syntax-ns#">
   <cc:Work>
    <dc:type rdf:resource="http://purl.org/dc/dcmitype/StillImage"/>
    <dc:date>2025-09-19T13:20:10.638507</dc:date>
    <dc:format>image/svg+xml</dc:format>
    <dc:creator>
     <cc:Agent>
      <dc:title>Matplotlib v3.10.3, https://matplotlib.org/</dc:title>
     </cc:Agent>
    </dc:creator>
   </cc:Work>
  </rdf:RDF>
 </metadata>
 <defs>
  <style type="text/css">*{stroke-linejoin: round; stroke-linecap: butt}</style>
 </defs>
 <g id="figure_1">
  <g id="patch_1">
   <path d="M 0 648 
L 1152 648 
L 1152 0 
L 0 0 
L 0 648 
z
" style="fill: none"/>
  </g>
  <g id="axes_1">
   <g id="line2d_1">
    <path d="M 203.249455 497.359817 
L 209.488397 489.440452 
L 215.727339 481.762817 
L 221.966281 474.319539 
L 228.205223 467.103472 
L 234.444165 460.107684 
L 240.683107 453.325457 
L 246.92205 446.750277 
L 253.160992 440.375826 
L 259.399934 434.195983 
L 265.638876 428.204808 
L 271.877818 422.396547 
L 278.11676 416.765618 
L 284.355702 411.306611 
L 290.594645 406.014279 
L 296.833587 400.883537 
L 303.072529 395.909454 
L 309.311471 391.087249 
L 315.550413 386.412287 
L 321.789355 381.880075 
L 328.028298 377.486255 
L 334.26724 373.226604 
L 340.506182 369.097028 
L 346.745124 365.093555 
L 352.984066 361.212336 
L 359.223008 357.449641 
L 365.46195 353.801851 
L 371.700893 350.265458 
L 377.939835 346.837062 
L 384.178777 343.513367 
L 390.417719 340.291175 
L 396.656661 337.167388 
L 402.895603 334.139002 
L 409.134545 331.203105 
L 415.373488 328.356872 
L 421.61243 325.597566 
L 427.851372 322.922533 
L 434.090314 320.3292 
L 440.329256 317.815072 
L 446.568198 315.377731 
L 452.80714 313.014833 
L 459.046083 310.724104 
L 465.285025 308.50334 
L 471.523967 306.350406 
L 477.762909 304.263229 
L 484.001851 302.239803 
L 490.240793 300.27818 
L 496.479736 298.376473 
L 502.718678 296.532852 
L 508.95762 294.745543 
L 515.196562 293.012827 
L 521.435504 291.333037 
L 527.674446 289.704555 
L 533.913388 288.125817 
L 540.152331 286.595301 
L 546.391273 285.111535 
L 552.630215 283.673093 
L 558.869157 282.278588 
L 565.108099 280.92668 
L 571.347041 279.616068 
L 577.585983 278.34549 
L 583.824926 277.113724 
L 590.063868 275.919583 
L 596.30281 274.76192 
L 602.541752 273.63962 
L 608.780694 272.551602 
L 615.019636 271.49682 
L 621.258579 270.474259 
L 627.497521 269.482934 
L 633.736463 268.521891 
L 639.975405 267.590206 
L 646.214347 266.686981 
L 652.453289 265.811348 
L 658.692231 264.962463 
L 664.931174 264.13951 
L 671.170116 263.341697 
L 677.409058 262.568255 
L 683.648 261.81844 
L 689.886942 261.091531 
L 696.125884 260.386827 
L 702.364826 259.703651 
L 708.603769 259.041345 
L 714.842711 258.399271 
L 721.081653 257.776812 
L 727.320595 257.173368 
L 733.559537 256.588358 
L 739.798479 256.02122 
L 746.037421 255.471407 
L 752.276364 254.93839 
L 758.515306 254.421656 
L 764.754248 253.920708 
L 770.99319 253.435064 
L 777.232132 252.964255 
L 783.471074 252.507829 
L 789.710017 252.065347 
L 795.948959 251.636382 
L 802.187901 251.220521 
L 808.426843 250.817365 
L 814.665785 250.426525 
L 820.904727 250.047625 
" clip-path="url(#p317722384a)" style="fill: none; stroke: #79caf2; stroke-width: 3; stroke-linecap: round"/>
   </g>
   <g id="text_1">
    <path d="M 829.809707 251.76763 
Q 829.297207 251.76763 828.837832 251.670755 
Q 828.38002 251.572318 827.981582 251.377005 
Q 827.583145 251.181693 827.23627 250.887943 
L 827.23627 250.887943 
L 827.856582 250.127005 
L 827.856582 250.127005 
Q 828.262832 250.478568 828.750332 250.65513 
Q 829.239395 250.83013 829.809707 250.83013 
Q 830.581582 250.83013 831.006582 250.544193 
Q 831.431582 250.258255 831.431582 249.73638 
L 831.431582 249.731693 
Q 831.431582 249.359818 831.237832 249.14263 
Q 831.045645 248.925443 830.739395 248.820755 
Q 830.434707 248.716068 829.951895 248.627005 
Q 829.93627 248.622318 829.919082 248.622318 
Q 829.903457 248.622318 829.887832 248.61763 
L 829.814395 248.603568 
Q 829.101895 248.481693 828.65502 248.328568 
Q 828.208145 248.17388 827.890957 247.766068 
Q 827.57377 247.358255 827.57377 246.606693 
L 827.57377 246.602005 
Q 827.57377 245.94263 827.869082 245.477005 
Q 828.164395 245.009818 828.73002 244.766068 
Q 829.297207 244.520755 830.09252 244.520755 
Q 830.47377 244.520755 830.84252 244.60513 
Q 831.21127 244.687943 831.569082 244.852005 
Q 831.928457 245.014505 832.275332 245.262943 
L 832.275332 245.262943 
L 831.709707 246.05513 
L 831.709707 246.05513 
Q 831.303457 245.756693 830.900332 245.608255 
Q 830.49877 245.458255 830.09252 245.458255 
Q 829.365957 245.458255 828.962832 245.74888 
Q 828.559707 246.039505 828.559707 246.572318 
L 828.559707 246.577005 
Q 828.559707 246.94263 828.76752 247.153568 
Q 828.975332 247.362943 829.284707 247.462943 
Q 829.595645 247.562943 830.147207 247.670755 
Q 830.165957 247.675443 830.183145 247.678568 
Q 830.200332 247.68013 830.220645 247.684818 
Q 830.244082 247.689505 830.27377 247.695755 
Q 830.303457 247.700443 830.326895 247.70513 
Q 830.972207 247.83638 831.403457 248.01763 
Q 831.83627 248.197318 832.126895 248.600443 
Q 832.41752 249.003568 832.41752 249.702005 
L 832.41752 249.71138 
Q 832.41752 250.36138 832.109707 250.822318 
Q 831.801895 251.283255 831.21752 251.525443 
Q 830.634707 251.76763 829.809707 251.76763 
z
M 834.507559 250.747318 
L 836.113809 250.747318 
Q 836.899746 250.747318 837.330996 250.339505 
Q 837.763809 249.931693 837.763809 249.189505 
L 837.763809 247.09888 
Q 837.763809 246.356693 837.330996 245.94888 
Q 836.899746 245.541068 836.113809 245.541068 
L 834.507559 245.541068 
L 834.507559 244.594193 
L 836.084121 244.594193 
Q 836.938809 244.594193 837.543496 244.89263 
Q 838.149746 245.189505 838.466934 245.76138 
Q 838.784121 246.333255 838.784121 247.137943 
L 838.784121 249.150443 
Q 838.784121 249.95513 838.466934 250.527005 
Q 838.149746 251.09888 837.541934 251.397318 
Q 836.934121 251.694193 836.079434 251.694193 
L 834.507559 251.694193 
L 834.507559 250.747318 
z
M 833.834121 244.594193 
L 834.829434 244.594193 
L 834.829434 251.694193 
L 833.834121 251.694193 
L 833.834121 244.594193 
z
M 842.329434 251.76763 
Q 841.685684 251.76763 841.196621 251.52388 
Q 840.709121 251.278568 840.441934 250.831693 
Q 840.176309 250.384818 840.176309 249.794193 
L 840.176309 249.677005 
Q 840.176309 249.145755 840.441934 248.677005 
Q 840.709121 248.208255 841.152871 247.969193 
Q 840.776309 247.762943 840.549746 247.375443 
Q 840.323184 246.98638 840.323184 246.556693 
L 840.323184 246.38638 
Q 840.323184 245.83013 840.571621 245.408255 
Q 840.820059 244.984818 841.274746 244.753568 
Q 841.729434 244.520755 842.329434 244.520755 
Q 842.929434 244.520755 843.384121 244.753568 
Q 843.838809 244.984818 844.087246 245.408255 
Q 844.335684 245.83013 844.335684 246.38638 
L 844.335684 246.556693 
Q 844.335684 246.997318 844.104434 247.383255 
Q 843.873184 247.76763 843.491934 247.969193 
Q 843.940371 248.212943 844.210684 248.68013 
Q 844.482559 249.145755 844.482559 249.677005 
L 844.482559 249.794193 
Q 844.482559 250.384818 844.216934 250.831693 
Q 843.951309 251.278568 843.462246 251.52388 
Q 842.974746 251.76763 842.329434 251.76763 
z
M 842.329434 250.809818 
Q 842.676309 250.809818 842.938809 250.67388 
Q 843.202871 250.53638 843.346621 250.291068 
Q 843.491934 250.044193 843.491934 249.720755 
L 843.491934 249.653568 
Q 843.491934 249.325443 843.346621 249.08013 
Q 843.202871 248.833255 842.938809 248.697318 
Q 842.676309 248.559818 842.329434 248.559818 
Q 841.982559 248.559818 841.718496 248.697318 
Q 841.455996 248.833255 841.310684 249.081693 
Q 841.166934 249.33013 841.166934 249.658255 
L 841.166934 249.731693 
Q 841.166934 250.053568 841.310684 250.297318 
Q 841.455996 250.541068 841.718496 250.675443 
Q 841.982559 250.809818 842.329434 250.809818 
z
M 842.329434 247.602005 
Q 842.627871 247.602005 842.855996 247.47388 
Q 843.085684 247.344193 843.212246 247.10513 
Q 843.340371 246.864505 843.340371 246.552005 
L 843.340371 246.484818 
Q 843.340371 246.18638 843.212246 245.956693 
Q 843.085684 245.727005 842.855996 245.603568 
Q 842.627871 245.478568 842.329434 245.478568 
Q 842.030996 245.478568 841.801309 245.603568 
Q 841.573184 245.727005 841.445059 245.956693 
Q 841.318496 246.18638 841.318496 246.489505 
L 841.318496 246.562943 
Q 841.318496 246.869193 841.445059 247.106693 
Q 841.573184 247.344193 841.801309 247.47388 
Q 842.030996 247.602005 842.329434 247.602005 
z
M 847.730606 244.594193 
L 848.725918 244.594193 
L 848.725918 251.694193 
L 847.730606 251.694193 
L 847.730606 244.594193 
z
M 848.213418 250.747318 
L 852.289981 250.747318 
L 852.289981 251.694193 
L 848.213418 251.694193 
L 848.213418 250.747318 
z
M 848.213418 247.695755 
L 851.754043 247.695755 
L 851.754043 248.64263 
L 848.213418 248.64263 
L 848.213418 247.695755 
z
M 848.213418 244.594193 
L 852.289981 244.594193 
L 852.289981 245.541068 
L 848.213418 245.541068 
L 848.213418 244.594193 
z
M 854.605606 250.384818 
Q 854.605606 250.570755 854.685293 250.670755 
Q 854.766543 250.770755 854.911856 250.770755 
L 855.380606 250.770755 
L 855.380606 251.719193 
L 854.794668 251.719193 
Q 854.229043 251.719193 853.918106 251.36763 
Q 853.608731 251.016068 853.608731 250.375443 
L 853.608731 244.594193 
L 854.605606 244.594193 
L 854.605606 250.384818 
z
M 856.504239 244.594193 
L 857.501114 244.594193 
L 857.501114 245.591068 
L 856.504239 245.591068 
L 856.504239 244.594193 
z
M 856.504239 246.625443 
L 857.501114 246.625443 
L 857.501114 251.694193 
L 856.504239 251.694193 
L 856.504239 246.625443 
z
M 860.332754 251.719193 
Q 859.717129 251.719193 859.431192 251.38013 
Q 859.145254 251.039505 859.145254 250.375443 
L 859.145254 245.150443 
L 860.142129 245.150443 
L 860.142129 250.384818 
Q 860.142129 250.570755 860.215567 250.670755 
Q 860.289004 250.770755 860.429629 250.770755 
L 860.909317 250.770755 
L 860.909317 251.719193 
L 860.332754 251.719193 
z
M 858.623379 246.625443 
L 860.909317 246.625443 
L 860.909317 247.52388 
L 858.623379 247.52388 
L 858.623379 246.625443 
z
M 864.350723 251.76763 
Q 863.647598 251.76763 863.14916 251.503568 
Q 862.652285 251.239505 862.389785 250.73013 
Q 862.128848 250.219193 862.128848 249.497318 
L 862.128848 248.925443 
Q 862.128848 248.17388 862.38041 247.64263 
Q 862.631973 247.109818 863.110098 246.831693 
Q 863.589785 246.552005 864.263223 246.552005 
Q 864.897598 246.552005 865.346035 246.870755 
Q 865.796035 247.187943 866.031973 247.787943 
Q 866.269473 248.387943 866.269473 249.228568 
L 866.269473 249.559818 
L 862.852285 249.559818 
L 862.852285 248.759818 
L 865.322598 248.759818 
L 865.322598 248.759818 
Q 865.278848 248.139505 865.002285 247.795755 
Q 864.727285 247.450443 864.263223 247.450443 
Q 863.696035 247.450443 863.38666 247.822318 
Q 863.077285 248.19263 863.077285 248.872318 
L 863.077285 249.516068 
Q 863.077285 250.145755 863.408535 250.483255 
Q 863.741348 250.820755 864.350723 250.820755 
Q 864.653848 250.820755 864.950723 250.69888 
Q 865.24916 250.575443 865.483535 250.356693 
L 865.483535 250.356693 
L 866.138223 251.009818 
L 866.138223 251.009818 
Q 865.76166 251.372318 865.29291 251.570755 
Q 864.82416 251.76763 864.350723 251.76763 
z
M 871.177285 253.222318 
Q 870.308535 252.28013 869.875723 251.11138 
Q 869.444473 249.941068 869.444473 248.53013 
Q 869.444473 247.119193 869.875723 245.950443 
Q 870.308535 244.78013 871.177285 243.837943 
L 871.860098 244.458255 
Q 871.12416 245.278568 870.756973 246.294193 
Q 870.391348 247.309818 870.391348 248.53013 
Q 870.391348 249.750443 870.756973 250.766068 
Q 871.12416 251.781693 871.860098 252.606693 
L 871.177285 253.222318 
z
M 874.77084 251.76763 
Q 874.12709 251.76763 873.638028 251.52388 
Q 873.150528 251.278568 872.88334 250.831693 
Q 872.617715 250.384818 872.617715 249.794193 
L 872.617715 249.677005 
Q 872.617715 249.145755 872.88334 248.677005 
Q 873.150528 248.208255 873.594278 247.969193 
Q 873.217715 247.762943 872.991153 247.375443 
Q 872.76459 246.98638 872.76459 246.556693 
L 872.76459 246.38638 
Q 872.76459 245.83013 873.013028 245.408255 
Q 873.261465 244.984818 873.716153 244.753568 
Q 874.17084 244.520755 874.77084 244.520755 
Q 875.37084 244.520755 875.825528 244.753568 
Q 876.280215 244.984818 876.528653 245.408255 
Q 876.77709 245.83013 876.77709 246.38638 
L 876.77709 246.556693 
Q 876.77709 246.997318 876.54584 247.383255 
Q 876.31459 247.76763 875.93334 247.969193 
Q 876.381778 248.212943 876.65209 248.68013 
Q 876.923965 249.145755 876.923965 249.677005 
L 876.923965 249.794193 
Q 876.923965 250.384818 876.65834 250.831693 
Q 876.392715 251.278568 875.903653 251.52388 
Q 875.416153 251.76763 874.77084 251.76763 
z
M 874.77084 250.809818 
Q 875.117715 250.809818 875.380215 250.67388 
Q 875.644278 250.53638 875.788028 250.291068 
Q 875.93334 250.044193 875.93334 249.720755 
L 875.93334 249.653568 
Q 875.93334 249.325443 875.788028 249.08013 
Q 875.644278 248.833255 875.380215 248.697318 
Q 875.117715 248.559818 874.77084 248.559818 
Q 874.423965 248.559818 874.159903 248.697318 
Q 873.897403 248.833255 873.75209 249.081693 
Q 873.60834 249.33013 873.60834 249.658255 
L 873.60834 249.731693 
Q 873.60834 250.053568 873.75209 250.297318 
Q 873.897403 250.541068 874.159903 250.675443 
Q 874.423965 250.809818 874.77084 250.809818 
z
M 874.77084 247.602005 
Q 875.069278 247.602005 875.297403 247.47388 
Q 875.52709 247.344193 875.653653 247.10513 
Q 875.781778 246.864505 875.781778 246.552005 
L 875.781778 246.484818 
Q 875.781778 246.18638 875.653653 245.956693 
Q 875.52709 245.727005 875.297403 245.603568 
Q 875.069278 245.478568 874.77084 245.478568 
Q 874.472403 245.478568 874.242715 245.603568 
Q 874.01459 245.727005 873.886465 245.956693 
Q 873.759903 246.18638 873.759903 246.489505 
L 873.759903 246.562943 
Q 873.759903 246.869193 873.886465 247.106693 
Q 874.01459 247.344193 874.242715 247.47388 
Q 874.472403 247.602005 874.77084 247.602005 
z
M 880.298965 251.76763 
Q 879.761465 251.76763 879.342715 251.558255 
Q 878.925528 251.347318 878.66459 250.947318 
Q 878.403653 250.547318 878.316153 249.984818 
L 878.316153 249.98013 
L 879.311465 249.98013 
L 879.311465 249.984818 
Q 879.366153 250.375443 879.623965 250.59263 
Q 879.88334 250.809818 880.298965 250.809818 
Q 880.77709 250.809818 881.038028 250.491068 
Q 881.298965 250.170755 881.298965 249.589505 
L 881.298965 248.994193 
Q 881.298965 248.41763 881.038028 248.09888 
Q 880.77709 247.778568 880.298965 247.778568 
Q 880.03959 247.778568 879.800528 247.925443 
Q 879.561465 248.070755 879.380215 248.334818 
L 878.472403 248.334818 
L 878.472403 244.594193 
L 882.08959 244.594193 
L 882.08959 245.541068 
L 879.467715 245.541068 
L 879.467715 247.137943 
Q 879.653653 246.98638 879.88334 246.903568 
Q 880.113028 246.820755 880.35209 246.820755 
Q 880.967715 246.820755 881.403653 247.075443 
Q 881.841153 247.328568 882.067715 247.81763 
Q 882.29584 248.30513 882.29584 248.994193 
L 882.29584 249.589505 
Q 882.29584 250.278568 882.061465 250.76763 
Q 881.82709 251.25513 881.37709 251.51138 
Q 880.928653 251.76763 880.298965 251.76763 
z
M 885.596426 251.76763 
Q 885.001114 251.76763 884.546426 251.550443 
Q 884.091739 251.333255 883.815176 250.920755 
Q 883.540176 250.508255 883.466739 249.927005 
L 883.466739 249.927005 
L 884.482364 249.927005 
L 884.482364 249.927005 
Q 884.526114 250.228568 884.672989 250.42388 
Q 884.819864 250.619193 885.051114 250.714505 
Q 885.283926 250.809818 885.596426 250.809818 
Q 886.088614 250.809818 886.362051 250.547318 
Q 886.635489 250.283255 886.635489 249.80513 
L 886.635489 249.589505 
Q 886.635489 249.056693 886.376114 248.76763 
Q 886.118301 248.477005 885.644864 248.477005 
L 885.141739 248.477005 
L 885.141739 247.528568 
L 885.644864 247.528568 
Q 886.060489 247.528568 886.288614 247.28013 
Q 886.518301 247.031693 886.518301 246.577005 
L 886.518301 246.356693 
Q 886.518301 245.937943 886.276114 245.708255 
Q 886.035489 245.478568 885.591739 245.478568 
Q 885.337051 245.478568 885.137051 245.57388 
Q 884.937051 245.669193 884.797989 245.86763 
Q 884.658926 246.064505 884.594864 246.36138 
L 884.594864 246.36138 
L 883.583926 246.36138 
L 883.583926 246.36138 
Q 883.682364 245.781693 883.952676 245.366068 
Q 884.224551 244.950443 884.638614 244.73638 
Q 885.054239 244.520755 885.591739 244.520755 
Q 886.508926 244.520755 887.012051 245.00513 
Q 887.515176 245.487943 887.515176 246.36763 
L 887.515176 246.484818 
Q 887.515176 247.016068 887.226114 247.41138 
Q 886.938614 247.806693 886.412051 247.987943 
Q 886.993301 248.114505 887.312051 248.559818 
Q 887.632364 249.003568 887.632364 249.69263 
L 887.632364 249.809818 
Q 887.632364 250.43013 887.393301 250.869193 
Q 887.154239 251.308255 886.696426 251.537943 
Q 886.240176 251.76763 885.596426 251.76763 
z
M 890.884512 251.76763 
Q 890.289199 251.76763 889.834512 251.550443 
Q 889.379824 251.333255 889.103262 250.920755 
Q 888.828262 250.508255 888.754824 249.927005 
L 888.754824 249.927005 
L 889.770449 249.927005 
L 889.770449 249.927005 
Q 889.814199 250.228568 889.961074 250.42388 
Q 890.107949 250.619193 890.339199 250.714505 
Q 890.572012 250.809818 890.884512 250.809818 
Q 891.376699 250.809818 891.650137 250.547318 
Q 891.923574 250.283255 891.923574 249.80513 
L 891.923574 249.589505 
Q 891.923574 249.056693 891.664199 248.76763 
Q 891.406387 248.477005 890.932949 248.477005 
L 890.429824 248.477005 
L 890.429824 247.528568 
L 890.932949 247.528568 
Q 891.348574 247.528568 891.576699 247.28013 
Q 891.806387 247.031693 891.806387 246.577005 
L 891.806387 246.356693 
Q 891.806387 245.937943 891.564199 245.708255 
Q 891.323574 245.478568 890.879824 245.478568 
Q 890.625137 245.478568 890.425137 245.57388 
Q 890.225137 245.669193 890.086074 245.86763 
Q 889.947012 246.064505 889.882949 246.36138 
L 889.882949 246.36138 
L 888.872012 246.36138 
L 888.872012 246.36138 
Q 888.970449 245.781693 889.240762 245.366068 
Q 889.512637 244.950443 889.926699 244.73638 
Q 890.342324 244.520755 890.879824 244.520755 
Q 891.797012 244.520755 892.300137 245.00513 
Q 892.803262 245.487943 892.803262 246.36763 
L 892.803262 246.484818 
Q 892.803262 247.016068 892.514199 247.41138 
Q 892.226699 247.806693 891.700137 247.987943 
Q 892.281387 248.114505 892.600137 248.559818 
Q 892.920449 249.003568 892.920449 249.69263 
L 892.920449 249.809818 
Q 892.920449 250.43013 892.681387 250.869193 
Q 892.442324 251.308255 891.984512 251.537943 
Q 891.528262 251.76763 890.884512 251.76763 
z
M 893.702285 252.606693 
Q 894.438223 251.781693 894.803848 250.766068 
Q 895.171035 249.750443 895.171035 248.53013 
Q 895.171035 247.309818 894.803848 246.294193 
Q 894.438223 245.278568 893.702285 244.458255 
L 894.385098 243.837943 
Q 895.253848 244.78013 895.685098 245.950443 
Q 896.11791 247.119193 896.11791 248.53013 
Q 896.11791 249.941068 895.685098 251.11138 
Q 895.253848 252.28013 894.385098 253.222318 
L 893.702285 252.606693 
z
" style="fill: #ffffff; stroke: #000000"/>
    <path d="M 829.809707 251.76763 
Q 829.297207 251.76763 828.837832 251.670755 
Q 828.38002 251.572318 827.981582 251.377005 
Q 827.583145 251.181693 827.23627 250.887943 
L 827.23627 250.887943 
L 827.856582 250.127005 
L 827.856582 250.127005 
Q 828.262832 250.478568 828.750332 250.65513 
Q 829.239395 250.83013 829.809707 250.83013 
Q 830.581582 250.83013 831.006582 250.544193 
Q 831.431582 250.258255 831.431582 249.73638 
L 831.431582 249.731693 
Q 831.431582 249.359818 831.237832 249.14263 
Q 831.045645 248.925443 830.739395 248.820755 
Q 830.434707 248.716068 829.951895 248.627005 
Q 829.93627 248.622318 829.919082 248.622318 
Q 829.903457 248.622318 829.887832 248.61763 
L 829.814395 248.603568 
Q 829.101895 248.481693 828.65502 248.328568 
Q 828.208145 248.17388 827.890957 247.766068 
Q 827.57377 247.358255 827.57377 246.606693 
L 827.57377 246.602005 
Q 827.57377 245.94263 827.869082 245.477005 
Q 828.164395 245.009818 828.73002 244.766068 
Q 829.297207 244.520755 830.09252 244.520755 
Q 830.47377 244.520755 830.84252 244.60513 
Q 831.21127 244.687943 831.569082 244.852005 
Q 831.928457 245.014505 832.275332 245.262943 
L 832.275332 245.262943 
L 831.709707 246.05513 
L 831.709707 246.05513 
Q 831.303457 245.756693 830.900332 245.608255 
Q 830.49877 245.458255 830.09252 245.458255 
Q 829.365957 245.458255 828.962832 245.74888 
Q 828.559707 246.039505 828.559707 246.572318 
L 828.559707 246.577005 
Q 828.559707 246.94263 828.76752 247.153568 
Q 828.975332 247.362943 829.284707 247.462943 
Q 829.595645 247.562943 830.147207 247.670755 
Q 830.165957 247.675443 830.183145 247.678568 
Q 830.200332 247.68013 830.220645 247.684818 
Q 830.244082 247.689505 830.27377 247.695755 
Q 830.303457 247.700443 830.326895 247.70513 
Q 830.972207 247.83638 831.403457 248.01763 
Q 831.83627 248.197318 832.126895 248.600443 
Q 832.41752 249.003568 832.41752 249.702005 
L 832.41752 249.71138 
Q 832.41752 250.36138 832.109707 250.822318 
Q 831.801895 251.283255 831.21752 251.525443 
Q 830.634707 251.76763 829.809707 251.76763 
z
M 834.507559 250.747318 
L 836.113809 250.747318 
Q 836.899746 250.747318 837.330996 250.339505 
Q 837.763809 249.931693 837.763809 249.189505 
L 837.763809 247.09888 
Q 837.763809 246.356693 837.330996 245.94888 
Q 836.899746 245.541068 836.113809 245.541068 
L 834.507559 245.541068 
L 834.507559 244.594193 
L 836.084121 244.594193 
Q 836.938809 244.594193 837.543496 244.89263 
Q 838.149746 245.189505 838.466934 245.76138 
Q 838.784121 246.333255 838.784121 247.137943 
L 838.784121 249.150443 
Q 838.784121 249.95513 838.466934 250.527005 
Q 838.149746 251.09888 837.541934 251.397318 
Q 836.934121 251.694193 836.079434 251.694193 
L 834.507559 251.694193 
L 834.507559 250.747318 
z
M 833.834121 244.594193 
L 834.829434 244.594193 
L 834.829434 251.694193 
L 833.834121 251.694193 
L 833.834121 244.594193 
z
M 842.329434 251.76763 
Q 841.685684 251.76763 841.196621 251.52388 
Q 840.709121 251.278568 840.441934 250.831693 
Q 840.176309 250.384818 840.176309 249.794193 
L 840.176309 249.677005 
Q 840.176309 249.145755 840.441934 248.677005 
Q 840.709121 248.208255 841.152871 247.969193 
Q 840.776309 247.762943 840.549746 247.375443 
Q 840.323184 246.98638 840.323184 246.556693 
L 840.323184 246.38638 
Q 840.323184 245.83013 840.571621 245.408255 
Q 840.820059 244.984818 841.274746 244.753568 
Q 841.729434 244.520755 842.329434 244.520755 
Q 842.929434 244.520755 843.384121 244.753568 
Q 843.838809 244.984818 844.087246 245.408255 
Q 844.335684 245.83013 844.335684 246.38638 
L 844.335684 246.556693 
Q 844.335684 246.997318 844.104434 247.383255 
Q 843.873184 247.76763 843.491934 247.969193 
Q 843.940371 248.212943 844.210684 248.68013 
Q 844.482559 249.145755 844.482559 249.677005 
L 844.482559 249.794193 
Q 844.482559 250.384818 844.216934 250.831693 
Q 843.951309 251.278568 843.462246 251.52388 
Q 842.974746 251.76763 842.329434 251.76763 
z
M 842.329434 250.809818 
Q 842.676309 250.809818 842.938809 250.67388 
Q 843.202871 250.53638 843.346621 250.291068 
Q 843.491934 250.044193 843.491934 249.720755 
L 843.491934 249.653568 
Q 843.491934 249.325443 843.346621 249.08013 
Q 843.202871 248.833255 842.938809 248.697318 
Q 842.676309 248.559818 842.329434 248.559818 
Q 841.982559 248.559818 841.718496 248.697318 
Q 841.455996 248.833255 841.310684 249.081693 
Q 841.166934 249.33013 841.166934 249.658255 
L 841.166934 249.731693 
Q 841.166934 250.053568 841.310684 250.297318 
Q 841.455996 250.541068 841.718496 250.675443 
Q 841.982559 250.809818 842.329434 250.809818 
z
M 842.329434 247.602005 
Q 842.627871 247.602005 842.855996 247.47388 
Q 843.085684 247.344193 843.212246 247.10513 
Q 843.340371 246.864505 843.340371 246.552005 
L 843.340371 246.484818 
Q 843.340371 246.18638 843.212246 245.956693 
Q 843.085684 245.727005 842.855996 245.603568 
Q 842.627871 245.478568 842.329434 245.478568 
Q 842.030996 245.478568 841.801309 245.603568 
Q 841.573184 245.727005 841.445059 245.956693 
Q 841.318496 246.18638 841.318496 246.489505 
L 841.318496 246.562943 
Q 841.318496 246.869193 841.445059 247.106693 
Q 841.573184 247.344193 841.801309 247.47388 
Q 842.030996 247.602005 842.329434 247.602005 
z
M 847.730606 244.594193 
L 848.725918 244.594193 
L 848.725918 251.694193 
L 847.730606 251.694193 
L 847.730606 244.594193 
z
M 848.213418 250.747318 
L 852.289981 250.747318 
L 852.289981 251.694193 
L 848.213418 251.694193 
L 848.213418 250.747318 
z
M 848.213418 247.695755 
L 851.754043 247.695755 
L 851.754043 248.64263 
L 848.213418 248.64263 
L 848.213418 247.695755 
z
M 848.213418 244.594193 
L 852.289981 244.594193 
L 852.289981 245.541068 
L 848.213418 245.541068 
L 848.213418 244.594193 
z
M 854.605606 250.384818 
Q 854.605606 250.570755 854.685293 250.670755 
Q 854.766543 250.770755 854.911856 250.770755 
L 855.380606 250.770755 
L 855.380606 251.719193 
L 854.794668 251.719193 
Q 854.229043 251.719193 853.918106 251.36763 
Q 853.608731 251.016068 853.608731 250.375443 
L 853.608731 244.594193 
L 854.605606 244.594193 
L 854.605606 250.384818 
z
M 856.504239 244.594193 
L 857.501114 244.594193 
L 857.501114 245.591068 
L 856.504239 245.591068 
L 856.504239 244.594193 
z
M 856.504239 246.625443 
L 857.501114 246.625443 
L 857.501114 251.694193 
L 856.504239 251.694193 
L 856.504239 246.625443 
z
M 860.332754 251.719193 
Q 859.717129 251.719193 859.431192 251.38013 
Q 859.145254 251.039505 859.145254 250.375443 
L 859.145254 245.150443 
L 860.142129 245.150443 
L 860.142129 250.384818 
Q 860.142129 250.570755 860.215567 250.670755 
Q 860.289004 250.770755 860.429629 250.770755 
L 860.909317 250.770755 
L 860.909317 251.719193 
L 860.332754 251.719193 
z
M 858.623379 246.625443 
L 860.909317 246.625443 
L 860.909317 247.52388 
L 858.623379 247.52388 
L 858.623379 246.625443 
z
M 864.350723 251.76763 
Q 863.647598 251.76763 863.14916 251.503568 
Q 862.652285 251.239505 862.389785 250.73013 
Q 862.128848 250.219193 862.128848 249.497318 
L 862.128848 248.925443 
Q 862.128848 248.17388 862.38041 247.64263 
Q 862.631973 247.109818 863.110098 246.831693 
Q 863.589785 246.552005 864.263223 246.552005 
Q 864.897598 246.552005 865.346035 246.870755 
Q 865.796035 247.187943 866.031973 247.787943 
Q 866.269473 248.387943 866.269473 249.228568 
L 866.269473 249.559818 
L 862.852285 249.559818 
L 862.852285 248.759818 
L 865.322598 248.759818 
L 865.322598 248.759818 
Q 865.278848 248.139505 865.002285 247.795755 
Q 864.727285 247.450443 864.263223 247.450443 
Q 863.696035 247.450443 863.38666 247.822318 
Q 863.077285 248.19263 863.077285 248.872318 
L 863.077285 249.516068 
Q 863.077285 250.145755 863.408535 250.483255 
Q 863.741348 250.820755 864.350723 250.820755 
Q 864.653848 250.820755 864.950723 250.69888 
Q 865.24916 250.575443 865.483535 250.356693 
L 865.483535 250.356693 
L 866.138223 251.009818 
L 866.138223 251.009818 
Q 865.76166 251.372318 865.29291 251.570755 
Q 864.82416 251.76763 864.350723 251.76763 
z
M 871.177285 253.222318 
Q 870.308535 252.28013 869.875723 251.11138 
Q 869.444473 249.941068 869.444473 248.53013 
Q 869.444473 247.119193 869.875723 245.950443 
Q 870.308535 244.78013 871.177285 243.837943 
L 871.860098 244.458255 
Q 871.12416 245.278568 870.756973 246.294193 
Q 870.391348 247.309818 870.391348 248.53013 
Q 870.391348 249.750443 870.756973 250.766068 
Q 871.12416 251.781693 871.860098 252.606693 
L 871.177285 253.222318 
z
M 874.77084 251.76763 
Q 874.12709 251.76763 873.638028 251.52388 
Q 873.150528 251.278568 872.88334 250.831693 
Q 872.617715 250.384818 872.617715 249.794193 
L 872.617715 249.677005 
Q 872.617715 249.145755 872.88334 248.677005 
Q 873.150528 248.208255 873.594278 247.969193 
Q 873.217715 247.762943 872.991153 247.375443 
Q 872.76459 246.98638 872.76459 246.556693 
L 872.76459 246.38638 
Q 872.76459 245.83013 873.013028 245.408255 
Q 873.261465 244.984818 873.716153 244.753568 
Q 874.17084 244.520755 874.77084 244.520755 
Q 875.37084 244.520755 875.825528 244.753568 
Q 876.280215 244.984818 876.528653 245.408255 
Q 876.77709 245.83013 876.77709 246.38638 
L 876.77709 246.556693 
Q 876.77709 246.997318 876.54584 247.383255 
Q 876.31459 247.76763 875.93334 247.969193 
Q 876.381778 248.212943 876.65209 248.68013 
Q 876.923965 249.145755 876.923965 249.677005 
L 876.923965 249.794193 
Q 876.923965 250.384818 876.65834 250.831693 
Q 876.392715 251.278568 875.903653 251.52388 
Q 875.416153 251.76763 874.77084 251.76763 
z
M 874.77084 250.809818 
Q 875.117715 250.809818 875.380215 250.67388 
Q 875.644278 250.53638 875.788028 250.291068 
Q 875.93334 250.044193 875.93334 249.720755 
L 875.93334 249.653568 
Q 875.93334 249.325443 875.788028 249.08013 
Q 875.644278 248.833255 875.380215 248.697318 
Q 875.117715 248.559818 874.77084 248.559818 
Q 874.423965 248.559818 874.159903 248.697318 
Q 873.897403 248.833255 873.75209 249.081693 
Q 873.60834 249.33013 873.60834 249.658255 
L 873.60834 249.731693 
Q 873.60834 250.053568 873.75209 250.297318 
Q 873.897403 250.541068 874.159903 250.675443 
Q 874.423965 250.809818 874.77084 250.809818 
z
M 874.77084 247.602005 
Q 875.069278 247.602005 875.297403 247.47388 
Q 875.52709 247.344193 875.653653 247.10513 
Q 875.781778 246.864505 875.781778 246.552005 
L 875.781778 246.484818 
Q 875.781778 246.18638 875.653653 245.956693 
Q 875.52709 245.727005 875.297403 245.603568 
Q 875.069278 245.478568 874.77084 245.478568 
Q 874.472403 245.478568 874.242715 245.603568 
Q 874.01459 245.727005 873.886465 245.956693 
Q 873.759903 246.18638 873.759903 246.489505 
L 873.759903 246.562943 
Q 873.759903 246.869193 873.886465 247.106693 
Q 874.01459 247.344193 874.242715 247.47388 
Q 874.472403 247.602005 874.77084 247.602005 
z
M 880.298965 251.76763 
Q 879.761465 251.76763 879.342715 251.558255 
Q 878.925528 251.347318 878.66459 250.947318 
Q 878.403653 250.547318 878.316153 249.984818 
L 878.316153 249.98013 
L 879.311465 249.98013 
L 879.311465 249.984818 
Q 879.366153 250.375443 879.623965 250.59263 
Q 879.88334 250.809818 880.298965 250.809818 
Q 880.77709 250.809818 881.038028 250.491068 
Q 881.298965 250.170755 881.298965 249.589505 
L 881.298965 248.994193 
Q 881.298965 248.41763 881.038028 248.09888 
Q 880.77709 247.778568 880.298965 247.778568 
Q 880.03959 247.778568 879.800528 247.925443 
Q 879.561465 248.070755 879.380215 248.334818 
L 878.472403 248.334818 
L 878.472403 244.594193 
L 882.08959 244.594193 
L 882.08959 245.541068 
L 879.467715 245.541068 
L 879.467715 247.137943 
Q 879.653653 246.98638 879.88334 246.903568 
Q 880.113028 246.820755 880.35209 246.820755 
Q 880.967715 246.820755 881.403653 247.075443 
Q 881.841153 247.328568 882.067715 247.81763 
Q 882.29584 248.30513 882.29584 248.994193 
L 882.29584 249.589505 
Q 882.29584 250.278568 882.061465 250.76763 
Q 881.82709 251.25513 881.37709 251.51138 
Q 880.928653 251.76763 880.298965 251.76763 
z
M 885.596426 251.76763 
Q 885.001114 251.76763 884.546426 251.550443 
Q 884.091739 251.333255 883.815176 250.920755 
Q 883.540176 250.508255 883.466739 249.927005 
L 883.466739 249.927005 
L 884.482364 249.927005 
L 884.482364 249.927005 
Q 884.526114 250.228568 884.672989 250.42388 
Q 884.819864 250.619193 885.051114 250.714505 
Q 885.283926 250.809818 885.596426 250.809818 
Q 886.088614 250.809818 886.362051 250.547318 
Q 886.635489 250.283255 886.635489 249.80513 
L 886.635489 249.589505 
Q 886.635489 249.056693 886.376114 248.76763 
Q 886.118301 248.477005 885.644864 248.477005 
L 885.141739 248.477005 
L 885.141739 247.528568 
L 885.644864 247.528568 
Q 886.060489 247.528568 886.288614 247.28013 
Q 886.518301 247.031693 886.518301 246.577005 
L 886.518301 246.356693 
Q 886.518301 245.937943 886.276114 245.708255 
Q 886.035489 245.478568 885.591739 245.478568 
Q 885.337051 245.478568 885.137051 245.57388 
Q 884.937051 245.669193 884.797989 245.86763 
Q 884.658926 246.064505 884.594864 246.36138 
L 884.594864 246.36138 
L 883.583926 246.36138 
L 883.583926 246.36138 
Q 883.682364 245.781693 883.952676 245.366068 
Q 884.224551 244.950443 884.638614 244.73638 
Q 885.054239 244.520755 885.591739 244.520755 
Q 886.508926 244.520755 887.012051 245.00513 
Q 887.515176 245.487943 887.515176 246.36763 
L 887.515176 246.484818 
Q 887.515176 247.016068 887.226114 247.41138 
Q 886.938614 247.806693 886.412051 247.987943 
Q 886.993301 248.114505 887.312051 248.559818 
Q 887.632364 249.003568 887.632364 249.69263 
L 887.632364 249.809818 
Q 887.632364 250.43013 887.393301 250.869193 
Q 887.154239 251.308255 886.696426 251.537943 
Q 886.240176 251.76763 885.596426 251.76763 
z
M 890.884512 251.76763 
Q 890.289199 251.76763 889.834512 251.550443 
Q 889.379824 251.333255 889.103262 250.920755 
Q 888.828262 250.508255 888.754824 249.927005 
L 888.754824 249.927005 
L 889.770449 249.927005 
L 889.770449 249.927005 
Q 889.814199 250.228568 889.961074 250.42388 
Q 890.107949 250.619193 890.339199 250.714505 
Q 890.572012 250.809818 890.884512 250.809818 
Q 891.376699 250.809818 891.650137 250.547318 
Q 891.923574 250.283255 891.923574 249.80513 
L 891.923574 249.589505 
Q 891.923574 249.056693 891.664199 248.76763 
Q 891.406387 248.477005 890.932949 248.477005 
L 890.429824 248.477005 
L 890.429824 247.528568 
L 890.932949 247.528568 
Q 891.348574 247.528568 891.576699 247.28013 
Q 891.806387 247.031693 891.806387 246.577005 
L 891.806387 246.356693 
Q 891.806387 245.937943 891.564199 245.708255 
Q 891.323574 245.478568 890.879824 245.478568 
Q 890.625137 245.478568 890.425137 245.57388 
Q 890.225137 245.669193 890.086074 245.86763 
Q 889.947012 246.064505 889.882949 246.36138 
L 889.882949 246.36138 
L 888.872012 246.36138 
L 888.872012 246.36138 
Q 888.970449 245.781693 889.240762 245.366068 
Q 889.512637 244.950443 889.926699 244.73638 
Q 890.342324 244.520755 890.879824 244.520755 
Q 891.797012 244.520755 892.300137 245.00513 
Q 892.803262 245.487943 892.803262 246.36763 
L 892.803262 246.484818 
Q 892.803262 247.016068 892.514199 247.41138 
Q 892.226699 247.806693 891.700137 247.987943 
Q 892.281387 248.114505 892.600137 248.559818 
Q 892.920449 249.003568 892.920449 249.69263 
L 892.920449 249.809818 
Q 892.920449 250.43013 892.681387 250.869193 
Q 892.442324 251.308255 891.984512 251.537943 
Q 891.528262 251.76763 890.884512 251.76763 
z
M 893.702285 252.606693 
Q 894.438223 251.781693 894.803848 250.766068 
Q 895.171035 249.750443 895.171035 248.53013 
Q 895.171035 247.309818 894.803848 246.294193 
Q 894.438223 245.278568 893.702285 244.458255 
L 894.385098 243.837943 
Q 895.253848 244.78013 895.685098 245.950443 
Q 896.11791 247.119193 896.11791 248.53013 
Q 896.11791 249.941068 895.685098 251.11138 
Q 895.253848 252.28013 894.385098 253.222318 
L 893.702285 252.606693 
z
" style="fill: #ffffff"/>
   </g>
  </g>
 </g>
 <defs>
  <clipPath id="p317722384a">
   <rect x="144" y="77.76" width="892.8" height="498.96"/>
  </clipPath>
 </defs>
</svg>
