<?xml version="1.0" encoding="utf-8" standalone="no"?>
<!DOCTYPE svg PUBLIC "-//W3C//DTD SVG 1.1//EN"
  "http://www.w3.org/Graphics/SVG/1.1/DTD/svg11.dtd">
<svg xmlns:xlink="http://www.w3.org/1999/xlink" width="1152pt" height="648pt" viewBox="0 0 1152 648" xmlns="http://www.w3.org/2000/svg" version="1.1">
 <metadata>
  <rdf:RDF xmlns:dc="http://purl.org/dc/elements/1.1/" xmlns:cc="http://creativecommons.org/ns#" xmlns:rdf="http://www.w3.org/1999/02/22-rdf-syntax-ns#">
   <cc:Work>
    <dc:type rdf:resource="http://purl.org/dc/dcmitype/StillImage"/>
    <dc:date>2025-09-19T13:20:10.662668</dc:date>
    <dc:format>image/svg+xml</dc:format>
    <dc:creator>
     <cc:Agent>
      <dc:title>Matplotlib v3.10.3, https://matplotlib.org/</dc:title>
     </cc:Agent>
    </dc:creator>
   </cc:Work>
  </rdf:RDF>
 </metadata>
 <defs>
  <style type="text/css">*{stroke-linejoin: round; stroke-linecap: butt}</style>
 </defs>
 <g id="figure_1">
  <g id="patch_1">
   <path d="M 0 648 
L 1152 648 
L 1152 0 
L 0 0 
L 0 648 
z
" style="fill: none"/>
  </g>
  <g id="axes_1">
   <g id="line2d_1">
    <path d="M 205.278545 498.102572 
L 209.127669 494.036897 
L 212.976793 490.056932 
L 216.825917 486.160877 
L 220.675041 482.346967 
L 224.524165 478.613475 
L 228.373289 474.958711 
L 232.222413 471.381018 
L 236.071537 467.878776 
L 239.920661 464.450398 
L 243.769785 461.09433 
L 247.618909 457.80905 
L 251.468033 454.593068 
L 255.317157 451.444928 
L 259.166281 448.363201 
L 263.015405 445.346488 
L 266.864529 442.393422 
L 270.713653 439.502663 
L 274.562777 436.672899 
L 278.411901 433.902845 
L 282.261025 431.191245 
L 286.110149 428.536866 
L 289.959273 425.938505 
L 293.808397 423.394981 
L 297.657521 420.905139 
L 301.506645 418.467848 
L 305.355769 416.082 
L 309.204893 413.746513 
L 313.054017 411.460325 
L 316.90314 409.222397 
L 320.752264 407.031712 
L 324.601388 404.887274 
L 328.450512 402.788109 
L 332.299636 400.733262 
L 336.14876 398.721798 
L 339.997884 396.752805 
L 343.847008 394.825385 
L 347.696132 392.938663 
L 351.545256 391.09178 
L 355.39438 389.283896 
L 359.243504 387.514189 
L 363.092628 385.781853 
L 366.941752 384.086102 
L 370.790876 382.426162 
L 374.64 380.801278 
L 378.489124 379.210712 
L 382.338248 377.653739 
L 386.187372 376.12965 
L 390.036496 374.637752 
L 393.88562 373.177366 
L 397.734744 371.747826 
L 401.583868 370.348482 
L 405.432992 368.978697 
L 409.282116 367.637847 
L 413.13124 366.325321 
L 416.980364 365.040521 
L 420.829488 363.782863 
L 424.678612 362.551773 
L 428.527736 361.346692 
L 432.37686 360.167069 
L 436.225983 359.012368 
L 440.075107 357.882062 
L 443.924231 356.775636 
L 447.773355 355.692587 
L 451.622479 354.632421 
L 455.471603 353.594654 
L 459.320727 352.578814 
L 463.169851 351.584439 
L 467.018975 350.611073 
L 470.868099 349.658275 
L 474.717223 348.72561 
L 478.566347 347.812653 
L 482.415471 346.918987 
L 486.264595 346.044205 
L 490.113719 345.187908 
L 493.962843 344.349707 
L 497.811967 343.529218 
L 501.661091 342.726068 
L 505.510215 341.939891 
L 509.359339 341.170328 
L 513.208463 340.417028 
L 517.057587 339.679648 
L 520.906711 338.957851 
L 524.755835 338.251308 
L 528.604959 337.559698 
L 532.454083 336.882704 
L 536.303207 336.220018 
L 540.152331 335.571338 
L 544.001455 334.936368 
L 547.850579 334.314818 
L 551.699702 333.706404 
L 555.548826 333.11085 
L 559.39795 332.527883 
L 563.247074 331.957238 
L 567.096198 331.398654 
L 570.945322 330.851877 
L 574.794446 330.316656 
L 578.64357 329.792748 
L 582.492694 329.279914 
L 586.341818 328.77792 
" clip-path="url(#p705b220b13)" style="fill: none; stroke: #3091f2; stroke-width: 3; stroke-linecap: round"/>
   </g>
   <g id="text_1">
    <path d="M 595.246798 330.497926 
Q 594.734298 330.497926 594.274923 330.401051 
Q 593.817111 330.302613 593.418673 330.107301 
Q 593.020236 329.911988 592.673361 329.618238 
L 592.673361 329.618238 
L 593.293673 328.857301 
L 593.293673 328.857301 
Q 593.699923 329.208863 594.187423 329.385426 
Q 594.676486 329.560426 595.246798 329.560426 
Q 596.018673 329.560426 596.443673 329.274488 
Q 596.868673 328.988551 596.868673 328.466676 
L 596.868673 328.461988 
Q 596.868673 328.090113 596.674923 327.872926 
Q 596.482736 327.655738 596.176486 327.551051 
Q 595.871798 327.446363 595.388986 327.357301 
Q 595.373361 327.352613 595.356173 327.352613 
Q 595.340548 327.352613 595.324923 327.347926 
L 595.251486 327.333863 
Q 594.538986 327.211988 594.092111 327.058863 
Q 593.645236 326.904176 593.328048 326.496363 
Q 593.010861 326.088551 593.010861 325.336988 
L 593.010861 325.332301 
Q 593.010861 324.672926 593.306173 324.207301 
Q 593.601486 323.740113 594.167111 323.496363 
Q 594.734298 323.251051 595.529611 323.251051 
Q 595.910861 323.251051 596.279611 323.335426 
Q 596.648361 323.418238 597.006173 323.582301 
Q 597.365548 323.744801 597.712423 323.993238 
L 597.712423 323.993238 
L 597.146798 324.785426 
L 597.146798 324.785426 
Q 596.740548 324.486988 596.337423 324.338551 
Q 595.935861 324.188551 595.529611 324.188551 
Q 594.803048 324.188551 594.399923 324.479176 
Q 593.996798 324.769801 593.996798 325.302613 
L 593.996798 325.307301 
Q 593.996798 325.672926 594.204611 325.883863 
Q 594.412423 326.093238 594.721798 326.193238 
Q 595.032736 326.293238 595.584298 326.401051 
Q 595.603048 326.405738 595.620236 326.408863 
Q 595.637423 326.410426 595.657736 326.415113 
Q 595.681173 326.419801 595.710861 326.426051 
Q 595.740548 326.430738 595.763986 326.435426 
Q 596.409298 326.566676 596.840548 326.747926 
Q 597.273361 326.927613 597.563986 327.330738 
Q 597.854611 327.733863 597.854611 328.432301 
L 597.854611 328.441676 
Q 597.854611 329.091676 597.546798 329.552613 
Q 597.238986 330.013551 596.654611 330.255738 
Q 596.071798 330.497926 595.246798 330.497926 
z
M 599.94465 329.477613 
L 601.5509 329.477613 
Q 602.336837 329.477613 602.768087 329.069801 
Q 603.2009 328.661988 603.2009 327.919801 
L 603.2009 325.829176 
Q 603.2009 325.086988 602.768087 324.679176 
Q 602.336837 324.271363 601.5509 324.271363 
L 599.94465 324.271363 
L 599.94465 323.324488 
L 601.521212 323.324488 
Q 602.3759 323.324488 602.980587 323.622926 
Q 603.586837 323.919801 603.904025 324.491676 
Q 604.221212 325.063551 604.221212 325.868238 
L 604.221212 327.880738 
Q 604.221212 328.685426 603.904025 329.257301 
Q 603.586837 329.829176 602.979025 330.127613 
Q 602.371212 330.424488 601.516525 330.424488 
L 599.94465 330.424488 
L 599.94465 329.477613 
z
M 599.271212 323.324488 
L 600.266525 323.324488 
L 600.266525 330.424488 
L 599.271212 330.424488 
L 599.271212 323.324488 
z
M 607.766525 330.497926 
Q 607.122775 330.497926 606.633712 330.254176 
Q 606.146212 330.008863 605.879025 329.561988 
Q 605.6134 329.115113 605.6134 328.524488 
L 605.6134 328.407301 
Q 605.6134 327.876051 605.879025 327.407301 
Q 606.146212 326.938551 606.589962 326.699488 
Q 606.2134 326.493238 605.986837 326.105738 
Q 605.760275 325.716676 605.760275 325.286988 
L 605.760275 325.116676 
Q 605.760275 324.560426 606.008712 324.138551 
Q 606.25715 323.715113 606.711837 323.483863 
Q 607.166525 323.251051 607.766525 323.251051 
Q 608.366525 323.251051 608.821212 323.483863 
Q 609.2759 323.715113 609.524337 324.138551 
Q 609.772775 324.560426 609.772775 325.116676 
L 609.772775 325.286988 
Q 609.772775 325.727613 609.541525 326.113551 
Q 609.310275 326.497926 608.929025 326.699488 
Q 609.377462 326.943238 609.647775 327.410426 
Q 609.91965 327.876051 609.91965 328.407301 
L 609.91965 328.524488 
Q 609.91965 329.115113 609.654025 329.561988 
Q 609.3884 330.008863 608.899337 330.254176 
Q 608.411837 330.497926 607.766525 330.497926 
z
M 607.766525 329.540113 
Q 608.1134 329.540113 608.3759 329.404176 
Q 608.639962 329.266676 608.783712 329.021363 
Q 608.929025 328.774488 608.929025 328.451051 
L 608.929025 328.383863 
Q 608.929025 328.055738 608.783712 327.810426 
Q 608.639962 327.563551 608.3759 327.427613 
Q 608.1134 327.290113 607.766525 327.290113 
Q 607.41965 327.290113 607.155587 327.427613 
Q 606.893087 327.563551 606.747775 327.811988 
Q 606.604025 328.060426 606.604025 328.388551 
L 606.604025 328.461988 
Q 606.604025 328.783863 606.747775 329.027613 
Q 606.893087 329.271363 607.155587 329.405738 
Q 607.41965 329.540113 607.766525 329.540113 
z
M 607.766525 326.332301 
Q 608.064962 326.332301 608.293087 326.204176 
Q 608.522775 326.074488 608.649337 325.835426 
Q 608.777462 325.594801 608.777462 325.282301 
L 608.777462 325.215113 
Q 608.777462 324.916676 608.649337 324.686988 
Q 608.522775 324.457301 608.293087 324.333863 
Q 608.064962 324.208863 607.766525 324.208863 
Q 607.468087 324.208863 607.2384 324.333863 
Q 607.010275 324.457301 606.88215 324.686988 
Q 606.755587 324.916676 606.755587 325.219801 
L 606.755587 325.293238 
Q 606.755587 325.599488 606.88215 325.836988 
Q 607.010275 326.074488 607.2384 326.204176 
Q 607.468087 326.332301 607.766525 326.332301 
z
M 618.020822 326.601051 
L 618.020822 327.841676 
Q 618.020822 328.632301 617.713009 329.235426 
Q 617.405197 329.838551 616.841134 330.168238 
Q 616.277072 330.497926 615.534884 330.497926 
Q 614.783322 330.497926 614.214572 330.188551 
Q 613.645822 329.877613 613.333322 329.311988 
Q 613.020822 328.744801 613.020822 327.997926 
L 613.020822 325.902613 
Q 613.020822 325.111988 613.328634 324.511988 
Q 613.636447 323.910426 614.198947 323.580738 
Q 614.763009 323.251051 615.505197 323.251051 
Q 616.116134 323.251051 616.630197 323.513551 
Q 617.145822 323.774488 617.492697 324.252613 
Q 617.839572 324.730738 617.961447 325.360426 
L 617.961447 325.360426 
L 616.883322 325.360426 
L 616.883322 325.360426 
Q 616.794259 325.004176 616.584884 324.747926 
Q 616.375509 324.491676 616.091134 324.357301 
Q 615.808322 324.222926 615.505197 324.222926 
Q 615.066134 324.222926 614.733322 324.433863 
Q 614.402072 324.643238 614.220822 325.021363 
Q 614.041134 325.399488 614.041134 325.902613 
L 614.041134 327.997926 
Q 614.041134 328.457301 614.225509 328.801051 
Q 614.411447 329.144801 614.750509 329.335426 
Q 615.091134 329.526051 615.534884 329.526051 
Q 615.973947 329.526051 616.305197 329.329176 
Q 616.638009 329.130738 616.819259 328.755738 
Q 617.000509 328.379176 617.000509 327.860426 
L 617.000509 327.552613 
L 615.559884 327.552613 
L 615.559884 326.601051 
L 618.020822 326.601051 
z
M 621.609103 330.497926 
Q 620.905978 330.497926 620.40754 330.233863 
Q 619.910665 329.969801 619.648165 329.460426 
Q 619.387228 328.949488 619.387228 328.227613 
L 619.387228 327.655738 
Q 619.387228 326.904176 619.63879 326.372926 
Q 619.890353 325.840113 620.368478 325.561988 
Q 620.848165 325.282301 621.521603 325.282301 
Q 622.155978 325.282301 622.604415 325.601051 
Q 623.054415 325.918238 623.290353 326.518238 
Q 623.527853 327.118238 623.527853 327.958863 
L 623.527853 328.290113 
L 620.110665 328.290113 
L 620.110665 327.490113 
L 622.580978 327.490113 
L 622.580978 327.490113 
Q 622.537228 326.869801 622.260665 326.526051 
Q 621.985665 326.180738 621.521603 326.180738 
Q 620.954415 326.180738 620.64504 326.552613 
Q 620.335665 326.922926 620.335665 327.602613 
L 620.335665 328.246363 
Q 620.335665 328.876051 620.666915 329.213551 
Q 620.999728 329.551051 621.609103 329.551051 
Q 621.912228 329.551051 622.209103 329.429176 
Q 622.50754 329.305738 622.741915 329.086988 
L 622.741915 329.086988 
L 623.396603 329.740113 
L 623.396603 329.740113 
Q 623.02004 330.102613 622.55129 330.301051 
Q 622.08254 330.497926 621.609103 330.497926 
z
M 624.895431 325.355738 
L 625.892306 325.355738 
L 625.892306 330.424488 
L 624.895431 330.424488 
L 624.895431 325.355738 
z
M 627.971993 327.352613 
Q 627.971993 326.816676 627.693868 326.524488 
Q 627.415743 326.230738 626.912618 326.230738 
Q 626.423556 326.230738 626.157931 326.490113 
Q 625.892306 326.747926 625.892306 327.216676 
L 625.789181 326.240113 
Q 626.023556 325.780738 626.401681 325.532301 
Q 626.779806 325.282301 627.239181 325.282301 
Q 628.064181 325.282301 628.515743 325.822926 
Q 628.967306 326.361988 628.967306 327.347926 
L 628.967306 330.424488 
L 627.971993 330.424488 
L 627.971993 327.352613 
z
M 632.268868 330.497926 
Q 631.673556 330.497926 631.218868 330.280738 
Q 630.764181 330.063551 630.487618 329.651051 
Q 630.212618 329.238551 630.139181 328.657301 
L 630.139181 328.657301 
L 631.154806 328.657301 
L 631.154806 328.657301 
Q 631.198556 328.958863 631.345431 329.154176 
Q 631.492306 329.349488 631.723556 329.444801 
Q 631.956368 329.540113 632.268868 329.540113 
Q 632.761056 329.540113 633.034493 329.277613 
Q 633.307931 329.013551 633.307931 328.535426 
L 633.307931 328.319801 
Q 633.307931 327.786988 633.048556 327.497926 
Q 632.790743 327.207301 632.317306 327.207301 
L 631.814181 327.207301 
L 631.814181 326.258863 
L 632.317306 326.258863 
Q 632.732931 326.258863 632.961056 326.010426 
Q 633.190743 325.761988 633.190743 325.307301 
L 633.190743 325.086988 
Q 633.190743 324.668238 632.948556 324.438551 
Q 632.707931 324.208863 632.264181 324.208863 
Q 632.009493 324.208863 631.809493 324.304176 
Q 631.609493 324.399488 631.470431 324.597926 
Q 631.331368 324.794801 631.267306 325.091676 
L 631.267306 325.091676 
L 630.256368 325.091676 
L 630.256368 325.091676 
Q 630.354806 324.511988 630.625118 324.096363 
Q 630.896993 323.680738 631.311056 323.466676 
Q 631.726681 323.251051 632.264181 323.251051 
Q 633.181368 323.251051 633.684493 323.735426 
Q 634.187618 324.218238 634.187618 325.097926 
L 634.187618 325.215113 
Q 634.187618 325.746363 633.898556 326.141676 
Q 633.611056 326.536988 633.084493 326.718238 
Q 633.665743 326.844801 633.984493 327.290113 
Q 634.304806 327.733863 634.304806 328.422926 
L 634.304806 328.540113 
Q 634.304806 329.160426 634.065743 329.599488 
Q 633.826681 330.038551 633.368868 330.268238 
Q 632.912618 330.497926 632.268868 330.497926 
z
" style="fill: #ffffff; stroke: #000000"/>
    <path d="M 595.246798 330.497926 
Q 594.734298 330.497926 594.274923 330.401051 
Q 593.817111 330.302613 593.418673 330.107301 
Q 593.020236 329.911988 592.673361 329.618238 
L 592.673361 329.618238 
L 593.293673 328.857301 
L 593.293673 328.857301 
Q 593.699923 329.208863 594.187423 329.385426 
Q 594.676486 329.560426 595.246798 329.560426 
Q 596.018673 329.560426 596.443673 329.274488 
Q 596.868673 328.988551 596.868673 328.466676 
L 596.868673 328.461988 
Q 596.868673 328.090113 596.674923 327.872926 
Q 596.482736 327.655738 596.176486 327.551051 
Q 595.871798 327.446363 595.388986 327.357301 
Q 595.373361 327.352613 595.356173 327.352613 
Q 595.340548 327.352613 595.324923 327.347926 
L 595.251486 327.333863 
Q 594.538986 327.211988 594.092111 327.058863 
Q 593.645236 326.904176 593.328048 326.496363 
Q 593.010861 326.088551 593.010861 325.336988 
L 593.010861 325.332301 
Q 593.010861 324.672926 593.306173 324.207301 
Q 593.601486 323.740113 594.167111 323.496363 
Q 594.734298 323.251051 595.529611 323.251051 
Q 595.910861 323.251051 596.279611 323.335426 
Q 596.648361 323.418238 597.006173 323.582301 
Q 597.365548 323.744801 597.712423 323.993238 
L 597.712423 323.993238 
L 597.146798 324.785426 
L 597.146798 324.785426 
Q 596.740548 324.486988 596.337423 324.338551 
Q 595.935861 324.188551 595.529611 324.188551 
Q 594.803048 324.188551 594.399923 324.479176 
Q 593.996798 324.769801 593.996798 325.302613 
L 593.996798 325.307301 
Q 593.996798 325.672926 594.204611 325.883863 
Q 594.412423 326.093238 594.721798 326.193238 
Q 595.032736 326.293238 595.584298 326.401051 
Q 595.603048 326.405738 595.620236 326.408863 
Q 595.637423 326.410426 595.657736 326.415113 
Q 595.681173 326.419801 595.710861 326.426051 
Q 595.740548 326.430738 595.763986 326.435426 
Q 596.409298 326.566676 596.840548 326.747926 
Q 597.273361 326.927613 597.563986 327.330738 
Q 597.854611 327.733863 597.854611 328.432301 
L 597.854611 328.441676 
Q 597.854611 329.091676 597.546798 329.552613 
Q 597.238986 330.013551 596.654611 330.255738 
Q 596.071798 330.497926 595.246798 330.497926 
z
M 599.94465 329.477613 
L 601.5509 329.477613 
Q 602.336837 329.477613 602.768087 329.069801 
Q 603.2009 328.661988 603.2009 327.919801 
L 603.2009 325.829176 
Q 603.2009 325.086988 602.768087 324.679176 
Q 602.336837 324.271363 601.5509 324.271363 
L 599.94465 324.271363 
L 599.94465 323.324488 
L 601.521212 323.324488 
Q 602.3759 323.324488 602.980587 323.622926 
Q 603.586837 323.919801 603.904025 324.491676 
Q 604.221212 325.063551 604.221212 325.868238 
L 604.221212 327.880738 
Q 604.221212 328.685426 603.904025 329.257301 
Q 603.586837 329.829176 602.979025 330.127613 
Q 602.371212 330.424488 601.516525 330.424488 
L 599.94465 330.424488 
L 599.94465 329.477613 
z
M 599.271212 323.324488 
L 600.266525 323.324488 
L 600.266525 330.424488 
L 599.271212 330.424488 
L 599.271212 323.324488 
z
M 607.766525 330.497926 
Q 607.122775 330.497926 606.633712 330.254176 
Q 606.146212 330.008863 605.879025 329.561988 
Q 605.6134 329.115113 605.6134 328.524488 
L 605.6134 328.407301 
Q 605.6134 327.876051 605.879025 327.407301 
Q 606.146212 326.938551 606.589962 326.699488 
Q 606.2134 326.493238 605.986837 326.105738 
Q 605.760275 325.716676 605.760275 325.286988 
L 605.760275 325.116676 
Q 605.760275 324.560426 606.008712 324.138551 
Q 606.25715 323.715113 606.711837 323.483863 
Q 607.166525 323.251051 607.766525 323.251051 
Q 608.366525 323.251051 608.821212 323.483863 
Q 609.2759 323.715113 609.524337 324.138551 
Q 609.772775 324.560426 609.772775 325.116676 
L 609.772775 325.286988 
Q 609.772775 325.727613 609.541525 326.113551 
Q 609.310275 326.497926 608.929025 326.699488 
Q 609.377462 326.943238 609.647775 327.410426 
Q 609.91965 327.876051 609.91965 328.407301 
L 609.91965 328.524488 
Q 609.91965 329.115113 609.654025 329.561988 
Q 609.3884 330.008863 608.899337 330.254176 
Q 608.411837 330.497926 607.766525 330.497926 
z
M 607.766525 329.540113 
Q 608.1134 329.540113 608.3759 329.404176 
Q 608.639962 329.266676 608.783712 329.021363 
Q 608.929025 328.774488 608.929025 328.451051 
L 608.929025 328.383863 
Q 608.929025 328.055738 608.783712 327.810426 
Q 608.639962 327.563551 608.3759 327.427613 
Q 608.1134 327.290113 607.766525 327.290113 
Q 607.41965 327.290113 607.155587 327.427613 
Q 606.893087 327.563551 606.747775 327.811988 
Q 606.604025 328.060426 606.604025 328.388551 
L 606.604025 328.461988 
Q 606.604025 328.783863 606.747775 329.027613 
Q 606.893087 329.271363 607.155587 329.405738 
Q 607.41965 329.540113 607.766525 329.540113 
z
M 607.766525 326.332301 
Q 608.064962 326.332301 608.293087 326.204176 
Q 608.522775 326.074488 608.649337 325.835426 
Q 608.777462 325.594801 608.777462 325.282301 
L 608.777462 325.215113 
Q 608.777462 324.916676 608.649337 324.686988 
Q 608.522775 324.457301 608.293087 324.333863 
Q 608.064962 324.208863 607.766525 324.208863 
Q 607.468087 324.208863 607.2384 324.333863 
Q 607.010275 324.457301 606.88215 324.686988 
Q 606.755587 324.916676 606.755587 325.219801 
L 606.755587 325.293238 
Q 606.755587 325.599488 606.88215 325.836988 
Q 607.010275 326.074488 607.2384 326.204176 
Q 607.468087 326.332301 607.766525 326.332301 
z
M 618.020822 326.601051 
L 618.020822 327.841676 
Q 618.020822 328.632301 617.713009 329.235426 
Q 617.405197 329.838551 616.841134 330.168238 
Q 616.277072 330.497926 615.534884 330.497926 
Q 614.783322 330.497926 614.214572 330.188551 
Q 613.645822 329.877613 613.333322 329.311988 
Q 613.020822 328.744801 613.020822 327.997926 
L 613.020822 325.902613 
Q 613.020822 325.111988 613.328634 324.511988 
Q 613.636447 323.910426 614.198947 323.580738 
Q 614.763009 323.251051 615.505197 323.251051 
Q 616.116134 323.251051 616.630197 323.513551 
Q 617.145822 323.774488 617.492697 324.252613 
Q 617.839572 324.730738 617.961447 325.360426 
L 617.961447 325.360426 
L 616.883322 325.360426 
L 616.883322 325.360426 
Q 616.794259 325.004176 616.584884 324.747926 
Q 616.375509 324.491676 616.091134 324.357301 
Q 615.808322 324.222926 615.505197 324.222926 
Q 615.066134 324.222926 614.733322 324.433863 
Q 614.402072 324.643238 614.220822 325.021363 
Q 614.041134 325.399488 614.041134 325.902613 
L 614.041134 327.997926 
Q 614.041134 328.457301 614.225509 328.801051 
Q 614.411447 329.144801 614.750509 329.335426 
Q 615.091134 329.526051 615.534884 329.526051 
Q 615.973947 329.526051 616.305197 329.329176 
Q 616.638009 329.130738 616.819259 328.755738 
Q 617.000509 328.379176 617.000509 327.860426 
L 617.000509 327.552613 
L 615.559884 327.552613 
L 615.559884 326.601051 
L 618.020822 326.601051 
z
M 621.609103 330.497926 
Q 620.905978 330.497926 620.40754 330.233863 
Q 619.910665 329.969801 619.648165 329.460426 
Q 619.387228 328.949488 619.387228 328.227613 
L 619.387228 327.655738 
Q 619.387228 326.904176 619.63879 326.372926 
Q 619.890353 325.840113 620.368478 325.561988 
Q 620.848165 325.282301 621.521603 325.282301 
Q 622.155978 325.282301 622.604415 325.601051 
Q 623.054415 325.918238 623.290353 326.518238 
Q 623.527853 327.118238 623.527853 327.958863 
L 623.527853 328.290113 
L 620.110665 328.290113 
L 620.110665 327.490113 
L 622.580978 327.490113 
L 622.580978 327.490113 
Q 622.537228 326.869801 622.260665 326.526051 
Q 621.985665 326.180738 621.521603 326.180738 
Q 620.954415 326.180738 620.64504 326.552613 
Q 620.335665 326.922926 620.335665 327.602613 
L 620.335665 328.246363 
Q 620.335665 328.876051 620.666915 329.213551 
Q 620.999728 329.551051 621.609103 329.551051 
Q 621.912228 329.551051 622.209103 329.429176 
Q 622.50754 329.305738 622.741915 329.086988 
L 622.741915 329.086988 
L 623.396603 329.740113 
L 623.396603 329.740113 
Q 623.02004 330.102613 622.55129 330.301051 
Q 622.08254 330.497926 621.609103 330.497926 
z
M 624.895431 325.355738 
L 625.892306 325.355738 
L 625.892306 330.424488 
L 624.895431 330.424488 
L 624.895431 325.355738 
z
M 627.971993 327.352613 
Q 627.971993 326.816676 627.693868 326.524488 
Q 627.415743 326.230738 626.912618 326.230738 
Q 626.423556 326.230738 626.157931 326.490113 
Q 625.892306 326.747926 625.892306 327.216676 
L 625.789181 326.240113 
Q 626.023556 325.780738 626.401681 325.532301 
Q 626.779806 325.282301 627.239181 325.282301 
Q 628.064181 325.282301 628.515743 325.822926 
Q 628.967306 326.361988 628.967306 327.347926 
L 628.967306 330.424488 
L 627.971993 330.424488 
L 627.971993 327.352613 
z
M 632.268868 330.497926 
Q 631.673556 330.497926 631.218868 330.280738 
Q 630.764181 330.063551 630.487618 329.651051 
Q 630.212618 329.238551 630.139181 328.657301 
L 630.139181 328.657301 
L 631.154806 328.657301 
L 631.154806 328.657301 
Q 631.198556 328.958863 631.345431 329.154176 
Q 631.492306 329.349488 631.723556 329.444801 
Q 631.956368 329.540113 632.268868 329.540113 
Q 632.761056 329.540113 633.034493 329.277613 
Q 633.307931 329.013551 633.307931 328.535426 
L 633.307931 328.319801 
Q 633.307931 327.786988 633.048556 327.497926 
Q 632.790743 327.207301 632.317306 327.207301 
L 631.814181 327.207301 
L 631.814181 326.258863 
L 632.317306 326.258863 
Q 632.732931 326.258863 632.961056 326.010426 
Q 633.190743 325.761988 633.190743 325.307301 
L 633.190743 325.086988 
Q 633.190743 324.668238 632.948556 324.438551 
Q 632.707931 324.208863 632.264181 324.208863 
Q 632.009493 324.208863 631.809493 324.304176 
Q 631.609493 324.399488 631.470431 324.597926 
Q 631.331368 324.794801 631.267306 325.091676 
L 631.267306 325.091676 
L 630.256368 325.091676 
L 630.256368 325.091676 
Q 630.354806 324.511988 630.625118 324.096363 
Q 630.896993 323.680738 631.311056 323.466676 
Q 631.726681 323.251051 632.264181 323.251051 
Q 633.181368 323.251051 633.684493 323.735426 
Q 634.187618 324.218238 634.187618 325.097926 
L 634.187618 325.215113 
Q 634.187618 325.746363 633.898556 326.141676 
Q 633.611056 326.536988 633.084493 326.718238 
Q 633.665743 326.844801 633.984493 327.290113 
Q 634.304806 327.733863 634.304806 328.422926 
L 634.304806 328.540113 
Q 634.304806 329.160426 634.065743 329.599488 
Q 633.826681 330.038551 633.368868 330.268238 
Q 632.912618 330.497926 632.268868 330.497926 
z
" style="fill: #ffffff"/>
   </g>
  </g>
 </g>
 <defs>
  <clipPath id="p705b220b13">
   <rect x="144" y="77.76" width="892.8" height="498.96"/>
  </clipPath>
 </defs>
</svg>
