<?xml version="1.0" encoding="utf-8" standalone="no"?>
<!DOCTYPE svg PUBLIC "-//W3C//DTD SVG 1.1//EN"
  "http://www.w3.org/Graphics/SVG/1.1/DTD/svg11.dtd">
<svg xmlns:xlink="http://www.w3.org/1999/xlink" width="1152pt" height="648pt" viewBox="0 0 1152 648" xmlns="http://www.w3.org/2000/svg" version="1.1">
 <metadata>
  <rdf:RDF xmlns:dc="http://purl.org/dc/elements/1.1/" xmlns:cc="http://creativecommons.org/ns#" xmlns:rdf="http://www.w3.org/1999/02/22-rdf-syntax-ns#">
   <cc:Work>
    <dc:type rdf:resource="http://purl.org/dc/dcmitype/StillImage"/>
    <dc:date>2025-09-19T13:20:11.280372</dc:date>
    <dc:format>image/svg+xml</dc:format>
    <dc:creator>
     <cc:Agent>
      <dc:title>Matplotlib v3.10.3, https://matplotlib.org/</dc:title>
     </cc:Agent>
    </dc:creator>
   </cc:Work>
  </rdf:RDF>
 </metadata>
 <defs>
  <style type="text/css">*{stroke-linejoin: round; stroke-linecap: butt}</style>
 </defs>
 <g id="figure_1">
  <g id="patch_1">
   <path d="M 0 648 
L 1152 648 
L 1152 0 
L 0 0 
L 0 648 
z
" style="fill: none"/>
  </g>
  <g id="axes_1">
   <g id="line2d_1">
    <path d="M 180.117818 507.935137 
L 185.536926 502.213662 
L 190.956033 496.515821 
L 196.37514 490.846095 
L 201.794248 485.208876 
L 207.213355 479.608453 
L 212.632463 474.049 
L 218.05157 468.534563 
L 223.470678 463.06905 
L 228.889785 457.656222 
L 234.308893 452.299679 
L 239.728 447.00286 
L 245.147107 441.769029 
L 250.566215 436.601269 
L 255.985322 431.502484 
L 261.40443 426.475385 
L 266.823537 421.522494 
L 272.242645 416.646141 
L 277.661752 411.848458 
L 283.08086 407.131384 
L 288.499967 402.496665 
L 293.919074 397.945853 
L 299.338182 393.480309 
L 304.757289 389.101208 
L 310.176397 384.809541 
L 315.595504 380.606119 
L 321.014612 376.49158 
L 326.433719 372.466392 
L 331.852826 368.53086 
L 337.271934 364.685133 
L 342.691041 360.929209 
L 348.110149 357.262943 
L 353.529256 353.686055 
L 358.948364 350.198133 
L 364.367471 346.798646 
L 369.786579 343.486948 
L 375.205686 340.262285 
L 380.624793 337.123805 
L 386.043901 334.070562 
L 391.463008 331.101528 
L 396.882116 328.215593 
L 402.301223 325.41158 
L 407.720331 322.688245 
L 413.139438 320.044289 
L 418.558545 317.478358 
L 423.977653 314.989056 
L 429.39676 312.574946 
L 434.815868 310.234558 
L 440.234975 307.966393 
L 445.654083 305.76893 
L 451.07319 303.640626 
L 456.492298 301.579928 
L 461.911405 299.58527 
L 467.330512 297.655081 
L 472.74962 295.78779 
L 478.168727 293.981824 
L 483.587835 292.235617 
L 489.006942 290.547608 
L 494.42605 288.91625 
L 499.845157 287.340004 
L 505.264264 285.817349 
L 510.683372 284.346782 
L 516.102479 282.926815 
L 521.521587 281.555983 
L 526.940694 280.232845 
L 532.359802 278.955979 
L 537.778909 277.723991 
L 543.198017 276.535511 
L 548.617124 275.389195 
L 554.036231 274.283727 
L 559.455339 273.217819 
L 564.874446 272.19021 
L 570.293554 271.199669 
L 575.712661 270.244992 
L 581.131769 269.325006 
L 586.550876 268.438565 
L 591.969983 267.584553 
L 597.389091 266.761885 
L 602.808198 265.969501 
L 608.227306 265.206373 
L 613.646413 264.4715 
L 619.065521 263.763909 
L 624.484628 263.082657 
L 629.903736 262.426826 
L 635.322843 261.795526 
L 640.74195 261.187894 
L 646.161058 260.603093 
L 651.580165 260.040311 
L 656.999273 259.498764 
L 662.41838 258.977689 
L 667.837488 258.476351 
L 673.256595 257.994034 
L 678.675702 257.530051 
L 684.09481 257.083732 
L 689.513917 256.654433 
L 694.933025 256.24153 
L 700.352132 255.84442 
L 705.77124 255.46252 
L 711.190347 255.095267 
L 716.609455 254.742119 
" clip-path="url(#p360814e897)" style="fill: none; stroke: #1f77b4; stroke-width: 3; stroke-linecap: round"/>
   </g>
   <g id="text_1">
    <path d="M 725.114435 253.268375 
L 724.962872 253.024625 
L 722.658185 249.288687 
L 723.776935 249.288687 
L 725.490997 252.179312 
L 725.651935 252.443375 
L 728.078497 256.388687 
L 726.959747 256.388687 
L 725.114435 253.268375 
z
M 725.070685 252.330875 
L 726.851935 249.288687 
L 727.970685 249.288687 
L 725.622247 253.132437 
L 723.71756 256.388687 
L 722.600372 256.388687 
L 725.070685 252.330875 
z
M 729.489825 252.438687 
L 731.9117 252.438687 
Q 732.194513 252.438687 732.413263 252.30275 
Q 732.633575 252.16525 732.752325 251.913687 
Q 732.872638 251.662125 732.872638 251.335562 
L 732.872638 251.335562 
Q 732.872638 251.007437 732.752325 250.755875 
Q 732.633575 250.504312 732.416388 250.368375 
Q 732.1992 250.230875 731.9117 250.230875 
L 729.489825 250.230875 
L 729.489825 249.284 
L 731.872638 249.284 
Q 732.4867 249.284 732.952325 249.538687 
Q 733.419513 249.791812 733.675763 250.259 
Q 733.932013 250.724625 733.932013 251.335562 
L 733.932013 251.335562 
Q 733.932013 251.944937 733.672638 252.412125 
Q 733.414825 252.87775 732.947638 253.132437 
Q 732.482013 253.385562 731.872638 253.385562 
L 729.489825 253.385562 
L 729.489825 252.438687 
z
M 729.05545 249.284 
L 730.050763 249.284 
L 730.050763 256.388687 
L 729.05545 256.388687 
L 729.05545 249.284 
z
M 731.422638 253.16525 
L 732.414825 252.941812 
L 734.23045 256.388687 
L 733.0492 256.388687 
L 731.422638 253.16525 
z
M 735.475567 249.288687 
L 736.472442 249.288687 
L 736.472442 250.285562 
L 735.475567 250.285562 
L 735.475567 249.288687 
z
M 735.475567 251.319937 
L 736.472442 251.319937 
L 736.472442 256.388687 
L 735.475567 256.388687 
L 735.475567 251.319937 
z
M 737.985333 251.319937 
L 738.982208 251.319937 
L 738.982208 256.388687 
L 737.985333 256.388687 
L 737.985333 251.319937 
z
M 741.061895 253.316812 
Q 741.061895 252.780875 740.78377 252.488687 
Q 740.505645 252.194937 740.00252 252.194937 
Q 739.513458 252.194937 739.247833 252.454312 
Q 738.982208 252.712125 738.982208 253.180875 
L 738.879083 252.204312 
Q 739.113458 251.744937 739.491583 251.4965 
Q 739.869708 251.2465 740.329083 251.2465 
Q 741.154083 251.2465 741.605645 251.787125 
Q 742.057208 252.326187 742.057208 253.312125 
L 742.057208 256.388687 
L 741.061895 256.388687 
L 741.061895 253.316812 
z
M 745.27127 258.449625 
Q 744.699395 258.449625 744.247833 258.237125 
Q 743.79627 258.024625 743.54627 257.638687 
L 743.54627 257.638687 
L 744.22127 257.02775 
L 744.22127 257.02775 
Q 744.416583 257.2965 744.686895 257.443375 
Q 744.95877 257.59025 745.255645 257.59025 
Q 745.82752 257.59025 746.14002 257.274625 
Q 746.45252 256.960562 746.45252 256.384 
L 746.45252 251.319937 
L 747.447833 251.319937 
L 747.447833 256.237125 
Q 747.447833 256.935562 747.191583 257.434 
Q 746.935333 257.932437 746.44627 258.19025 
Q 745.95877 258.449625 745.27127 258.449625 
z
M 745.17752 256.476187 
Q 744.62127 256.476187 744.22752 256.235562 
Q 743.835333 255.993375 743.629083 255.529312 
Q 743.424395 255.06525 743.424395 254.41525 
L 743.424395 253.298062 
Q 743.424395 252.643375 743.624395 252.179312 
Q 743.825958 251.71525 744.20877 251.474625 
Q 744.591583 251.232437 745.129083 251.232437 
Q 745.57752 251.232437 745.950958 251.466812 
Q 746.325958 251.701187 746.554083 252.126187 
L 746.45252 253.160562 
Q 746.45252 252.838687 746.335333 252.609 
Q 746.218145 252.379312 745.994708 252.260562 
Q 745.772833 252.14025 745.455645 252.14025 
Q 744.963458 252.14025 744.691583 252.448062 
Q 744.42127 252.755875 744.42127 253.312125 
L 744.42127 254.41525 
Q 744.42127 254.968375 744.691583 255.268375 
Q 744.963458 255.568375 745.455645 255.568375 
Q 745.772833 255.568375 745.994708 255.444937 
Q 746.218145 255.319937 746.335333 255.085562 
Q 746.45252 254.851187 746.45252 254.523062 
L 746.52127 255.593375 
Q 746.369708 255.968375 746.024395 256.223062 
Q 745.680645 256.476187 745.17752 256.476187 
z
M 753.117755 256.462125 
Q 752.375567 256.462125 751.80838 256.137125 
Q 751.242755 255.812125 750.931817 255.219937 
Q 750.622442 254.626187 750.622442 253.844937 
L 750.622442 251.832437 
Q 750.622442 251.051187 750.931817 250.459 
Q 751.242755 249.86525 751.80838 249.54025 
Q 752.375567 249.21525 753.117755 249.21525 
Q 753.859942 249.21525 754.425567 249.54025 
Q 754.992755 249.86525 755.30213 250.459 
Q 755.613067 251.051187 755.613067 251.832437 
L 755.613067 253.844937 
Q 755.613067 254.626187 755.30213 255.219937 
Q 754.992755 255.812125 754.425567 256.137125 
Q 753.859942 256.462125 753.117755 256.462125 
z
M 753.117755 255.480875 
Q 753.556817 255.480875 753.891192 255.284 
Q 754.225567 255.085562 754.40838 254.7215 
Q 754.591192 254.357437 754.591192 253.879312 
L 754.591192 251.798062 
Q 754.591192 251.319937 754.40838 250.957437 
Q 754.225567 250.593375 753.891192 250.394937 
Q 753.556817 250.1965 753.117755 250.1965 
Q 752.67713 250.1965 752.342755 250.394937 
Q 752.00838 250.593375 751.825567 250.957437 
Q 751.642755 251.319937 751.642755 251.798062 
L 751.642755 253.879312 
Q 751.642755 254.357437 751.825567 254.7215 
Q 752.00838 255.085562 752.342755 255.284 
Q 752.67713 255.480875 753.117755 255.480875 
z
M 758.791583 256.388687 
L 757.794708 256.388687 
L 757.794708 250.373062 
L 756.78377 250.993375 
L 756.78377 249.962125 
L 757.794708 249.288687 
L 758.791583 249.288687 
L 758.791583 256.388687 
z
" style="fill: #ffffff; stroke: #000000"/>
    <path d="M 725.114435 253.268375 
L 724.962872 253.024625 
L 722.658185 249.288687 
L 723.776935 249.288687 
L 725.490997 252.179312 
L 725.651935 252.443375 
L 728.078497 256.388687 
L 726.959747 256.388687 
L 725.114435 253.268375 
z
M 725.070685 252.330875 
L 726.851935 249.288687 
L 727.970685 249.288687 
L 725.622247 253.132437 
L 723.71756 256.388687 
L 722.600372 256.388687 
L 725.070685 252.330875 
z
M 729.489825 252.438687 
L 731.9117 252.438687 
Q 732.194513 252.438687 732.413263 252.30275 
Q 732.633575 252.16525 732.752325 251.913687 
Q 732.872638 251.662125 732.872638 251.335562 
L 732.872638 251.335562 
Q 732.872638 251.007437 732.752325 250.755875 
Q 732.633575 250.504312 732.416388 250.368375 
Q 732.1992 250.230875 731.9117 250.230875 
L 729.489825 250.230875 
L 729.489825 249.284 
L 731.872638 249.284 
Q 732.4867 249.284 732.952325 249.538687 
Q 733.419513 249.791812 733.675763 250.259 
Q 733.932013 250.724625 733.932013 251.335562 
L 733.932013 251.335562 
Q 733.932013 251.944937 733.672638 252.412125 
Q 733.414825 252.87775 732.947638 253.132437 
Q 732.482013 253.385562 731.872638 253.385562 
L 729.489825 253.385562 
L 729.489825 252.438687 
z
M 729.05545 249.284 
L 730.050763 249.284 
L 730.050763 256.388687 
L 729.05545 256.388687 
L 729.05545 249.284 
z
M 731.422638 253.16525 
L 732.414825 252.941812 
L 734.23045 256.388687 
L 733.0492 256.388687 
L 731.422638 253.16525 
z
M 735.475567 249.288687 
L 736.472442 249.288687 
L 736.472442 250.285562 
L 735.475567 250.285562 
L 735.475567 249.288687 
z
M 735.475567 251.319937 
L 736.472442 251.319937 
L 736.472442 256.388687 
L 735.475567 256.388687 
L 735.475567 251.319937 
z
M 737.985333 251.319937 
L 738.982208 251.319937 
L 738.982208 256.388687 
L 737.985333 256.388687 
L 737.985333 251.319937 
z
M 741.061895 253.316812 
Q 741.061895 252.780875 740.78377 252.488687 
Q 740.505645 252.194937 740.00252 252.194937 
Q 739.513458 252.194937 739.247833 252.454312 
Q 738.982208 252.712125 738.982208 253.180875 
L 738.879083 252.204312 
Q 739.113458 251.744937 739.491583 251.4965 
Q 739.869708 251.2465 740.329083 251.2465 
Q 741.154083 251.2465 741.605645 251.787125 
Q 742.057208 252.326187 742.057208 253.312125 
L 742.057208 256.388687 
L 741.061895 256.388687 
L 741.061895 253.316812 
z
M 745.27127 258.449625 
Q 744.699395 258.449625 744.247833 258.237125 
Q 743.79627 258.024625 743.54627 257.638687 
L 743.54627 257.638687 
L 744.22127 257.02775 
L 744.22127 257.02775 
Q 744.416583 257.2965 744.686895 257.443375 
Q 744.95877 257.59025 745.255645 257.59025 
Q 745.82752 257.59025 746.14002 257.274625 
Q 746.45252 256.960562 746.45252 256.384 
L 746.45252 251.319937 
L 747.447833 251.319937 
L 747.447833 256.237125 
Q 747.447833 256.935562 747.191583 257.434 
Q 746.935333 257.932437 746.44627 258.19025 
Q 745.95877 258.449625 745.27127 258.449625 
z
M 745.17752 256.476187 
Q 744.62127 256.476187 744.22752 256.235562 
Q 743.835333 255.993375 743.629083 255.529312 
Q 743.424395 255.06525 743.424395 254.41525 
L 743.424395 253.298062 
Q 743.424395 252.643375 743.624395 252.179312 
Q 743.825958 251.71525 744.20877 251.474625 
Q 744.591583 251.232437 745.129083 251.232437 
Q 745.57752 251.232437 745.950958 251.466812 
Q 746.325958 251.701187 746.554083 252.126187 
L 746.45252 253.160562 
Q 746.45252 252.838687 746.335333 252.609 
Q 746.218145 252.379312 745.994708 252.260562 
Q 745.772833 252.14025 745.455645 252.14025 
Q 744.963458 252.14025 744.691583 252.448062 
Q 744.42127 252.755875 744.42127 253.312125 
L 744.42127 254.41525 
Q 744.42127 254.968375 744.691583 255.268375 
Q 744.963458 255.568375 745.455645 255.568375 
Q 745.772833 255.568375 745.994708 255.444937 
Q 746.218145 255.319937 746.335333 255.085562 
Q 746.45252 254.851187 746.45252 254.523062 
L 746.52127 255.593375 
Q 746.369708 255.968375 746.024395 256.223062 
Q 745.680645 256.476187 745.17752 256.476187 
z
M 753.117755 256.462125 
Q 752.375567 256.462125 751.80838 256.137125 
Q 751.242755 255.812125 750.931817 255.219937 
Q 750.622442 254.626187 750.622442 253.844937 
L 750.622442 251.832437 
Q 750.622442 251.051187 750.931817 250.459 
Q 751.242755 249.86525 751.80838 249.54025 
Q 752.375567 249.21525 753.117755 249.21525 
Q 753.859942 249.21525 754.425567 249.54025 
Q 754.992755 249.86525 755.30213 250.459 
Q 755.613067 251.051187 755.613067 251.832437 
L 755.613067 253.844937 
Q 755.613067 254.626187 755.30213 255.219937 
Q 754.992755 255.812125 754.425567 256.137125 
Q 753.859942 256.462125 753.117755 256.462125 
z
M 753.117755 255.480875 
Q 753.556817 255.480875 753.891192 255.284 
Q 754.225567 255.085562 754.40838 254.7215 
Q 754.591192 254.357437 754.591192 253.879312 
L 754.591192 251.798062 
Q 754.591192 251.319937 754.40838 250.957437 
Q 754.225567 250.593375 753.891192 250.394937 
Q 753.556817 250.1965 753.117755 250.1965 
Q 752.67713 250.1965 752.342755 250.394937 
Q 752.00838 250.593375 751.825567 250.957437 
Q 751.642755 251.319937 751.642755 251.798062 
L 751.642755 253.879312 
Q 751.642755 254.357437 751.825567 254.7215 
Q 752.00838 255.085562 752.342755 255.284 
Q 752.67713 255.480875 753.117755 255.480875 
z
M 758.791583 256.388687 
L 757.794708 256.388687 
L 757.794708 250.373062 
L 756.78377 250.993375 
L 756.78377 249.962125 
L 757.794708 249.288687 
L 758.791583 249.288687 
L 758.791583 256.388687 
z
" style="fill: #ffffff"/>
   </g>
  </g>
 </g>
 <defs>
  <clipPath id="p360814e897">
   <rect x="144" y="77.76" width="892.8" height="498.96"/>
  </clipPath>
 </defs>
</svg>
