<?xml version="1.0" encoding="utf-8" standalone="no"?>
<!DOCTYPE svg PUBLIC "-//W3C//DTD SVG 1.1//EN"
  "http://www.w3.org/Graphics/SVG/1.1/DTD/svg11.dtd">
<svg xmlns:xlink="http://www.w3.org/1999/xlink" width="1152pt" height="648pt" viewBox="0 0 1152 648" xmlns="http://www.w3.org/2000/svg" version="1.1">
 <metadata>
  <rdf:RDF xmlns:dc="http://purl.org/dc/elements/1.1/" xmlns:cc="http://creativecommons.org/ns#" xmlns:rdf="http://www.w3.org/1999/02/22-rdf-syntax-ns#">
   <cc:Work>
    <dc:type rdf:resource="http://purl.org/dc/dcmitype/StillImage"/>
    <dc:date>2025-09-19T13:20:10.861039</dc:date>
    <dc:format>image/svg+xml</dc:format>
    <dc:creator>
     <cc:Agent>
      <dc:title>Matplotlib v3.10.3, https://matplotlib.org/</dc:title>
     </cc:Agent>
    </dc:creator>
   </cc:Work>
  </rdf:RDF>
 </metadata>
 <defs>
  <style type="text/css">*{stroke-linejoin: round; stroke-linecap: butt}</style>
 </defs>
 <g id="figure_1">
  <g id="patch_1">
   <path d="M 0 648 
L 1152 648 
L 1152 0 
L 0 0 
L 0 648 
z
" style="fill: none"/>
  </g>
  <g id="axes_1">
   <g id="PathCollection_1">
    <defs>
     <path id="mabcd6a32c3" d="M 0 2.738613 
C 0.726289 2.738613 1.422928 2.450055 1.936492 1.936492 
C 2.450055 1.422928 2.738613 0.726289 2.738613 0 
C 2.738613 -0.726289 2.450055 -1.422928 1.936492 -1.936492 
C 1.422928 -2.450055 0.726289 -2.738613 0 -2.738613 
C -0.726289 -2.738613 -1.422928 -2.450055 -1.936492 -1.936492 
C -2.450055 -1.422928 -2.738613 -0.726289 -2.738613 0 
C -2.738613 0.726289 -2.450055 1.422928 -1.936492 1.936492 
C -1.422928 2.450055 -0.726289 2.738613 0 2.738613 
z
" style="stroke: #f27130"/>
    </defs>
    <g clip-path="url(#p9c4ab21a44)">
     <use xlink:href="#mabcd6a32c3" x="867.979636" y="276.778512" style="fill: #f27130; stroke: #f27130"/>
     <use xlink:href="#mabcd6a32c3" x="274.267636" y="412.096464" style="fill: #f27130; stroke: #f27130"/>
     <use xlink:href="#mabcd6a32c3" x="247.889455" y="439.00704" style="fill: #f27130; stroke: #f27130"/>
    </g>
   </g>
   <g id="text_1">
    <path d="M 875.425241 277.478205 
L 877.031491 277.478205 
Q 877.817429 277.478205 878.248679 277.070393 
Q 878.681491 276.66258 878.681491 275.920393 
L 878.681491 273.829768 
Q 878.681491 273.08758 878.248679 272.679768 
Q 877.817429 272.271955 877.031491 272.271955 
L 875.425241 272.271955 
L 875.425241 271.32508 
L 877.001804 271.32508 
Q 877.856491 271.32508 878.461179 271.623518 
Q 879.067429 271.920393 879.384616 272.492268 
Q 879.701804 273.064143 879.701804 273.86883 
L 879.701804 275.88133 
Q 879.701804 276.686018 879.384616 277.257893 
Q 879.067429 277.829768 878.459616 278.128205 
Q 877.851804 278.42508 876.997116 278.42508 
L 875.425241 278.42508 
L 875.425241 277.478205 
z
M 874.751804 271.32508 
L 875.747116 271.32508 
L 875.747116 278.42508 
L 874.751804 278.42508 
L 874.751804 271.32508 
z
M 883.681491 274.90008 
L 883.676804 275.07508 
Q 883.554929 275.30008 883.308054 275.404768 
Q 883.061179 275.509455 882.725241 275.509455 
Q 882.217429 275.509455 881.831491 275.251643 
Q 881.445554 274.992268 881.233054 274.521955 
Q 881.020554 274.05008 881.020554 273.429768 
L 881.020554 273.42508 
Q 881.020554 272.736018 881.251804 272.248518 
Q 881.484616 271.759455 881.931491 271.50633 
Q 882.378366 271.251643 883.003366 271.251643 
Q 883.628366 271.251643 884.072116 271.511018 
Q 884.517429 271.770393 884.748679 272.264143 
Q 884.979929 272.75633 884.979929 273.45008 
L 884.979929 273.454768 
Q 884.979929 273.834455 884.881491 274.267268 
Q 884.784616 274.70008 884.604929 275.123518 
Q 884.575241 275.18758 884.545554 275.253205 
Q 884.517429 275.31883 884.483054 275.382893 
L 882.968991 278.42508 
L 881.893991 278.42508 
L 883.681491 274.90008 
z
M 883.003366 274.601643 
Q 883.472116 274.601643 883.728366 274.284455 
Q 883.984616 273.967268 883.984616 273.390705 
L 883.984616 273.386018 
Q 883.984616 272.82508 883.728366 272.517268 
Q 883.472116 272.209455 883.003366 272.209455 
Q 882.529929 272.209455 882.273679 272.517268 
Q 882.017429 272.82508 882.017429 273.390705 
L 882.017429 273.395393 
Q 882.017429 273.971955 882.273679 274.28758 
Q 882.529929 274.601643 883.003366 274.601643 
z
M 886.200827 276.471955 
L 888.58364 271.329768 
L 889.610202 271.329768 
L 887.285202 276.41258 
L 890.766452 276.41258 
L 890.766452 277.336018 
L 886.200827 277.336018 
L 886.200827 276.471955 
z
M 889.263327 274.25008 
L 890.235202 274.25008 
L 890.235202 278.429768 
L 889.263327 278.429768 
L 889.263327 274.25008 
z
M 894.014304 278.498518 
Q 893.017429 278.498518 892.501804 277.967268 
Q 891.987741 277.434455 891.987741 276.48133 
L 891.987741 273.254768 
Q 891.987741 272.296955 892.504929 271.767268 
Q 893.022116 271.23758 894.014304 271.23758 
Q 895.009616 271.23758 895.525241 271.765705 
Q 896.040866 272.292268 896.040866 273.254768 
L 896.040866 276.48133 
Q 896.040866 277.439143 895.522116 277.96883 
Q 895.004929 278.498518 894.014304 278.498518 
z
M 894.014304 277.551643 
Q 894.540866 277.551643 894.792429 277.27508 
Q 895.043991 276.998518 895.043991 276.48133 
L 895.043991 273.254768 
Q 895.043991 272.736018 894.793991 272.461018 
Q 894.545554 272.184455 894.014304 272.184455 
Q 893.481491 272.184455 893.231491 272.461018 
Q 892.983054 272.736018 892.983054 273.254768 
L 892.983054 276.48133 
Q 892.983054 276.998518 893.234616 277.27508 
Q 893.486179 277.551643 894.014304 277.551643 
z
M 899.531882 278.498518 
Q 898.535007 278.498518 898.019382 277.967268 
Q 897.505319 277.434455 897.505319 276.48133 
L 897.505319 273.254768 
Q 897.505319 272.296955 898.022507 271.767268 
Q 898.539694 271.23758 899.531882 271.23758 
Q 900.527194 271.23758 901.042819 271.765705 
Q 901.558444 272.292268 901.558444 273.254768 
L 901.558444 276.48133 
Q 901.558444 277.439143 901.039694 277.96883 
Q 900.522507 278.498518 899.531882 278.498518 
z
M 899.531882 277.551643 
Q 900.058444 277.551643 900.310007 277.27508 
Q 900.561569 276.998518 900.561569 276.48133 
L 900.561569 273.254768 
Q 900.561569 272.736018 900.311569 272.461018 
Q 900.063132 272.184455 899.531882 272.184455 
Q 898.999069 272.184455 898.749069 272.461018 
Q 898.500632 272.736018 898.500632 273.254768 
L 898.500632 276.48133 
Q 898.500632 276.998518 898.752194 277.27508 
Q 899.003757 277.551643 899.531882 277.551643 
z
M 906.611569 279.953205 
Q 905.742819 279.011018 905.310007 277.842268 
Q 904.878757 276.671955 904.878757 275.261018 
Q 904.878757 273.85008 905.310007 272.68133 
Q 905.742819 271.511018 906.611569 270.56883 
L 907.294382 271.189143 
Q 906.558444 272.009455 906.191257 273.02508 
Q 905.825632 274.040705 905.825632 275.261018 
Q 905.825632 276.48133 906.191257 277.496955 
Q 906.558444 278.51258 907.294382 279.33758 
L 906.611569 279.953205 
z
M 910.205124 278.498518 
Q 909.561374 278.498518 909.072312 278.254768 
Q 908.584812 278.009455 908.317624 277.56258 
Q 908.051999 277.115705 908.051999 276.52508 
L 908.051999 276.407893 
Q 908.051999 275.876643 908.317624 275.407893 
Q 908.584812 274.939143 909.028562 274.70008 
Q 908.651999 274.49383 908.425437 274.10633 
Q 908.198874 273.717268 908.198874 273.28758 
L 908.198874 273.117268 
Q 908.198874 272.561018 908.447312 272.139143 
Q 908.695749 271.715705 909.150437 271.484455 
Q 909.605124 271.251643 910.205124 271.251643 
Q 910.805124 271.251643 911.259812 271.484455 
Q 911.714499 271.715705 911.962937 272.139143 
Q 912.211374 272.561018 912.211374 273.117268 
L 912.211374 273.28758 
Q 912.211374 273.728205 911.980124 274.114143 
Q 911.748874 274.498518 911.367624 274.70008 
Q 911.816062 274.94383 912.086374 275.411018 
Q 912.358249 275.876643 912.358249 276.407893 
L 912.358249 276.52508 
Q 912.358249 277.115705 912.092624 277.56258 
Q 911.826999 278.009455 911.337937 278.254768 
Q 910.850437 278.498518 910.205124 278.498518 
z
M 910.205124 277.540705 
Q 910.551999 277.540705 910.814499 277.404768 
Q 911.078562 277.267268 911.222312 277.021955 
Q 911.367624 276.77508 911.367624 276.451643 
L 911.367624 276.384455 
Q 911.367624 276.05633 911.222312 275.811018 
Q 911.078562 275.564143 910.814499 275.428205 
Q 910.551999 275.290705 910.205124 275.290705 
Q 909.858249 275.290705 909.594187 275.428205 
Q 909.331687 275.564143 909.186374 275.81258 
Q 909.042624 276.061018 909.042624 276.389143 
L 909.042624 276.46258 
Q 909.042624 276.784455 909.186374 277.028205 
Q 909.331687 277.271955 909.594187 277.40633 
Q 909.858249 277.540705 910.205124 277.540705 
z
M 910.205124 274.332893 
Q 910.503562 274.332893 910.731687 274.204768 
Q 910.961374 274.07508 911.087937 273.836018 
Q 911.216062 273.595393 911.216062 273.282893 
L 911.216062 273.215705 
Q 911.216062 272.917268 911.087937 272.68758 
Q 910.961374 272.457893 910.731687 272.334455 
Q 910.503562 272.209455 910.205124 272.209455 
Q 909.906687 272.209455 909.676999 272.334455 
Q 909.448874 272.457893 909.320749 272.68758 
Q 909.194187 272.917268 909.194187 273.220393 
L 909.194187 273.29383 
Q 909.194187 273.60008 909.320749 273.83758 
Q 909.448874 274.07508 909.676999 274.204768 
Q 909.906687 274.332893 910.205124 274.332893 
z
M 915.733249 278.498518 
Q 915.195749 278.498518 914.776999 278.289143 
Q 914.359812 278.078205 914.098874 277.678205 
Q 913.837937 277.278205 913.750437 276.715705 
L 913.750437 276.711018 
L 914.745749 276.711018 
L 914.745749 276.715705 
Q 914.800437 277.10633 915.058249 277.323518 
Q 915.317624 277.540705 915.733249 277.540705 
Q 916.211374 277.540705 916.472312 277.221955 
Q 916.733249 276.901643 916.733249 276.320393 
L 916.733249 275.72508 
Q 916.733249 275.148518 916.472312 274.829768 
Q 916.211374 274.509455 915.733249 274.509455 
Q 915.473874 274.509455 915.234812 274.65633 
Q 914.995749 274.801643 914.814499 275.065705 
L 913.906687 275.065705 
L 913.906687 271.32508 
L 917.523874 271.32508 
L 917.523874 272.271955 
L 914.901999 272.271955 
L 914.901999 273.86883 
Q 915.087937 273.717268 915.317624 273.634455 
Q 915.547312 273.551643 915.786374 273.551643 
Q 916.401999 273.551643 916.837937 273.80633 
Q 917.275437 274.059455 917.501999 274.548518 
Q 917.730124 275.036018 917.730124 275.72508 
L 917.730124 276.320393 
Q 917.730124 277.009455 917.495749 277.498518 
Q 917.261374 277.986018 916.811374 278.242268 
Q 916.362937 278.498518 915.733249 278.498518 
z
M 921.03071 278.498518 
Q 920.435398 278.498518 919.98071 278.28133 
Q 919.526023 278.064143 919.24946 277.651643 
Q 918.97446 277.239143 918.901023 276.657893 
L 918.901023 276.657893 
L 919.916648 276.657893 
L 919.916648 276.657893 
Q 919.960398 276.959455 920.107273 277.154768 
Q 920.254148 277.35008 920.485398 277.445393 
Q 920.71821 277.540705 921.03071 277.540705 
Q 921.522898 277.540705 921.796335 277.278205 
Q 922.069773 277.014143 922.069773 276.536018 
L 922.069773 276.320393 
Q 922.069773 275.78758 921.810398 275.498518 
Q 921.552585 275.207893 921.079148 275.207893 
L 920.576023 275.207893 
L 920.576023 274.259455 
L 921.079148 274.259455 
Q 921.494773 274.259455 921.722898 274.011018 
Q 921.952585 273.76258 921.952585 273.307893 
L 921.952585 273.08758 
Q 921.952585 272.66883 921.710398 272.439143 
Q 921.469773 272.209455 921.026023 272.209455 
Q 920.771335 272.209455 920.571335 272.304768 
Q 920.371335 272.40008 920.232273 272.598518 
Q 920.09321 272.795393 920.029148 273.092268 
L 920.029148 273.092268 
L 919.01821 273.092268 
L 919.01821 273.092268 
Q 919.116648 272.51258 919.38696 272.096955 
Q 919.658835 271.68133 920.072898 271.467268 
Q 920.488523 271.251643 921.026023 271.251643 
Q 921.94321 271.251643 922.446335 271.736018 
Q 922.94946 272.21883 922.94946 273.098518 
L 922.94946 273.215705 
Q 922.94946 273.746955 922.660398 274.142268 
Q 922.372898 274.53758 921.846335 274.71883 
Q 922.427585 274.845393 922.746335 275.290705 
Q 923.066648 275.734455 923.066648 276.423518 
L 923.066648 276.540705 
Q 923.066648 277.161018 922.827585 277.60008 
Q 922.588523 278.039143 922.13071 278.26883 
Q 921.67446 278.498518 921.03071 278.498518 
z
M 926.318796 278.498518 
Q 925.723484 278.498518 925.268796 278.28133 
Q 924.814109 278.064143 924.537546 277.651643 
Q 924.262546 277.239143 924.189109 276.657893 
L 924.189109 276.657893 
L 925.204734 276.657893 
L 925.204734 276.657893 
Q 925.248484 276.959455 925.395359 277.154768 
Q 925.542234 277.35008 925.773484 277.445393 
Q 926.006296 277.540705 926.318796 277.540705 
Q 926.810984 277.540705 927.084421 277.278205 
Q 927.357859 277.014143 927.357859 276.536018 
L 927.357859 276.320393 
Q 927.357859 275.78758 927.098484 275.498518 
Q 926.840671 275.207893 926.367234 275.207893 
L 925.864109 275.207893 
L 925.864109 274.259455 
L 926.367234 274.259455 
Q 926.782859 274.259455 927.010984 274.011018 
Q 927.240671 273.76258 927.240671 273.307893 
L 927.240671 273.08758 
Q 927.240671 272.66883 926.998484 272.439143 
Q 926.757859 272.209455 926.314109 272.209455 
Q 926.059421 272.209455 925.859421 272.304768 
Q 925.659421 272.40008 925.520359 272.598518 
Q 925.381296 272.795393 925.317234 273.092268 
L 925.317234 273.092268 
L 924.306296 273.092268 
L 924.306296 273.092268 
Q 924.404734 272.51258 924.675046 272.096955 
Q 924.946921 271.68133 925.360984 271.467268 
Q 925.776609 271.251643 926.314109 271.251643 
Q 927.231296 271.251643 927.734421 271.736018 
Q 928.237546 272.21883 928.237546 273.098518 
L 928.237546 273.215705 
Q 928.237546 273.746955 927.948484 274.142268 
Q 927.660984 274.53758 927.134421 274.71883 
Q 927.715671 274.845393 928.034421 275.290705 
Q 928.354734 275.734455 928.354734 276.423518 
L 928.354734 276.540705 
Q 928.354734 277.161018 928.115671 277.60008 
Q 927.876609 278.039143 927.418796 278.26883 
Q 926.962546 278.498518 926.318796 278.498518 
z
M 929.136569 279.33758 
Q 929.872507 278.51258 930.238132 277.496955 
Q 930.605319 276.48133 930.605319 275.261018 
Q 930.605319 274.040705 930.238132 273.02508 
Q 929.872507 272.009455 929.136569 271.189143 
L 929.819382 270.56883 
Q 930.688132 271.511018 931.119382 272.68133 
Q 931.552194 273.85008 931.552194 275.261018 
Q 931.552194 276.671955 931.119382 277.842268 
Q 930.688132 279.011018 929.819382 279.953205 
L 929.136569 279.33758 
z
" style="fill: #ffffff; stroke: #000000"/>
    <path d="M 875.425241 277.478205 
L 877.031491 277.478205 
Q 877.817429 277.478205 878.248679 277.070393 
Q 878.681491 276.66258 878.681491 275.920393 
L 878.681491 273.829768 
Q 878.681491 273.08758 878.248679 272.679768 
Q 877.817429 272.271955 877.031491 272.271955 
L 875.425241 272.271955 
L 875.425241 271.32508 
L 877.001804 271.32508 
Q 877.856491 271.32508 878.461179 271.623518 
Q 879.067429 271.920393 879.384616 272.492268 
Q 879.701804 273.064143 879.701804 273.86883 
L 879.701804 275.88133 
Q 879.701804 276.686018 879.384616 277.257893 
Q 879.067429 277.829768 878.459616 278.128205 
Q 877.851804 278.42508 876.997116 278.42508 
L 875.425241 278.42508 
L 875.425241 277.478205 
z
M 874.751804 271.32508 
L 875.747116 271.32508 
L 875.747116 278.42508 
L 874.751804 278.42508 
L 874.751804 271.32508 
z
M 883.681491 274.90008 
L 883.676804 275.07508 
Q 883.554929 275.30008 883.308054 275.404768 
Q 883.061179 275.509455 882.725241 275.509455 
Q 882.217429 275.509455 881.831491 275.251643 
Q 881.445554 274.992268 881.233054 274.521955 
Q 881.020554 274.05008 881.020554 273.429768 
L 881.020554 273.42508 
Q 881.020554 272.736018 881.251804 272.248518 
Q 881.484616 271.759455 881.931491 271.50633 
Q 882.378366 271.251643 883.003366 271.251643 
Q 883.628366 271.251643 884.072116 271.511018 
Q 884.517429 271.770393 884.748679 272.264143 
Q 884.979929 272.75633 884.979929 273.45008 
L 884.979929 273.454768 
Q 884.979929 273.834455 884.881491 274.267268 
Q 884.784616 274.70008 884.604929 275.123518 
Q 884.575241 275.18758 884.545554 275.253205 
Q 884.517429 275.31883 884.483054 275.382893 
L 882.968991 278.42508 
L 881.893991 278.42508 
L 883.681491 274.90008 
z
M 883.003366 274.601643 
Q 883.472116 274.601643 883.728366 274.284455 
Q 883.984616 273.967268 883.984616 273.390705 
L 883.984616 273.386018 
Q 883.984616 272.82508 883.728366 272.517268 
Q 883.472116 272.209455 883.003366 272.209455 
Q 882.529929 272.209455 882.273679 272.517268 
Q 882.017429 272.82508 882.017429 273.390705 
L 882.017429 273.395393 
Q 882.017429 273.971955 882.273679 274.28758 
Q 882.529929 274.601643 883.003366 274.601643 
z
M 886.200827 276.471955 
L 888.58364 271.329768 
L 889.610202 271.329768 
L 887.285202 276.41258 
L 890.766452 276.41258 
L 890.766452 277.336018 
L 886.200827 277.336018 
L 886.200827 276.471955 
z
M 889.263327 274.25008 
L 890.235202 274.25008 
L 890.235202 278.429768 
L 889.263327 278.429768 
L 889.263327 274.25008 
z
M 894.014304 278.498518 
Q 893.017429 278.498518 892.501804 277.967268 
Q 891.987741 277.434455 891.987741 276.48133 
L 891.987741 273.254768 
Q 891.987741 272.296955 892.504929 271.767268 
Q 893.022116 271.23758 894.014304 271.23758 
Q 895.009616 271.23758 895.525241 271.765705 
Q 896.040866 272.292268 896.040866 273.254768 
L 896.040866 276.48133 
Q 896.040866 277.439143 895.522116 277.96883 
Q 895.004929 278.498518 894.014304 278.498518 
z
M 894.014304 277.551643 
Q 894.540866 277.551643 894.792429 277.27508 
Q 895.043991 276.998518 895.043991 276.48133 
L 895.043991 273.254768 
Q 895.043991 272.736018 894.793991 272.461018 
Q 894.545554 272.184455 894.014304 272.184455 
Q 893.481491 272.184455 893.231491 272.461018 
Q 892.983054 272.736018 892.983054 273.254768 
L 892.983054 276.48133 
Q 892.983054 276.998518 893.234616 277.27508 
Q 893.486179 277.551643 894.014304 277.551643 
z
M 899.531882 278.498518 
Q 898.535007 278.498518 898.019382 277.967268 
Q 897.505319 277.434455 897.505319 276.48133 
L 897.505319 273.254768 
Q 897.505319 272.296955 898.022507 271.767268 
Q 898.539694 271.23758 899.531882 271.23758 
Q 900.527194 271.23758 901.042819 271.765705 
Q 901.558444 272.292268 901.558444 273.254768 
L 901.558444 276.48133 
Q 901.558444 277.439143 901.039694 277.96883 
Q 900.522507 278.498518 899.531882 278.498518 
z
M 899.531882 277.551643 
Q 900.058444 277.551643 900.310007 277.27508 
Q 900.561569 276.998518 900.561569 276.48133 
L 900.561569 273.254768 
Q 900.561569 272.736018 900.311569 272.461018 
Q 900.063132 272.184455 899.531882 272.184455 
Q 898.999069 272.184455 898.749069 272.461018 
Q 898.500632 272.736018 898.500632 273.254768 
L 898.500632 276.48133 
Q 898.500632 276.998518 898.752194 277.27508 
Q 899.003757 277.551643 899.531882 277.551643 
z
M 906.611569 279.953205 
Q 905.742819 279.011018 905.310007 277.842268 
Q 904.878757 276.671955 904.878757 275.261018 
Q 904.878757 273.85008 905.310007 272.68133 
Q 905.742819 271.511018 906.611569 270.56883 
L 907.294382 271.189143 
Q 906.558444 272.009455 906.191257 273.02508 
Q 905.825632 274.040705 905.825632 275.261018 
Q 905.825632 276.48133 906.191257 277.496955 
Q 906.558444 278.51258 907.294382 279.33758 
L 906.611569 279.953205 
z
M 910.205124 278.498518 
Q 909.561374 278.498518 909.072312 278.254768 
Q 908.584812 278.009455 908.317624 277.56258 
Q 908.051999 277.115705 908.051999 276.52508 
L 908.051999 276.407893 
Q 908.051999 275.876643 908.317624 275.407893 
Q 908.584812 274.939143 909.028562 274.70008 
Q 908.651999 274.49383 908.425437 274.10633 
Q 908.198874 273.717268 908.198874 273.28758 
L 908.198874 273.117268 
Q 908.198874 272.561018 908.447312 272.139143 
Q 908.695749 271.715705 909.150437 271.484455 
Q 909.605124 271.251643 910.205124 271.251643 
Q 910.805124 271.251643 911.259812 271.484455 
Q 911.714499 271.715705 911.962937 272.139143 
Q 912.211374 272.561018 912.211374 273.117268 
L 912.211374 273.28758 
Q 912.211374 273.728205 911.980124 274.114143 
Q 911.748874 274.498518 911.367624 274.70008 
Q 911.816062 274.94383 912.086374 275.411018 
Q 912.358249 275.876643 912.358249 276.407893 
L 912.358249 276.52508 
Q 912.358249 277.115705 912.092624 277.56258 
Q 911.826999 278.009455 911.337937 278.254768 
Q 910.850437 278.498518 910.205124 278.498518 
z
M 910.205124 277.540705 
Q 910.551999 277.540705 910.814499 277.404768 
Q 911.078562 277.267268 911.222312 277.021955 
Q 911.367624 276.77508 911.367624 276.451643 
L 911.367624 276.384455 
Q 911.367624 276.05633 911.222312 275.811018 
Q 911.078562 275.564143 910.814499 275.428205 
Q 910.551999 275.290705 910.205124 275.290705 
Q 909.858249 275.290705 909.594187 275.428205 
Q 909.331687 275.564143 909.186374 275.81258 
Q 909.042624 276.061018 909.042624 276.389143 
L 909.042624 276.46258 
Q 909.042624 276.784455 909.186374 277.028205 
Q 909.331687 277.271955 909.594187 277.40633 
Q 909.858249 277.540705 910.205124 277.540705 
z
M 910.205124 274.332893 
Q 910.503562 274.332893 910.731687 274.204768 
Q 910.961374 274.07508 911.087937 273.836018 
Q 911.216062 273.595393 911.216062 273.282893 
L 911.216062 273.215705 
Q 911.216062 272.917268 911.087937 272.68758 
Q 910.961374 272.457893 910.731687 272.334455 
Q 910.503562 272.209455 910.205124 272.209455 
Q 909.906687 272.209455 909.676999 272.334455 
Q 909.448874 272.457893 909.320749 272.68758 
Q 909.194187 272.917268 909.194187 273.220393 
L 909.194187 273.29383 
Q 909.194187 273.60008 909.320749 273.83758 
Q 909.448874 274.07508 909.676999 274.204768 
Q 909.906687 274.332893 910.205124 274.332893 
z
M 915.733249 278.498518 
Q 915.195749 278.498518 914.776999 278.289143 
Q 914.359812 278.078205 914.098874 277.678205 
Q 913.837937 277.278205 913.750437 276.715705 
L 913.750437 276.711018 
L 914.745749 276.711018 
L 914.745749 276.715705 
Q 914.800437 277.10633 915.058249 277.323518 
Q 915.317624 277.540705 915.733249 277.540705 
Q 916.211374 277.540705 916.472312 277.221955 
Q 916.733249 276.901643 916.733249 276.320393 
L 916.733249 275.72508 
Q 916.733249 275.148518 916.472312 274.829768 
Q 916.211374 274.509455 915.733249 274.509455 
Q 915.473874 274.509455 915.234812 274.65633 
Q 914.995749 274.801643 914.814499 275.065705 
L 913.906687 275.065705 
L 913.906687 271.32508 
L 917.523874 271.32508 
L 917.523874 272.271955 
L 914.901999 272.271955 
L 914.901999 273.86883 
Q 915.087937 273.717268 915.317624 273.634455 
Q 915.547312 273.551643 915.786374 273.551643 
Q 916.401999 273.551643 916.837937 273.80633 
Q 917.275437 274.059455 917.501999 274.548518 
Q 917.730124 275.036018 917.730124 275.72508 
L 917.730124 276.320393 
Q 917.730124 277.009455 917.495749 277.498518 
Q 917.261374 277.986018 916.811374 278.242268 
Q 916.362937 278.498518 915.733249 278.498518 
z
M 921.03071 278.498518 
Q 920.435398 278.498518 919.98071 278.28133 
Q 919.526023 278.064143 919.24946 277.651643 
Q 918.97446 277.239143 918.901023 276.657893 
L 918.901023 276.657893 
L 919.916648 276.657893 
L 919.916648 276.657893 
Q 919.960398 276.959455 920.107273 277.154768 
Q 920.254148 277.35008 920.485398 277.445393 
Q 920.71821 277.540705 921.03071 277.540705 
Q 921.522898 277.540705 921.796335 277.278205 
Q 922.069773 277.014143 922.069773 276.536018 
L 922.069773 276.320393 
Q 922.069773 275.78758 921.810398 275.498518 
Q 921.552585 275.207893 921.079148 275.207893 
L 920.576023 275.207893 
L 920.576023 274.259455 
L 921.079148 274.259455 
Q 921.494773 274.259455 921.722898 274.011018 
Q 921.952585 273.76258 921.952585 273.307893 
L 921.952585 273.08758 
Q 921.952585 272.66883 921.710398 272.439143 
Q 921.469773 272.209455 921.026023 272.209455 
Q 920.771335 272.209455 920.571335 272.304768 
Q 920.371335 272.40008 920.232273 272.598518 
Q 920.09321 272.795393 920.029148 273.092268 
L 920.029148 273.092268 
L 919.01821 273.092268 
L 919.01821 273.092268 
Q 919.116648 272.51258 919.38696 272.096955 
Q 919.658835 271.68133 920.072898 271.467268 
Q 920.488523 271.251643 921.026023 271.251643 
Q 921.94321 271.251643 922.446335 271.736018 
Q 922.94946 272.21883 922.94946 273.098518 
L 922.94946 273.215705 
Q 922.94946 273.746955 922.660398 274.142268 
Q 922.372898 274.53758 921.846335 274.71883 
Q 922.427585 274.845393 922.746335 275.290705 
Q 923.066648 275.734455 923.066648 276.423518 
L 923.066648 276.540705 
Q 923.066648 277.161018 922.827585 277.60008 
Q 922.588523 278.039143 922.13071 278.26883 
Q 921.67446 278.498518 921.03071 278.498518 
z
M 926.318796 278.498518 
Q 925.723484 278.498518 925.268796 278.28133 
Q 924.814109 278.064143 924.537546 277.651643 
Q 924.262546 277.239143 924.189109 276.657893 
L 924.189109 276.657893 
L 925.204734 276.657893 
L 925.204734 276.657893 
Q 925.248484 276.959455 925.395359 277.154768 
Q 925.542234 277.35008 925.773484 277.445393 
Q 926.006296 277.540705 926.318796 277.540705 
Q 926.810984 277.540705 927.084421 277.278205 
Q 927.357859 277.014143 927.357859 276.536018 
L 927.357859 276.320393 
Q 927.357859 275.78758 927.098484 275.498518 
Q 926.840671 275.207893 926.367234 275.207893 
L 925.864109 275.207893 
L 925.864109 274.259455 
L 926.367234 274.259455 
Q 926.782859 274.259455 927.010984 274.011018 
Q 927.240671 273.76258 927.240671 273.307893 
L 927.240671 273.08758 
Q 927.240671 272.66883 926.998484 272.439143 
Q 926.757859 272.209455 926.314109 272.209455 
Q 926.059421 272.209455 925.859421 272.304768 
Q 925.659421 272.40008 925.520359 272.598518 
Q 925.381296 272.795393 925.317234 273.092268 
L 925.317234 273.092268 
L 924.306296 273.092268 
L 924.306296 273.092268 
Q 924.404734 272.51258 924.675046 272.096955 
Q 924.946921 271.68133 925.360984 271.467268 
Q 925.776609 271.251643 926.314109 271.251643 
Q 927.231296 271.251643 927.734421 271.736018 
Q 928.237546 272.21883 928.237546 273.098518 
L 928.237546 273.215705 
Q 928.237546 273.746955 927.948484 274.142268 
Q 927.660984 274.53758 927.134421 274.71883 
Q 927.715671 274.845393 928.034421 275.290705 
Q 928.354734 275.734455 928.354734 276.423518 
L 928.354734 276.540705 
Q 928.354734 277.161018 928.115671 277.60008 
Q 927.876609 278.039143 927.418796 278.26883 
Q 926.962546 278.498518 926.318796 278.498518 
z
M 929.136569 279.33758 
Q 929.872507 278.51258 930.238132 277.496955 
Q 930.605319 276.48133 930.605319 275.261018 
Q 930.605319 274.040705 930.238132 273.02508 
Q 929.872507 272.009455 929.136569 271.189143 
L 929.819382 270.56883 
Q 930.688132 271.511018 931.119382 272.68133 
Q 931.552194 273.85008 931.552194 275.261018 
Q 931.552194 276.671955 931.119382 277.842268 
Q 930.688132 279.011018 929.819382 279.953205 
L 929.136569 279.33758 
z
" style="fill: #ffffff"/>
   </g>
   <g id="text_2">
    <path d="M 281.713241 412.796157 
L 283.319491 412.796157 
Q 284.105429 412.796157 284.536679 412.388345 
Q 284.969491 411.980532 284.969491 411.238345 
L 284.969491 409.14772 
Q 284.969491 408.405532 284.536679 407.99772 
Q 284.105429 407.589907 283.319491 407.589907 
L 281.713241 407.589907 
L 281.713241 406.643032 
L 283.289804 406.643032 
Q 284.144491 406.643032 284.749179 406.94147 
Q 285.355429 407.238345 285.672616 407.81022 
Q 285.989804 408.382095 285.989804 409.186782 
L 285.989804 411.199282 
Q 285.989804 412.00397 285.672616 412.575845 
Q 285.355429 413.14772 284.747616 413.446157 
Q 284.139804 413.743032 283.285116 413.743032 
L 281.713241 413.743032 
L 281.713241 412.796157 
z
M 281.039804 406.643032 
L 282.035116 406.643032 
L 282.035116 413.743032 
L 281.039804 413.743032 
L 281.039804 406.643032 
z
M 289.969491 410.218032 
L 289.964804 410.393032 
Q 289.842929 410.618032 289.596054 410.72272 
Q 289.349179 410.827407 289.013241 410.827407 
Q 288.505429 410.827407 288.119491 410.569595 
Q 287.733554 410.31022 287.521054 409.839907 
Q 287.308554 409.368032 287.308554 408.74772 
L 287.308554 408.743032 
Q 287.308554 408.05397 287.539804 407.56647 
Q 287.772616 407.077407 288.219491 406.824282 
Q 288.666366 406.569595 289.291366 406.569595 
Q 289.916366 406.569595 290.360116 406.82897 
Q 290.805429 407.088345 291.036679 407.582095 
Q 291.267929 408.074282 291.267929 408.768032 
L 291.267929 408.77272 
Q 291.267929 409.152407 291.169491 409.58522 
Q 291.072616 410.018032 290.892929 410.44147 
Q 290.863241 410.505532 290.833554 410.571157 
Q 290.805429 410.636782 290.771054 410.700845 
L 289.256991 413.743032 
L 288.181991 413.743032 
L 289.969491 410.218032 
z
M 289.291366 409.919595 
Q 289.760116 409.919595 290.016366 409.602407 
Q 290.272616 409.28522 290.272616 408.708657 
L 290.272616 408.70397 
Q 290.272616 408.143032 290.016366 407.83522 
Q 289.760116 407.527407 289.291366 407.527407 
Q 288.817929 407.527407 288.561679 407.83522 
Q 288.305429 408.143032 288.305429 408.708657 
L 288.305429 408.713345 
Q 288.305429 409.289907 288.561679 409.605532 
Q 288.817929 409.919595 289.291366 409.919595 
z
M 292.488827 411.789907 
L 294.87164 406.64772 
L 295.898202 406.64772 
L 293.573202 411.730532 
L 297.054452 411.730532 
L 297.054452 412.65397 
L 292.488827 412.65397 
L 292.488827 411.789907 
z
M 295.551327 409.568032 
L 296.523202 409.568032 
L 296.523202 413.74772 
L 295.551327 413.74772 
L 295.551327 409.568032 
z
M 300.302304 413.81647 
Q 299.305429 413.81647 298.789804 413.28522 
Q 298.275741 412.752407 298.275741 411.799282 
L 298.275741 408.57272 
Q 298.275741 407.614907 298.792929 407.08522 
Q 299.310116 406.555532 300.302304 406.555532 
Q 301.297616 406.555532 301.813241 407.083657 
Q 302.328866 407.61022 302.328866 408.57272 
L 302.328866 411.799282 
Q 302.328866 412.757095 301.810116 413.286782 
Q 301.292929 413.81647 300.302304 413.81647 
z
M 300.302304 412.869595 
Q 300.828866 412.869595 301.080429 412.593032 
Q 301.331991 412.31647 301.331991 411.799282 
L 301.331991 408.57272 
Q 301.331991 408.05397 301.081991 407.77897 
Q 300.833554 407.502407 300.302304 407.502407 
Q 299.769491 407.502407 299.519491 407.77897 
Q 299.271054 408.05397 299.271054 408.57272 
L 299.271054 411.799282 
Q 299.271054 412.31647 299.522616 412.593032 
Q 299.774179 412.869595 300.302304 412.869595 
z
M 305.819882 413.81647 
Q 304.823007 413.81647 304.307382 413.28522 
Q 303.793319 412.752407 303.793319 411.799282 
L 303.793319 408.57272 
Q 303.793319 407.614907 304.310507 407.08522 
Q 304.827694 406.555532 305.819882 406.555532 
Q 306.815194 406.555532 307.330819 407.083657 
Q 307.846444 407.61022 307.846444 408.57272 
L 307.846444 411.799282 
Q 307.846444 412.757095 307.327694 413.286782 
Q 306.810507 413.81647 305.819882 413.81647 
z
M 305.819882 412.869595 
Q 306.346444 412.869595 306.598007 412.593032 
Q 306.849569 412.31647 306.849569 411.799282 
L 306.849569 408.57272 
Q 306.849569 408.05397 306.599569 407.77897 
Q 306.351132 407.502407 305.819882 407.502407 
Q 305.287069 407.502407 305.037069 407.77897 
Q 304.788632 408.05397 304.788632 408.57272 
L 304.788632 411.799282 
Q 304.788632 412.31647 305.040194 412.593032 
Q 305.291757 412.869595 305.819882 412.869595 
z
M 312.899569 415.271157 
Q 312.030819 414.32897 311.598007 413.16022 
Q 311.166757 411.989907 311.166757 410.57897 
Q 311.166757 409.168032 311.598007 407.999282 
Q 312.030819 406.82897 312.899569 405.886782 
L 313.582382 406.507095 
Q 312.846444 407.327407 312.479257 408.343032 
Q 312.113632 409.358657 312.113632 410.57897 
Q 312.113632 411.799282 312.479257 412.814907 
Q 312.846444 413.830532 313.582382 414.655532 
L 312.899569 415.271157 
z
M 316.493124 413.81647 
Q 315.849374 413.81647 315.360312 413.57272 
Q 314.872812 413.327407 314.605624 412.880532 
Q 314.339999 412.433657 314.339999 411.843032 
L 314.339999 411.725845 
Q 314.339999 411.194595 314.605624 410.725845 
Q 314.872812 410.257095 315.316562 410.018032 
Q 314.939999 409.811782 314.713437 409.424282 
Q 314.486874 409.03522 314.486874 408.605532 
L 314.486874 408.43522 
Q 314.486874 407.87897 314.735312 407.457095 
Q 314.983749 407.033657 315.438437 406.802407 
Q 315.893124 406.569595 316.493124 406.569595 
Q 317.093124 406.569595 317.547812 406.802407 
Q 318.002499 407.033657 318.250937 407.457095 
Q 318.499374 407.87897 318.499374 408.43522 
L 318.499374 408.605532 
Q 318.499374 409.046157 318.268124 409.432095 
Q 318.036874 409.81647 317.655624 410.018032 
Q 318.104062 410.261782 318.374374 410.72897 
Q 318.646249 411.194595 318.646249 411.725845 
L 318.646249 411.843032 
Q 318.646249 412.433657 318.380624 412.880532 
Q 318.114999 413.327407 317.625937 413.57272 
Q 317.138437 413.81647 316.493124 413.81647 
z
M 316.493124 412.858657 
Q 316.839999 412.858657 317.102499 412.72272 
Q 317.366562 412.58522 317.510312 412.339907 
Q 317.655624 412.093032 317.655624 411.769595 
L 317.655624 411.702407 
Q 317.655624 411.374282 317.510312 411.12897 
Q 317.366562 410.882095 317.102499 410.746157 
Q 316.839999 410.608657 316.493124 410.608657 
Q 316.146249 410.608657 315.882187 410.746157 
Q 315.619687 410.882095 315.474374 411.130532 
Q 315.330624 411.37897 315.330624 411.707095 
L 315.330624 411.780532 
Q 315.330624 412.102407 315.474374 412.346157 
Q 315.619687 412.589907 315.882187 412.724282 
Q 316.146249 412.858657 316.493124 412.858657 
z
M 316.493124 409.650845 
Q 316.791562 409.650845 317.019687 409.52272 
Q 317.249374 409.393032 317.375937 409.15397 
Q 317.504062 408.913345 317.504062 408.600845 
L 317.504062 408.533657 
Q 317.504062 408.23522 317.375937 408.005532 
Q 317.249374 407.775845 317.019687 407.652407 
Q 316.791562 407.527407 316.493124 407.527407 
Q 316.194687 407.527407 315.964999 407.652407 
Q 315.736874 407.775845 315.608749 408.005532 
Q 315.482187 408.23522 315.482187 408.538345 
L 315.482187 408.611782 
Q 315.482187 408.918032 315.608749 409.155532 
Q 315.736874 409.393032 315.964999 409.52272 
Q 316.194687 409.650845 316.493124 409.650845 
z
M 322.021249 413.81647 
Q 321.483749 413.81647 321.064999 413.607095 
Q 320.647812 413.396157 320.386874 412.996157 
Q 320.125937 412.596157 320.038437 412.033657 
L 320.038437 412.02897 
L 321.033749 412.02897 
L 321.033749 412.033657 
Q 321.088437 412.424282 321.346249 412.64147 
Q 321.605624 412.858657 322.021249 412.858657 
Q 322.499374 412.858657 322.760312 412.539907 
Q 323.021249 412.219595 323.021249 411.638345 
L 323.021249 411.043032 
Q 323.021249 410.46647 322.760312 410.14772 
Q 322.499374 409.827407 322.021249 409.827407 
Q 321.761874 409.827407 321.522812 409.974282 
Q 321.283749 410.119595 321.102499 410.383657 
L 320.194687 410.383657 
L 320.194687 406.643032 
L 323.811874 406.643032 
L 323.811874 407.589907 
L 321.189999 407.589907 
L 321.189999 409.186782 
Q 321.375937 409.03522 321.605624 408.952407 
Q 321.835312 408.869595 322.074374 408.869595 
Q 322.689999 408.869595 323.125937 409.124282 
Q 323.563437 409.377407 323.789999 409.86647 
Q 324.018124 410.35397 324.018124 411.043032 
L 324.018124 411.638345 
Q 324.018124 412.327407 323.783749 412.81647 
Q 323.549374 413.30397 323.099374 413.56022 
Q 322.650937 413.81647 322.021249 413.81647 
z
M 327.31871 413.81647 
Q 326.723398 413.81647 326.26871 413.599282 
Q 325.814023 413.382095 325.53746 412.969595 
Q 325.26246 412.557095 325.189023 411.975845 
L 325.189023 411.975845 
L 326.204648 411.975845 
L 326.204648 411.975845 
Q 326.248398 412.277407 326.395273 412.47272 
Q 326.542148 412.668032 326.773398 412.763345 
Q 327.00621 412.858657 327.31871 412.858657 
Q 327.810898 412.858657 328.084335 412.596157 
Q 328.357773 412.332095 328.357773 411.85397 
L 328.357773 411.638345 
Q 328.357773 411.105532 328.098398 410.81647 
Q 327.840585 410.525845 327.367148 410.525845 
L 326.864023 410.525845 
L 326.864023 409.577407 
L 327.367148 409.577407 
Q 327.782773 409.577407 328.010898 409.32897 
Q 328.240585 409.080532 328.240585 408.625845 
L 328.240585 408.405532 
Q 328.240585 407.986782 327.998398 407.757095 
Q 327.757773 407.527407 327.314023 407.527407 
Q 327.059335 407.527407 326.859335 407.62272 
Q 326.659335 407.718032 326.520273 407.91647 
Q 326.38121 408.113345 326.317148 408.41022 
L 326.317148 408.41022 
L 325.30621 408.41022 
L 325.30621 408.41022 
Q 325.404648 407.830532 325.67496 407.414907 
Q 325.946835 406.999282 326.360898 406.78522 
Q 326.776523 406.569595 327.314023 406.569595 
Q 328.23121 406.569595 328.734335 407.05397 
Q 329.23746 407.536782 329.23746 408.41647 
L 329.23746 408.533657 
Q 329.23746 409.064907 328.948398 409.46022 
Q 328.660898 409.855532 328.134335 410.036782 
Q 328.715585 410.163345 329.034335 410.608657 
Q 329.354648 411.052407 329.354648 411.74147 
L 329.354648 411.858657 
Q 329.354648 412.47897 329.115585 412.918032 
Q 328.876523 413.357095 328.41871 413.586782 
Q 327.96246 413.81647 327.31871 413.81647 
z
M 332.606796 413.81647 
Q 332.011484 413.81647 331.556796 413.599282 
Q 331.102109 413.382095 330.825546 412.969595 
Q 330.550546 412.557095 330.477109 411.975845 
L 330.477109 411.975845 
L 331.492734 411.975845 
L 331.492734 411.975845 
Q 331.536484 412.277407 331.683359 412.47272 
Q 331.830234 412.668032 332.061484 412.763345 
Q 332.294296 412.858657 332.606796 412.858657 
Q 333.098984 412.858657 333.372421 412.596157 
Q 333.645859 412.332095 333.645859 411.85397 
L 333.645859 411.638345 
Q 333.645859 411.105532 333.386484 410.81647 
Q 333.128671 410.525845 332.655234 410.525845 
L 332.152109 410.525845 
L 332.152109 409.577407 
L 332.655234 409.577407 
Q 333.070859 409.577407 333.298984 409.32897 
Q 333.528671 409.080532 333.528671 408.625845 
L 333.528671 408.405532 
Q 333.528671 407.986782 333.286484 407.757095 
Q 333.045859 407.527407 332.602109 407.527407 
Q 332.347421 407.527407 332.147421 407.62272 
Q 331.947421 407.718032 331.808359 407.91647 
Q 331.669296 408.113345 331.605234 408.41022 
L 331.605234 408.41022 
L 330.594296 408.41022 
L 330.594296 408.41022 
Q 330.692734 407.830532 330.963046 407.414907 
Q 331.234921 406.999282 331.648984 406.78522 
Q 332.064609 406.569595 332.602109 406.569595 
Q 333.519296 406.569595 334.022421 407.05397 
Q 334.525546 407.536782 334.525546 408.41647 
L 334.525546 408.533657 
Q 334.525546 409.064907 334.236484 409.46022 
Q 333.948984 409.855532 333.422421 410.036782 
Q 334.003671 410.163345 334.322421 410.608657 
Q 334.642734 411.052407 334.642734 411.74147 
L 334.642734 411.858657 
Q 334.642734 412.47897 334.403671 412.918032 
Q 334.164609 413.357095 333.706796 413.586782 
Q 333.250546 413.81647 332.606796 413.81647 
z
M 335.424569 414.655532 
Q 336.160507 413.830532 336.526132 412.814907 
Q 336.893319 411.799282 336.893319 410.57897 
Q 336.893319 409.358657 336.526132 408.343032 
Q 336.160507 407.327407 335.424569 406.507095 
L 336.107382 405.886782 
Q 336.976132 406.82897 337.407382 407.999282 
Q 337.840194 409.168032 337.840194 410.57897 
Q 337.840194 411.989907 337.407382 413.16022 
Q 336.976132 414.32897 336.107382 415.271157 
L 335.424569 414.655532 
z
" style="fill: #ffffff; stroke: #000000"/>
    <path d="M 281.713241 412.796157 
L 283.319491 412.796157 
Q 284.105429 412.796157 284.536679 412.388345 
Q 284.969491 411.980532 284.969491 411.238345 
L 284.969491 409.14772 
Q 284.969491 408.405532 284.536679 407.99772 
Q 284.105429 407.589907 283.319491 407.589907 
L 281.713241 407.589907 
L 281.713241 406.643032 
L 283.289804 406.643032 
Q 284.144491 406.643032 284.749179 406.94147 
Q 285.355429 407.238345 285.672616 407.81022 
Q 285.989804 408.382095 285.989804 409.186782 
L 285.989804 411.199282 
Q 285.989804 412.00397 285.672616 412.575845 
Q 285.355429 413.14772 284.747616 413.446157 
Q 284.139804 413.743032 283.285116 413.743032 
L 281.713241 413.743032 
L 281.713241 412.796157 
z
M 281.039804 406.643032 
L 282.035116 406.643032 
L 282.035116 413.743032 
L 281.039804 413.743032 
L 281.039804 406.643032 
z
M 289.969491 410.218032 
L 289.964804 410.393032 
Q 289.842929 410.618032 289.596054 410.72272 
Q 289.349179 410.827407 289.013241 410.827407 
Q 288.505429 410.827407 288.119491 410.569595 
Q 287.733554 410.31022 287.521054 409.839907 
Q 287.308554 409.368032 287.308554 408.74772 
L 287.308554 408.743032 
Q 287.308554 408.05397 287.539804 407.56647 
Q 287.772616 407.077407 288.219491 406.824282 
Q 288.666366 406.569595 289.291366 406.569595 
Q 289.916366 406.569595 290.360116 406.82897 
Q 290.805429 407.088345 291.036679 407.582095 
Q 291.267929 408.074282 291.267929 408.768032 
L 291.267929 408.77272 
Q 291.267929 409.152407 291.169491 409.58522 
Q 291.072616 410.018032 290.892929 410.44147 
Q 290.863241 410.505532 290.833554 410.571157 
Q 290.805429 410.636782 290.771054 410.700845 
L 289.256991 413.743032 
L 288.181991 413.743032 
L 289.969491 410.218032 
z
M 289.291366 409.919595 
Q 289.760116 409.919595 290.016366 409.602407 
Q 290.272616 409.28522 290.272616 408.708657 
L 290.272616 408.70397 
Q 290.272616 408.143032 290.016366 407.83522 
Q 289.760116 407.527407 289.291366 407.527407 
Q 288.817929 407.527407 288.561679 407.83522 
Q 288.305429 408.143032 288.305429 408.708657 
L 288.305429 408.713345 
Q 288.305429 409.289907 288.561679 409.605532 
Q 288.817929 409.919595 289.291366 409.919595 
z
M 292.488827 411.789907 
L 294.87164 406.64772 
L 295.898202 406.64772 
L 293.573202 411.730532 
L 297.054452 411.730532 
L 297.054452 412.65397 
L 292.488827 412.65397 
L 292.488827 411.789907 
z
M 295.551327 409.568032 
L 296.523202 409.568032 
L 296.523202 413.74772 
L 295.551327 413.74772 
L 295.551327 409.568032 
z
M 300.302304 413.81647 
Q 299.305429 413.81647 298.789804 413.28522 
Q 298.275741 412.752407 298.275741 411.799282 
L 298.275741 408.57272 
Q 298.275741 407.614907 298.792929 407.08522 
Q 299.310116 406.555532 300.302304 406.555532 
Q 301.297616 406.555532 301.813241 407.083657 
Q 302.328866 407.61022 302.328866 408.57272 
L 302.328866 411.799282 
Q 302.328866 412.757095 301.810116 413.286782 
Q 301.292929 413.81647 300.302304 413.81647 
z
M 300.302304 412.869595 
Q 300.828866 412.869595 301.080429 412.593032 
Q 301.331991 412.31647 301.331991 411.799282 
L 301.331991 408.57272 
Q 301.331991 408.05397 301.081991 407.77897 
Q 300.833554 407.502407 300.302304 407.502407 
Q 299.769491 407.502407 299.519491 407.77897 
Q 299.271054 408.05397 299.271054 408.57272 
L 299.271054 411.799282 
Q 299.271054 412.31647 299.522616 412.593032 
Q 299.774179 412.869595 300.302304 412.869595 
z
M 305.819882 413.81647 
Q 304.823007 413.81647 304.307382 413.28522 
Q 303.793319 412.752407 303.793319 411.799282 
L 303.793319 408.57272 
Q 303.793319 407.614907 304.310507 407.08522 
Q 304.827694 406.555532 305.819882 406.555532 
Q 306.815194 406.555532 307.330819 407.083657 
Q 307.846444 407.61022 307.846444 408.57272 
L 307.846444 411.799282 
Q 307.846444 412.757095 307.327694 413.286782 
Q 306.810507 413.81647 305.819882 413.81647 
z
M 305.819882 412.869595 
Q 306.346444 412.869595 306.598007 412.593032 
Q 306.849569 412.31647 306.849569 411.799282 
L 306.849569 408.57272 
Q 306.849569 408.05397 306.599569 407.77897 
Q 306.351132 407.502407 305.819882 407.502407 
Q 305.287069 407.502407 305.037069 407.77897 
Q 304.788632 408.05397 304.788632 408.57272 
L 304.788632 411.799282 
Q 304.788632 412.31647 305.040194 412.593032 
Q 305.291757 412.869595 305.819882 412.869595 
z
M 312.899569 415.271157 
Q 312.030819 414.32897 311.598007 413.16022 
Q 311.166757 411.989907 311.166757 410.57897 
Q 311.166757 409.168032 311.598007 407.999282 
Q 312.030819 406.82897 312.899569 405.886782 
L 313.582382 406.507095 
Q 312.846444 407.327407 312.479257 408.343032 
Q 312.113632 409.358657 312.113632 410.57897 
Q 312.113632 411.799282 312.479257 412.814907 
Q 312.846444 413.830532 313.582382 414.655532 
L 312.899569 415.271157 
z
M 316.493124 413.81647 
Q 315.849374 413.81647 315.360312 413.57272 
Q 314.872812 413.327407 314.605624 412.880532 
Q 314.339999 412.433657 314.339999 411.843032 
L 314.339999 411.725845 
Q 314.339999 411.194595 314.605624 410.725845 
Q 314.872812 410.257095 315.316562 410.018032 
Q 314.939999 409.811782 314.713437 409.424282 
Q 314.486874 409.03522 314.486874 408.605532 
L 314.486874 408.43522 
Q 314.486874 407.87897 314.735312 407.457095 
Q 314.983749 407.033657 315.438437 406.802407 
Q 315.893124 406.569595 316.493124 406.569595 
Q 317.093124 406.569595 317.547812 406.802407 
Q 318.002499 407.033657 318.250937 407.457095 
Q 318.499374 407.87897 318.499374 408.43522 
L 318.499374 408.605532 
Q 318.499374 409.046157 318.268124 409.432095 
Q 318.036874 409.81647 317.655624 410.018032 
Q 318.104062 410.261782 318.374374 410.72897 
Q 318.646249 411.194595 318.646249 411.725845 
L 318.646249 411.843032 
Q 318.646249 412.433657 318.380624 412.880532 
Q 318.114999 413.327407 317.625937 413.57272 
Q 317.138437 413.81647 316.493124 413.81647 
z
M 316.493124 412.858657 
Q 316.839999 412.858657 317.102499 412.72272 
Q 317.366562 412.58522 317.510312 412.339907 
Q 317.655624 412.093032 317.655624 411.769595 
L 317.655624 411.702407 
Q 317.655624 411.374282 317.510312 411.12897 
Q 317.366562 410.882095 317.102499 410.746157 
Q 316.839999 410.608657 316.493124 410.608657 
Q 316.146249 410.608657 315.882187 410.746157 
Q 315.619687 410.882095 315.474374 411.130532 
Q 315.330624 411.37897 315.330624 411.707095 
L 315.330624 411.780532 
Q 315.330624 412.102407 315.474374 412.346157 
Q 315.619687 412.589907 315.882187 412.724282 
Q 316.146249 412.858657 316.493124 412.858657 
z
M 316.493124 409.650845 
Q 316.791562 409.650845 317.019687 409.52272 
Q 317.249374 409.393032 317.375937 409.15397 
Q 317.504062 408.913345 317.504062 408.600845 
L 317.504062 408.533657 
Q 317.504062 408.23522 317.375937 408.005532 
Q 317.249374 407.775845 317.019687 407.652407 
Q 316.791562 407.527407 316.493124 407.527407 
Q 316.194687 407.527407 315.964999 407.652407 
Q 315.736874 407.775845 315.608749 408.005532 
Q 315.482187 408.23522 315.482187 408.538345 
L 315.482187 408.611782 
Q 315.482187 408.918032 315.608749 409.155532 
Q 315.736874 409.393032 315.964999 409.52272 
Q 316.194687 409.650845 316.493124 409.650845 
z
M 322.021249 413.81647 
Q 321.483749 413.81647 321.064999 413.607095 
Q 320.647812 413.396157 320.386874 412.996157 
Q 320.125937 412.596157 320.038437 412.033657 
L 320.038437 412.02897 
L 321.033749 412.02897 
L 321.033749 412.033657 
Q 321.088437 412.424282 321.346249 412.64147 
Q 321.605624 412.858657 322.021249 412.858657 
Q 322.499374 412.858657 322.760312 412.539907 
Q 323.021249 412.219595 323.021249 411.638345 
L 323.021249 411.043032 
Q 323.021249 410.46647 322.760312 410.14772 
Q 322.499374 409.827407 322.021249 409.827407 
Q 321.761874 409.827407 321.522812 409.974282 
Q 321.283749 410.119595 321.102499 410.383657 
L 320.194687 410.383657 
L 320.194687 406.643032 
L 323.811874 406.643032 
L 323.811874 407.589907 
L 321.189999 407.589907 
L 321.189999 409.186782 
Q 321.375937 409.03522 321.605624 408.952407 
Q 321.835312 408.869595 322.074374 408.869595 
Q 322.689999 408.869595 323.125937 409.124282 
Q 323.563437 409.377407 323.789999 409.86647 
Q 324.018124 410.35397 324.018124 411.043032 
L 324.018124 411.638345 
Q 324.018124 412.327407 323.783749 412.81647 
Q 323.549374 413.30397 323.099374 413.56022 
Q 322.650937 413.81647 322.021249 413.81647 
z
M 327.31871 413.81647 
Q 326.723398 413.81647 326.26871 413.599282 
Q 325.814023 413.382095 325.53746 412.969595 
Q 325.26246 412.557095 325.189023 411.975845 
L 325.189023 411.975845 
L 326.204648 411.975845 
L 326.204648 411.975845 
Q 326.248398 412.277407 326.395273 412.47272 
Q 326.542148 412.668032 326.773398 412.763345 
Q 327.00621 412.858657 327.31871 412.858657 
Q 327.810898 412.858657 328.084335 412.596157 
Q 328.357773 412.332095 328.357773 411.85397 
L 328.357773 411.638345 
Q 328.357773 411.105532 328.098398 410.81647 
Q 327.840585 410.525845 327.367148 410.525845 
L 326.864023 410.525845 
L 326.864023 409.577407 
L 327.367148 409.577407 
Q 327.782773 409.577407 328.010898 409.32897 
Q 328.240585 409.080532 328.240585 408.625845 
L 328.240585 408.405532 
Q 328.240585 407.986782 327.998398 407.757095 
Q 327.757773 407.527407 327.314023 407.527407 
Q 327.059335 407.527407 326.859335 407.62272 
Q 326.659335 407.718032 326.520273 407.91647 
Q 326.38121 408.113345 326.317148 408.41022 
L 326.317148 408.41022 
L 325.30621 408.41022 
L 325.30621 408.41022 
Q 325.404648 407.830532 325.67496 407.414907 
Q 325.946835 406.999282 326.360898 406.78522 
Q 326.776523 406.569595 327.314023 406.569595 
Q 328.23121 406.569595 328.734335 407.05397 
Q 329.23746 407.536782 329.23746 408.41647 
L 329.23746 408.533657 
Q 329.23746 409.064907 328.948398 409.46022 
Q 328.660898 409.855532 328.134335 410.036782 
Q 328.715585 410.163345 329.034335 410.608657 
Q 329.354648 411.052407 329.354648 411.74147 
L 329.354648 411.858657 
Q 329.354648 412.47897 329.115585 412.918032 
Q 328.876523 413.357095 328.41871 413.586782 
Q 327.96246 413.81647 327.31871 413.81647 
z
M 332.606796 413.81647 
Q 332.011484 413.81647 331.556796 413.599282 
Q 331.102109 413.382095 330.825546 412.969595 
Q 330.550546 412.557095 330.477109 411.975845 
L 330.477109 411.975845 
L 331.492734 411.975845 
L 331.492734 411.975845 
Q 331.536484 412.277407 331.683359 412.47272 
Q 331.830234 412.668032 332.061484 412.763345 
Q 332.294296 412.858657 332.606796 412.858657 
Q 333.098984 412.858657 333.372421 412.596157 
Q 333.645859 412.332095 333.645859 411.85397 
L 333.645859 411.638345 
Q 333.645859 411.105532 333.386484 410.81647 
Q 333.128671 410.525845 332.655234 410.525845 
L 332.152109 410.525845 
L 332.152109 409.577407 
L 332.655234 409.577407 
Q 333.070859 409.577407 333.298984 409.32897 
Q 333.528671 409.080532 333.528671 408.625845 
L 333.528671 408.405532 
Q 333.528671 407.986782 333.286484 407.757095 
Q 333.045859 407.527407 332.602109 407.527407 
Q 332.347421 407.527407 332.147421 407.62272 
Q 331.947421 407.718032 331.808359 407.91647 
Q 331.669296 408.113345 331.605234 408.41022 
L 331.605234 408.41022 
L 330.594296 408.41022 
L 330.594296 408.41022 
Q 330.692734 407.830532 330.963046 407.414907 
Q 331.234921 406.999282 331.648984 406.78522 
Q 332.064609 406.569595 332.602109 406.569595 
Q 333.519296 406.569595 334.022421 407.05397 
Q 334.525546 407.536782 334.525546 408.41647 
L 334.525546 408.533657 
Q 334.525546 409.064907 334.236484 409.46022 
Q 333.948984 409.855532 333.422421 410.036782 
Q 334.003671 410.163345 334.322421 410.608657 
Q 334.642734 411.052407 334.642734 411.74147 
L 334.642734 411.858657 
Q 334.642734 412.47897 334.403671 412.918032 
Q 334.164609 413.357095 333.706796 413.586782 
Q 333.250546 413.81647 332.606796 413.81647 
z
M 335.424569 414.655532 
Q 336.160507 413.830532 336.526132 412.814907 
Q 336.893319 411.799282 336.893319 410.57897 
Q 336.893319 409.358657 336.526132 408.343032 
Q 336.160507 407.327407 335.424569 406.507095 
L 336.107382 405.886782 
Q 336.976132 406.82897 337.407382 407.999282 
Q 337.840194 409.168032 337.840194 410.57897 
Q 337.840194 411.989907 337.407382 413.16022 
Q 336.976132 414.32897 336.107382 415.271157 
L 335.424569 414.655532 
z
" style="fill: #ffffff"/>
   </g>
   <g id="text_3">
    <path d="M 255.33506 439.706733 
L 256.94131 439.706733 
Q 257.727247 439.706733 258.158497 439.298921 
Q 258.59131 438.891108 258.59131 438.148921 
L 258.59131 436.058296 
Q 258.59131 435.316108 258.158497 434.908296 
Q 257.727247 434.500483 256.94131 434.500483 
L 255.33506 434.500483 
L 255.33506 433.553608 
L 256.911622 433.553608 
Q 257.76631 433.553608 258.370997 433.852046 
Q 258.977247 434.148921 259.294435 434.720796 
Q 259.611622 435.292671 259.611622 436.097358 
L 259.611622 438.109858 
Q 259.611622 438.914546 259.294435 439.486421 
Q 258.977247 440.058296 258.369435 440.356733 
Q 257.761622 440.653608 256.906935 440.653608 
L 255.33506 440.653608 
L 255.33506 439.706733 
z
M 254.661622 433.553608 
L 255.656935 433.553608 
L 255.656935 440.653608 
L 254.661622 440.653608 
L 254.661622 433.553608 
z
M 263.59131 437.128608 
L 263.586622 437.303608 
Q 263.464747 437.528608 263.217872 437.633296 
Q 262.970997 437.737983 262.63506 437.737983 
Q 262.127247 437.737983 261.74131 437.480171 
Q 261.355372 437.220796 261.142872 436.750483 
Q 260.930372 436.278608 260.930372 435.658296 
L 260.930372 435.653608 
Q 260.930372 434.964546 261.161622 434.477046 
Q 261.394435 433.987983 261.84131 433.734858 
Q 262.288185 433.480171 262.913185 433.480171 
Q 263.538185 433.480171 263.981935 433.739546 
Q 264.427247 433.99892 264.658497 434.492671 
Q 264.889747 434.984858 264.889747 435.678608 
L 264.889747 435.683296 
Q 264.889747 436.062983 264.79131 436.495796 
Q 264.694435 436.928608 264.514747 437.352046 
Q 264.48506 437.416108 264.455372 437.481733 
Q 264.427247 437.547358 264.392872 437.611421 
L 262.87881 440.653608 
L 261.80381 440.653608 
L 263.59131 437.128608 
z
M 262.913185 436.830171 
Q 263.381935 436.830171 263.638185 436.512983 
Q 263.894435 436.195796 263.894435 435.619233 
L 263.894435 435.614546 
Q 263.894435 435.053608 263.638185 434.745796 
Q 263.381935 434.437983 262.913185 434.437983 
Q 262.439747 434.437983 262.183497 434.745796 
Q 261.927247 435.053608 261.927247 435.619233 
L 261.927247 435.62392 
Q 261.927247 436.200483 262.183497 436.516108 
Q 262.439747 436.830171 262.913185 436.830171 
z
M 266.110645 438.700483 
L 268.493458 433.558296 
L 269.52002 433.558296 
L 267.19502 438.641108 
L 270.67627 438.641108 
L 270.67627 439.564546 
L 266.110645 439.564546 
L 266.110645 438.700483 
z
M 269.173145 436.478608 
L 270.14502 436.478608 
L 270.14502 440.658296 
L 269.173145 440.658296 
L 269.173145 436.478608 
z
M 273.924122 440.727046 
Q 272.927247 440.727046 272.411622 440.195796 
Q 271.89756 439.662983 271.89756 438.709858 
L 271.89756 435.483295 
Q 271.89756 434.525483 272.414747 433.995796 
Q 272.931935 433.466108 273.924122 433.466108 
Q 274.919435 433.466108 275.43506 433.994233 
Q 275.950685 434.520796 275.950685 435.483295 
L 275.950685 438.709858 
Q 275.950685 439.667671 275.431935 440.197358 
Q 274.914747 440.727046 273.924122 440.727046 
z
M 273.924122 439.78017 
Q 274.450685 439.78017 274.702247 439.503608 
Q 274.95381 439.227046 274.95381 438.709858 
L 274.95381 435.483295 
Q 274.95381 434.964546 274.70381 434.689546 
Q 274.455372 434.412983 273.924122 434.412983 
Q 273.39131 434.412983 273.14131 434.689546 
Q 272.892872 434.964546 272.892872 435.483295 
L 272.892872 438.709858 
Q 272.892872 439.227046 273.144435 439.503608 
Q 273.395997 439.78017 273.924122 439.78017 
z
M 279.4417 440.727046 
Q 278.444825 440.727046 277.9292 440.195796 
Q 277.415138 439.662983 277.415138 438.709858 
L 277.415138 435.483295 
Q 277.415138 434.525483 277.932325 433.995796 
Q 278.449513 433.466108 279.4417 433.466108 
Q 280.437013 433.466108 280.952638 433.994233 
Q 281.468263 434.520796 281.468263 435.483295 
L 281.468263 438.709858 
Q 281.468263 439.667671 280.949513 440.197358 
Q 280.432325 440.727046 279.4417 440.727046 
z
M 279.4417 439.78017 
Q 279.968263 439.78017 280.219825 439.503608 
Q 280.471388 439.227046 280.471388 438.709858 
L 280.471388 435.483295 
Q 280.471388 434.964546 280.221388 434.689546 
Q 279.97295 434.412983 279.4417 434.412983 
Q 278.908888 434.412983 278.658888 434.689546 
Q 278.41045 434.964546 278.41045 435.483295 
L 278.41045 438.709858 
Q 278.41045 439.227046 278.662013 439.503608 
Q 278.913575 439.78017 279.4417 439.78017 
z
M 286.521388 442.181733 
Q 285.652638 441.239546 285.219825 440.070796 
Q 284.788575 438.900483 284.788575 437.489546 
Q 284.788575 436.078608 285.219825 434.909858 
Q 285.652638 433.739546 286.521388 432.797358 
L 287.2042 433.417671 
Q 286.468263 434.237983 286.101075 435.253608 
Q 285.73545 436.269233 285.73545 437.489546 
Q 285.73545 438.709858 286.101075 439.725483 
Q 286.468263 440.741108 287.2042 441.566108 
L 286.521388 442.181733 
z
M 290.114942 440.727046 
Q 289.471192 440.727046 288.98213 440.483295 
Q 288.49463 440.237983 288.227442 439.791108 
Q 287.961817 439.344233 287.961817 438.753608 
L 287.961817 438.636421 
Q 287.961817 438.105171 288.227442 437.636421 
Q 288.49463 437.167671 288.93838 436.928608 
Q 288.561817 436.722358 288.335255 436.334858 
Q 288.108692 435.945796 288.108692 435.516108 
L 288.108692 435.345796 
Q 288.108692 434.789546 288.35713 434.367671 
Q 288.605567 433.944233 289.060255 433.712983 
Q 289.514942 433.480171 290.114942 433.480171 
Q 290.714942 433.480171 291.16963 433.712983 
Q 291.624317 433.944233 291.872755 434.367671 
Q 292.121192 434.789546 292.121192 435.345796 
L 292.121192 435.516108 
Q 292.121192 435.956733 291.889942 436.34267 
Q 291.658692 436.727046 291.277442 436.928608 
Q 291.72588 437.172358 291.996192 437.639545 
Q 292.268067 438.105171 292.268067 438.636421 
L 292.268067 438.753608 
Q 292.268067 439.344233 292.002442 439.791108 
Q 291.736817 440.237983 291.247755 440.483295 
Q 290.760255 440.727046 290.114942 440.727046 
z
M 290.114942 439.769233 
Q 290.461817 439.769233 290.724317 439.633296 
Q 290.98838 439.495796 291.13213 439.250483 
Q 291.277442 439.003608 291.277442 438.680171 
L 291.277442 438.612983 
Q 291.277442 438.284858 291.13213 438.039546 
Q 290.98838 437.792671 290.724317 437.656733 
Q 290.461817 437.519233 290.114942 437.519233 
Q 289.768067 437.519233 289.504005 437.656733 
Q 289.241505 437.792671 289.096192 438.041108 
Q 288.952442 438.289546 288.952442 438.617671 
L 288.952442 438.691108 
Q 288.952442 439.012983 289.096192 439.256733 
Q 289.241505 439.500483 289.504005 439.634858 
Q 289.768067 439.769233 290.114942 439.769233 
z
M 290.114942 436.56142 
Q 290.41338 436.56142 290.641505 436.433296 
Q 290.871192 436.303608 290.997755 436.064546 
Q 291.12588 435.823921 291.12588 435.511421 
L 291.12588 435.444233 
Q 291.12588 435.145796 290.997755 434.916108 
Q 290.871192 434.68642 290.641505 434.562983 
Q 290.41338 434.437983 290.114942 434.437983 
Q 289.816505 434.437983 289.586817 434.562983 
Q 289.358692 434.68642 289.230567 434.916108 
Q 289.104005 435.145796 289.104005 435.448921 
L 289.104005 435.522358 
Q 289.104005 435.828608 289.230567 436.066108 
Q 289.358692 436.303608 289.586817 436.433296 
Q 289.816505 436.56142 290.114942 436.56142 
z
M 295.643067 440.727046 
Q 295.105567 440.727046 294.686817 440.517671 
Q 294.26963 440.306733 294.008692 439.906733 
Q 293.747755 439.506733 293.660255 438.944233 
L 293.660255 438.939546 
L 294.655567 438.939546 
L 294.655567 438.944233 
Q 294.710255 439.334858 294.968067 439.552046 
Q 295.227442 439.769233 295.643067 439.769233 
Q 296.121192 439.769233 296.38213 439.450483 
Q 296.643067 439.130171 296.643067 438.548921 
L 296.643067 437.953608 
Q 296.643067 437.377046 296.38213 437.058296 
Q 296.121192 436.737983 295.643067 436.737983 
Q 295.383692 436.737983 295.14463 436.884858 
Q 294.905567 437.03017 294.724317 437.294233 
L 293.816505 437.294233 
L 293.816505 433.553608 
L 297.433692 433.553608 
L 297.433692 434.500483 
L 294.811817 434.500483 
L 294.811817 436.097358 
Q 294.997755 435.945796 295.227442 435.862983 
Q 295.45713 435.78017 295.696192 435.78017 
Q 296.311817 435.78017 296.747755 436.034858 
Q 297.185255 436.287983 297.411817 436.777046 
Q 297.639942 437.264545 297.639942 437.953608 
L 297.639942 438.548921 
Q 297.639942 439.237983 297.405567 439.727046 
Q 297.171192 440.214546 296.721192 440.470796 
Q 296.272755 440.727046 295.643067 440.727046 
z
M 300.940528 440.727046 
Q 300.345216 440.727046 299.890528 440.509858 
Q 299.435841 440.292671 299.159278 439.880171 
Q 298.884278 439.46767 298.810841 438.886421 
L 298.810841 438.886421 
L 299.826466 438.886421 
L 299.826466 438.886421 
Q 299.870216 439.187983 300.017091 439.383296 
Q 300.163966 439.578608 300.395216 439.673921 
Q 300.628028 439.769233 300.940528 439.769233 
Q 301.432716 439.769233 301.706153 439.506733 
Q 301.979591 439.242671 301.979591 438.764545 
L 301.979591 438.548921 
Q 301.979591 438.016108 301.720216 437.727046 
Q 301.462403 437.43642 300.988966 437.43642 
L 300.485841 437.43642 
L 300.485841 436.487983 
L 300.988966 436.487983 
Q 301.404591 436.487983 301.632716 436.239546 
Q 301.862403 435.991108 301.862403 435.536421 
L 301.862403 435.316108 
Q 301.862403 434.897358 301.620216 434.667671 
Q 301.379591 434.437983 300.935841 434.437983 
Q 300.681153 434.437983 300.481153 434.533296 
Q 300.281153 434.628608 300.142091 434.827045 
Q 300.003028 435.023921 299.938966 435.320796 
L 299.938966 435.320796 
L 298.928028 435.320796 
L 298.928028 435.320796 
Q 299.026466 434.741108 299.296778 434.325483 
Q 299.568653 433.909858 299.982716 433.695796 
Q 300.398341 433.480171 300.935841 433.480171 
Q 301.853028 433.480171 302.356153 433.964546 
Q 302.859278 434.447358 302.859278 435.327045 
L 302.859278 435.444233 
Q 302.859278 435.975483 302.570216 436.370796 
Q 302.282716 436.766108 301.756153 436.947358 
Q 302.337403 437.073921 302.656153 437.519233 
Q 302.976466 437.962983 302.976466 438.652046 
L 302.976466 438.769233 
Q 302.976466 439.389545 302.737403 439.828608 
Q 302.498341 440.267671 302.040528 440.497358 
Q 301.584278 440.727046 300.940528 440.727046 
z
M 306.228614 440.727046 
Q 305.633302 440.727046 305.178614 440.509858 
Q 304.723927 440.292671 304.447364 439.880171 
Q 304.172364 439.46767 304.098927 438.886421 
L 304.098927 438.886421 
L 305.114552 438.886421 
L 305.114552 438.886421 
Q 305.158302 439.187983 305.305177 439.383296 
Q 305.452052 439.578608 305.683302 439.673921 
Q 305.916114 439.769233 306.228614 439.769233 
Q 306.720802 439.769233 306.994239 439.506733 
Q 307.267677 439.242671 307.267677 438.764545 
L 307.267677 438.548921 
Q 307.267677 438.016108 307.008302 437.727046 
Q 306.750489 437.43642 306.277052 437.43642 
L 305.773927 437.43642 
L 305.773927 436.487983 
L 306.277052 436.487983 
Q 306.692677 436.487983 306.920802 436.239546 
Q 307.150489 435.991108 307.150489 435.536421 
L 307.150489 435.316108 
Q 307.150489 434.897358 306.908302 434.667671 
Q 306.667677 434.437983 306.223927 434.437983 
Q 305.969239 434.437983 305.769239 434.533296 
Q 305.569239 434.628608 305.430177 434.827045 
Q 305.291114 435.023921 305.227052 435.320796 
L 305.227052 435.320796 
L 304.216114 435.320796 
L 304.216114 435.320796 
Q 304.314552 434.741108 304.584864 434.325483 
Q 304.856739 433.909858 305.270802 433.695796 
Q 305.686427 433.480171 306.223927 433.480171 
Q 307.141114 433.480171 307.644239 433.964546 
Q 308.147364 434.447358 308.147364 435.327045 
L 308.147364 435.444233 
Q 308.147364 435.975483 307.858302 436.370796 
Q 307.570802 436.766108 307.044239 436.947358 
Q 307.625489 437.073921 307.944239 437.519233 
Q 308.264552 437.962983 308.264552 438.652046 
L 308.264552 438.769233 
Q 308.264552 439.389545 308.025489 439.828608 
Q 307.786427 440.267671 307.328614 440.497358 
Q 306.872364 440.727046 306.228614 440.727046 
z
M 309.046388 441.566108 
Q 309.782325 440.741108 310.14795 439.725483 
Q 310.515138 438.709858 310.515138 437.489546 
Q 310.515138 436.269233 310.14795 435.253608 
Q 309.782325 434.237983 309.046388 433.417671 
L 309.7292 432.797358 
Q 310.59795 433.739546 311.0292 434.909858 
Q 311.462013 436.078608 311.462013 437.489546 
Q 311.462013 438.900483 311.0292 440.070796 
Q 310.59795 441.239546 309.7292 442.181733 
L 309.046388 441.566108 
z
" style="fill: #ffffff; stroke: #000000"/>
    <path d="M 255.33506 439.706733 
L 256.94131 439.706733 
Q 257.727247 439.706733 258.158497 439.298921 
Q 258.59131 438.891108 258.59131 438.148921 
L 258.59131 436.058296 
Q 258.59131 435.316108 258.158497 434.908296 
Q 257.727247 434.500483 256.94131 434.500483 
L 255.33506 434.500483 
L 255.33506 433.553608 
L 256.911622 433.553608 
Q 257.76631 433.553608 258.370997 433.852046 
Q 258.977247 434.148921 259.294435 434.720796 
Q 259.611622 435.292671 259.611622 436.097358 
L 259.611622 438.109858 
Q 259.611622 438.914546 259.294435 439.486421 
Q 258.977247 440.058296 258.369435 440.356733 
Q 257.761622 440.653608 256.906935 440.653608 
L 255.33506 440.653608 
L 255.33506 439.706733 
z
M 254.661622 433.553608 
L 255.656935 433.553608 
L 255.656935 440.653608 
L 254.661622 440.653608 
L 254.661622 433.553608 
z
M 263.59131 437.128608 
L 263.586622 437.303608 
Q 263.464747 437.528608 263.217872 437.633296 
Q 262.970997 437.737983 262.63506 437.737983 
Q 262.127247 437.737983 261.74131 437.480171 
Q 261.355372 437.220796 261.142872 436.750483 
Q 260.930372 436.278608 260.930372 435.658296 
L 260.930372 435.653608 
Q 260.930372 434.964546 261.161622 434.477046 
Q 261.394435 433.987983 261.84131 433.734858 
Q 262.288185 433.480171 262.913185 433.480171 
Q 263.538185 433.480171 263.981935 433.739546 
Q 264.427247 433.99892 264.658497 434.492671 
Q 264.889747 434.984858 264.889747 435.678608 
L 264.889747 435.683296 
Q 264.889747 436.062983 264.79131 436.495796 
Q 264.694435 436.928608 264.514747 437.352046 
Q 264.48506 437.416108 264.455372 437.481733 
Q 264.427247 437.547358 264.392872 437.611421 
L 262.87881 440.653608 
L 261.80381 440.653608 
L 263.59131 437.128608 
z
M 262.913185 436.830171 
Q 263.381935 436.830171 263.638185 436.512983 
Q 263.894435 436.195796 263.894435 435.619233 
L 263.894435 435.614546 
Q 263.894435 435.053608 263.638185 434.745796 
Q 263.381935 434.437983 262.913185 434.437983 
Q 262.439747 434.437983 262.183497 434.745796 
Q 261.927247 435.053608 261.927247 435.619233 
L 261.927247 435.62392 
Q 261.927247 436.200483 262.183497 436.516108 
Q 262.439747 436.830171 262.913185 436.830171 
z
M 266.110645 438.700483 
L 268.493458 433.558296 
L 269.52002 433.558296 
L 267.19502 438.641108 
L 270.67627 438.641108 
L 270.67627 439.564546 
L 266.110645 439.564546 
L 266.110645 438.700483 
z
M 269.173145 436.478608 
L 270.14502 436.478608 
L 270.14502 440.658296 
L 269.173145 440.658296 
L 269.173145 436.478608 
z
M 273.924122 440.727046 
Q 272.927247 440.727046 272.411622 440.195796 
Q 271.89756 439.662983 271.89756 438.709858 
L 271.89756 435.483295 
Q 271.89756 434.525483 272.414747 433.995796 
Q 272.931935 433.466108 273.924122 433.466108 
Q 274.919435 433.466108 275.43506 433.994233 
Q 275.950685 434.520796 275.950685 435.483295 
L 275.950685 438.709858 
Q 275.950685 439.667671 275.431935 440.197358 
Q 274.914747 440.727046 273.924122 440.727046 
z
M 273.924122 439.78017 
Q 274.450685 439.78017 274.702247 439.503608 
Q 274.95381 439.227046 274.95381 438.709858 
L 274.95381 435.483295 
Q 274.95381 434.964546 274.70381 434.689546 
Q 274.455372 434.412983 273.924122 434.412983 
Q 273.39131 434.412983 273.14131 434.689546 
Q 272.892872 434.964546 272.892872 435.483295 
L 272.892872 438.709858 
Q 272.892872 439.227046 273.144435 439.503608 
Q 273.395997 439.78017 273.924122 439.78017 
z
M 279.4417 440.727046 
Q 278.444825 440.727046 277.9292 440.195796 
Q 277.415138 439.662983 277.415138 438.709858 
L 277.415138 435.483295 
Q 277.415138 434.525483 277.932325 433.995796 
Q 278.449513 433.466108 279.4417 433.466108 
Q 280.437013 433.466108 280.952638 433.994233 
Q 281.468263 434.520796 281.468263 435.483295 
L 281.468263 438.709858 
Q 281.468263 439.667671 280.949513 440.197358 
Q 280.432325 440.727046 279.4417 440.727046 
z
M 279.4417 439.78017 
Q 279.968263 439.78017 280.219825 439.503608 
Q 280.471388 439.227046 280.471388 438.709858 
L 280.471388 435.483295 
Q 280.471388 434.964546 280.221388 434.689546 
Q 279.97295 434.412983 279.4417 434.412983 
Q 278.908888 434.412983 278.658888 434.689546 
Q 278.41045 434.964546 278.41045 435.483295 
L 278.41045 438.709858 
Q 278.41045 439.227046 278.662013 439.503608 
Q 278.913575 439.78017 279.4417 439.78017 
z
M 286.521388 442.181733 
Q 285.652638 441.239546 285.219825 440.070796 
Q 284.788575 438.900483 284.788575 437.489546 
Q 284.788575 436.078608 285.219825 434.909858 
Q 285.652638 433.739546 286.521388 432.797358 
L 287.2042 433.417671 
Q 286.468263 434.237983 286.101075 435.253608 
Q 285.73545 436.269233 285.73545 437.489546 
Q 285.73545 438.709858 286.101075 439.725483 
Q 286.468263 440.741108 287.2042 441.566108 
L 286.521388 442.181733 
z
M 290.114942 440.727046 
Q 289.471192 440.727046 288.98213 440.483295 
Q 288.49463 440.237983 288.227442 439.791108 
Q 287.961817 439.344233 287.961817 438.753608 
L 287.961817 438.636421 
Q 287.961817 438.105171 288.227442 437.636421 
Q 288.49463 437.167671 288.93838 436.928608 
Q 288.561817 436.722358 288.335255 436.334858 
Q 288.108692 435.945796 288.108692 435.516108 
L 288.108692 435.345796 
Q 288.108692 434.789546 288.35713 434.367671 
Q 288.605567 433.944233 289.060255 433.712983 
Q 289.514942 433.480171 290.114942 433.480171 
Q 290.714942 433.480171 291.16963 433.712983 
Q 291.624317 433.944233 291.872755 434.367671 
Q 292.121192 434.789546 292.121192 435.345796 
L 292.121192 435.516108 
Q 292.121192 435.956733 291.889942 436.34267 
Q 291.658692 436.727046 291.277442 436.928608 
Q 291.72588 437.172358 291.996192 437.639545 
Q 292.268067 438.105171 292.268067 438.636421 
L 292.268067 438.753608 
Q 292.268067 439.344233 292.002442 439.791108 
Q 291.736817 440.237983 291.247755 440.483295 
Q 290.760255 440.727046 290.114942 440.727046 
z
M 290.114942 439.769233 
Q 290.461817 439.769233 290.724317 439.633296 
Q 290.98838 439.495796 291.13213 439.250483 
Q 291.277442 439.003608 291.277442 438.680171 
L 291.277442 438.612983 
Q 291.277442 438.284858 291.13213 438.039546 
Q 290.98838 437.792671 290.724317 437.656733 
Q 290.461817 437.519233 290.114942 437.519233 
Q 289.768067 437.519233 289.504005 437.656733 
Q 289.241505 437.792671 289.096192 438.041108 
Q 288.952442 438.289546 288.952442 438.617671 
L 288.952442 438.691108 
Q 288.952442 439.012983 289.096192 439.256733 
Q 289.241505 439.500483 289.504005 439.634858 
Q 289.768067 439.769233 290.114942 439.769233 
z
M 290.114942 436.56142 
Q 290.41338 436.56142 290.641505 436.433296 
Q 290.871192 436.303608 290.997755 436.064546 
Q 291.12588 435.823921 291.12588 435.511421 
L 291.12588 435.444233 
Q 291.12588 435.145796 290.997755 434.916108 
Q 290.871192 434.68642 290.641505 434.562983 
Q 290.41338 434.437983 290.114942 434.437983 
Q 289.816505 434.437983 289.586817 434.562983 
Q 289.358692 434.68642 289.230567 434.916108 
Q 289.104005 435.145796 289.104005 435.448921 
L 289.104005 435.522358 
Q 289.104005 435.828608 289.230567 436.066108 
Q 289.358692 436.303608 289.586817 436.433296 
Q 289.816505 436.56142 290.114942 436.56142 
z
M 295.643067 440.727046 
Q 295.105567 440.727046 294.686817 440.517671 
Q 294.26963 440.306733 294.008692 439.906733 
Q 293.747755 439.506733 293.660255 438.944233 
L 293.660255 438.939546 
L 294.655567 438.939546 
L 294.655567 438.944233 
Q 294.710255 439.334858 294.968067 439.552046 
Q 295.227442 439.769233 295.643067 439.769233 
Q 296.121192 439.769233 296.38213 439.450483 
Q 296.643067 439.130171 296.643067 438.548921 
L 296.643067 437.953608 
Q 296.643067 437.377046 296.38213 437.058296 
Q 296.121192 436.737983 295.643067 436.737983 
Q 295.383692 436.737983 295.14463 436.884858 
Q 294.905567 437.03017 294.724317 437.294233 
L 293.816505 437.294233 
L 293.816505 433.553608 
L 297.433692 433.553608 
L 297.433692 434.500483 
L 294.811817 434.500483 
L 294.811817 436.097358 
Q 294.997755 435.945796 295.227442 435.862983 
Q 295.45713 435.78017 295.696192 435.78017 
Q 296.311817 435.78017 296.747755 436.034858 
Q 297.185255 436.287983 297.411817 436.777046 
Q 297.639942 437.264545 297.639942 437.953608 
L 297.639942 438.548921 
Q 297.639942 439.237983 297.405567 439.727046 
Q 297.171192 440.214546 296.721192 440.470796 
Q 296.272755 440.727046 295.643067 440.727046 
z
M 300.940528 440.727046 
Q 300.345216 440.727046 299.890528 440.509858 
Q 299.435841 440.292671 299.159278 439.880171 
Q 298.884278 439.46767 298.810841 438.886421 
L 298.810841 438.886421 
L 299.826466 438.886421 
L 299.826466 438.886421 
Q 299.870216 439.187983 300.017091 439.383296 
Q 300.163966 439.578608 300.395216 439.673921 
Q 300.628028 439.769233 300.940528 439.769233 
Q 301.432716 439.769233 301.706153 439.506733 
Q 301.979591 439.242671 301.979591 438.764545 
L 301.979591 438.548921 
Q 301.979591 438.016108 301.720216 437.727046 
Q 301.462403 437.43642 300.988966 437.43642 
L 300.485841 437.43642 
L 300.485841 436.487983 
L 300.988966 436.487983 
Q 301.404591 436.487983 301.632716 436.239546 
Q 301.862403 435.991108 301.862403 435.536421 
L 301.862403 435.316108 
Q 301.862403 434.897358 301.620216 434.667671 
Q 301.379591 434.437983 300.935841 434.437983 
Q 300.681153 434.437983 300.481153 434.533296 
Q 300.281153 434.628608 300.142091 434.827045 
Q 300.003028 435.023921 299.938966 435.320796 
L 299.938966 435.320796 
L 298.928028 435.320796 
L 298.928028 435.320796 
Q 299.026466 434.741108 299.296778 434.325483 
Q 299.568653 433.909858 299.982716 433.695796 
Q 300.398341 433.480171 300.935841 433.480171 
Q 301.853028 433.480171 302.356153 433.964546 
Q 302.859278 434.447358 302.859278 435.327045 
L 302.859278 435.444233 
Q 302.859278 435.975483 302.570216 436.370796 
Q 302.282716 436.766108 301.756153 436.947358 
Q 302.337403 437.073921 302.656153 437.519233 
Q 302.976466 437.962983 302.976466 438.652046 
L 302.976466 438.769233 
Q 302.976466 439.389545 302.737403 439.828608 
Q 302.498341 440.267671 302.040528 440.497358 
Q 301.584278 440.727046 300.940528 440.727046 
z
M 306.228614 440.727046 
Q 305.633302 440.727046 305.178614 440.509858 
Q 304.723927 440.292671 304.447364 439.880171 
Q 304.172364 439.46767 304.098927 438.886421 
L 304.098927 438.886421 
L 305.114552 438.886421 
L 305.114552 438.886421 
Q 305.158302 439.187983 305.305177 439.383296 
Q 305.452052 439.578608 305.683302 439.673921 
Q 305.916114 439.769233 306.228614 439.769233 
Q 306.720802 439.769233 306.994239 439.506733 
Q 307.267677 439.242671 307.267677 438.764545 
L 307.267677 438.548921 
Q 307.267677 438.016108 307.008302 437.727046 
Q 306.750489 437.43642 306.277052 437.43642 
L 305.773927 437.43642 
L 305.773927 436.487983 
L 306.277052 436.487983 
Q 306.692677 436.487983 306.920802 436.239546 
Q 307.150489 435.991108 307.150489 435.536421 
L 307.150489 435.316108 
Q 307.150489 434.897358 306.908302 434.667671 
Q 306.667677 434.437983 306.223927 434.437983 
Q 305.969239 434.437983 305.769239 434.533296 
Q 305.569239 434.628608 305.430177 434.827045 
Q 305.291114 435.023921 305.227052 435.320796 
L 305.227052 435.320796 
L 304.216114 435.320796 
L 304.216114 435.320796 
Q 304.314552 434.741108 304.584864 434.325483 
Q 304.856739 433.909858 305.270802 433.695796 
Q 305.686427 433.480171 306.223927 433.480171 
Q 307.141114 433.480171 307.644239 433.964546 
Q 308.147364 434.447358 308.147364 435.327045 
L 308.147364 435.444233 
Q 308.147364 435.975483 307.858302 436.370796 
Q 307.570802 436.766108 307.044239 436.947358 
Q 307.625489 437.073921 307.944239 437.519233 
Q 308.264552 437.962983 308.264552 438.652046 
L 308.264552 438.769233 
Q 308.264552 439.389545 308.025489 439.828608 
Q 307.786427 440.267671 307.328614 440.497358 
Q 306.872364 440.727046 306.228614 440.727046 
z
M 309.046388 441.566108 
Q 309.782325 440.741108 310.14795 439.725483 
Q 310.515138 438.709858 310.515138 437.489546 
Q 310.515138 436.269233 310.14795 435.253608 
Q 309.782325 434.237983 309.046388 433.417671 
L 309.7292 432.797358 
Q 310.59795 433.739546 311.0292 434.909858 
Q 311.462013 436.078608 311.462013 437.489546 
Q 311.462013 438.900483 311.0292 440.070796 
Q 310.59795 441.239546 309.7292 442.181733 
L 309.046388 441.566108 
z
" style="fill: #ffffff"/>
   </g>
  </g>
 </g>
 <defs>
  <clipPath id="p9c4ab21a44">
   <rect x="144" y="77.76" width="892.8" height="498.96"/>
  </clipPath>
 </defs>
</svg>
