<?xml version="1.0" encoding="utf-8" standalone="no"?>
<!DOCTYPE svg PUBLIC "-//W3C//DTD SVG 1.1//EN"
  "http://www.w3.org/Graphics/SVG/1.1/DTD/svg11.dtd">
<svg xmlns:xlink="http://www.w3.org/1999/xlink" width="1152pt" height="648pt" viewBox="0 0 1152 648" xmlns="http://www.w3.org/2000/svg" version="1.1">
 <metadata>
  <rdf:RDF xmlns:dc="http://purl.org/dc/elements/1.1/" xmlns:cc="http://creativecommons.org/ns#" xmlns:rdf="http://www.w3.org/1999/02/22-rdf-syntax-ns#">
   <cc:Work>
    <dc:type rdf:resource="http://purl.org/dc/dcmitype/StillImage"/>
    <dc:date>2025-09-19T13:20:10.415726</dc:date>
    <dc:format>image/svg+xml</dc:format>
    <dc:creator>
     <cc:Agent>
      <dc:title>Matplotlib v3.10.3, https://matplotlib.org/</dc:title>
     </cc:Agent>
    </dc:creator>
   </cc:Work>
  </rdf:RDF>
 </metadata>
 <defs>
  <style type="text/css">*{stroke-linejoin: round; stroke-linecap: butt}</style>
 </defs>
 <g id="figure_1">
  <g id="patch_1">
   <path d="M 0 648 
L 1152 648 
L 1152 0 
L 0 0 
L 0 648 
z
" style="fill: none"/>
  </g>
  <g id="axes_1">
   <g id="PathCollection_1">
    <defs>
     <path id="m0ea130e217" d="M 0 2.738613 
C 0.726289 2.738613 1.422928 2.450055 1.936492 1.936492 
C 2.450055 1.422928 2.738613 0.726289 2.738613 0 
C 2.738613 -0.726289 2.450055 -1.422928 1.936492 -1.936492 
C 1.422928 -2.450055 0.726289 -2.738613 0 -2.738613 
C -0.726289 -2.738613 -1.422928 -2.450055 -1.936492 -1.936492 
C -2.450055 -1.422928 -2.738613 -0.726289 -2.738613 0 
C -2.738613 0.726289 -2.450055 1.422928 -1.936492 1.936492 
C -1.422928 2.450055 -0.726289 2.738613 0 2.738613 
z
" style="stroke: #66ff33"/>
    </defs>
    <g clip-path="url(#p2ea66aa75c)">
     <use xlink:href="#m0ea130e217" x="625.300364" y="264.836736" style="fill: #66ff33; stroke: #66ff33"/>
     <use xlink:href="#m0ea130e217" x="249.918545" y="437.942592" style="fill: #66ff33; stroke: #66ff33"/>
    </g>
   </g>
   <g id="text_1">
    <path d="M 634.005344 259.383304 
L 634.855344 259.383304 
L 637.472531 266.483304 
L 636.397531 266.483304 
L 634.430344 260.755179 
L 632.463156 266.483304 
L 631.388156 266.483304 
L 634.005344 259.383304 
z
M 632.594406 263.978617 
L 636.330344 263.978617 
L 636.330344 264.925492 
L 632.594406 264.925492 
L 632.594406 263.978617 
z
M 640.114328 266.483304 
L 639.117453 266.483304 
L 639.117453 260.467679 
L 638.106516 261.087992 
L 638.106516 260.056742 
L 639.117453 259.383304 
L 640.114328 259.383304 
L 640.114328 266.483304 
z
M 643.805148 266.556742 
Q 643.161398 266.556742 642.672336 266.312992 
Q 642.184836 266.067679 641.917648 265.620804 
Q 641.652023 265.173929 641.652023 264.583304 
L 641.652023 264.466117 
Q 641.652023 263.934867 641.917648 263.466117 
Q 642.184836 262.997367 642.628586 262.758304 
Q 642.252023 262.552054 642.025461 262.164554 
Q 641.798898 261.775492 641.798898 261.345804 
L 641.798898 261.175492 
Q 641.798898 260.619242 642.047336 260.197367 
Q 642.295773 259.773929 642.750461 259.542679 
Q 643.205148 259.309867 643.805148 259.309867 
Q 644.405148 259.309867 644.859836 259.542679 
Q 645.314523 259.773929 645.562961 260.197367 
Q 645.811398 260.619242 645.811398 261.175492 
L 645.811398 261.345804 
Q 645.811398 261.786429 645.580148 262.172367 
Q 645.348898 262.556742 644.967648 262.758304 
Q 645.416086 263.002054 645.686398 263.469242 
Q 645.958273 263.934867 645.958273 264.466117 
L 645.958273 264.583304 
Q 645.958273 265.173929 645.692648 265.620804 
Q 645.427023 266.067679 644.937961 266.312992 
Q 644.450461 266.556742 643.805148 266.556742 
z
M 643.805148 265.598929 
Q 644.152023 265.598929 644.414523 265.462992 
Q 644.678586 265.325492 644.822336 265.080179 
Q 644.967648 264.833304 644.967648 264.509867 
L 644.967648 264.442679 
Q 644.967648 264.114554 644.822336 263.869242 
Q 644.678586 263.622367 644.414523 263.486429 
Q 644.152023 263.348929 643.805148 263.348929 
Q 643.458273 263.348929 643.194211 263.486429 
Q 642.931711 263.622367 642.786398 263.870804 
Q 642.642648 264.119242 642.642648 264.447367 
L 642.642648 264.520804 
Q 642.642648 264.842679 642.786398 265.086429 
Q 642.931711 265.330179 643.194211 265.464554 
Q 643.458273 265.598929 643.805148 265.598929 
z
M 643.805148 262.391117 
Q 644.103586 262.391117 644.331711 262.262992 
Q 644.561398 262.133304 644.687961 261.894242 
Q 644.816086 261.653617 644.816086 261.341117 
L 644.816086 261.273929 
Q 644.816086 260.975492 644.687961 260.745804 
Q 644.561398 260.516117 644.331711 260.392679 
Q 644.103586 260.267679 643.805148 260.267679 
Q 643.506711 260.267679 643.277023 260.392679 
Q 643.048898 260.516117 642.920773 260.745804 
Q 642.794211 260.975492 642.794211 261.278617 
L 642.794211 261.352054 
Q 642.794211 261.658304 642.920773 261.895804 
Q 643.048898 262.133304 643.277023 262.262992 
Q 643.506711 262.391117 643.805148 262.391117 
z
M 649.71882 262.781742 
L 651.989133 262.781742 
Q 652.311008 262.781742 652.554758 262.630179 
Q 652.80007 262.478617 652.932883 262.200492 
Q 653.067258 261.922367 653.067258 261.561429 
L 653.067258 261.561429 
Q 653.067258 261.195804 652.932883 260.917679 
Q 652.80007 260.637992 652.554758 260.484867 
Q 652.311008 260.330179 651.989133 260.330179 
L 649.71882 260.330179 
L 649.71882 259.383304 
L 651.954758 259.383304 
Q 652.589133 259.383304 653.071945 259.655179 
Q 653.55632 259.925492 653.821945 260.419242 
Q 654.089133 260.911429 654.089133 261.561429 
L 654.089133 261.561429 
Q 654.089133 262.211429 653.821945 262.702054 
Q 653.55632 263.192679 653.071945 263.461429 
Q 652.589133 263.728617 651.954758 263.728617 
L 649.71882 263.728617 
L 649.71882 262.781742 
z
M 649.20632 259.383304 
L 650.201633 259.383304 
L 650.201633 266.483304 
L 649.20632 266.483304 
L 649.20632 259.383304 
z
M 655.333469 261.414554 
L 656.330344 261.414554 
L 656.330344 266.483304 
L 655.333469 266.483304 
L 655.333469 261.414554 
z
M 658.120969 262.616117 
Q 657.989719 262.455179 657.789719 262.372367 
Q 657.589719 262.289554 657.325656 262.289554 
Q 656.852219 262.289554 656.591281 262.550492 
Q 656.330344 262.811429 656.330344 263.275492 
L 656.227219 262.298929 
Q 656.461594 261.844242 656.831906 261.592679 
Q 657.203781 261.341117 657.652219 261.341117 
Q 657.999094 261.341117 658.280344 261.441117 
Q 658.561594 261.541117 658.770969 261.736429 
L 658.120969 262.616117 
z
M 661.544797 266.556742 
Q 660.885422 266.556742 660.416672 266.298929 
Q 659.947922 266.039554 659.701047 265.544242 
Q 659.454172 265.047367 659.454172 264.348929 
L 659.454172 263.523929 
Q 659.454172 262.836429 659.701047 262.345804 
Q 659.947922 261.853617 660.416672 261.597367 
Q 660.885422 261.341117 661.544797 261.341117 
Q 662.204172 261.341117 662.672922 261.597367 
Q 663.141672 261.853617 663.386984 262.345804 
Q 663.633859 262.836429 663.633859 263.523929 
L 663.633859 264.364554 
Q 663.633859 265.056742 663.386984 265.548929 
Q 663.141672 266.039554 662.672922 266.298929 
Q 662.204172 266.556742 661.544797 266.556742 
z
M 661.544797 265.609867 
Q 662.066672 265.609867 662.352609 265.283304 
Q 662.638547 264.955179 662.638547 264.364554 
L 662.638547 263.523929 
Q 662.638547 262.933304 662.352609 262.611429 
Q 662.066672 262.289554 661.544797 262.289554 
Q 661.021359 262.289554 660.735422 262.611429 
Q 660.451047 262.933304 660.451047 263.523929 
L 660.451047 264.364554 
Q 660.451047 264.955179 660.735422 265.283304 
Q 661.021359 265.609867 661.544797 265.609867 
z
" style="fill: #ffffff; stroke: #000000"/>
    <path d="M 634.005344 259.383304 
L 634.855344 259.383304 
L 637.472531 266.483304 
L 636.397531 266.483304 
L 634.430344 260.755179 
L 632.463156 266.483304 
L 631.388156 266.483304 
L 634.005344 259.383304 
z
M 632.594406 263.978617 
L 636.330344 263.978617 
L 636.330344 264.925492 
L 632.594406 264.925492 
L 632.594406 263.978617 
z
M 640.114328 266.483304 
L 639.117453 266.483304 
L 639.117453 260.467679 
L 638.106516 261.087992 
L 638.106516 260.056742 
L 639.117453 259.383304 
L 640.114328 259.383304 
L 640.114328 266.483304 
z
M 643.805148 266.556742 
Q 643.161398 266.556742 642.672336 266.312992 
Q 642.184836 266.067679 641.917648 265.620804 
Q 641.652023 265.173929 641.652023 264.583304 
L 641.652023 264.466117 
Q 641.652023 263.934867 641.917648 263.466117 
Q 642.184836 262.997367 642.628586 262.758304 
Q 642.252023 262.552054 642.025461 262.164554 
Q 641.798898 261.775492 641.798898 261.345804 
L 641.798898 261.175492 
Q 641.798898 260.619242 642.047336 260.197367 
Q 642.295773 259.773929 642.750461 259.542679 
Q 643.205148 259.309867 643.805148 259.309867 
Q 644.405148 259.309867 644.859836 259.542679 
Q 645.314523 259.773929 645.562961 260.197367 
Q 645.811398 260.619242 645.811398 261.175492 
L 645.811398 261.345804 
Q 645.811398 261.786429 645.580148 262.172367 
Q 645.348898 262.556742 644.967648 262.758304 
Q 645.416086 263.002054 645.686398 263.469242 
Q 645.958273 263.934867 645.958273 264.466117 
L 645.958273 264.583304 
Q 645.958273 265.173929 645.692648 265.620804 
Q 645.427023 266.067679 644.937961 266.312992 
Q 644.450461 266.556742 643.805148 266.556742 
z
M 643.805148 265.598929 
Q 644.152023 265.598929 644.414523 265.462992 
Q 644.678586 265.325492 644.822336 265.080179 
Q 644.967648 264.833304 644.967648 264.509867 
L 644.967648 264.442679 
Q 644.967648 264.114554 644.822336 263.869242 
Q 644.678586 263.622367 644.414523 263.486429 
Q 644.152023 263.348929 643.805148 263.348929 
Q 643.458273 263.348929 643.194211 263.486429 
Q 642.931711 263.622367 642.786398 263.870804 
Q 642.642648 264.119242 642.642648 264.447367 
L 642.642648 264.520804 
Q 642.642648 264.842679 642.786398 265.086429 
Q 642.931711 265.330179 643.194211 265.464554 
Q 643.458273 265.598929 643.805148 265.598929 
z
M 643.805148 262.391117 
Q 644.103586 262.391117 644.331711 262.262992 
Q 644.561398 262.133304 644.687961 261.894242 
Q 644.816086 261.653617 644.816086 261.341117 
L 644.816086 261.273929 
Q 644.816086 260.975492 644.687961 260.745804 
Q 644.561398 260.516117 644.331711 260.392679 
Q 644.103586 260.267679 643.805148 260.267679 
Q 643.506711 260.267679 643.277023 260.392679 
Q 643.048898 260.516117 642.920773 260.745804 
Q 642.794211 260.975492 642.794211 261.278617 
L 642.794211 261.352054 
Q 642.794211 261.658304 642.920773 261.895804 
Q 643.048898 262.133304 643.277023 262.262992 
Q 643.506711 262.391117 643.805148 262.391117 
z
M 649.71882 262.781742 
L 651.989133 262.781742 
Q 652.311008 262.781742 652.554758 262.630179 
Q 652.80007 262.478617 652.932883 262.200492 
Q 653.067258 261.922367 653.067258 261.561429 
L 653.067258 261.561429 
Q 653.067258 261.195804 652.932883 260.917679 
Q 652.80007 260.637992 652.554758 260.484867 
Q 652.311008 260.330179 651.989133 260.330179 
L 649.71882 260.330179 
L 649.71882 259.383304 
L 651.954758 259.383304 
Q 652.589133 259.383304 653.071945 259.655179 
Q 653.55632 259.925492 653.821945 260.419242 
Q 654.089133 260.911429 654.089133 261.561429 
L 654.089133 261.561429 
Q 654.089133 262.211429 653.821945 262.702054 
Q 653.55632 263.192679 653.071945 263.461429 
Q 652.589133 263.728617 651.954758 263.728617 
L 649.71882 263.728617 
L 649.71882 262.781742 
z
M 649.20632 259.383304 
L 650.201633 259.383304 
L 650.201633 266.483304 
L 649.20632 266.483304 
L 649.20632 259.383304 
z
M 655.333469 261.414554 
L 656.330344 261.414554 
L 656.330344 266.483304 
L 655.333469 266.483304 
L 655.333469 261.414554 
z
M 658.120969 262.616117 
Q 657.989719 262.455179 657.789719 262.372367 
Q 657.589719 262.289554 657.325656 262.289554 
Q 656.852219 262.289554 656.591281 262.550492 
Q 656.330344 262.811429 656.330344 263.275492 
L 656.227219 262.298929 
Q 656.461594 261.844242 656.831906 261.592679 
Q 657.203781 261.341117 657.652219 261.341117 
Q 657.999094 261.341117 658.280344 261.441117 
Q 658.561594 261.541117 658.770969 261.736429 
L 658.120969 262.616117 
z
M 661.544797 266.556742 
Q 660.885422 266.556742 660.416672 266.298929 
Q 659.947922 266.039554 659.701047 265.544242 
Q 659.454172 265.047367 659.454172 264.348929 
L 659.454172 263.523929 
Q 659.454172 262.836429 659.701047 262.345804 
Q 659.947922 261.853617 660.416672 261.597367 
Q 660.885422 261.341117 661.544797 261.341117 
Q 662.204172 261.341117 662.672922 261.597367 
Q 663.141672 261.853617 663.386984 262.345804 
Q 663.633859 262.836429 663.633859 263.523929 
L 663.633859 264.364554 
Q 663.633859 265.056742 663.386984 265.548929 
Q 663.141672 266.039554 662.672922 266.298929 
Q 662.204172 266.556742 661.544797 266.556742 
z
M 661.544797 265.609867 
Q 662.066672 265.609867 662.352609 265.283304 
Q 662.638547 264.955179 662.638547 264.364554 
L 662.638547 263.523929 
Q 662.638547 262.933304 662.352609 262.611429 
Q 662.066672 262.289554 661.544797 262.289554 
Q 661.021359 262.289554 660.735422 262.611429 
Q 660.451047 262.933304 660.451047 263.523929 
L 660.451047 264.364554 
Q 660.451047 264.955179 660.735422 265.283304 
Q 661.021359 265.609867 661.544797 265.609867 
z
" style="fill: #ffffff"/>
   </g>
   <g id="text_2">
    <path d="M 258.623525 432.48916 
L 259.473525 432.48916 
L 262.090713 439.58916 
L 261.015713 439.58916 
L 259.048525 433.861035 
L 257.081338 439.58916 
L 256.006338 439.58916 
L 258.623525 432.48916 
z
M 257.212588 437.084473 
L 260.948525 437.084473 
L 260.948525 438.031347 
L 257.212588 438.031347 
L 257.212588 437.084473 
z
M 264.73251 439.58916 
L 263.735635 439.58916 
L 263.735635 433.573535 
L 262.724697 434.193848 
L 262.724697 433.162598 
L 263.735635 432.48916 
L 264.73251 432.48916 
L 264.73251 439.58916 
z
M 268.42333 439.662598 
Q 267.77958 439.662598 267.290518 439.418847 
Q 266.803018 439.173535 266.53583 438.72666 
Q 266.270205 438.279785 266.270205 437.68916 
L 266.270205 437.571973 
Q 266.270205 437.040723 266.53583 436.571973 
Q 266.803018 436.103223 267.246768 435.86416 
Q 266.870205 435.65791 266.643643 435.27041 
Q 266.41708 434.881348 266.41708 434.45166 
L 266.41708 434.281347 
Q 266.41708 433.725098 266.665518 433.303223 
Q 266.913955 432.879785 267.368643 432.648535 
Q 267.82333 432.415723 268.42333 432.415723 
Q 269.02333 432.415723 269.478018 432.648535 
Q 269.932705 432.879785 270.181143 433.303223 
Q 270.42958 433.725098 270.42958 434.281347 
L 270.42958 434.45166 
Q 270.42958 434.892285 270.19833 435.278222 
Q 269.96708 435.662598 269.58583 435.86416 
Q 270.034268 436.10791 270.30458 436.575097 
Q 270.576455 437.040723 270.576455 437.571973 
L 270.576455 437.68916 
Q 270.576455 438.279785 270.31083 438.72666 
Q 270.045205 439.173535 269.556143 439.418847 
Q 269.068643 439.662598 268.42333 439.662598 
z
M 268.42333 438.704785 
Q 268.770205 438.704785 269.032705 438.568848 
Q 269.296768 438.431348 269.440518 438.186035 
Q 269.58583 437.93916 269.58583 437.615723 
L 269.58583 437.548535 
Q 269.58583 437.22041 269.440518 436.975098 
Q 269.296768 436.728223 269.032705 436.592285 
Q 268.770205 436.454785 268.42333 436.454785 
Q 268.076455 436.454785 267.812393 436.592285 
Q 267.549893 436.728223 267.40458 436.97666 
Q 267.26083 437.225098 267.26083 437.553223 
L 267.26083 437.62666 
Q 267.26083 437.948535 267.40458 438.192285 
Q 267.549893 438.436035 267.812393 438.57041 
Q 268.076455 438.704785 268.42333 438.704785 
z
M 268.42333 435.496972 
Q 268.721768 435.496972 268.949893 435.368848 
Q 269.17958 435.23916 269.306143 435.000097 
Q 269.434268 434.759473 269.434268 434.446973 
L 269.434268 434.379785 
Q 269.434268 434.081347 269.306143 433.85166 
Q 269.17958 433.621972 268.949893 433.498535 
Q 268.721768 433.373535 268.42333 433.373535 
Q 268.124893 433.373535 267.895205 433.498535 
Q 267.66708 433.621972 267.538955 433.85166 
Q 267.412393 434.081347 267.412393 434.384473 
L 267.412393 434.45791 
Q 267.412393 434.76416 267.538955 435.00166 
Q 267.66708 435.23916 267.895205 435.368848 
Q 268.124893 435.496972 268.42333 435.496972 
z
M 274.337002 435.887597 
L 276.607315 435.887597 
Q 276.92919 435.887597 277.17294 435.736035 
Q 277.418252 435.584473 277.551065 435.306348 
Q 277.68544 435.028222 277.68544 434.667285 
L 277.68544 434.667285 
Q 277.68544 434.30166 277.551065 434.023535 
Q 277.418252 433.743848 277.17294 433.590722 
Q 276.92919 433.436035 276.607315 433.436035 
L 274.337002 433.436035 
L 274.337002 432.48916 
L 276.57294 432.48916 
Q 277.207315 432.48916 277.690127 432.761035 
Q 278.174502 433.031347 278.440127 433.525098 
Q 278.707315 434.017285 278.707315 434.667285 
L 278.707315 434.667285 
Q 278.707315 435.317285 278.440127 435.80791 
Q 278.174502 436.298535 277.690127 436.567285 
Q 277.207315 436.834473 276.57294 436.834473 
L 274.337002 436.834473 
L 274.337002 435.887597 
z
M 273.824502 432.48916 
L 274.819815 432.48916 
L 274.819815 439.58916 
L 273.824502 439.58916 
L 273.824502 432.48916 
z
M 279.95165 434.52041 
L 280.948525 434.52041 
L 280.948525 439.58916 
L 279.95165 439.58916 
L 279.95165 434.52041 
z
M 282.73915 435.721972 
Q 282.6079 435.561035 282.4079 435.478223 
Q 282.2079 435.39541 281.943838 435.39541 
Q 281.4704 435.39541 281.209463 435.656347 
Q 280.948525 435.917285 280.948525 436.381348 
L 280.8454 435.404785 
Q 281.079775 434.950097 281.450088 434.698535 
Q 281.821963 434.446973 282.2704 434.446973 
Q 282.617275 434.446973 282.898525 434.546972 
Q 283.179775 434.646973 283.38915 434.842285 
L 282.73915 435.721972 
z
M 286.162979 439.662598 
Q 285.503604 439.662598 285.034854 439.404785 
Q 284.566104 439.14541 284.319229 438.650098 
Q 284.072354 438.153222 284.072354 437.454785 
L 284.072354 436.629785 
Q 284.072354 435.942285 284.319229 435.45166 
Q 284.566104 434.959473 285.034854 434.703222 
Q 285.503604 434.446973 286.162979 434.446973 
Q 286.822354 434.446973 287.291104 434.703222 
Q 287.759854 434.959473 288.005166 435.45166 
Q 288.252041 435.942285 288.252041 436.629785 
L 288.252041 437.47041 
Q 288.252041 438.162598 288.005166 438.654785 
Q 287.759854 439.14541 287.291104 439.404785 
Q 286.822354 439.662598 286.162979 439.662598 
z
M 286.162979 438.715722 
Q 286.684854 438.715722 286.970791 438.38916 
Q 287.256729 438.061035 287.256729 437.47041 
L 287.256729 436.629785 
Q 287.256729 436.03916 286.970791 435.717285 
Q 286.684854 435.39541 286.162979 435.39541 
Q 285.639541 435.39541 285.353604 435.717285 
Q 285.069229 436.03916 285.069229 436.629785 
L 285.069229 437.47041 
Q 285.069229 438.061035 285.353604 438.38916 
Q 285.639541 438.715722 286.162979 438.715722 
z
" style="fill: #ffffff; stroke: #000000"/>
    <path d="M 258.623525 432.48916 
L 259.473525 432.48916 
L 262.090713 439.58916 
L 261.015713 439.58916 
L 259.048525 433.861035 
L 257.081338 439.58916 
L 256.006338 439.58916 
L 258.623525 432.48916 
z
M 257.212588 437.084473 
L 260.948525 437.084473 
L 260.948525 438.031347 
L 257.212588 438.031347 
L 257.212588 437.084473 
z
M 264.73251 439.58916 
L 263.735635 439.58916 
L 263.735635 433.573535 
L 262.724697 434.193848 
L 262.724697 433.162598 
L 263.735635 432.48916 
L 264.73251 432.48916 
L 264.73251 439.58916 
z
M 268.42333 439.662598 
Q 267.77958 439.662598 267.290518 439.418847 
Q 266.803018 439.173535 266.53583 438.72666 
Q 266.270205 438.279785 266.270205 437.68916 
L 266.270205 437.571973 
Q 266.270205 437.040723 266.53583 436.571973 
Q 266.803018 436.103223 267.246768 435.86416 
Q 266.870205 435.65791 266.643643 435.27041 
Q 266.41708 434.881348 266.41708 434.45166 
L 266.41708 434.281347 
Q 266.41708 433.725098 266.665518 433.303223 
Q 266.913955 432.879785 267.368643 432.648535 
Q 267.82333 432.415723 268.42333 432.415723 
Q 269.02333 432.415723 269.478018 432.648535 
Q 269.932705 432.879785 270.181143 433.303223 
Q 270.42958 433.725098 270.42958 434.281347 
L 270.42958 434.45166 
Q 270.42958 434.892285 270.19833 435.278222 
Q 269.96708 435.662598 269.58583 435.86416 
Q 270.034268 436.10791 270.30458 436.575097 
Q 270.576455 437.040723 270.576455 437.571973 
L 270.576455 437.68916 
Q 270.576455 438.279785 270.31083 438.72666 
Q 270.045205 439.173535 269.556143 439.418847 
Q 269.068643 439.662598 268.42333 439.662598 
z
M 268.42333 438.704785 
Q 268.770205 438.704785 269.032705 438.568848 
Q 269.296768 438.431348 269.440518 438.186035 
Q 269.58583 437.93916 269.58583 437.615723 
L 269.58583 437.548535 
Q 269.58583 437.22041 269.440518 436.975098 
Q 269.296768 436.728223 269.032705 436.592285 
Q 268.770205 436.454785 268.42333 436.454785 
Q 268.076455 436.454785 267.812393 436.592285 
Q 267.549893 436.728223 267.40458 436.97666 
Q 267.26083 437.225098 267.26083 437.553223 
L 267.26083 437.62666 
Q 267.26083 437.948535 267.40458 438.192285 
Q 267.549893 438.436035 267.812393 438.57041 
Q 268.076455 438.704785 268.42333 438.704785 
z
M 268.42333 435.496972 
Q 268.721768 435.496972 268.949893 435.368848 
Q 269.17958 435.23916 269.306143 435.000097 
Q 269.434268 434.759473 269.434268 434.446973 
L 269.434268 434.379785 
Q 269.434268 434.081347 269.306143 433.85166 
Q 269.17958 433.621972 268.949893 433.498535 
Q 268.721768 433.373535 268.42333 433.373535 
Q 268.124893 433.373535 267.895205 433.498535 
Q 267.66708 433.621972 267.538955 433.85166 
Q 267.412393 434.081347 267.412393 434.384473 
L 267.412393 434.45791 
Q 267.412393 434.76416 267.538955 435.00166 
Q 267.66708 435.23916 267.895205 435.368848 
Q 268.124893 435.496972 268.42333 435.496972 
z
M 274.337002 435.887597 
L 276.607315 435.887597 
Q 276.92919 435.887597 277.17294 435.736035 
Q 277.418252 435.584473 277.551065 435.306348 
Q 277.68544 435.028222 277.68544 434.667285 
L 277.68544 434.667285 
Q 277.68544 434.30166 277.551065 434.023535 
Q 277.418252 433.743848 277.17294 433.590722 
Q 276.92919 433.436035 276.607315 433.436035 
L 274.337002 433.436035 
L 274.337002 432.48916 
L 276.57294 432.48916 
Q 277.207315 432.48916 277.690127 432.761035 
Q 278.174502 433.031347 278.440127 433.525098 
Q 278.707315 434.017285 278.707315 434.667285 
L 278.707315 434.667285 
Q 278.707315 435.317285 278.440127 435.80791 
Q 278.174502 436.298535 277.690127 436.567285 
Q 277.207315 436.834473 276.57294 436.834473 
L 274.337002 436.834473 
L 274.337002 435.887597 
z
M 273.824502 432.48916 
L 274.819815 432.48916 
L 274.819815 439.58916 
L 273.824502 439.58916 
L 273.824502 432.48916 
z
M 279.95165 434.52041 
L 280.948525 434.52041 
L 280.948525 439.58916 
L 279.95165 439.58916 
L 279.95165 434.52041 
z
M 282.73915 435.721972 
Q 282.6079 435.561035 282.4079 435.478223 
Q 282.2079 435.39541 281.943838 435.39541 
Q 281.4704 435.39541 281.209463 435.656347 
Q 280.948525 435.917285 280.948525 436.381348 
L 280.8454 435.404785 
Q 281.079775 434.950097 281.450088 434.698535 
Q 281.821963 434.446973 282.2704 434.446973 
Q 282.617275 434.446973 282.898525 434.546972 
Q 283.179775 434.646973 283.38915 434.842285 
L 282.73915 435.721972 
z
M 286.162979 439.662598 
Q 285.503604 439.662598 285.034854 439.404785 
Q 284.566104 439.14541 284.319229 438.650098 
Q 284.072354 438.153222 284.072354 437.454785 
L 284.072354 436.629785 
Q 284.072354 435.942285 284.319229 435.45166 
Q 284.566104 434.959473 285.034854 434.703222 
Q 285.503604 434.446973 286.162979 434.446973 
Q 286.822354 434.446973 287.291104 434.703222 
Q 287.759854 434.959473 288.005166 435.45166 
Q 288.252041 435.942285 288.252041 436.629785 
L 288.252041 437.47041 
Q 288.252041 438.162598 288.005166 438.654785 
Q 287.759854 439.14541 287.291104 439.404785 
Q 286.822354 439.662598 286.162979 439.662598 
z
M 286.162979 438.715722 
Q 286.684854 438.715722 286.970791 438.38916 
Q 287.256729 438.061035 287.256729 437.47041 
L 287.256729 436.629785 
Q 287.256729 436.03916 286.970791 435.717285 
Q 286.684854 435.39541 286.162979 435.39541 
Q 285.639541 435.39541 285.353604 435.717285 
Q 285.069229 436.03916 285.069229 436.629785 
L 285.069229 437.47041 
Q 285.069229 438.061035 285.353604 438.38916 
Q 285.639541 438.715722 286.162979 438.715722 
z
" style="fill: #ffffff"/>
   </g>
  </g>
 </g>
 <defs>
  <clipPath id="p2ea66aa75c">
   <rect x="144" y="77.76" width="892.8" height="498.96"/>
  </clipPath>
 </defs>
</svg>
