<?xml version="1.0" encoding="utf-8" standalone="no"?>
<!DOCTYPE svg PUBLIC "-//W3C//DTD SVG 1.1//EN"
  "http://www.w3.org/Graphics/SVG/1.1/DTD/svg11.dtd">
<svg xmlns:xlink="http://www.w3.org/1999/xlink" width="1152pt" height="648pt" viewBox="0 0 1152 648" xmlns="http://www.w3.org/2000/svg" version="1.1">
 <metadata>
  <rdf:RDF xmlns:dc="http://purl.org/dc/elements/1.1/" xmlns:cc="http://creativecommons.org/ns#" xmlns:rdf="http://www.w3.org/1999/02/22-rdf-syntax-ns#">
   <cc:Work>
    <dc:type rdf:resource="http://purl.org/dc/dcmitype/StillImage"/>
    <dc:date>2025-05-29T13:58:04.142005</dc:date>
    <dc:format>image/svg+xml</dc:format>
    <dc:creator>
     <cc:Agent>
      <dc:title>Matplotlib v3.10.0, https://matplotlib.org/</dc:title>
     </cc:Agent>
    </dc:creator>
   </cc:Work>
  </rdf:RDF>
 </metadata>
 <defs>
  <style type="text/css">*{stroke-linejoin: round; stroke-linecap: butt}</style>
 </defs>
 <g id="figure_1">
  <g id="patch_1">
   <path d="M 0 648 
L 1152 648 
L 1152 0 
L 0 0 
L 0 648 
z
" style="fill: none"/>
  </g>
  <g id="axes_1">
   <g id="line2d_1">
    <path d="M 180.117818 490.738921 
L 185.536926 483.587078 
L 190.956033 476.464776 
L 196.37514 469.377618 
L 201.794248 462.331094 
L 207.213355 455.330566 
L 212.632463 448.38125 
L 218.05157 441.488204 
L 223.470678 434.656313 
L 228.889785 427.890277 
L 234.308893 421.194599 
L 239.728 414.573575 
L 245.147107 408.031286 
L 250.566215 401.571587 
L 255.985322 395.198105 
L 261.40443 388.914231 
L 266.823537 382.723118 
L 272.242645 376.627676 
L 277.661752 370.630572 
L 283.08086 364.73423 
L 288.499967 358.940832 
L 293.919074 353.252316 
L 299.338182 347.670387 
L 304.757289 342.19651 
L 310.176397 336.831926 
L 315.595504 331.577649 
L 321.014612 326.434475 
L 326.433719 321.40299 
L 331.852826 316.483575 
L 337.271934 311.676416 
L 342.691041 306.981511 
L 348.110149 302.398679 
L 353.529256 297.927569 
L 358.948364 293.567667 
L 364.367471 289.318308 
L 369.786579 285.178685 
L 375.205686 281.147856 
L 380.624793 277.224756 
L 386.043901 273.408203 
L 391.463008 269.69691 
L 396.882116 266.089491 
L 402.301223 262.584475 
L 407.720331 259.180307 
L 413.139438 255.875361 
L 418.558545 252.667947 
L 423.977653 249.55632 
L 429.39676 246.538682 
L 434.815868 243.613198 
L 440.234975 240.777992 
L 445.654083 238.031162 
L 451.07319 235.370783 
L 456.492298 232.794909 
L 461.911405 230.301587 
L 467.330512 227.888852 
L 472.74962 225.554738 
L 478.168727 223.29728 
L 483.587835 221.114521 
L 489.006942 219.004511 
L 494.42605 216.965312 
L 499.845157 214.995005 
L 505.264264 213.091687 
L 510.683372 211.253477 
L 516.102479 209.478518 
L 521.521587 207.764979 
L 526.940694 206.111056 
L 532.359802 204.514974 
L 537.778909 202.974989 
L 543.198017 201.489388 
L 548.617124 200.056493 
L 554.036231 198.674659 
L 559.455339 197.342274 
L 564.874446 196.057763 
L 570.293554 194.819586 
L 575.712661 193.62624 
L 581.131769 192.476257 
L 586.550876 191.368206 
L 591.969983 190.300691 
L 597.389091 189.272356 
L 602.808198 188.281876 
L 608.227306 187.327966 
L 613.646413 186.409375 
L 619.065521 185.524887 
L 624.484628 184.673321 
L 629.903736 183.853532 
L 635.322843 183.064407 
L 640.74195 182.304867 
L 646.161058 181.573866 
L 651.580165 180.870389 
L 656.999273 180.193455 
L 662.41838 179.542112 
L 667.837488 178.915438 
L 673.256595 178.312543 
L 678.675702 177.732563 
L 684.09481 177.174665 
L 689.513917 176.638041 
L 694.933025 176.121912 
L 700.352132 175.625525 
L 705.77124 175.14815 
L 711.190347 174.689084 
L 716.609455 174.247649 
" clip-path="url(#p5b5600fc77)" style="fill: none; stroke: #1f77b4; stroke-width: 3; stroke-linecap: round"/>
   </g>
   <g id="text_1">
    <path d="M 725.114435 172.773904 
L 724.962872 172.530154 
L 722.658185 168.794217 
L 723.776935 168.794217 
L 725.490997 171.684842 
L 725.651935 171.948904 
L 728.078497 175.894217 
L 726.959747 175.894217 
L 725.114435 172.773904 
z
M 725.070685 171.836404 
L 726.851935 168.794217 
L 727.970685 168.794217 
L 725.622247 172.637967 
L 723.71756 175.894217 
L 722.600372 175.894217 
L 725.070685 171.836404 
z
M 729.489825 171.944217 
L 731.9117 171.944217 
Q 732.194513 171.944217 732.413263 171.808279 
Q 732.633575 171.670779 732.752325 171.419217 
Q 732.872638 171.167654 732.872638 170.841092 
L 732.872638 170.841092 
Q 732.872638 170.512967 732.752325 170.261404 
Q 732.633575 170.009842 732.416388 169.873904 
Q 732.1992 169.736404 731.9117 169.736404 
L 729.489825 169.736404 
L 729.489825 168.789529 
L 731.872638 168.789529 
Q 732.4867 168.789529 732.952325 169.044217 
Q 733.419513 169.297342 733.675763 169.764529 
Q 733.932013 170.230154 733.932013 170.841092 
L 733.932013 170.841092 
Q 733.932013 171.450467 733.672638 171.917654 
Q 733.414825 172.383279 732.947638 172.637967 
Q 732.482013 172.891092 731.872638 172.891092 
L 729.489825 172.891092 
L 729.489825 171.944217 
z
M 729.05545 168.789529 
L 730.050763 168.789529 
L 730.050763 175.894217 
L 729.05545 175.894217 
L 729.05545 168.789529 
z
M 731.422638 172.670779 
L 732.414825 172.447342 
L 734.23045 175.894217 
L 733.0492 175.894217 
L 731.422638 172.670779 
z
M 735.475567 168.794217 
L 736.472442 168.794217 
L 736.472442 169.791092 
L 735.475567 169.791092 
L 735.475567 168.794217 
z
M 735.475567 170.825467 
L 736.472442 170.825467 
L 736.472442 175.894217 
L 735.475567 175.894217 
L 735.475567 170.825467 
z
M 737.985333 170.825467 
L 738.982208 170.825467 
L 738.982208 175.894217 
L 737.985333 175.894217 
L 737.985333 170.825467 
z
M 741.061895 172.822342 
Q 741.061895 172.286404 740.78377 171.994217 
Q 740.505645 171.700467 740.00252 171.700467 
Q 739.513458 171.700467 739.247833 171.959842 
Q 738.982208 172.217654 738.982208 172.686404 
L 738.879083 171.709842 
Q 739.113458 171.250467 739.491583 171.002029 
Q 739.869708 170.752029 740.329083 170.752029 
Q 741.154083 170.752029 741.605645 171.292654 
Q 742.057208 171.831717 742.057208 172.817654 
L 742.057208 175.894217 
L 741.061895 175.894217 
L 741.061895 172.822342 
z
M 745.27127 177.955154 
Q 744.699395 177.955154 744.247833 177.742654 
Q 743.79627 177.530154 743.54627 177.144217 
L 743.54627 177.144217 
L 744.22127 176.533279 
L 744.22127 176.533279 
Q 744.416583 176.802029 744.686895 176.948904 
Q 744.95877 177.095779 745.255645 177.095779 
Q 745.82752 177.095779 746.14002 176.780154 
Q 746.45252 176.466092 746.45252 175.889529 
L 746.45252 170.825467 
L 747.447833 170.825467 
L 747.447833 175.742654 
Q 747.447833 176.441092 747.191583 176.939529 
Q 746.935333 177.437967 746.44627 177.695779 
Q 745.95877 177.955154 745.27127 177.955154 
z
M 745.17752 175.981717 
Q 744.62127 175.981717 744.22752 175.741092 
Q 743.835333 175.498904 743.629083 175.034842 
Q 743.424395 174.570779 743.424395 173.920779 
L 743.424395 172.803592 
Q 743.424395 172.148904 743.624395 171.684842 
Q 743.825958 171.220779 744.20877 170.980154 
Q 744.591583 170.737967 745.129083 170.737967 
Q 745.57752 170.737967 745.950958 170.972342 
Q 746.325958 171.206717 746.554083 171.631717 
L 746.45252 172.666092 
Q 746.45252 172.344217 746.335333 172.114529 
Q 746.218145 171.884842 745.994708 171.766092 
Q 745.772833 171.645779 745.455645 171.645779 
Q 744.963458 171.645779 744.691583 171.953592 
Q 744.42127 172.261404 744.42127 172.817654 
L 744.42127 173.920779 
Q 744.42127 174.473904 744.691583 174.773904 
Q 744.963458 175.073904 745.455645 175.073904 
Q 745.772833 175.073904 745.994708 174.950467 
Q 746.218145 174.825467 746.335333 174.591092 
Q 746.45252 174.356717 746.45252 174.028592 
L 746.52127 175.098904 
Q 746.369708 175.473904 746.024395 175.728592 
Q 745.680645 175.981717 745.17752 175.981717 
z
M 753.117755 175.967654 
Q 752.375567 175.967654 751.80838 175.642654 
Q 751.242755 175.317654 750.931817 174.725467 
Q 750.622442 174.131717 750.622442 173.350467 
L 750.622442 171.337967 
Q 750.622442 170.556717 750.931817 169.964529 
Q 751.242755 169.370779 751.80838 169.045779 
Q 752.375567 168.720779 753.117755 168.720779 
Q 753.859942 168.720779 754.425567 169.045779 
Q 754.992755 169.370779 755.30213 169.964529 
Q 755.613067 170.556717 755.613067 171.337967 
L 755.613067 173.350467 
Q 755.613067 174.131717 755.30213 174.725467 
Q 754.992755 175.317654 754.425567 175.642654 
Q 753.859942 175.967654 753.117755 175.967654 
z
M 753.117755 174.986404 
Q 753.556817 174.986404 753.891192 174.789529 
Q 754.225567 174.591092 754.40838 174.227029 
Q 754.591192 173.862967 754.591192 173.384842 
L 754.591192 171.303592 
Q 754.591192 170.825467 754.40838 170.462967 
Q 754.225567 170.098904 753.891192 169.900467 
Q 753.556817 169.702029 753.117755 169.702029 
Q 752.67713 169.702029 752.342755 169.900467 
Q 752.00838 170.098904 751.825567 170.462967 
Q 751.642755 170.825467 751.642755 171.303592 
L 751.642755 173.384842 
Q 751.642755 173.862967 751.825567 174.227029 
Q 752.00838 174.591092 752.342755 174.789529 
Q 752.67713 174.986404 753.117755 174.986404 
z
M 758.791583 175.894217 
L 757.794708 175.894217 
L 757.794708 169.878592 
L 756.78377 170.498904 
L 756.78377 169.467654 
L 757.794708 168.794217 
L 758.791583 168.794217 
L 758.791583 175.894217 
z
" style="fill: #ffffff; stroke: #000000"/>
    <path d="M 725.114435 172.773904 
L 724.962872 172.530154 
L 722.658185 168.794217 
L 723.776935 168.794217 
L 725.490997 171.684842 
L 725.651935 171.948904 
L 728.078497 175.894217 
L 726.959747 175.894217 
L 725.114435 172.773904 
z
M 725.070685 171.836404 
L 726.851935 168.794217 
L 727.970685 168.794217 
L 725.622247 172.637967 
L 723.71756 175.894217 
L 722.600372 175.894217 
L 725.070685 171.836404 
z
M 729.489825 171.944217 
L 731.9117 171.944217 
Q 732.194513 171.944217 732.413263 171.808279 
Q 732.633575 171.670779 732.752325 171.419217 
Q 732.872638 171.167654 732.872638 170.841092 
L 732.872638 170.841092 
Q 732.872638 170.512967 732.752325 170.261404 
Q 732.633575 170.009842 732.416388 169.873904 
Q 732.1992 169.736404 731.9117 169.736404 
L 729.489825 169.736404 
L 729.489825 168.789529 
L 731.872638 168.789529 
Q 732.4867 168.789529 732.952325 169.044217 
Q 733.419513 169.297342 733.675763 169.764529 
Q 733.932013 170.230154 733.932013 170.841092 
L 733.932013 170.841092 
Q 733.932013 171.450467 733.672638 171.917654 
Q 733.414825 172.383279 732.947638 172.637967 
Q 732.482013 172.891092 731.872638 172.891092 
L 729.489825 172.891092 
L 729.489825 171.944217 
z
M 729.05545 168.789529 
L 730.050763 168.789529 
L 730.050763 175.894217 
L 729.05545 175.894217 
L 729.05545 168.789529 
z
M 731.422638 172.670779 
L 732.414825 172.447342 
L 734.23045 175.894217 
L 733.0492 175.894217 
L 731.422638 172.670779 
z
M 735.475567 168.794217 
L 736.472442 168.794217 
L 736.472442 169.791092 
L 735.475567 169.791092 
L 735.475567 168.794217 
z
M 735.475567 170.825467 
L 736.472442 170.825467 
L 736.472442 175.894217 
L 735.475567 175.894217 
L 735.475567 170.825467 
z
M 737.985333 170.825467 
L 738.982208 170.825467 
L 738.982208 175.894217 
L 737.985333 175.894217 
L 737.985333 170.825467 
z
M 741.061895 172.822342 
Q 741.061895 172.286404 740.78377 171.994217 
Q 740.505645 171.700467 740.00252 171.700467 
Q 739.513458 171.700467 739.247833 171.959842 
Q 738.982208 172.217654 738.982208 172.686404 
L 738.879083 171.709842 
Q 739.113458 171.250467 739.491583 171.002029 
Q 739.869708 170.752029 740.329083 170.752029 
Q 741.154083 170.752029 741.605645 171.292654 
Q 742.057208 171.831717 742.057208 172.817654 
L 742.057208 175.894217 
L 741.061895 175.894217 
L 741.061895 172.822342 
z
M 745.27127 177.955154 
Q 744.699395 177.955154 744.247833 177.742654 
Q 743.79627 177.530154 743.54627 177.144217 
L 743.54627 177.144217 
L 744.22127 176.533279 
L 744.22127 176.533279 
Q 744.416583 176.802029 744.686895 176.948904 
Q 744.95877 177.095779 745.255645 177.095779 
Q 745.82752 177.095779 746.14002 176.780154 
Q 746.45252 176.466092 746.45252 175.889529 
L 746.45252 170.825467 
L 747.447833 170.825467 
L 747.447833 175.742654 
Q 747.447833 176.441092 747.191583 176.939529 
Q 746.935333 177.437967 746.44627 177.695779 
Q 745.95877 177.955154 745.27127 177.955154 
z
M 745.17752 175.981717 
Q 744.62127 175.981717 744.22752 175.741092 
Q 743.835333 175.498904 743.629083 175.034842 
Q 743.424395 174.570779 743.424395 173.920779 
L 743.424395 172.803592 
Q 743.424395 172.148904 743.624395 171.684842 
Q 743.825958 171.220779 744.20877 170.980154 
Q 744.591583 170.737967 745.129083 170.737967 
Q 745.57752 170.737967 745.950958 170.972342 
Q 746.325958 171.206717 746.554083 171.631717 
L 746.45252 172.666092 
Q 746.45252 172.344217 746.335333 172.114529 
Q 746.218145 171.884842 745.994708 171.766092 
Q 745.772833 171.645779 745.455645 171.645779 
Q 744.963458 171.645779 744.691583 171.953592 
Q 744.42127 172.261404 744.42127 172.817654 
L 744.42127 173.920779 
Q 744.42127 174.473904 744.691583 174.773904 
Q 744.963458 175.073904 745.455645 175.073904 
Q 745.772833 175.073904 745.994708 174.950467 
Q 746.218145 174.825467 746.335333 174.591092 
Q 746.45252 174.356717 746.45252 174.028592 
L 746.52127 175.098904 
Q 746.369708 175.473904 746.024395 175.728592 
Q 745.680645 175.981717 745.17752 175.981717 
z
M 753.117755 175.967654 
Q 752.375567 175.967654 751.80838 175.642654 
Q 751.242755 175.317654 750.931817 174.725467 
Q 750.622442 174.131717 750.622442 173.350467 
L 750.622442 171.337967 
Q 750.622442 170.556717 750.931817 169.964529 
Q 751.242755 169.370779 751.80838 169.045779 
Q 752.375567 168.720779 753.117755 168.720779 
Q 753.859942 168.720779 754.425567 169.045779 
Q 754.992755 169.370779 755.30213 169.964529 
Q 755.613067 170.556717 755.613067 171.337967 
L 755.613067 173.350467 
Q 755.613067 174.131717 755.30213 174.725467 
Q 754.992755 175.317654 754.425567 175.642654 
Q 753.859942 175.967654 753.117755 175.967654 
z
M 753.117755 174.986404 
Q 753.556817 174.986404 753.891192 174.789529 
Q 754.225567 174.591092 754.40838 174.227029 
Q 754.591192 173.862967 754.591192 173.384842 
L 754.591192 171.303592 
Q 754.591192 170.825467 754.40838 170.462967 
Q 754.225567 170.098904 753.891192 169.900467 
Q 753.556817 169.702029 753.117755 169.702029 
Q 752.67713 169.702029 752.342755 169.900467 
Q 752.00838 170.098904 751.825567 170.462967 
Q 751.642755 170.825467 751.642755 171.303592 
L 751.642755 173.384842 
Q 751.642755 173.862967 751.825567 174.227029 
Q 752.00838 174.591092 752.342755 174.789529 
Q 752.67713 174.986404 753.117755 174.986404 
z
M 758.791583 175.894217 
L 757.794708 175.894217 
L 757.794708 169.878592 
L 756.78377 170.498904 
L 756.78377 169.467654 
L 757.794708 168.794217 
L 758.791583 168.794217 
L 758.791583 175.894217 
z
" style="fill: #ffffff"/>
   </g>
  </g>
 </g>
 <defs>
  <clipPath id="p5b5600fc77">
   <rect x="144" y="77.76" width="892.8" height="498.96"/>
  </clipPath>
 </defs>
</svg>
