<?xml version="1.0" encoding="utf-8" standalone="no"?>
<!DOCTYPE svg PUBLIC "-//W3C//DTD SVG 1.1//EN"
  "http://www.w3.org/Graphics/SVG/1.1/DTD/svg11.dtd">
<svg xmlns:xlink="http://www.w3.org/1999/xlink" width="1152pt" height="648pt" viewBox="0 0 1152 648" xmlns="http://www.w3.org/2000/svg" version="1.1">
 <metadata>
  <rdf:RDF xmlns:dc="http://purl.org/dc/elements/1.1/" xmlns:cc="http://creativecommons.org/ns#" xmlns:rdf="http://www.w3.org/1999/02/22-rdf-syntax-ns#">
   <cc:Work>
    <dc:type rdf:resource="http://purl.org/dc/dcmitype/StillImage"/>
    <dc:date>2025-09-19T13:20:10.760657</dc:date>
    <dc:format>image/svg+xml</dc:format>
    <dc:creator>
     <cc:Agent>
      <dc:title>Matplotlib v3.10.3, https://matplotlib.org/</dc:title>
     </cc:Agent>
    </dc:creator>
   </cc:Work>
  </rdf:RDF>
 </metadata>
 <defs>
  <style type="text/css">*{stroke-linejoin: round; stroke-linecap: butt}</style>
 </defs>
 <g id="figure_1">
  <g id="patch_1">
   <path d="M 0 648 
L 1152 648 
L 1152 0 
L 0 0 
L 0 648 
z
" style="fill: none"/>
  </g>
  <g id="axes_1">
   <g id="line2d_1">
    <path d="M 222.322909 490.785615 
L 224.520066 489.217326 
L 226.717223 487.650722 
L 228.91438 486.086497 
L 231.111537 484.525342 
L 233.308694 482.967941 
L 235.505851 481.414972 
L 237.703008 479.867106 
L 239.900165 478.325004 
L 242.097322 476.789318 
L 244.294479 475.260688 
L 246.491636 473.739741 
L 248.688793 472.227094 
L 250.88595 470.723347 
L 253.083107 469.229086 
L 255.280264 467.744881 
L 257.477421 466.271286 
L 259.674579 464.808838 
L 261.871736 463.358056 
L 264.068893 461.919438 
L 266.26605 460.493466 
L 268.463207 459.080601 
L 270.660364 457.681285 
L 272.857521 456.295938 
L 275.054678 454.924961 
L 277.251835 453.568732 
L 279.448992 452.22761 
L 281.646149 450.901932 
L 283.843306 449.592013 
L 286.040463 448.298148 
L 288.23762 447.020609 
L 290.434777 445.759648 
L 292.631934 444.515496 
L 294.829091 443.288362 
L 297.026248 442.078436 
L 299.223405 440.885886 
L 301.420562 439.71086 
L 303.617719 438.553489 
L 305.814876 437.41388 
L 308.012033 436.292125 
L 310.20919 435.188296 
L 312.406347 434.102447 
L 314.603504 433.034614 
L 316.800661 431.984817 
L 318.997818 430.95306 
L 321.194975 429.939329 
L 323.392132 428.943596 
L 325.589289 427.965818 
L 327.786446 427.005939 
L 329.983603 426.063887 
L 332.18076 425.139579 
L 334.377917 424.232918 
L 336.575074 423.343797 
L 338.772231 422.472097 
L 340.969388 421.617688 
L 343.166545 420.780431 
L 345.363702 419.960175 
L 347.56086 419.156763 
L 349.758017 418.370029 
L 351.955174 417.599799 
L 354.152331 416.845891 
L 356.349488 416.108118 
L 358.546645 415.386285 
L 360.743802 414.680194 
L 362.940959 413.989638 
L 365.138116 413.31441 
L 367.335273 412.654295 
L 369.53243 412.009076 
L 371.729587 411.378533 
L 373.926744 410.762442 
L 376.123901 410.160577 
L 378.321058 409.572711 
L 380.518215 408.998613 
L 382.715372 408.438052 
L 384.912529 407.890797 
L 387.109686 407.356615 
L 389.306843 406.835272 
L 391.504 406.326536 
L 393.701157 405.830173 
L 395.898314 405.345951 
L 398.095471 404.873637 
L 400.292628 404.413001 
L 402.489785 403.963812 
L 404.686942 403.525842 
L 406.884099 403.098865 
L 409.081256 402.682654 
L 411.278413 402.276986 
L 413.47557 401.88164 
L 415.672727 401.496396 
L 417.869884 401.121037 
L 420.067041 400.755348 
L 422.264198 400.399118 
L 424.461355 400.052137 
L 426.658512 399.714198 
L 428.855669 399.385097 
L 431.052826 399.064633 
L 433.249983 398.752607 
L 435.44714 398.448825 
L 437.644298 398.153094 
L 439.841455 397.865224 
" clip-path="url(#p440ce3b60e)" style="fill: none; stroke: #3051f2; stroke-width: 3; stroke-linecap: round"/>
   </g>
   <g id="text_1">
    <path d="M 448.746435 399.58523 
Q 448.233935 399.58523 447.77456 399.488355 
Q 447.316747 399.389917 446.91831 399.194605 
Q 446.519872 398.999292 446.172997 398.705542 
L 446.172997 398.705542 
L 446.79331 397.944605 
L 446.79331 397.944605 
Q 447.19956 398.296167 447.68706 398.47273 
Q 448.176122 398.64773 448.746435 398.64773 
Q 449.51831 398.64773 449.94331 398.361792 
Q 450.36831 398.075855 450.36831 397.55398 
L 450.36831 397.549292 
Q 450.36831 397.177417 450.17456 396.96023 
Q 449.982372 396.743042 449.676122 396.638355 
Q 449.371435 396.533667 448.888622 396.444605 
Q 448.872997 396.439917 448.85581 396.439917 
Q 448.840185 396.439917 448.82456 396.43523 
L 448.751122 396.421167 
Q 448.038622 396.299292 447.591747 396.146167 
Q 447.144872 395.99148 446.827685 395.583667 
Q 446.510497 395.175855 446.510497 394.424292 
L 446.510497 394.419605 
Q 446.510497 393.76023 446.80581 393.294605 
Q 447.101122 392.827417 447.666747 392.583667 
Q 448.233935 392.338355 449.029247 392.338355 
Q 449.410497 392.338355 449.779247 392.42273 
Q 450.147997 392.505542 450.50581 392.669605 
Q 450.865185 392.832105 451.21206 393.080542 
L 451.21206 393.080542 
L 450.646435 393.87273 
L 450.646435 393.87273 
Q 450.240185 393.574292 449.83706 393.425855 
Q 449.435497 393.275855 449.029247 393.275855 
Q 448.302685 393.275855 447.89956 393.56648 
Q 447.496435 393.857105 447.496435 394.389917 
L 447.496435 394.394605 
Q 447.496435 394.76023 447.704247 394.971167 
Q 447.91206 395.180542 448.221435 395.280542 
Q 448.532372 395.380542 449.083935 395.488355 
Q 449.102685 395.493042 449.119872 395.496167 
Q 449.13706 395.49773 449.157372 395.502417 
Q 449.18081 395.507105 449.210497 395.513355 
Q 449.240185 395.518042 449.263622 395.52273 
Q 449.908935 395.65398 450.340185 395.83523 
Q 450.772997 396.014917 451.063622 396.418042 
Q 451.354247 396.821167 451.354247 397.519605 
L 451.354247 397.52898 
Q 451.354247 398.17898 451.046435 398.639917 
Q 450.738622 399.100855 450.154247 399.343042 
Q 449.571435 399.58523 448.746435 399.58523 
z
M 453.444286 398.564917 
L 455.050536 398.564917 
Q 455.836474 398.564917 456.267724 398.157105 
Q 456.700536 397.749292 456.700536 397.007105 
L 456.700536 394.91648 
Q 456.700536 394.174292 456.267724 393.76648 
Q 455.836474 393.358667 455.050536 393.358667 
L 453.444286 393.358667 
L 453.444286 392.411792 
L 455.020849 392.411792 
Q 455.875536 392.411792 456.480224 392.71023 
Q 457.086474 393.007105 457.403661 393.57898 
Q 457.720849 394.150855 457.720849 394.955542 
L 457.720849 396.968042 
Q 457.720849 397.77273 457.403661 398.344605 
Q 457.086474 398.91648 456.478661 399.214917 
Q 455.870849 399.511792 455.016161 399.511792 
L 453.444286 399.511792 
L 453.444286 398.564917 
z
M 452.770849 392.411792 
L 453.766161 392.411792 
L 453.766161 399.511792 
L 452.770849 399.511792 
L 452.770849 392.411792 
z
M 462.853661 393.300855 
L 461.017724 399.511792 
L 459.958349 399.511792 
L 461.794286 393.358667 
L 459.986474 393.358667 
L 459.986474 394.380542 
L 458.991161 394.380542 
L 458.991161 392.411792 
L 462.853661 392.411792 
L 462.853661 393.300855 
z
M 468.136278 395.76648 
L 468.136278 396.713355 
L 464.172216 396.713355 
L 464.172216 395.76648 
L 468.136278 395.76648 
z
M 466.651903 398.22273 
L 465.656591 398.22273 
L 465.656591 394.257105 
L 466.651903 394.257105 
L 466.651903 398.22273 
z
M 476.212841 395.688355 
L 476.212841 396.92898 
Q 476.212841 397.719605 475.905028 398.32273 
Q 475.597216 398.925855 475.033153 399.255542 
Q 474.469091 399.58523 473.726903 399.58523 
Q 472.975341 399.58523 472.406591 399.275855 
Q 471.837841 398.964917 471.525341 398.399292 
Q 471.212841 397.832105 471.212841 397.08523 
L 471.212841 394.989917 
Q 471.212841 394.199292 471.520653 393.599292 
Q 471.828466 392.99773 472.390966 392.668042 
Q 472.955028 392.338355 473.697216 392.338355 
Q 474.308153 392.338355 474.822216 392.600855 
Q 475.337841 392.861792 475.684716 393.339917 
Q 476.031591 393.818042 476.153466 394.44773 
L 476.153466 394.44773 
L 475.075341 394.44773 
L 475.075341 394.44773 
Q 474.986278 394.09148 474.776903 393.83523 
Q 474.567528 393.57898 474.283153 393.444605 
Q 474.000341 393.31023 473.697216 393.31023 
Q 473.258153 393.31023 472.925341 393.521167 
Q 472.594091 393.730542 472.412841 394.108667 
Q 472.233153 394.486792 472.233153 394.989917 
L 472.233153 397.08523 
Q 472.233153 397.544605 472.417528 397.888355 
Q 472.603466 398.232105 472.942528 398.42273 
Q 473.283153 398.613355 473.726903 398.613355 
Q 474.165966 398.613355 474.497216 398.41648 
Q 474.830028 398.218042 475.011278 397.843042 
Q 475.192528 397.46648 475.192528 396.94773 
L 475.192528 396.639917 
L 473.751903 396.639917 
L 473.751903 395.688355 
L 476.212841 395.688355 
z
M 479.801122 399.58523 
Q 479.097997 399.58523 478.59956 399.321167 
Q 478.102685 399.057105 477.840185 398.54773 
Q 477.579247 398.036792 477.579247 397.314917 
L 477.579247 396.743042 
Q 477.579247 395.99148 477.83081 395.46023 
Q 478.082372 394.927417 478.560497 394.649292 
Q 479.040185 394.369605 479.713622 394.369605 
Q 480.347997 394.369605 480.796435 394.688355 
Q 481.246435 395.005542 481.482372 395.605542 
Q 481.719872 396.205542 481.719872 397.046167 
L 481.719872 397.377417 
L 478.302685 397.377417 
L 478.302685 396.577417 
L 480.772997 396.577417 
L 480.772997 396.577417 
Q 480.729247 395.957105 480.452685 395.613355 
Q 480.177685 395.268042 479.713622 395.268042 
Q 479.146435 395.268042 478.83706 395.639917 
Q 478.527685 396.01023 478.527685 396.689917 
L 478.527685 397.333667 
Q 478.527685 397.963355 478.858935 398.300855 
Q 479.191747 398.638355 479.801122 398.638355 
Q 480.104247 398.638355 480.401122 398.51648 
Q 480.69956 398.393042 480.933935 398.174292 
L 480.933935 398.174292 
L 481.588622 398.827417 
L 481.588622 398.827417 
Q 481.21206 399.189917 480.74331 399.388355 
Q 480.27456 399.58523 479.801122 399.58523 
z
M 483.08745 394.443042 
L 484.084325 394.443042 
L 484.084325 399.511792 
L 483.08745 399.511792 
L 483.08745 394.443042 
z
M 486.164013 396.439917 
Q 486.164013 395.90398 485.885888 395.611792 
Q 485.607763 395.318042 485.104638 395.318042 
Q 484.615575 395.318042 484.34995 395.577417 
Q 484.084325 395.83523 484.084325 396.30398 
L 483.9812 395.327417 
Q 484.215575 394.868042 484.5937 394.619605 
Q 484.971825 394.369605 485.4312 394.369605 
Q 486.2562 394.369605 486.707763 394.91023 
Q 487.159325 395.449292 487.159325 396.43523 
L 487.159325 399.511792 
L 486.164013 399.511792 
L 486.164013 396.439917 
z
M 490.460888 399.58523 
Q 489.865575 399.58523 489.410888 399.368042 
Q 488.9562 399.150855 488.679638 398.738355 
Q 488.404638 398.325855 488.3312 397.744605 
L 488.3312 397.744605 
L 489.346825 397.744605 
L 489.346825 397.744605 
Q 489.390575 398.046167 489.53745 398.24148 
Q 489.684325 398.436792 489.915575 398.532105 
Q 490.148388 398.627417 490.460888 398.627417 
Q 490.953075 398.627417 491.226513 398.364917 
Q 491.49995 398.100855 491.49995 397.62273 
L 491.49995 397.407105 
Q 491.49995 396.874292 491.240575 396.58523 
Q 490.982763 396.294605 490.509325 396.294605 
L 490.0062 396.294605 
L 490.0062 395.346167 
L 490.509325 395.346167 
Q 490.92495 395.346167 491.153075 395.09773 
Q 491.382763 394.849292 491.382763 394.394605 
L 491.382763 394.174292 
Q 491.382763 393.755542 491.140575 393.525855 
Q 490.89995 393.296167 490.4562 393.296167 
Q 490.201513 393.296167 490.001513 393.39148 
Q 489.801513 393.486792 489.66245 393.68523 
Q 489.523388 393.882105 489.459325 394.17898 
L 489.459325 394.17898 
L 488.448388 394.17898 
L 488.448388 394.17898 
Q 488.546825 393.599292 488.817138 393.183667 
Q 489.089013 392.768042 489.503075 392.55398 
Q 489.9187 392.338355 490.4562 392.338355 
Q 491.373388 392.338355 491.876513 392.82273 
Q 492.379638 393.305542 492.379638 394.18523 
L 492.379638 394.302417 
Q 492.379638 394.833667 492.090575 395.22898 
Q 491.803075 395.624292 491.276513 395.805542 
Q 491.857763 395.932105 492.176513 396.377417 
Q 492.496825 396.821167 492.496825 397.51023 
L 492.496825 397.627417 
Q 492.496825 398.24773 492.257763 398.686792 
Q 492.0187 399.125855 491.560888 399.355542 
Q 491.104638 399.58523 490.460888 399.58523 
z
" style="fill: #ffffff; stroke: #000000"/>
    <path d="M 448.746435 399.58523 
Q 448.233935 399.58523 447.77456 399.488355 
Q 447.316747 399.389917 446.91831 399.194605 
Q 446.519872 398.999292 446.172997 398.705542 
L 446.172997 398.705542 
L 446.79331 397.944605 
L 446.79331 397.944605 
Q 447.19956 398.296167 447.68706 398.47273 
Q 448.176122 398.64773 448.746435 398.64773 
Q 449.51831 398.64773 449.94331 398.361792 
Q 450.36831 398.075855 450.36831 397.55398 
L 450.36831 397.549292 
Q 450.36831 397.177417 450.17456 396.96023 
Q 449.982372 396.743042 449.676122 396.638355 
Q 449.371435 396.533667 448.888622 396.444605 
Q 448.872997 396.439917 448.85581 396.439917 
Q 448.840185 396.439917 448.82456 396.43523 
L 448.751122 396.421167 
Q 448.038622 396.299292 447.591747 396.146167 
Q 447.144872 395.99148 446.827685 395.583667 
Q 446.510497 395.175855 446.510497 394.424292 
L 446.510497 394.419605 
Q 446.510497 393.76023 446.80581 393.294605 
Q 447.101122 392.827417 447.666747 392.583667 
Q 448.233935 392.338355 449.029247 392.338355 
Q 449.410497 392.338355 449.779247 392.42273 
Q 450.147997 392.505542 450.50581 392.669605 
Q 450.865185 392.832105 451.21206 393.080542 
L 451.21206 393.080542 
L 450.646435 393.87273 
L 450.646435 393.87273 
Q 450.240185 393.574292 449.83706 393.425855 
Q 449.435497 393.275855 449.029247 393.275855 
Q 448.302685 393.275855 447.89956 393.56648 
Q 447.496435 393.857105 447.496435 394.389917 
L 447.496435 394.394605 
Q 447.496435 394.76023 447.704247 394.971167 
Q 447.91206 395.180542 448.221435 395.280542 
Q 448.532372 395.380542 449.083935 395.488355 
Q 449.102685 395.493042 449.119872 395.496167 
Q 449.13706 395.49773 449.157372 395.502417 
Q 449.18081 395.507105 449.210497 395.513355 
Q 449.240185 395.518042 449.263622 395.52273 
Q 449.908935 395.65398 450.340185 395.83523 
Q 450.772997 396.014917 451.063622 396.418042 
Q 451.354247 396.821167 451.354247 397.519605 
L 451.354247 397.52898 
Q 451.354247 398.17898 451.046435 398.639917 
Q 450.738622 399.100855 450.154247 399.343042 
Q 449.571435 399.58523 448.746435 399.58523 
z
M 453.444286 398.564917 
L 455.050536 398.564917 
Q 455.836474 398.564917 456.267724 398.157105 
Q 456.700536 397.749292 456.700536 397.007105 
L 456.700536 394.91648 
Q 456.700536 394.174292 456.267724 393.76648 
Q 455.836474 393.358667 455.050536 393.358667 
L 453.444286 393.358667 
L 453.444286 392.411792 
L 455.020849 392.411792 
Q 455.875536 392.411792 456.480224 392.71023 
Q 457.086474 393.007105 457.403661 393.57898 
Q 457.720849 394.150855 457.720849 394.955542 
L 457.720849 396.968042 
Q 457.720849 397.77273 457.403661 398.344605 
Q 457.086474 398.91648 456.478661 399.214917 
Q 455.870849 399.511792 455.016161 399.511792 
L 453.444286 399.511792 
L 453.444286 398.564917 
z
M 452.770849 392.411792 
L 453.766161 392.411792 
L 453.766161 399.511792 
L 452.770849 399.511792 
L 452.770849 392.411792 
z
M 462.853661 393.300855 
L 461.017724 399.511792 
L 459.958349 399.511792 
L 461.794286 393.358667 
L 459.986474 393.358667 
L 459.986474 394.380542 
L 458.991161 394.380542 
L 458.991161 392.411792 
L 462.853661 392.411792 
L 462.853661 393.300855 
z
M 468.136278 395.76648 
L 468.136278 396.713355 
L 464.172216 396.713355 
L 464.172216 395.76648 
L 468.136278 395.76648 
z
M 466.651903 398.22273 
L 465.656591 398.22273 
L 465.656591 394.257105 
L 466.651903 394.257105 
L 466.651903 398.22273 
z
M 476.212841 395.688355 
L 476.212841 396.92898 
Q 476.212841 397.719605 475.905028 398.32273 
Q 475.597216 398.925855 475.033153 399.255542 
Q 474.469091 399.58523 473.726903 399.58523 
Q 472.975341 399.58523 472.406591 399.275855 
Q 471.837841 398.964917 471.525341 398.399292 
Q 471.212841 397.832105 471.212841 397.08523 
L 471.212841 394.989917 
Q 471.212841 394.199292 471.520653 393.599292 
Q 471.828466 392.99773 472.390966 392.668042 
Q 472.955028 392.338355 473.697216 392.338355 
Q 474.308153 392.338355 474.822216 392.600855 
Q 475.337841 392.861792 475.684716 393.339917 
Q 476.031591 393.818042 476.153466 394.44773 
L 476.153466 394.44773 
L 475.075341 394.44773 
L 475.075341 394.44773 
Q 474.986278 394.09148 474.776903 393.83523 
Q 474.567528 393.57898 474.283153 393.444605 
Q 474.000341 393.31023 473.697216 393.31023 
Q 473.258153 393.31023 472.925341 393.521167 
Q 472.594091 393.730542 472.412841 394.108667 
Q 472.233153 394.486792 472.233153 394.989917 
L 472.233153 397.08523 
Q 472.233153 397.544605 472.417528 397.888355 
Q 472.603466 398.232105 472.942528 398.42273 
Q 473.283153 398.613355 473.726903 398.613355 
Q 474.165966 398.613355 474.497216 398.41648 
Q 474.830028 398.218042 475.011278 397.843042 
Q 475.192528 397.46648 475.192528 396.94773 
L 475.192528 396.639917 
L 473.751903 396.639917 
L 473.751903 395.688355 
L 476.212841 395.688355 
z
M 479.801122 399.58523 
Q 479.097997 399.58523 478.59956 399.321167 
Q 478.102685 399.057105 477.840185 398.54773 
Q 477.579247 398.036792 477.579247 397.314917 
L 477.579247 396.743042 
Q 477.579247 395.99148 477.83081 395.46023 
Q 478.082372 394.927417 478.560497 394.649292 
Q 479.040185 394.369605 479.713622 394.369605 
Q 480.347997 394.369605 480.796435 394.688355 
Q 481.246435 395.005542 481.482372 395.605542 
Q 481.719872 396.205542 481.719872 397.046167 
L 481.719872 397.377417 
L 478.302685 397.377417 
L 478.302685 396.577417 
L 480.772997 396.577417 
L 480.772997 396.577417 
Q 480.729247 395.957105 480.452685 395.613355 
Q 480.177685 395.268042 479.713622 395.268042 
Q 479.146435 395.268042 478.83706 395.639917 
Q 478.527685 396.01023 478.527685 396.689917 
L 478.527685 397.333667 
Q 478.527685 397.963355 478.858935 398.300855 
Q 479.191747 398.638355 479.801122 398.638355 
Q 480.104247 398.638355 480.401122 398.51648 
Q 480.69956 398.393042 480.933935 398.174292 
L 480.933935 398.174292 
L 481.588622 398.827417 
L 481.588622 398.827417 
Q 481.21206 399.189917 480.74331 399.388355 
Q 480.27456 399.58523 479.801122 399.58523 
z
M 483.08745 394.443042 
L 484.084325 394.443042 
L 484.084325 399.511792 
L 483.08745 399.511792 
L 483.08745 394.443042 
z
M 486.164013 396.439917 
Q 486.164013 395.90398 485.885888 395.611792 
Q 485.607763 395.318042 485.104638 395.318042 
Q 484.615575 395.318042 484.34995 395.577417 
Q 484.084325 395.83523 484.084325 396.30398 
L 483.9812 395.327417 
Q 484.215575 394.868042 484.5937 394.619605 
Q 484.971825 394.369605 485.4312 394.369605 
Q 486.2562 394.369605 486.707763 394.91023 
Q 487.159325 395.449292 487.159325 396.43523 
L 487.159325 399.511792 
L 486.164013 399.511792 
L 486.164013 396.439917 
z
M 490.460888 399.58523 
Q 489.865575 399.58523 489.410888 399.368042 
Q 488.9562 399.150855 488.679638 398.738355 
Q 488.404638 398.325855 488.3312 397.744605 
L 488.3312 397.744605 
L 489.346825 397.744605 
L 489.346825 397.744605 
Q 489.390575 398.046167 489.53745 398.24148 
Q 489.684325 398.436792 489.915575 398.532105 
Q 490.148388 398.627417 490.460888 398.627417 
Q 490.953075 398.627417 491.226513 398.364917 
Q 491.49995 398.100855 491.49995 397.62273 
L 491.49995 397.407105 
Q 491.49995 396.874292 491.240575 396.58523 
Q 490.982763 396.294605 490.509325 396.294605 
L 490.0062 396.294605 
L 490.0062 395.346167 
L 490.509325 395.346167 
Q 490.92495 395.346167 491.153075 395.09773 
Q 491.382763 394.849292 491.382763 394.394605 
L 491.382763 394.174292 
Q 491.382763 393.755542 491.140575 393.525855 
Q 490.89995 393.296167 490.4562 393.296167 
Q 490.201513 393.296167 490.001513 393.39148 
Q 489.801513 393.486792 489.66245 393.68523 
Q 489.523388 393.882105 489.459325 394.17898 
L 489.459325 394.17898 
L 488.448388 394.17898 
L 488.448388 394.17898 
Q 488.546825 393.599292 488.817138 393.183667 
Q 489.089013 392.768042 489.503075 392.55398 
Q 489.9187 392.338355 490.4562 392.338355 
Q 491.373388 392.338355 491.876513 392.82273 
Q 492.379638 393.305542 492.379638 394.18523 
L 492.379638 394.302417 
Q 492.379638 394.833667 492.090575 395.22898 
Q 491.803075 395.624292 491.276513 395.805542 
Q 491.857763 395.932105 492.176513 396.377417 
Q 492.496825 396.821167 492.496825 397.51023 
L 492.496825 397.627417 
Q 492.496825 398.24773 492.257763 398.686792 
Q 492.0187 399.125855 491.560888 399.355542 
Q 491.104638 399.58523 490.460888 399.58523 
z
" style="fill: #ffffff"/>
   </g>
  </g>
 </g>
 <defs>
  <clipPath id="p440ce3b60e">
   <rect x="144" y="77.76" width="892.8" height="498.96"/>
  </clipPath>
 </defs>
</svg>
