<?xml version="1.0" encoding="utf-8" standalone="no"?>
<!DOCTYPE svg PUBLIC "-//W3C//DTD SVG 1.1//EN"
  "http://www.w3.org/Graphics/SVG/1.1/DTD/svg11.dtd">
<svg xmlns:xlink="http://www.w3.org/1999/xlink" width="1152pt" height="648pt" viewBox="0 0 1152 648" xmlns="http://www.w3.org/2000/svg" version="1.1">
 <metadata>
  <rdf:RDF xmlns:dc="http://purl.org/dc/elements/1.1/" xmlns:cc="http://creativecommons.org/ns#" xmlns:rdf="http://www.w3.org/1999/02/22-rdf-syntax-ns#">
   <cc:Work>
    <dc:type rdf:resource="http://purl.org/dc/dcmitype/StillImage"/>
    <dc:date>2025-09-19T13:20:11.141632</dc:date>
    <dc:format>image/svg+xml</dc:format>
    <dc:creator>
     <cc:Agent>
      <dc:title>Matplotlib v3.10.3, https://matplotlib.org/</dc:title>
     </cc:Agent>
    </dc:creator>
   </cc:Work>
  </rdf:RDF>
 </metadata>
 <defs>
  <style type="text/css">*{stroke-linejoin: round; stroke-linecap: butt}</style>
 </defs>
 <g id="figure_1">
  <g id="patch_1">
   <path d="M 0 648 
L 1152 648 
L 1152 0 
L 0 0 
L 0 648 
z
" style="fill: none"/>
  </g>
  <g id="axes_1">
   <g id="line2d_1">
    <path d="M 247.889455 498.648937 
L 250.894149 497.34264 
L 253.898843 496.051434 
L 256.903537 494.775429 
L 259.908231 493.514724 
L 262.912926 492.269407 
L 265.91762 491.039554 
L 268.922314 489.825231 
L 271.927008 488.626493 
L 274.931702 487.443384 
L 277.936397 486.27594 
L 280.941091 485.124184 
L 283.945785 483.988133 
L 286.950479 482.86779 
L 289.955174 481.763154 
L 292.959868 480.674211 
L 295.964562 479.60094 
L 298.969256 478.543311 
L 301.97395 477.501287 
L 304.978645 476.474822 
L 307.983339 475.463862 
L 310.988033 474.468348 
L 313.992727 473.488211 
L 316.997421 472.523378 
L 320.002116 471.573767 
L 323.00681 470.639292 
L 326.011504 469.719859 
L 329.016198 468.81537 
L 332.020893 467.925721 
L 335.025587 467.050802 
L 338.030281 466.190501 
L 341.034975 465.344697 
L 344.039669 464.513269 
L 347.044364 463.696089 
L 350.049058 462.893026 
L 353.053752 462.103946 
L 356.058446 461.32871 
L 359.06314 460.567179 
L 362.067835 459.819207 
L 365.072529 459.084648 
L 368.077223 458.363354 
L 371.081917 457.655172 
L 374.086612 456.95995 
L 377.091306 456.277532 
L 380.096 455.607761 
L 383.100694 454.950479 
L 386.105388 454.305525 
L 389.110083 453.672741 
L 392.114777 453.051962 
L 395.119471 452.443027 
L 398.124165 451.845773 
L 401.12886 451.260036 
L 404.133554 450.685652 
L 407.138248 450.122457 
L 410.142942 449.570286 
L 413.147636 449.028976 
L 416.152331 448.498362 
L 419.157025 447.97828 
L 422.161719 447.468567 
L 425.166413 446.969061 
L 428.171107 446.479599 
L 431.175802 446.00002 
L 434.180496 445.530162 
L 437.18519 445.069868 
L 440.189884 444.618976 
L 443.194579 444.177331 
L 446.199273 443.744774 
L 449.203967 443.321152 
L 452.208661 442.906309 
L 455.213355 442.500093 
L 458.21805 442.102352 
L 461.222744 441.712936 
L 464.227438 441.331696 
L 467.232132 440.958486 
L 470.236826 440.59316 
L 473.241521 440.235573 
L 476.246215 439.885584 
L 479.250909 439.543051 
L 482.255603 439.207836 
L 485.260298 438.879802 
L 488.264992 438.558812 
L 491.269686 438.244733 
L 494.27438 437.937432 
L 497.279074 437.63678 
L 500.283769 437.342647 
L 503.288463 437.054908 
L 506.293157 436.773436 
L 509.297851 436.498109 
L 512.302545 436.228805 
L 515.30724 435.965406 
L 518.311934 435.707793 
L 521.316628 435.45585 
L 524.321322 435.209463 
L 527.326017 434.96852 
L 530.330711 434.73291 
L 533.335405 434.502525 
L 536.340099 434.277258 
L 539.344793 434.057004 
L 542.349488 433.841659 
L 545.354182 433.631122 
" clip-path="url(#pbfcb754d97)" style="fill: none; stroke: #ff0000; stroke-width: 3; stroke-linecap: round"/>
   </g>
   <g id="text_1">
    <path d="M 552.907599 432.162065 
L 556.041974 428.17769 
L 557.266974 428.17769 
L 552.760724 433.655815 
L 552.907599 432.162065 
z
M 552.126349 428.17769 
L 553.121662 428.17769 
L 553.121662 435.27769 
L 552.126349 435.27769 
L 552.126349 428.17769 
z
M 554.088849 431.488628 
L 554.874787 430.760503 
L 557.565412 435.27769 
L 556.345099 435.27769 
L 554.088849 431.488628 
z
M 560.909552 431.75269 
L 560.904865 431.92769 
Q 560.78299 432.15269 560.536115 432.257378 
Q 560.28924 432.362065 559.953302 432.362065 
Q 559.44549 432.362065 559.059552 432.104253 
Q 558.673615 431.844878 558.461115 431.374565 
Q 558.248615 430.90269 558.248615 430.282378 
L 558.248615 430.27769 
Q 558.248615 429.588628 558.479865 429.101128 
Q 558.712677 428.612065 559.159552 428.35894 
Q 559.606427 428.104253 560.231427 428.104253 
Q 560.856427 428.104253 561.300177 428.363628 
Q 561.74549 428.623003 561.97674 429.116753 
Q 562.20799 429.60894 562.20799 430.30269 
L 562.20799 430.307378 
Q 562.20799 430.687065 562.109552 431.119878 
Q 562.012677 431.55269 561.83299 431.976128 
Q 561.803302 432.04019 561.773615 432.105815 
Q 561.74549 432.17144 561.711115 432.235503 
L 560.197052 435.27769 
L 559.122052 435.27769 
L 560.909552 431.75269 
z
M 560.231427 431.454253 
Q 560.700177 431.454253 560.956427 431.137065 
Q 561.212677 430.819878 561.212677 430.243315 
L 561.212677 430.238628 
Q 561.212677 429.67769 560.956427 429.369878 
Q 560.700177 429.062065 560.231427 429.062065 
Q 559.75799 429.062065 559.50174 429.369878 
Q 559.24549 429.67769 559.24549 430.243315 
L 559.24549 430.248003 
Q 559.24549 430.824565 559.50174 431.14019 
Q 559.75799 431.454253 560.231427 431.454253 
z
M 565.553888 435.351128 
Q 564.557013 435.351128 564.041388 434.819878 
Q 563.527326 434.287065 563.527326 433.33394 
L 563.527326 430.107378 
Q 563.527326 429.149565 564.044513 428.619878 
Q 564.561701 428.09019 565.553888 428.09019 
Q 566.549201 428.09019 567.064826 428.618315 
Q 567.580451 429.144878 567.580451 430.107378 
L 567.580451 433.33394 
Q 567.580451 434.291753 567.061701 434.82144 
Q 566.544513 435.351128 565.553888 435.351128 
z
M 565.553888 434.404253 
Q 566.080451 434.404253 566.332013 434.12769 
Q 566.583576 433.851128 566.583576 433.33394 
L 566.583576 430.107378 
Q 566.583576 429.588628 566.333576 429.313628 
Q 566.085138 429.037065 565.553888 429.037065 
Q 565.021076 429.037065 564.771076 429.313628 
Q 564.522638 429.588628 564.522638 430.107378 
L 564.522638 433.33394 
Q 564.522638 433.851128 564.774201 434.12769 
Q 565.025763 434.404253 565.553888 434.404253 
z
M 571.071467 435.351128 
Q 570.074592 435.351128 569.558967 434.819878 
Q 569.044904 434.287065 569.044904 433.33394 
L 569.044904 430.107378 
Q 569.044904 429.149565 569.562092 428.619878 
Q 570.079279 428.09019 571.071467 428.09019 
Q 572.066779 428.09019 572.582404 428.618315 
Q 573.098029 429.144878 573.098029 430.107378 
L 573.098029 433.33394 
Q 573.098029 434.291753 572.579279 434.82144 
Q 572.062092 435.351128 571.071467 435.351128 
z
M 571.071467 434.404253 
Q 571.598029 434.404253 571.849592 434.12769 
Q 572.101154 433.851128 572.101154 433.33394 
L 572.101154 430.107378 
Q 572.101154 429.588628 571.851154 429.313628 
Q 571.602717 429.037065 571.071467 429.037065 
Q 570.538654 429.037065 570.288654 429.313628 
Q 570.040217 429.588628 570.040217 430.107378 
L 570.040217 433.33394 
Q 570.040217 433.851128 570.291779 434.12769 
Q 570.543342 434.404253 571.071467 434.404253 
z
M 576.589045 435.351128 
Q 575.59217 435.351128 575.076545 434.819878 
Q 574.562482 434.287065 574.562482 433.33394 
L 574.562482 430.107378 
Q 574.562482 429.149565 575.07967 428.619878 
Q 575.596857 428.09019 576.589045 428.09019 
Q 577.584357 428.09019 578.099982 428.618315 
Q 578.615607 429.144878 578.615607 430.107378 
L 578.615607 433.33394 
Q 578.615607 434.291753 578.096857 434.82144 
Q 577.57967 435.351128 576.589045 435.351128 
z
M 576.589045 434.404253 
Q 577.115607 434.404253 577.36717 434.12769 
Q 577.618732 433.851128 577.618732 433.33394 
L 577.618732 430.107378 
Q 577.618732 429.588628 577.368732 429.313628 
Q 577.120295 429.037065 576.589045 429.037065 
Q 576.056232 429.037065 575.806232 429.313628 
Q 575.557795 429.588628 575.557795 430.107378 
L 575.557795 433.33394 
Q 575.557795 433.851128 575.809357 434.12769 
Q 576.06092 434.404253 576.589045 434.404253 
z
M 582.359748 435.351128 
Q 581.847248 435.351128 581.387873 435.254253 
Q 580.93006 435.155815 580.531623 434.960503 
Q 580.133185 434.76519 579.78631 434.47144 
L 579.78631 434.47144 
L 580.406623 433.710503 
L 580.406623 433.710503 
Q 580.812873 434.062065 581.300373 434.238628 
Q 581.789435 434.413628 582.359748 434.413628 
Q 583.131623 434.413628 583.556623 434.12769 
Q 583.981623 433.841753 583.981623 433.319878 
L 583.981623 433.31519 
Q 583.981623 432.943315 583.787873 432.726128 
Q 583.595685 432.50894 583.289435 432.404253 
Q 582.984748 432.299565 582.501935 432.210503 
Q 582.48631 432.205815 582.469123 432.205815 
Q 582.453498 432.205815 582.437873 432.201128 
L 582.364435 432.187065 
Q 581.651935 432.06519 581.20506 431.912065 
Q 580.758185 431.757378 580.440998 431.349565 
Q 580.12381 430.941753 580.12381 430.19019 
L 580.12381 430.185503 
Q 580.12381 429.526128 580.419123 429.060503 
Q 580.714435 428.593315 581.28006 428.349565 
Q 581.847248 428.104253 582.64256 428.104253 
Q 583.02381 428.104253 583.39256 428.188628 
Q 583.76131 428.27144 584.119123 428.435503 
Q 584.478498 428.598003 584.825373 428.84644 
L 584.825373 428.84644 
L 584.259748 429.638628 
L 584.259748 429.638628 
Q 583.853498 429.34019 583.450373 429.191753 
Q 583.04881 429.041753 582.64256 429.041753 
Q 581.915998 429.041753 581.512873 429.332378 
Q 581.109748 429.623003 581.109748 430.155815 
L 581.109748 430.160503 
Q 581.109748 430.526128 581.31756 430.737065 
Q 581.525373 430.94644 581.834748 431.04644 
Q 582.145685 431.14644 582.697248 431.254253 
Q 582.715998 431.25894 582.733185 431.262065 
Q 582.750373 431.263628 582.770685 431.268315 
Q 582.794123 431.273003 582.82381 431.279253 
Q 582.853498 431.28394 582.876935 431.288628 
Q 583.522248 431.419878 583.953498 431.601128 
Q 584.38631 431.780815 584.676935 432.18394 
Q 584.96756 432.587065 584.96756 433.285503 
L 584.96756 433.294878 
Q 584.96756 433.944878 584.659748 434.405815 
Q 584.351935 434.866753 583.76756 435.10894 
Q 583.184748 435.351128 582.359748 435.351128 
z
" style="fill: #ffffff; stroke: #000000"/>
    <path d="M 552.907599 432.162065 
L 556.041974 428.17769 
L 557.266974 428.17769 
L 552.760724 433.655815 
L 552.907599 432.162065 
z
M 552.126349 428.17769 
L 553.121662 428.17769 
L 553.121662 435.27769 
L 552.126349 435.27769 
L 552.126349 428.17769 
z
M 554.088849 431.488628 
L 554.874787 430.760503 
L 557.565412 435.27769 
L 556.345099 435.27769 
L 554.088849 431.488628 
z
M 560.909552 431.75269 
L 560.904865 431.92769 
Q 560.78299 432.15269 560.536115 432.257378 
Q 560.28924 432.362065 559.953302 432.362065 
Q 559.44549 432.362065 559.059552 432.104253 
Q 558.673615 431.844878 558.461115 431.374565 
Q 558.248615 430.90269 558.248615 430.282378 
L 558.248615 430.27769 
Q 558.248615 429.588628 558.479865 429.101128 
Q 558.712677 428.612065 559.159552 428.35894 
Q 559.606427 428.104253 560.231427 428.104253 
Q 560.856427 428.104253 561.300177 428.363628 
Q 561.74549 428.623003 561.97674 429.116753 
Q 562.20799 429.60894 562.20799 430.30269 
L 562.20799 430.307378 
Q 562.20799 430.687065 562.109552 431.119878 
Q 562.012677 431.55269 561.83299 431.976128 
Q 561.803302 432.04019 561.773615 432.105815 
Q 561.74549 432.17144 561.711115 432.235503 
L 560.197052 435.27769 
L 559.122052 435.27769 
L 560.909552 431.75269 
z
M 560.231427 431.454253 
Q 560.700177 431.454253 560.956427 431.137065 
Q 561.212677 430.819878 561.212677 430.243315 
L 561.212677 430.238628 
Q 561.212677 429.67769 560.956427 429.369878 
Q 560.700177 429.062065 560.231427 429.062065 
Q 559.75799 429.062065 559.50174 429.369878 
Q 559.24549 429.67769 559.24549 430.243315 
L 559.24549 430.248003 
Q 559.24549 430.824565 559.50174 431.14019 
Q 559.75799 431.454253 560.231427 431.454253 
z
M 565.553888 435.351128 
Q 564.557013 435.351128 564.041388 434.819878 
Q 563.527326 434.287065 563.527326 433.33394 
L 563.527326 430.107378 
Q 563.527326 429.149565 564.044513 428.619878 
Q 564.561701 428.09019 565.553888 428.09019 
Q 566.549201 428.09019 567.064826 428.618315 
Q 567.580451 429.144878 567.580451 430.107378 
L 567.580451 433.33394 
Q 567.580451 434.291753 567.061701 434.82144 
Q 566.544513 435.351128 565.553888 435.351128 
z
M 565.553888 434.404253 
Q 566.080451 434.404253 566.332013 434.12769 
Q 566.583576 433.851128 566.583576 433.33394 
L 566.583576 430.107378 
Q 566.583576 429.588628 566.333576 429.313628 
Q 566.085138 429.037065 565.553888 429.037065 
Q 565.021076 429.037065 564.771076 429.313628 
Q 564.522638 429.588628 564.522638 430.107378 
L 564.522638 433.33394 
Q 564.522638 433.851128 564.774201 434.12769 
Q 565.025763 434.404253 565.553888 434.404253 
z
M 571.071467 435.351128 
Q 570.074592 435.351128 569.558967 434.819878 
Q 569.044904 434.287065 569.044904 433.33394 
L 569.044904 430.107378 
Q 569.044904 429.149565 569.562092 428.619878 
Q 570.079279 428.09019 571.071467 428.09019 
Q 572.066779 428.09019 572.582404 428.618315 
Q 573.098029 429.144878 573.098029 430.107378 
L 573.098029 433.33394 
Q 573.098029 434.291753 572.579279 434.82144 
Q 572.062092 435.351128 571.071467 435.351128 
z
M 571.071467 434.404253 
Q 571.598029 434.404253 571.849592 434.12769 
Q 572.101154 433.851128 572.101154 433.33394 
L 572.101154 430.107378 
Q 572.101154 429.588628 571.851154 429.313628 
Q 571.602717 429.037065 571.071467 429.037065 
Q 570.538654 429.037065 570.288654 429.313628 
Q 570.040217 429.588628 570.040217 430.107378 
L 570.040217 433.33394 
Q 570.040217 433.851128 570.291779 434.12769 
Q 570.543342 434.404253 571.071467 434.404253 
z
M 576.589045 435.351128 
Q 575.59217 435.351128 575.076545 434.819878 
Q 574.562482 434.287065 574.562482 433.33394 
L 574.562482 430.107378 
Q 574.562482 429.149565 575.07967 428.619878 
Q 575.596857 428.09019 576.589045 428.09019 
Q 577.584357 428.09019 578.099982 428.618315 
Q 578.615607 429.144878 578.615607 430.107378 
L 578.615607 433.33394 
Q 578.615607 434.291753 578.096857 434.82144 
Q 577.57967 435.351128 576.589045 435.351128 
z
M 576.589045 434.404253 
Q 577.115607 434.404253 577.36717 434.12769 
Q 577.618732 433.851128 577.618732 433.33394 
L 577.618732 430.107378 
Q 577.618732 429.588628 577.368732 429.313628 
Q 577.120295 429.037065 576.589045 429.037065 
Q 576.056232 429.037065 575.806232 429.313628 
Q 575.557795 429.588628 575.557795 430.107378 
L 575.557795 433.33394 
Q 575.557795 433.851128 575.809357 434.12769 
Q 576.06092 434.404253 576.589045 434.404253 
z
M 582.359748 435.351128 
Q 581.847248 435.351128 581.387873 435.254253 
Q 580.93006 435.155815 580.531623 434.960503 
Q 580.133185 434.76519 579.78631 434.47144 
L 579.78631 434.47144 
L 580.406623 433.710503 
L 580.406623 433.710503 
Q 580.812873 434.062065 581.300373 434.238628 
Q 581.789435 434.413628 582.359748 434.413628 
Q 583.131623 434.413628 583.556623 434.12769 
Q 583.981623 433.841753 583.981623 433.319878 
L 583.981623 433.31519 
Q 583.981623 432.943315 583.787873 432.726128 
Q 583.595685 432.50894 583.289435 432.404253 
Q 582.984748 432.299565 582.501935 432.210503 
Q 582.48631 432.205815 582.469123 432.205815 
Q 582.453498 432.205815 582.437873 432.201128 
L 582.364435 432.187065 
Q 581.651935 432.06519 581.20506 431.912065 
Q 580.758185 431.757378 580.440998 431.349565 
Q 580.12381 430.941753 580.12381 430.19019 
L 580.12381 430.185503 
Q 580.12381 429.526128 580.419123 429.060503 
Q 580.714435 428.593315 581.28006 428.349565 
Q 581.847248 428.104253 582.64256 428.104253 
Q 583.02381 428.104253 583.39256 428.188628 
Q 583.76131 428.27144 584.119123 428.435503 
Q 584.478498 428.598003 584.825373 428.84644 
L 584.825373 428.84644 
L 584.259748 429.638628 
L 584.259748 429.638628 
Q 583.853498 429.34019 583.450373 429.191753 
Q 583.04881 429.041753 582.64256 429.041753 
Q 581.915998 429.041753 581.512873 429.332378 
Q 581.109748 429.623003 581.109748 430.155815 
L 581.109748 430.160503 
Q 581.109748 430.526128 581.31756 430.737065 
Q 581.525373 430.94644 581.834748 431.04644 
Q 582.145685 431.14644 582.697248 431.254253 
Q 582.715998 431.25894 582.733185 431.262065 
Q 582.750373 431.263628 582.770685 431.268315 
Q 582.794123 431.273003 582.82381 431.279253 
Q 582.853498 431.28394 582.876935 431.288628 
Q 583.522248 431.419878 583.953498 431.601128 
Q 584.38631 431.780815 584.676935 432.18394 
Q 584.96756 432.587065 584.96756 433.285503 
L 584.96756 433.294878 
Q 584.96756 433.944878 584.659748 434.405815 
Q 584.351935 434.866753 583.76756 435.10894 
Q 583.184748 435.351128 582.359748 435.351128 
z
" style="fill: #ffffff"/>
   </g>
  </g>
 </g>
 <defs>
  <clipPath id="pbfcb754d97">
   <rect x="144" y="77.76" width="892.8" height="498.96"/>
  </clipPath>
 </defs>
</svg>
