<?xml version="1.0" encoding="utf-8" standalone="no"?>
<!DOCTYPE svg PUBLIC "-//W3C//DTD SVG 1.1//EN"
  "http://www.w3.org/Graphics/SVG/1.1/DTD/svg11.dtd">
<svg xmlns:xlink="http://www.w3.org/1999/xlink" width="1152pt" height="648pt" viewBox="0 0 1152 648" xmlns="http://www.w3.org/2000/svg" version="1.1">
 <metadata>
  <rdf:RDF xmlns:dc="http://purl.org/dc/elements/1.1/" xmlns:cc="http://creativecommons.org/ns#" xmlns:rdf="http://www.w3.org/1999/02/22-rdf-syntax-ns#">
   <cc:Work>
    <dc:type rdf:resource="http://purl.org/dc/dcmitype/StillImage"/>
    <dc:date>2025-09-19T13:20:10.736620</dc:date>
    <dc:format>image/svg+xml</dc:format>
    <dc:creator>
     <cc:Agent>
      <dc:title>Matplotlib v3.10.3, https://matplotlib.org/</dc:title>
     </cc:Agent>
    </dc:creator>
   </cc:Work>
  </rdf:RDF>
 </metadata>
 <defs>
  <style type="text/css">*{stroke-linejoin: round; stroke-linecap: butt}</style>
 </defs>
 <g id="figure_1">
  <g id="patch_1">
   <path d="M 0 648 
L 1152 648 
L 1152 0 
L 0 0 
L 0 648 
z
" style="fill: none"/>
  </g>
  <g id="axes_1">
   <g id="line2d_1">
    <path d="M 209.742545 509.197354 
L 211.820826 507.708887 
L 213.899107 506.231332 
L 215.977388 504.764839 
L 218.055669 503.309555 
L 220.13395 501.865618 
L 222.212231 500.433161 
L 224.290512 499.01231 
L 226.368793 497.603185 
L 228.447074 496.2059 
L 230.525355 494.820562 
L 232.603636 493.447272 
L 234.681917 492.086127 
L 236.760198 490.737213 
L 238.838479 489.400615 
L 240.91676 488.076408 
L 242.995041 486.764665 
L 245.073322 485.465448 
L 247.151603 484.178819 
L 249.229884 482.90483 
L 251.308165 481.643528 
L 253.386446 480.394955 
L 255.464727 479.159149 
L 257.543008 477.93614 
L 259.621289 476.725953 
L 261.69957 475.528609 
L 263.777851 474.344124 
L 265.856132 473.172508 
L 267.934413 472.013766 
L 270.012694 470.867898 
L 272.090975 469.734901 
L 274.169256 468.614765 
L 276.247537 467.507477 
L 278.325818 466.413019 
L 280.404099 465.331369 
L 282.48238 464.262501 
L 284.560661 463.206384 
L 286.638942 462.162984 
L 288.717223 461.132263 
L 290.795504 460.114178 
L 292.873785 459.108686 
L 294.952066 458.115735 
L 297.030347 457.135275 
L 299.108628 456.167249 
L 301.186909 455.211599 
L 303.26519 454.268263 
L 305.343471 453.337175 
L 307.421752 452.418269 
L 309.500033 451.511474 
L 311.578314 450.616717 
L 313.656595 449.733923 
L 315.734876 448.863014 
L 317.813157 448.00391 
L 319.891438 447.156529 
L 321.969719 446.320787 
L 324.048 445.496596 
L 326.126281 444.683871 
L 328.204562 443.882519 
L 330.282843 443.09245 
L 332.361124 442.313572 
L 334.439405 441.545788 
L 336.517686 440.789004 
L 338.595967 440.043122 
L 340.674248 439.308043 
L 342.752529 438.583669 
L 344.83081 437.869898 
L 346.909091 437.166629 
L 348.987372 436.47376 
L 351.065653 435.791186 
L 353.143934 435.118805 
L 355.222215 434.456512 
L 357.300496 433.804202 
L 359.378777 433.161768 
L 361.457058 432.529105 
L 363.535339 431.906106 
L 365.61362 431.292665 
L 367.691901 430.688675 
L 369.770182 430.094028 
L 371.848463 429.508616 
L 373.926744 428.932334 
L 376.005025 428.365072 
L 378.083306 427.806725 
L 380.161587 427.257184 
L 382.239868 426.716342 
L 384.318149 426.184093 
L 386.39643 425.66033 
L 388.474711 425.144946 
L 390.552992 424.637836 
L 392.631273 424.138892 
L 394.709554 423.648011 
L 396.787835 423.165087 
L 398.866116 422.690016 
L 400.944397 422.222694 
L 403.022678 421.763017 
L 405.100959 421.310882 
L 407.17924 420.866188 
L 409.257521 420.428832 
L 411.335802 419.998714 
L 413.414083 419.575733 
L 415.492364 419.159789 
" clip-path="url(#pd22bac5946)" style="fill: none; stroke: #79a1f2; stroke-width: 3; stroke-linecap: round"/>
   </g>
   <g id="text_1">
    <path d="M 424.397344 420.879795 
Q 423.884844 420.879795 423.425469 420.78292 
Q 422.967656 420.684482 422.569219 420.48917 
Q 422.170781 420.293857 421.823906 420.000107 
L 421.823906 420.000107 
L 422.444219 419.23917 
L 422.444219 419.23917 
Q 422.850469 419.590732 423.337969 419.767295 
Q 423.827031 419.942295 424.397344 419.942295 
Q 425.169219 419.942295 425.594219 419.656357 
Q 426.019219 419.37042 426.019219 418.848545 
L 426.019219 418.843857 
Q 426.019219 418.471982 425.825469 418.254795 
Q 425.633281 418.037607 425.327031 417.93292 
Q 425.022344 417.828232 424.539531 417.73917 
Q 424.523906 417.734482 424.506719 417.734482 
Q 424.491094 417.734482 424.475469 417.729795 
L 424.402031 417.715732 
Q 423.689531 417.593857 423.242656 417.440732 
Q 422.795781 417.286045 422.478594 416.878232 
Q 422.161406 416.47042 422.161406 415.718857 
L 422.161406 415.71417 
Q 422.161406 415.054795 422.456719 414.58917 
Q 422.752031 414.121982 423.317656 413.878232 
Q 423.884844 413.63292 424.680156 413.63292 
Q 425.061406 413.63292 425.430156 413.717295 
Q 425.798906 413.800107 426.156719 413.96417 
Q 426.516094 414.12667 426.862969 414.375107 
L 426.862969 414.375107 
L 426.297344 415.167295 
L 426.297344 415.167295 
Q 425.891094 414.868857 425.487969 414.72042 
Q 425.086406 414.57042 424.680156 414.57042 
Q 423.953594 414.57042 423.550469 414.861045 
Q 423.147344 415.15167 423.147344 415.684482 
L 423.147344 415.68917 
Q 423.147344 416.054795 423.355156 416.265732 
Q 423.562969 416.475107 423.872344 416.575107 
Q 424.183281 416.675107 424.734844 416.78292 
Q 424.753594 416.787607 424.770781 416.790732 
Q 424.787969 416.792295 424.808281 416.796982 
Q 424.831719 416.80167 424.861406 416.80792 
Q 424.891094 416.812607 424.914531 416.817295 
Q 425.559844 416.948545 425.991094 417.129795 
Q 426.423906 417.309482 426.714531 417.712607 
Q 427.005156 418.115732 427.005156 418.81417 
L 427.005156 418.823545 
Q 427.005156 419.473545 426.697344 419.934482 
Q 426.389531 420.39542 425.805156 420.637607 
Q 425.222344 420.879795 424.397344 420.879795 
z
M 429.095195 419.859482 
L 430.701445 419.859482 
Q 431.487383 419.859482 431.918633 419.45167 
Q 432.351445 419.043857 432.351445 418.30167 
L 432.351445 416.211045 
Q 432.351445 415.468857 431.918633 415.061045 
Q 431.487383 414.653232 430.701445 414.653232 
L 429.095195 414.653232 
L 429.095195 413.706357 
L 430.671758 413.706357 
Q 431.526445 413.706357 432.131133 414.004795 
Q 432.737383 414.30167 433.05457 414.873545 
Q 433.371758 415.44542 433.371758 416.250107 
L 433.371758 418.262607 
Q 433.371758 419.067295 433.05457 419.63917 
Q 432.737383 420.211045 432.12957 420.509482 
Q 431.521758 420.806357 430.66707 420.806357 
L 429.095195 420.806357 
L 429.095195 419.859482 
z
M 428.421758 413.706357 
L 429.41707 413.706357 
L 429.41707 420.806357 
L 428.421758 420.806357 
L 428.421758 413.706357 
z
M 436.91707 420.879795 
Q 436.27332 420.879795 435.784258 420.636045 
Q 435.296758 420.390732 435.02957 419.943857 
Q 434.763945 419.496982 434.763945 418.906357 
L 434.763945 418.78917 
Q 434.763945 418.25792 435.02957 417.78917 
Q 435.296758 417.32042 435.740508 417.081357 
Q 435.363945 416.875107 435.137383 416.487607 
Q 434.91082 416.098545 434.91082 415.668857 
L 434.91082 415.498545 
Q 434.91082 414.942295 435.159258 414.52042 
Q 435.407695 414.096982 435.862383 413.865732 
Q 436.31707 413.63292 436.91707 413.63292 
Q 437.51707 413.63292 437.971758 413.865732 
Q 438.426445 414.096982 438.674883 414.52042 
Q 438.92332 414.942295 438.92332 415.498545 
L 438.92332 415.668857 
Q 438.92332 416.109482 438.69207 416.49542 
Q 438.46082 416.879795 438.07957 417.081357 
Q 438.528008 417.325107 438.79832 417.792295 
Q 439.070195 418.25792 439.070195 418.78917 
L 439.070195 418.906357 
Q 439.070195 419.496982 438.80457 419.943857 
Q 438.538945 420.390732 438.049883 420.636045 
Q 437.562383 420.879795 436.91707 420.879795 
z
M 436.91707 419.921982 
Q 437.263945 419.921982 437.526445 419.786045 
Q 437.790508 419.648545 437.934258 419.403232 
Q 438.07957 419.156357 438.07957 418.83292 
L 438.07957 418.765732 
Q 438.07957 418.437607 437.934258 418.192295 
Q 437.790508 417.94542 437.526445 417.809482 
Q 437.263945 417.671982 436.91707 417.671982 
Q 436.570195 417.671982 436.306133 417.809482 
Q 436.043633 417.94542 435.89832 418.193857 
Q 435.75457 418.442295 435.75457 418.77042 
L 435.75457 418.843857 
Q 435.75457 419.165732 435.89832 419.409482 
Q 436.043633 419.653232 436.306133 419.787607 
Q 436.570195 419.921982 436.91707 419.921982 
z
M 436.91707 416.71417 
Q 437.215508 416.71417 437.443633 416.586045 
Q 437.67332 416.456357 437.799883 416.217295 
Q 437.928008 415.97667 437.928008 415.66417 
L 437.928008 415.596982 
Q 437.928008 415.298545 437.799883 415.068857 
Q 437.67332 414.83917 437.443633 414.715732 
Q 437.215508 414.590732 436.91707 414.590732 
Q 436.618633 414.590732 436.388945 414.715732 
Q 436.16082 414.83917 436.032695 415.068857 
Q 435.906133 415.298545 435.906133 415.60167 
L 435.906133 415.675107 
Q 435.906133 415.981357 436.032695 416.218857 
Q 436.16082 416.456357 436.388945 416.586045 
Q 436.618633 416.71417 436.91707 416.71417 
z
M 444.378008 417.061045 
L 444.378008 418.00792 
L 440.413945 418.00792 
L 440.413945 417.061045 
L 444.378008 417.061045 
z
M 442.893633 419.517295 
L 441.89832 419.517295 
L 441.89832 415.55167 
L 442.893633 415.55167 
L 442.893633 419.517295 
z
M 452.45457 416.98292 
L 452.45457 418.223545 
Q 452.45457 419.01417 452.146758 419.617295 
Q 451.838945 420.22042 451.274883 420.550107 
Q 450.71082 420.879795 449.968633 420.879795 
Q 449.21707 420.879795 448.64832 420.57042 
Q 448.07957 420.259482 447.76707 419.693857 
Q 447.45457 419.12667 447.45457 418.379795 
L 447.45457 416.284482 
Q 447.45457 415.493857 447.762383 414.893857 
Q 448.070195 414.292295 448.632695 413.962607 
Q 449.196758 413.63292 449.938945 413.63292 
Q 450.549883 413.63292 451.063945 413.89542 
Q 451.57957 414.156357 451.926445 414.634482 
Q 452.27332 415.112607 452.395195 415.742295 
L 452.395195 415.742295 
L 451.31707 415.742295 
L 451.31707 415.742295 
Q 451.228008 415.386045 451.018633 415.129795 
Q 450.809258 414.873545 450.524883 414.73917 
Q 450.24207 414.604795 449.938945 414.604795 
Q 449.499883 414.604795 449.16707 414.815732 
Q 448.83582 415.025107 448.65457 415.403232 
Q 448.474883 415.781357 448.474883 416.284482 
L 448.474883 418.379795 
Q 448.474883 418.83917 448.659258 419.18292 
Q 448.845195 419.52667 449.184258 419.717295 
Q 449.524883 419.90792 449.968633 419.90792 
Q 450.407695 419.90792 450.738945 419.711045 
Q 451.071758 419.512607 451.253008 419.137607 
Q 451.434258 418.761045 451.434258 418.242295 
L 451.434258 417.934482 
L 449.993633 417.934482 
L 449.993633 416.98292 
L 452.45457 416.98292 
z
M 456.042851 420.879795 
Q 455.339726 420.879795 454.841289 420.615732 
Q 454.344414 420.35167 454.081914 419.842295 
Q 453.820976 419.331357 453.820976 418.609482 
L 453.820976 418.037607 
Q 453.820976 417.286045 454.072539 416.754795 
Q 454.324101 416.221982 454.802226 415.943857 
Q 455.281914 415.66417 455.955351 415.66417 
Q 456.589726 415.66417 457.038164 415.98292 
Q 457.488164 416.300107 457.724101 416.900107 
Q 457.961601 417.500107 457.961601 418.340732 
L 457.961601 418.671982 
L 454.544414 418.671982 
L 454.544414 417.871982 
L 457.014726 417.871982 
L 457.014726 417.871982 
Q 456.970976 417.25167 456.694414 416.90792 
Q 456.419414 416.562607 455.955351 416.562607 
Q 455.388164 416.562607 455.078789 416.934482 
Q 454.769414 417.304795 454.769414 417.984482 
L 454.769414 418.628232 
Q 454.769414 419.25792 455.100664 419.59542 
Q 455.433476 419.93292 456.042851 419.93292 
Q 456.345976 419.93292 456.642851 419.811045 
Q 456.941289 419.687607 457.175664 419.468857 
L 457.175664 419.468857 
L 457.830351 420.121982 
L 457.830351 420.121982 
Q 457.453789 420.484482 456.985039 420.68292 
Q 456.516289 420.879795 456.042851 420.879795 
z
M 459.32918 415.737607 
L 460.326055 415.737607 
L 460.326055 420.806357 
L 459.32918 420.806357 
L 459.32918 415.737607 
z
M 462.405742 417.734482 
Q 462.405742 417.198545 462.127617 416.906357 
Q 461.849492 416.612607 461.346367 416.612607 
Q 460.857305 416.612607 460.59168 416.871982 
Q 460.326055 417.129795 460.326055 417.598545 
L 460.22293 416.621982 
Q 460.457305 416.162607 460.83543 415.91417 
Q 461.213555 415.66417 461.67293 415.66417 
Q 462.49793 415.66417 462.949492 416.204795 
Q 463.401055 416.743857 463.401055 417.729795 
L 463.401055 420.806357 
L 462.405742 420.806357 
L 462.405742 417.734482 
z
M 466.580742 420.806357 
L 465.583867 420.806357 
L 465.583867 414.790732 
L 464.57293 415.411045 
L 464.57293 414.379795 
L 465.583867 413.706357 
L 466.580742 413.706357 
L 466.580742 420.806357 
z
" style="fill: #ffffff; stroke: #000000"/>
    <path d="M 424.397344 420.879795 
Q 423.884844 420.879795 423.425469 420.78292 
Q 422.967656 420.684482 422.569219 420.48917 
Q 422.170781 420.293857 421.823906 420.000107 
L 421.823906 420.000107 
L 422.444219 419.23917 
L 422.444219 419.23917 
Q 422.850469 419.590732 423.337969 419.767295 
Q 423.827031 419.942295 424.397344 419.942295 
Q 425.169219 419.942295 425.594219 419.656357 
Q 426.019219 419.37042 426.019219 418.848545 
L 426.019219 418.843857 
Q 426.019219 418.471982 425.825469 418.254795 
Q 425.633281 418.037607 425.327031 417.93292 
Q 425.022344 417.828232 424.539531 417.73917 
Q 424.523906 417.734482 424.506719 417.734482 
Q 424.491094 417.734482 424.475469 417.729795 
L 424.402031 417.715732 
Q 423.689531 417.593857 423.242656 417.440732 
Q 422.795781 417.286045 422.478594 416.878232 
Q 422.161406 416.47042 422.161406 415.718857 
L 422.161406 415.71417 
Q 422.161406 415.054795 422.456719 414.58917 
Q 422.752031 414.121982 423.317656 413.878232 
Q 423.884844 413.63292 424.680156 413.63292 
Q 425.061406 413.63292 425.430156 413.717295 
Q 425.798906 413.800107 426.156719 413.96417 
Q 426.516094 414.12667 426.862969 414.375107 
L 426.862969 414.375107 
L 426.297344 415.167295 
L 426.297344 415.167295 
Q 425.891094 414.868857 425.487969 414.72042 
Q 425.086406 414.57042 424.680156 414.57042 
Q 423.953594 414.57042 423.550469 414.861045 
Q 423.147344 415.15167 423.147344 415.684482 
L 423.147344 415.68917 
Q 423.147344 416.054795 423.355156 416.265732 
Q 423.562969 416.475107 423.872344 416.575107 
Q 424.183281 416.675107 424.734844 416.78292 
Q 424.753594 416.787607 424.770781 416.790732 
Q 424.787969 416.792295 424.808281 416.796982 
Q 424.831719 416.80167 424.861406 416.80792 
Q 424.891094 416.812607 424.914531 416.817295 
Q 425.559844 416.948545 425.991094 417.129795 
Q 426.423906 417.309482 426.714531 417.712607 
Q 427.005156 418.115732 427.005156 418.81417 
L 427.005156 418.823545 
Q 427.005156 419.473545 426.697344 419.934482 
Q 426.389531 420.39542 425.805156 420.637607 
Q 425.222344 420.879795 424.397344 420.879795 
z
M 429.095195 419.859482 
L 430.701445 419.859482 
Q 431.487383 419.859482 431.918633 419.45167 
Q 432.351445 419.043857 432.351445 418.30167 
L 432.351445 416.211045 
Q 432.351445 415.468857 431.918633 415.061045 
Q 431.487383 414.653232 430.701445 414.653232 
L 429.095195 414.653232 
L 429.095195 413.706357 
L 430.671758 413.706357 
Q 431.526445 413.706357 432.131133 414.004795 
Q 432.737383 414.30167 433.05457 414.873545 
Q 433.371758 415.44542 433.371758 416.250107 
L 433.371758 418.262607 
Q 433.371758 419.067295 433.05457 419.63917 
Q 432.737383 420.211045 432.12957 420.509482 
Q 431.521758 420.806357 430.66707 420.806357 
L 429.095195 420.806357 
L 429.095195 419.859482 
z
M 428.421758 413.706357 
L 429.41707 413.706357 
L 429.41707 420.806357 
L 428.421758 420.806357 
L 428.421758 413.706357 
z
M 436.91707 420.879795 
Q 436.27332 420.879795 435.784258 420.636045 
Q 435.296758 420.390732 435.02957 419.943857 
Q 434.763945 419.496982 434.763945 418.906357 
L 434.763945 418.78917 
Q 434.763945 418.25792 435.02957 417.78917 
Q 435.296758 417.32042 435.740508 417.081357 
Q 435.363945 416.875107 435.137383 416.487607 
Q 434.91082 416.098545 434.91082 415.668857 
L 434.91082 415.498545 
Q 434.91082 414.942295 435.159258 414.52042 
Q 435.407695 414.096982 435.862383 413.865732 
Q 436.31707 413.63292 436.91707 413.63292 
Q 437.51707 413.63292 437.971758 413.865732 
Q 438.426445 414.096982 438.674883 414.52042 
Q 438.92332 414.942295 438.92332 415.498545 
L 438.92332 415.668857 
Q 438.92332 416.109482 438.69207 416.49542 
Q 438.46082 416.879795 438.07957 417.081357 
Q 438.528008 417.325107 438.79832 417.792295 
Q 439.070195 418.25792 439.070195 418.78917 
L 439.070195 418.906357 
Q 439.070195 419.496982 438.80457 419.943857 
Q 438.538945 420.390732 438.049883 420.636045 
Q 437.562383 420.879795 436.91707 420.879795 
z
M 436.91707 419.921982 
Q 437.263945 419.921982 437.526445 419.786045 
Q 437.790508 419.648545 437.934258 419.403232 
Q 438.07957 419.156357 438.07957 418.83292 
L 438.07957 418.765732 
Q 438.07957 418.437607 437.934258 418.192295 
Q 437.790508 417.94542 437.526445 417.809482 
Q 437.263945 417.671982 436.91707 417.671982 
Q 436.570195 417.671982 436.306133 417.809482 
Q 436.043633 417.94542 435.89832 418.193857 
Q 435.75457 418.442295 435.75457 418.77042 
L 435.75457 418.843857 
Q 435.75457 419.165732 435.89832 419.409482 
Q 436.043633 419.653232 436.306133 419.787607 
Q 436.570195 419.921982 436.91707 419.921982 
z
M 436.91707 416.71417 
Q 437.215508 416.71417 437.443633 416.586045 
Q 437.67332 416.456357 437.799883 416.217295 
Q 437.928008 415.97667 437.928008 415.66417 
L 437.928008 415.596982 
Q 437.928008 415.298545 437.799883 415.068857 
Q 437.67332 414.83917 437.443633 414.715732 
Q 437.215508 414.590732 436.91707 414.590732 
Q 436.618633 414.590732 436.388945 414.715732 
Q 436.16082 414.83917 436.032695 415.068857 
Q 435.906133 415.298545 435.906133 415.60167 
L 435.906133 415.675107 
Q 435.906133 415.981357 436.032695 416.218857 
Q 436.16082 416.456357 436.388945 416.586045 
Q 436.618633 416.71417 436.91707 416.71417 
z
M 444.378008 417.061045 
L 444.378008 418.00792 
L 440.413945 418.00792 
L 440.413945 417.061045 
L 444.378008 417.061045 
z
M 442.893633 419.517295 
L 441.89832 419.517295 
L 441.89832 415.55167 
L 442.893633 415.55167 
L 442.893633 419.517295 
z
M 452.45457 416.98292 
L 452.45457 418.223545 
Q 452.45457 419.01417 452.146758 419.617295 
Q 451.838945 420.22042 451.274883 420.550107 
Q 450.71082 420.879795 449.968633 420.879795 
Q 449.21707 420.879795 448.64832 420.57042 
Q 448.07957 420.259482 447.76707 419.693857 
Q 447.45457 419.12667 447.45457 418.379795 
L 447.45457 416.284482 
Q 447.45457 415.493857 447.762383 414.893857 
Q 448.070195 414.292295 448.632695 413.962607 
Q 449.196758 413.63292 449.938945 413.63292 
Q 450.549883 413.63292 451.063945 413.89542 
Q 451.57957 414.156357 451.926445 414.634482 
Q 452.27332 415.112607 452.395195 415.742295 
L 452.395195 415.742295 
L 451.31707 415.742295 
L 451.31707 415.742295 
Q 451.228008 415.386045 451.018633 415.129795 
Q 450.809258 414.873545 450.524883 414.73917 
Q 450.24207 414.604795 449.938945 414.604795 
Q 449.499883 414.604795 449.16707 414.815732 
Q 448.83582 415.025107 448.65457 415.403232 
Q 448.474883 415.781357 448.474883 416.284482 
L 448.474883 418.379795 
Q 448.474883 418.83917 448.659258 419.18292 
Q 448.845195 419.52667 449.184258 419.717295 
Q 449.524883 419.90792 449.968633 419.90792 
Q 450.407695 419.90792 450.738945 419.711045 
Q 451.071758 419.512607 451.253008 419.137607 
Q 451.434258 418.761045 451.434258 418.242295 
L 451.434258 417.934482 
L 449.993633 417.934482 
L 449.993633 416.98292 
L 452.45457 416.98292 
z
M 456.042851 420.879795 
Q 455.339726 420.879795 454.841289 420.615732 
Q 454.344414 420.35167 454.081914 419.842295 
Q 453.820976 419.331357 453.820976 418.609482 
L 453.820976 418.037607 
Q 453.820976 417.286045 454.072539 416.754795 
Q 454.324101 416.221982 454.802226 415.943857 
Q 455.281914 415.66417 455.955351 415.66417 
Q 456.589726 415.66417 457.038164 415.98292 
Q 457.488164 416.300107 457.724101 416.900107 
Q 457.961601 417.500107 457.961601 418.340732 
L 457.961601 418.671982 
L 454.544414 418.671982 
L 454.544414 417.871982 
L 457.014726 417.871982 
L 457.014726 417.871982 
Q 456.970976 417.25167 456.694414 416.90792 
Q 456.419414 416.562607 455.955351 416.562607 
Q 455.388164 416.562607 455.078789 416.934482 
Q 454.769414 417.304795 454.769414 417.984482 
L 454.769414 418.628232 
Q 454.769414 419.25792 455.100664 419.59542 
Q 455.433476 419.93292 456.042851 419.93292 
Q 456.345976 419.93292 456.642851 419.811045 
Q 456.941289 419.687607 457.175664 419.468857 
L 457.175664 419.468857 
L 457.830351 420.121982 
L 457.830351 420.121982 
Q 457.453789 420.484482 456.985039 420.68292 
Q 456.516289 420.879795 456.042851 420.879795 
z
M 459.32918 415.737607 
L 460.326055 415.737607 
L 460.326055 420.806357 
L 459.32918 420.806357 
L 459.32918 415.737607 
z
M 462.405742 417.734482 
Q 462.405742 417.198545 462.127617 416.906357 
Q 461.849492 416.612607 461.346367 416.612607 
Q 460.857305 416.612607 460.59168 416.871982 
Q 460.326055 417.129795 460.326055 417.598545 
L 460.22293 416.621982 
Q 460.457305 416.162607 460.83543 415.91417 
Q 461.213555 415.66417 461.67293 415.66417 
Q 462.49793 415.66417 462.949492 416.204795 
Q 463.401055 416.743857 463.401055 417.729795 
L 463.401055 420.806357 
L 462.405742 420.806357 
L 462.405742 417.734482 
z
M 466.580742 420.806357 
L 465.583867 420.806357 
L 465.583867 414.790732 
L 464.57293 415.411045 
L 464.57293 414.379795 
L 465.583867 413.706357 
L 466.580742 413.706357 
L 466.580742 420.806357 
z
" style="fill: #ffffff"/>
   </g>
  </g>
 </g>
 <defs>
  <clipPath id="pd22bac5946">
   <rect x="144" y="77.76" width="892.8" height="498.96"/>
  </clipPath>
 </defs>
</svg>
