<?xml version="1.0" encoding="utf-8" standalone="no"?>
<!DOCTYPE svg PUBLIC "-//W3C//DTD SVG 1.1//EN"
  "http://www.w3.org/Graphics/SVG/1.1/DTD/svg11.dtd">
<svg xmlns:xlink="http://www.w3.org/1999/xlink" width="1152pt" height="648pt" viewBox="0 0 1152 648" xmlns="http://www.w3.org/2000/svg" version="1.1">
 <metadata>
  <rdf:RDF xmlns:dc="http://purl.org/dc/elements/1.1/" xmlns:cc="http://creativecommons.org/ns#" xmlns:rdf="http://www.w3.org/1999/02/22-rdf-syntax-ns#">
   <cc:Work>
    <dc:type rdf:resource="http://purl.org/dc/dcmitype/StillImage"/>
    <dc:date>2025-09-19T13:20:10.536185</dc:date>
    <dc:format>image/svg+xml</dc:format>
    <dc:creator>
     <cc:Agent>
      <dc:title>Matplotlib v3.10.3, https://matplotlib.org/</dc:title>
     </cc:Agent>
    </dc:creator>
   </cc:Work>
  </rdf:RDF>
 </metadata>
 <defs>
  <style type="text/css">*{stroke-linejoin: round; stroke-linecap: butt}</style>
 </defs>
 <g id="figure_1">
  <g id="patch_1">
   <path d="M 0 648 
L 1152 648 
L 1152 0 
L 0 0 
L 0 648 
z
" style="fill: none"/>
  </g>
  <g id="axes_1">
   <g id="PathCollection_1">
    <defs>
     <path id="md069bab964" d="M 0 2.738613 
C 0.726289 2.738613 1.422928 2.450055 1.936492 1.936492 
C 2.450055 1.422928 2.738613 0.726289 2.738613 0 
C 2.738613 -0.726289 2.450055 -1.422928 1.936492 -1.936492 
C 1.422928 -2.450055 0.726289 -2.738613 0 -2.738613 
C -0.726289 -2.738613 -1.422928 -2.450055 -1.936492 -1.936492 
C -2.450055 -1.422928 -2.738613 -0.726289 -2.738613 0 
C -2.738613 0.726289 -2.450055 1.422928 -1.936492 1.936492 
C -1.422928 2.450055 -0.726289 2.738613 0 2.738613 
z
" style="stroke: #33ffcc"/>
    </defs>
    <g clip-path="url(#p709f99ecb1)">
     <use xlink:href="#md069bab964" x="567.674182" y="334.857456" style="fill: #33ffcc; stroke: #33ffcc"/>
     <use xlink:href="#md069bab964" x="210.554182" y="480.886416" style="fill: #33ffcc; stroke: #33ffcc"/>
    </g>
   </g>
   <g id="text_1">
    <path d="M 576.379162 329.404024 
L 577.229162 329.404024 
L 579.846349 336.504024 
L 578.771349 336.504024 
L 576.804162 330.775899 
L 574.836974 336.504024 
L 573.761974 336.504024 
L 576.379162 329.404024 
z
M 574.968224 333.999337 
L 578.704162 333.999337 
L 578.704162 334.946212 
L 574.968224 334.946212 
L 574.968224 333.999337 
z
M 582.488146 336.504024 
L 581.491271 336.504024 
L 581.491271 330.488399 
L 580.480334 331.108712 
L 580.480334 330.077462 
L 581.491271 329.404024 
L 582.488146 329.404024 
L 582.488146 336.504024 
z
M 585.930529 336.577462 
Q 585.305529 336.577462 584.860217 336.325899 
Q 584.416467 336.074337 584.183654 335.593087 
Q 583.952404 335.111837 583.952404 334.433712 
L 583.952404 334.429024 
Q 583.952404 334.033712 584.044592 333.599336 
Q 584.138342 333.163399 584.313342 332.744649 
Q 584.343029 332.671212 584.377404 332.600899 
Q 584.411779 332.529024 584.446154 332.460274 
L 585.988342 329.404024 
L 587.063342 329.404024 
L 585.250842 332.944649 
L 585.255529 332.768087 
Q 585.378967 332.538399 585.613342 332.411836 
Q 585.847717 332.285274 586.160217 332.285274 
Q 586.711779 332.285274 587.107092 332.535274 
Q 587.502404 332.783712 587.707092 333.260274 
Q 587.911779 333.735274 587.911779 334.404024 
L 587.911779 334.408712 
Q 587.911779 335.093087 587.680529 335.582149 
Q 587.449279 336.069649 587.002404 336.324337 
Q 586.555529 336.577462 585.930529 336.577462 
z
M 585.930529 335.619649 
Q 586.403967 335.619649 586.660217 335.327462 
Q 586.916467 335.033712 586.916467 334.491524 
L 586.916467 334.486837 
Q 586.916467 333.891524 586.647717 333.566524 
Q 586.378967 333.241524 585.880529 333.241524 
Q 585.436779 333.241524 585.193029 333.569649 
Q 584.949279 333.896211 584.949279 334.491524 
L 584.949279 334.497774 
Q 584.949279 335.038399 585.205529 335.329024 
Q 585.461779 335.619649 585.930529 335.619649 
z
" style="fill: #ffffff; stroke: #000000"/>
    <path d="M 576.379162 329.404024 
L 577.229162 329.404024 
L 579.846349 336.504024 
L 578.771349 336.504024 
L 576.804162 330.775899 
L 574.836974 336.504024 
L 573.761974 336.504024 
L 576.379162 329.404024 
z
M 574.968224 333.999337 
L 578.704162 333.999337 
L 578.704162 334.946212 
L 574.968224 334.946212 
L 574.968224 333.999337 
z
M 582.488146 336.504024 
L 581.491271 336.504024 
L 581.491271 330.488399 
L 580.480334 331.108712 
L 580.480334 330.077462 
L 581.491271 329.404024 
L 582.488146 329.404024 
L 582.488146 336.504024 
z
M 585.930529 336.577462 
Q 585.305529 336.577462 584.860217 336.325899 
Q 584.416467 336.074337 584.183654 335.593087 
Q 583.952404 335.111837 583.952404 334.433712 
L 583.952404 334.429024 
Q 583.952404 334.033712 584.044592 333.599336 
Q 584.138342 333.163399 584.313342 332.744649 
Q 584.343029 332.671212 584.377404 332.600899 
Q 584.411779 332.529024 584.446154 332.460274 
L 585.988342 329.404024 
L 587.063342 329.404024 
L 585.250842 332.944649 
L 585.255529 332.768087 
Q 585.378967 332.538399 585.613342 332.411836 
Q 585.847717 332.285274 586.160217 332.285274 
Q 586.711779 332.285274 587.107092 332.535274 
Q 587.502404 332.783712 587.707092 333.260274 
Q 587.911779 333.735274 587.911779 334.404024 
L 587.911779 334.408712 
Q 587.911779 335.093087 587.680529 335.582149 
Q 587.449279 336.069649 587.002404 336.324337 
Q 586.555529 336.577462 585.930529 336.577462 
z
M 585.930529 335.619649 
Q 586.403967 335.619649 586.660217 335.327462 
Q 586.916467 335.033712 586.916467 334.491524 
L 586.916467 334.486837 
Q 586.916467 333.891524 586.647717 333.566524 
Q 586.378967 333.241524 585.880529 333.241524 
Q 585.436779 333.241524 585.193029 333.569649 
Q 584.949279 333.896211 584.949279 334.491524 
L 584.949279 334.497774 
Q 584.949279 335.038399 585.205529 335.329024 
Q 585.461779 335.619649 585.930529 335.619649 
z
" style="fill: #ffffff"/>
   </g>
   <g id="text_2">
    <path d="M 219.259162 475.432984 
L 220.109162 475.432984 
L 222.726349 482.532984 
L 221.651349 482.532984 
L 219.684162 476.804859 
L 217.716974 482.532984 
L 216.641974 482.532984 
L 219.259162 475.432984 
z
M 217.848224 480.028297 
L 221.584162 480.028297 
L 221.584162 480.975171 
L 217.848224 480.975171 
L 217.848224 480.028297 
z
M 225.368146 482.532984 
L 224.371271 482.532984 
L 224.371271 476.517359 
L 223.360334 477.137672 
L 223.360334 476.106422 
L 224.371271 475.432984 
L 225.368146 475.432984 
L 225.368146 482.532984 
z
M 228.810529 482.606422 
Q 228.185529 482.606422 227.740217 482.354859 
Q 227.296467 482.103296 227.063654 481.622047 
Q 226.832404 481.140797 226.832404 480.462671 
L 226.832404 480.457984 
Q 226.832404 480.062672 226.924592 479.628296 
Q 227.018342 479.192359 227.193342 478.773609 
Q 227.223029 478.700172 227.257404 478.629859 
Q 227.291779 478.557984 227.326154 478.489234 
L 228.868342 475.432984 
L 229.943342 475.432984 
L 228.130842 478.973609 
L 228.135529 478.797047 
Q 228.258967 478.567359 228.493342 478.440796 
Q 228.727717 478.314234 229.040217 478.314234 
Q 229.591779 478.314234 229.987092 478.564234 
Q 230.382404 478.812672 230.587092 479.289234 
Q 230.791779 479.764234 230.791779 480.432984 
L 230.791779 480.437672 
Q 230.791779 481.122047 230.560529 481.611109 
Q 230.329279 482.098609 229.882404 482.353296 
Q 229.435529 482.606422 228.810529 482.606422 
z
M 228.810529 481.648609 
Q 229.283967 481.648609 229.540217 481.356422 
Q 229.796467 481.062672 229.796467 480.520484 
L 229.796467 480.515797 
Q 229.796467 479.920484 229.527717 479.595484 
Q 229.258967 479.270484 228.760529 479.270484 
Q 228.316779 479.270484 228.073029 479.598609 
Q 227.829279 479.925171 227.829279 480.520484 
L 227.829279 480.526734 
Q 227.829279 481.067359 228.085529 481.357984 
Q 228.341779 481.648609 228.810529 481.648609 
z
" style="fill: #ffffff; stroke: #000000"/>
    <path d="M 219.259162 475.432984 
L 220.109162 475.432984 
L 222.726349 482.532984 
L 221.651349 482.532984 
L 219.684162 476.804859 
L 217.716974 482.532984 
L 216.641974 482.532984 
L 219.259162 475.432984 
z
M 217.848224 480.028297 
L 221.584162 480.028297 
L 221.584162 480.975171 
L 217.848224 480.975171 
L 217.848224 480.028297 
z
M 225.368146 482.532984 
L 224.371271 482.532984 
L 224.371271 476.517359 
L 223.360334 477.137672 
L 223.360334 476.106422 
L 224.371271 475.432984 
L 225.368146 475.432984 
L 225.368146 482.532984 
z
M 228.810529 482.606422 
Q 228.185529 482.606422 227.740217 482.354859 
Q 227.296467 482.103296 227.063654 481.622047 
Q 226.832404 481.140797 226.832404 480.462671 
L 226.832404 480.457984 
Q 226.832404 480.062672 226.924592 479.628296 
Q 227.018342 479.192359 227.193342 478.773609 
Q 227.223029 478.700172 227.257404 478.629859 
Q 227.291779 478.557984 227.326154 478.489234 
L 228.868342 475.432984 
L 229.943342 475.432984 
L 228.130842 478.973609 
L 228.135529 478.797047 
Q 228.258967 478.567359 228.493342 478.440796 
Q 228.727717 478.314234 229.040217 478.314234 
Q 229.591779 478.314234 229.987092 478.564234 
Q 230.382404 478.812672 230.587092 479.289234 
Q 230.791779 479.764234 230.791779 480.432984 
L 230.791779 480.437672 
Q 230.791779 481.122047 230.560529 481.611109 
Q 230.329279 482.098609 229.882404 482.353296 
Q 229.435529 482.606422 228.810529 482.606422 
z
M 228.810529 481.648609 
Q 229.283967 481.648609 229.540217 481.356422 
Q 229.796467 481.062672 229.796467 480.520484 
L 229.796467 480.515797 
Q 229.796467 479.920484 229.527717 479.595484 
Q 229.258967 479.270484 228.760529 479.270484 
Q 228.316779 479.270484 228.073029 479.598609 
Q 227.829279 479.925171 227.829279 480.520484 
L 227.829279 480.526734 
Q 227.829279 481.067359 228.085529 481.357984 
Q 228.341779 481.648609 228.810529 481.648609 
z
" style="fill: #ffffff"/>
   </g>
  </g>
 </g>
 <defs>
  <clipPath id="p709f99ecb1">
   <rect x="144" y="77.76" width="892.8" height="498.96"/>
  </clipPath>
 </defs>
</svg>
