<?xml version="1.0" encoding="utf-8" standalone="no"?>
<!DOCTYPE svg PUBLIC "-//W3C//DTD SVG 1.1//EN"
  "http://www.w3.org/Graphics/SVG/1.1/DTD/svg11.dtd">
<svg xmlns:xlink="http://www.w3.org/1999/xlink" width="1152pt" height="648pt" viewBox="0 0 1152 648" xmlns="http://www.w3.org/2000/svg" version="1.1">
 <metadata>
  <rdf:RDF xmlns:dc="http://purl.org/dc/elements/1.1/" xmlns:cc="http://creativecommons.org/ns#" xmlns:rdf="http://www.w3.org/1999/02/22-rdf-syntax-ns#">
   <cc:Work>
    <dc:type rdf:resource="http://purl.org/dc/dcmitype/StillImage"/>
    <dc:date>2025-09-19T13:20:10.593163</dc:date>
    <dc:format>image/svg+xml</dc:format>
    <dc:creator>
     <cc:Agent>
      <dc:title>Matplotlib v3.10.3, https://matplotlib.org/</dc:title>
     </cc:Agent>
    </dc:creator>
   </cc:Work>
  </rdf:RDF>
 </metadata>
 <defs>
  <style type="text/css">*{stroke-linejoin: round; stroke-linecap: butt}</style>
 </defs>
 <g id="figure_1">
  <g id="patch_1">
   <path d="M 0 648 
L 1152 648 
L 1152 0 
L 0 0 
L 0 648 
z
" style="fill: none"/>
  </g>
  <g id="axes_1">
   <g id="line2d_1">
    <path d="M 210.554182 496.581469 
L 216.842314 488.481417 
L 223.130446 480.621282 
L 229.418579 472.993963 
L 235.706711 465.592571 
L 241.994843 458.410418 
L 248.282975 451.441016 
L 254.571107 444.678066 
L 260.85924 438.115458 
L 267.147372 431.747261 
L 273.435504 425.56772 
L 279.723636 419.571249 
L 286.011769 413.752429 
L 292.299901 408.106 
L 298.588033 402.626857 
L 304.876165 397.310047 
L 311.164298 392.150764 
L 317.45243 387.144343 
L 323.740562 382.286257 
L 330.028694 377.572114 
L 336.316826 372.99765 
L 342.604959 368.55873 
L 348.893091 364.251338 
L 355.181223 360.07158 
L 361.469355 356.015674 
L 367.757488 352.079954 
L 374.04562 348.260858 
L 380.333752 344.554932 
L 386.621884 340.958825 
L 392.910017 337.469283 
L 399.198149 334.08315 
L 405.486281 330.797361 
L 411.774413 327.608945 
L 418.062545 324.515018 
L 424.350678 321.512779 
L 430.63881 318.599512 
L 436.926942 315.772582 
L 443.215074 313.029431 
L 449.503207 310.367576 
L 455.791339 307.78461 
L 462.079471 305.278193 
L 468.367603 302.84606 
L 474.655736 300.486008 
L 480.943868 298.195902 
L 487.232 295.973669 
L 493.520132 293.817298 
L 499.808264 291.724838 
L 506.096397 289.694395 
L 512.384529 287.724131 
L 518.672661 285.812263 
L 524.960793 283.957061 
L 531.248926 282.156845 
L 537.537058 280.409986 
L 543.82519 278.714903 
L 550.113322 277.070061 
L 556.401455 275.473972 
L 562.689587 273.925191 
L 568.977719 272.422315 
L 575.265851 270.963985 
L 581.553983 269.54888 
L 587.842116 268.17572 
L 594.130248 266.843261 
L 600.41838 265.550297 
L 606.706512 264.295657 
L 612.994645 263.078206 
L 619.282777 261.896841 
L 625.570909 260.750494 
L 631.859041 259.638126 
L 638.147174 258.55873 
L 644.435306 257.511328 
L 650.723438 256.494974 
L 657.01157 255.508746 
L 663.299702 254.551751 
L 669.587835 253.623124 
L 675.875967 252.722022 
L 682.164099 251.847632 
L 688.452231 250.99916 
L 694.740364 250.175839 
L 701.028496 249.376923 
L 707.316628 248.601688 
L 713.60476 247.849434 
L 719.892893 247.119478 
L 726.181025 246.41116 
L 732.469157 245.723839 
L 738.757289 245.056891 
L 745.045421 244.409714 
L 751.333554 243.781721 
L 757.621686 243.172343 
L 763.909818 242.581029 
L 770.19795 242.007244 
L 776.486083 241.450467 
L 782.774215 240.910195 
L 789.062347 240.385939 
L 795.350479 239.877223 
L 801.638612 239.383587 
L 807.926744 238.904584 
L 814.214876 238.43978 
L 820.503008 237.988755 
L 826.79114 237.5511 
L 833.079273 237.126418 
" clip-path="url(#p61260b46f2)" style="fill: none; stroke: #79def2; stroke-width: 3; stroke-linecap: round"/>
   </g>
   <g id="text_1">
    <path d="M 841.984253 238.846423 
Q 841.471753 238.846423 841.012378 238.749548 
Q 840.554565 238.651111 840.156128 238.455798 
Q 839.75769 238.260486 839.410815 237.966736 
L 839.410815 237.966736 
L 840.031128 237.205798 
L 840.031128 237.205798 
Q 840.437378 237.557361 840.924878 237.733923 
Q 841.41394 237.908923 841.984253 237.908923 
Q 842.756128 237.908923 843.181128 237.622986 
Q 843.606128 237.337048 843.606128 236.815173 
L 843.606128 236.810486 
Q 843.606128 236.438611 843.412378 236.221423 
Q 843.22019 236.004236 842.91394 235.899548 
Q 842.609253 235.794861 842.12644 235.705798 
Q 842.110815 235.701111 842.093628 235.701111 
Q 842.078003 235.701111 842.062378 235.696423 
L 841.98894 235.682361 
Q 841.27644 235.560486 840.829565 235.407361 
Q 840.38269 235.252673 840.065503 234.844861 
Q 839.748315 234.437048 839.748315 233.685486 
L 839.748315 233.680798 
Q 839.748315 233.021423 840.043628 232.555798 
Q 840.33894 232.088611 840.904565 231.844861 
Q 841.471753 231.599548 842.267065 231.599548 
Q 842.648315 231.599548 843.017065 231.683923 
Q 843.385815 231.766736 843.743628 231.930798 
Q 844.103003 232.093298 844.449878 232.341736 
L 844.449878 232.341736 
L 843.884253 233.133923 
L 843.884253 233.133923 
Q 843.478003 232.835486 843.074878 232.687048 
Q 842.673315 232.537048 842.267065 232.537048 
Q 841.540503 232.537048 841.137378 232.827673 
Q 840.734253 233.118298 840.734253 233.651111 
L 840.734253 233.655798 
Q 840.734253 234.021423 840.942065 234.232361 
Q 841.149878 234.441736 841.459253 234.541736 
Q 841.77019 234.641736 842.321753 234.749548 
Q 842.340503 234.754236 842.35769 234.757361 
Q 842.374878 234.758923 842.39519 234.763611 
Q 842.418628 234.768298 842.448315 234.774548 
Q 842.478003 234.779236 842.50144 234.783923 
Q 843.146753 234.915173 843.578003 235.096423 
Q 844.010815 235.276111 844.30144 235.679236 
Q 844.592065 236.082361 844.592065 236.780798 
L 844.592065 236.790173 
Q 844.592065 237.440173 844.284253 237.901111 
Q 843.97644 238.362048 843.392065 238.604236 
Q 842.809253 238.846423 841.984253 238.846423 
z
M 846.682104 237.826111 
L 848.288354 237.826111 
Q 849.074292 237.826111 849.505542 237.418298 
Q 849.938354 237.010486 849.938354 236.268298 
L 849.938354 234.177673 
Q 849.938354 233.435486 849.505542 233.027673 
Q 849.074292 232.619861 848.288354 232.619861 
L 846.682104 232.619861 
L 846.682104 231.672986 
L 848.258667 231.672986 
Q 849.113354 231.672986 849.718042 231.971423 
Q 850.324292 232.268298 850.641479 232.840173 
Q 850.958667 233.412048 850.958667 234.216736 
L 850.958667 236.229236 
Q 850.958667 237.033923 850.641479 237.605798 
Q 850.324292 238.177673 849.716479 238.476111 
Q 849.108667 238.772986 848.253979 238.772986 
L 846.682104 238.772986 
L 846.682104 237.826111 
z
M 846.008667 231.672986 
L 847.003979 231.672986 
L 847.003979 238.772986 
L 846.008667 238.772986 
L 846.008667 231.672986 
z
M 854.503979 238.846423 
Q 853.860229 238.846423 853.371167 238.602673 
Q 852.883667 238.357361 852.616479 237.910486 
Q 852.350854 237.463611 852.350854 236.872986 
L 852.350854 236.755798 
Q 852.350854 236.224548 852.616479 235.755798 
Q 852.883667 235.287048 853.327417 235.047986 
Q 852.950854 234.841736 852.724292 234.454236 
Q 852.497729 234.065173 852.497729 233.635486 
L 852.497729 233.465173 
Q 852.497729 232.908923 852.746167 232.487048 
Q 852.994604 232.063611 853.449292 231.832361 
Q 853.903979 231.599548 854.503979 231.599548 
Q 855.103979 231.599548 855.558667 231.832361 
Q 856.013354 232.063611 856.261792 232.487048 
Q 856.510229 232.908923 856.510229 233.465173 
L 856.510229 233.635486 
Q 856.510229 234.076111 856.278979 234.462048 
Q 856.047729 234.846423 855.666479 235.047986 
Q 856.114917 235.291736 856.385229 235.758923 
Q 856.657104 236.224548 856.657104 236.755798 
L 856.657104 236.872986 
Q 856.657104 237.463611 856.391479 237.910486 
Q 856.125854 238.357361 855.636792 238.602673 
Q 855.149292 238.846423 854.503979 238.846423 
z
M 854.503979 237.888611 
Q 854.850854 237.888611 855.113354 237.752673 
Q 855.377417 237.615173 855.521167 237.369861 
Q 855.666479 237.122986 855.666479 236.799548 
L 855.666479 236.732361 
Q 855.666479 236.404236 855.521167 236.158923 
Q 855.377417 235.912048 855.113354 235.776111 
Q 854.850854 235.638611 854.503979 235.638611 
Q 854.157104 235.638611 853.893042 235.776111 
Q 853.630542 235.912048 853.485229 236.160486 
Q 853.341479 236.408923 853.341479 236.737048 
L 853.341479 236.810486 
Q 853.341479 237.132361 853.485229 237.376111 
Q 853.630542 237.619861 853.893042 237.754236 
Q 854.157104 237.888611 854.503979 237.888611 
z
M 854.503979 234.680798 
Q 854.802417 234.680798 855.030542 234.552673 
Q 855.260229 234.422986 855.386792 234.183923 
Q 855.514917 233.943298 855.514917 233.630798 
L 855.514917 233.563611 
Q 855.514917 233.265173 855.386792 233.035486 
Q 855.260229 232.805798 855.030542 232.682361 
Q 854.802417 232.557361 854.503979 232.557361 
Q 854.205542 232.557361 853.975854 232.682361 
Q 853.747729 232.805798 853.619604 233.035486 
Q 853.493042 233.265173 853.493042 233.568298 
L 853.493042 233.641736 
Q 853.493042 233.947986 853.619604 234.185486 
Q 853.747729 234.422986 853.975854 234.552673 
Q 854.205542 234.680798 854.503979 234.680798 
z
M 859.905151 231.672986 
L 860.900464 231.672986 
L 860.900464 238.772986 
L 859.905151 238.772986 
L 859.905151 231.672986 
z
M 860.387964 237.826111 
L 864.464526 237.826111 
L 864.464526 238.772986 
L 860.387964 238.772986 
L 860.387964 237.826111 
z
M 860.387964 234.774548 
L 863.928589 234.774548 
L 863.928589 235.721423 
L 860.387964 235.721423 
L 860.387964 234.774548 
z
M 860.387964 231.672986 
L 864.464526 231.672986 
L 864.464526 232.619861 
L 860.387964 232.619861 
L 860.387964 231.672986 
z
M 866.780151 237.463611 
Q 866.780151 237.649548 866.859839 237.749548 
Q 866.941089 237.849548 867.086401 237.849548 
L 867.555151 237.849548 
L 867.555151 238.797986 
L 866.969214 238.797986 
Q 866.403589 238.797986 866.092651 238.446423 
Q 865.783276 238.094861 865.783276 237.454236 
L 865.783276 231.672986 
L 866.780151 231.672986 
L 866.780151 237.463611 
z
M 868.678784 231.672986 
L 869.675659 231.672986 
L 869.675659 232.669861 
L 868.678784 232.669861 
L 868.678784 231.672986 
z
M 868.678784 233.704236 
L 869.675659 233.704236 
L 869.675659 238.772986 
L 868.678784 238.772986 
L 868.678784 233.704236 
z
M 872.5073 238.797986 
Q 871.891675 238.797986 871.605737 238.458923 
Q 871.3198 238.118298 871.3198 237.454236 
L 871.3198 232.229236 
L 872.316675 232.229236 
L 872.316675 237.463611 
Q 872.316675 237.649548 872.390112 237.749548 
Q 872.46355 237.849548 872.604175 237.849548 
L 873.083862 237.849548 
L 873.083862 238.797986 
L 872.5073 238.797986 
z
M 870.797925 233.704236 
L 873.083862 233.704236 
L 873.083862 234.602673 
L 870.797925 234.602673 
L 870.797925 233.704236 
z
M 876.525268 238.846423 
Q 875.822143 238.846423 875.323706 238.582361 
Q 874.826831 238.318298 874.564331 237.808923 
Q 874.303393 237.297986 874.303393 236.576111 
L 874.303393 236.004236 
Q 874.303393 235.252673 874.554956 234.721423 
Q 874.806518 234.188611 875.284643 233.910486 
Q 875.764331 233.630798 876.437768 233.630798 
Q 877.072143 233.630798 877.520581 233.949548 
Q 877.970581 234.266736 878.206518 234.866736 
Q 878.444018 235.466736 878.444018 236.307361 
L 878.444018 236.638611 
L 875.026831 236.638611 
L 875.026831 235.838611 
L 877.497143 235.838611 
L 877.497143 235.838611 
Q 877.453393 235.218298 877.176831 234.874548 
Q 876.901831 234.529236 876.437768 234.529236 
Q 875.870581 234.529236 875.561206 234.901111 
Q 875.251831 235.271423 875.251831 235.951111 
L 875.251831 236.594861 
Q 875.251831 237.224548 875.583081 237.562048 
Q 875.915893 237.899548 876.525268 237.899548 
Q 876.828393 237.899548 877.125268 237.777673 
Q 877.423706 237.654236 877.658081 237.435486 
L 877.658081 237.435486 
L 878.312768 238.088611 
L 878.312768 238.088611 
Q 877.936206 238.451111 877.467456 238.649548 
Q 876.998706 238.846423 876.525268 238.846423 
z
M 883.351831 240.301111 
Q 882.483081 239.358923 882.050268 238.190173 
Q 881.619018 237.019861 881.619018 235.608923 
Q 881.619018 234.197986 882.050268 233.029236 
Q 882.483081 231.858923 883.351831 230.916736 
L 884.034643 231.537048 
Q 883.298706 232.357361 882.931518 233.372986 
Q 882.565893 234.388611 882.565893 235.608923 
Q 882.565893 236.829236 882.931518 237.844861 
Q 883.298706 238.860486 884.034643 239.685486 
L 883.351831 240.301111 
z
M 887.379761 235.247986 
L 887.375073 235.422986 
Q 887.253198 235.647986 887.006323 235.752673 
Q 886.759448 235.857361 886.423511 235.857361 
Q 885.915698 235.857361 885.529761 235.599548 
Q 885.143823 235.340173 884.931323 234.869861 
Q 884.718823 234.397986 884.718823 233.777673 
L 884.718823 233.772986 
Q 884.718823 233.083923 884.950073 232.596423 
Q 885.182886 232.107361 885.629761 231.854236 
Q 886.076636 231.599548 886.701636 231.599548 
Q 887.326636 231.599548 887.770386 231.858923 
Q 888.215698 232.118298 888.446948 232.612048 
Q 888.678198 233.104236 888.678198 233.797986 
L 888.678198 233.802673 
Q 888.678198 234.182361 888.579761 234.615173 
Q 888.482886 235.047986 888.303198 235.471423 
Q 888.273511 235.535486 888.243823 235.601111 
Q 888.215698 235.666736 888.181323 235.730798 
L 886.667261 238.772986 
L 885.592261 238.772986 
L 887.379761 235.247986 
z
M 886.701636 234.949548 
Q 887.170386 234.949548 887.426636 234.632361 
Q 887.682886 234.315173 887.682886 233.738611 
L 887.682886 233.733923 
Q 887.682886 233.172986 887.426636 232.865173 
Q 887.170386 232.557361 886.701636 232.557361 
Q 886.228198 232.557361 885.971948 232.865173 
Q 885.715698 233.172986 885.715698 233.738611 
L 885.715698 233.743298 
Q 885.715698 234.319861 885.971948 234.635486 
Q 886.228198 234.949548 886.701636 234.949548 
z
M 891.828784 238.846423 
Q 891.203784 238.846423 890.758471 238.594861 
Q 890.314721 238.343298 890.081909 237.862048 
Q 889.850659 237.380798 889.850659 236.702673 
L 889.850659 236.697986 
Q 889.850659 236.302673 889.942846 235.868298 
Q 890.036596 235.432361 890.211596 235.013611 
Q 890.241284 234.940173 890.275659 234.869861 
Q 890.310034 234.797986 890.344409 234.729236 
L 891.886596 231.672986 
L 892.961596 231.672986 
L 891.149096 235.213611 
L 891.153784 235.037048 
Q 891.277221 234.807361 891.511596 234.680798 
Q 891.745971 234.554236 892.058471 234.554236 
Q 892.610034 234.554236 893.005346 234.804236 
Q 893.400659 235.052673 893.605346 235.529236 
Q 893.810034 236.004236 893.810034 236.672986 
L 893.810034 236.677673 
Q 893.810034 237.362048 893.578784 237.851111 
Q 893.347534 238.338611 892.900659 238.593298 
Q 892.453784 238.846423 891.828784 238.846423 
z
M 891.828784 237.888611 
Q 892.302221 237.888611 892.558471 237.596423 
Q 892.814721 237.302673 892.814721 236.760486 
L 892.814721 236.755798 
Q 892.814721 236.160486 892.545971 235.835486 
Q 892.277221 235.510486 891.778784 235.510486 
Q 891.335034 235.510486 891.091284 235.838611 
Q 890.847534 236.165173 890.847534 236.760486 
L 890.847534 236.766736 
Q 890.847534 237.307361 891.103784 237.597986 
Q 891.360034 237.888611 891.828784 237.888611 
z
M 897.155932 238.846423 
Q 896.159057 238.846423 895.643432 238.315173 
Q 895.12937 237.782361 895.12937 236.829236 
L 895.12937 233.602673 
Q 895.12937 232.644861 895.646557 232.115173 
Q 896.163745 231.585486 897.155932 231.585486 
Q 898.151245 231.585486 898.66687 232.113611 
Q 899.182495 232.640173 899.182495 233.602673 
L 899.182495 236.829236 
Q 899.182495 237.787048 898.663745 238.316736 
Q 898.146557 238.846423 897.155932 238.846423 
z
M 897.155932 237.899548 
Q 897.682495 237.899548 897.934057 237.622986 
Q 898.18562 237.346423 898.18562 236.829236 
L 898.18562 233.602673 
Q 898.18562 233.083923 897.93562 232.808923 
Q 897.687182 232.532361 897.155932 232.532361 
Q 896.62312 232.532361 896.37312 232.808923 
Q 896.124682 233.083923 896.124682 233.602673 
L 896.124682 236.829236 
Q 896.124682 237.346423 896.376245 237.622986 
Q 896.627807 237.899548 897.155932 237.899548 
z
M 902.673511 238.846423 
Q 901.676636 238.846423 901.161011 238.315173 
Q 900.646948 237.782361 900.646948 236.829236 
L 900.646948 233.602673 
Q 900.646948 232.644861 901.164136 232.115173 
Q 901.681323 231.585486 902.673511 231.585486 
Q 903.668823 231.585486 904.184448 232.113611 
Q 904.700073 232.640173 904.700073 233.602673 
L 904.700073 236.829236 
Q 904.700073 237.787048 904.181323 238.316736 
Q 903.664136 238.846423 902.673511 238.846423 
z
M 902.673511 237.899548 
Q 903.200073 237.899548 903.451636 237.622986 
Q 903.703198 237.346423 903.703198 236.829236 
L 903.703198 233.602673 
Q 903.703198 233.083923 903.453198 232.808923 
Q 903.204761 232.532361 902.673511 232.532361 
Q 902.140698 232.532361 901.890698 232.808923 
Q 901.642261 233.083923 901.642261 233.602673 
L 901.642261 236.829236 
Q 901.642261 237.346423 901.893823 237.622986 
Q 902.145386 237.899548 902.673511 237.899548 
z
M 905.530151 239.685486 
Q 906.266089 238.860486 906.631714 237.844861 
Q 906.998901 236.829236 906.998901 235.608923 
Q 906.998901 234.388611 906.631714 233.372986 
Q 906.266089 232.357361 905.530151 231.537048 
L 906.212964 230.916736 
Q 907.081714 231.858923 907.512964 233.029236 
Q 907.945776 234.197986 907.945776 235.608923 
Q 907.945776 237.019861 907.512964 238.190173 
Q 907.081714 239.358923 906.212964 240.301111 
L 905.530151 239.685486 
z
" style="fill: #ffffff; stroke: #000000"/>
    <path d="M 841.984253 238.846423 
Q 841.471753 238.846423 841.012378 238.749548 
Q 840.554565 238.651111 840.156128 238.455798 
Q 839.75769 238.260486 839.410815 237.966736 
L 839.410815 237.966736 
L 840.031128 237.205798 
L 840.031128 237.205798 
Q 840.437378 237.557361 840.924878 237.733923 
Q 841.41394 237.908923 841.984253 237.908923 
Q 842.756128 237.908923 843.181128 237.622986 
Q 843.606128 237.337048 843.606128 236.815173 
L 843.606128 236.810486 
Q 843.606128 236.438611 843.412378 236.221423 
Q 843.22019 236.004236 842.91394 235.899548 
Q 842.609253 235.794861 842.12644 235.705798 
Q 842.110815 235.701111 842.093628 235.701111 
Q 842.078003 235.701111 842.062378 235.696423 
L 841.98894 235.682361 
Q 841.27644 235.560486 840.829565 235.407361 
Q 840.38269 235.252673 840.065503 234.844861 
Q 839.748315 234.437048 839.748315 233.685486 
L 839.748315 233.680798 
Q 839.748315 233.021423 840.043628 232.555798 
Q 840.33894 232.088611 840.904565 231.844861 
Q 841.471753 231.599548 842.267065 231.599548 
Q 842.648315 231.599548 843.017065 231.683923 
Q 843.385815 231.766736 843.743628 231.930798 
Q 844.103003 232.093298 844.449878 232.341736 
L 844.449878 232.341736 
L 843.884253 233.133923 
L 843.884253 233.133923 
Q 843.478003 232.835486 843.074878 232.687048 
Q 842.673315 232.537048 842.267065 232.537048 
Q 841.540503 232.537048 841.137378 232.827673 
Q 840.734253 233.118298 840.734253 233.651111 
L 840.734253 233.655798 
Q 840.734253 234.021423 840.942065 234.232361 
Q 841.149878 234.441736 841.459253 234.541736 
Q 841.77019 234.641736 842.321753 234.749548 
Q 842.340503 234.754236 842.35769 234.757361 
Q 842.374878 234.758923 842.39519 234.763611 
Q 842.418628 234.768298 842.448315 234.774548 
Q 842.478003 234.779236 842.50144 234.783923 
Q 843.146753 234.915173 843.578003 235.096423 
Q 844.010815 235.276111 844.30144 235.679236 
Q 844.592065 236.082361 844.592065 236.780798 
L 844.592065 236.790173 
Q 844.592065 237.440173 844.284253 237.901111 
Q 843.97644 238.362048 843.392065 238.604236 
Q 842.809253 238.846423 841.984253 238.846423 
z
M 846.682104 237.826111 
L 848.288354 237.826111 
Q 849.074292 237.826111 849.505542 237.418298 
Q 849.938354 237.010486 849.938354 236.268298 
L 849.938354 234.177673 
Q 849.938354 233.435486 849.505542 233.027673 
Q 849.074292 232.619861 848.288354 232.619861 
L 846.682104 232.619861 
L 846.682104 231.672986 
L 848.258667 231.672986 
Q 849.113354 231.672986 849.718042 231.971423 
Q 850.324292 232.268298 850.641479 232.840173 
Q 850.958667 233.412048 850.958667 234.216736 
L 850.958667 236.229236 
Q 850.958667 237.033923 850.641479 237.605798 
Q 850.324292 238.177673 849.716479 238.476111 
Q 849.108667 238.772986 848.253979 238.772986 
L 846.682104 238.772986 
L 846.682104 237.826111 
z
M 846.008667 231.672986 
L 847.003979 231.672986 
L 847.003979 238.772986 
L 846.008667 238.772986 
L 846.008667 231.672986 
z
M 854.503979 238.846423 
Q 853.860229 238.846423 853.371167 238.602673 
Q 852.883667 238.357361 852.616479 237.910486 
Q 852.350854 237.463611 852.350854 236.872986 
L 852.350854 236.755798 
Q 852.350854 236.224548 852.616479 235.755798 
Q 852.883667 235.287048 853.327417 235.047986 
Q 852.950854 234.841736 852.724292 234.454236 
Q 852.497729 234.065173 852.497729 233.635486 
L 852.497729 233.465173 
Q 852.497729 232.908923 852.746167 232.487048 
Q 852.994604 232.063611 853.449292 231.832361 
Q 853.903979 231.599548 854.503979 231.599548 
Q 855.103979 231.599548 855.558667 231.832361 
Q 856.013354 232.063611 856.261792 232.487048 
Q 856.510229 232.908923 856.510229 233.465173 
L 856.510229 233.635486 
Q 856.510229 234.076111 856.278979 234.462048 
Q 856.047729 234.846423 855.666479 235.047986 
Q 856.114917 235.291736 856.385229 235.758923 
Q 856.657104 236.224548 856.657104 236.755798 
L 856.657104 236.872986 
Q 856.657104 237.463611 856.391479 237.910486 
Q 856.125854 238.357361 855.636792 238.602673 
Q 855.149292 238.846423 854.503979 238.846423 
z
M 854.503979 237.888611 
Q 854.850854 237.888611 855.113354 237.752673 
Q 855.377417 237.615173 855.521167 237.369861 
Q 855.666479 237.122986 855.666479 236.799548 
L 855.666479 236.732361 
Q 855.666479 236.404236 855.521167 236.158923 
Q 855.377417 235.912048 855.113354 235.776111 
Q 854.850854 235.638611 854.503979 235.638611 
Q 854.157104 235.638611 853.893042 235.776111 
Q 853.630542 235.912048 853.485229 236.160486 
Q 853.341479 236.408923 853.341479 236.737048 
L 853.341479 236.810486 
Q 853.341479 237.132361 853.485229 237.376111 
Q 853.630542 237.619861 853.893042 237.754236 
Q 854.157104 237.888611 854.503979 237.888611 
z
M 854.503979 234.680798 
Q 854.802417 234.680798 855.030542 234.552673 
Q 855.260229 234.422986 855.386792 234.183923 
Q 855.514917 233.943298 855.514917 233.630798 
L 855.514917 233.563611 
Q 855.514917 233.265173 855.386792 233.035486 
Q 855.260229 232.805798 855.030542 232.682361 
Q 854.802417 232.557361 854.503979 232.557361 
Q 854.205542 232.557361 853.975854 232.682361 
Q 853.747729 232.805798 853.619604 233.035486 
Q 853.493042 233.265173 853.493042 233.568298 
L 853.493042 233.641736 
Q 853.493042 233.947986 853.619604 234.185486 
Q 853.747729 234.422986 853.975854 234.552673 
Q 854.205542 234.680798 854.503979 234.680798 
z
M 859.905151 231.672986 
L 860.900464 231.672986 
L 860.900464 238.772986 
L 859.905151 238.772986 
L 859.905151 231.672986 
z
M 860.387964 237.826111 
L 864.464526 237.826111 
L 864.464526 238.772986 
L 860.387964 238.772986 
L 860.387964 237.826111 
z
M 860.387964 234.774548 
L 863.928589 234.774548 
L 863.928589 235.721423 
L 860.387964 235.721423 
L 860.387964 234.774548 
z
M 860.387964 231.672986 
L 864.464526 231.672986 
L 864.464526 232.619861 
L 860.387964 232.619861 
L 860.387964 231.672986 
z
M 866.780151 237.463611 
Q 866.780151 237.649548 866.859839 237.749548 
Q 866.941089 237.849548 867.086401 237.849548 
L 867.555151 237.849548 
L 867.555151 238.797986 
L 866.969214 238.797986 
Q 866.403589 238.797986 866.092651 238.446423 
Q 865.783276 238.094861 865.783276 237.454236 
L 865.783276 231.672986 
L 866.780151 231.672986 
L 866.780151 237.463611 
z
M 868.678784 231.672986 
L 869.675659 231.672986 
L 869.675659 232.669861 
L 868.678784 232.669861 
L 868.678784 231.672986 
z
M 868.678784 233.704236 
L 869.675659 233.704236 
L 869.675659 238.772986 
L 868.678784 238.772986 
L 868.678784 233.704236 
z
M 872.5073 238.797986 
Q 871.891675 238.797986 871.605737 238.458923 
Q 871.3198 238.118298 871.3198 237.454236 
L 871.3198 232.229236 
L 872.316675 232.229236 
L 872.316675 237.463611 
Q 872.316675 237.649548 872.390112 237.749548 
Q 872.46355 237.849548 872.604175 237.849548 
L 873.083862 237.849548 
L 873.083862 238.797986 
L 872.5073 238.797986 
z
M 870.797925 233.704236 
L 873.083862 233.704236 
L 873.083862 234.602673 
L 870.797925 234.602673 
L 870.797925 233.704236 
z
M 876.525268 238.846423 
Q 875.822143 238.846423 875.323706 238.582361 
Q 874.826831 238.318298 874.564331 237.808923 
Q 874.303393 237.297986 874.303393 236.576111 
L 874.303393 236.004236 
Q 874.303393 235.252673 874.554956 234.721423 
Q 874.806518 234.188611 875.284643 233.910486 
Q 875.764331 233.630798 876.437768 233.630798 
Q 877.072143 233.630798 877.520581 233.949548 
Q 877.970581 234.266736 878.206518 234.866736 
Q 878.444018 235.466736 878.444018 236.307361 
L 878.444018 236.638611 
L 875.026831 236.638611 
L 875.026831 235.838611 
L 877.497143 235.838611 
L 877.497143 235.838611 
Q 877.453393 235.218298 877.176831 234.874548 
Q 876.901831 234.529236 876.437768 234.529236 
Q 875.870581 234.529236 875.561206 234.901111 
Q 875.251831 235.271423 875.251831 235.951111 
L 875.251831 236.594861 
Q 875.251831 237.224548 875.583081 237.562048 
Q 875.915893 237.899548 876.525268 237.899548 
Q 876.828393 237.899548 877.125268 237.777673 
Q 877.423706 237.654236 877.658081 237.435486 
L 877.658081 237.435486 
L 878.312768 238.088611 
L 878.312768 238.088611 
Q 877.936206 238.451111 877.467456 238.649548 
Q 876.998706 238.846423 876.525268 238.846423 
z
M 883.351831 240.301111 
Q 882.483081 239.358923 882.050268 238.190173 
Q 881.619018 237.019861 881.619018 235.608923 
Q 881.619018 234.197986 882.050268 233.029236 
Q 882.483081 231.858923 883.351831 230.916736 
L 884.034643 231.537048 
Q 883.298706 232.357361 882.931518 233.372986 
Q 882.565893 234.388611 882.565893 235.608923 
Q 882.565893 236.829236 882.931518 237.844861 
Q 883.298706 238.860486 884.034643 239.685486 
L 883.351831 240.301111 
z
M 887.379761 235.247986 
L 887.375073 235.422986 
Q 887.253198 235.647986 887.006323 235.752673 
Q 886.759448 235.857361 886.423511 235.857361 
Q 885.915698 235.857361 885.529761 235.599548 
Q 885.143823 235.340173 884.931323 234.869861 
Q 884.718823 234.397986 884.718823 233.777673 
L 884.718823 233.772986 
Q 884.718823 233.083923 884.950073 232.596423 
Q 885.182886 232.107361 885.629761 231.854236 
Q 886.076636 231.599548 886.701636 231.599548 
Q 887.326636 231.599548 887.770386 231.858923 
Q 888.215698 232.118298 888.446948 232.612048 
Q 888.678198 233.104236 888.678198 233.797986 
L 888.678198 233.802673 
Q 888.678198 234.182361 888.579761 234.615173 
Q 888.482886 235.047986 888.303198 235.471423 
Q 888.273511 235.535486 888.243823 235.601111 
Q 888.215698 235.666736 888.181323 235.730798 
L 886.667261 238.772986 
L 885.592261 238.772986 
L 887.379761 235.247986 
z
M 886.701636 234.949548 
Q 887.170386 234.949548 887.426636 234.632361 
Q 887.682886 234.315173 887.682886 233.738611 
L 887.682886 233.733923 
Q 887.682886 233.172986 887.426636 232.865173 
Q 887.170386 232.557361 886.701636 232.557361 
Q 886.228198 232.557361 885.971948 232.865173 
Q 885.715698 233.172986 885.715698 233.738611 
L 885.715698 233.743298 
Q 885.715698 234.319861 885.971948 234.635486 
Q 886.228198 234.949548 886.701636 234.949548 
z
M 891.828784 238.846423 
Q 891.203784 238.846423 890.758471 238.594861 
Q 890.314721 238.343298 890.081909 237.862048 
Q 889.850659 237.380798 889.850659 236.702673 
L 889.850659 236.697986 
Q 889.850659 236.302673 889.942846 235.868298 
Q 890.036596 235.432361 890.211596 235.013611 
Q 890.241284 234.940173 890.275659 234.869861 
Q 890.310034 234.797986 890.344409 234.729236 
L 891.886596 231.672986 
L 892.961596 231.672986 
L 891.149096 235.213611 
L 891.153784 235.037048 
Q 891.277221 234.807361 891.511596 234.680798 
Q 891.745971 234.554236 892.058471 234.554236 
Q 892.610034 234.554236 893.005346 234.804236 
Q 893.400659 235.052673 893.605346 235.529236 
Q 893.810034 236.004236 893.810034 236.672986 
L 893.810034 236.677673 
Q 893.810034 237.362048 893.578784 237.851111 
Q 893.347534 238.338611 892.900659 238.593298 
Q 892.453784 238.846423 891.828784 238.846423 
z
M 891.828784 237.888611 
Q 892.302221 237.888611 892.558471 237.596423 
Q 892.814721 237.302673 892.814721 236.760486 
L 892.814721 236.755798 
Q 892.814721 236.160486 892.545971 235.835486 
Q 892.277221 235.510486 891.778784 235.510486 
Q 891.335034 235.510486 891.091284 235.838611 
Q 890.847534 236.165173 890.847534 236.760486 
L 890.847534 236.766736 
Q 890.847534 237.307361 891.103784 237.597986 
Q 891.360034 237.888611 891.828784 237.888611 
z
M 897.155932 238.846423 
Q 896.159057 238.846423 895.643432 238.315173 
Q 895.12937 237.782361 895.12937 236.829236 
L 895.12937 233.602673 
Q 895.12937 232.644861 895.646557 232.115173 
Q 896.163745 231.585486 897.155932 231.585486 
Q 898.151245 231.585486 898.66687 232.113611 
Q 899.182495 232.640173 899.182495 233.602673 
L 899.182495 236.829236 
Q 899.182495 237.787048 898.663745 238.316736 
Q 898.146557 238.846423 897.155932 238.846423 
z
M 897.155932 237.899548 
Q 897.682495 237.899548 897.934057 237.622986 
Q 898.18562 237.346423 898.18562 236.829236 
L 898.18562 233.602673 
Q 898.18562 233.083923 897.93562 232.808923 
Q 897.687182 232.532361 897.155932 232.532361 
Q 896.62312 232.532361 896.37312 232.808923 
Q 896.124682 233.083923 896.124682 233.602673 
L 896.124682 236.829236 
Q 896.124682 237.346423 896.376245 237.622986 
Q 896.627807 237.899548 897.155932 237.899548 
z
M 902.673511 238.846423 
Q 901.676636 238.846423 901.161011 238.315173 
Q 900.646948 237.782361 900.646948 236.829236 
L 900.646948 233.602673 
Q 900.646948 232.644861 901.164136 232.115173 
Q 901.681323 231.585486 902.673511 231.585486 
Q 903.668823 231.585486 904.184448 232.113611 
Q 904.700073 232.640173 904.700073 233.602673 
L 904.700073 236.829236 
Q 904.700073 237.787048 904.181323 238.316736 
Q 903.664136 238.846423 902.673511 238.846423 
z
M 902.673511 237.899548 
Q 903.200073 237.899548 903.451636 237.622986 
Q 903.703198 237.346423 903.703198 236.829236 
L 903.703198 233.602673 
Q 903.703198 233.083923 903.453198 232.808923 
Q 903.204761 232.532361 902.673511 232.532361 
Q 902.140698 232.532361 901.890698 232.808923 
Q 901.642261 233.083923 901.642261 233.602673 
L 901.642261 236.829236 
Q 901.642261 237.346423 901.893823 237.622986 
Q 902.145386 237.899548 902.673511 237.899548 
z
M 905.530151 239.685486 
Q 906.266089 238.860486 906.631714 237.844861 
Q 906.998901 236.829236 906.998901 235.608923 
Q 906.998901 234.388611 906.631714 233.372986 
Q 906.266089 232.357361 905.530151 231.537048 
L 906.212964 230.916736 
Q 907.081714 231.858923 907.512964 233.029236 
Q 907.945776 234.197986 907.945776 235.608923 
Q 907.945776 237.019861 907.512964 238.190173 
Q 907.081714 239.358923 906.212964 240.301111 
L 905.530151 239.685486 
z
" style="fill: #ffffff"/>
   </g>
  </g>
 </g>
 <defs>
  <clipPath id="p61260b46f2">
   <rect x="144" y="77.76" width="892.8" height="498.96"/>
  </clipPath>
 </defs>
</svg>
