<?xml version="1.0" encoding="utf-8" standalone="no"?>
<!DOCTYPE svg PUBLIC "-//W3C//DTD SVG 1.1//EN"
  "http://www.w3.org/Graphics/SVG/1.1/DTD/svg11.dtd">
<svg xmlns:xlink="http://www.w3.org/1999/xlink" width="1152pt" height="648pt" viewBox="0 0 1152 648" xmlns="http://www.w3.org/2000/svg" version="1.1">
 <metadata>
  <rdf:RDF xmlns:dc="http://purl.org/dc/elements/1.1/" xmlns:cc="http://creativecommons.org/ns#" xmlns:rdf="http://www.w3.org/1999/02/22-rdf-syntax-ns#">
   <cc:Work>
    <dc:type rdf:resource="http://purl.org/dc/dcmitype/StillImage"/>
    <dc:date>2025-09-19T13:20:11.112638</dc:date>
    <dc:format>image/svg+xml</dc:format>
    <dc:creator>
     <cc:Agent>
      <dc:title>Matplotlib v3.10.3, https://matplotlib.org/</dc:title>
     </cc:Agent>
    </dc:creator>
   </cc:Work>
  </rdf:RDF>
 </metadata>
 <defs>
  <style type="text/css">*{stroke-linejoin: round; stroke-linecap: butt}</style>
 </defs>
 <g id="figure_1">
  <g id="patch_1">
   <path d="M 0 648 
L 1152 648 
L 1152 0 
L 0 0 
L 0 648 
z
" style="fill: none"/>
  </g>
  <g id="axes_1">
   <g id="PathCollection_1">
    <defs>
     <path id="m13d05c448c" d="M 0 2.738613 
C 0.726289 2.738613 1.422928 2.450055 1.936492 1.936492 
C 2.450055 1.422928 2.738613 0.726289 2.738613 0 
C 2.738613 -0.726289 2.450055 -1.422928 1.936492 -1.936492 
C 1.422928 -2.450055 0.726289 -2.738613 0 -2.738613 
C -0.726289 -2.738613 -1.422928 -2.450055 -1.936492 -1.936492 
C -2.450055 -1.422928 -2.738613 -0.726289 -2.738613 0 
C -2.738613 0.726289 -2.450055 1.422928 -1.936492 1.936492 
C -1.422928 2.450055 -0.726289 2.738613 0 2.738613 
z
" style="stroke: #ff0000"/>
    </defs>
    <g clip-path="url(#p9c31f88cc1)">
     <use xlink:href="#m13d05c448c" x="375.722182" y="480.853152" style="fill: #ff0000; stroke: #ff0000"/>
     <use xlink:href="#m13d05c448c" x="231.250909" y="503.406144" style="fill: #ff0000; stroke: #ff0000"/>
    </g>
   </g>
   <g id="text_1">
    <path d="M 383.275599 479.384095 
L 386.409974 475.39972 
L 387.634974 475.39972 
L 383.128724 480.877845 
L 383.275599 479.384095 
z
M 382.494349 475.39972 
L 383.489662 475.39972 
L 383.489662 482.49972 
L 382.494349 482.49972 
L 382.494349 475.39972 
z
M 384.456849 478.710658 
L 385.242787 477.982533 
L 387.933412 482.49972 
L 386.713099 482.49972 
L 384.456849 478.710658 
z
M 390.843177 482.573158 
Q 390.199427 482.573158 389.710365 482.329408 
Q 389.222865 482.084095 388.955677 481.63722 
Q 388.690052 481.190345 388.690052 480.59972 
L 388.690052 480.482533 
Q 388.690052 479.951283 388.955677 479.482533 
Q 389.222865 479.013783 389.666615 478.77472 
Q 389.290052 478.56847 389.06349 478.18097 
Q 388.836927 477.791908 388.836927 477.36222 
L 388.836927 477.191908 
Q 388.836927 476.635658 389.085365 476.213783 
Q 389.333802 475.790345 389.78849 475.559095 
Q 390.243177 475.326283 390.843177 475.326283 
Q 391.443177 475.326283 391.897865 475.559095 
Q 392.352552 475.790345 392.60099 476.213783 
Q 392.849427 476.635658 392.849427 477.191908 
L 392.849427 477.36222 
Q 392.849427 477.802845 392.618177 478.188783 
Q 392.386927 478.573158 392.005677 478.77472 
Q 392.454115 479.01847 392.724427 479.485658 
Q 392.996302 479.951283 392.996302 480.482533 
L 392.996302 480.59972 
Q 392.996302 481.190345 392.730677 481.63722 
Q 392.465052 482.084095 391.97599 482.329408 
Q 391.48849 482.573158 390.843177 482.573158 
z
M 390.843177 481.615345 
Q 391.190052 481.615345 391.452552 481.479408 
Q 391.716615 481.341908 391.860365 481.096595 
Q 392.005677 480.84972 392.005677 480.526283 
L 392.005677 480.459095 
Q 392.005677 480.13097 391.860365 479.885658 
Q 391.716615 479.638783 391.452552 479.502845 
Q 391.190052 479.365345 390.843177 479.365345 
Q 390.496302 479.365345 390.23224 479.502845 
Q 389.96974 479.638783 389.824427 479.88722 
Q 389.680677 480.135658 389.680677 480.463783 
L 389.680677 480.53722 
Q 389.680677 480.859095 389.824427 481.102845 
Q 389.96974 481.346595 390.23224 481.48097 
Q 390.496302 481.615345 390.843177 481.615345 
z
M 390.843177 478.407533 
Q 391.141615 478.407533 391.36974 478.279408 
Q 391.599427 478.14972 391.72599 477.910658 
Q 391.854115 477.670033 391.854115 477.357533 
L 391.854115 477.290345 
Q 391.854115 476.991908 391.72599 476.76222 
Q 391.599427 476.532533 391.36974 476.409095 
Q 391.141615 476.284095 390.843177 476.284095 
Q 390.54474 476.284095 390.315052 476.409095 
Q 390.086927 476.532533 389.958802 476.76222 
Q 389.83224 476.991908 389.83224 477.295033 
L 389.83224 477.36847 
Q 389.83224 477.67472 389.958802 477.91222 
Q 390.086927 478.14972 390.315052 478.279408 
Q 390.54474 478.407533 390.843177 478.407533 
z
M 396.415052 482.573158 
Q 395.418177 482.573158 394.902552 482.041908 
Q 394.38849 481.509095 394.38849 480.55597 
L 394.38849 477.329408 
Q 394.38849 476.371595 394.905677 475.841908 
Q 395.422865 475.31222 396.415052 475.31222 
Q 397.410365 475.31222 397.92599 475.840345 
Q 398.441615 476.366908 398.441615 477.329408 
L 398.441615 480.55597 
Q 398.441615 481.513783 397.922865 482.04347 
Q 397.405677 482.573158 396.415052 482.573158 
z
M 396.415052 481.626283 
Q 396.941615 481.626283 397.193177 481.34972 
Q 397.44474 481.073158 397.44474 480.55597 
L 397.44474 477.329408 
Q 397.44474 476.810658 397.19474 476.535658 
Q 396.946302 476.259095 396.415052 476.259095 
Q 395.88224 476.259095 395.63224 476.535658 
Q 395.383802 476.810658 395.383802 477.329408 
L 395.383802 480.55597 
Q 395.383802 481.073158 395.635365 481.34972 
Q 395.886927 481.626283 396.415052 481.626283 
z
M 401.932631 482.573158 
Q 400.935756 482.573158 400.420131 482.041908 
Q 399.906068 481.509095 399.906068 480.55597 
L 399.906068 477.329408 
Q 399.906068 476.371595 400.423256 475.841908 
Q 400.940443 475.31222 401.932631 475.31222 
Q 402.927943 475.31222 403.443568 475.840345 
Q 403.959193 476.366908 403.959193 477.329408 
L 403.959193 480.55597 
Q 403.959193 481.513783 403.440443 482.04347 
Q 402.923256 482.573158 401.932631 482.573158 
z
M 401.932631 481.626283 
Q 402.459193 481.626283 402.710756 481.34972 
Q 402.962318 481.073158 402.962318 480.55597 
L 402.962318 477.329408 
Q 402.962318 476.810658 402.712318 476.535658 
Q 402.463881 476.259095 401.932631 476.259095 
Q 401.399818 476.259095 401.149818 476.535658 
Q 400.901381 476.810658 400.901381 477.329408 
L 400.901381 480.55597 
Q 400.901381 481.073158 401.152943 481.34972 
Q 401.404506 481.626283 401.932631 481.626283 
z
M 407.450209 482.573158 
Q 406.453334 482.573158 405.937709 482.041908 
Q 405.423646 481.509095 405.423646 480.55597 
L 405.423646 477.329408 
Q 405.423646 476.371595 405.940834 475.841908 
Q 406.458021 475.31222 407.450209 475.31222 
Q 408.445521 475.31222 408.961146 475.840345 
Q 409.476771 476.366908 409.476771 477.329408 
L 409.476771 480.55597 
Q 409.476771 481.513783 408.958021 482.04347 
Q 408.440834 482.573158 407.450209 482.573158 
z
M 407.450209 481.626283 
Q 407.976771 481.626283 408.228334 481.34972 
Q 408.479896 481.073158 408.479896 480.55597 
L 408.479896 477.329408 
Q 408.479896 476.810658 408.229896 476.535658 
Q 407.981459 476.259095 407.450209 476.259095 
Q 406.917396 476.259095 406.667396 476.535658 
Q 406.418959 476.810658 406.418959 477.329408 
L 406.418959 480.55597 
Q 406.418959 481.073158 406.670521 481.34972 
Q 406.922084 481.626283 407.450209 481.626283 
z
" style="fill: #ffffff; stroke: #000000"/>
    <path d="M 383.275599 479.384095 
L 386.409974 475.39972 
L 387.634974 475.39972 
L 383.128724 480.877845 
L 383.275599 479.384095 
z
M 382.494349 475.39972 
L 383.489662 475.39972 
L 383.489662 482.49972 
L 382.494349 482.49972 
L 382.494349 475.39972 
z
M 384.456849 478.710658 
L 385.242787 477.982533 
L 387.933412 482.49972 
L 386.713099 482.49972 
L 384.456849 478.710658 
z
M 390.843177 482.573158 
Q 390.199427 482.573158 389.710365 482.329408 
Q 389.222865 482.084095 388.955677 481.63722 
Q 388.690052 481.190345 388.690052 480.59972 
L 388.690052 480.482533 
Q 388.690052 479.951283 388.955677 479.482533 
Q 389.222865 479.013783 389.666615 478.77472 
Q 389.290052 478.56847 389.06349 478.18097 
Q 388.836927 477.791908 388.836927 477.36222 
L 388.836927 477.191908 
Q 388.836927 476.635658 389.085365 476.213783 
Q 389.333802 475.790345 389.78849 475.559095 
Q 390.243177 475.326283 390.843177 475.326283 
Q 391.443177 475.326283 391.897865 475.559095 
Q 392.352552 475.790345 392.60099 476.213783 
Q 392.849427 476.635658 392.849427 477.191908 
L 392.849427 477.36222 
Q 392.849427 477.802845 392.618177 478.188783 
Q 392.386927 478.573158 392.005677 478.77472 
Q 392.454115 479.01847 392.724427 479.485658 
Q 392.996302 479.951283 392.996302 480.482533 
L 392.996302 480.59972 
Q 392.996302 481.190345 392.730677 481.63722 
Q 392.465052 482.084095 391.97599 482.329408 
Q 391.48849 482.573158 390.843177 482.573158 
z
M 390.843177 481.615345 
Q 391.190052 481.615345 391.452552 481.479408 
Q 391.716615 481.341908 391.860365 481.096595 
Q 392.005677 480.84972 392.005677 480.526283 
L 392.005677 480.459095 
Q 392.005677 480.13097 391.860365 479.885658 
Q 391.716615 479.638783 391.452552 479.502845 
Q 391.190052 479.365345 390.843177 479.365345 
Q 390.496302 479.365345 390.23224 479.502845 
Q 389.96974 479.638783 389.824427 479.88722 
Q 389.680677 480.135658 389.680677 480.463783 
L 389.680677 480.53722 
Q 389.680677 480.859095 389.824427 481.102845 
Q 389.96974 481.346595 390.23224 481.48097 
Q 390.496302 481.615345 390.843177 481.615345 
z
M 390.843177 478.407533 
Q 391.141615 478.407533 391.36974 478.279408 
Q 391.599427 478.14972 391.72599 477.910658 
Q 391.854115 477.670033 391.854115 477.357533 
L 391.854115 477.290345 
Q 391.854115 476.991908 391.72599 476.76222 
Q 391.599427 476.532533 391.36974 476.409095 
Q 391.141615 476.284095 390.843177 476.284095 
Q 390.54474 476.284095 390.315052 476.409095 
Q 390.086927 476.532533 389.958802 476.76222 
Q 389.83224 476.991908 389.83224 477.295033 
L 389.83224 477.36847 
Q 389.83224 477.67472 389.958802 477.91222 
Q 390.086927 478.14972 390.315052 478.279408 
Q 390.54474 478.407533 390.843177 478.407533 
z
M 396.415052 482.573158 
Q 395.418177 482.573158 394.902552 482.041908 
Q 394.38849 481.509095 394.38849 480.55597 
L 394.38849 477.329408 
Q 394.38849 476.371595 394.905677 475.841908 
Q 395.422865 475.31222 396.415052 475.31222 
Q 397.410365 475.31222 397.92599 475.840345 
Q 398.441615 476.366908 398.441615 477.329408 
L 398.441615 480.55597 
Q 398.441615 481.513783 397.922865 482.04347 
Q 397.405677 482.573158 396.415052 482.573158 
z
M 396.415052 481.626283 
Q 396.941615 481.626283 397.193177 481.34972 
Q 397.44474 481.073158 397.44474 480.55597 
L 397.44474 477.329408 
Q 397.44474 476.810658 397.19474 476.535658 
Q 396.946302 476.259095 396.415052 476.259095 
Q 395.88224 476.259095 395.63224 476.535658 
Q 395.383802 476.810658 395.383802 477.329408 
L 395.383802 480.55597 
Q 395.383802 481.073158 395.635365 481.34972 
Q 395.886927 481.626283 396.415052 481.626283 
z
M 401.932631 482.573158 
Q 400.935756 482.573158 400.420131 482.041908 
Q 399.906068 481.509095 399.906068 480.55597 
L 399.906068 477.329408 
Q 399.906068 476.371595 400.423256 475.841908 
Q 400.940443 475.31222 401.932631 475.31222 
Q 402.927943 475.31222 403.443568 475.840345 
Q 403.959193 476.366908 403.959193 477.329408 
L 403.959193 480.55597 
Q 403.959193 481.513783 403.440443 482.04347 
Q 402.923256 482.573158 401.932631 482.573158 
z
M 401.932631 481.626283 
Q 402.459193 481.626283 402.710756 481.34972 
Q 402.962318 481.073158 402.962318 480.55597 
L 402.962318 477.329408 
Q 402.962318 476.810658 402.712318 476.535658 
Q 402.463881 476.259095 401.932631 476.259095 
Q 401.399818 476.259095 401.149818 476.535658 
Q 400.901381 476.810658 400.901381 477.329408 
L 400.901381 480.55597 
Q 400.901381 481.073158 401.152943 481.34972 
Q 401.404506 481.626283 401.932631 481.626283 
z
M 407.450209 482.573158 
Q 406.453334 482.573158 405.937709 482.041908 
Q 405.423646 481.509095 405.423646 480.55597 
L 405.423646 477.329408 
Q 405.423646 476.371595 405.940834 475.841908 
Q 406.458021 475.31222 407.450209 475.31222 
Q 408.445521 475.31222 408.961146 475.840345 
Q 409.476771 476.366908 409.476771 477.329408 
L 409.476771 480.55597 
Q 409.476771 481.513783 408.958021 482.04347 
Q 408.440834 482.573158 407.450209 482.573158 
z
M 407.450209 481.626283 
Q 407.976771 481.626283 408.228334 481.34972 
Q 408.479896 481.073158 408.479896 480.55597 
L 408.479896 477.329408 
Q 408.479896 476.810658 408.229896 476.535658 
Q 407.981459 476.259095 407.450209 476.259095 
Q 406.917396 476.259095 406.667396 476.535658 
Q 406.418959 476.810658 406.418959 477.329408 
L 406.418959 480.55597 
Q 406.418959 481.073158 406.670521 481.34972 
Q 406.922084 481.626283 407.450209 481.626283 
z
" style="fill: #ffffff"/>
   </g>
   <g id="text_2">
    <path d="M 238.804327 501.937087 
L 241.938702 497.952712 
L 243.163702 497.952712 
L 238.657452 503.430837 
L 238.804327 501.937087 
z
M 238.023077 497.952712 
L 239.018389 497.952712 
L 239.018389 505.052712 
L 238.023077 505.052712 
L 238.023077 497.952712 
z
M 239.985577 501.26365 
L 240.771514 500.535525 
L 243.462139 505.052712 
L 242.241827 505.052712 
L 239.985577 501.26365 
z
M 246.371905 505.12615 
Q 245.728155 505.12615 245.239092 504.8824 
Q 244.751592 504.637087 244.484405 504.190212 
Q 244.21878 503.743337 244.21878 503.152712 
L 244.21878 503.035525 
Q 244.21878 502.504275 244.484405 502.035525 
Q 244.751592 501.566775 245.195342 501.327712 
Q 244.81878 501.121462 244.592217 500.733962 
Q 244.365655 500.3449 244.365655 499.915212 
L 244.365655 499.7449 
Q 244.365655 499.18865 244.614092 498.766775 
Q 244.86253 498.343337 245.317217 498.112087 
Q 245.771905 497.879275 246.371905 497.879275 
Q 246.971905 497.879275 247.426592 498.112087 
Q 247.88128 498.343337 248.129717 498.766775 
Q 248.378155 499.18865 248.378155 499.7449 
L 248.378155 499.915212 
Q 248.378155 500.355837 248.146905 500.741775 
Q 247.915655 501.12615 247.534405 501.327712 
Q 247.982842 501.571462 248.253155 502.03865 
Q 248.52503 502.504275 248.52503 503.035525 
L 248.52503 503.152712 
Q 248.52503 503.743337 248.259405 504.190212 
Q 247.99378 504.637087 247.504717 504.8824 
Q 247.017217 505.12615 246.371905 505.12615 
z
M 246.371905 504.168337 
Q 246.71878 504.168337 246.98128 504.0324 
Q 247.245342 503.8949 247.389092 503.649587 
Q 247.534405 503.402712 247.534405 503.079275 
L 247.534405 503.012087 
Q 247.534405 502.683962 247.389092 502.43865 
Q 247.245342 502.191775 246.98128 502.055837 
Q 246.71878 501.918337 246.371905 501.918337 
Q 246.02503 501.918337 245.760967 502.055837 
Q 245.498467 502.191775 245.353155 502.440212 
Q 245.209405 502.68865 245.209405 503.016775 
L 245.209405 503.090212 
Q 245.209405 503.412087 245.353155 503.655837 
Q 245.498467 503.899587 245.760967 504.033962 
Q 246.02503 504.168337 246.371905 504.168337 
z
M 246.371905 500.960525 
Q 246.670342 500.960525 246.898467 500.8324 
Q 247.128155 500.702712 247.254717 500.46365 
Q 247.382842 500.223025 247.382842 499.910525 
L 247.382842 499.843337 
Q 247.382842 499.5449 247.254717 499.315212 
Q 247.128155 499.085525 246.898467 498.962087 
Q 246.670342 498.837087 246.371905 498.837087 
Q 246.073467 498.837087 245.84378 498.962087 
Q 245.615655 499.085525 245.48753 499.315212 
Q 245.360967 499.5449 245.360967 499.848025 
L 245.360967 499.921462 
Q 245.360967 500.227712 245.48753 500.465212 
Q 245.615655 500.702712 245.84378 500.8324 
Q 246.073467 500.960525 246.371905 500.960525 
z
M 251.94378 505.12615 
Q 250.946905 505.12615 250.43128 504.5949 
Q 249.917217 504.062087 249.917217 503.108962 
L 249.917217 499.8824 
Q 249.917217 498.924587 250.434405 498.3949 
Q 250.951592 497.865212 251.94378 497.865212 
Q 252.939092 497.865212 253.454717 498.393337 
Q 253.970342 498.9199 253.970342 499.8824 
L 253.970342 503.108962 
Q 253.970342 504.066775 253.451592 504.596462 
Q 252.934405 505.12615 251.94378 505.12615 
z
M 251.94378 504.179275 
Q 252.470342 504.179275 252.721905 503.902712 
Q 252.973467 503.62615 252.973467 503.108962 
L 252.973467 499.8824 
Q 252.973467 499.36365 252.723467 499.08865 
Q 252.47503 498.812087 251.94378 498.812087 
Q 251.410967 498.812087 251.160967 499.08865 
Q 250.91253 499.36365 250.91253 499.8824 
L 250.91253 503.108962 
Q 250.91253 503.62615 251.164092 503.902712 
Q 251.415655 504.179275 251.94378 504.179275 
z
M 257.461358 505.12615 
Q 256.464483 505.12615 255.948858 504.5949 
Q 255.434795 504.062087 255.434795 503.108962 
L 255.434795 499.8824 
Q 255.434795 498.924587 255.951983 498.3949 
Q 256.46917 497.865212 257.461358 497.865212 
Q 258.45667 497.865212 258.972295 498.393337 
Q 259.48792 498.9199 259.48792 499.8824 
L 259.48792 503.108962 
Q 259.48792 504.066775 258.96917 504.596462 
Q 258.451983 505.12615 257.461358 505.12615 
z
M 257.461358 504.179275 
Q 257.98792 504.179275 258.239483 503.902712 
Q 258.491045 503.62615 258.491045 503.108962 
L 258.491045 499.8824 
Q 258.491045 499.36365 258.241045 499.08865 
Q 257.992608 498.812087 257.461358 498.812087 
Q 256.928545 498.812087 256.678545 499.08865 
Q 256.430108 499.36365 256.430108 499.8824 
L 256.430108 503.108962 
Q 256.430108 503.62615 256.68167 503.902712 
Q 256.933233 504.179275 257.461358 504.179275 
z
M 262.978936 505.12615 
Q 261.982061 505.12615 261.466436 504.5949 
Q 260.952373 504.062087 260.952373 503.108962 
L 260.952373 499.8824 
Q 260.952373 498.924587 261.469561 498.3949 
Q 261.986748 497.865212 262.978936 497.865212 
Q 263.974248 497.865212 264.489873 498.393337 
Q 265.005498 498.9199 265.005498 499.8824 
L 265.005498 503.108962 
Q 265.005498 504.066775 264.486748 504.596462 
Q 263.969561 505.12615 262.978936 505.12615 
z
M 262.978936 504.179275 
Q 263.505498 504.179275 263.757061 503.902712 
Q 264.008623 503.62615 264.008623 503.108962 
L 264.008623 499.8824 
Q 264.008623 499.36365 263.758623 499.08865 
Q 263.510186 498.812087 262.978936 498.812087 
Q 262.446123 498.812087 262.196123 499.08865 
Q 261.947686 499.36365 261.947686 499.8824 
L 261.947686 503.108962 
Q 261.947686 503.62615 262.199248 503.902712 
Q 262.450811 504.179275 262.978936 504.179275 
z
" style="fill: #ffffff; stroke: #000000"/>
    <path d="M 238.804327 501.937087 
L 241.938702 497.952712 
L 243.163702 497.952712 
L 238.657452 503.430837 
L 238.804327 501.937087 
z
M 238.023077 497.952712 
L 239.018389 497.952712 
L 239.018389 505.052712 
L 238.023077 505.052712 
L 238.023077 497.952712 
z
M 239.985577 501.26365 
L 240.771514 500.535525 
L 243.462139 505.052712 
L 242.241827 505.052712 
L 239.985577 501.26365 
z
M 246.371905 505.12615 
Q 245.728155 505.12615 245.239092 504.8824 
Q 244.751592 504.637087 244.484405 504.190212 
Q 244.21878 503.743337 244.21878 503.152712 
L 244.21878 503.035525 
Q 244.21878 502.504275 244.484405 502.035525 
Q 244.751592 501.566775 245.195342 501.327712 
Q 244.81878 501.121462 244.592217 500.733962 
Q 244.365655 500.3449 244.365655 499.915212 
L 244.365655 499.7449 
Q 244.365655 499.18865 244.614092 498.766775 
Q 244.86253 498.343337 245.317217 498.112087 
Q 245.771905 497.879275 246.371905 497.879275 
Q 246.971905 497.879275 247.426592 498.112087 
Q 247.88128 498.343337 248.129717 498.766775 
Q 248.378155 499.18865 248.378155 499.7449 
L 248.378155 499.915212 
Q 248.378155 500.355837 248.146905 500.741775 
Q 247.915655 501.12615 247.534405 501.327712 
Q 247.982842 501.571462 248.253155 502.03865 
Q 248.52503 502.504275 248.52503 503.035525 
L 248.52503 503.152712 
Q 248.52503 503.743337 248.259405 504.190212 
Q 247.99378 504.637087 247.504717 504.8824 
Q 247.017217 505.12615 246.371905 505.12615 
z
M 246.371905 504.168337 
Q 246.71878 504.168337 246.98128 504.0324 
Q 247.245342 503.8949 247.389092 503.649587 
Q 247.534405 503.402712 247.534405 503.079275 
L 247.534405 503.012087 
Q 247.534405 502.683962 247.389092 502.43865 
Q 247.245342 502.191775 246.98128 502.055837 
Q 246.71878 501.918337 246.371905 501.918337 
Q 246.02503 501.918337 245.760967 502.055837 
Q 245.498467 502.191775 245.353155 502.440212 
Q 245.209405 502.68865 245.209405 503.016775 
L 245.209405 503.090212 
Q 245.209405 503.412087 245.353155 503.655837 
Q 245.498467 503.899587 245.760967 504.033962 
Q 246.02503 504.168337 246.371905 504.168337 
z
M 246.371905 500.960525 
Q 246.670342 500.960525 246.898467 500.8324 
Q 247.128155 500.702712 247.254717 500.46365 
Q 247.382842 500.223025 247.382842 499.910525 
L 247.382842 499.843337 
Q 247.382842 499.5449 247.254717 499.315212 
Q 247.128155 499.085525 246.898467 498.962087 
Q 246.670342 498.837087 246.371905 498.837087 
Q 246.073467 498.837087 245.84378 498.962087 
Q 245.615655 499.085525 245.48753 499.315212 
Q 245.360967 499.5449 245.360967 499.848025 
L 245.360967 499.921462 
Q 245.360967 500.227712 245.48753 500.465212 
Q 245.615655 500.702712 245.84378 500.8324 
Q 246.073467 500.960525 246.371905 500.960525 
z
M 251.94378 505.12615 
Q 250.946905 505.12615 250.43128 504.5949 
Q 249.917217 504.062087 249.917217 503.108962 
L 249.917217 499.8824 
Q 249.917217 498.924587 250.434405 498.3949 
Q 250.951592 497.865212 251.94378 497.865212 
Q 252.939092 497.865212 253.454717 498.393337 
Q 253.970342 498.9199 253.970342 499.8824 
L 253.970342 503.108962 
Q 253.970342 504.066775 253.451592 504.596462 
Q 252.934405 505.12615 251.94378 505.12615 
z
M 251.94378 504.179275 
Q 252.470342 504.179275 252.721905 503.902712 
Q 252.973467 503.62615 252.973467 503.108962 
L 252.973467 499.8824 
Q 252.973467 499.36365 252.723467 499.08865 
Q 252.47503 498.812087 251.94378 498.812087 
Q 251.410967 498.812087 251.160967 499.08865 
Q 250.91253 499.36365 250.91253 499.8824 
L 250.91253 503.108962 
Q 250.91253 503.62615 251.164092 503.902712 
Q 251.415655 504.179275 251.94378 504.179275 
z
M 257.461358 505.12615 
Q 256.464483 505.12615 255.948858 504.5949 
Q 255.434795 504.062087 255.434795 503.108962 
L 255.434795 499.8824 
Q 255.434795 498.924587 255.951983 498.3949 
Q 256.46917 497.865212 257.461358 497.865212 
Q 258.45667 497.865212 258.972295 498.393337 
Q 259.48792 498.9199 259.48792 499.8824 
L 259.48792 503.108962 
Q 259.48792 504.066775 258.96917 504.596462 
Q 258.451983 505.12615 257.461358 505.12615 
z
M 257.461358 504.179275 
Q 257.98792 504.179275 258.239483 503.902712 
Q 258.491045 503.62615 258.491045 503.108962 
L 258.491045 499.8824 
Q 258.491045 499.36365 258.241045 499.08865 
Q 257.992608 498.812087 257.461358 498.812087 
Q 256.928545 498.812087 256.678545 499.08865 
Q 256.430108 499.36365 256.430108 499.8824 
L 256.430108 503.108962 
Q 256.430108 503.62615 256.68167 503.902712 
Q 256.933233 504.179275 257.461358 504.179275 
z
M 262.978936 505.12615 
Q 261.982061 505.12615 261.466436 504.5949 
Q 260.952373 504.062087 260.952373 503.108962 
L 260.952373 499.8824 
Q 260.952373 498.924587 261.469561 498.3949 
Q 261.986748 497.865212 262.978936 497.865212 
Q 263.974248 497.865212 264.489873 498.393337 
Q 265.005498 498.9199 265.005498 499.8824 
L 265.005498 503.108962 
Q 265.005498 504.066775 264.486748 504.596462 
Q 263.969561 505.12615 262.978936 505.12615 
z
M 262.978936 504.179275 
Q 263.505498 504.179275 263.757061 503.902712 
Q 264.008623 503.62615 264.008623 503.108962 
L 264.008623 499.8824 
Q 264.008623 499.36365 263.758623 499.08865 
Q 263.510186 498.812087 262.978936 498.812087 
Q 262.446123 498.812087 262.196123 499.08865 
Q 261.947686 499.36365 261.947686 499.8824 
L 261.947686 503.108962 
Q 261.947686 503.62615 262.199248 503.902712 
Q 262.450811 504.179275 262.978936 504.179275 
z
" style="fill: #ffffff"/>
   </g>
  </g>
 </g>
 <defs>
  <clipPath id="p9c31f88cc1">
   <rect x="144" y="77.76" width="892.8" height="498.96"/>
  </clipPath>
 </defs>
</svg>
