<?xml version="1.0" encoding="utf-8" standalone="no"?>
<!DOCTYPE svg PUBLIC "-//W3C//DTD SVG 1.1//EN"
  "http://www.w3.org/Graphics/SVG/1.1/DTD/svg11.dtd">
<svg xmlns:xlink="http://www.w3.org/1999/xlink" width="1152pt" height="648pt" viewBox="0 0 1152 648" xmlns="http://www.w3.org/2000/svg" version="1.1">
 <metadata>
  <rdf:RDF xmlns:dc="http://purl.org/dc/elements/1.1/" xmlns:cc="http://creativecommons.org/ns#" xmlns:rdf="http://www.w3.org/1999/02/22-rdf-syntax-ns#">
   <cc:Work>
    <dc:type rdf:resource="http://purl.org/dc/dcmitype/StillImage"/>
    <dc:date>2025-09-19T13:20:11.081151</dc:date>
    <dc:format>image/svg+xml</dc:format>
    <dc:creator>
     <cc:Agent>
      <dc:title>Matplotlib v3.10.3, https://matplotlib.org/</dc:title>
     </cc:Agent>
    </dc:creator>
   </cc:Work>
  </rdf:RDF>
 </metadata>
 <defs>
  <style type="text/css">*{stroke-linejoin: round; stroke-linecap: butt}</style>
 </defs>
 <g id="figure_1">
  <g id="patch_1">
   <path d="M 0 648 
L 1152 648 
L 1152 0 
L 0 0 
L 0 648 
z
" style="fill: none"/>
  </g>
  <g id="axes_1">
   <g id="PathCollection_1">
    <defs>
     <path id="mcae30cefde" d="M 0 2.738613 
C 0.726289 2.738613 1.422928 2.450055 1.936492 1.936492 
C 2.450055 1.422928 2.738613 0.726289 2.738613 0 
C 2.738613 -0.726289 2.450055 -1.422928 1.936492 -1.936492 
C 1.422928 -2.450055 0.726289 -2.738613 0 -2.738613 
C -0.726289 -2.738613 -1.422928 -2.450055 -1.936492 -1.936492 
C -2.450055 -1.422928 -2.738613 -0.726289 -2.738613 0 
C -2.738613 0.726289 -2.450055 1.422928 -1.936492 1.936492 
C -1.422928 2.450055 -0.726289 2.738613 0 2.738613 
z
" style="stroke: #ff0000"/>
    </defs>
    <g clip-path="url(#pa017f7d4e9)">
     <use xlink:href="#mcae30cefde" x="440.653091" y="471.77208" style="fill: #ff0000; stroke: #ff0000"/>
     <use xlink:href="#mcae30cefde" x="268.586182" y="500.87808" style="fill: #ff0000; stroke: #ff0000"/>
    </g>
   </g>
   <g id="text_1">
    <path d="M 448.206508 470.303023 
L 451.340883 466.318648 
L 452.565883 466.318648 
L 448.059633 471.796773 
L 448.206508 470.303023 
z
M 447.425258 466.318648 
L 448.420571 466.318648 
L 448.420571 473.418648 
L 447.425258 473.418648 
L 447.425258 466.318648 
z
M 449.387758 469.629586 
L 450.173696 468.901461 
L 452.864321 473.418648 
L 451.644008 473.418648 
L 449.387758 469.629586 
z
M 456.208462 469.893648 
L 456.203774 470.068648 
Q 456.081899 470.293648 455.835024 470.398336 
Q 455.588149 470.503023 455.252212 470.503023 
Q 454.744399 470.503023 454.358462 470.245211 
Q 453.972524 469.985836 453.760024 469.515523 
Q 453.547524 469.043648 453.547524 468.423336 
L 453.547524 468.418648 
Q 453.547524 467.729586 453.778774 467.242086 
Q 454.011587 466.753023 454.458462 466.499898 
Q 454.905337 466.245211 455.530337 466.245211 
Q 456.155337 466.245211 456.599087 466.504586 
Q 457.044399 466.76396 457.275649 467.257711 
Q 457.506899 467.749898 457.506899 468.443648 
L 457.506899 468.448336 
Q 457.506899 468.828023 457.408462 469.260836 
Q 457.311587 469.693648 457.131899 470.117086 
Q 457.102212 470.181148 457.072524 470.246773 
Q 457.044399 470.312398 457.010024 470.376461 
L 455.495962 473.418648 
L 454.420962 473.418648 
L 456.208462 469.893648 
z
M 455.530337 469.595211 
Q 455.999087 469.595211 456.255337 469.278023 
Q 456.511587 468.960836 456.511587 468.384273 
L 456.511587 468.379586 
Q 456.511587 467.818648 456.255337 467.510836 
Q 455.999087 467.203023 455.530337 467.203023 
Q 455.056899 467.203023 454.800649 467.510836 
Q 454.544399 467.818648 454.544399 468.384273 
L 454.544399 468.38896 
Q 454.544399 468.965523 454.800649 469.281148 
Q 455.056899 469.595211 455.530337 469.595211 
z
M 460.852797 473.492086 
Q 459.855922 473.492086 459.340297 472.960836 
Q 458.826235 472.428023 458.826235 471.474898 
L 458.826235 468.248335 
Q 458.826235 467.290523 459.343422 466.760836 
Q 459.86061 466.231148 460.852797 466.231148 
Q 461.84811 466.231148 462.363735 466.759273 
Q 462.87936 467.285836 462.87936 468.248335 
L 462.87936 471.474898 
Q 462.87936 472.432711 462.36061 472.962398 
Q 461.843422 473.492086 460.852797 473.492086 
z
M 460.852797 472.54521 
Q 461.37936 472.54521 461.630922 472.268648 
Q 461.882485 471.992086 461.882485 471.474898 
L 461.882485 468.248335 
Q 461.882485 467.729586 461.632485 467.454586 
Q 461.384047 467.178023 460.852797 467.178023 
Q 460.319985 467.178023 460.069985 467.454586 
Q 459.821547 467.729586 459.821547 468.248335 
L 459.821547 471.474898 
Q 459.821547 471.992086 460.07311 472.268648 
Q 460.324672 472.54521 460.852797 472.54521 
z
M 466.370376 473.492086 
Q 465.373501 473.492086 464.857876 472.960836 
Q 464.343813 472.428023 464.343813 471.474898 
L 464.343813 468.248335 
Q 464.343813 467.290523 464.861001 466.760836 
Q 465.378188 466.231148 466.370376 466.231148 
Q 467.365688 466.231148 467.881313 466.759273 
Q 468.396938 467.285836 468.396938 468.248335 
L 468.396938 471.474898 
Q 468.396938 472.432711 467.878188 472.962398 
Q 467.361001 473.492086 466.370376 473.492086 
z
M 466.370376 472.54521 
Q 466.896938 472.54521 467.148501 472.268648 
Q 467.400063 471.992086 467.400063 471.474898 
L 467.400063 468.248335 
Q 467.400063 467.729586 467.150063 467.454586 
Q 466.901626 467.178023 466.370376 467.178023 
Q 465.837563 467.178023 465.587563 467.454586 
Q 465.339126 467.729586 465.339126 468.248335 
L 465.339126 471.474898 
Q 465.339126 471.992086 465.590688 472.268648 
Q 465.842251 472.54521 466.370376 472.54521 
z
M 471.887954 473.492086 
Q 470.891079 473.492086 470.375454 472.960836 
Q 469.861391 472.428023 469.861391 471.474898 
L 469.861391 468.248335 
Q 469.861391 467.290523 470.378579 466.760836 
Q 470.895766 466.231148 471.887954 466.231148 
Q 472.883266 466.231148 473.398891 466.759273 
Q 473.914516 467.285836 473.914516 468.248335 
L 473.914516 471.474898 
Q 473.914516 472.432711 473.395766 472.962398 
Q 472.878579 473.492086 471.887954 473.492086 
z
M 471.887954 472.54521 
Q 472.414516 472.54521 472.666079 472.268648 
Q 472.917641 471.992086 472.917641 471.474898 
L 472.917641 468.248335 
Q 472.917641 467.729586 472.667641 467.454586 
Q 472.419204 467.178023 471.887954 467.178023 
Q 471.355141 467.178023 471.105141 467.454586 
Q 470.856704 467.729586 470.856704 468.248335 
L 470.856704 471.474898 
Q 470.856704 471.992086 471.108266 472.268648 
Q 471.359829 472.54521 471.887954 472.54521 
z
M 477.658657 473.492086 
Q 477.146157 473.492086 476.686782 473.395211 
Q 476.228969 473.296773 475.830532 473.101461 
Q 475.432094 472.906148 475.085219 472.612398 
L 475.085219 472.612398 
L 475.705532 471.851461 
L 475.705532 471.851461 
Q 476.111782 472.203023 476.599282 472.379586 
Q 477.088344 472.554586 477.658657 472.554586 
Q 478.430532 472.554586 478.855532 472.268648 
Q 479.280532 471.98271 479.280532 471.460836 
L 479.280532 471.456148 
Q 479.280532 471.084273 479.086782 470.867086 
Q 478.894594 470.649898 478.588344 470.54521 
Q 478.283657 470.440523 477.800844 470.351461 
Q 477.785219 470.346773 477.768032 470.346773 
Q 477.752407 470.346773 477.736782 470.342085 
L 477.663344 470.328023 
Q 476.950844 470.206148 476.503969 470.053023 
Q 476.057094 469.898336 475.739907 469.490523 
Q 475.422719 469.082711 475.422719 468.331148 
L 475.422719 468.32646 
Q 475.422719 467.667086 475.718032 467.20146 
Q 476.013344 466.734273 476.578969 466.490523 
Q 477.146157 466.245211 477.941469 466.245211 
Q 478.322719 466.245211 478.691469 466.329586 
Q 479.060219 466.412398 479.418032 466.57646 
Q 479.777407 466.738961 480.124282 466.987398 
L 480.124282 466.987398 
L 479.558657 467.779585 
L 479.558657 467.779585 
Q 479.152407 467.481148 478.749282 467.332711 
Q 478.347719 467.182711 477.941469 467.182711 
Q 477.214907 467.182711 476.811782 467.473336 
Q 476.408657 467.76396 476.408657 468.296773 
L 476.408657 468.301461 
Q 476.408657 468.667086 476.616469 468.878023 
Q 476.824282 469.087398 477.133657 469.187398 
Q 477.444594 469.287398 477.996157 469.395211 
Q 478.014907 469.399898 478.032094 469.403023 
Q 478.049282 469.404585 478.069594 469.409273 
Q 478.093032 469.413961 478.122719 469.42021 
Q 478.152407 469.424898 478.175844 469.429586 
Q 478.821157 469.560835 479.252407 469.742086 
Q 479.685219 469.921773 479.975844 470.324898 
Q 480.266469 470.728023 480.266469 471.426461 
L 480.266469 471.435835 
Q 480.266469 472.085836 479.958657 472.546773 
Q 479.650844 473.007711 479.066469 473.249898 
Q 478.483657 473.492086 477.658657 473.492086 
z
M 481.683071 466.318648 
L 482.678383 466.318648 
L 482.678383 473.418648 
L 481.683071 473.418648 
L 481.683071 466.318648 
z
M 482.179946 472.471773 
L 486.242446 472.471773 
L 486.242446 473.418648 
L 482.179946 473.418648 
L 482.179946 472.471773 
z
" style="fill: #ffffff; stroke: #000000"/>
    <path d="M 448.206508 470.303023 
L 451.340883 466.318648 
L 452.565883 466.318648 
L 448.059633 471.796773 
L 448.206508 470.303023 
z
M 447.425258 466.318648 
L 448.420571 466.318648 
L 448.420571 473.418648 
L 447.425258 473.418648 
L 447.425258 466.318648 
z
M 449.387758 469.629586 
L 450.173696 468.901461 
L 452.864321 473.418648 
L 451.644008 473.418648 
L 449.387758 469.629586 
z
M 456.208462 469.893648 
L 456.203774 470.068648 
Q 456.081899 470.293648 455.835024 470.398336 
Q 455.588149 470.503023 455.252212 470.503023 
Q 454.744399 470.503023 454.358462 470.245211 
Q 453.972524 469.985836 453.760024 469.515523 
Q 453.547524 469.043648 453.547524 468.423336 
L 453.547524 468.418648 
Q 453.547524 467.729586 453.778774 467.242086 
Q 454.011587 466.753023 454.458462 466.499898 
Q 454.905337 466.245211 455.530337 466.245211 
Q 456.155337 466.245211 456.599087 466.504586 
Q 457.044399 466.76396 457.275649 467.257711 
Q 457.506899 467.749898 457.506899 468.443648 
L 457.506899 468.448336 
Q 457.506899 468.828023 457.408462 469.260836 
Q 457.311587 469.693648 457.131899 470.117086 
Q 457.102212 470.181148 457.072524 470.246773 
Q 457.044399 470.312398 457.010024 470.376461 
L 455.495962 473.418648 
L 454.420962 473.418648 
L 456.208462 469.893648 
z
M 455.530337 469.595211 
Q 455.999087 469.595211 456.255337 469.278023 
Q 456.511587 468.960836 456.511587 468.384273 
L 456.511587 468.379586 
Q 456.511587 467.818648 456.255337 467.510836 
Q 455.999087 467.203023 455.530337 467.203023 
Q 455.056899 467.203023 454.800649 467.510836 
Q 454.544399 467.818648 454.544399 468.384273 
L 454.544399 468.38896 
Q 454.544399 468.965523 454.800649 469.281148 
Q 455.056899 469.595211 455.530337 469.595211 
z
M 460.852797 473.492086 
Q 459.855922 473.492086 459.340297 472.960836 
Q 458.826235 472.428023 458.826235 471.474898 
L 458.826235 468.248335 
Q 458.826235 467.290523 459.343422 466.760836 
Q 459.86061 466.231148 460.852797 466.231148 
Q 461.84811 466.231148 462.363735 466.759273 
Q 462.87936 467.285836 462.87936 468.248335 
L 462.87936 471.474898 
Q 462.87936 472.432711 462.36061 472.962398 
Q 461.843422 473.492086 460.852797 473.492086 
z
M 460.852797 472.54521 
Q 461.37936 472.54521 461.630922 472.268648 
Q 461.882485 471.992086 461.882485 471.474898 
L 461.882485 468.248335 
Q 461.882485 467.729586 461.632485 467.454586 
Q 461.384047 467.178023 460.852797 467.178023 
Q 460.319985 467.178023 460.069985 467.454586 
Q 459.821547 467.729586 459.821547 468.248335 
L 459.821547 471.474898 
Q 459.821547 471.992086 460.07311 472.268648 
Q 460.324672 472.54521 460.852797 472.54521 
z
M 466.370376 473.492086 
Q 465.373501 473.492086 464.857876 472.960836 
Q 464.343813 472.428023 464.343813 471.474898 
L 464.343813 468.248335 
Q 464.343813 467.290523 464.861001 466.760836 
Q 465.378188 466.231148 466.370376 466.231148 
Q 467.365688 466.231148 467.881313 466.759273 
Q 468.396938 467.285836 468.396938 468.248335 
L 468.396938 471.474898 
Q 468.396938 472.432711 467.878188 472.962398 
Q 467.361001 473.492086 466.370376 473.492086 
z
M 466.370376 472.54521 
Q 466.896938 472.54521 467.148501 472.268648 
Q 467.400063 471.992086 467.400063 471.474898 
L 467.400063 468.248335 
Q 467.400063 467.729586 467.150063 467.454586 
Q 466.901626 467.178023 466.370376 467.178023 
Q 465.837563 467.178023 465.587563 467.454586 
Q 465.339126 467.729586 465.339126 468.248335 
L 465.339126 471.474898 
Q 465.339126 471.992086 465.590688 472.268648 
Q 465.842251 472.54521 466.370376 472.54521 
z
M 471.887954 473.492086 
Q 470.891079 473.492086 470.375454 472.960836 
Q 469.861391 472.428023 469.861391 471.474898 
L 469.861391 468.248335 
Q 469.861391 467.290523 470.378579 466.760836 
Q 470.895766 466.231148 471.887954 466.231148 
Q 472.883266 466.231148 473.398891 466.759273 
Q 473.914516 467.285836 473.914516 468.248335 
L 473.914516 471.474898 
Q 473.914516 472.432711 473.395766 472.962398 
Q 472.878579 473.492086 471.887954 473.492086 
z
M 471.887954 472.54521 
Q 472.414516 472.54521 472.666079 472.268648 
Q 472.917641 471.992086 472.917641 471.474898 
L 472.917641 468.248335 
Q 472.917641 467.729586 472.667641 467.454586 
Q 472.419204 467.178023 471.887954 467.178023 
Q 471.355141 467.178023 471.105141 467.454586 
Q 470.856704 467.729586 470.856704 468.248335 
L 470.856704 471.474898 
Q 470.856704 471.992086 471.108266 472.268648 
Q 471.359829 472.54521 471.887954 472.54521 
z
M 477.658657 473.492086 
Q 477.146157 473.492086 476.686782 473.395211 
Q 476.228969 473.296773 475.830532 473.101461 
Q 475.432094 472.906148 475.085219 472.612398 
L 475.085219 472.612398 
L 475.705532 471.851461 
L 475.705532 471.851461 
Q 476.111782 472.203023 476.599282 472.379586 
Q 477.088344 472.554586 477.658657 472.554586 
Q 478.430532 472.554586 478.855532 472.268648 
Q 479.280532 471.98271 479.280532 471.460836 
L 479.280532 471.456148 
Q 479.280532 471.084273 479.086782 470.867086 
Q 478.894594 470.649898 478.588344 470.54521 
Q 478.283657 470.440523 477.800844 470.351461 
Q 477.785219 470.346773 477.768032 470.346773 
Q 477.752407 470.346773 477.736782 470.342085 
L 477.663344 470.328023 
Q 476.950844 470.206148 476.503969 470.053023 
Q 476.057094 469.898336 475.739907 469.490523 
Q 475.422719 469.082711 475.422719 468.331148 
L 475.422719 468.32646 
Q 475.422719 467.667086 475.718032 467.20146 
Q 476.013344 466.734273 476.578969 466.490523 
Q 477.146157 466.245211 477.941469 466.245211 
Q 478.322719 466.245211 478.691469 466.329586 
Q 479.060219 466.412398 479.418032 466.57646 
Q 479.777407 466.738961 480.124282 466.987398 
L 480.124282 466.987398 
L 479.558657 467.779585 
L 479.558657 467.779585 
Q 479.152407 467.481148 478.749282 467.332711 
Q 478.347719 467.182711 477.941469 467.182711 
Q 477.214907 467.182711 476.811782 467.473336 
Q 476.408657 467.76396 476.408657 468.296773 
L 476.408657 468.301461 
Q 476.408657 468.667086 476.616469 468.878023 
Q 476.824282 469.087398 477.133657 469.187398 
Q 477.444594 469.287398 477.996157 469.395211 
Q 478.014907 469.399898 478.032094 469.403023 
Q 478.049282 469.404585 478.069594 469.409273 
Q 478.093032 469.413961 478.122719 469.42021 
Q 478.152407 469.424898 478.175844 469.429586 
Q 478.821157 469.560835 479.252407 469.742086 
Q 479.685219 469.921773 479.975844 470.324898 
Q 480.266469 470.728023 480.266469 471.426461 
L 480.266469 471.435835 
Q 480.266469 472.085836 479.958657 472.546773 
Q 479.650844 473.007711 479.066469 473.249898 
Q 478.483657 473.492086 477.658657 473.492086 
z
M 481.683071 466.318648 
L 482.678383 466.318648 
L 482.678383 473.418648 
L 481.683071 473.418648 
L 481.683071 466.318648 
z
M 482.179946 472.471773 
L 486.242446 472.471773 
L 486.242446 473.418648 
L 482.179946 473.418648 
L 482.179946 472.471773 
z
" style="fill: #ffffff"/>
   </g>
   <g id="text_2">
    <path d="M 276.139599 499.409023 
L 279.273974 495.424648 
L 280.498974 495.424648 
L 275.992724 500.902773 
L 276.139599 499.409023 
z
M 275.358349 495.424648 
L 276.353662 495.424648 
L 276.353662 502.524648 
L 275.358349 502.524648 
L 275.358349 495.424648 
z
M 277.320849 498.735586 
L 278.106787 498.007461 
L 280.797412 502.524648 
L 279.577099 502.524648 
L 277.320849 498.735586 
z
M 284.141552 498.999648 
L 284.136865 499.174648 
Q 284.01499 499.399648 283.768115 499.504336 
Q 283.52124 499.609023 283.185302 499.609023 
Q 282.67749 499.609023 282.291552 499.351211 
Q 281.905615 499.091836 281.693115 498.621523 
Q 281.480615 498.149648 281.480615 497.529336 
L 281.480615 497.524648 
Q 281.480615 496.835586 281.711865 496.348086 
Q 281.944677 495.859023 282.391552 495.605898 
Q 282.838427 495.351211 283.463427 495.351211 
Q 284.088427 495.351211 284.532177 495.610586 
Q 284.97749 495.86996 285.20874 496.363711 
Q 285.43999 496.855898 285.43999 497.549648 
L 285.43999 497.554336 
Q 285.43999 497.934023 285.341552 498.366836 
Q 285.244677 498.799648 285.06499 499.223086 
Q 285.035302 499.287148 285.005615 499.352773 
Q 284.97749 499.418398 284.943115 499.482461 
L 283.429052 502.524648 
L 282.354052 502.524648 
L 284.141552 498.999648 
z
M 283.463427 498.701211 
Q 283.932177 498.701211 284.188427 498.384023 
Q 284.444677 498.066836 284.444677 497.490273 
L 284.444677 497.485586 
Q 284.444677 496.924648 284.188427 496.616836 
Q 283.932177 496.309023 283.463427 496.309023 
Q 282.98999 496.309023 282.73374 496.616836 
Q 282.47749 496.924648 282.47749 497.490273 
L 282.47749 497.49496 
Q 282.47749 498.071523 282.73374 498.387148 
Q 282.98999 498.701211 283.463427 498.701211 
z
M 288.785888 502.598086 
Q 287.789013 502.598086 287.273388 502.066836 
Q 286.759326 501.534023 286.759326 500.580898 
L 286.759326 497.354335 
Q 286.759326 496.396523 287.276513 495.866836 
Q 287.793701 495.337148 288.785888 495.337148 
Q 289.781201 495.337148 290.296826 495.865273 
Q 290.812451 496.391836 290.812451 497.354335 
L 290.812451 500.580898 
Q 290.812451 501.538711 290.293701 502.068398 
Q 289.776513 502.598086 288.785888 502.598086 
z
M 288.785888 501.65121 
Q 289.312451 501.65121 289.564013 501.374648 
Q 289.815576 501.098086 289.815576 500.580898 
L 289.815576 497.354335 
Q 289.815576 496.835586 289.565576 496.560586 
Q 289.317138 496.284023 288.785888 496.284023 
Q 288.253076 496.284023 288.003076 496.560586 
Q 287.754638 496.835586 287.754638 497.354335 
L 287.754638 500.580898 
Q 287.754638 501.098086 288.006201 501.374648 
Q 288.257763 501.65121 288.785888 501.65121 
z
M 294.303467 502.598086 
Q 293.306592 502.598086 292.790967 502.066836 
Q 292.276904 501.534023 292.276904 500.580898 
L 292.276904 497.354335 
Q 292.276904 496.396523 292.794092 495.866836 
Q 293.311279 495.337148 294.303467 495.337148 
Q 295.298779 495.337148 295.814404 495.865273 
Q 296.330029 496.391836 296.330029 497.354335 
L 296.330029 500.580898 
Q 296.330029 501.538711 295.811279 502.068398 
Q 295.294092 502.598086 294.303467 502.598086 
z
M 294.303467 501.65121 
Q 294.830029 501.65121 295.081592 501.374648 
Q 295.333154 501.098086 295.333154 500.580898 
L 295.333154 497.354335 
Q 295.333154 496.835586 295.083154 496.560586 
Q 294.834717 496.284023 294.303467 496.284023 
Q 293.770654 496.284023 293.520654 496.560586 
Q 293.272217 496.835586 293.272217 497.354335 
L 293.272217 500.580898 
Q 293.272217 501.098086 293.523779 501.374648 
Q 293.775342 501.65121 294.303467 501.65121 
z
M 299.821045 502.598086 
Q 298.82417 502.598086 298.308545 502.066836 
Q 297.794482 501.534023 297.794482 500.580898 
L 297.794482 497.354335 
Q 297.794482 496.396523 298.31167 495.866836 
Q 298.828857 495.337148 299.821045 495.337148 
Q 300.816357 495.337148 301.331982 495.865273 
Q 301.847607 496.391836 301.847607 497.354335 
L 301.847607 500.580898 
Q 301.847607 501.538711 301.328857 502.068398 
Q 300.81167 502.598086 299.821045 502.598086 
z
M 299.821045 501.65121 
Q 300.347607 501.65121 300.59917 501.374648 
Q 300.850732 501.098086 300.850732 500.580898 
L 300.850732 497.354335 
Q 300.850732 496.835586 300.600732 496.560586 
Q 300.352295 496.284023 299.821045 496.284023 
Q 299.288232 496.284023 299.038232 496.560586 
Q 298.789795 496.835586 298.789795 497.354335 
L 298.789795 500.580898 
Q 298.789795 501.098086 299.041357 501.374648 
Q 299.29292 501.65121 299.821045 501.65121 
z
M 305.591748 502.598086 
Q 305.079248 502.598086 304.619873 502.501211 
Q 304.16206 502.402773 303.763623 502.207461 
Q 303.365185 502.012148 303.01831 501.718398 
L 303.01831 501.718398 
L 303.638623 500.957461 
L 303.638623 500.957461 
Q 304.044873 501.309023 304.532373 501.485586 
Q 305.021435 501.660586 305.591748 501.660586 
Q 306.363623 501.660586 306.788623 501.374648 
Q 307.213623 501.08871 307.213623 500.566836 
L 307.213623 500.562148 
Q 307.213623 500.190273 307.019873 499.973086 
Q 306.827685 499.755898 306.521435 499.65121 
Q 306.216748 499.546523 305.733935 499.457461 
Q 305.71831 499.452773 305.701123 499.452773 
Q 305.685498 499.452773 305.669873 499.448085 
L 305.596435 499.434023 
Q 304.883935 499.312148 304.43706 499.159023 
Q 303.990185 499.004336 303.672998 498.596523 
Q 303.35581 498.188711 303.35581 497.437148 
L 303.35581 497.43246 
Q 303.35581 496.773086 303.651123 496.30746 
Q 303.946435 495.840273 304.51206 495.596523 
Q 305.079248 495.351211 305.87456 495.351211 
Q 306.25581 495.351211 306.62456 495.435586 
Q 306.99331 495.518398 307.351123 495.68246 
Q 307.710498 495.844961 308.057373 496.093398 
L 308.057373 496.093398 
L 307.491748 496.885585 
L 307.491748 496.885585 
Q 307.085498 496.587148 306.682373 496.438711 
Q 306.28081 496.288711 305.87456 496.288711 
Q 305.147998 496.288711 304.744873 496.579336 
Q 304.341748 496.86996 304.341748 497.402773 
L 304.341748 497.407461 
Q 304.341748 497.773086 304.54956 497.984023 
Q 304.757373 498.193398 305.066748 498.293398 
Q 305.377685 498.393398 305.929248 498.501211 
Q 305.947998 498.505898 305.965185 498.509023 
Q 305.982373 498.510585 306.002685 498.515273 
Q 306.026123 498.519961 306.05581 498.52621 
Q 306.085498 498.530898 306.108935 498.535586 
Q 306.754248 498.666835 307.185498 498.848086 
Q 307.61831 499.027773 307.908935 499.430898 
Q 308.19956 499.834023 308.19956 500.532461 
L 308.19956 500.541835 
Q 308.19956 501.191836 307.891748 501.652773 
Q 307.583935 502.113711 306.99956 502.355898 
Q 306.416748 502.598086 305.591748 502.598086 
z
M 309.616162 495.424648 
L 310.611474 495.424648 
L 310.611474 502.524648 
L 309.616162 502.524648 
L 309.616162 495.424648 
z
M 310.113037 501.577773 
L 314.175537 501.577773 
L 314.175537 502.524648 
L 310.113037 502.524648 
L 310.113037 501.577773 
z
" style="fill: #ffffff; stroke: #000000"/>
    <path d="M 276.139599 499.409023 
L 279.273974 495.424648 
L 280.498974 495.424648 
L 275.992724 500.902773 
L 276.139599 499.409023 
z
M 275.358349 495.424648 
L 276.353662 495.424648 
L 276.353662 502.524648 
L 275.358349 502.524648 
L 275.358349 495.424648 
z
M 277.320849 498.735586 
L 278.106787 498.007461 
L 280.797412 502.524648 
L 279.577099 502.524648 
L 277.320849 498.735586 
z
M 284.141552 498.999648 
L 284.136865 499.174648 
Q 284.01499 499.399648 283.768115 499.504336 
Q 283.52124 499.609023 283.185302 499.609023 
Q 282.67749 499.609023 282.291552 499.351211 
Q 281.905615 499.091836 281.693115 498.621523 
Q 281.480615 498.149648 281.480615 497.529336 
L 281.480615 497.524648 
Q 281.480615 496.835586 281.711865 496.348086 
Q 281.944677 495.859023 282.391552 495.605898 
Q 282.838427 495.351211 283.463427 495.351211 
Q 284.088427 495.351211 284.532177 495.610586 
Q 284.97749 495.86996 285.20874 496.363711 
Q 285.43999 496.855898 285.43999 497.549648 
L 285.43999 497.554336 
Q 285.43999 497.934023 285.341552 498.366836 
Q 285.244677 498.799648 285.06499 499.223086 
Q 285.035302 499.287148 285.005615 499.352773 
Q 284.97749 499.418398 284.943115 499.482461 
L 283.429052 502.524648 
L 282.354052 502.524648 
L 284.141552 498.999648 
z
M 283.463427 498.701211 
Q 283.932177 498.701211 284.188427 498.384023 
Q 284.444677 498.066836 284.444677 497.490273 
L 284.444677 497.485586 
Q 284.444677 496.924648 284.188427 496.616836 
Q 283.932177 496.309023 283.463427 496.309023 
Q 282.98999 496.309023 282.73374 496.616836 
Q 282.47749 496.924648 282.47749 497.490273 
L 282.47749 497.49496 
Q 282.47749 498.071523 282.73374 498.387148 
Q 282.98999 498.701211 283.463427 498.701211 
z
M 288.785888 502.598086 
Q 287.789013 502.598086 287.273388 502.066836 
Q 286.759326 501.534023 286.759326 500.580898 
L 286.759326 497.354335 
Q 286.759326 496.396523 287.276513 495.866836 
Q 287.793701 495.337148 288.785888 495.337148 
Q 289.781201 495.337148 290.296826 495.865273 
Q 290.812451 496.391836 290.812451 497.354335 
L 290.812451 500.580898 
Q 290.812451 501.538711 290.293701 502.068398 
Q 289.776513 502.598086 288.785888 502.598086 
z
M 288.785888 501.65121 
Q 289.312451 501.65121 289.564013 501.374648 
Q 289.815576 501.098086 289.815576 500.580898 
L 289.815576 497.354335 
Q 289.815576 496.835586 289.565576 496.560586 
Q 289.317138 496.284023 288.785888 496.284023 
Q 288.253076 496.284023 288.003076 496.560586 
Q 287.754638 496.835586 287.754638 497.354335 
L 287.754638 500.580898 
Q 287.754638 501.098086 288.006201 501.374648 
Q 288.257763 501.65121 288.785888 501.65121 
z
M 294.303467 502.598086 
Q 293.306592 502.598086 292.790967 502.066836 
Q 292.276904 501.534023 292.276904 500.580898 
L 292.276904 497.354335 
Q 292.276904 496.396523 292.794092 495.866836 
Q 293.311279 495.337148 294.303467 495.337148 
Q 295.298779 495.337148 295.814404 495.865273 
Q 296.330029 496.391836 296.330029 497.354335 
L 296.330029 500.580898 
Q 296.330029 501.538711 295.811279 502.068398 
Q 295.294092 502.598086 294.303467 502.598086 
z
M 294.303467 501.65121 
Q 294.830029 501.65121 295.081592 501.374648 
Q 295.333154 501.098086 295.333154 500.580898 
L 295.333154 497.354335 
Q 295.333154 496.835586 295.083154 496.560586 
Q 294.834717 496.284023 294.303467 496.284023 
Q 293.770654 496.284023 293.520654 496.560586 
Q 293.272217 496.835586 293.272217 497.354335 
L 293.272217 500.580898 
Q 293.272217 501.098086 293.523779 501.374648 
Q 293.775342 501.65121 294.303467 501.65121 
z
M 299.821045 502.598086 
Q 298.82417 502.598086 298.308545 502.066836 
Q 297.794482 501.534023 297.794482 500.580898 
L 297.794482 497.354335 
Q 297.794482 496.396523 298.31167 495.866836 
Q 298.828857 495.337148 299.821045 495.337148 
Q 300.816357 495.337148 301.331982 495.865273 
Q 301.847607 496.391836 301.847607 497.354335 
L 301.847607 500.580898 
Q 301.847607 501.538711 301.328857 502.068398 
Q 300.81167 502.598086 299.821045 502.598086 
z
M 299.821045 501.65121 
Q 300.347607 501.65121 300.59917 501.374648 
Q 300.850732 501.098086 300.850732 500.580898 
L 300.850732 497.354335 
Q 300.850732 496.835586 300.600732 496.560586 
Q 300.352295 496.284023 299.821045 496.284023 
Q 299.288232 496.284023 299.038232 496.560586 
Q 298.789795 496.835586 298.789795 497.354335 
L 298.789795 500.580898 
Q 298.789795 501.098086 299.041357 501.374648 
Q 299.29292 501.65121 299.821045 501.65121 
z
M 305.591748 502.598086 
Q 305.079248 502.598086 304.619873 502.501211 
Q 304.16206 502.402773 303.763623 502.207461 
Q 303.365185 502.012148 303.01831 501.718398 
L 303.01831 501.718398 
L 303.638623 500.957461 
L 303.638623 500.957461 
Q 304.044873 501.309023 304.532373 501.485586 
Q 305.021435 501.660586 305.591748 501.660586 
Q 306.363623 501.660586 306.788623 501.374648 
Q 307.213623 501.08871 307.213623 500.566836 
L 307.213623 500.562148 
Q 307.213623 500.190273 307.019873 499.973086 
Q 306.827685 499.755898 306.521435 499.65121 
Q 306.216748 499.546523 305.733935 499.457461 
Q 305.71831 499.452773 305.701123 499.452773 
Q 305.685498 499.452773 305.669873 499.448085 
L 305.596435 499.434023 
Q 304.883935 499.312148 304.43706 499.159023 
Q 303.990185 499.004336 303.672998 498.596523 
Q 303.35581 498.188711 303.35581 497.437148 
L 303.35581 497.43246 
Q 303.35581 496.773086 303.651123 496.30746 
Q 303.946435 495.840273 304.51206 495.596523 
Q 305.079248 495.351211 305.87456 495.351211 
Q 306.25581 495.351211 306.62456 495.435586 
Q 306.99331 495.518398 307.351123 495.68246 
Q 307.710498 495.844961 308.057373 496.093398 
L 308.057373 496.093398 
L 307.491748 496.885585 
L 307.491748 496.885585 
Q 307.085498 496.587148 306.682373 496.438711 
Q 306.28081 496.288711 305.87456 496.288711 
Q 305.147998 496.288711 304.744873 496.579336 
Q 304.341748 496.86996 304.341748 497.402773 
L 304.341748 497.407461 
Q 304.341748 497.773086 304.54956 497.984023 
Q 304.757373 498.193398 305.066748 498.293398 
Q 305.377685 498.393398 305.929248 498.501211 
Q 305.947998 498.505898 305.965185 498.509023 
Q 305.982373 498.510585 306.002685 498.515273 
Q 306.026123 498.519961 306.05581 498.52621 
Q 306.085498 498.530898 306.108935 498.535586 
Q 306.754248 498.666835 307.185498 498.848086 
Q 307.61831 499.027773 307.908935 499.430898 
Q 308.19956 499.834023 308.19956 500.532461 
L 308.19956 500.541835 
Q 308.19956 501.191836 307.891748 501.652773 
Q 307.583935 502.113711 306.99956 502.355898 
Q 306.416748 502.598086 305.591748 502.598086 
z
M 309.616162 495.424648 
L 310.611474 495.424648 
L 310.611474 502.524648 
L 309.616162 502.524648 
L 309.616162 495.424648 
z
M 310.113037 501.577773 
L 314.175537 501.577773 
L 314.175537 502.524648 
L 310.113037 502.524648 
L 310.113037 501.577773 
z
" style="fill: #ffffff"/>
   </g>
  </g>
 </g>
 <defs>
  <clipPath id="pa017f7d4e9">
   <rect x="144" y="77.76" width="892.8" height="498.96"/>
  </clipPath>
 </defs>
</svg>
