<?xml version="1.0" encoding="utf-8" standalone="no"?>
<!DOCTYPE svg PUBLIC "-//W3C//DTD SVG 1.1//EN"
  "http://www.w3.org/Graphics/SVG/1.1/DTD/svg11.dtd">
<svg xmlns:xlink="http://www.w3.org/1999/xlink" width="1152pt" height="648pt" viewBox="0 0 1152 648" xmlns="http://www.w3.org/2000/svg" version="1.1">
 <metadata>
  <rdf:RDF xmlns:dc="http://purl.org/dc/elements/1.1/" xmlns:cc="http://creativecommons.org/ns#" xmlns:rdf="http://www.w3.org/1999/02/22-rdf-syntax-ns#">
   <cc:Work>
    <dc:type rdf:resource="http://purl.org/dc/dcmitype/StillImage"/>
    <dc:date>2025-09-19T13:20:11.185111</dc:date>
    <dc:format>image/svg+xml</dc:format>
    <dc:creator>
     <cc:Agent>
      <dc:title>Matplotlib v3.10.3, https://matplotlib.org/</dc:title>
     </cc:Agent>
    </dc:creator>
   </cc:Work>
  </rdf:RDF>
 </metadata>
 <defs>
  <style type="text/css">*{stroke-linejoin: round; stroke-linecap: butt}</style>
 </defs>
 <g id="figure_1">
  <g id="patch_1">
   <path d="M 0 648 
L 1152 648 
L 1152 0 
L 0 0 
L 0 648 
z
" style="fill: none"/>
  </g>
  <g id="axes_1">
   <g id="PathCollection_1">
    <defs>
     <path id="m36b0616bb8" d="M 0 2.738613 
C 0.726289 2.738613 1.422928 2.450055 1.936492 1.936492 
C 2.450055 1.422928 2.738613 0.726289 2.738613 0 
C 2.738613 -0.726289 2.450055 -1.422928 1.936492 -1.936492 
C 1.422928 -2.450055 0.726289 -2.738613 0 -2.738613 
C -0.726289 -2.738613 -1.422928 -2.450055 -1.936492 -1.936492 
C -2.450055 -1.422928 -2.738613 -0.726289 -2.738613 0 
C -2.738613 0.726289 -2.450055 1.422928 -1.936492 1.936492 
C -1.422928 2.450055 -0.726289 2.738613 0 2.738613 
z
" style="stroke: #ff0000"/>
    </defs>
    <g clip-path="url(#p01f4271360)">
     <use xlink:href="#m36b0616bb8" x="566.862545" y="418.083984" style="fill: #ff0000; stroke: #ff0000"/>
     <use xlink:href="#m36b0616bb8" x="313.632" y="462.923856" style="fill: #ff0000; stroke: #ff0000"/>
    </g>
   </g>
   <g id="text_1">
    <path d="M 574.415963 416.614927 
L 577.550338 412.630552 
L 578.775338 412.630552 
L 574.269088 418.108677 
L 574.415963 416.614927 
z
M 573.634713 412.630552 
L 574.630025 412.630552 
L 574.630025 419.730552 
L 573.634713 419.730552 
L 573.634713 412.630552 
z
M 575.597213 415.941489 
L 576.38315 415.213365 
L 579.073775 419.730552 
L 577.853463 419.730552 
L 575.597213 415.941489 
z
M 582.417916 416.205552 
L 582.413229 416.380552 
Q 582.291354 416.605552 582.044479 416.71024 
Q 581.797604 416.814927 581.461666 416.814927 
Q 580.953854 416.814927 580.567916 416.557115 
Q 580.181979 416.297739 579.969479 415.827427 
Q 579.756979 415.355552 579.756979 414.735239 
L 579.756979 414.730552 
Q 579.756979 414.04149 579.988229 413.55399 
Q 580.221041 413.064927 580.667916 412.811802 
Q 581.114791 412.557115 581.739791 412.557115 
Q 582.364791 412.557115 582.808541 412.816489 
Q 583.253854 413.075864 583.485104 413.569615 
Q 583.716354 414.061802 583.716354 414.755552 
L 583.716354 414.76024 
Q 583.716354 415.139927 583.617916 415.57274 
Q 583.521041 416.005552 583.341354 416.42899 
Q 583.311666 416.493052 583.281979 416.558677 
Q 583.253854 416.624302 583.219479 416.688364 
L 581.705416 419.730552 
L 580.630416 419.730552 
L 582.417916 416.205552 
z
M 581.739791 415.907114 
Q 582.208541 415.907114 582.464791 415.589927 
Q 582.721041 415.27274 582.721041 414.696177 
L 582.721041 414.691489 
Q 582.721041 414.130552 582.464791 413.82274 
Q 582.208541 413.514927 581.739791 413.514927 
Q 581.266354 413.514927 581.010104 413.82274 
Q 580.753854 414.130552 580.753854 414.696177 
L 580.753854 414.700864 
Q 580.753854 415.277427 581.010104 415.593052 
Q 581.266354 415.907114 581.739791 415.907114 
z
M 587.062252 419.80399 
Q 586.065377 419.80399 585.549752 419.27274 
Q 585.03569 418.739927 585.03569 417.786802 
L 585.03569 414.560239 
Q 585.03569 413.602427 585.552877 413.07274 
Q 586.070065 412.543052 587.062252 412.543052 
Q 588.057565 412.543052 588.57319 413.071177 
Q 589.088815 413.597739 589.088815 414.560239 
L 589.088815 417.786802 
Q 589.088815 418.744615 588.570065 419.274302 
Q 588.052877 419.80399 587.062252 419.80399 
z
M 587.062252 418.857114 
Q 587.588815 418.857114 587.840377 418.580552 
Q 588.09194 418.30399 588.09194 417.786802 
L 588.09194 414.560239 
Q 588.09194 414.04149 587.84194 413.766489 
Q 587.593502 413.489927 587.062252 413.489927 
Q 586.52944 413.489927 586.27944 413.766489 
Q 586.031002 414.04149 586.031002 414.560239 
L 586.031002 417.786802 
Q 586.031002 418.30399 586.282565 418.580552 
Q 586.534127 418.857114 587.062252 418.857114 
z
M 592.26733 419.730552 
L 591.270455 419.730552 
L 591.270455 413.714927 
L 590.259518 414.33524 
L 590.259518 413.30399 
L 591.270455 412.630552 
L 592.26733 412.630552 
L 592.26733 419.730552 
z
M 595.905025 419.80399 
Q 594.90815 419.80399 594.392525 419.27274 
Q 593.878463 418.739927 593.878463 417.786802 
L 593.878463 414.560239 
Q 593.878463 413.602427 594.39565 413.07274 
Q 594.912838 412.543052 595.905025 412.543052 
Q 596.900338 412.543052 597.415963 413.071177 
Q 597.931588 413.597739 597.931588 414.560239 
L 597.931588 417.786802 
Q 597.931588 418.744615 597.412838 419.274302 
Q 596.89565 419.80399 595.905025 419.80399 
z
M 595.905025 418.857114 
Q 596.431588 418.857114 596.68315 418.580552 
Q 596.934713 418.30399 596.934713 417.786802 
L 596.934713 414.560239 
Q 596.934713 414.04149 596.684713 413.766489 
Q 596.436275 413.489927 595.905025 413.489927 
Q 595.372213 413.489927 595.122213 413.766489 
Q 594.873775 414.04149 594.873775 414.560239 
L 594.873775 417.786802 
Q 594.873775 418.30399 595.125338 418.580552 
Q 595.3769 418.857114 595.905025 418.857114 
z
" style="fill: #ffffff; stroke: #000000"/>
    <path d="M 574.415963 416.614927 
L 577.550338 412.630552 
L 578.775338 412.630552 
L 574.269088 418.108677 
L 574.415963 416.614927 
z
M 573.634713 412.630552 
L 574.630025 412.630552 
L 574.630025 419.730552 
L 573.634713 419.730552 
L 573.634713 412.630552 
z
M 575.597213 415.941489 
L 576.38315 415.213365 
L 579.073775 419.730552 
L 577.853463 419.730552 
L 575.597213 415.941489 
z
M 582.417916 416.205552 
L 582.413229 416.380552 
Q 582.291354 416.605552 582.044479 416.71024 
Q 581.797604 416.814927 581.461666 416.814927 
Q 580.953854 416.814927 580.567916 416.557115 
Q 580.181979 416.297739 579.969479 415.827427 
Q 579.756979 415.355552 579.756979 414.735239 
L 579.756979 414.730552 
Q 579.756979 414.04149 579.988229 413.55399 
Q 580.221041 413.064927 580.667916 412.811802 
Q 581.114791 412.557115 581.739791 412.557115 
Q 582.364791 412.557115 582.808541 412.816489 
Q 583.253854 413.075864 583.485104 413.569615 
Q 583.716354 414.061802 583.716354 414.755552 
L 583.716354 414.76024 
Q 583.716354 415.139927 583.617916 415.57274 
Q 583.521041 416.005552 583.341354 416.42899 
Q 583.311666 416.493052 583.281979 416.558677 
Q 583.253854 416.624302 583.219479 416.688364 
L 581.705416 419.730552 
L 580.630416 419.730552 
L 582.417916 416.205552 
z
M 581.739791 415.907114 
Q 582.208541 415.907114 582.464791 415.589927 
Q 582.721041 415.27274 582.721041 414.696177 
L 582.721041 414.691489 
Q 582.721041 414.130552 582.464791 413.82274 
Q 582.208541 413.514927 581.739791 413.514927 
Q 581.266354 413.514927 581.010104 413.82274 
Q 580.753854 414.130552 580.753854 414.696177 
L 580.753854 414.700864 
Q 580.753854 415.277427 581.010104 415.593052 
Q 581.266354 415.907114 581.739791 415.907114 
z
M 587.062252 419.80399 
Q 586.065377 419.80399 585.549752 419.27274 
Q 585.03569 418.739927 585.03569 417.786802 
L 585.03569 414.560239 
Q 585.03569 413.602427 585.552877 413.07274 
Q 586.070065 412.543052 587.062252 412.543052 
Q 588.057565 412.543052 588.57319 413.071177 
Q 589.088815 413.597739 589.088815 414.560239 
L 589.088815 417.786802 
Q 589.088815 418.744615 588.570065 419.274302 
Q 588.052877 419.80399 587.062252 419.80399 
z
M 587.062252 418.857114 
Q 587.588815 418.857114 587.840377 418.580552 
Q 588.09194 418.30399 588.09194 417.786802 
L 588.09194 414.560239 
Q 588.09194 414.04149 587.84194 413.766489 
Q 587.593502 413.489927 587.062252 413.489927 
Q 586.52944 413.489927 586.27944 413.766489 
Q 586.031002 414.04149 586.031002 414.560239 
L 586.031002 417.786802 
Q 586.031002 418.30399 586.282565 418.580552 
Q 586.534127 418.857114 587.062252 418.857114 
z
M 592.26733 419.730552 
L 591.270455 419.730552 
L 591.270455 413.714927 
L 590.259518 414.33524 
L 590.259518 413.30399 
L 591.270455 412.630552 
L 592.26733 412.630552 
L 592.26733 419.730552 
z
M 595.905025 419.80399 
Q 594.90815 419.80399 594.392525 419.27274 
Q 593.878463 418.739927 593.878463 417.786802 
L 593.878463 414.560239 
Q 593.878463 413.602427 594.39565 413.07274 
Q 594.912838 412.543052 595.905025 412.543052 
Q 596.900338 412.543052 597.415963 413.071177 
Q 597.931588 413.597739 597.931588 414.560239 
L 597.931588 417.786802 
Q 597.931588 418.744615 597.412838 419.274302 
Q 596.89565 419.80399 595.905025 419.80399 
z
M 595.905025 418.857114 
Q 596.431588 418.857114 596.68315 418.580552 
Q 596.934713 418.30399 596.934713 417.786802 
L 596.934713 414.560239 
Q 596.934713 414.04149 596.684713 413.766489 
Q 596.436275 413.489927 595.905025 413.489927 
Q 595.372213 413.489927 595.122213 413.766489 
Q 594.873775 414.04149 594.873775 414.560239 
L 594.873775 417.786802 
Q 594.873775 418.30399 595.125338 418.580552 
Q 595.3769 418.857114 595.905025 418.857114 
z
" style="fill: #ffffff"/>
   </g>
   <g id="text_2">
    <path d="M 321.185417 461.454799 
L 324.319793 457.470424 
L 325.544792 457.470424 
L 321.038543 462.948549 
L 321.185417 461.454799 
z
M 320.404167 457.470424 
L 321.39948 457.470424 
L 321.39948 464.570424 
L 320.404167 464.570424 
L 320.404167 457.470424 
z
M 322.366668 460.781362 
L 323.152605 460.053237 
L 325.84323 464.570424 
L 324.622917 464.570424 
L 322.366668 460.781362 
z
M 329.187371 461.045424 
L 329.182683 461.220424 
Q 329.060808 461.445424 328.813933 461.550112 
Q 328.567058 461.654799 328.231121 461.654799 
Q 327.723308 461.654799 327.337371 461.396987 
Q 326.951433 461.137611 326.738933 460.667299 
Q 326.526433 460.195424 326.526433 459.575111 
L 326.526433 459.570424 
Q 326.526433 458.881362 326.757683 458.393862 
Q 326.990496 457.904799 327.437371 457.651674 
Q 327.884246 457.396987 328.509246 457.396987 
Q 329.134246 457.396987 329.577996 457.656362 
Q 330.023308 457.915736 330.254558 458.409487 
Q 330.485808 458.901674 330.485808 459.595424 
L 330.485808 459.600112 
Q 330.485808 459.979799 330.387371 460.412612 
Q 330.290496 460.845424 330.110808 461.268862 
Q 330.081121 461.332924 330.051433 461.398549 
Q 330.023308 461.464174 329.988933 461.528236 
L 328.474871 464.570424 
L 327.399871 464.570424 
L 329.187371 461.045424 
z
M 328.509246 460.746986 
Q 328.977996 460.746986 329.234246 460.429799 
Q 329.490496 460.112612 329.490496 459.536049 
L 329.490496 459.531362 
Q 329.490496 458.970424 329.234246 458.662612 
Q 328.977996 458.354799 328.509246 458.354799 
Q 328.035808 458.354799 327.779558 458.662612 
Q 327.523308 458.970424 327.523308 459.536049 
L 327.523308 459.540736 
Q 327.523308 460.117299 327.779558 460.432924 
Q 328.035808 460.746986 328.509246 460.746986 
z
M 333.831707 464.643862 
Q 332.834832 464.643862 332.319207 464.112612 
Q 331.805144 463.579799 331.805144 462.626674 
L 331.805144 459.400111 
Q 331.805144 458.442299 332.322332 457.912612 
Q 332.839519 457.382924 333.831707 457.382924 
Q 334.827019 457.382924 335.342644 457.911049 
Q 335.858269 458.437612 335.858269 459.400111 
L 335.858269 462.626674 
Q 335.858269 463.584487 335.339519 464.114174 
Q 334.822332 464.643862 333.831707 464.643862 
z
M 333.831707 463.696986 
Q 334.358269 463.696986 334.609832 463.420424 
Q 334.861394 463.143862 334.861394 462.626674 
L 334.861394 459.400111 
Q 334.861394 458.881362 334.611394 458.606361 
Q 334.362957 458.329799 333.831707 458.329799 
Q 333.298894 458.329799 333.048894 458.606361 
Q 332.800457 458.881362 332.800457 459.400111 
L 332.800457 462.626674 
Q 332.800457 463.143862 333.052019 463.420424 
Q 333.303582 463.696986 333.831707 463.696986 
z
M 339.036785 464.570424 
L 338.03991 464.570424 
L 338.03991 458.554799 
L 337.028972 459.175112 
L 337.028972 458.143862 
L 338.03991 457.470424 
L 339.036785 457.470424 
L 339.036785 464.570424 
z
M 342.67448 464.643862 
Q 341.677605 464.643862 341.16198 464.112612 
Q 340.647918 463.579799 340.647918 462.626674 
L 340.647918 459.400111 
Q 340.647918 458.442299 341.165105 457.912612 
Q 341.682292 457.382924 342.67448 457.382924 
Q 343.669792 457.382924 344.185417 457.911049 
Q 344.701042 458.437612 344.701042 459.400111 
L 344.701042 462.626674 
Q 344.701042 463.584487 344.182292 464.114174 
Q 343.665105 464.643862 342.67448 464.643862 
z
M 342.67448 463.696986 
Q 343.201042 463.696986 343.452605 463.420424 
Q 343.704167 463.143862 343.704167 462.626674 
L 343.704167 459.400111 
Q 343.704167 458.881362 343.454167 458.606361 
Q 343.20573 458.329799 342.67448 458.329799 
Q 342.141667 458.329799 341.891667 458.606361 
Q 341.64323 458.881362 341.64323 459.400111 
L 341.64323 462.626674 
Q 341.64323 463.143862 341.894792 463.420424 
Q 342.146355 463.696986 342.67448 463.696986 
z
" style="fill: #ffffff; stroke: #000000"/>
    <path d="M 321.185417 461.454799 
L 324.319793 457.470424 
L 325.544792 457.470424 
L 321.038543 462.948549 
L 321.185417 461.454799 
z
M 320.404167 457.470424 
L 321.39948 457.470424 
L 321.39948 464.570424 
L 320.404167 464.570424 
L 320.404167 457.470424 
z
M 322.366668 460.781362 
L 323.152605 460.053237 
L 325.84323 464.570424 
L 324.622917 464.570424 
L 322.366668 460.781362 
z
M 329.187371 461.045424 
L 329.182683 461.220424 
Q 329.060808 461.445424 328.813933 461.550112 
Q 328.567058 461.654799 328.231121 461.654799 
Q 327.723308 461.654799 327.337371 461.396987 
Q 326.951433 461.137611 326.738933 460.667299 
Q 326.526433 460.195424 326.526433 459.575111 
L 326.526433 459.570424 
Q 326.526433 458.881362 326.757683 458.393862 
Q 326.990496 457.904799 327.437371 457.651674 
Q 327.884246 457.396987 328.509246 457.396987 
Q 329.134246 457.396987 329.577996 457.656362 
Q 330.023308 457.915736 330.254558 458.409487 
Q 330.485808 458.901674 330.485808 459.595424 
L 330.485808 459.600112 
Q 330.485808 459.979799 330.387371 460.412612 
Q 330.290496 460.845424 330.110808 461.268862 
Q 330.081121 461.332924 330.051433 461.398549 
Q 330.023308 461.464174 329.988933 461.528236 
L 328.474871 464.570424 
L 327.399871 464.570424 
L 329.187371 461.045424 
z
M 328.509246 460.746986 
Q 328.977996 460.746986 329.234246 460.429799 
Q 329.490496 460.112612 329.490496 459.536049 
L 329.490496 459.531362 
Q 329.490496 458.970424 329.234246 458.662612 
Q 328.977996 458.354799 328.509246 458.354799 
Q 328.035808 458.354799 327.779558 458.662612 
Q 327.523308 458.970424 327.523308 459.536049 
L 327.523308 459.540736 
Q 327.523308 460.117299 327.779558 460.432924 
Q 328.035808 460.746986 328.509246 460.746986 
z
M 333.831707 464.643862 
Q 332.834832 464.643862 332.319207 464.112612 
Q 331.805144 463.579799 331.805144 462.626674 
L 331.805144 459.400111 
Q 331.805144 458.442299 332.322332 457.912612 
Q 332.839519 457.382924 333.831707 457.382924 
Q 334.827019 457.382924 335.342644 457.911049 
Q 335.858269 458.437612 335.858269 459.400111 
L 335.858269 462.626674 
Q 335.858269 463.584487 335.339519 464.114174 
Q 334.822332 464.643862 333.831707 464.643862 
z
M 333.831707 463.696986 
Q 334.358269 463.696986 334.609832 463.420424 
Q 334.861394 463.143862 334.861394 462.626674 
L 334.861394 459.400111 
Q 334.861394 458.881362 334.611394 458.606361 
Q 334.362957 458.329799 333.831707 458.329799 
Q 333.298894 458.329799 333.048894 458.606361 
Q 332.800457 458.881362 332.800457 459.400111 
L 332.800457 462.626674 
Q 332.800457 463.143862 333.052019 463.420424 
Q 333.303582 463.696986 333.831707 463.696986 
z
M 339.036785 464.570424 
L 338.03991 464.570424 
L 338.03991 458.554799 
L 337.028972 459.175112 
L 337.028972 458.143862 
L 338.03991 457.470424 
L 339.036785 457.470424 
L 339.036785 464.570424 
z
M 342.67448 464.643862 
Q 341.677605 464.643862 341.16198 464.112612 
Q 340.647918 463.579799 340.647918 462.626674 
L 340.647918 459.400111 
Q 340.647918 458.442299 341.165105 457.912612 
Q 341.682292 457.382924 342.67448 457.382924 
Q 343.669792 457.382924 344.185417 457.911049 
Q 344.701042 458.437612 344.701042 459.400111 
L 344.701042 462.626674 
Q 344.701042 463.584487 344.182292 464.114174 
Q 343.665105 464.643862 342.67448 464.643862 
z
M 342.67448 463.696986 
Q 343.201042 463.696986 343.452605 463.420424 
Q 343.704167 463.143862 343.704167 462.626674 
L 343.704167 459.400111 
Q 343.704167 458.881362 343.454167 458.606361 
Q 343.20573 458.329799 342.67448 458.329799 
Q 342.141667 458.329799 341.891667 458.606361 
Q 341.64323 458.881362 341.64323 459.400111 
L 341.64323 462.626674 
Q 341.64323 463.143862 341.894792 463.420424 
Q 342.146355 463.696986 342.67448 463.696986 
z
" style="fill: #ffffff"/>
   </g>
  </g>
 </g>
 <defs>
  <clipPath id="p01f4271360">
   <rect x="144" y="77.76" width="892.8" height="498.96"/>
  </clipPath>
 </defs>
</svg>
