<?xml version="1.0" encoding="utf-8" standalone="no"?>
<!DOCTYPE svg PUBLIC "-//W3C//DTD SVG 1.1//EN"
  "http://www.w3.org/Graphics/SVG/1.1/DTD/svg11.dtd">
<svg xmlns:xlink="http://www.w3.org/1999/xlink" width="1152pt" height="648pt" viewBox="0 0 1152 648" xmlns="http://www.w3.org/2000/svg" version="1.1">
 <metadata>
  <rdf:RDF xmlns:dc="http://purl.org/dc/elements/1.1/" xmlns:cc="http://creativecommons.org/ns#" xmlns:rdf="http://www.w3.org/1999/02/22-rdf-syntax-ns#">
   <cc:Work>
    <dc:type rdf:resource="http://purl.org/dc/dcmitype/StillImage"/>
    <dc:date>2025-05-29T13:58:04.113618</dc:date>
    <dc:format>image/svg+xml</dc:format>
    <dc:creator>
     <cc:Agent>
      <dc:title>Matplotlib v3.10.0, https://matplotlib.org/</dc:title>
     </cc:Agent>
    </dc:creator>
   </cc:Work>
  </rdf:RDF>
 </metadata>
 <defs>
  <style type="text/css">*{stroke-linejoin: round; stroke-linecap: butt}</style>
 </defs>
 <g id="figure_1">
  <g id="patch_1">
   <path d="M 0 648 
L 1152 648 
L 1152 0 
L 0 0 
L 0 648 
z
" style="fill: none"/>
  </g>
  <g id="axes_1">
   <g id="line2d_1">
    <path d="M 195.133091 519.900862 
L 198.195174 513.304667 
L 201.257256 506.884896 
L 204.319339 500.636836 
L 207.381421 494.555898 
L 210.443504 488.637617 
L 213.505587 482.877646 
L 216.567669 477.271756 
L 219.629752 471.815827 
L 222.691835 466.505852 
L 225.753917 461.33793 
L 228.816 456.308265 
L 231.878083 451.413159 
L 234.940165 446.649018 
L 238.002248 442.012339 
L 241.064331 437.499714 
L 244.126413 433.107828 
L 247.188496 428.833453 
L 250.250579 424.673445 
L 253.312661 420.624749 
L 256.374744 416.684386 
L 259.436826 412.84946 
L 262.498909 409.117152 
L 265.560992 405.484718 
L 268.623074 401.949486 
L 271.685157 398.508857 
L 274.74724 395.160301 
L 277.809322 391.901356 
L 280.871405 388.729624 
L 283.933488 385.642773 
L 286.99557 382.638532 
L 290.057653 379.714693 
L 293.119736 376.869103 
L 296.181818 374.09967 
L 299.243901 371.404357 
L 302.305983 368.781181 
L 305.368066 366.228212 
L 308.430149 363.743572 
L 311.492231 361.325433 
L 314.554314 358.972015 
L 317.616397 356.681587 
L 320.678479 354.452465 
L 323.740562 352.283006 
L 326.802645 350.171616 
L 329.864727 348.11674 
L 332.92681 346.116866 
L 335.988893 344.170523 
L 339.050975 342.276278 
L 342.113058 340.432737 
L 345.17514 338.638543 
L 348.237223 336.892376 
L 351.299306 335.192951 
L 354.361388 333.539016 
L 357.423471 331.929354 
L 360.485554 330.362781 
L 363.547636 328.838144 
L 366.609719 327.354319 
L 369.671802 325.910216 
L 372.733884 324.50477 
L 375.795967 323.136948 
L 378.85805 321.805741 
L 381.920132 320.510171 
L 384.982215 319.249284 
L 388.044298 318.022151 
L 391.10638 316.827868 
L 394.168463 315.665558 
L 397.230545 314.534363 
L 400.292628 313.433451 
L 403.354711 312.362012 
L 406.416793 311.319256 
L 409.478876 310.304416 
L 412.540959 309.316745 
L 415.603041 308.355515 
L 418.665124 307.420019 
L 421.727207 306.509567 
L 424.789289 305.62349 
L 427.851372 304.761135 
L 430.913455 303.921867 
L 433.975537 303.105068 
L 437.03762 302.310137 
L 440.099702 301.536487 
L 443.161785 300.783551 
L 446.223868 300.050772 
L 449.28595 299.337611 
L 452.348033 298.643544 
L 455.410116 297.968059 
L 458.472198 297.310659 
L 461.534281 296.670859 
L 464.596364 296.048189 
L 467.658446 295.442189 
L 470.720529 294.852414 
L 473.782612 294.278429 
L 476.844694 293.719811 
L 479.906777 293.17615 
L 482.96886 292.647044 
L 486.030942 292.132105 
L 489.093025 291.630952 
L 492.155107 291.143217 
L 495.21719 290.66854 
L 498.279273 290.206572 
" clip-path="url(#pfab03fe81d)" style="fill: none; stroke: #f2a179; stroke-width: 3; stroke-linecap: round"/>
   </g>
   <g id="text_1">
    <path d="M 505.724878 290.906265 
L 507.331128 290.906265 
Q 508.117065 290.906265 508.548315 290.498453 
Q 508.981128 290.09064 508.981128 289.348453 
L 508.981128 287.257828 
Q 508.981128 286.51564 508.548315 286.107828 
Q 508.117065 285.700015 507.331128 285.700015 
L 505.724878 285.700015 
L 505.724878 284.75314 
L 507.30144 284.75314 
Q 508.156128 284.75314 508.760815 285.051578 
Q 509.367065 285.348453 509.684253 285.920328 
Q 510.00144 286.492203 510.00144 287.29689 
L 510.00144 289.30939 
Q 510.00144 290.114078 509.684253 290.685953 
Q 509.367065 291.257828 508.759253 291.556265 
Q 508.15144 291.85314 507.296753 291.85314 
L 505.724878 291.85314 
L 505.724878 290.906265 
z
M 505.05144 284.75314 
L 506.046753 284.75314 
L 506.046753 291.85314 
L 505.05144 291.85314 
L 505.05144 284.75314 
z
M 513.546753 291.926578 
Q 512.903003 291.926578 512.41394 291.682828 
Q 511.92644 291.437515 511.659253 290.99064 
Q 511.393628 290.543765 511.393628 289.95314 
L 511.393628 289.835953 
Q 511.393628 289.304703 511.659253 288.835953 
Q 511.92644 288.367203 512.37019 288.12814 
Q 511.993628 287.92189 511.767065 287.53439 
Q 511.540503 287.145328 511.540503 286.71564 
L 511.540503 286.545328 
Q 511.540503 285.989078 511.78894 285.567203 
Q 512.037378 285.143765 512.492065 284.912515 
Q 512.946753 284.679703 513.546753 284.679703 
Q 514.146753 284.679703 514.60144 284.912515 
Q 515.056128 285.143765 515.304565 285.567203 
Q 515.553003 285.989078 515.553003 286.545328 
L 515.553003 286.71564 
Q 515.553003 287.156265 515.321753 287.542203 
Q 515.090503 287.926578 514.709253 288.12814 
Q 515.15769 288.37189 515.428003 288.839078 
Q 515.699878 289.304703 515.699878 289.835953 
L 515.699878 289.95314 
Q 515.699878 290.543765 515.434253 290.99064 
Q 515.168628 291.437515 514.679565 291.682828 
Q 514.192065 291.926578 513.546753 291.926578 
z
M 513.546753 290.968765 
Q 513.893628 290.968765 514.156128 290.832828 
Q 514.42019 290.695328 514.56394 290.450015 
Q 514.709253 290.20314 514.709253 289.879703 
L 514.709253 289.812515 
Q 514.709253 289.48439 514.56394 289.239078 
Q 514.42019 288.992203 514.156128 288.856265 
Q 513.893628 288.718765 513.546753 288.718765 
Q 513.199878 288.718765 512.935815 288.856265 
Q 512.673315 288.992203 512.528003 289.24064 
Q 512.384253 289.489078 512.384253 289.817203 
L 512.384253 289.89064 
Q 512.384253 290.212515 512.528003 290.456265 
Q 512.673315 290.700015 512.935815 290.83439 
Q 513.199878 290.968765 513.546753 290.968765 
z
M 513.546753 287.760953 
Q 513.84519 287.760953 514.073315 287.632828 
Q 514.303003 287.50314 514.429565 287.264078 
Q 514.55769 287.023453 514.55769 286.710953 
L 514.55769 286.643765 
Q 514.55769 286.345328 514.429565 286.11564 
Q 514.303003 285.885953 514.073315 285.762515 
Q 513.84519 285.637515 513.546753 285.637515 
Q 513.248315 285.637515 513.018628 285.762515 
Q 512.790503 285.885953 512.662378 286.11564 
Q 512.535815 286.345328 512.535815 286.648453 
L 512.535815 286.72189 
Q 512.535815 287.02814 512.662378 287.26564 
Q 512.790503 287.50314 513.018628 287.632828 
Q 513.248315 287.760953 513.546753 287.760953 
z
M 516.993628 289.900015 
L 519.37644 284.757828 
L 520.403003 284.757828 
L 518.078003 289.84064 
L 521.559253 289.84064 
L 521.559253 290.764078 
L 516.993628 290.764078 
L 516.993628 289.900015 
z
M 520.056128 287.67814 
L 521.028003 287.67814 
L 521.028003 291.857828 
L 520.056128 291.857828 
L 520.056128 287.67814 
z
M 524.807104 291.926578 
Q 523.810229 291.926578 523.294604 291.395328 
Q 522.780542 290.862515 522.780542 289.90939 
L 522.780542 286.682828 
Q 522.780542 285.725015 523.297729 285.195328 
Q 523.814917 284.66564 524.807104 284.66564 
Q 525.802417 284.66564 526.318042 285.193765 
Q 526.833667 285.720328 526.833667 286.682828 
L 526.833667 289.90939 
Q 526.833667 290.867203 526.314917 291.39689 
Q 525.797729 291.926578 524.807104 291.926578 
z
M 524.807104 290.979703 
Q 525.333667 290.979703 525.585229 290.70314 
Q 525.836792 290.426578 525.836792 289.90939 
L 525.836792 286.682828 
Q 525.836792 286.164078 525.586792 285.889078 
Q 525.338354 285.612515 524.807104 285.612515 
Q 524.274292 285.612515 524.024292 285.889078 
Q 523.775854 286.164078 523.775854 286.682828 
L 523.775854 289.90939 
Q 523.775854 290.426578 524.027417 290.70314 
Q 524.278979 290.979703 524.807104 290.979703 
z
M 530.324682 291.926578 
Q 529.327807 291.926578 528.812182 291.395328 
Q 528.29812 290.862515 528.29812 289.90939 
L 528.29812 286.682828 
Q 528.29812 285.725015 528.815307 285.195328 
Q 529.332495 284.66564 530.324682 284.66564 
Q 531.319995 284.66564 531.83562 285.193765 
Q 532.351245 285.720328 532.351245 286.682828 
L 532.351245 289.90939 
Q 532.351245 290.867203 531.832495 291.39689 
Q 531.315307 291.926578 530.324682 291.926578 
z
M 530.324682 290.979703 
Q 530.851245 290.979703 531.102807 290.70314 
Q 531.35437 290.426578 531.35437 289.90939 
L 531.35437 286.682828 
Q 531.35437 286.164078 531.10437 285.889078 
Q 530.855932 285.612515 530.324682 285.612515 
Q 529.79187 285.612515 529.54187 285.889078 
Q 529.293432 286.164078 529.293432 286.682828 
L 529.293432 289.90939 
Q 529.293432 290.426578 529.544995 290.70314 
Q 529.796557 290.979703 530.324682 290.979703 
z
M 540.77312 284.75314 
L 541.705932 284.75314 
L 541.705932 291.85314 
L 540.734057 291.85314 
L 540.734057 286.535953 
L 540.782495 286.848453 
L 539.03562 290.867203 
L 538.34187 290.867203 
L 536.593432 286.945328 
L 536.64187 286.535953 
L 536.64187 291.85314 
L 535.671557 291.85314 
L 535.671557 284.75314 
L 536.602807 284.75314 
L 538.688745 289.44064 
L 540.77312 284.75314 
z
M 545.397339 284.75314 
L 546.247339 284.75314 
L 548.864526 291.85314 
L 547.789526 291.85314 
L 545.822339 286.125015 
L 543.855151 291.85314 
L 542.780151 291.85314 
L 545.397339 284.75314 
z
M 543.986401 289.348453 
L 547.722339 289.348453 
L 547.722339 290.295328 
L 543.986401 290.295328 
L 543.986401 289.348453 
z
M 551.671948 288.732828 
L 551.520386 288.489078 
L 549.215698 284.75314 
L 550.334448 284.75314 
L 552.048511 287.643765 
L 552.209448 287.907828 
L 554.636011 291.85314 
L 553.517261 291.85314 
L 551.671948 288.732828 
z
M 551.628198 287.795328 
L 553.409448 284.75314 
L 554.528198 284.75314 
L 552.179761 288.59689 
L 550.275073 291.85314 
L 549.157886 291.85314 
L 551.628198 287.795328 
z
" style="fill: #ffffff; stroke: #000000"/>
    <path d="M 505.724878 290.906265 
L 507.331128 290.906265 
Q 508.117065 290.906265 508.548315 290.498453 
Q 508.981128 290.09064 508.981128 289.348453 
L 508.981128 287.257828 
Q 508.981128 286.51564 508.548315 286.107828 
Q 508.117065 285.700015 507.331128 285.700015 
L 505.724878 285.700015 
L 505.724878 284.75314 
L 507.30144 284.75314 
Q 508.156128 284.75314 508.760815 285.051578 
Q 509.367065 285.348453 509.684253 285.920328 
Q 510.00144 286.492203 510.00144 287.29689 
L 510.00144 289.30939 
Q 510.00144 290.114078 509.684253 290.685953 
Q 509.367065 291.257828 508.759253 291.556265 
Q 508.15144 291.85314 507.296753 291.85314 
L 505.724878 291.85314 
L 505.724878 290.906265 
z
M 505.05144 284.75314 
L 506.046753 284.75314 
L 506.046753 291.85314 
L 505.05144 291.85314 
L 505.05144 284.75314 
z
M 513.546753 291.926578 
Q 512.903003 291.926578 512.41394 291.682828 
Q 511.92644 291.437515 511.659253 290.99064 
Q 511.393628 290.543765 511.393628 289.95314 
L 511.393628 289.835953 
Q 511.393628 289.304703 511.659253 288.835953 
Q 511.92644 288.367203 512.37019 288.12814 
Q 511.993628 287.92189 511.767065 287.53439 
Q 511.540503 287.145328 511.540503 286.71564 
L 511.540503 286.545328 
Q 511.540503 285.989078 511.78894 285.567203 
Q 512.037378 285.143765 512.492065 284.912515 
Q 512.946753 284.679703 513.546753 284.679703 
Q 514.146753 284.679703 514.60144 284.912515 
Q 515.056128 285.143765 515.304565 285.567203 
Q 515.553003 285.989078 515.553003 286.545328 
L 515.553003 286.71564 
Q 515.553003 287.156265 515.321753 287.542203 
Q 515.090503 287.926578 514.709253 288.12814 
Q 515.15769 288.37189 515.428003 288.839078 
Q 515.699878 289.304703 515.699878 289.835953 
L 515.699878 289.95314 
Q 515.699878 290.543765 515.434253 290.99064 
Q 515.168628 291.437515 514.679565 291.682828 
Q 514.192065 291.926578 513.546753 291.926578 
z
M 513.546753 290.968765 
Q 513.893628 290.968765 514.156128 290.832828 
Q 514.42019 290.695328 514.56394 290.450015 
Q 514.709253 290.20314 514.709253 289.879703 
L 514.709253 289.812515 
Q 514.709253 289.48439 514.56394 289.239078 
Q 514.42019 288.992203 514.156128 288.856265 
Q 513.893628 288.718765 513.546753 288.718765 
Q 513.199878 288.718765 512.935815 288.856265 
Q 512.673315 288.992203 512.528003 289.24064 
Q 512.384253 289.489078 512.384253 289.817203 
L 512.384253 289.89064 
Q 512.384253 290.212515 512.528003 290.456265 
Q 512.673315 290.700015 512.935815 290.83439 
Q 513.199878 290.968765 513.546753 290.968765 
z
M 513.546753 287.760953 
Q 513.84519 287.760953 514.073315 287.632828 
Q 514.303003 287.50314 514.429565 287.264078 
Q 514.55769 287.023453 514.55769 286.710953 
L 514.55769 286.643765 
Q 514.55769 286.345328 514.429565 286.11564 
Q 514.303003 285.885953 514.073315 285.762515 
Q 513.84519 285.637515 513.546753 285.637515 
Q 513.248315 285.637515 513.018628 285.762515 
Q 512.790503 285.885953 512.662378 286.11564 
Q 512.535815 286.345328 512.535815 286.648453 
L 512.535815 286.72189 
Q 512.535815 287.02814 512.662378 287.26564 
Q 512.790503 287.50314 513.018628 287.632828 
Q 513.248315 287.760953 513.546753 287.760953 
z
M 516.993628 289.900015 
L 519.37644 284.757828 
L 520.403003 284.757828 
L 518.078003 289.84064 
L 521.559253 289.84064 
L 521.559253 290.764078 
L 516.993628 290.764078 
L 516.993628 289.900015 
z
M 520.056128 287.67814 
L 521.028003 287.67814 
L 521.028003 291.857828 
L 520.056128 291.857828 
L 520.056128 287.67814 
z
M 524.807104 291.926578 
Q 523.810229 291.926578 523.294604 291.395328 
Q 522.780542 290.862515 522.780542 289.90939 
L 522.780542 286.682828 
Q 522.780542 285.725015 523.297729 285.195328 
Q 523.814917 284.66564 524.807104 284.66564 
Q 525.802417 284.66564 526.318042 285.193765 
Q 526.833667 285.720328 526.833667 286.682828 
L 526.833667 289.90939 
Q 526.833667 290.867203 526.314917 291.39689 
Q 525.797729 291.926578 524.807104 291.926578 
z
M 524.807104 290.979703 
Q 525.333667 290.979703 525.585229 290.70314 
Q 525.836792 290.426578 525.836792 289.90939 
L 525.836792 286.682828 
Q 525.836792 286.164078 525.586792 285.889078 
Q 525.338354 285.612515 524.807104 285.612515 
Q 524.274292 285.612515 524.024292 285.889078 
Q 523.775854 286.164078 523.775854 286.682828 
L 523.775854 289.90939 
Q 523.775854 290.426578 524.027417 290.70314 
Q 524.278979 290.979703 524.807104 290.979703 
z
M 530.324682 291.926578 
Q 529.327807 291.926578 528.812182 291.395328 
Q 528.29812 290.862515 528.29812 289.90939 
L 528.29812 286.682828 
Q 528.29812 285.725015 528.815307 285.195328 
Q 529.332495 284.66564 530.324682 284.66564 
Q 531.319995 284.66564 531.83562 285.193765 
Q 532.351245 285.720328 532.351245 286.682828 
L 532.351245 289.90939 
Q 532.351245 290.867203 531.832495 291.39689 
Q 531.315307 291.926578 530.324682 291.926578 
z
M 530.324682 290.979703 
Q 530.851245 290.979703 531.102807 290.70314 
Q 531.35437 290.426578 531.35437 289.90939 
L 531.35437 286.682828 
Q 531.35437 286.164078 531.10437 285.889078 
Q 530.855932 285.612515 530.324682 285.612515 
Q 529.79187 285.612515 529.54187 285.889078 
Q 529.293432 286.164078 529.293432 286.682828 
L 529.293432 289.90939 
Q 529.293432 290.426578 529.544995 290.70314 
Q 529.796557 290.979703 530.324682 290.979703 
z
M 540.77312 284.75314 
L 541.705932 284.75314 
L 541.705932 291.85314 
L 540.734057 291.85314 
L 540.734057 286.535953 
L 540.782495 286.848453 
L 539.03562 290.867203 
L 538.34187 290.867203 
L 536.593432 286.945328 
L 536.64187 286.535953 
L 536.64187 291.85314 
L 535.671557 291.85314 
L 535.671557 284.75314 
L 536.602807 284.75314 
L 538.688745 289.44064 
L 540.77312 284.75314 
z
M 545.397339 284.75314 
L 546.247339 284.75314 
L 548.864526 291.85314 
L 547.789526 291.85314 
L 545.822339 286.125015 
L 543.855151 291.85314 
L 542.780151 291.85314 
L 545.397339 284.75314 
z
M 543.986401 289.348453 
L 547.722339 289.348453 
L 547.722339 290.295328 
L 543.986401 290.295328 
L 543.986401 289.348453 
z
M 551.671948 288.732828 
L 551.520386 288.489078 
L 549.215698 284.75314 
L 550.334448 284.75314 
L 552.048511 287.643765 
L 552.209448 287.907828 
L 554.636011 291.85314 
L 553.517261 291.85314 
L 551.671948 288.732828 
z
M 551.628198 287.795328 
L 553.409448 284.75314 
L 554.528198 284.75314 
L 552.179761 288.59689 
L 550.275073 291.85314 
L 549.157886 291.85314 
L 551.628198 287.795328 
z
" style="fill: #ffffff"/>
   </g>
  </g>
 </g>
 <defs>
  <clipPath id="pfab03fe81d">
   <rect x="144" y="77.76" width="892.8" height="498.96"/>
  </clipPath>
 </defs>
</svg>
