<?xml version="1.0" encoding="utf-8" standalone="no"?>
<!DOCTYPE svg PUBLIC "-//W3C//DTD SVG 1.1//EN"
  "http://www.w3.org/Graphics/SVG/1.1/DTD/svg11.dtd">
<svg xmlns:xlink="http://www.w3.org/1999/xlink" width="1152pt" height="648pt" viewBox="0 0 1152 648" xmlns="http://www.w3.org/2000/svg" version="1.1">
 <metadata>
  <rdf:RDF xmlns:dc="http://purl.org/dc/elements/1.1/" xmlns:cc="http://creativecommons.org/ns#" xmlns:rdf="http://www.w3.org/1999/02/22-rdf-syntax-ns#">
   <cc:Work>
    <dc:type rdf:resource="http://purl.org/dc/dcmitype/StillImage"/>
    <dc:date>2025-09-19T13:20:10.710772</dc:date>
    <dc:format>image/svg+xml</dc:format>
    <dc:creator>
     <cc:Agent>
      <dc:title>Matplotlib v3.10.3, https://matplotlib.org/</dc:title>
     </cc:Agent>
    </dc:creator>
   </cc:Work>
  </rdf:RDF>
 </metadata>
 <defs>
  <style type="text/css">*{stroke-linejoin: round; stroke-linecap: butt}</style>
 </defs>
 <g id="figure_1">
  <g id="patch_1">
   <path d="M 0 648 
L 1152 648 
L 1152 0 
L 0 0 
L 0 648 
z
" style="fill: none"/>
  </g>
  <g id="axes_1">
   <g id="line2d_1">
    <path d="M 217.858909 500.430068 
L 220.576661 498.089203 
L 223.294413 495.790517 
L 226.012165 493.533253 
L 228.729917 491.316669 
L 231.447669 489.140035 
L 234.165421 487.002636 
L 236.883174 484.903768 
L 239.600926 482.842738 
L 242.318678 480.818869 
L 245.03643 478.831494 
L 247.754182 476.879957 
L 250.471934 474.963615 
L 253.189686 473.081836 
L 255.907438 471.234 
L 258.62519 469.419497 
L 261.342942 467.637728 
L 264.060694 465.888105 
L 266.778446 464.170051 
L 269.496198 462.482997 
L 272.21395 460.826388 
L 274.931702 459.199675 
L 277.649455 457.602321 
L 280.367207 456.033798 
L 283.084959 454.493588 
L 285.802711 452.981181 
L 288.520463 451.496078 
L 291.238215 450.037787 
L 293.955967 448.605825 
L 296.673719 447.199719 
L 299.391471 445.819003 
L 302.109223 444.463221 
L 304.826975 443.131924 
L 307.544727 441.82467 
L 310.262479 440.541028 
L 312.980231 439.28057 
L 315.697983 438.042881 
L 318.415736 436.82755 
L 321.133488 435.634174 
L 323.85124 434.462358 
L 326.568992 433.311713 
L 329.286744 432.181858 
L 332.004496 431.072418 
L 334.722248 429.983025 
L 337.44 428.913318 
L 340.157752 427.862942 
L 342.875504 426.831549 
L 345.593256 425.818796 
L 348.311008 424.824346 
L 351.02876 423.847871 
L 353.746512 422.889046 
L 356.464264 421.947553 
L 359.182017 421.023079 
L 361.899769 420.115316 
L 364.617521 419.223964 
L 367.335273 418.348727 
L 370.053025 417.489313 
L 372.770777 416.645438 
L 375.488529 415.81682 
L 378.206281 415.003185 
L 380.924033 414.204262 
L 383.641785 413.419786 
L 386.359537 412.649495 
L 389.077289 411.893134 
L 391.795041 411.150452 
L 394.512793 410.421201 
L 397.230545 409.705138 
L 399.948298 409.002026 
L 402.66605 408.311632 
L 405.383802 407.633724 
L 408.101554 406.968078 
L 410.819306 406.314472 
L 413.537058 405.672689 
L 416.25481 405.042516 
L 418.972562 404.423742 
L 421.690314 403.816161 
L 424.408066 403.219572 
L 427.125818 402.633776 
L 429.84357 402.058578 
L 432.561322 401.493786 
L 435.279074 400.939213 
L 437.996826 400.394673 
L 440.714579 399.859986 
L 443.432331 399.334973 
L 446.150083 398.819459 
L 448.867835 398.313274 
L 451.585587 397.816248 
L 454.303339 397.328215 
L 457.021091 396.849014 
L 459.738843 396.378484 
L 462.456595 395.916469 
L 465.174347 395.462815 
L 467.892099 395.017371 
L 470.609851 394.579987 
L 473.327603 394.15052 
L 476.045355 393.728825 
L 478.763107 393.314762 
L 481.48086 392.908193 
L 484.198612 392.508982 
L 486.916364 392.116997 
" clip-path="url(#pc59419ffa1)" style="fill: none; stroke: #3071f2; stroke-width: 3; stroke-linecap: round"/>
   </g>
   <g id="text_1">
    <path d="M 495.821344 393.837002 
Q 495.308844 393.837002 494.849469 393.740127 
Q 494.391656 393.64169 493.993219 393.446377 
Q 493.594781 393.251065 493.247906 392.957315 
L 493.247906 392.957315 
L 493.868219 392.196377 
L 493.868219 392.196377 
Q 494.274469 392.54794 494.761969 392.724502 
Q 495.251031 392.899502 495.821344 392.899502 
Q 496.593219 392.899502 497.018219 392.613565 
Q 497.443219 392.327627 497.443219 391.805752 
L 497.443219 391.801065 
Q 497.443219 391.42919 497.249469 391.212002 
Q 497.057281 390.994815 496.751031 390.890127 
Q 496.446344 390.78544 495.963531 390.696377 
Q 495.947906 390.69169 495.930719 390.69169 
Q 495.915094 390.69169 495.899469 390.687002 
L 495.826031 390.67294 
Q 495.113531 390.551065 494.666656 390.39794 
Q 494.219781 390.243252 493.902594 389.83544 
Q 493.585406 389.427627 493.585406 388.676065 
L 493.585406 388.671377 
Q 493.585406 388.012002 493.880719 387.546377 
Q 494.176031 387.07919 494.741656 386.83544 
Q 495.308844 386.590127 496.104156 386.590127 
Q 496.485406 386.590127 496.854156 386.674502 
Q 497.222906 386.757315 497.580719 386.921377 
Q 497.940094 387.083877 498.286969 387.332315 
L 498.286969 387.332315 
L 497.721344 388.124502 
L 497.721344 388.124502 
Q 497.315094 387.826065 496.911969 387.677627 
Q 496.510406 387.527627 496.104156 387.527627 
Q 495.377594 387.527627 494.974469 387.818252 
Q 494.571344 388.108877 494.571344 388.64169 
L 494.571344 388.646377 
Q 494.571344 389.012002 494.779156 389.22294 
Q 494.986969 389.432315 495.296344 389.532315 
Q 495.607281 389.632315 496.158844 389.740127 
Q 496.177594 389.744815 496.194781 389.74794 
Q 496.211969 389.749502 496.232281 389.75419 
Q 496.255719 389.758877 496.285406 389.765127 
Q 496.315094 389.769815 496.338531 389.774502 
Q 496.983844 389.905752 497.415094 390.087002 
Q 497.847906 390.26669 498.138531 390.669815 
Q 498.429156 391.07294 498.429156 391.771377 
L 498.429156 391.780752 
Q 498.429156 392.430752 498.121344 392.89169 
Q 497.813531 393.352627 497.229156 393.594815 
Q 496.646344 393.837002 495.821344 393.837002 
z
M 500.519195 392.81669 
L 502.125445 392.81669 
Q 502.911383 392.81669 503.342633 392.408877 
Q 503.775445 392.001065 503.775445 391.258877 
L 503.775445 389.168252 
Q 503.775445 388.426065 503.342633 388.018252 
Q 502.911383 387.61044 502.125445 387.61044 
L 500.519195 387.61044 
L 500.519195 386.663565 
L 502.095758 386.663565 
Q 502.950445 386.663565 503.555133 386.962002 
Q 504.161383 387.258877 504.47857 387.830752 
Q 504.795758 388.402627 504.795758 389.207315 
L 504.795758 391.219815 
Q 504.795758 392.024502 504.47857 392.596377 
Q 504.161383 393.168252 503.55357 393.46669 
Q 502.945758 393.763565 502.09107 393.763565 
L 500.519195 393.763565 
L 500.519195 392.81669 
z
M 499.845758 386.663565 
L 500.84107 386.663565 
L 500.84107 393.763565 
L 499.845758 393.763565 
L 499.845758 386.663565 
z
M 508.34107 393.837002 
Q 507.69732 393.837002 507.208258 393.593252 
Q 506.720758 393.34794 506.45357 392.901065 
Q 506.187945 392.45419 506.187945 391.863565 
L 506.187945 391.746377 
Q 506.187945 391.215127 506.45357 390.746377 
Q 506.720758 390.277627 507.164508 390.038565 
Q 506.787945 389.832315 506.561383 389.444815 
Q 506.33482 389.055752 506.33482 388.626065 
L 506.33482 388.455752 
Q 506.33482 387.899502 506.583258 387.477627 
Q 506.831695 387.05419 507.286383 386.82294 
Q 507.74107 386.590127 508.34107 386.590127 
Q 508.94107 386.590127 509.395758 386.82294 
Q 509.850445 387.05419 510.098883 387.477627 
Q 510.34732 387.899502 510.34732 388.455752 
L 510.34732 388.626065 
Q 510.34732 389.06669 510.11607 389.452627 
Q 509.88482 389.837002 509.50357 390.038565 
Q 509.952008 390.282315 510.22232 390.749502 
Q 510.494195 391.215127 510.494195 391.746377 
L 510.494195 391.863565 
Q 510.494195 392.45419 510.22857 392.901065 
Q 509.962945 393.34794 509.473883 393.593252 
Q 508.986383 393.837002 508.34107 393.837002 
z
M 508.34107 392.87919 
Q 508.687945 392.87919 508.950445 392.743252 
Q 509.214508 392.605752 509.358258 392.36044 
Q 509.50357 392.113565 509.50357 391.790127 
L 509.50357 391.72294 
Q 509.50357 391.394815 509.358258 391.149502 
Q 509.214508 390.902627 508.950445 390.76669 
Q 508.687945 390.62919 508.34107 390.62919 
Q 507.994195 390.62919 507.730133 390.76669 
Q 507.467633 390.902627 507.32232 391.151065 
Q 507.17857 391.399502 507.17857 391.727627 
L 507.17857 391.801065 
Q 507.17857 392.12294 507.32232 392.36669 
Q 507.467633 392.61044 507.730133 392.744815 
Q 507.994195 392.87919 508.34107 392.87919 
z
M 508.34107 389.671377 
Q 508.639508 389.671377 508.867633 389.543252 
Q 509.09732 389.413565 509.223883 389.174502 
Q 509.352008 388.933877 509.352008 388.621377 
L 509.352008 388.55419 
Q 509.352008 388.255752 509.223883 388.026065 
Q 509.09732 387.796377 508.867633 387.67294 
Q 508.639508 387.54794 508.34107 387.54794 
Q 508.042633 387.54794 507.812945 387.67294 
Q 507.58482 387.796377 507.456695 388.026065 
Q 507.330133 388.255752 507.330133 388.558877 
L 507.330133 388.632315 
Q 507.330133 388.938565 507.456695 389.176065 
Q 507.58482 389.413565 507.812945 389.543252 
Q 508.042633 389.671377 508.34107 389.671377 
z
M 518.595367 389.940127 
L 518.595367 391.180752 
Q 518.595367 391.971377 518.287555 392.574502 
Q 517.979742 393.177627 517.41568 393.507315 
Q 516.851617 393.837002 516.10943 393.837002 
Q 515.357867 393.837002 514.789117 393.527627 
Q 514.220367 393.21669 513.907867 392.651065 
Q 513.595367 392.083877 513.595367 391.337002 
L 513.595367 389.24169 
Q 513.595367 388.451065 513.90318 387.851065 
Q 514.210992 387.249502 514.773492 386.919815 
Q 515.337555 386.590127 516.079742 386.590127 
Q 516.69068 386.590127 517.204742 386.852627 
Q 517.720367 387.113565 518.067242 387.59169 
Q 518.414117 388.069815 518.535992 388.699502 
L 518.535992 388.699502 
L 517.457867 388.699502 
L 517.457867 388.699502 
Q 517.368805 388.343252 517.15943 388.087002 
Q 516.950055 387.830752 516.66568 387.696377 
Q 516.382867 387.562002 516.079742 387.562002 
Q 515.64068 387.562002 515.307867 387.77294 
Q 514.976617 387.982315 514.795367 388.36044 
Q 514.61568 388.738565 514.61568 389.24169 
L 514.61568 391.337002 
Q 514.61568 391.796377 514.800055 392.140127 
Q 514.985992 392.483877 515.325055 392.674502 
Q 515.66568 392.865127 516.10943 392.865127 
Q 516.548492 392.865127 516.879742 392.668252 
Q 517.212555 392.469815 517.393805 392.094815 
Q 517.575055 391.718252 517.575055 391.199502 
L 517.575055 390.89169 
L 516.13443 390.89169 
L 516.13443 389.940127 
L 518.595367 389.940127 
z
M 522.183648 393.837002 
Q 521.480523 393.837002 520.982086 393.57294 
Q 520.485211 393.308877 520.222711 392.799502 
Q 519.961773 392.288565 519.961773 391.56669 
L 519.961773 390.994815 
Q 519.961773 390.243252 520.213336 389.712002 
Q 520.464898 389.17919 520.943023 388.901065 
Q 521.422711 388.621377 522.096148 388.621377 
Q 522.730523 388.621377 523.178961 388.940127 
Q 523.628961 389.257315 523.864898 389.857315 
Q 524.102398 390.457315 524.102398 391.29794 
L 524.102398 391.62919 
L 520.685211 391.62919 
L 520.685211 390.82919 
L 523.155523 390.82919 
L 523.155523 390.82919 
Q 523.111773 390.208877 522.835211 389.865127 
Q 522.560211 389.519815 522.096148 389.519815 
Q 521.528961 389.519815 521.219586 389.89169 
Q 520.910211 390.262002 520.910211 390.94169 
L 520.910211 391.58544 
Q 520.910211 392.215127 521.241461 392.552627 
Q 521.574273 392.890127 522.183648 392.890127 
Q 522.486773 392.890127 522.783648 392.768252 
Q 523.082086 392.644815 523.316461 392.426065 
L 523.316461 392.426065 
L 523.971148 393.07919 
L 523.971148 393.07919 
Q 523.594586 393.44169 523.125836 393.640127 
Q 522.657086 393.837002 522.183648 393.837002 
z
M 525.469976 388.694815 
L 526.466851 388.694815 
L 526.466851 393.763565 
L 525.469976 393.763565 
L 525.469976 388.694815 
z
M 528.546539 390.69169 
Q 528.546539 390.155752 528.268414 389.863565 
Q 527.990289 389.569815 527.487164 389.569815 
Q 526.998101 389.569815 526.732476 389.82919 
Q 526.466851 390.087002 526.466851 390.555752 
L 526.363726 389.57919 
Q 526.598101 389.119815 526.976226 388.871377 
Q 527.354351 388.621377 527.813726 388.621377 
Q 528.638726 388.621377 529.090289 389.162002 
Q 529.541851 389.701065 529.541851 390.687002 
L 529.541851 393.763565 
L 528.546539 393.763565 
L 528.546539 390.69169 
z
M 530.899664 392.899502 
L 533.374664 389.59794 
Q 533.590289 389.315127 533.709039 389.01044 
Q 533.829351 388.70419 533.829351 388.44169 
L 533.829351 388.430752 
Q 533.829351 388.007315 533.579351 387.77294 
Q 533.330914 387.538565 532.873101 387.538565 
Q 532.437164 387.538565 532.168414 387.794815 
Q 531.901226 388.051065 531.841851 388.519815 
L 531.841851 388.524502 
L 530.812164 388.524502 
L 530.812164 388.519815 
Q 530.899664 387.908877 531.169976 387.477627 
Q 531.441851 387.044815 531.871539 386.818252 
Q 532.301226 386.590127 532.862164 386.590127 
Q 533.498101 386.590127 533.946539 386.807315 
Q 534.396539 387.024502 534.630914 387.440127 
Q 534.865289 387.855752 534.865289 388.44169 
L 534.865289 388.446377 
Q 534.865289 388.821377 534.709039 389.232315 
Q 534.552789 389.64169 534.273101 390.02294 
L 532.218414 392.81669 
L 534.904351 392.81669 
L 534.904351 393.763565 
L 530.899664 393.763565 
L 530.899664 392.899502 
z
" style="fill: #ffffff; stroke: #000000"/>
    <path d="M 495.821344 393.837002 
Q 495.308844 393.837002 494.849469 393.740127 
Q 494.391656 393.64169 493.993219 393.446377 
Q 493.594781 393.251065 493.247906 392.957315 
L 493.247906 392.957315 
L 493.868219 392.196377 
L 493.868219 392.196377 
Q 494.274469 392.54794 494.761969 392.724502 
Q 495.251031 392.899502 495.821344 392.899502 
Q 496.593219 392.899502 497.018219 392.613565 
Q 497.443219 392.327627 497.443219 391.805752 
L 497.443219 391.801065 
Q 497.443219 391.42919 497.249469 391.212002 
Q 497.057281 390.994815 496.751031 390.890127 
Q 496.446344 390.78544 495.963531 390.696377 
Q 495.947906 390.69169 495.930719 390.69169 
Q 495.915094 390.69169 495.899469 390.687002 
L 495.826031 390.67294 
Q 495.113531 390.551065 494.666656 390.39794 
Q 494.219781 390.243252 493.902594 389.83544 
Q 493.585406 389.427627 493.585406 388.676065 
L 493.585406 388.671377 
Q 493.585406 388.012002 493.880719 387.546377 
Q 494.176031 387.07919 494.741656 386.83544 
Q 495.308844 386.590127 496.104156 386.590127 
Q 496.485406 386.590127 496.854156 386.674502 
Q 497.222906 386.757315 497.580719 386.921377 
Q 497.940094 387.083877 498.286969 387.332315 
L 498.286969 387.332315 
L 497.721344 388.124502 
L 497.721344 388.124502 
Q 497.315094 387.826065 496.911969 387.677627 
Q 496.510406 387.527627 496.104156 387.527627 
Q 495.377594 387.527627 494.974469 387.818252 
Q 494.571344 388.108877 494.571344 388.64169 
L 494.571344 388.646377 
Q 494.571344 389.012002 494.779156 389.22294 
Q 494.986969 389.432315 495.296344 389.532315 
Q 495.607281 389.632315 496.158844 389.740127 
Q 496.177594 389.744815 496.194781 389.74794 
Q 496.211969 389.749502 496.232281 389.75419 
Q 496.255719 389.758877 496.285406 389.765127 
Q 496.315094 389.769815 496.338531 389.774502 
Q 496.983844 389.905752 497.415094 390.087002 
Q 497.847906 390.26669 498.138531 390.669815 
Q 498.429156 391.07294 498.429156 391.771377 
L 498.429156 391.780752 
Q 498.429156 392.430752 498.121344 392.89169 
Q 497.813531 393.352627 497.229156 393.594815 
Q 496.646344 393.837002 495.821344 393.837002 
z
M 500.519195 392.81669 
L 502.125445 392.81669 
Q 502.911383 392.81669 503.342633 392.408877 
Q 503.775445 392.001065 503.775445 391.258877 
L 503.775445 389.168252 
Q 503.775445 388.426065 503.342633 388.018252 
Q 502.911383 387.61044 502.125445 387.61044 
L 500.519195 387.61044 
L 500.519195 386.663565 
L 502.095758 386.663565 
Q 502.950445 386.663565 503.555133 386.962002 
Q 504.161383 387.258877 504.47857 387.830752 
Q 504.795758 388.402627 504.795758 389.207315 
L 504.795758 391.219815 
Q 504.795758 392.024502 504.47857 392.596377 
Q 504.161383 393.168252 503.55357 393.46669 
Q 502.945758 393.763565 502.09107 393.763565 
L 500.519195 393.763565 
L 500.519195 392.81669 
z
M 499.845758 386.663565 
L 500.84107 386.663565 
L 500.84107 393.763565 
L 499.845758 393.763565 
L 499.845758 386.663565 
z
M 508.34107 393.837002 
Q 507.69732 393.837002 507.208258 393.593252 
Q 506.720758 393.34794 506.45357 392.901065 
Q 506.187945 392.45419 506.187945 391.863565 
L 506.187945 391.746377 
Q 506.187945 391.215127 506.45357 390.746377 
Q 506.720758 390.277627 507.164508 390.038565 
Q 506.787945 389.832315 506.561383 389.444815 
Q 506.33482 389.055752 506.33482 388.626065 
L 506.33482 388.455752 
Q 506.33482 387.899502 506.583258 387.477627 
Q 506.831695 387.05419 507.286383 386.82294 
Q 507.74107 386.590127 508.34107 386.590127 
Q 508.94107 386.590127 509.395758 386.82294 
Q 509.850445 387.05419 510.098883 387.477627 
Q 510.34732 387.899502 510.34732 388.455752 
L 510.34732 388.626065 
Q 510.34732 389.06669 510.11607 389.452627 
Q 509.88482 389.837002 509.50357 390.038565 
Q 509.952008 390.282315 510.22232 390.749502 
Q 510.494195 391.215127 510.494195 391.746377 
L 510.494195 391.863565 
Q 510.494195 392.45419 510.22857 392.901065 
Q 509.962945 393.34794 509.473883 393.593252 
Q 508.986383 393.837002 508.34107 393.837002 
z
M 508.34107 392.87919 
Q 508.687945 392.87919 508.950445 392.743252 
Q 509.214508 392.605752 509.358258 392.36044 
Q 509.50357 392.113565 509.50357 391.790127 
L 509.50357 391.72294 
Q 509.50357 391.394815 509.358258 391.149502 
Q 509.214508 390.902627 508.950445 390.76669 
Q 508.687945 390.62919 508.34107 390.62919 
Q 507.994195 390.62919 507.730133 390.76669 
Q 507.467633 390.902627 507.32232 391.151065 
Q 507.17857 391.399502 507.17857 391.727627 
L 507.17857 391.801065 
Q 507.17857 392.12294 507.32232 392.36669 
Q 507.467633 392.61044 507.730133 392.744815 
Q 507.994195 392.87919 508.34107 392.87919 
z
M 508.34107 389.671377 
Q 508.639508 389.671377 508.867633 389.543252 
Q 509.09732 389.413565 509.223883 389.174502 
Q 509.352008 388.933877 509.352008 388.621377 
L 509.352008 388.55419 
Q 509.352008 388.255752 509.223883 388.026065 
Q 509.09732 387.796377 508.867633 387.67294 
Q 508.639508 387.54794 508.34107 387.54794 
Q 508.042633 387.54794 507.812945 387.67294 
Q 507.58482 387.796377 507.456695 388.026065 
Q 507.330133 388.255752 507.330133 388.558877 
L 507.330133 388.632315 
Q 507.330133 388.938565 507.456695 389.176065 
Q 507.58482 389.413565 507.812945 389.543252 
Q 508.042633 389.671377 508.34107 389.671377 
z
M 518.595367 389.940127 
L 518.595367 391.180752 
Q 518.595367 391.971377 518.287555 392.574502 
Q 517.979742 393.177627 517.41568 393.507315 
Q 516.851617 393.837002 516.10943 393.837002 
Q 515.357867 393.837002 514.789117 393.527627 
Q 514.220367 393.21669 513.907867 392.651065 
Q 513.595367 392.083877 513.595367 391.337002 
L 513.595367 389.24169 
Q 513.595367 388.451065 513.90318 387.851065 
Q 514.210992 387.249502 514.773492 386.919815 
Q 515.337555 386.590127 516.079742 386.590127 
Q 516.69068 386.590127 517.204742 386.852627 
Q 517.720367 387.113565 518.067242 387.59169 
Q 518.414117 388.069815 518.535992 388.699502 
L 518.535992 388.699502 
L 517.457867 388.699502 
L 517.457867 388.699502 
Q 517.368805 388.343252 517.15943 388.087002 
Q 516.950055 387.830752 516.66568 387.696377 
Q 516.382867 387.562002 516.079742 387.562002 
Q 515.64068 387.562002 515.307867 387.77294 
Q 514.976617 387.982315 514.795367 388.36044 
Q 514.61568 388.738565 514.61568 389.24169 
L 514.61568 391.337002 
Q 514.61568 391.796377 514.800055 392.140127 
Q 514.985992 392.483877 515.325055 392.674502 
Q 515.66568 392.865127 516.10943 392.865127 
Q 516.548492 392.865127 516.879742 392.668252 
Q 517.212555 392.469815 517.393805 392.094815 
Q 517.575055 391.718252 517.575055 391.199502 
L 517.575055 390.89169 
L 516.13443 390.89169 
L 516.13443 389.940127 
L 518.595367 389.940127 
z
M 522.183648 393.837002 
Q 521.480523 393.837002 520.982086 393.57294 
Q 520.485211 393.308877 520.222711 392.799502 
Q 519.961773 392.288565 519.961773 391.56669 
L 519.961773 390.994815 
Q 519.961773 390.243252 520.213336 389.712002 
Q 520.464898 389.17919 520.943023 388.901065 
Q 521.422711 388.621377 522.096148 388.621377 
Q 522.730523 388.621377 523.178961 388.940127 
Q 523.628961 389.257315 523.864898 389.857315 
Q 524.102398 390.457315 524.102398 391.29794 
L 524.102398 391.62919 
L 520.685211 391.62919 
L 520.685211 390.82919 
L 523.155523 390.82919 
L 523.155523 390.82919 
Q 523.111773 390.208877 522.835211 389.865127 
Q 522.560211 389.519815 522.096148 389.519815 
Q 521.528961 389.519815 521.219586 389.89169 
Q 520.910211 390.262002 520.910211 390.94169 
L 520.910211 391.58544 
Q 520.910211 392.215127 521.241461 392.552627 
Q 521.574273 392.890127 522.183648 392.890127 
Q 522.486773 392.890127 522.783648 392.768252 
Q 523.082086 392.644815 523.316461 392.426065 
L 523.316461 392.426065 
L 523.971148 393.07919 
L 523.971148 393.07919 
Q 523.594586 393.44169 523.125836 393.640127 
Q 522.657086 393.837002 522.183648 393.837002 
z
M 525.469976 388.694815 
L 526.466851 388.694815 
L 526.466851 393.763565 
L 525.469976 393.763565 
L 525.469976 388.694815 
z
M 528.546539 390.69169 
Q 528.546539 390.155752 528.268414 389.863565 
Q 527.990289 389.569815 527.487164 389.569815 
Q 526.998101 389.569815 526.732476 389.82919 
Q 526.466851 390.087002 526.466851 390.555752 
L 526.363726 389.57919 
Q 526.598101 389.119815 526.976226 388.871377 
Q 527.354351 388.621377 527.813726 388.621377 
Q 528.638726 388.621377 529.090289 389.162002 
Q 529.541851 389.701065 529.541851 390.687002 
L 529.541851 393.763565 
L 528.546539 393.763565 
L 528.546539 390.69169 
z
M 530.899664 392.899502 
L 533.374664 389.59794 
Q 533.590289 389.315127 533.709039 389.01044 
Q 533.829351 388.70419 533.829351 388.44169 
L 533.829351 388.430752 
Q 533.829351 388.007315 533.579351 387.77294 
Q 533.330914 387.538565 532.873101 387.538565 
Q 532.437164 387.538565 532.168414 387.794815 
Q 531.901226 388.051065 531.841851 388.519815 
L 531.841851 388.524502 
L 530.812164 388.524502 
L 530.812164 388.519815 
Q 530.899664 387.908877 531.169976 387.477627 
Q 531.441851 387.044815 531.871539 386.818252 
Q 532.301226 386.590127 532.862164 386.590127 
Q 533.498101 386.590127 533.946539 386.807315 
Q 534.396539 387.024502 534.630914 387.440127 
Q 534.865289 387.855752 534.865289 388.44169 
L 534.865289 388.446377 
Q 534.865289 388.821377 534.709039 389.232315 
Q 534.552789 389.64169 534.273101 390.02294 
L 532.218414 392.81669 
L 534.904351 392.81669 
L 534.904351 393.763565 
L 530.899664 393.763565 
L 530.899664 392.899502 
z
" style="fill: #ffffff"/>
   </g>
  </g>
 </g>
 <defs>
  <clipPath id="pc59419ffa1">
   <rect x="144" y="77.76" width="892.8" height="498.96"/>
  </clipPath>
 </defs>
</svg>
