<?xml version="1.0" encoding="utf-8" standalone="no"?>
<!DOCTYPE svg PUBLIC "-//W3C//DTD SVG 1.1//EN"
  "http://www.w3.org/Graphics/SVG/1.1/DTD/svg11.dtd">
<svg xmlns:xlink="http://www.w3.org/1999/xlink" width="1152pt" height="648pt" viewBox="0 0 1152 648" xmlns="http://www.w3.org/2000/svg" version="1.1">
 <metadata>
  <rdf:RDF xmlns:dc="http://purl.org/dc/elements/1.1/" xmlns:cc="http://creativecommons.org/ns#" xmlns:rdf="http://www.w3.org/1999/02/22-rdf-syntax-ns#">
   <cc:Work>
    <dc:type rdf:resource="http://purl.org/dc/dcmitype/StillImage"/>
    <dc:date>2025-09-24T16:23:25.559228</dc:date>
    <dc:format>image/svg+xml</dc:format>
    <dc:creator>
     <cc:Agent>
      <dc:title>Matplotlib v3.10.3, https://matplotlib.org/</dc:title>
     </cc:Agent>
    </dc:creator>
   </cc:Work>
  </rdf:RDF>
 </metadata>
 <defs>
  <style type="text/css">*{stroke-linejoin: round; stroke-linecap: butt}</style>
 </defs>
 <g id="figure_1">
  <g id="patch_1">
   <path d="M 0 648 
L 1152 648 
L 1152 0 
L 0 0 
L 0 648 
z
" style="fill: none"/>
  </g>
  <g id="axes_1">
   <g id="line2d_1">
    <path d="M 204.061091 484.208221 
L 210.832926 477.722149 
L 217.60476 471.379655 
L 224.376595 465.177562 
L 231.14843 459.112766 
L 237.920264 453.182231 
L 244.692099 447.382986 
L 251.463934 441.712127 
L 258.235769 436.166815 
L 265.007603 430.744272 
L 271.779438 425.441783 
L 278.551273 420.256692 
L 285.323107 415.1864 
L 292.094942 410.22837 
L 298.866777 405.380116 
L 305.638612 400.63921 
L 312.410446 396.003276 
L 319.182281 391.469993 
L 325.954116 387.037088 
L 332.72595 382.702341 
L 339.497785 378.463579 
L 346.26962 374.318678 
L 353.041455 370.265562 
L 359.813289 366.302198 
L 366.585124 362.4266 
L 373.356959 358.636827 
L 380.128793 354.930978 
L 386.900628 351.307196 
L 393.672463 347.763665 
L 400.444298 344.298608 
L 407.216132 340.910288 
L 413.987967 337.597007 
L 420.759802 334.357104 
L 427.531636 331.188954 
L 434.303471 328.09097 
L 441.075306 325.061597 
L 447.84714 322.099317 
L 454.618975 319.202645 
L 461.39081 316.370127 
L 468.162645 313.600345 
L 474.934479 310.891909 
L 481.706314 308.24346 
L 488.478149 305.653672 
L 495.249983 303.121244 
L 502.021818 300.644907 
L 508.793653 298.223419 
L 515.565488 295.855566 
L 522.337322 293.54016 
L 529.109157 291.276039 
L 535.880992 289.062069 
L 542.652826 286.897138 
L 549.424661 284.780162 
L 556.196496 282.710077 
L 562.968331 280.685845 
L 569.740165 278.706452 
L 576.512 276.770904 
L 583.283835 274.878231 
L 590.055669 273.027482 
L 596.827504 271.21773 
L 603.599339 269.448066 
L 610.371174 267.717604 
L 617.143008 266.025473 
L 623.914843 264.370827 
L 630.686678 262.752834 
L 637.458512 261.170683 
L 644.230347 259.62358 
L 651.002182 258.110749 
L 657.774017 256.631431 
L 664.545851 255.184883 
L 671.317686 253.770381 
L 678.089521 252.387213 
L 684.861355 251.034686 
L 691.63319 249.712122 
L 698.405025 248.418856 
L 705.17686 247.15424 
L 711.948694 245.91764 
L 718.720529 244.708434 
L 725.492364 243.526016 
L 732.264198 242.369793 
L 739.036033 241.239185 
L 745.807868 240.133623 
L 752.579702 239.052554 
L 759.351537 237.995434 
L 766.123372 236.961734 
L 772.895207 235.950934 
L 779.667041 234.962528 
L 786.438876 233.996018 
L 793.210711 233.050921 
L 799.982545 232.126762 
L 806.75438 231.223077 
L 813.526215 230.339413 
L 820.29805 229.475325 
L 827.069884 228.630381 
L 833.841719 227.804157 
L 840.613554 226.996237 
L 847.385388 226.206216 
L 854.157223 225.433698 
L 860.929058 224.678295 
L 867.700893 223.939627 
L 874.472727 223.217325 
" clip-path="url(#p3832355945)" style="fill: none; stroke: #f25130; stroke-width: 3; stroke-linecap: round"/>
   </g>
   <g id="text_1">
    <path d="M 881.918332 223.917018 
L 883.524582 223.917018 
Q 884.31052 223.917018 884.74177 223.509206 
Q 885.174582 223.101393 885.174582 222.359206 
L 885.174582 220.268581 
Q 885.174582 219.526393 884.74177 219.118581 
Q 884.31052 218.710768 883.524582 218.710768 
L 881.918332 218.710768 
L 881.918332 217.763893 
L 883.494895 217.763893 
Q 884.349582 217.763893 884.95427 218.062331 
Q 885.56052 218.359206 885.877707 218.931081 
Q 886.194895 219.502956 886.194895 220.307643 
L 886.194895 222.320143 
Q 886.194895 223.124831 885.877707 223.696706 
Q 885.56052 224.268581 884.952707 224.567018 
Q 884.344895 224.863893 883.490207 224.863893 
L 881.918332 224.863893 
L 881.918332 223.917018 
z
M 881.244895 217.763893 
L 882.240207 217.763893 
L 882.240207 224.863893 
L 881.244895 224.863893 
L 881.244895 217.763893 
z
M 890.174582 221.338893 
L 890.169895 221.513893 
Q 890.04802 221.738893 889.801145 221.843581 
Q 889.55427 221.948268 889.218332 221.948268 
Q 888.71052 221.948268 888.324582 221.690456 
Q 887.938645 221.431081 887.726145 220.960768 
Q 887.513645 220.488893 887.513645 219.868581 
L 887.513645 219.863893 
Q 887.513645 219.174831 887.744895 218.687331 
Q 887.977707 218.198268 888.424582 217.945143 
Q 888.871457 217.690456 889.496457 217.690456 
Q 890.121457 217.690456 890.565207 217.949831 
Q 891.01052 218.209206 891.24177 218.702956 
Q 891.47302 219.195143 891.47302 219.888893 
L 891.47302 219.893581 
Q 891.47302 220.273268 891.374582 220.706081 
Q 891.277707 221.138893 891.09802 221.562331 
Q 891.068332 221.626393 891.038645 221.692018 
Q 891.01052 221.757643 890.976145 221.821706 
L 889.462082 224.863893 
L 888.387082 224.863893 
L 890.174582 221.338893 
z
M 889.496457 221.040456 
Q 889.965207 221.040456 890.221457 220.723268 
Q 890.477707 220.406081 890.477707 219.829518 
L 890.477707 219.824831 
Q 890.477707 219.263893 890.221457 218.956081 
Q 889.965207 218.648268 889.496457 218.648268 
Q 889.02302 218.648268 888.76677 218.956081 
Q 888.51052 219.263893 888.51052 219.829518 
L 888.51052 219.834206 
Q 888.51052 220.410768 888.76677 220.726393 
Q 889.02302 221.040456 889.496457 221.040456 
z
M 894.775168 224.937331 
Q 894.237668 224.937331 893.818918 224.727956 
Q 893.401731 224.517018 893.140793 224.117018 
Q 892.879856 223.717018 892.792356 223.154518 
L 892.792356 223.149831 
L 893.787668 223.149831 
L 893.787668 223.154518 
Q 893.842356 223.545143 894.100168 223.762331 
Q 894.359543 223.979518 894.775168 223.979518 
Q 895.253293 223.979518 895.514231 223.660768 
Q 895.775168 223.340456 895.775168 222.759206 
L 895.775168 222.163893 
Q 895.775168 221.587331 895.514231 221.268581 
Q 895.253293 220.948268 894.775168 220.948268 
Q 894.515793 220.948268 894.276731 221.095143 
Q 894.037668 221.240456 893.856418 221.504518 
L 892.948606 221.504518 
L 892.948606 217.763893 
L 896.565793 217.763893 
L 896.565793 218.710768 
L 893.943918 218.710768 
L 893.943918 220.307643 
Q 894.129856 220.156081 894.359543 220.073268 
Q 894.589231 219.990456 894.828293 219.990456 
Q 895.443918 219.990456 895.879856 220.245143 
Q 896.317356 220.498268 896.543918 220.987331 
Q 896.772043 221.474831 896.772043 222.163893 
L 896.772043 222.759206 
Q 896.772043 223.448268 896.537668 223.937331 
Q 896.303293 224.424831 895.853293 224.681081 
Q 895.404856 224.937331 894.775168 224.937331 
z
M 900.263254 224.937331 
Q 899.266379 224.937331 898.750754 224.406081 
Q 898.236692 223.873268 898.236692 222.920143 
L 898.236692 219.693581 
Q 898.236692 218.735768 898.753879 218.206081 
Q 899.271067 217.676393 900.263254 217.676393 
Q 901.258567 217.676393 901.774192 218.204518 
Q 902.289817 218.731081 902.289817 219.693581 
L 902.289817 222.920143 
Q 902.289817 223.877956 901.771067 224.407643 
Q 901.253879 224.937331 900.263254 224.937331 
z
M 900.263254 223.990456 
Q 900.789817 223.990456 901.041379 223.713893 
Q 901.292942 223.437331 901.292942 222.920143 
L 901.292942 219.693581 
Q 901.292942 219.174831 901.042942 218.899831 
Q 900.794504 218.623268 900.263254 218.623268 
Q 899.730442 218.623268 899.480442 218.899831 
Q 899.232004 219.174831 899.232004 219.693581 
L 899.232004 222.920143 
Q 899.232004 223.437331 899.483567 223.713893 
Q 899.735129 223.990456 900.263254 223.990456 
z
M 905.780832 224.937331 
Q 904.783957 224.937331 904.268332 224.406081 
Q 903.75427 223.873268 903.75427 222.920143 
L 903.75427 219.693581 
Q 903.75427 218.735768 904.271457 218.206081 
Q 904.788645 217.676393 905.780832 217.676393 
Q 906.776145 217.676393 907.29177 218.204518 
Q 907.807395 218.731081 907.807395 219.693581 
L 907.807395 222.920143 
Q 907.807395 223.877956 907.288645 224.407643 
Q 906.771457 224.937331 905.780832 224.937331 
z
M 905.780832 223.990456 
Q 906.307395 223.990456 906.558957 223.713893 
Q 906.81052 223.437331 906.81052 222.920143 
L 906.81052 219.693581 
Q 906.81052 219.174831 906.56052 218.899831 
Q 906.312082 218.623268 905.780832 218.623268 
Q 905.24802 218.623268 904.99802 218.899831 
Q 904.749582 219.174831 904.749582 219.693581 
L 904.749582 222.920143 
Q 904.749582 223.437331 905.001145 223.713893 
Q 905.252707 223.990456 905.780832 223.990456 
z
" style="fill: #ffffff; stroke: #000000"/>
    <path d="M 881.918332 223.917018 
L 883.524582 223.917018 
Q 884.31052 223.917018 884.74177 223.509206 
Q 885.174582 223.101393 885.174582 222.359206 
L 885.174582 220.268581 
Q 885.174582 219.526393 884.74177 219.118581 
Q 884.31052 218.710768 883.524582 218.710768 
L 881.918332 218.710768 
L 881.918332 217.763893 
L 883.494895 217.763893 
Q 884.349582 217.763893 884.95427 218.062331 
Q 885.56052 218.359206 885.877707 218.931081 
Q 886.194895 219.502956 886.194895 220.307643 
L 886.194895 222.320143 
Q 886.194895 223.124831 885.877707 223.696706 
Q 885.56052 224.268581 884.952707 224.567018 
Q 884.344895 224.863893 883.490207 224.863893 
L 881.918332 224.863893 
L 881.918332 223.917018 
z
M 881.244895 217.763893 
L 882.240207 217.763893 
L 882.240207 224.863893 
L 881.244895 224.863893 
L 881.244895 217.763893 
z
M 890.174582 221.338893 
L 890.169895 221.513893 
Q 890.04802 221.738893 889.801145 221.843581 
Q 889.55427 221.948268 889.218332 221.948268 
Q 888.71052 221.948268 888.324582 221.690456 
Q 887.938645 221.431081 887.726145 220.960768 
Q 887.513645 220.488893 887.513645 219.868581 
L 887.513645 219.863893 
Q 887.513645 219.174831 887.744895 218.687331 
Q 887.977707 218.198268 888.424582 217.945143 
Q 888.871457 217.690456 889.496457 217.690456 
Q 890.121457 217.690456 890.565207 217.949831 
Q 891.01052 218.209206 891.24177 218.702956 
Q 891.47302 219.195143 891.47302 219.888893 
L 891.47302 219.893581 
Q 891.47302 220.273268 891.374582 220.706081 
Q 891.277707 221.138893 891.09802 221.562331 
Q 891.068332 221.626393 891.038645 221.692018 
Q 891.01052 221.757643 890.976145 221.821706 
L 889.462082 224.863893 
L 888.387082 224.863893 
L 890.174582 221.338893 
z
M 889.496457 221.040456 
Q 889.965207 221.040456 890.221457 220.723268 
Q 890.477707 220.406081 890.477707 219.829518 
L 890.477707 219.824831 
Q 890.477707 219.263893 890.221457 218.956081 
Q 889.965207 218.648268 889.496457 218.648268 
Q 889.02302 218.648268 888.76677 218.956081 
Q 888.51052 219.263893 888.51052 219.829518 
L 888.51052 219.834206 
Q 888.51052 220.410768 888.76677 220.726393 
Q 889.02302 221.040456 889.496457 221.040456 
z
M 894.775168 224.937331 
Q 894.237668 224.937331 893.818918 224.727956 
Q 893.401731 224.517018 893.140793 224.117018 
Q 892.879856 223.717018 892.792356 223.154518 
L 892.792356 223.149831 
L 893.787668 223.149831 
L 893.787668 223.154518 
Q 893.842356 223.545143 894.100168 223.762331 
Q 894.359543 223.979518 894.775168 223.979518 
Q 895.253293 223.979518 895.514231 223.660768 
Q 895.775168 223.340456 895.775168 222.759206 
L 895.775168 222.163893 
Q 895.775168 221.587331 895.514231 221.268581 
Q 895.253293 220.948268 894.775168 220.948268 
Q 894.515793 220.948268 894.276731 221.095143 
Q 894.037668 221.240456 893.856418 221.504518 
L 892.948606 221.504518 
L 892.948606 217.763893 
L 896.565793 217.763893 
L 896.565793 218.710768 
L 893.943918 218.710768 
L 893.943918 220.307643 
Q 894.129856 220.156081 894.359543 220.073268 
Q 894.589231 219.990456 894.828293 219.990456 
Q 895.443918 219.990456 895.879856 220.245143 
Q 896.317356 220.498268 896.543918 220.987331 
Q 896.772043 221.474831 896.772043 222.163893 
L 896.772043 222.759206 
Q 896.772043 223.448268 896.537668 223.937331 
Q 896.303293 224.424831 895.853293 224.681081 
Q 895.404856 224.937331 894.775168 224.937331 
z
M 900.263254 224.937331 
Q 899.266379 224.937331 898.750754 224.406081 
Q 898.236692 223.873268 898.236692 222.920143 
L 898.236692 219.693581 
Q 898.236692 218.735768 898.753879 218.206081 
Q 899.271067 217.676393 900.263254 217.676393 
Q 901.258567 217.676393 901.774192 218.204518 
Q 902.289817 218.731081 902.289817 219.693581 
L 902.289817 222.920143 
Q 902.289817 223.877956 901.771067 224.407643 
Q 901.253879 224.937331 900.263254 224.937331 
z
M 900.263254 223.990456 
Q 900.789817 223.990456 901.041379 223.713893 
Q 901.292942 223.437331 901.292942 222.920143 
L 901.292942 219.693581 
Q 901.292942 219.174831 901.042942 218.899831 
Q 900.794504 218.623268 900.263254 218.623268 
Q 899.730442 218.623268 899.480442 218.899831 
Q 899.232004 219.174831 899.232004 219.693581 
L 899.232004 222.920143 
Q 899.232004 223.437331 899.483567 223.713893 
Q 899.735129 223.990456 900.263254 223.990456 
z
M 905.780832 224.937331 
Q 904.783957 224.937331 904.268332 224.406081 
Q 903.75427 223.873268 903.75427 222.920143 
L 903.75427 219.693581 
Q 903.75427 218.735768 904.271457 218.206081 
Q 904.788645 217.676393 905.780832 217.676393 
Q 906.776145 217.676393 907.29177 218.204518 
Q 907.807395 218.731081 907.807395 219.693581 
L 907.807395 222.920143 
Q 907.807395 223.877956 907.288645 224.407643 
Q 906.771457 224.937331 905.780832 224.937331 
z
M 905.780832 223.990456 
Q 906.307395 223.990456 906.558957 223.713893 
Q 906.81052 223.437331 906.81052 222.920143 
L 906.81052 219.693581 
Q 906.81052 219.174831 906.56052 218.899831 
Q 906.312082 218.623268 905.780832 218.623268 
Q 905.24802 218.623268 904.99802 218.899831 
Q 904.749582 219.174831 904.749582 219.693581 
L 904.749582 222.920143 
Q 904.749582 223.437331 905.001145 223.713893 
Q 905.252707 223.990456 905.780832 223.990456 
z
" style="fill: #ffffff"/>
   </g>
  </g>
 </g>
 <defs>
  <clipPath id="p3832355945">
   <rect x="144" y="77.76" width="892.8" height="498.96"/>
  </clipPath>
 </defs>
</svg>
