<?xml version="1.0" encoding="utf-8" standalone="no"?>
<!DOCTYPE svg PUBLIC "-//W3C//DTD SVG 1.1//EN"
  "http://www.w3.org/Graphics/SVG/1.1/DTD/svg11.dtd">
<svg xmlns:xlink="http://www.w3.org/1999/xlink" width="1152pt" height="648pt" viewBox="0 0 1152 648" xmlns="http://www.w3.org/2000/svg" version="1.1">
 <metadata>
  <rdf:RDF xmlns:dc="http://purl.org/dc/elements/1.1/" xmlns:cc="http://creativecommons.org/ns#" xmlns:rdf="http://www.w3.org/1999/02/22-rdf-syntax-ns#">
   <cc:Work>
    <dc:type rdf:resource="http://purl.org/dc/dcmitype/StillImage"/>
    <dc:date>2025-09-25T10:32:24.082179</dc:date>
    <dc:format>image/svg+xml</dc:format>
    <dc:creator>
     <cc:Agent>
      <dc:title>Matplotlib v3.10.3, https://matplotlib.org/</dc:title>
     </cc:Agent>
    </dc:creator>
   </cc:Work>
  </rdf:RDF>
 </metadata>
 <defs>
  <style type="text/css">*{stroke-linejoin: round; stroke-linecap: butt}</style>
 </defs>
 <g id="figure_1">
  <g id="patch_1">
   <path d="M 0 648 
L 1152 648 
L 1152 0 
L 0 0 
L 0 648 
z
" style="fill: none"/>
  </g>
  <g id="axes_1">
   <g id="line2d_1">
    <path d="M 206.496 504.218885 
L 214.063074 493.743538 
L 221.630149 483.580213 
L 229.197223 473.719626 
L 236.764298 464.152767 
L 244.331372 454.870893 
L 251.898446 445.865522 
L 259.465521 437.128425 
L 267.032595 428.651616 
L 274.599669 420.427347 
L 282.166744 412.448098 
L 289.733818 404.706577 
L 297.300893 397.195706 
L 304.867967 389.908616 
L 312.435041 382.838646 
L 320.002116 375.97933 
L 327.56919 369.324396 
L 335.136264 362.867757 
L 342.703339 356.603509 
L 350.270413 350.525921 
L 357.837488 344.629436 
L 365.404562 338.908659 
L 372.971636 333.358357 
L 380.538711 327.973453 
L 388.105785 322.749021 
L 395.67286 317.68028 
L 403.239934 312.762593 
L 410.807008 307.99146 
L 418.374083 303.362516 
L 425.941157 298.871525 
L 433.508231 294.514378 
L 441.075306 290.287087 
L 448.64238 286.185783 
L 456.209455 282.206713 
L 463.776529 278.346236 
L 471.343603 274.600818 
L 478.910678 270.967031 
L 486.477752 267.441548 
L 494.044826 264.021144 
L 501.611901 260.702687 
L 509.178975 257.483139 
L 516.74605 254.359554 
L 524.313124 251.329071 
L 531.880198 248.388917 
L 539.447273 245.536399 
L 547.014347 242.768907 
L 554.581421 240.083906 
L 562.148496 237.478939 
L 569.71557 234.95162 
L 577.282645 232.499636 
L 584.849719 230.12074 
L 592.416793 227.812756 
L 599.983868 225.573569 
L 607.550942 223.40113 
L 615.118017 221.293449 
L 622.685091 219.248596 
L 630.252165 217.264699 
L 637.81924 215.339941 
L 645.386314 213.472559 
L 652.953388 211.660843 
L 660.520463 209.903134 
L 668.087537 208.197823 
L 675.654612 206.543348 
L 683.221686 204.938193 
L 690.78876 203.380888 
L 698.355835 201.870008 
L 705.922909 200.404169 
L 713.489983 198.982027 
L 721.057058 197.602281 
L 728.624132 196.263666 
L 736.191207 194.964957 
L 743.758281 193.704965 
L 751.325355 192.482534 
L 758.89243 191.296547 
L 766.459504 190.145915 
L 774.026579 189.029586 
L 781.593653 187.946537 
L 789.160727 186.895775 
L 796.727802 185.876339 
L 804.294876 184.887294 
L 811.86195 183.927735 
L 819.429025 182.996782 
L 826.996099 182.093583 
L 834.563174 181.217311 
L 842.130248 180.367163 
L 849.697322 179.54236 
L 857.264397 178.742146 
L 864.831471 177.965789 
L 872.398545 177.212577 
L 879.96562 176.48182 
L 887.532694 175.77285 
L 895.099769 175.085016 
L 902.666843 174.417688 
L 910.233917 173.770256 
L 917.800992 173.142125 
L 925.368066 172.532721 
L 932.93514 171.941486 
L 940.502215 171.367876 
L 948.069289 170.811369 
L 955.636364 170.271452 
" clip-path="url(#p85826dd336)" style="fill: none; stroke: #79f2f2; stroke-width: 3; stroke-linecap: round"/>
   </g>
   <g id="text_1">
    <path d="M 964.541344 171.991458 
Q 964.028844 171.991458 963.569469 171.894583 
Q 963.111656 171.796145 962.713219 171.600833 
Q 962.314781 171.40552 961.967906 171.11177 
L 961.967906 171.11177 
L 962.588219 170.350833 
L 962.588219 170.350833 
Q 962.994469 170.702395 963.481969 170.878958 
Q 963.971031 171.053958 964.541344 171.053958 
Q 965.313219 171.053958 965.738219 170.76802 
Q 966.163219 170.482083 966.163219 169.960208 
L 966.163219 169.95552 
Q 966.163219 169.583645 965.969469 169.366458 
Q 965.777281 169.14927 965.471031 169.044583 
Q 965.166344 168.939895 964.683531 168.850833 
Q 964.667906 168.846145 964.650719 168.846145 
Q 964.635094 168.846145 964.619469 168.841458 
L 964.546031 168.827395 
Q 963.833531 168.70552 963.386656 168.552395 
Q 962.939781 168.397708 962.622594 167.989895 
Q 962.305406 167.582083 962.305406 166.83052 
L 962.305406 166.825833 
Q 962.305406 166.166458 962.600719 165.700833 
Q 962.896031 165.233645 963.461656 164.989895 
Q 964.028844 164.744583 964.824156 164.744583 
Q 965.205406 164.744583 965.574156 164.828958 
Q 965.942906 164.91177 966.300719 165.075833 
Q 966.660094 165.238333 967.006969 165.48677 
L 967.006969 165.48677 
L 966.441344 166.278958 
L 966.441344 166.278958 
Q 966.035094 165.98052 965.631969 165.832083 
Q 965.230406 165.682083 964.824156 165.682083 
Q 964.097594 165.682083 963.694469 165.972708 
Q 963.291344 166.263333 963.291344 166.796145 
L 963.291344 166.800833 
Q 963.291344 167.166458 963.499156 167.377395 
Q 963.706969 167.58677 964.016344 167.68677 
Q 964.327281 167.78677 964.878844 167.894583 
Q 964.897594 167.89927 964.914781 167.902395 
Q 964.931969 167.903958 964.952281 167.908645 
Q 964.975719 167.913333 965.005406 167.919583 
Q 965.035094 167.92427 965.058531 167.928958 
Q 965.703844 168.060208 966.135094 168.241458 
Q 966.567906 168.421145 966.858531 168.82427 
Q 967.149156 169.227395 967.149156 169.925833 
L 967.149156 169.935208 
Q 967.149156 170.585208 966.841344 171.046145 
Q 966.533531 171.507083 965.949156 171.74927 
Q 965.366344 171.991458 964.541344 171.991458 
z
M 969.239195 170.971145 
L 970.845445 170.971145 
Q 971.631383 170.971145 972.062633 170.563333 
Q 972.495445 170.15552 972.495445 169.413333 
L 972.495445 167.322708 
Q 972.495445 166.58052 972.062633 166.172708 
Q 971.631383 165.764895 970.845445 165.764895 
L 969.239195 165.764895 
L 969.239195 164.81802 
L 970.815758 164.81802 
Q 971.670445 164.81802 972.275133 165.116458 
Q 972.881383 165.413333 973.19857 165.985208 
Q 973.515758 166.557083 973.515758 167.36177 
L 973.515758 169.37427 
Q 973.515758 170.178958 973.19857 170.750833 
Q 972.881383 171.322708 972.27357 171.621145 
Q 971.665758 171.91802 970.81107 171.91802 
L 969.239195 171.91802 
L 969.239195 170.971145 
z
M 968.565758 164.81802 
L 969.56107 164.81802 
L 969.56107 171.91802 
L 968.565758 171.91802 
L 968.565758 164.81802 
z
M 977.06107 171.991458 
Q 976.41732 171.991458 975.928258 171.747708 
Q 975.440758 171.502395 975.17357 171.05552 
Q 974.907945 170.608645 974.907945 170.01802 
L 974.907945 169.900833 
Q 974.907945 169.369583 975.17357 168.900833 
Q 975.440758 168.432083 975.884508 168.19302 
Q 975.507945 167.98677 975.281383 167.59927 
Q 975.05482 167.210208 975.05482 166.78052 
L 975.05482 166.610208 
Q 975.05482 166.053958 975.303258 165.632083 
Q 975.551695 165.208645 976.006383 164.977395 
Q 976.46107 164.744583 977.06107 164.744583 
Q 977.66107 164.744583 978.115758 164.977395 
Q 978.570445 165.208645 978.818883 165.632083 
Q 979.06732 166.053958 979.06732 166.610208 
L 979.06732 166.78052 
Q 979.06732 167.221145 978.83607 167.607083 
Q 978.60482 167.991458 978.22357 168.19302 
Q 978.672008 168.43677 978.94232 168.903958 
Q 979.214195 169.369583 979.214195 169.900833 
L 979.214195 170.01802 
Q 979.214195 170.608645 978.94857 171.05552 
Q 978.682945 171.502395 978.193883 171.747708 
Q 977.706383 171.991458 977.06107 171.991458 
z
M 977.06107 171.033645 
Q 977.407945 171.033645 977.670445 170.897708 
Q 977.934508 170.760208 978.078258 170.514895 
Q 978.22357 170.26802 978.22357 169.944583 
L 978.22357 169.877395 
Q 978.22357 169.54927 978.078258 169.303958 
Q 977.934508 169.057083 977.670445 168.921145 
Q 977.407945 168.783645 977.06107 168.783645 
Q 976.714195 168.783645 976.450133 168.921145 
Q 976.187633 169.057083 976.04232 169.30552 
Q 975.89857 169.553958 975.89857 169.882083 
L 975.89857 169.95552 
Q 975.89857 170.277395 976.04232 170.521145 
Q 976.187633 170.764895 976.450133 170.89927 
Q 976.714195 171.033645 977.06107 171.033645 
z
M 977.06107 167.825833 
Q 977.359508 167.825833 977.587633 167.697708 
Q 977.81732 167.56802 977.943883 167.328958 
Q 978.072008 167.088333 978.072008 166.775833 
L 978.072008 166.708645 
Q 978.072008 166.410208 977.943883 166.18052 
Q 977.81732 165.950833 977.587633 165.827395 
Q 977.359508 165.702395 977.06107 165.702395 
Q 976.762633 165.702395 976.532945 165.827395 
Q 976.30482 165.950833 976.176695 166.18052 
Q 976.050133 166.410208 976.050133 166.713333 
L 976.050133 166.78677 
Q 976.050133 167.09302 976.176695 167.33052 
Q 976.30482 167.56802 976.532945 167.697708 
Q 976.762633 167.825833 977.06107 167.825833 
z
M 982.462242 164.81802 
L 983.457555 164.81802 
L 983.457555 171.91802 
L 982.462242 171.91802 
L 982.462242 164.81802 
z
M 982.945055 170.971145 
L 987.021617 170.971145 
L 987.021617 171.91802 
L 982.945055 171.91802 
L 982.945055 170.971145 
z
M 982.945055 167.919583 
L 986.48568 167.919583 
L 986.48568 168.866458 
L 982.945055 168.866458 
L 982.945055 167.919583 
z
M 982.945055 164.81802 
L 987.021617 164.81802 
L 987.021617 165.764895 
L 982.945055 165.764895 
L 982.945055 164.81802 
z
M 989.337242 170.608645 
Q 989.337242 170.794583 989.41693 170.894583 
Q 989.49818 170.994583 989.643492 170.994583 
L 990.112242 170.994583 
L 990.112242 171.94302 
L 989.526305 171.94302 
Q 988.96068 171.94302 988.649742 171.591458 
Q 988.340367 171.239895 988.340367 170.59927 
L 988.340367 164.81802 
L 989.337242 164.81802 
L 989.337242 170.608645 
z
M 991.235875 164.81802 
L 992.23275 164.81802 
L 992.23275 165.814895 
L 991.235875 165.814895 
L 991.235875 164.81802 
z
M 991.235875 166.84927 
L 992.23275 166.84927 
L 992.23275 171.91802 
L 991.235875 171.91802 
L 991.235875 166.84927 
z
M 995.064391 171.94302 
Q 994.448766 171.94302 994.162828 171.603958 
Q 993.876891 171.263333 993.876891 170.59927 
L 993.876891 165.37427 
L 994.873766 165.37427 
L 994.873766 170.608645 
Q 994.873766 170.794583 994.947203 170.894583 
Q 995.020641 170.994583 995.161266 170.994583 
L 995.640953 170.994583 
L 995.640953 171.94302 
L 995.064391 171.94302 
z
M 993.355016 166.84927 
L 995.640953 166.84927 
L 995.640953 167.747708 
L 993.355016 167.747708 
L 993.355016 166.84927 
z
M 999.082359 171.991458 
Q 998.379234 171.991458 997.880797 171.727395 
Q 997.383922 171.463333 997.121422 170.953958 
Q 996.860484 170.44302 996.860484 169.721145 
L 996.860484 169.14927 
Q 996.860484 168.397708 997.112047 167.866458 
Q 997.363609 167.333645 997.841734 167.05552 
Q 998.321422 166.775833 998.994859 166.775833 
Q 999.629234 166.775833 1000.077672 167.094583 
Q 1000.527672 167.41177 1000.763609 168.01177 
Q 1001.001109 168.61177 1001.001109 169.452395 
L 1001.001109 169.783645 
L 997.583922 169.783645 
L 997.583922 168.983645 
L 1000.054234 168.983645 
L 1000.054234 168.983645 
Q 1000.010484 168.363333 999.733922 168.019583 
Q 999.458922 167.67427 998.994859 167.67427 
Q 998.427672 167.67427 998.118297 168.046145 
Q 997.808922 168.416458 997.808922 169.096145 
L 997.808922 169.739895 
Q 997.808922 170.369583 998.140172 170.707083 
Q 998.472984 171.044583 999.082359 171.044583 
Q 999.385484 171.044583 999.682359 170.922708 
Q 999.980797 170.79927 1000.215172 170.58052 
L 1000.215172 170.58052 
L 1000.869859 171.233645 
L 1000.869859 171.233645 
Q 1000.493297 171.596145 1000.024547 171.794583 
Q 999.555797 171.991458 999.082359 171.991458 
z
M 1009.029234 168.094583 
L 1009.029234 169.335208 
Q 1009.029234 170.125833 1008.721422 170.728958 
Q 1008.413609 171.332083 1007.849547 171.66177 
Q 1007.285484 171.991458 1006.543297 171.991458 
Q 1005.791734 171.991458 1005.222984 171.682083 
Q 1004.654234 171.371145 1004.341734 170.80552 
Q 1004.029234 170.238333 1004.029234 169.491458 
L 1004.029234 167.396145 
Q 1004.029234 166.60552 1004.337047 166.00552 
Q 1004.644859 165.403958 1005.207359 165.07427 
Q 1005.771422 164.744583 1006.513609 164.744583 
Q 1007.124547 164.744583 1007.638609 165.007083 
Q 1008.154234 165.26802 1008.501109 165.746145 
Q 1008.847984 166.22427 1008.969859 166.853958 
L 1008.969859 166.853958 
L 1007.891734 166.853958 
L 1007.891734 166.853958 
Q 1007.802672 166.497708 1007.593297 166.241458 
Q 1007.383922 165.985208 1007.099547 165.850833 
Q 1006.816734 165.716458 1006.513609 165.716458 
Q 1006.074547 165.716458 1005.741734 165.927395 
Q 1005.410484 166.13677 1005.229234 166.514895 
Q 1005.049547 166.89302 1005.049547 167.396145 
L 1005.049547 169.491458 
Q 1005.049547 169.950833 1005.233922 170.294583 
Q 1005.419859 170.638333 1005.758922 170.828958 
Q 1006.099547 171.019583 1006.543297 171.019583 
Q 1006.982359 171.019583 1007.313609 170.822708 
Q 1007.646422 170.62427 1007.827672 170.24927 
Q 1008.008922 169.872708 1008.008922 169.353958 
L 1008.008922 169.046145 
L 1006.568297 169.046145 
L 1006.568297 168.094583 
L 1009.029234 168.094583 
z
M 1012.617516 171.991458 
Q 1011.914391 171.991458 1011.415953 171.727395 
Q 1010.919078 171.463333 1010.656578 170.953958 
Q 1010.395641 170.44302 1010.395641 169.721145 
L 1010.395641 169.14927 
Q 1010.395641 168.397708 1010.647203 167.866458 
Q 1010.898766 167.333645 1011.376891 167.05552 
Q 1011.856578 166.775833 1012.530016 166.775833 
Q 1013.164391 166.775833 1013.612828 167.094583 
Q 1014.062828 167.41177 1014.298766 168.01177 
Q 1014.536266 168.61177 1014.536266 169.452395 
L 1014.536266 169.783645 
L 1011.119078 169.783645 
L 1011.119078 168.983645 
L 1013.589391 168.983645 
L 1013.589391 168.983645 
Q 1013.545641 168.363333 1013.269078 168.019583 
Q 1012.994078 167.67427 1012.530016 167.67427 
Q 1011.962828 167.67427 1011.653453 168.046145 
Q 1011.344078 168.416458 1011.344078 169.096145 
L 1011.344078 169.739895 
Q 1011.344078 170.369583 1011.675328 170.707083 
Q 1012.008141 171.044583 1012.617516 171.044583 
Q 1012.920641 171.044583 1013.217516 170.922708 
Q 1013.515953 170.79927 1013.750328 170.58052 
L 1013.750328 170.58052 
L 1014.405016 171.233645 
L 1014.405016 171.233645 
Q 1014.028453 171.596145 1013.559703 171.794583 
Q 1013.090953 171.991458 1012.617516 171.991458 
z
M 1015.903844 166.84927 
L 1016.900719 166.84927 
L 1016.900719 171.91802 
L 1015.903844 171.91802 
L 1015.903844 166.84927 
z
M 1018.980406 168.846145 
Q 1018.980406 168.310208 1018.702281 168.01802 
Q 1018.424156 167.72427 1017.921031 167.72427 
Q 1017.431969 167.72427 1017.166344 167.983645 
Q 1016.900719 168.241458 1016.900719 168.710208 
L 1016.797594 167.733645 
Q 1017.031969 167.27427 1017.410094 167.025833 
Q 1017.788219 166.775833 1018.247594 166.775833 
Q 1019.072594 166.775833 1019.524156 167.316458 
Q 1019.975719 167.85552 1019.975719 168.841458 
L 1019.975719 171.91802 
L 1018.980406 171.91802 
L 1018.980406 168.846145 
z
M 1023.424156 171.991458 
Q 1022.886656 171.991458 1022.467906 171.782083 
Q 1022.050719 171.571145 1021.789781 171.171145 
Q 1021.528844 170.771145 1021.441344 170.208645 
L 1021.441344 170.203958 
L 1022.436656 170.203958 
L 1022.436656 170.208645 
Q 1022.491344 170.59927 1022.749156 170.816458 
Q 1023.008531 171.033645 1023.424156 171.033645 
Q 1023.902281 171.033645 1024.163219 170.714895 
Q 1024.424156 170.394583 1024.424156 169.813333 
L 1024.424156 169.21802 
Q 1024.424156 168.641458 1024.163219 168.322708 
Q 1023.902281 168.002395 1023.424156 168.002395 
Q 1023.164781 168.002395 1022.925719 168.14927 
Q 1022.686656 168.294583 1022.505406 168.558645 
L 1021.597594 168.558645 
L 1021.597594 164.81802 
L 1025.214781 164.81802 
L 1025.214781 165.764895 
L 1022.592906 165.764895 
L 1022.592906 167.36177 
Q 1022.778844 167.210208 1023.008531 167.127395 
Q 1023.238219 167.044583 1023.477281 167.044583 
Q 1024.092906 167.044583 1024.528844 167.29927 
Q 1024.966344 167.552395 1025.192906 168.041458 
Q 1025.421031 168.528958 1025.421031 169.21802 
L 1025.421031 169.813333 
Q 1025.421031 170.502395 1025.186656 170.991458 
Q 1024.952281 171.478958 1024.502281 171.735208 
Q 1024.053844 171.991458 1023.424156 171.991458 
z
" style="fill: #ffffff; stroke: #000000"/>
    <path d="M 964.541344 171.991458 
Q 964.028844 171.991458 963.569469 171.894583 
Q 963.111656 171.796145 962.713219 171.600833 
Q 962.314781 171.40552 961.967906 171.11177 
L 961.967906 171.11177 
L 962.588219 170.350833 
L 962.588219 170.350833 
Q 962.994469 170.702395 963.481969 170.878958 
Q 963.971031 171.053958 964.541344 171.053958 
Q 965.313219 171.053958 965.738219 170.76802 
Q 966.163219 170.482083 966.163219 169.960208 
L 966.163219 169.95552 
Q 966.163219 169.583645 965.969469 169.366458 
Q 965.777281 169.14927 965.471031 169.044583 
Q 965.166344 168.939895 964.683531 168.850833 
Q 964.667906 168.846145 964.650719 168.846145 
Q 964.635094 168.846145 964.619469 168.841458 
L 964.546031 168.827395 
Q 963.833531 168.70552 963.386656 168.552395 
Q 962.939781 168.397708 962.622594 167.989895 
Q 962.305406 167.582083 962.305406 166.83052 
L 962.305406 166.825833 
Q 962.305406 166.166458 962.600719 165.700833 
Q 962.896031 165.233645 963.461656 164.989895 
Q 964.028844 164.744583 964.824156 164.744583 
Q 965.205406 164.744583 965.574156 164.828958 
Q 965.942906 164.91177 966.300719 165.075833 
Q 966.660094 165.238333 967.006969 165.48677 
L 967.006969 165.48677 
L 966.441344 166.278958 
L 966.441344 166.278958 
Q 966.035094 165.98052 965.631969 165.832083 
Q 965.230406 165.682083 964.824156 165.682083 
Q 964.097594 165.682083 963.694469 165.972708 
Q 963.291344 166.263333 963.291344 166.796145 
L 963.291344 166.800833 
Q 963.291344 167.166458 963.499156 167.377395 
Q 963.706969 167.58677 964.016344 167.68677 
Q 964.327281 167.78677 964.878844 167.894583 
Q 964.897594 167.89927 964.914781 167.902395 
Q 964.931969 167.903958 964.952281 167.908645 
Q 964.975719 167.913333 965.005406 167.919583 
Q 965.035094 167.92427 965.058531 167.928958 
Q 965.703844 168.060208 966.135094 168.241458 
Q 966.567906 168.421145 966.858531 168.82427 
Q 967.149156 169.227395 967.149156 169.925833 
L 967.149156 169.935208 
Q 967.149156 170.585208 966.841344 171.046145 
Q 966.533531 171.507083 965.949156 171.74927 
Q 965.366344 171.991458 964.541344 171.991458 
z
M 969.239195 170.971145 
L 970.845445 170.971145 
Q 971.631383 170.971145 972.062633 170.563333 
Q 972.495445 170.15552 972.495445 169.413333 
L 972.495445 167.322708 
Q 972.495445 166.58052 972.062633 166.172708 
Q 971.631383 165.764895 970.845445 165.764895 
L 969.239195 165.764895 
L 969.239195 164.81802 
L 970.815758 164.81802 
Q 971.670445 164.81802 972.275133 165.116458 
Q 972.881383 165.413333 973.19857 165.985208 
Q 973.515758 166.557083 973.515758 167.36177 
L 973.515758 169.37427 
Q 973.515758 170.178958 973.19857 170.750833 
Q 972.881383 171.322708 972.27357 171.621145 
Q 971.665758 171.91802 970.81107 171.91802 
L 969.239195 171.91802 
L 969.239195 170.971145 
z
M 968.565758 164.81802 
L 969.56107 164.81802 
L 969.56107 171.91802 
L 968.565758 171.91802 
L 968.565758 164.81802 
z
M 977.06107 171.991458 
Q 976.41732 171.991458 975.928258 171.747708 
Q 975.440758 171.502395 975.17357 171.05552 
Q 974.907945 170.608645 974.907945 170.01802 
L 974.907945 169.900833 
Q 974.907945 169.369583 975.17357 168.900833 
Q 975.440758 168.432083 975.884508 168.19302 
Q 975.507945 167.98677 975.281383 167.59927 
Q 975.05482 167.210208 975.05482 166.78052 
L 975.05482 166.610208 
Q 975.05482 166.053958 975.303258 165.632083 
Q 975.551695 165.208645 976.006383 164.977395 
Q 976.46107 164.744583 977.06107 164.744583 
Q 977.66107 164.744583 978.115758 164.977395 
Q 978.570445 165.208645 978.818883 165.632083 
Q 979.06732 166.053958 979.06732 166.610208 
L 979.06732 166.78052 
Q 979.06732 167.221145 978.83607 167.607083 
Q 978.60482 167.991458 978.22357 168.19302 
Q 978.672008 168.43677 978.94232 168.903958 
Q 979.214195 169.369583 979.214195 169.900833 
L 979.214195 170.01802 
Q 979.214195 170.608645 978.94857 171.05552 
Q 978.682945 171.502395 978.193883 171.747708 
Q 977.706383 171.991458 977.06107 171.991458 
z
M 977.06107 171.033645 
Q 977.407945 171.033645 977.670445 170.897708 
Q 977.934508 170.760208 978.078258 170.514895 
Q 978.22357 170.26802 978.22357 169.944583 
L 978.22357 169.877395 
Q 978.22357 169.54927 978.078258 169.303958 
Q 977.934508 169.057083 977.670445 168.921145 
Q 977.407945 168.783645 977.06107 168.783645 
Q 976.714195 168.783645 976.450133 168.921145 
Q 976.187633 169.057083 976.04232 169.30552 
Q 975.89857 169.553958 975.89857 169.882083 
L 975.89857 169.95552 
Q 975.89857 170.277395 976.04232 170.521145 
Q 976.187633 170.764895 976.450133 170.89927 
Q 976.714195 171.033645 977.06107 171.033645 
z
M 977.06107 167.825833 
Q 977.359508 167.825833 977.587633 167.697708 
Q 977.81732 167.56802 977.943883 167.328958 
Q 978.072008 167.088333 978.072008 166.775833 
L 978.072008 166.708645 
Q 978.072008 166.410208 977.943883 166.18052 
Q 977.81732 165.950833 977.587633 165.827395 
Q 977.359508 165.702395 977.06107 165.702395 
Q 976.762633 165.702395 976.532945 165.827395 
Q 976.30482 165.950833 976.176695 166.18052 
Q 976.050133 166.410208 976.050133 166.713333 
L 976.050133 166.78677 
Q 976.050133 167.09302 976.176695 167.33052 
Q 976.30482 167.56802 976.532945 167.697708 
Q 976.762633 167.825833 977.06107 167.825833 
z
M 982.462242 164.81802 
L 983.457555 164.81802 
L 983.457555 171.91802 
L 982.462242 171.91802 
L 982.462242 164.81802 
z
M 982.945055 170.971145 
L 987.021617 170.971145 
L 987.021617 171.91802 
L 982.945055 171.91802 
L 982.945055 170.971145 
z
M 982.945055 167.919583 
L 986.48568 167.919583 
L 986.48568 168.866458 
L 982.945055 168.866458 
L 982.945055 167.919583 
z
M 982.945055 164.81802 
L 987.021617 164.81802 
L 987.021617 165.764895 
L 982.945055 165.764895 
L 982.945055 164.81802 
z
M 989.337242 170.608645 
Q 989.337242 170.794583 989.41693 170.894583 
Q 989.49818 170.994583 989.643492 170.994583 
L 990.112242 170.994583 
L 990.112242 171.94302 
L 989.526305 171.94302 
Q 988.96068 171.94302 988.649742 171.591458 
Q 988.340367 171.239895 988.340367 170.59927 
L 988.340367 164.81802 
L 989.337242 164.81802 
L 989.337242 170.608645 
z
M 991.235875 164.81802 
L 992.23275 164.81802 
L 992.23275 165.814895 
L 991.235875 165.814895 
L 991.235875 164.81802 
z
M 991.235875 166.84927 
L 992.23275 166.84927 
L 992.23275 171.91802 
L 991.235875 171.91802 
L 991.235875 166.84927 
z
M 995.064391 171.94302 
Q 994.448766 171.94302 994.162828 171.603958 
Q 993.876891 171.263333 993.876891 170.59927 
L 993.876891 165.37427 
L 994.873766 165.37427 
L 994.873766 170.608645 
Q 994.873766 170.794583 994.947203 170.894583 
Q 995.020641 170.994583 995.161266 170.994583 
L 995.640953 170.994583 
L 995.640953 171.94302 
L 995.064391 171.94302 
z
M 993.355016 166.84927 
L 995.640953 166.84927 
L 995.640953 167.747708 
L 993.355016 167.747708 
L 993.355016 166.84927 
z
M 999.082359 171.991458 
Q 998.379234 171.991458 997.880797 171.727395 
Q 997.383922 171.463333 997.121422 170.953958 
Q 996.860484 170.44302 996.860484 169.721145 
L 996.860484 169.14927 
Q 996.860484 168.397708 997.112047 167.866458 
Q 997.363609 167.333645 997.841734 167.05552 
Q 998.321422 166.775833 998.994859 166.775833 
Q 999.629234 166.775833 1000.077672 167.094583 
Q 1000.527672 167.41177 1000.763609 168.01177 
Q 1001.001109 168.61177 1001.001109 169.452395 
L 1001.001109 169.783645 
L 997.583922 169.783645 
L 997.583922 168.983645 
L 1000.054234 168.983645 
L 1000.054234 168.983645 
Q 1000.010484 168.363333 999.733922 168.019583 
Q 999.458922 167.67427 998.994859 167.67427 
Q 998.427672 167.67427 998.118297 168.046145 
Q 997.808922 168.416458 997.808922 169.096145 
L 997.808922 169.739895 
Q 997.808922 170.369583 998.140172 170.707083 
Q 998.472984 171.044583 999.082359 171.044583 
Q 999.385484 171.044583 999.682359 170.922708 
Q 999.980797 170.79927 1000.215172 170.58052 
L 1000.215172 170.58052 
L 1000.869859 171.233645 
L 1000.869859 171.233645 
Q 1000.493297 171.596145 1000.024547 171.794583 
Q 999.555797 171.991458 999.082359 171.991458 
z
M 1009.029234 168.094583 
L 1009.029234 169.335208 
Q 1009.029234 170.125833 1008.721422 170.728958 
Q 1008.413609 171.332083 1007.849547 171.66177 
Q 1007.285484 171.991458 1006.543297 171.991458 
Q 1005.791734 171.991458 1005.222984 171.682083 
Q 1004.654234 171.371145 1004.341734 170.80552 
Q 1004.029234 170.238333 1004.029234 169.491458 
L 1004.029234 167.396145 
Q 1004.029234 166.60552 1004.337047 166.00552 
Q 1004.644859 165.403958 1005.207359 165.07427 
Q 1005.771422 164.744583 1006.513609 164.744583 
Q 1007.124547 164.744583 1007.638609 165.007083 
Q 1008.154234 165.26802 1008.501109 165.746145 
Q 1008.847984 166.22427 1008.969859 166.853958 
L 1008.969859 166.853958 
L 1007.891734 166.853958 
L 1007.891734 166.853958 
Q 1007.802672 166.497708 1007.593297 166.241458 
Q 1007.383922 165.985208 1007.099547 165.850833 
Q 1006.816734 165.716458 1006.513609 165.716458 
Q 1006.074547 165.716458 1005.741734 165.927395 
Q 1005.410484 166.13677 1005.229234 166.514895 
Q 1005.049547 166.89302 1005.049547 167.396145 
L 1005.049547 169.491458 
Q 1005.049547 169.950833 1005.233922 170.294583 
Q 1005.419859 170.638333 1005.758922 170.828958 
Q 1006.099547 171.019583 1006.543297 171.019583 
Q 1006.982359 171.019583 1007.313609 170.822708 
Q 1007.646422 170.62427 1007.827672 170.24927 
Q 1008.008922 169.872708 1008.008922 169.353958 
L 1008.008922 169.046145 
L 1006.568297 169.046145 
L 1006.568297 168.094583 
L 1009.029234 168.094583 
z
M 1012.617516 171.991458 
Q 1011.914391 171.991458 1011.415953 171.727395 
Q 1010.919078 171.463333 1010.656578 170.953958 
Q 1010.395641 170.44302 1010.395641 169.721145 
L 1010.395641 169.14927 
Q 1010.395641 168.397708 1010.647203 167.866458 
Q 1010.898766 167.333645 1011.376891 167.05552 
Q 1011.856578 166.775833 1012.530016 166.775833 
Q 1013.164391 166.775833 1013.612828 167.094583 
Q 1014.062828 167.41177 1014.298766 168.01177 
Q 1014.536266 168.61177 1014.536266 169.452395 
L 1014.536266 169.783645 
L 1011.119078 169.783645 
L 1011.119078 168.983645 
L 1013.589391 168.983645 
L 1013.589391 168.983645 
Q 1013.545641 168.363333 1013.269078 168.019583 
Q 1012.994078 167.67427 1012.530016 167.67427 
Q 1011.962828 167.67427 1011.653453 168.046145 
Q 1011.344078 168.416458 1011.344078 169.096145 
L 1011.344078 169.739895 
Q 1011.344078 170.369583 1011.675328 170.707083 
Q 1012.008141 171.044583 1012.617516 171.044583 
Q 1012.920641 171.044583 1013.217516 170.922708 
Q 1013.515953 170.79927 1013.750328 170.58052 
L 1013.750328 170.58052 
L 1014.405016 171.233645 
L 1014.405016 171.233645 
Q 1014.028453 171.596145 1013.559703 171.794583 
Q 1013.090953 171.991458 1012.617516 171.991458 
z
M 1015.903844 166.84927 
L 1016.900719 166.84927 
L 1016.900719 171.91802 
L 1015.903844 171.91802 
L 1015.903844 166.84927 
z
M 1018.980406 168.846145 
Q 1018.980406 168.310208 1018.702281 168.01802 
Q 1018.424156 167.72427 1017.921031 167.72427 
Q 1017.431969 167.72427 1017.166344 167.983645 
Q 1016.900719 168.241458 1016.900719 168.710208 
L 1016.797594 167.733645 
Q 1017.031969 167.27427 1017.410094 167.025833 
Q 1017.788219 166.775833 1018.247594 166.775833 
Q 1019.072594 166.775833 1019.524156 167.316458 
Q 1019.975719 167.85552 1019.975719 168.841458 
L 1019.975719 171.91802 
L 1018.980406 171.91802 
L 1018.980406 168.846145 
z
M 1023.424156 171.991458 
Q 1022.886656 171.991458 1022.467906 171.782083 
Q 1022.050719 171.571145 1021.789781 171.171145 
Q 1021.528844 170.771145 1021.441344 170.208645 
L 1021.441344 170.203958 
L 1022.436656 170.203958 
L 1022.436656 170.208645 
Q 1022.491344 170.59927 1022.749156 170.816458 
Q 1023.008531 171.033645 1023.424156 171.033645 
Q 1023.902281 171.033645 1024.163219 170.714895 
Q 1024.424156 170.394583 1024.424156 169.813333 
L 1024.424156 169.21802 
Q 1024.424156 168.641458 1024.163219 168.322708 
Q 1023.902281 168.002395 1023.424156 168.002395 
Q 1023.164781 168.002395 1022.925719 168.14927 
Q 1022.686656 168.294583 1022.505406 168.558645 
L 1021.597594 168.558645 
L 1021.597594 164.81802 
L 1025.214781 164.81802 
L 1025.214781 165.764895 
L 1022.592906 165.764895 
L 1022.592906 167.36177 
Q 1022.778844 167.210208 1023.008531 167.127395 
Q 1023.238219 167.044583 1023.477281 167.044583 
Q 1024.092906 167.044583 1024.528844 167.29927 
Q 1024.966344 167.552395 1025.192906 168.041458 
Q 1025.421031 168.528958 1025.421031 169.21802 
L 1025.421031 169.813333 
Q 1025.421031 170.502395 1025.186656 170.991458 
Q 1024.952281 171.478958 1024.502281 171.735208 
Q 1024.053844 171.991458 1023.424156 171.991458 
z
" style="fill: #ffffff"/>
   </g>
  </g>
 </g>
 <defs>
  <clipPath id="p85826dd336">
   <rect x="144" y="77.76" width="892.8" height="498.96"/>
  </clipPath>
 </defs>
</svg>
