<?xml version="1.0" encoding="utf-8" standalone="no"?>
<!DOCTYPE svg PUBLIC "-//W3C//DTD SVG 1.1//EN"
  "http://www.w3.org/Graphics/SVG/1.1/DTD/svg11.dtd">
<svg xmlns:xlink="http://www.w3.org/1999/xlink" width="1152pt" height="648pt" viewBox="0 0 1152 648" xmlns="http://www.w3.org/2000/svg" version="1.1">
 <metadata>
  <rdf:RDF xmlns:dc="http://purl.org/dc/elements/1.1/" xmlns:cc="http://creativecommons.org/ns#" xmlns:rdf="http://www.w3.org/1999/02/22-rdf-syntax-ns#">
   <cc:Work>
    <dc:type rdf:resource="http://purl.org/dc/dcmitype/StillImage"/>
    <dc:date>2025-09-19T13:20:10.387495</dc:date>
    <dc:format>image/svg+xml</dc:format>
    <dc:creator>
     <cc:Agent>
      <dc:title>Matplotlib v3.10.3, https://matplotlib.org/</dc:title>
     </cc:Agent>
    </dc:creator>
   </cc:Work>
  </rdf:RDF>
 </metadata>
 <defs>
  <style type="text/css">*{stroke-linejoin: round; stroke-linecap: butt}</style>
 </defs>
 <g id="figure_1">
  <g id="patch_1">
   <path d="M 0 648 
L 1152 648 
L 1152 0 
L 0 0 
L 0 648 
z
" style="fill: none"/>
  </g>
  <g id="axes_1">
   <g id="PathCollection_1">
    <defs>
     <path id="mf7f7002561" d="M 0 2.738613 
C 0.726289 2.738613 1.422928 2.450055 1.936492 1.936492 
C 2.450055 1.422928 2.738613 0.726289 2.738613 0 
C 2.738613 -0.726289 2.450055 -1.422928 1.936492 -1.936492 
C 1.422928 -2.450055 0.726289 -2.738613 0 -2.738613 
C -0.726289 -2.738613 -1.422928 -2.450055 -1.936492 -1.936492 
C -2.450055 -1.422928 -2.738613 -0.726289 -2.738613 0 
C -2.738613 0.726289 -2.450055 1.422928 -1.936492 1.936492 
C -1.422928 2.450055 -0.726289 2.738613 0 2.738613 
z
" style="stroke: #bfff80"/>
    </defs>
    <g clip-path="url(#pd57cac9243)">
     <use xlink:href="#mf7f7002561" x="616.778182" y="233.867952" style="fill: #bfff80; stroke: #bfff80"/>
     <use xlink:href="#mf7f7002561" x="224.757818" y="429.593328" style="fill: #bfff80; stroke: #bfff80"/>
    </g>
   </g>
   <g id="text_1">
    <path d="M 625.483162 228.41452 
L 626.333162 228.41452 
L 628.950349 235.51452 
L 627.875349 235.51452 
L 625.908162 229.786395 
L 623.940974 235.51452 
L 622.865974 235.51452 
L 625.483162 228.41452 
z
M 624.072224 233.009833 
L 627.808162 233.009833 
L 627.808162 233.956707 
L 624.072224 233.956707 
L 624.072224 233.009833 
z
M 631.592146 235.51452 
L 630.595271 235.51452 
L 630.595271 229.498895 
L 629.584334 230.119208 
L 629.584334 229.087958 
L 630.595271 228.41452 
L 631.592146 228.41452 
L 631.592146 235.51452 
z
M 635.717342 231.98952 
L 635.712654 232.16452 
Q 635.590779 232.38952 635.343904 232.494208 
Q 635.097029 232.598895 634.761092 232.598895 
Q 634.253279 232.598895 633.867342 232.341082 
Q 633.481404 232.081707 633.268904 231.611395 
Q 633.056404 231.13952 633.056404 230.519207 
L 633.056404 230.51452 
Q 633.056404 229.825457 633.287654 229.337958 
Q 633.520467 228.848895 633.967342 228.59577 
Q 634.414217 228.341082 635.039217 228.341082 
Q 635.664217 228.341082 636.107967 228.600458 
Q 636.553279 228.859833 636.784529 229.353583 
Q 637.015779 229.84577 637.015779 230.53952 
L 637.015779 230.544207 
Q 637.015779 230.923895 636.917342 231.356707 
Q 636.820467 231.78952 636.640779 232.212958 
Q 636.611092 232.27702 636.581404 232.342645 
Q 636.553279 232.40827 636.518904 232.472332 
L 635.004842 235.51452 
L 633.929842 235.51452 
L 635.717342 231.98952 
z
M 635.039217 231.691082 
Q 635.507967 231.691082 635.764217 231.373895 
Q 636.020467 231.056708 636.020467 230.480145 
L 636.020467 230.475458 
Q 636.020467 229.91452 635.764217 229.606707 
Q 635.507967 229.298895 635.039217 229.298895 
Q 634.565779 229.298895 634.309529 229.606707 
Q 634.053279 229.91452 634.053279 230.480145 
L 634.053279 230.484833 
Q 634.053279 231.061395 634.309529 231.37702 
Q 634.565779 231.691082 635.039217 231.691082 
z
" style="fill: #ffffff; stroke: #000000"/>
    <path d="M 625.483162 228.41452 
L 626.333162 228.41452 
L 628.950349 235.51452 
L 627.875349 235.51452 
L 625.908162 229.786395 
L 623.940974 235.51452 
L 622.865974 235.51452 
L 625.483162 228.41452 
z
M 624.072224 233.009833 
L 627.808162 233.009833 
L 627.808162 233.956707 
L 624.072224 233.956707 
L 624.072224 233.009833 
z
M 631.592146 235.51452 
L 630.595271 235.51452 
L 630.595271 229.498895 
L 629.584334 230.119208 
L 629.584334 229.087958 
L 630.595271 228.41452 
L 631.592146 228.41452 
L 631.592146 235.51452 
z
M 635.717342 231.98952 
L 635.712654 232.16452 
Q 635.590779 232.38952 635.343904 232.494208 
Q 635.097029 232.598895 634.761092 232.598895 
Q 634.253279 232.598895 633.867342 232.341082 
Q 633.481404 232.081707 633.268904 231.611395 
Q 633.056404 231.13952 633.056404 230.519207 
L 633.056404 230.51452 
Q 633.056404 229.825457 633.287654 229.337958 
Q 633.520467 228.848895 633.967342 228.59577 
Q 634.414217 228.341082 635.039217 228.341082 
Q 635.664217 228.341082 636.107967 228.600458 
Q 636.553279 228.859833 636.784529 229.353583 
Q 637.015779 229.84577 637.015779 230.53952 
L 637.015779 230.544207 
Q 637.015779 230.923895 636.917342 231.356707 
Q 636.820467 231.78952 636.640779 232.212958 
Q 636.611092 232.27702 636.581404 232.342645 
Q 636.553279 232.40827 636.518904 232.472332 
L 635.004842 235.51452 
L 633.929842 235.51452 
L 635.717342 231.98952 
z
M 635.039217 231.691082 
Q 635.507967 231.691082 635.764217 231.373895 
Q 636.020467 231.056708 636.020467 230.480145 
L 636.020467 230.475458 
Q 636.020467 229.91452 635.764217 229.606707 
Q 635.507967 229.298895 635.039217 229.298895 
Q 634.565779 229.298895 634.309529 229.606707 
Q 634.053279 229.91452 634.053279 230.480145 
L 634.053279 230.484833 
Q 634.053279 231.061395 634.309529 231.37702 
Q 634.565779 231.691082 635.039217 231.691082 
z
" style="fill: #ffffff"/>
   </g>
   <g id="text_2">
    <path d="M 233.462798 424.139896 
L 234.312798 424.139896 
L 236.929986 431.239896 
L 235.854986 431.239896 
L 233.887798 425.511771 
L 231.920611 431.239896 
L 230.845611 431.239896 
L 233.462798 424.139896 
z
M 232.051861 428.735208 
L 235.787798 428.735208 
L 235.787798 429.682083 
L 232.051861 429.682083 
L 232.051861 428.735208 
z
M 239.571783 431.239896 
L 238.574908 431.239896 
L 238.574908 425.224271 
L 237.56397 425.844583 
L 237.56397 424.813333 
L 238.574908 424.139896 
L 239.571783 424.139896 
L 239.571783 431.239896 
z
M 243.696978 427.714896 
L 243.69229 427.889896 
Q 243.570415 428.114896 243.32354 428.219583 
Q 243.076665 428.324271 242.740728 428.324271 
Q 242.232915 428.324271 241.846978 428.066459 
Q 241.46104 427.807083 241.24854 427.336771 
Q 241.03604 426.864896 241.03604 426.244583 
L 241.03604 426.239896 
Q 241.03604 425.550834 241.26729 425.063333 
Q 241.500103 424.574271 241.946978 424.321146 
Q 242.393853 424.066459 243.018853 424.066459 
Q 243.643853 424.066459 244.087603 424.325833 
Q 244.532915 424.585208 244.764165 425.078958 
Q 244.995415 425.571146 244.995415 426.264896 
L 244.995415 426.269584 
Q 244.995415 426.649271 244.896978 427.082084 
Q 244.800103 427.514896 244.620415 427.938333 
Q 244.590728 428.002396 244.56104 428.068021 
Q 244.532915 428.133646 244.49854 428.197708 
L 242.984478 431.239896 
L 241.909478 431.239896 
L 243.696978 427.714896 
z
M 243.018853 427.416458 
Q 243.487603 427.416458 243.743853 427.099271 
Q 244.000103 426.782083 244.000103 426.205521 
L 244.000103 426.200833 
Q 244.000103 425.639896 243.743853 425.332084 
Q 243.487603 425.024271 243.018853 425.024271 
Q 242.545415 425.024271 242.289165 425.332084 
Q 242.032915 425.639896 242.032915 426.205521 
L 242.032915 426.210208 
Q 242.032915 426.786771 242.289165 427.102396 
Q 242.545415 427.416458 243.018853 427.416458 
z
" style="fill: #ffffff; stroke: #000000"/>
    <path d="M 233.462798 424.139896 
L 234.312798 424.139896 
L 236.929986 431.239896 
L 235.854986 431.239896 
L 233.887798 425.511771 
L 231.920611 431.239896 
L 230.845611 431.239896 
L 233.462798 424.139896 
z
M 232.051861 428.735208 
L 235.787798 428.735208 
L 235.787798 429.682083 
L 232.051861 429.682083 
L 232.051861 428.735208 
z
M 239.571783 431.239896 
L 238.574908 431.239896 
L 238.574908 425.224271 
L 237.56397 425.844583 
L 237.56397 424.813333 
L 238.574908 424.139896 
L 239.571783 424.139896 
L 239.571783 431.239896 
z
M 243.696978 427.714896 
L 243.69229 427.889896 
Q 243.570415 428.114896 243.32354 428.219583 
Q 243.076665 428.324271 242.740728 428.324271 
Q 242.232915 428.324271 241.846978 428.066459 
Q 241.46104 427.807083 241.24854 427.336771 
Q 241.03604 426.864896 241.03604 426.244583 
L 241.03604 426.239896 
Q 241.03604 425.550834 241.26729 425.063333 
Q 241.500103 424.574271 241.946978 424.321146 
Q 242.393853 424.066459 243.018853 424.066459 
Q 243.643853 424.066459 244.087603 424.325833 
Q 244.532915 424.585208 244.764165 425.078958 
Q 244.995415 425.571146 244.995415 426.264896 
L 244.995415 426.269584 
Q 244.995415 426.649271 244.896978 427.082084 
Q 244.800103 427.514896 244.620415 427.938333 
Q 244.590728 428.002396 244.56104 428.068021 
Q 244.532915 428.133646 244.49854 428.197708 
L 242.984478 431.239896 
L 241.909478 431.239896 
L 243.696978 427.714896 
z
M 243.018853 427.416458 
Q 243.487603 427.416458 243.743853 427.099271 
Q 244.000103 426.782083 244.000103 426.205521 
L 244.000103 426.200833 
Q 244.000103 425.639896 243.743853 425.332084 
Q 243.487603 425.024271 243.018853 425.024271 
Q 242.545415 425.024271 242.289165 425.332084 
Q 242.032915 425.639896 242.032915 426.205521 
L 242.032915 426.210208 
Q 242.032915 426.786771 242.289165 427.102396 
Q 242.545415 427.416458 243.018853 427.416458 
z
" style="fill: #ffffff"/>
   </g>
  </g>
 </g>
 <defs>
  <clipPath id="pd57cac9243">
   <rect x="144" y="77.76" width="892.8" height="498.96"/>
  </clipPath>
 </defs>
</svg>
