<?xml version="1.0" encoding="UTF-8"?>
<svg id="_图层_1" xmlns="http://www.w3.org/2000/svg" version="1.1" viewBox="0 0 1152 648">
  <!-- Generator: Adobe Illustrator 29.8.1, SVG Export Plug-In . SVG Version: 2.1.1 Build 2)  -->
  <defs>
    <style>
      .st0 {
        fill: #fff;
      }

      .st1 {
        isolation: isolate;
      }

      .st2 {
        stroke: #4c4c4c;
        stroke-linejoin: round;
      }

      .st2, .st3 {
        fill: none;
        stroke-width: .8px;
      }

      .st4 {
        fill: #999;
      }

      .st3 {
        stroke: #fff;
        stroke-linecap: square;
      }

      .st5 {
        display: none;
      }
    </style>
  </defs>
  <g id="_背景">
    <path class="st5" d="M0,648h1152V0H0v648Z"/>
    <path class="st5" d="M144,576.7h892.8V77.9H144v498.8Z"/>
  </g>
  <path id="_竖线1" class="st2" d="M225.2,77.9v502.4"/>
  <path id="_竖线2" class="st2" d="M306.3,77.8v502.5"/>
  <path id="_竖线3" class="st2" d="M387.5,77.8v502.5"/>
  <path id="_竖线4" class="st2" d="M468.7,77.8v502.5"/>
  <path id="_竖线5" class="st2" d="M549.8,77.8v502.5"/>
  <path id="_竖线5-2" class="st2" d="M631,77.8v502.5"/>
  <path id="_竖线6" class="st2" d="M712.1,77.8v502.5"/>
  <path id="_竖线6-2" class="st2" d="M793.3,77.8v502.5"/>
  <path id="_竖线7" class="st2" d="M955.6,77.8v502.5"/>
  <path id="_竖线71" class="st2" d="M874.5,77.8v502.5"/>
  <path id="_竖线72" class="st2" d="M1036.8,77.8v502.5"/>
  <path id="_横线2" class="st2" d="M1037.2,476.9H140.5"/>
  <path id="_横线4" class="st2" d="M1037.2,377.1H140.5"/>
  <path id="_横线6" class="st2" d="M1037.2,277.4H140.5"/>
  <path id="_横线6-2" class="st2" d="M1037.2,177.6H140.5"/>
  <path id="_横线7" class="st2" d="M1037.2,77.8H140.5"/>
  <path id="_横坐标" class="st3" d="M144,576.7h892.8"/>
  <path id="_纵坐标" class="st3" d="M144,576.7V77.8"/>
  <g id="_左上更好">
    <path class="st0" d="M204.6,94.6h-39.3c-.8,0-1.4.6-1.4,1.4v39.3c0,1.3,1.5,1.9,2.4,1l3.9-3.9c.6-.6,1.5-.6,2,0l12,12c.6.6,1.5.6,2,0l27.4-27.4c.6-.6.6-1.5,0-2l-12-12c-.6-.6-.6-1.5,0-2l3.9-3.9c1-.9.3-2.5-.9-2.5h0Z"/>
    <g class="st1">
      <g class="st1">
        <g class="st1">
          <g class="st1">
            <path d="M177.8,109.5l-4.5,4.5c.4.7.7,1.4.9,2l4.5-4.5,1.1,1.1-2.2,2.2,2.2,2.2,2.7-2.7,1.1,1.1-6.9,6.9-1.1-1.1,3-3-2.2-2.2-1.7,1.7c.4,1.5.7,3.2.7,5.2l-1.7-.4c0-1.4-.2-2.6-.5-3.7-.3-1.1-.7-2.3-1.3-3.4l-2.2,2.2-1.1-1.1,2.5-2.5c-.3-.4-.6-.9-.9-1.3l1.3-1.1c.3.4.6.8.8,1.2l4.2-4.2,1.1,1.1Z"/>
            <path d="M184.4,105.4l3.4,3.4,3.8-3.8,1.1,1.1-8.2,8.2-1.1-1.1,3.1-3.1-7-7,1.3-1.3,2.5,2.5,3.2-3.2,1.1,1.1-3.2,3.2Z"/>
          </g>
        </g>
      </g>
    </g>
    <g class="st1">
      <g class="st1">
        <g class="st1">
          <g class="st1">
            <path d="M194.8,126.8c-1.2,1.1-2.2,1.9-3.1,2.5-.9.6-1.7,1.1-2.5,1.4-.1.5-.3,1.1-.7,1.7-.3.6-.7,1.3-1.3,2.1l-1.4-.6c.7-1.2,1.3-2.1,1.6-2.7-.5.1-1.2.2-1.9.2v-1.1s-.9.9-.9.9l-3.8-3.8,2.8-2.8-.5-.5-3.3,3.3-1-1,7.8-7.8,1,1-3.4,3.4.5.5,2.8-2.8,3.8,3.8-2.9,2.9c.4.6.7,1.1.8,1.7.6-.3,1.3-.8,2-1.4.7-.6,1.6-1.4,2.6-2.3l.8,1.3ZM185.2,126.1l-.6-.6-1.7,1.7.6.6,1.7-1.7ZM186,126.9l-1.7,1.7.6.6,1.7-1.7h0c0,0-.5-.6-.5-.6ZM188.1,123.2l-.6-.6-1.8,1.8.6.6,1.8-1.8ZM185.9,130c.7,0,1.3-.1,1.9-.3,0-.4-.1-.8-.4-1.2l-1.5,1.5ZM187.7,126.4l1.8-1.8-.6-.6-1.8,1.8.5.5h0Z"/>
            <path d="M193.6,116.2c.7.9,1.3,1.7,1.7,2.3s.7,1.2.9,1.8l2-.2.2,1.7h-1.8c0,.9,0,2,0,3.3h-1.6c0-.7.1-1.2.2-1.7s0-.9,0-1.4c-1,.1-1.7.2-2.1.3-.7-1.1-1.3-2.2-2.1-3.2l-.8.8-1.1-1.1,1-1c-.5-.7-1-1.2-1.3-1.7l1.2-1c.4.5.9,1.1,1.2,1.6l1.6-1.6,1.1,1.1ZM194.6,120.5c-.2-.5-.4-1-.7-1.5-.3-.5-.7-1.1-1.2-1.8l-.8.8c.6.9,1.2,1.7,1.7,2.6.3,0,.7,0,1.1-.1ZM199.5,112.6l1.1,1.1-1.8,1.8,2.4,2.4c.4.4.7.9.7,1.2s-.2.8-.7,1.2c-.2.2-.6.6-1,.9l-1.3-.9c.3-.2.6-.5.9-.8.2-.2.3-.3.2-.5s-.1-.3-.3-.5l-2-2-1.8,1.8-1.1-1.1,1.8-1.8-.8-.8v-2.6l-2.8,2.8-1.1-1.1,4.2-4.2,1.1,1.1v3.3c.1,0,.6.4.6.4l1.8-1.8Z"/>
          </g>
        </g>
      </g>
    </g>
  </g>
  <g class="st1">
    <g class="st1">
      <g class="st1">
        <g class="st1">
          <path class="st4" d="M939.3,632h7.9v1.9h-17.9v-1.9h8v-4.9h-6.5v-1.8h6.5v-4h-7.3v-1.8h8.1c-.4-.8-1-1.8-1.7-3.1l1.8-.8c.4.7.9,1.4,1.3,2.3l.5.8-1.6.7h8.2v1.8h-7.3v4h6.4v1.8h-6.4v4.9Z"/>
          <path class="st4" d="M955.3,626.9c-.6-.5-1.2-1.1-1.7-1.6v9.2h-1.7v-8.8c-.6,1.6-1.3,2.9-2.1,4l-1.1-1.7c.6-.9,1.1-1.9,1.7-3.1.6-1.2,1-2.3,1.3-3.5h-2.3v-1.8h2.4v-3.6h1.7v3.6h2.1v1.8h-2.1v1.6c.2.2.6.5,1.2,1l1.4,1.2-.9,1.4ZM967.6,633.1l-1,1.7c-1.8-1.1-3.2-2.2-4.3-3.4-1.1,1.2-2.6,2.3-4.3,3.3l-1.1-1.7c1.8-1,3.2-2.1,4.2-3.1-1.2-1.8-2.1-3.9-2.7-6.3h-.2c0,2.5-.2,4.5-.7,6.2s-1.1,3.3-2.1,4.8l-1.6-1.2c.6-.9,1.1-1.9,1.5-2.8.4-.9.6-2,.8-3.2s.3-2.6.3-4.3v-5.1c3.1-.2,6.3-.6,9.7-1.3l.4,1.8c-2.7.5-5.5.9-8.4,1.2v2.2h8v1.8c-.3,1.3-.7,2.5-1.1,3.5s-1,2-1.7,2.9c1.1,1.2,2.4,2.2,4.1,3.1ZM960.3,623.6c.5,2,1.2,3.6,2.1,4.9.5-.7.9-1.5,1.2-2.2.3-.8.6-1.7.8-2.7h-4.2Z"/>
          <path class="st4" d="M976.9,629.4c-.4,0-1.6.4-3.7,1.1s-3.4,1-3.8,1.2l-.4-1.9.8-.2,2.2-.6v-9h-2.5v-1.8h6.8v1.8h-2.4v8.4l.7-.2c.4-.1.7-.2,1.1-.3s.7-.2,1-.3l.3,1.9ZM986.7,619.7c0,1.4,0,3.3-.1,5.8s-.2,4.3-.3,5.4c0,.9-.2,1.5-.5,2-.2.5-.5.8-1,1-.4.2-1.1.3-1.9.3s-1.5,0-2.2-.1l-.4-1.8c.9.1,1.6.2,2.2.2s.9,0,1.1-.2c.2-.1.4-.3.5-.6.1-.3.2-.8.3-1.4.1-1.1.2-2.5.3-4,0-1.6,0-3.1,0-4.6h-3.7c0,2.5-.2,4.5-.5,5.9-.3,1.4-.7,2.6-1.4,3.7s-1.7,2.3-3.1,3.6l-1.6-1.3c1.4-1.3,2.4-2.4,3-3.4s1-2,1.2-3.2c.2-1.2.3-3,.4-5.3h-2.2v-1.9h2.2v-3.5h2v3.5c0,0,5.6,0,5.6,0Z"/>
          <path class="st4" d="M994.1,626.6v1c1.1.8,2.1,1.6,3.1,2.3l-1,1.4c-.5-.5-1.2-1.2-2.1-1.9v5.2h-1.8v-5.7c-.7,1.5-1.6,2.9-2.7,4.1l-.9-1.6c.6-.7,1.1-1.4,1.7-2.2.5-.8,1-1.7,1.4-2.5h-2.5v-1.7h3.1v-1.6h-2.5v-1.6h2.5v-1.6h-2.8v-1.7h2.8v-2.1h1.8v2.1h2.3v1.7h-2.3v1.6h2v1.6h-2v1.6h2.5v1.7h-2.5ZM1007.4,630.1v1.7c-.1.9-.3,1.5-.7,1.9-.4.4-1,.6-2,.6-.5,0-.8,0-1.1,0s-.6,0-1.1,0c-.8,0-1.3-.3-1.7-.7-.4-.4-.6-1.1-.6-2.1v-2.9l-3.3.3v-1.8c0,0,3.3-.3,3.3-.3v-2.7l-2.8.3v-1.8c0,0,2.8-.3,2.8-.3v-2.7c-.7.1-1.6.2-2.8.4l-.2-1.8c1.4-.1,2.9-.4,4.6-.7,1.7-.3,3.1-.7,4.3-1l.3,1.8c-1.1.3-2.6.7-4.4,1v2.9l4.2-.4v1.8c.1,0-4.2.4-4.2.4v2.7l5.2-.5v1.8c0,0-5.2.5-5.2.5v2.7c0,.5,0,.8.2,1,.1.2.4.3.7.3.5,0,.8,0,1,0,.4,0,.7,0,.9,0,.2,0,.4-.2.5-.4,0-.2.1-.5.2-.9,0,0,0-.3,0-.5v-1s1.8.5,1.8.5Z"/>
          <path class="st4" d="M1015.9,620.8c.6-1.6,1.5-2.9,2.6-4h2c-1.1,1.3-1.9,2.7-2.5,4.2s-.9,3.2-.9,5,.3,3.6.9,5.1,1.4,2.9,2.5,4.2h-2c-1.1-1.1-2-2.5-2.6-4-.6-1.6-.9-3.3-.9-5.2s.3-3.6.9-5.2Z"/>
          <path class="st4" d="M1031.6,618.3l3.4,11.1,3.1-11.1h2.1l-4.5,14.6h-1.7l-3.4-10.8-3.3,10.8h-1.7l-4.7-14.6h2.3l3.4,11.1,3.2-11.1h1.8Z"/>
          <path class="st4" d="M1045.3,631.2c-.6,1.6-1.5,2.9-2.6,4h-2c1.1-1.3,1.9-2.7,2.5-4.2s.9-3.2.9-5.1-.3-3.5-.9-5-1.4-2.9-2.5-4.2h2c1.1,1.1,2,2.5,2.6,4,.6,1.6.9,3.3.9,5.2s-.3,3.6-.9,5.2Z"/>
        </g>
      </g>
    </g>
  </g>
  <g>
    <path class="st4" d="M90.7,43.1h4.9v2.5c0,1.1-.2,2-.6,2.8s-1,1.4-1.7,1.9-1.6.7-2.6.7-1.9-.2-2.6-.6-1.3-1-1.8-1.7-.6-1.6-.6-2.6v-4.2c0-1.1.2-2,.6-2.8s1-1.4,1.7-1.9,1.6-.7,2.6-.7,1.6.2,2.3.5,1.3.8,1.7,1.5.8,1.4.9,2.2h-2.2c-.2-.7-.5-1.3-1.1-1.7s-1.1-.6-1.7-.6c-.9,0-1.6.3-2.1.9s-.8,1.4-.8,2.4v4.2c0,.9.3,1.7.8,2.2s1.3.8,2.2.8,1.6-.3,2.1-.9.8-1.4.8-2.5v-.5h-2.9v-1.9h0Z"/>
    <path class="st4" d="M102.8,50.9c-1.4,0-2.5-.4-3.3-1.2s-1.2-1.9-1.2-3.4v-1.1c0-1.5.4-2.7,1.1-3.5s1.8-1.2,3.1-1.2,2.3.5,3,1.4,1,2.3,1,3.9v.7h-6.7v-1.6h4.9c0-.8-.3-1.5-.6-1.9s-.9-.7-1.5-.7-1.3.2-1.7.7-.6,1.2-.6,2.1v1.3c0,.8.2,1.5.7,1.9s1.1.7,1.9.7.8,0,1.2-.2.8-.4,1.1-.7l1.3,1.3c-.5.5-1.1.9-1.7,1.1s-1.4.4-2,.4Z"/>
    <path class="st4" d="M113.5,50.9c-1.4,0-2.5-.4-3.3-1.2s-1.2-1.9-1.2-3.4v-1.1c0-1.5.4-2.7,1.1-3.5s1.8-1.2,3.1-1.2,2.3.5,3,1.4,1,2.3,1,3.9v.7h-6.8v-1.6h4.9c0-.8-.3-1.5-.6-1.9s-.9-.7-1.5-.7-1.3.2-1.7.7-.6,1.2-.6,2.1v1.3c0,.8.2,1.5.7,1.9s1.1.7,1.9.7.8,0,1.2-.2.8-.4,1.1-.7l1.3,1.3c-.5.5-1.1.9-1.7,1.1s-1.3.4-1.9.4Z"/>
    <path class="st4" d="M120.1,50.7v-14.2h2v14.2h-2ZM120.8,49.2v-2.4l5.3-6.3h2.3s-7.6,8.7-7.6,8.7ZM126.8,50.7l-3.5-5.8,1.3-1.3,4.4,7.2h-2.2Z"/>
    <path class="st4" d="M130.6,50.7v-14.2h2v14.2h-2ZM135.2,50.9c-.6,0-1.2-.2-1.7-.5s-.8-.7-1-1.3v-2.1c.1.4.2.8.3,1.1s.4.5.7.7.7.2,1.1.2c.7,0,1.2-.2,1.5-.6s.5-1,.5-1.7v-2.2c0-.7-.2-1.3-.5-1.7s-.9-.6-1.5-.6-.8,0-1.1.2-.5.4-.7.7-.2.7-.2,1.1l-.2-2c.3-.6.7-1,1.2-1.4s1-.5,1.7-.5c1.1,0,1.9.4,2.5,1.1s.9,1.7.9,3.1v2.2c0,1.3-.3,2.3-.9,3s-1.5,1.2-2.6,1.2Z"/>
    <path class="st4" d="M145.7,50.9c-1.4,0-2.5-.4-3.3-1.2s-1.2-1.9-1.2-3.4v-1.1c0-1.5.4-2.7,1.1-3.5s1.8-1.2,3.1-1.2,2.3.5,3,1.4,1,2.3,1,3.9v.7h-6.8v-1.6h4.9c-.1-.8-.3-1.5-.6-1.9s-.9-.7-1.5-.7-1.3.2-1.7.7-.6,1.2-.6,2.1v1.3c0,.8.2,1.5.7,1.9s1.1.7,1.9.7.8,0,1.2-.2.8-.4,1.1-.7l1.3,1.3c-.5.5-1.1.9-1.7,1.1s-1.3.4-1.9.4Z"/>
    <path class="st4" d="M152.2,50.7v-10.1h2v10.1h-2ZM158.4,50.7v-6.1c0-.7-.2-1.3-.6-1.7s-.9-.6-1.6-.6-1.2.2-1.5.5-.5.8-.5,1.5l-.2-2c.3-.6.7-1.1,1.2-1.4s1.1-.5,1.7-.5c1.1,0,2,.4,2.6,1.1s.9,1.7.9,3.1v6.2h-2,0Z"/>
    <path class="st4" d="M167.5,50.9c-1.4,0-2.5-.4-3.2-1.2s-1.1-1.9-1.1-3.3v-1.7c0-1.4.4-2.5,1.1-3.2s1.8-1.1,3.2-1.1,1.5,0,2.1.4,1.1.7,1.5,1.2l-1.4,1.3c-.3-.3-.6-.6-1-.8s-.8-.3-1.2-.3c-.8,0-1.4.2-1.8.6s-.6,1-.6,1.8v1.7c0,.8.2,1.4.6,1.9s1,.7,1.8.7.8,0,1.2-.3.7-.5,1-.8l1.4,1.4c-.4.5-.9.9-1.5,1.2s-1.3.5-2.1.5Z"/>
    <path class="st4" d="M173.4,50.7v-14.2h2v14.2h-2ZM179.5,50.7v-6.1c0-.7-.2-1.3-.6-1.7s-.9-.6-1.6-.6-1.2.2-1.5.5-.5.8-.5,1.4l-.2-2c.3-.6.7-1.1,1.2-1.4s1.1-.5,1.7-.5c1.1,0,2,.4,2.6,1.1s.9,1.7.9,3.1v6.2h-2,0Z"/>
    <path class="st4" d="M223.2,43v1.6c-1.2,1.5-2.5,2.8-3.8,3.8s-3,1.8-4.9,2.4c-2,.6-4.4,1.1-7.4,1.3l-.9-1.7c2.7-.2,5-.6,6.9-1.1,1.8-.5,3.3-1.1,4.5-1.9,1.2-.8,2.2-1.7,3.1-2.9h-6.2c-.2.2-.7.5-1.4,1,1.2.7,2,1.1,2.5,1.4l-1.3,1.3-2.9-1.8c-1,.6-2.2,1.1-3.5,1.7l-1-1.5c1.8-.7,3.4-1.5,4.9-2.4s2.8-1.9,3.8-2.9c-2.4,1.1-5.3,1.9-8.7,2.6l-.8-1.6c2.9-.5,5.5-1.2,7.7-2.1,2.2-.9,4-1.9,5.6-3.2h-6.7c-.4.3-.7.5-.8.6l2.4,1.3-1.2,1.2c-.9-.5-1.8-1-2.7-1.5-.8.5-1.7.9-2.6,1.3l-1-1.4c1.5-.7,2.9-1.5,4.2-2.3,1.3-.9,2.5-1.8,3.4-2.7l1.7.7c-.4.4-.8.8-1.2,1.3h7.4v1.7c-1.7,1.5-3.6,2.8-5.8,3.9l1.3.7c-.5.5-.9.9-1.3,1.3h6.7Z"/>
    <path class="st4" d="M231.3,45.1c-.4-.7-.9-1.4-1.4-2.1v9.4h-1.8v-9.1c-.6,1.5-1.3,3-2.1,4.4l-.9-1.8c1.3-2.2,2.2-4.3,2.9-6.3h-2.2v-1.8h2.4v-3.6h1.8v3.6h2.1v1.8h-2.1v1.1c.6.7,1.4,1.6,2.3,2.7l.3.4s-1.3,1.3-1.3,1.3ZM241.8,39.7c-1.2,1.9-2.5,3.6-3.9,5-1.5,1.4-3.2,2.7-5.3,3.8l-1-1.5c1.2-.7,2.3-1.3,3.2-2s1.7-1.4,2.4-2.1c-1.3.2-2.2.4-2.8.5-.2,0-.7,0-1.3.2l-.5-1.6c.3,0,.4-.2.6-.2s.2-.2.3-.3c.3-.3.6-.8,1-1.4s.8-1.2,1.1-1.8h-3.2v-1.7h4.7c-.4-1-.7-1.8-.9-2.2l1.9-.5c.4.9.7,1.8,1,2.7h4.6v1.7h-6c-.4.7-.8,1.3-1.2,2s-.8,1.2-1.1,1.5l3.3-.5c.5-.6,1-1.4,1.6-2.4l1.5.8h0ZM242.5,52.4c-1.3-1.2-2.6-2.3-4-3.5-1.5,1.2-3.3,2.4-5.6,3.4l-1.1-1.6c1.6-.7,3-1.4,4.1-2.2,1.1-.7,2.2-1.5,3.1-2.4.9-.9,1.8-2,2.7-3.3l1.4.9c-1.1,1.7-2.2,3-3.3,4.1,1.3,1,2.6,2,3.9,3l-1.2,1.6h0Z"/>
    <path class="st4" d="M252.2,38.5c.6-1.6,1.5-2.9,2.6-4h2c-1.1,1.3-1.9,2.7-2.5,4.2s-.9,3.2-.9,5,.3,3.6.9,5.1,1.4,2.9,2.5,4.2h-2c-1.1-1.1-2-2.5-2.6-4-.6-1.6-.9-3.3-.9-5.2s.3-3.8.9-5.3h0Z"/>
    <path class="st4" d="M275.5,43.4c-.9-.6-1.8-1.2-2.6-1.9-.1,2.4-.3,4.9-.7,7.4-.1.7-.3,1.3-.5,1.7s-.6.7-1,.9-1,.3-1.8.3h-3.1l-.4-1.8c.9,0,1.9.2,2.8.2h1.1c.3,0,.4-.3.6-.5s.2-.6.3-1.1c.1-.7.2-1.6.3-2.5.1-.9.1-1.7.2-2.3h-5.4v1c-.2,1.3-.4,2.3-.8,3.2-.3.9-.9,1.7-1.7,2.5-.8.8-1.9,1.6-3.4,2.4l-1.3-1.6c1.3-.7,2.3-1.3,3-1.9.7-.6,1.2-1.3,1.5-2s.5-1.6.6-2.6v-1c.1,0-2.4,0-2.4,0v-1.6c-.6.6-1.3,1.1-1.9,1.6l-1.1-1.7c1.4-1,2.7-2.1,3.8-3.4,1.1-1.3,2-2.7,2.6-4.2l1.8.7c-.6,1.3-1.3,2.6-2.1,3.7-.8,1.1-1.7,2.2-2.8,3.2h11.8c-1.1-.9-2-2-2.7-3.1s-1.4-2.5-1.9-4l1.8-.6c.6,1.8,1.5,3.3,2.5,4.5s2.4,2.3,4.1,3.4l-1.2,1.3v-.2h0Z"/>
    <path class="st4" d="M282,48.9c-.6,1.6-1.5,2.9-2.6,4h-2c1.1-1.3,1.9-2.7,2.5-4.2s.9-3.2.9-5.1-.3-3.5-.9-5-1.4-2.9-2.5-4.2h2c1.1,1.1,2,2.5,2.6,4,.6,1.6.9,3.3.9,5.2.1,2-.2,3.7-.9,5.3Z"/>
    <path class="st4" d="M193.7,50.9c-1.3,0-2.2-.4-2.9-1.1-.7-.7-1-1.8-1-3.2h0c0-.6.1-1.3.3-1.9s.4-1.3.7-2l3.1-6.1h2.1l-3.6,7.1v-.4c.3-.6.9-1,1.8-1s2,.4,2.6,1.1c.6.7.9,1.8.9,3.1h0c0,1.4-.3,2.4-1,3.2s-1.7,1.2-3,1.2h0ZM193.7,49c.6,0,1.1-.2,1.5-.6s.5-.9.5-1.7h0c0-.8-.2-1.4-.5-1.8-.4-.4-.9-.6-1.5-.6s-1,.2-1.4.7c-.3.4-.5,1-.5,1.8h0c0,.7.2,1.3.5,1.7.3.3.8.5,1.4.5Z"/>
  </g>
  <path class="st4" d="M131.4,583.3c-1.4,0-2.4-.4-3.1-1.1-.7-.7-1-1.7-1-3v-6.5c0-1.3.3-2.3,1-3,.7-.7,1.7-1.1,3.1-1.1s2.4.4,3.1,1.1c.7.7,1,1.7,1,3v6.5c0,1.3-.3,2.3-1,3-.7.7-1.7,1.1-3.1,1.1ZM131.4,581.4c.7,0,1.3-.2,1.6-.6s.5-.9.5-1.6v-6.5c0-.7-.2-1.2-.5-1.6-.3-.4-.9-.6-1.6-.6s-1.3.2-1.6.6c-.3.4-.5.9-.5,1.6v6.5c0,.7.2,1.2.5,1.6s.9.6,1.6.6Z"/>
  <g>
    <path class="st4" d="M98.8,483.7c-.8,0-1.5-.1-2.1-.4-.6-.3-1.1-.7-1.5-1.3s-.6-1.2-.7-2h2.1c0,.6.3,1.1.7,1.4.4.3.9.4,1.5.4s1.2-.2,1.6-.5c.4-.4.6-.9.6-1.5v-.4c0-.7-.2-1.3-.5-1.7-.3-.4-.8-.6-1.5-.6h-1v-1.9h1c.6,0,1-.2,1.3-.5.3-.3.5-.8.5-1.4v-.4c0-.6-.2-1-.5-1.3-.3-.3-.8-.5-1.4-.5s-.9.1-1.3.4-.6.7-.7,1.4h-2c.2-1.2.7-2.1,1.4-2.8.7-.6,1.6-1,2.7-1s2.2.3,2.9,1,1,1.6,1,2.8v.2c0,.7-.2,1.3-.6,1.9-.4.5-.9.9-1.7,1.2.8.2,1.4.5,1.8,1.2.4.6.6,1.4.6,2.3v.2c0,1.3-.4,2.2-1.1,2.9-.7.7-1.7,1-3,1Z"/>
    <path class="st4" d="M109.9,483.7c-1.4,0-2.4-.4-3.1-1.1-.7-.7-1-1.7-1-3v-6.5c0-1.3.3-2.3,1-3,.7-.7,1.7-1.1,3.1-1.1s2.4.4,3.1,1.1c.7.7,1,1.7,1,3v6.5c0,1.3-.3,2.3-1,3-.7.7-1.7,1.1-3.1,1.1ZM109.9,481.8c.7,0,1.3-.2,1.6-.6s.5-.9.5-1.6v-6.5c0-.7-.2-1.2-.5-1.6-.3-.4-.9-.6-1.6-.6s-1.3.2-1.6.6c-.3.4-.5.9-.5,1.6v6.5c0,.7.2,1.2.5,1.6s.9.6,1.6.6Z"/>
    <path class="st4" d="M120.6,483.7c-1.4,0-2.4-.4-3.1-1.1-.7-.7-1-1.7-1-3v-6.5c0-1.3.3-2.3,1-3,.7-.7,1.7-1.1,3.1-1.1s2.4.4,3.1,1.1c.7.7,1,1.7,1,3v6.5c0,1.3-.3,2.3-1,3-.7.7-1.7,1.1-3.1,1.1ZM120.6,481.8c.7,0,1.3-.2,1.6-.6s.5-.9.5-1.6v-6.5c0-.7-.2-1.2-.5-1.6-.3-.4-.9-.6-1.6-.6s-1.3.2-1.6.6c-.3.4-.5.9-.5,1.6v6.5c0,.7.2,1.2.5,1.6s.9.6,1.6.6Z"/>
    <path class="st4" d="M131.4,483.7c-1.4,0-2.4-.4-3.1-1.1-.7-.7-1-1.7-1-3v-6.5c0-1.3.3-2.3,1-3,.7-.7,1.7-1.1,3.1-1.1s2.4.4,3.1,1.1c.7.7,1,1.7,1,3v6.5c0,1.3-.3,2.3-1,3-.7.7-1.7,1.1-3.1,1.1ZM131.4,481.8c.7,0,1.3-.2,1.6-.6s.5-.9.5-1.6v-6.5c0-.7-.2-1.2-.5-1.6-.3-.4-.9-.6-1.6-.6s-1.3.2-1.6.6c-.3.4-.5.9-.5,1.6v6.5c0,.7.2,1.2.5,1.6s.9.6,1.6.6Z"/>
  </g>
  <g>
    <path class="st4" d="M99.1,384.2c-1.3,0-2.3-.4-3-1.1-.7-.8-1-1.8-1-3.2h0c0-.6,0-1.3.3-2s.4-1.4.7-2l3.1-6.2h2.2l-3.7,7.2v-.4c.4-.7,1-1,1.8-1s2,.4,2.6,1.1c.6.7.9,1.8.9,3.2h0c0,1.4-.3,2.5-1,3.2-.7.8-1.7,1.2-3,1.2ZM99.1,382.3c.6,0,1.1-.2,1.5-.6s.5-1,.5-1.7h0c0-.8-.2-1.4-.5-1.9-.4-.4-.9-.7-1.6-.7s-1.1.2-1.4.7-.5,1.1-.5,1.9h0c0,.7.2,1.3.5,1.7.3.4.8.6,1.5.6Z"/>
    <path class="st4" d="M109.9,384.2c-1.4,0-2.4-.4-3.1-1.1-.7-.7-1-1.7-1-3v-6.5c0-1.3.3-2.3,1-3,.7-.7,1.7-1.1,3.1-1.1s2.4.4,3.1,1.1c.7.7,1,1.7,1,3v6.5c0,1.3-.3,2.3-1,3-.7.7-1.7,1.1-3.1,1.1ZM109.9,382.3c.7,0,1.3-.2,1.6-.6.3-.4.5-.9.5-1.6v-6.5c0-.7-.2-1.2-.5-1.6-.3-.4-.9-.6-1.6-.6s-1.3.2-1.6.6c-.3.4-.5.9-.5,1.6v6.5c0,.7.2,1.2.5,1.6.3.4.9.6,1.6.6Z"/>
    <path class="st4" d="M120.6,384.2c-1.4,0-2.4-.4-3.1-1.1-.7-.7-1-1.7-1-3v-6.5c0-1.3.3-2.3,1-3,.7-.7,1.7-1.1,3.1-1.1s2.4.4,3.1,1.1c.7.7,1,1.7,1,3v6.5c0,1.3-.3,2.3-1,3-.7.7-1.7,1.1-3.1,1.1ZM120.6,382.3c.7,0,1.3-.2,1.6-.6.3-.4.5-.9.5-1.6v-6.5c0-.7-.2-1.2-.5-1.6-.3-.4-.9-.6-1.6-.6s-1.3.2-1.6.6c-.3.4-.5.9-.5,1.6v6.5c0,.7.2,1.2.5,1.6.3.4.9.6,1.6.6Z"/>
    <path class="st4" d="M131.4,384.2c-1.4,0-2.4-.4-3.1-1.1-.7-.7-1-1.7-1-3v-6.5c0-1.3.3-2.3,1-3,.7-.7,1.7-1.1,3.1-1.1s2.4.4,3.1,1.1c.7.7,1,1.7,1,3v6.5c0,1.3-.3,2.3-1,3-.7.7-1.7,1.1-3.1,1.1ZM131.4,382.3c.7,0,1.3-.2,1.6-.6.3-.4.5-.9.5-1.6v-6.5c0-.7-.2-1.2-.5-1.6-.3-.4-.9-.6-1.6-.6s-1.3.2-1.6.6c-.3.4-.5.9-.5,1.6v6.5c0,.7.2,1.2.5,1.6.3.4.9.6,1.6.6Z"/>
  </g>
  <g>
    <path class="st4" d="M96.8,284.6l3.6-7.1v.4c-.2.3-.4.5-.8.7-.3.1-.7.2-1.2.2-1,0-1.9-.4-2.5-1.2-.6-.8-.9-1.8-.9-3.1h0c0-1.4.4-2.5,1.1-3.3.7-.8,1.7-1.2,3-1.2s2.3.4,3,1.2c.7.8,1,1.9,1,3.3h0c0,.6,0,1.2-.3,1.9s-.4,1.3-.8,2l-3.1,6.2h-2.2ZM99.1,276.8c.6,0,1.1-.2,1.5-.6.3-.4.5-1,.5-1.8h0c0-.8-.2-1.4-.5-1.8-.3-.4-.8-.6-1.5-.6s-1.1.2-1.5.6c-.3.4-.5,1-.5,1.8h0c0,.8.2,1.4.5,1.8.3.4.8.6,1.5.6Z"/>
    <path class="st4" d="M109.9,284.7c-1.4,0-2.4-.4-3.1-1.1s-1-1.7-1-3v-6.5c0-1.3.3-2.3,1-3s1.7-1.1,3.1-1.1,2.4.4,3.1,1.1c.7.7,1,1.7,1,3v6.5c0,1.3-.3,2.3-1,3-.7.7-1.7,1.1-3.1,1.1ZM109.9,282.8c.7,0,1.3-.2,1.6-.6.3-.4.5-.9.5-1.6v-6.5c0-.7-.2-1.2-.5-1.6s-.9-.6-1.6-.6-1.3.2-1.6.6-.5.9-.5,1.6v6.5c0,.7.2,1.2.5,1.6.3.4.9.6,1.6.6Z"/>
    <path class="st4" d="M120.6,284.7c-1.4,0-2.4-.4-3.1-1.1s-1-1.7-1-3v-6.5c0-1.3.3-2.3,1-3s1.7-1.1,3.1-1.1,2.4.4,3.1,1.1c.7.7,1,1.7,1,3v6.5c0,1.3-.3,2.3-1,3-.7.7-1.7,1.1-3.1,1.1ZM120.6,282.8c.7,0,1.3-.2,1.6-.6.3-.4.5-.9.5-1.6v-6.5c0-.7-.2-1.2-.5-1.6s-.9-.6-1.6-.6-1.3.2-1.6.6-.5.9-.5,1.6v6.5c0,.7.2,1.2.5,1.6.3.4.9.6,1.6.6Z"/>
    <path class="st4" d="M131.4,284.7c-1.4,0-2.4-.4-3.1-1.1s-1-1.7-1-3v-6.5c0-1.3.3-2.3,1-3s1.7-1.1,3.1-1.1,2.4.4,3.1,1.1c.7.7,1,1.7,1,3v6.5c0,1.3-.3,2.3-1,3-.7.7-1.7,1.1-3.1,1.1ZM131.4,282.8c.7,0,1.3-.2,1.6-.6.3-.4.5-.9.5-1.6v-6.5c0-.7-.2-1.2-.5-1.6s-.9-.6-1.6-.6-1.3.2-1.6.6-.5.9-.5,1.6v6.5c0,.7.2,1.2.5,1.6.3.4.9.6,1.6.6Z"/>
  </g>
  <g>
    <path class="st4" d="M92,170.7v14.4h-2v-12.2l-2,1.3v-2.1l2-1.4h2Z"/>
    <path class="st4" d="M95.1,185v-1.8l5-6.7c.3-.4.5-.8.7-1.2s.2-.8.2-1.2h0c0-.6-.2-1-.5-1.4-.3-.3-.8-.5-1.4-.5s-1.1.2-1.4.5-.6.8-.7,1.5h0s-2.1,0-2.1,0h0c.2-1.2.6-2.2,1.4-2.9.7-.7,1.7-1,2.8-1s2.3.3,3,1,1.1,1.6,1.1,2.8h0c0,.5-.1,1-.3,1.6-.2.6-.5,1.1-.9,1.6l-4.2,5.7h5.4v1.9h-8.1Z"/>
    <path class="st4" d="M109.9,185.2c-1.4,0-2.4-.4-3.1-1.1s-1-1.7-1-3v-6.5c0-1.3.3-2.3,1-3s1.7-1.1,3.1-1.1,2.4.4,3.1,1.1c.7.7,1,1.7,1,3v6.5c0,1.3-.3,2.3-1,3-.7.7-1.7,1.1-3.1,1.1ZM109.9,183.3c.7,0,1.3-.2,1.6-.6.3-.4.5-.9.5-1.6v-6.5c0-.7-.2-1.2-.5-1.6s-.9-.6-1.6-.6-1.3.2-1.6.6-.5.9-.5,1.6v6.5c0,.7.2,1.2.5,1.6.3.4.9.6,1.6.6Z"/>
    <path class="st4" d="M120.6,185.2c-1.4,0-2.4-.4-3.1-1.1s-1-1.7-1-3v-6.5c0-1.3.3-2.3,1-3s1.7-1.1,3.1-1.1,2.4.4,3.1,1.1c.7.7,1,1.7,1,3v6.5c0,1.3-.3,2.3-1,3-.7.7-1.7,1.1-3.1,1.1ZM120.6,183.3c.7,0,1.3-.2,1.6-.6.3-.4.5-.9.5-1.6v-6.5c0-.7-.2-1.2-.5-1.6s-.9-.6-1.6-.6-1.3.2-1.6.6-.5.9-.5,1.6v6.5c0,.7.2,1.2.5,1.6.3.4.9.6,1.6.6Z"/>
    <path class="st4" d="M131.4,185.2c-1.4,0-2.4-.4-3.1-1.1s-1-1.7-1-3v-6.5c0-1.3.3-2.3,1-3s1.7-1.1,3.1-1.1,2.4.4,3.1,1.1c.7.7,1,1.7,1,3v6.5c0,1.3-.3,2.3-1,3-.7.7-1.7,1.1-3.1,1.1ZM131.4,183.3c.7,0,1.3-.2,1.6-.6.3-.4.5-.9.5-1.6v-6.5c0-.7-.2-1.2-.5-1.6s-.9-.6-1.6-.6-1.3.2-1.6.6-.5.9-.5,1.6v6.5c0,.7.2,1.2.5,1.6.3.4.9.6,1.6.6Z"/>
  </g>
  <g>
    <path class="st4" d="M91.5,71.1v14.4h-2v-12.2l-2,1.3v-2.1l2-1.4h2Z"/>
    <path class="st4" d="M98.8,85.7c-1.1,0-2-.3-2.7-.9-.7-.6-1.1-1.5-1.3-2.7h0s2,0,2,0h0c0,.5.3.9.6,1.2.3.3.8.4,1.4.4s1.1-.2,1.5-.6c.4-.4.5-1,.5-1.8v-1.2c0-.8-.2-1.4-.5-1.8-.4-.4-.9-.6-1.5-.6s-.7,0-1,.3c-.3.2-.6.5-.9.8h-1.8v-7.6h7.3v1.9h-5.3v3.2c.3-.2.5-.4.8-.5.3-.1.6-.2.9-.2,1.3,0,2.2.4,2.9,1.2.7.8,1,1.9,1,3.2v1.2c0,1.4-.4,2.5-1.1,3.3-.7.8-1.7,1.2-3,1.2Z"/>
    <path class="st4" d="M109.9,85.7c-1.4,0-2.4-.4-3.1-1.1s-1-1.7-1-3v-6.5c0-1.3.3-2.3,1-3s1.7-1.1,3.1-1.1,2.4.4,3.1,1.1c.7.7,1,1.7,1,3v6.5c0,1.3-.3,2.3-1,3-.7.7-1.7,1.1-3.1,1.1ZM109.9,83.7c.7,0,1.3-.2,1.6-.6.3-.4.5-.9.5-1.6v-6.5c0-.7-.2-1.2-.5-1.6s-.9-.6-1.6-.6-1.3.2-1.6.6-.5.9-.5,1.6v6.5c0,.7.2,1.2.5,1.6.3.4.9.6,1.6.6Z"/>
    <path class="st4" d="M120.6,85.7c-1.4,0-2.4-.4-3.1-1.1s-1-1.7-1-3v-6.5c0-1.3.3-2.3,1-3s1.7-1.1,3.1-1.1,2.4.4,3.1,1.1c.7.7,1,1.7,1,3v6.5c0,1.3-.3,2.3-1,3-.7.7-1.7,1.1-3.1,1.1ZM120.6,83.7c.7,0,1.3-.2,1.6-.6.3-.4.5-.9.5-1.6v-6.5c0-.7-.2-1.2-.5-1.6s-.9-.6-1.6-.6-1.3.2-1.6.6-.5.9-.5,1.6v6.5c0,.7.2,1.2.5,1.6.3.4.9.6,1.6.6Z"/>
    <path class="st4" d="M131.4,85.7c-1.4,0-2.4-.4-3.1-1.1s-1-1.7-1-3v-6.5c0-1.3.3-2.3,1-3s1.7-1.1,3.1-1.1,2.4.4,3.1,1.1c.7.7,1,1.7,1,3v6.5c0,1.3-.3,2.3-1,3-.7.7-1.7,1.1-3.1,1.1ZM131.4,83.7c.7,0,1.3-.2,1.6-.6.3-.4.5-.9.5-1.6v-6.5c0-.7-.2-1.2-.5-1.6s-.9-.6-1.6-.6-1.3.2-1.6.6-.5.9-.5,1.6v6.5c0,.7.2,1.2.5,1.6.3.4.9.6,1.6.6Z"/>
  </g>
  <path class="st4" d="M144.5,599.1c-1.4,0-2.4-.4-3.1-1.1-.7-.7-1-1.7-1-3v-6.5c0-1.3.3-2.3,1-3,.7-.7,1.7-1.1,3.1-1.1s2.4.4,3.1,1.1c.7.7,1,1.7,1,3v6.5c0,1.3-.3,2.3-1,3-.7.7-1.7,1.1-3.1,1.1ZM144.5,597.2c.7,0,1.3-.2,1.6-.6.3-.4.5-.9.5-1.6v-6.5c0-.7-.2-1.2-.5-1.6-.3-.4-.9-.6-1.6-.6s-1.3.2-1.6.6c-.3.4-.5.9-.5,1.6v6.5c0,.7.2,1.2.5,1.6.3.4.9.6,1.6.6Z"/>
  <path class="st4" d="M221.7,598.9v-1.8l5-6.7c.3-.4.5-.8.7-1.2.2-.4.2-.8.2-1.2h0c0-.6-.2-1-.5-1.4-.3-.3-.8-.5-1.4-.5s-1.1.2-1.4.5c-.4.3-.6.8-.7,1.5h0s-2.1,0-2.1,0h0c.2-1.2.6-2.2,1.4-2.9.7-.7,1.7-1,2.8-1s2.3.3,3,1,1.1,1.6,1.1,2.8h0c0,.5-.1,1-.3,1.6-.2.6-.5,1.1-.9,1.6l-4.2,5.7h5.4v1.9h-8.1Z"/>
  <path class="st4" d="M303,596.7v-1.8l4.1-10.4h1.8l-4,10.3h6v1.9h-7.9ZM308.3,598.9v-8.5h1.7v8.5h-1.7Z"/>
  <path class="st4" d="M387.9,599.1c-1.3,0-2.3-.4-3-1.1-.7-.8-1-1.8-1-3.2h0c0-.6,0-1.3.3-2s.4-1.4.7-2l3.1-6.2h2.2l-3.7,7.2v-.4c.4-.7,1-1,1.8-1s2,.4,2.6,1.1c.6.7.9,1.8.9,3.2h0c0,1.4-.3,2.5-1,3.2-.7.8-1.7,1.2-3,1.2ZM387.9,597.1c.6,0,1.1-.2,1.5-.6s.5-1,.5-1.7h0c0-.8-.2-1.4-.5-1.9-.4-.4-.9-.7-1.6-.7s-1.1.2-1.4.7-.5,1.1-.5,1.9h0c0,.7.2,1.3.5,1.7.3.4.8.6,1.5.6Z"/>
  <path class="st4" d="M469.1,599.1c-.9,0-1.6-.2-2.3-.5-.7-.3-1.2-.8-1.5-1.4-.4-.6-.5-1.3-.5-2.1v-.2c0-.7.2-1.4.5-2,.4-.6.8-1.1,1.4-1.4-.5-.3-.9-.7-1.2-1.2-.3-.5-.5-1.1-.5-1.7v-.3c0-1.1.4-2.1,1.1-2.7.7-.7,1.7-1,3-1s2.2.3,3,1c.7.7,1.1,1.6,1.1,2.7v.3c0,.6-.2,1.2-.5,1.7s-.7.9-1.2,1.2c.6.3,1.1.8,1.5,1.4s.5,1.3.5,2v.2c0,.8-.2,1.5-.5,2.1-.4.6-.9,1.1-1.5,1.4-.7.3-1.4.5-2.3.5ZM469.1,597.1c.7,0,1.3-.2,1.7-.6s.6-.9.6-1.6h0c0-.8-.2-1.3-.6-1.7s-1-.6-1.7-.6-1.3.2-1.7.6-.6.9-.6,1.6h0c0,.8.2,1.3.6,1.7s1,.6,1.7.6ZM469.1,590.6c.6,0,1.1-.2,1.5-.6.4-.4.6-.9.6-1.5h0c0-.8-.2-1.2-.6-1.6-.4-.4-.9-.6-1.5-.6s-1.1.2-1.5.6-.6.9-.6,1.5h0c0,.8.2,1.3.6,1.7.4.4.9.6,1.5.6Z"/>
  <g>
    <path class="st4" d="M546.2,584.5v14.4h-2v-12.2l-2,1.3v-2.1l2-1.4h2Z"/>
    <path class="st4" d="M553.6,599.1c-1.4,0-2.4-.4-3.1-1.1-.7-.7-1-1.7-1-3v-6.5c0-1.3.3-2.3,1-3,.7-.7,1.7-1.1,3.1-1.1s2.4.4,3.1,1.1c.7.7,1,1.7,1,3v6.5c0,1.3-.3,2.3-1,3-.7.7-1.7,1.1-3.1,1.1ZM553.6,597.2c.7,0,1.3-.2,1.6-.6.3-.4.5-.9.5-1.6v-6.5c0-.7-.2-1.2-.5-1.6-.3-.4-.9-.6-1.6-.6s-1.3.2-1.6.6c-.3.4-.5.9-.5,1.6v6.5c0,.7.2,1.2.5,1.6.3.4.9.6,1.6.6Z"/>
  </g>
  <g>
    <path class="st4" d="M627.8,584.5v14.4h-2v-12.2l-2,1.3v-2.1l2-1.4h2Z"/>
    <path class="st4" d="M630.8,598.9v-1.8l5-6.7c.3-.4.5-.8.7-1.2.2-.4.2-.8.2-1.2h0c0-.6-.2-1-.5-1.4-.3-.3-.8-.5-1.4-.5s-1.1.2-1.4.5c-.4.3-.6.8-.7,1.5h0s-2.1,0-2.1,0h0c.2-1.2.6-2.2,1.4-2.9.7-.7,1.7-1,2.8-1s2.3.3,3,1,1.1,1.6,1.1,2.8h0c0,.5-.1,1-.3,1.6-.2.6-.5,1.1-.9,1.6l-4.2,5.7h5.4v1.9h-8.1Z"/>
  </g>
  <g>
    <path class="st4" d="M708.4,584.5v14.4h-2v-12.2l-2,1.3v-2.1l2-1.4h2Z"/>
    <path class="st4" d="M711.4,596.7v-1.7l4.8-10.4h2.1l-4.7,10.3h7v1.9h-9.2ZM717.6,598.9v-8.5h2v8.5h-2Z"/>
  </g>
  <g>
    <path class="st4" d="M790.1,584.5v14.4h-2v-12.2l-2,1.3v-2.1l2-1.4h2Z"/>
    <path class="st4" d="M797,599.1c-1.3,0-2.3-.4-3-1.1-.7-.8-1-1.8-1-3.2h0c0-.6,0-1.3.3-2,.2-.7.4-1.4.7-2l3.1-6.2h2.2l-3.7,7.2v-.4c.4-.7,1-1,1.8-1s2,.4,2.6,1.1c.6.7.9,1.8.9,3.2h0c0,1.4-.3,2.5-1,3.2-.7.8-1.7,1.2-3,1.2ZM797,597.1c.6,0,1.1-.2,1.5-.6s.5-1,.5-1.7h0c0-.8-.2-1.4-.5-1.9-.4-.4-.9-.7-1.6-.7s-1.1.2-1.4.7c-.3.4-.5,1.1-.5,1.9h0c0,.7.2,1.3.5,1.7.3.4.8.6,1.5.6Z"/>
  </g>
  <g>
    <path class="st4" d="M870.7,584.5v14.4h-2v-12.2l-2,1.3v-2.1l2-1.4h2Z"/>
    <path class="st4" d="M878.2,599.1c-.9,0-1.6-.2-2.3-.5-.7-.3-1.2-.8-1.5-1.4s-.5-1.3-.5-2.1v-.2c0-.7.2-1.4.5-2s.8-1.1,1.4-1.4c-.5-.3-.9-.7-1.2-1.2-.3-.5-.5-1.1-.5-1.7v-.3c0-1.1.4-2.1,1.1-2.7s1.7-1,3-1,2.2.3,3,1c.7.7,1.1,1.6,1.1,2.7v.3c0,.6-.2,1.2-.5,1.7-.3.5-.7.9-1.2,1.2.6.3,1.1.8,1.5,1.4.4.6.5,1.3.5,2v.2c0,.8-.2,1.5-.5,2.1s-.9,1.1-1.5,1.4c-.7.3-1.4.5-2.3.5ZM878.2,597.1c.7,0,1.3-.2,1.7-.6s.6-.9.6-1.6h0c0-.8-.2-1.3-.6-1.7s-1-.6-1.7-.6-1.3.2-1.7.6-.6.9-.6,1.6h0c0,.8.2,1.3.6,1.7s1,.6,1.7.6ZM878.2,590.6c.6,0,1.1-.2,1.5-.6.4-.4.6-.9.6-1.5h0c0-.8-.2-1.2-.6-1.6s-.9-.6-1.5-.6-1.1.2-1.5.6c-.4.4-.6.9-.6,1.5h0c0,.8.2,1.3.6,1.7.4.4.9.6,1.5.6Z"/>
  </g>
  <g>
    <path class="st4" d="M946.4,598.9v-1.8l5-6.7c.3-.4.5-.8.7-1.2.2-.4.2-.8.2-1.2h0c0-.6-.2-1-.5-1.4s-.8-.5-1.4-.5-1.1.2-1.4.5c-.4.3-.6.8-.7,1.5h0s-2.1,0-2.1,0h0c.2-1.2.6-2.2,1.4-2.9.7-.7,1.7-1,2.8-1s2.3.3,3,1,1.1,1.6,1.1,2.8h0c0,.5-.1,1-.3,1.6-.2.6-.5,1.1-.9,1.6l-4.2,5.7h5.4v1.9h-8.1Z"/>
    <path class="st4" d="M961.2,599.1c-1.4,0-2.4-.4-3.1-1.1-.7-.7-1-1.7-1-3v-6.5c0-1.3.3-2.3,1-3,.7-.7,1.7-1.1,3.1-1.1s2.4.4,3.1,1.1c.7.7,1,1.7,1,3v6.5c0,1.3-.3,2.3-1,3-.7.7-1.7,1.1-3.1,1.1ZM961.2,597.2c.7,0,1.3-.2,1.6-.6.3-.4.5-.9.5-1.6v-6.5c0-.7-.2-1.2-.5-1.6-.3-.4-.9-.6-1.6-.6s-1.3.2-1.6.6c-.3.4-.5.9-.5,1.6v6.5c0,.7.2,1.2.5,1.6.3.4.9.6,1.6.6Z"/>
  </g>
  <g>
    <path class="st4" d="M1027.9,598.9v-1.8l5-6.7c.3-.4.5-.8.7-1.2.2-.4.2-.8.2-1.2h0c0-.6-.2-1-.5-1.4s-.8-.5-1.4-.5-1.1.2-1.4.5c-.4.3-.6.8-.7,1.5h0s-2.1,0-2.1,0h0c.2-1.2.6-2.2,1.4-2.9.7-.7,1.7-1,2.8-1s2.3.3,3,1,1.1,1.6,1.1,2.8h0c0,.5-.1,1-.3,1.6-.2.6-.5,1.1-.9,1.6l-4.2,5.7h5.4v1.9h-8.1Z"/>
    <path class="st4" d="M1038.4,598.9v-1.8l5-6.7c.3-.4.5-.8.7-1.2.2-.4.2-.8.2-1.2h0c0-.6-.2-1-.5-1.4s-.8-.5-1.4-.5-1.1.2-1.4.5c-.4.3-.6.8-.7,1.5h0s-2.1,0-2.1,0h0c.2-1.2.6-2.2,1.4-2.9.7-.7,1.7-1,2.8-1s2.3.3,3,1,1.1,1.6,1.1,2.8h0c0,.5-.1,1-.3,1.6-.2.6-.5,1.1-.9,1.6l-4.2,5.7h5.4v1.9h-8.1Z"/>
  </g>
</svg>