<svg width="1378" height="1556" xmlns="http://www.w3.org/2000/svg" xmlns:xlink="http://www.w3.org/1999/xlink" xml:space="preserve" overflow="hidden"><defs><clipPath id="clip0"><rect x="5376" y="7027" width="1378" height="1556"/></clipPath></defs><g clip-path="url(#clip0)" transform="translate(-5376 -7027)"><g><path d="M5488.5 8349.77 6667.5 8349.77M5488.5 8227.77 6667.5 8227.77M5488.5 8105.77 6667.5 8105.77M5488.5 7983.76 6667.5 7983.76M5488.5 7861.76 6667.5 7861.76M5488.5 7739.75 6667.5 7739.75M5488.5 7617.75 6667.5 7617.75M5488.5 7495.75 6667.5 7495.75M5488.5 7373.74 6667.5 7373.74M5488.5 7251.74 6667.5 7251.74M5488.5 7129.5 6667.5 7129.5" stroke="#D9D9D9" stroke-width="1.14583" stroke-linejoin="round" stroke-miterlimit="10" stroke-opacity="0.701961" fill="none"/></g><g><path d="M5595.68 7129.5 5595.68 8472.5M5702.69 7129.5 5702.69 8472.5M5809.69 7129.5 5809.69 8472.5M5917.69 7129.5 5917.69 8472.5M6024.7 7129.5 6024.7 8472.5M6131.7 7129.5 6131.7 8472.5M6238.7 7129.5 6238.7 8472.5M6345.71 7129.5 6345.71 8472.5M6452.71 7129.5 6452.71 8472.5M6559.72 7129.5 6559.72 8472.5M6667.5 7129.5 6667.5 8472.5" stroke="#D9D9D9" stroke-width="1.14583" stroke-linejoin="round" stroke-miterlimit="10" stroke-opacity="0.701961" fill="none"/></g><g><path d="M0 0 0.000360892 1343" stroke="#BFBFBF" stroke-width="3.4375" stroke-linejoin="round" stroke-miterlimit="10" fill="none" fill-rule="evenodd" transform="matrix(1 0 0 -1 5488.5 8472.5)"/></g><g><path d="M5488.5 8472.5 6667.5 8472.5" stroke="#BFBFBF" stroke-width="3.4375" stroke-linejoin="round" stroke-miterlimit="10" fill="none" fill-rule="evenodd"/></g><g><text fill="#A6A6A6" font-family="Bahnschrift,Bahnschrift_MSFontService,sans-serif" font-weight="400" font-size="21" transform="matrix(1 0 0 1 5458.15 8480)">0</text></g><g><text fill="#A6A6A6" font-family="Bahnschrift,Bahnschrift_MSFontService,sans-serif" font-weight="400" font-size="21" transform="matrix(1 0 0 1 5424.88 8358)">2500</text></g><g><text fill="#A6A6A6" font-family="Bahnschrift,Bahnschrift_MSFontService,sans-serif" font-weight="400" font-size="21" transform="matrix(1 0 0 1 5424.14 8236)">5000</text></g><g><text fill="#A6A6A6" font-family="Bahnschrift,Bahnschrift_MSFontService,sans-serif" font-weight="400" font-size="21" transform="matrix(1 0 0 1 5425.15 8113)">7500</text></g><g><text fill="#A6A6A6" font-family="Bahnschrift,Bahnschrift_MSFontService,sans-serif" font-weight="400" font-size="21" transform="matrix(1 0 0 1 5417.13 7991)">10000</text></g><g><text fill="#A6A6A6" font-family="Bahnschrift,Bahnschrift_MSFontService,sans-serif" font-weight="400" font-size="21" transform="matrix(1 0 0 1 5418.03 7869)">12500</text></g><g><text fill="#A6A6A6" font-family="Bahnschrift,Bahnschrift_MSFontService,sans-serif" font-weight="400" font-size="21" transform="matrix(1 0 0 1 5417.29 7747)">15000</text></g><g><text fill="#A6A6A6" font-family="Bahnschrift,Bahnschrift_MSFontService,sans-serif" font-weight="400" font-size="21" transform="matrix(1 0 0 1 5418.3 7625)">17500</text></g><g><text fill="#A6A6A6" font-family="Bahnschrift,Bahnschrift_MSFontService,sans-serif" font-weight="400" font-size="21" transform="matrix(1 0 0 1 5413.33 7503)">20000</text></g><g><text fill="#A6A6A6" font-family="Bahnschrift,Bahnschrift_MSFontService,sans-serif" font-weight="400" font-size="21" transform="matrix(1 0 0 1 5414.22 7381)">22500</text></g><g><text fill="#A6A6A6" font-family="Bahnschrift,Bahnschrift_MSFontService,sans-serif" font-weight="400" font-size="21" transform="matrix(1 0 0 1 5413.49 7259)">25000</text></g><g><text fill="#A6A6A6" font-family="Bahnschrift,Bahnschrift_MSFontService,sans-serif" font-weight="400" font-size="21" transform="matrix(1 0 0 1 5414.5 7137)">27500</text></g><g><text fill="#A6A6A6" font-family="Bahnschrift,Bahnschrift_MSFontService,sans-serif" font-weight="400" font-size="21" transform="matrix(1 0 0 1 5483.06 8507)">0</text></g><g><text fill="#A6A6A6" font-family="Bahnschrift,Bahnschrift_MSFontService,sans-serif" font-weight="400" font-size="21" transform="matrix(1 0 0 1 5584.86 8507)">20</text></g><g><text fill="#A6A6A6" font-family="Bahnschrift,Bahnschrift_MSFontService,sans-serif" font-weight="400" font-size="21" transform="matrix(1 0 0 1 5691.45 8507)">40</text></g><g><text fill="#A6A6A6" font-family="Bahnschrift,Bahnschrift_MSFontService,sans-serif" font-weight="400" font-size="21" transform="matrix(1 0 0 1 5799.16 8507)">60</text></g><g><text fill="#A6A6A6" font-family="Bahnschrift,Bahnschrift_MSFontService,sans-serif" font-weight="400" font-size="21" transform="matrix(1 0 0 1 5905.78 8507)">80</text></g><g><text fill="#A6A6A6" font-family="Bahnschrift,Bahnschrift_MSFontService,sans-serif" font-weight="400" font-size="21" transform="matrix(1 0 0 1 6009.59 8507)">100</text></g><g><text fill="#A6A6A6" font-family="Bahnschrift,Bahnschrift_MSFontService,sans-serif" font-weight="400" font-size="21" transform="matrix(1 0 0 1 6117.09 8507)">120</text></g><g><text fill="#A6A6A6" font-family="Bahnschrift,Bahnschrift_MSFontService,sans-serif" font-weight="400" font-size="21" transform="matrix(1 0 0 1 6223.68 8507)">140</text></g><g><text fill="#A6A6A6" font-family="Bahnschrift,Bahnschrift_MSFontService,sans-serif" font-weight="400" font-size="21" transform="matrix(1 0 0 1 6331.38 8507)">160</text></g><g><text fill="#A6A6A6" font-family="Bahnschrift,Bahnschrift_MSFontService,sans-serif" font-weight="400" font-size="21" transform="matrix(1 0 0 1 6438.01 8507)">180</text></g><g><text fill="#A6A6A6" font-family="Bahnschrift,Bahnschrift_MSFontService,sans-serif" font-weight="400" font-size="21" transform="matrix(1 0 0 1 6543.34 8507)">200</text></g><g><text fill="#A6A6A6" font-family="Bahnschrift,Bahnschrift_MSFontService,sans-serif" font-weight="400" font-size="21" transform="matrix(1 0 0 1 6650.84 8507)">220</text></g><text fill="#A6A6A6" font-family="Bahnschrift,Bahnschrift_MSFontService,sans-serif" font-weight="400" font-size="37" transform="matrix(1 0 0 1 5409.2 7089)">3DMark Time Spy/</text><g><text fill="#A6A6A6" font-family="Microsoft YaHei,Microsoft YaHei_MSFontService,sans-serif" font-weight="400" font-size="37" transform="matrix(1 0 0 1 5707.49 7089)">图形分</text></g><text fill="#A6A6A6" font-family="Bahnschrift,Bahnschrift_MSFontService,sans-serif" font-weight="400" font-size="37" transform="matrix(1 0 0 1 6581.49 8549)">TGP/W</text></g></svg>