<svg width="1378" height="1556" xmlns="http://www.w3.org/2000/svg" xmlns:xlink="http://www.w3.org/1999/xlink" xml:space="preserve" overflow="hidden"><defs><clipPath id="clip0"><rect x="455" y="7054" width="1378" height="1556"/></clipPath></defs><g clip-path="url(#clip0)" transform="translate(-455 -7054)"><g><path d="M1642 8142C1642 8144.21 1640.21 8146 1638 8146 1635.79 8146 1634 8144.21 1634 8142 1634 8139.79 1635.79 8138 1638 8138 1640.21 8138 1642 8139.79 1642 8142Z" stroke="#D63F3F" stroke-width="3.4375" stroke-linejoin="round" stroke-miterlimit="10" fill="#D63F3F"/></g><g><path d="M1707.2 8145.07C1706.76 8145.07 1706.41 8145.21 1706.14 8145.48 1705.88 8145.75 1705.74 8146.11 1705.74 8146.56 1705.74 8147.01 1705.88 8147.37 1706.15 8147.63 1706.42 8147.9 1706.77 8148.03 1707.2 8148.03 1707.61 8148.03 1707.94 8147.9 1708.2 8147.63 1708.46 8147.37 1708.59 8147.01 1708.59 8146.56 1708.59 8146.11 1708.47 8145.75 1708.22 8145.48 1707.97 8145.21 1707.63 8145.07 1707.2 8145.07ZM1717.17 8140.82C1716.69 8140.82 1716.33 8141.11 1716.1 8141.68 1715.88 8142.26 1715.76 8143.16 1715.76 8144.39 1715.76 8145.59 1715.88 8146.49 1716.1 8147.07 1716.33 8147.66 1716.69 8147.95 1717.17 8147.95 1717.64 8147.95 1717.98 8147.66 1718.21 8147.07 1718.43 8146.47 1718.54 8145.58 1718.54 8144.39 1718.54 8143.19 1718.43 8142.3 1718.21 8141.71 1717.98 8141.11 1717.64 8140.82 1717.17 8140.82ZM1697.17 8140.82C1696.69 8140.82 1696.33 8141.11 1696.1 8141.68 1695.88 8142.26 1695.76 8143.16 1695.76 8144.39 1695.76 8145.59 1695.88 8146.49 1696.1 8147.07 1696.33 8147.66 1696.69 8147.95 1697.17 8147.95 1697.64 8147.95 1697.98 8147.66 1698.21 8147.07 1698.43 8146.47 1698.54 8145.58 1698.54 8144.39 1698.54 8143.19 1698.43 8142.3 1698.21 8141.71 1697.98 8141.11 1697.64 8140.82 1697.17 8140.82ZM1707.2 8140.55C1706.86 8140.55 1706.59 8140.65 1706.38 8140.87 1706.18 8141.08 1706.08 8141.35 1706.08 8141.67 1706.08 8141.99 1706.18 8142.25 1706.38 8142.46 1706.59 8142.67 1706.86 8142.77 1707.2 8142.77 1707.53 8142.77 1707.8 8142.67 1708.02 8142.46 1708.23 8142.25 1708.34 8141.99 1708.34 8141.67 1708.34 8141.36 1708.23 8141.09 1708.02 8140.87 1707.8 8140.66 1707.53 8140.55 1707.2 8140.55ZM1671.48 8138.53 1674.82 8138.53 1677.24 8142.05 1679.69 8138.53 1682.84 8138.53 1678.74 8144.21 1683.05 8150.24 1679.67 8150.24 1677.06 8146.43 1674.41 8150.24 1671.27 8150.24 1675.58 8144.27ZM1661.35 8138.53 1671.11 8138.53 1671.11 8140.95 1667.59 8140.95 1667.59 8150.24 1664.87 8150.24 1664.87 8140.95 1661.35 8140.95ZM1688.23 8138.51 1690.38 8138.51 1690.38 8150.24 1687.61 8150.24 1687.61 8141.44 1684.57 8143.12 1684.57 8140.56ZM1717.17 8138.31C1718.53 8138.31 1719.59 8138.82 1720.33 8139.86 1721.07 8140.89 1721.44 8142.4 1721.44 8144.39 1721.44 8146.36 1721.07 8147.86 1720.33 8148.9 1719.59 8149.93 1718.53 8150.45 1717.17 8150.45 1715.8 8150.45 1714.74 8149.94 1713.99 8148.91 1713.24 8147.88 1712.86 8146.37 1712.86 8144.39 1712.86 8142.4 1713.24 8140.89 1713.99 8139.86 1714.74 8138.82 1715.8 8138.31 1717.17 8138.31ZM1697.17 8138.31C1698.53 8138.31 1699.59 8138.82 1700.33 8139.86 1701.07 8140.89 1701.44 8142.4 1701.44 8144.39 1701.44 8146.36 1701.07 8147.86 1700.33 8148.9 1699.59 8149.93 1698.53 8150.45 1697.17 8150.45 1695.8 8150.45 1694.74 8149.94 1693.99 8148.91 1693.24 8147.88 1692.86 8146.37 1692.86 8144.39 1692.86 8142.4 1693.24 8140.89 1693.99 8139.86 1694.74 8138.82 1695.8 8138.31 1697.17 8138.31ZM1655.75 8138.31C1656.53 8138.31 1657.24 8138.43 1657.87 8138.67 1658.51 8138.92 1659.04 8139.25 1659.46 8139.67 1659.88 8140.08 1660.17 8140.55 1660.34 8141.06L1658.07 8142.37C1657.85 8141.87 1657.54 8141.48 1657.14 8141.2 1656.74 8140.92 1656.26 8140.79 1655.7 8140.79 1655.14 8140.79 1654.63 8140.93 1654.17 8141.22 1653.71 8141.51 1653.35 8141.92 1653.08 8142.46 1652.81 8143 1652.68 8143.63 1652.68 8144.37 1652.68 8145.49 1652.98 8146.37 1653.57 8147.02 1654.16 8147.66 1654.95 8147.99 1655.94 8147.99 1656.69 8147.99 1657.26 8147.79 1657.66 8147.39L1657.66 8145.91 1655.58 8145.91 1655.58 8143.57 1660.31 8143.57 1660.31 8148.43C1659.94 8149.06 1659.34 8149.56 1658.51 8149.91 1657.69 8150.27 1656.78 8150.45 1655.78 8150.45 1654.62 8150.45 1653.59 8150.19 1652.69 8149.68 1651.79 8149.17 1651.09 8148.45 1650.59 8147.53 1650.1 8146.61 1649.85 8145.55 1649.85 8144.37 1649.85 8143.16 1650.11 8142.1 1650.62 8141.18 1651.14 8140.25 1651.85 8139.55 1652.74 8139.05 1653.64 8138.55 1654.64 8138.31 1655.75 8138.31ZM1707.2 8138.29C1708.03 8138.29 1708.73 8138.43 1709.3 8138.71 1709.88 8139 1710.3 8139.38 1710.58 8139.87 1710.87 8140.35 1711.01 8140.9 1711.01 8141.51 1711.01 8142.04 1710.89 8142.51 1710.64 8142.91 1710.4 8143.32 1710.05 8143.64 1709.6 8143.87 1710.19 8144.16 1710.65 8144.56 1710.98 8145.06 1711.31 8145.56 1711.47 8146.16 1711.47 8146.87 1711.47 8147.57 1711.3 8148.19 1710.95 8148.74 1710.61 8149.28 1710.11 8149.7 1709.46 8150 1708.82 8150.3 1708.06 8150.45 1707.2 8150.45 1706.32 8150.45 1705.54 8150.3 1704.89 8149.99 1704.23 8149.69 1703.73 8149.27 1703.38 8148.73 1703.02 8148.19 1702.85 8147.57 1702.85 8146.87 1702.85 8146.16 1703.02 8145.56 1703.35 8145.06 1703.69 8144.56 1704.15 8144.17 1704.74 8143.89 1704.27 8143.64 1703.9 8143.32 1703.64 8142.91 1703.38 8142.51 1703.25 8142.04 1703.25 8141.51 1703.25 8140.92 1703.4 8140.38 1703.7 8139.89 1704.01 8139.4 1704.46 8139.01 1705.06 8138.72 1705.65 8138.43 1706.37 8138.29 1707.2 8138.29Z" stroke="#000000" stroke-linejoin="round" stroke-miterlimit="10" stroke-opacity="0.54902" fill="#FFFFFF" fill-rule="evenodd"/><text fill="#000000" fill-opacity="0" font-family="Arial,Arial_MSFontService,sans-serif" font-size="12.1602" x="1649.85" y="8148.93">GTX1080</text></g></g></svg>