<svg width="1378" height="1556" xmlns="http://www.w3.org/2000/svg" xmlns:xlink="http://www.w3.org/1999/xlink" xml:space="preserve" overflow="hidden"><defs><clipPath id="clip0"><rect x="455" y="7054" width="1378" height="1556"/></clipPath></defs><g clip-path="url(#clip0)" transform="translate(-455 -7054)"><g><path d="M1186.95 8232.84C1186.95 8235.05 1185.16 8236.84 1182.95 8236.84 1180.74 8236.84 1178.95 8235.05 1178.95 8232.84 1178.95 8230.63 1180.74 8228.84 1182.95 8228.84 1185.16 8228.84 1186.95 8230.63 1186.95 8232.84Z" stroke="#D63F3F" stroke-width="3.4375" stroke-linejoin="round" stroke-miterlimit="10" fill="#D63F3F"/></g><g><path d="M1261.84 8230.21C1261.36 8230.21 1261.01 8230.5 1260.78 8231.07 1260.55 8231.65 1260.43 8232.55 1260.43 8233.78 1260.43 8234.98 1260.55 8235.88 1260.78 8236.46 1261.01 8237.05 1261.36 8237.34 1261.84 8237.34 1262.31 8237.34 1262.66 8237.05 1262.88 8236.46 1263.1 8235.86 1263.22 8234.97 1263.22 8233.78 1263.22 8232.58 1263.1 8231.69 1262.88 8231.1 1262.66 8230.5 1262.31 8230.21 1261.84 8230.21ZM1241.84 8230.21C1241.36 8230.21 1241.01 8230.5 1240.78 8231.07 1240.55 8231.65 1240.43 8232.55 1240.43 8233.78 1240.43 8234.98 1240.55 8235.88 1240.78 8236.46 1241.01 8237.05 1241.36 8237.34 1241.84 8237.34 1242.31 8237.34 1242.66 8237.05 1242.88 8236.46 1243.1 8235.86 1243.22 8234.97 1243.22 8233.78 1243.22 8232.58 1243.1 8231.69 1242.88 8231.1 1242.66 8230.5 1242.31 8230.21 1241.84 8230.21ZM1216.15 8227.92 1219.5 8227.92 1221.91 8231.44 1224.36 8227.92 1227.51 8227.92 1223.42 8233.6 1227.72 8239.63 1224.34 8239.63 1221.74 8235.82 1219.08 8239.63 1215.94 8239.63 1220.25 8233.66ZM1206.03 8227.92 1215.78 8227.92 1215.78 8230.34 1212.27 8230.34 1212.27 8239.63 1209.54 8239.63 1209.54 8230.34 1206.03 8230.34ZM1247.76 8227.9 1255.87 8227.9 1255.87 8229.62 1251.97 8239.63 1249.01 8239.63 1252.82 8230.29 1247.76 8230.29ZM1232.9 8227.9 1235.05 8227.9 1235.05 8239.63 1232.28 8239.63 1232.28 8230.83 1229.24 8232.51 1229.24 8229.95ZM1261.84 8227.7C1263.21 8227.7 1264.26 8228.21 1265 8229.25 1265.74 8230.28 1266.11 8231.79 1266.11 8233.78 1266.11 8235.75 1265.74 8237.25 1265 8238.29 1264.26 8239.32 1263.21 8239.84 1261.84 8239.84 1260.48 8239.84 1259.42 8239.33 1258.66 8238.3 1257.91 8237.27 1257.54 8235.76 1257.54 8233.78 1257.54 8231.79 1257.91 8230.28 1258.66 8229.25 1259.42 8228.21 1260.48 8227.7 1261.84 8227.7ZM1241.84 8227.7C1243.21 8227.7 1244.26 8228.21 1245 8229.25 1245.74 8230.28 1246.11 8231.79 1246.11 8233.78 1246.11 8235.75 1245.74 8237.25 1245 8238.29 1244.26 8239.32 1243.21 8239.84 1241.84 8239.84 1240.48 8239.84 1239.42 8239.33 1238.66 8238.3 1237.91 8237.27 1237.54 8235.76 1237.54 8233.78 1237.54 8231.79 1237.91 8230.28 1238.66 8229.25 1239.42 8228.21 1240.48 8227.7 1241.84 8227.7ZM1200.42 8227.7C1201.2 8227.7 1201.91 8227.82 1202.54 8228.06 1203.18 8228.31 1203.71 8228.64 1204.13 8229.06 1204.55 8229.47 1204.85 8229.94 1205.02 8230.45L1202.74 8231.76C1202.52 8231.26 1202.21 8230.87 1201.81 8230.59 1201.41 8230.31 1200.93 8230.18 1200.38 8230.18 1199.81 8230.18 1199.3 8230.32 1198.84 8230.61 1198.38 8230.9 1198.02 8231.31 1197.75 8231.85 1197.49 8232.39 1197.35 8233.02 1197.35 8233.76 1197.35 8234.88 1197.65 8235.76 1198.24 8236.41 1198.83 8237.05 1199.62 8237.38 1200.62 8237.38 1201.36 8237.38 1201.93 8237.18 1202.33 8236.78L1202.33 8235.3 1200.25 8235.3 1200.25 8232.96 1204.98 8232.96 1204.98 8237.82C1204.61 8238.45 1204.01 8238.95 1203.18 8239.3 1202.36 8239.66 1201.45 8239.84 1200.46 8239.84 1199.29 8239.84 1198.26 8239.58 1197.36 8239.07 1196.46 8238.56 1195.76 8237.84 1195.27 8236.92 1194.77 8236 1194.52 8234.94 1194.52 8233.76 1194.52 8232.55 1194.78 8231.49 1195.3 8230.57 1195.81 8229.65 1196.52 8228.94 1197.42 8228.44 1198.31 8227.94 1199.32 8227.7 1200.42 8227.7Z" stroke="#000000" stroke-linejoin="round" stroke-miterlimit="10" stroke-opacity="0.54902" fill="#FFFFFF" fill-rule="evenodd"/><text fill="#000000" fill-opacity="0" font-family="Arial,Arial_MSFontService,sans-serif" font-size="12.1436" x="1194.52" y="8238.32">GTX1070</text></g></g></svg>