<svg width="1378" height="1556" xmlns="http://www.w3.org/2000/svg" xmlns:xlink="http://www.w3.org/1999/xlink" xml:space="preserve" overflow="hidden"><defs><clipPath id="clip0"><rect x="455" y="7054" width="1378" height="1556"/></clipPath></defs><g clip-path="url(#clip0)" transform="translate(-455 -7054)"><g><path d="M838.946 8329.84C838.946 8332.05 837.156 8333.84 834.947 8333.84 832.738 8333.84 830.947 8332.05 830.947 8329.84 830.947 8327.63 832.738 8325.84 834.947 8325.84 837.156 8325.84 838.946 8327.63 838.946 8329.84Z" stroke="#FF0000" stroke-width="3.4375" stroke-linejoin="round" stroke-miterlimit="10" fill="#FF0000"/></g><g><path d="M893.697 8331.22C893.27 8331.22 892.924 8331.36 892.657 8331.64 892.39 8331.92 892.257 8332.29 892.257 8332.74 892.257 8333.18 892.393 8333.55 892.665 8333.84 892.937 8334.13 893.281 8334.27 893.697 8334.27 894.113 8334.27 894.454 8334.13 894.721 8333.84 894.988 8333.55 895.121 8333.18 895.121 8332.72 895.121 8332.27 894.988 8331.91 894.721 8331.63 894.454 8331.35 894.113 8331.22 893.697 8331.22ZM913.649 8327.07C913.169 8327.07 912.814 8327.36 912.585 8327.94 912.356 8328.51 912.241 8329.41 912.241 8330.64 912.241 8331.85 912.356 8332.74 912.585 8333.33 912.814 8333.92 913.169 8334.21 913.649 8334.21 914.118 8334.21 914.465 8333.91 914.689 8333.32 914.913 8332.73 915.025 8331.83 915.025 8330.64 915.025 8329.45 914.913 8328.55 914.689 8327.96 914.465 8327.37 914.118 8327.07 913.649 8327.07ZM867.961 8324.78 871.305 8324.78 873.721 8328.3 876.169 8324.78 879.321 8324.78 875.225 8330.46 879.529 8336.5 876.153 8336.5 873.545 8332.69 870.889 8336.5 867.753 8336.5 872.057 8330.53ZM857.833 8324.78 867.593 8324.78 867.593 8327.2 864.073 8327.2 864.073 8336.5 861.353 8336.5 861.353 8327.2 857.833 8327.2ZM900.769 8324.77 907.201 8324.77 907.201 8327.07 903.041 8327.07 902.785 8329.02C903.169 8328.89 903.596 8328.82 904.065 8328.82 904.737 8328.82 905.353 8328.97 905.913 8329.29 906.473 8329.6 906.921 8330.05 907.257 8330.63 907.593 8331.21 907.761 8331.89 907.761 8332.67 907.761 8333.5 907.574 8334.23 907.201 8334.84 906.828 8335.45 906.321 8335.92 905.681 8336.23 905.041 8336.55 904.337 8336.7 903.569 8336.7 902.641 8336.7 901.846 8336.5 901.185 8336.08 900.524 8335.66 900.049 8335.03 899.761 8334.18L901.937 8332.9C902.065 8333.37 902.268 8333.71 902.545 8333.94 902.822 8334.17 903.148 8334.29 903.521 8334.29 903.958 8334.29 904.292 8334.14 904.521 8333.85 904.75 8333.55 904.865 8333.19 904.865 8332.75 904.865 8332.29 904.742 8331.92 904.497 8331.62 904.252 8331.33 903.894 8331.18 903.425 8331.18 902.806 8331.18 902.326 8331.49 901.985 8332.11L899.985 8331.15ZM893.425 8324.77 896.353 8324.77 894.145 8328.11C893.782 8328.62 893.558 8328.93 893.473 8329.04 893.74 8328.99 893.99 8328.96 894.225 8328.96 894.972 8328.96 895.63 8329.12 896.201 8329.42 896.772 8329.73 897.217 8330.17 897.537 8330.74 897.857 8331.3 898.017 8331.96 898.017 8332.72 898.017 8333.49 897.822 8334.18 897.433 8334.78 897.044 8335.39 896.518 8335.86 895.857 8336.2 895.196 8336.54 894.481 8336.7 893.713 8336.7 892.934 8336.7 892.217 8336.53 891.561 8336.19 890.905 8335.85 890.385 8335.37 890.001 8334.74 889.617 8334.11 889.425 8333.38 889.425 8332.56 889.425 8331.94 889.54 8331.35 889.769 8330.78 889.998 8330.22 890.422 8329.46 891.041 8328.5ZM884.713 8324.77 886.857 8324.77 886.857 8336.5 884.089 8336.5 884.089 8327.7 881.049 8329.38 881.049 8326.82ZM913.649 8324.56C915.014 8324.56 916.068 8325.08 916.809 8326.11 917.55 8327.15 917.921 8328.66 917.921 8330.64 917.921 8332.61 917.55 8334.12 916.809 8335.15 916.068 8336.19 915.014 8336.7 913.649 8336.7 912.284 8336.7 911.225 8336.19 910.473 8335.16 909.721 8334.13 909.345 8332.62 909.345 8330.64 909.345 8328.66 909.721 8327.15 910.473 8326.11 911.225 8325.08 912.284 8324.56 913.649 8324.56ZM852.233 8324.56C853.012 8324.56 853.718 8324.68 854.353 8324.93 854.988 8325.17 855.516 8325.5 855.937 8325.92 856.358 8326.34 856.654 8326.8 856.825 8327.31L854.553 8328.62C854.329 8328.12 854.017 8327.73 853.617 8327.46 853.217 8327.18 852.74 8327.04 852.185 8327.04 851.62 8327.04 851.108 8327.18 850.649 8327.47 850.19 8327.76 849.828 8328.17 849.561 8328.71 849.294 8329.25 849.161 8329.89 849.161 8330.62 849.161 8331.74 849.457 8332.63 850.049 8333.27 850.641 8333.92 851.433 8334.24 852.425 8334.24 853.172 8334.24 853.742 8334.04 854.137 8333.65L854.137 8332.16 852.057 8332.16 852.057 8329.82 856.793 8329.82 856.793 8334.69C856.42 8335.32 855.82 8335.81 854.993 8336.17 854.166 8336.53 853.257 8336.7 852.265 8336.7 851.102 8336.7 850.07 8336.45 849.169 8335.94 848.268 8335.42 847.569 8334.71 847.073 8333.78 846.577 8332.86 846.329 8331.81 846.329 8330.62 846.329 8329.42 846.588 8328.35 847.105 8327.43 847.622 8326.51 848.329 8325.8 849.225 8325.3 850.121 8324.81 851.124 8324.56 852.233 8324.56Z" stroke="#000000" stroke-linejoin="round" stroke-miterlimit="10" stroke-opacity="0.54902" fill="#FFFFFF" fill-rule="evenodd"/><text fill="#000000" fill-opacity="0" font-family="Arial,Arial_MSFontService,sans-serif" font-size="12.1436" x="846.329" y="8335.19">GTX1650</text></g></g></svg>