<svg width="1378" height="1556" xmlns="http://www.w3.org/2000/svg" xmlns:xlink="http://www.w3.org/1999/xlink" xml:space="preserve" overflow="hidden"><defs><clipPath id="clip0"><rect x="455" y="7054" width="1378" height="1556"/></clipPath></defs><g clip-path="url(#clip0)" transform="translate(-455 -7054)"><g><path d="M988.946 8317.84C988.946 8320.05 987.155 8321.84 984.946 8321.84 982.737 8321.84 980.947 8320.05 980.947 8317.84 980.947 8315.63 982.737 8313.84 984.946 8313.84 987.155 8313.84 988.946 8315.63 988.946 8317.84Z" stroke="#D63F3F" stroke-width="3.4375" stroke-linejoin="round" stroke-miterlimit="10" fill="#D63F3F"/></g><g><path d="M1053.69 8319.15C1053.26 8319.15 1052.91 8319.29 1052.65 8319.57 1052.38 8319.86 1052.25 8320.22 1052.25 8320.67 1052.25 8321.12 1052.38 8321.49 1052.66 8321.77 1052.93 8322.06 1053.27 8322.21 1053.69 8322.21 1054.1 8322.21 1054.44 8322.06 1054.71 8321.77 1054.98 8321.49 1055.11 8321.11 1055.11 8320.65 1055.11 8320.21 1054.98 8319.84 1054.71 8319.57 1054.44 8319.29 1054.1 8319.15 1053.69 8319.15ZM1063.64 8315.01C1063.16 8315.01 1062.8 8315.29 1062.58 8315.87 1062.35 8316.45 1062.23 8317.35 1062.23 8318.57 1062.23 8319.78 1062.35 8320.68 1062.58 8321.26 1062.8 8321.85 1063.16 8322.14 1063.64 8322.14 1064.11 8322.14 1064.46 8321.85 1064.68 8321.25 1064.9 8320.66 1065.02 8319.77 1065.02 8318.57 1065.02 8317.38 1064.9 8316.49 1064.68 8315.89 1064.46 8315.3 1064.11 8315.01 1063.64 8315.01ZM1043.64 8315.01C1043.16 8315.01 1042.8 8315.29 1042.58 8315.87 1042.35 8316.45 1042.23 8317.35 1042.23 8318.57 1042.23 8319.78 1042.35 8320.68 1042.58 8321.26 1042.8 8321.85 1043.16 8322.14 1043.64 8322.14 1044.11 8322.14 1044.46 8321.85 1044.68 8321.25 1044.9 8320.66 1045.02 8319.77 1045.02 8318.57 1045.02 8317.38 1044.9 8316.49 1044.68 8315.89 1044.46 8315.3 1044.11 8315.01 1043.64 8315.01ZM1017.95 8312.72 1021.3 8312.72 1023.71 8316.24 1026.16 8312.72 1029.31 8312.72 1025.22 8318.4 1029.52 8324.43 1026.14 8324.43 1023.54 8320.62 1020.88 8324.43 1017.74 8324.43 1022.05 8318.46ZM1007.82 8312.72 1017.58 8312.72 1017.58 8315.13 1014.06 8315.13 1014.06 8324.43 1011.34 8324.43 1011.34 8315.13 1007.82 8315.13ZM1053.42 8312.7 1056.34 8312.7 1054.14 8316.05C1053.77 8316.56 1053.55 8316.87 1053.46 8316.97 1053.73 8316.92 1053.98 8316.89 1054.22 8316.89 1054.96 8316.89 1055.62 8317.05 1056.19 8317.36 1056.76 8317.67 1057.21 8318.11 1057.53 8318.67 1057.85 8319.24 1058.01 8319.9 1058.01 8320.65 1058.01 8321.42 1057.81 8322.11 1057.42 8322.72 1057.03 8323.33 1056.51 8323.8 1055.85 8324.13 1055.19 8324.47 1054.47 8324.64 1053.7 8324.64 1052.92 8324.64 1052.21 8324.47 1051.55 8324.13 1050.9 8323.79 1050.38 8323.3 1049.99 8322.67 1049.61 8322.04 1049.42 8321.32 1049.42 8320.5 1049.42 8319.88 1049.53 8319.28 1049.76 8318.72 1049.99 8318.15 1050.41 8317.39 1051.03 8316.43ZM1034.7 8312.7 1036.85 8312.7 1036.85 8324.43 1034.08 8324.43 1034.08 8315.63 1031.04 8317.31 1031.04 8314.75ZM1063.64 8312.5C1065 8312.5 1066.06 8313.01 1066.8 8314.05 1067.54 8315.08 1067.91 8316.59 1067.91 8318.57 1067.91 8320.55 1067.54 8322.05 1066.8 8323.09 1066.06 8324.12 1065 8324.64 1063.64 8324.64 1062.27 8324.64 1061.22 8324.12 1060.46 8323.09 1059.71 8322.07 1059.34 8320.56 1059.34 8318.57 1059.34 8316.59 1059.71 8315.08 1060.46 8314.05 1061.22 8313.01 1062.27 8312.5 1063.64 8312.5ZM1043.64 8312.5C1045 8312.5 1046.06 8313.01 1046.8 8314.05 1047.54 8315.08 1047.91 8316.59 1047.91 8318.57 1047.91 8320.55 1047.54 8322.05 1046.8 8323.09 1046.06 8324.12 1045 8324.64 1043.64 8324.64 1042.27 8324.64 1041.22 8324.12 1040.46 8323.09 1039.71 8322.07 1039.34 8320.56 1039.34 8318.57 1039.34 8316.59 1039.71 8315.08 1040.46 8314.05 1041.22 8313.01 1042.27 8312.5 1043.64 8312.5ZM1002.22 8312.5C1003 8312.5 1003.71 8312.62 1004.34 8312.86 1004.98 8313.11 1005.51 8313.44 1005.93 8313.85 1006.35 8314.27 1006.64 8314.73 1006.82 8315.25L1004.54 8316.56C1004.32 8316.06 1004.01 8315.67 1003.61 8315.39 1003.21 8315.11 1002.73 8314.97 1002.18 8314.97 1001.61 8314.97 1001.1 8315.12 1000.64 8315.41 1000.18 8315.69 999.818 8316.11 999.552 8316.65 999.285 8317.19 999.152 8317.82 999.152 8318.56 999.152 8319.68 999.448 8320.56 1000.04 8321.21 1000.63 8321.85 1001.42 8322.17 1002.42 8322.17 1003.16 8322.17 1003.73 8321.98 1004.13 8321.58L1004.13 8320.09 1002.05 8320.09 1002.05 8317.76 1006.78 8317.76 1006.78 8322.62C1006.41 8323.25 1005.81 8323.75 1004.98 8324.1 1004.16 8324.46 1003.25 8324.64 1002.26 8324.64 1001.09 8324.64 1000.06 8324.38 999.16 8323.87 998.258 8323.36 997.56 8322.64 997.064 8321.72 996.568 8320.8 996.32 8319.74 996.32 8318.56 996.32 8317.35 996.578 8316.29 997.096 8315.37 997.613 8314.44 998.32 8313.73 999.216 8313.24 1000.11 8312.74 1001.11 8312.5 1002.22 8312.5Z" stroke="#000000" stroke-linejoin="round" stroke-miterlimit="10" stroke-opacity="0.54902" fill="#FFFFFF" fill-rule="evenodd"/><text fill="#000000" fill-opacity="0" font-family="Arial,Arial_MSFontService,sans-serif" font-size="12.1436" x="996.32" y="8323.12">GTX1060</text></g></g></svg>