<svg width="1378" height="1556" xmlns="http://www.w3.org/2000/svg" xmlns:xlink="http://www.w3.org/1999/xlink" xml:space="preserve" overflow="hidden"><defs><clipPath id="clip0"><rect x="455" y="7054" width="1378" height="1556"/></clipPath></defs><g clip-path="url(#clip0)" transform="translate(-455 -7054)"><g><path d="M838.946 8357.84C838.946 8360.05 837.156 8361.84 834.947 8361.84 832.738 8361.84 830.947 8360.05 830.947 8357.84 830.947 8355.63 832.738 8353.84 834.947 8353.84 837.156 8353.84 838.946 8355.63 838.946 8357.84Z" stroke="#DA74C6" stroke-width="3.4375" stroke-linejoin="round" stroke-miterlimit="10" fill="#DA74C6"/></g><g><path d="M900.649 8355.5C900.169 8355.5 899.814 8355.79 899.585 8356.37 899.355 8356.94 899.241 8357.84 899.241 8359.07 899.241 8360.27 899.355 8361.17 899.585 8361.76 899.814 8362.34 900.169 8362.64 900.649 8362.64 901.118 8362.64 901.465 8362.34 901.689 8361.75 901.913 8361.16 902.025 8360.26 902.025 8359.07 902.025 8357.87 901.913 8356.98 901.689 8356.39 901.465 8355.8 901.118 8355.5 900.649 8355.5ZM859.961 8353.21 863.305 8353.21 865.721 8356.73 868.169 8353.21 871.321 8353.21 867.225 8358.89 871.529 8364.92 868.153 8364.92 865.545 8361.12 862.889 8364.92 859.753 8364.92 864.057 8358.96ZM846.873 8353.21 848.985 8353.21 852.841 8358.86 856.665 8353.21 858.729 8353.21 858.729 8364.92 856.137 8364.92 856.137 8357.98 853.497 8361.76 852.105 8361.76 849.433 8357.95 849.433 8364.92 846.873 8364.92ZM887.769 8353.2 894.201 8353.2 894.201 8355.5 890.041 8355.5 889.785 8357.45C890.169 8357.31 890.595 8357.25 891.065 8357.25 891.737 8357.25 892.353 8357.4 892.913 8357.72 893.473 8358.03 893.921 8358.48 894.257 8359.06 894.593 8359.64 894.761 8360.32 894.761 8361.1 894.761 8361.93 894.574 8362.66 894.201 8363.27 893.827 8363.88 893.321 8364.35 892.681 8364.66 892.041 8364.98 891.337 8365.13 890.569 8365.13 889.641 8365.13 888.846 8364.92 888.185 8364.51 887.523 8364.09 887.049 8363.46 886.761 8362.6L888.937 8361.33C889.065 8361.79 889.267 8362.14 889.545 8362.37 889.822 8362.6 890.147 8362.72 890.521 8362.72 890.958 8362.72 891.291 8362.57 891.521 8362.28 891.75 8361.98 891.865 8361.62 891.865 8361.18 891.865 8360.72 891.742 8360.35 891.497 8360.05 891.251 8359.76 890.894 8359.61 890.425 8359.61 889.806 8359.61 889.326 8359.92 888.985 8360.54L886.985 8359.58ZM877.769 8353.2 884.201 8353.2 884.201 8355.5 880.041 8355.5 879.785 8357.45C880.169 8357.31 880.595 8357.25 881.065 8357.25 881.737 8357.25 882.353 8357.4 882.913 8357.72 883.473 8358.03 883.921 8358.48 884.257 8359.06 884.593 8359.64 884.761 8360.32 884.761 8361.1 884.761 8361.93 884.574 8362.66 884.201 8363.27 883.827 8363.88 883.321 8364.35 882.681 8364.66 882.041 8364.98 881.337 8365.13 880.569 8365.13 879.641 8365.13 878.846 8364.92 878.185 8364.51 877.523 8364.09 877.049 8363.46 876.761 8362.6L878.937 8361.33C879.065 8361.79 879.267 8362.14 879.545 8362.37 879.822 8362.6 880.147 8362.72 880.521 8362.72 880.958 8362.72 881.291 8362.57 881.521 8362.28 881.75 8361.98 881.865 8361.62 881.865 8361.18 881.865 8360.72 881.742 8360.35 881.497 8360.05 881.251 8359.76 880.894 8359.61 880.425 8359.61 879.806 8359.61 879.326 8359.92 878.985 8360.54L876.985 8359.58ZM900.649 8352.99C902.014 8352.99 903.067 8353.51 903.809 8354.54 904.55 8355.58 904.921 8357.08 904.921 8359.07 904.921 8361.04 904.55 8362.55 903.809 8363.58 903.067 8364.62 902.014 8365.13 900.649 8365.13 899.283 8365.13 898.225 8364.62 897.473 8363.59 896.721 8362.56 896.345 8361.05 896.345 8359.07 896.345 8357.08 896.721 8355.58 897.473 8354.54 898.225 8353.51 899.283 8352.99 900.649 8352.99Z" stroke="#000000" stroke-linejoin="round" stroke-miterlimit="10" stroke-opacity="0.54902" fill="#FFFFFF" fill-rule="evenodd"/><text fill="#000000" fill-opacity="0" font-family="Arial,Arial_MSFontService,sans-serif" font-size="12.1436" x="846.873" y="8363.62">MX 550</text></g></g></svg>