<svg width="1378" height="1556" xmlns="http://www.w3.org/2000/svg" xmlns:xlink="http://www.w3.org/1999/xlink" xml:space="preserve" overflow="hidden"><defs><clipPath id="clip0"><rect x="455" y="7054" width="1378" height="1556"/></clipPath></defs><g clip-path="url(#clip0)" transform="translate(-455 -7054)"><g><path d="M1183 8136 1050.03 8169.27 996 8188" stroke="#3B6FF5" stroke-width="4.125" stroke-linecap="round" stroke-linejoin="round" stroke-miterlimit="10" fill="none"/></g><g><path d="M1196.01 8132.73 1196.01 8135.88 1197.21 8135.88C1197.82 8135.88 1198.34 8135.76 1198.77 8135.52 1199.2 8135.28 1199.42 8134.87 1199.42 8134.29 1199.42 8133.25 1198.68 8132.73 1197.21 8132.73ZM1260.05 8132.71C1259.57 8132.71 1259.21 8133 1258.98 8133.57 1258.75 8134.15 1258.64 8135.05 1258.64 8136.28 1258.64 8137.48 1258.75 8138.38 1258.98 8138.97 1259.21 8139.55 1259.57 8139.85 1260.05 8139.85 1260.52 8139.85 1260.86 8139.55 1261.09 8138.96 1261.31 8138.37 1261.42 8137.47 1261.42 8136.28 1261.42 8135.08 1261.31 8134.19 1261.09 8133.6 1260.86 8133.01 1260.52 8132.71 1260.05 8132.71ZM1240.05 8132.71C1239.57 8132.71 1239.21 8133 1238.98 8133.57 1238.75 8134.15 1238.64 8135.05 1238.64 8136.28 1238.64 8137.48 1238.75 8138.38 1238.98 8138.97 1239.21 8139.55 1239.57 8139.85 1240.05 8139.85 1240.52 8139.85 1240.86 8139.55 1241.09 8138.96 1241.31 8138.37 1241.42 8137.47 1241.42 8136.28 1241.42 8135.08 1241.31 8134.19 1241.09 8133.6 1240.86 8133.01 1240.52 8132.71 1240.05 8132.71ZM1213.36 8130.42 1216.7 8130.42 1219.12 8133.94 1221.57 8130.42 1224.72 8130.42 1220.62 8136.1 1224.93 8142.13 1221.55 8142.13 1218.94 8138.33 1216.29 8142.13 1213.15 8142.13 1217.46 8136.17ZM1203.23 8130.42 1212.99 8130.42 1212.99 8132.84 1209.47 8132.84 1209.47 8142.13 1206.75 8142.13 1206.75 8132.84 1203.23 8132.84ZM1193.27 8130.42 1197.53 8130.42C1198.5 8130.42 1199.34 8130.58 1200.06 8130.9 1200.78 8131.22 1201.34 8131.67 1201.72 8132.26 1202.1 8132.85 1202.3 8133.53 1202.3 8134.29 1202.3 8135.03 1202.12 8135.68 1201.77 8136.25 1201.42 8136.81 1200.91 8137.26 1200.25 8137.59L1203.4 8142.13 1200.15 8142.12 1197.56 8138.17 1197.48 8138.17 1196.01 8138.17 1196.01 8142.13 1193.27 8142.13ZM1245.97 8130.41 1254.08 8130.41 1254.08 8132.12 1250.18 8142.13 1247.22 8142.13 1251.02 8132.79 1245.97 8132.79ZM1260.05 8130.2C1261.41 8130.2 1262.47 8130.71 1263.21 8131.75 1263.95 8132.78 1264.32 8134.29 1264.32 8136.28 1264.32 8138.25 1263.95 8139.75 1263.21 8140.79 1262.47 8141.82 1261.41 8142.34 1260.05 8142.34 1258.68 8142.34 1257.62 8141.83 1256.87 8140.8 1256.12 8139.77 1255.74 8138.26 1255.74 8136.28 1255.74 8134.29 1256.12 8132.78 1256.87 8131.75 1257.62 8130.71 1258.68 8130.2 1260.05 8130.2ZM1240.05 8130.2C1241.41 8130.2 1242.47 8130.71 1243.21 8131.75 1243.95 8132.78 1244.32 8134.29 1244.32 8136.28 1244.32 8138.25 1243.95 8139.75 1243.21 8140.79 1242.47 8141.82 1241.41 8142.34 1240.05 8142.34 1238.68 8142.34 1237.62 8141.83 1236.87 8140.8 1236.12 8139.77 1235.74 8138.26 1235.74 8136.28 1235.74 8134.29 1236.12 8132.78 1236.87 8131.75 1237.62 8130.71 1238.68 8130.2 1240.05 8130.2ZM1229.94 8130.18C1230.74 8130.18 1231.42 8130.34 1231.99 8130.66 1232.56 8130.98 1232.99 8131.42 1233.28 8131.97 1233.57 8132.51 1233.71 8133.13 1233.71 8133.8 1233.71 8134.47 1233.55 8135.09 1233.23 8135.66 1232.91 8136.23 1232.34 8136.97 1231.52 8137.86L1229.82 8139.77 1234.24 8139.77 1234.24 8142.13 1225.89 8142.13 1225.89 8140.36 1229.31 8136.5C1229.88 8135.86 1230.27 8135.37 1230.5 8135.01 1230.72 8134.66 1230.83 8134.3 1230.83 8133.94 1230.83 8133.58 1230.73 8133.28 1230.53 8133.05 1230.33 8132.81 1230.04 8132.69 1229.68 8132.69 1228.87 8132.69 1228.28 8133.28 1227.92 8134.45L1225.81 8133.22C1226.11 8132.24 1226.62 8131.49 1227.36 8130.97 1228.1 8130.44 1228.95 8130.18 1229.94 8130.18Z" stroke="#000000" stroke-linejoin="round" stroke-miterlimit="10" stroke-opacity="0.54902" fill="#FFFFFF" fill-rule="evenodd"/><text fill="#000000" fill-opacity="0" font-family="Arial,Arial_MSFontService,sans-serif" font-size="12.1602" x="1193.27" y="8140.82">RTX2070</text></g></g></svg>