<svg width="1378" height="1556" xmlns="http://www.w3.org/2000/svg" xmlns:xlink="http://www.w3.org/1999/xlink" xml:space="preserve" overflow="hidden"><defs><clipPath id="clip0"><rect x="455" y="7054" width="1378" height="1556"/></clipPath></defs><g clip-path="url(#clip0)" transform="translate(-455 -7054)"><g><path d="M1183 8171 1050.03 8198.27 996 8218" stroke="#55BDFF" stroke-width="4.125" stroke-linecap="round" stroke-linejoin="round" stroke-miterlimit="10" fill="none"/></g><g><path d="M1250.1 8172.07C1249.67 8172.07 1249.32 8172.21 1249.06 8172.5 1248.79 8172.78 1248.66 8173.14 1248.66 8173.59 1248.66 8174.04 1248.79 8174.41 1249.06 8174.7 1249.34 8174.98 1249.68 8175.13 1250.1 8175.13 1250.51 8175.13 1250.85 8174.98 1251.12 8174.7 1251.39 8174.41 1251.52 8174.03 1251.52 8173.58 1251.52 8173.13 1251.39 8172.77 1251.12 8172.49 1250.85 8172.21 1250.51 8172.07 1250.1 8172.07ZM1196.01 8167.94 1196.01 8171.1 1197.21 8171.1C1197.82 8171.1 1198.34 8170.98 1198.77 8170.74 1199.2 8170.5 1199.42 8170.09 1199.42 8169.51 1199.42 8168.47 1198.68 8167.94 1197.21 8167.94ZM1260.05 8167.93C1259.57 8167.93 1259.21 8168.22 1258.98 8168.79 1258.75 8169.37 1258.64 8170.27 1258.64 8171.5 1258.64 8172.7 1258.75 8173.6 1258.98 8174.18 1259.21 8174.77 1259.57 8175.06 1260.05 8175.06 1260.52 8175.06 1260.86 8174.77 1261.09 8174.18 1261.31 8173.58 1261.42 8172.69 1261.42 8171.5 1261.42 8170.3 1261.31 8169.41 1261.09 8168.82 1260.86 8168.22 1260.52 8167.93 1260.05 8167.93ZM1240.05 8167.93C1239.57 8167.93 1239.21 8168.22 1238.98 8168.79 1238.75 8169.37 1238.64 8170.27 1238.64 8171.5 1238.64 8172.7 1238.75 8173.6 1238.98 8174.18 1239.21 8174.77 1239.57 8175.06 1240.05 8175.06 1240.52 8175.06 1240.86 8174.77 1241.09 8174.18 1241.31 8173.58 1241.42 8172.69 1241.42 8171.5 1241.42 8170.3 1241.31 8169.41 1241.09 8168.82 1240.86 8168.22 1240.52 8167.93 1240.05 8167.93ZM1213.36 8165.64 1216.7 8165.64 1219.12 8169.16 1221.57 8165.64 1224.72 8165.64 1220.62 8171.32 1224.93 8177.35 1221.55 8177.35 1218.94 8173.54 1216.29 8177.35 1213.15 8177.35 1217.46 8171.38ZM1203.23 8165.64 1212.99 8165.64 1212.99 8168.06 1209.47 8168.06 1209.47 8177.35 1206.75 8177.35 1206.75 8168.06 1203.23 8168.06ZM1193.27 8165.64 1197.53 8165.64C1198.5 8165.64 1199.34 8165.8 1200.06 8166.12 1200.78 8166.44 1201.34 8166.89 1201.72 8167.48 1202.1 8168.07 1202.3 8168.74 1202.3 8169.51 1202.3 8170.25 1202.12 8170.9 1201.77 8171.46 1201.42 8172.03 1200.91 8172.48 1200.25 8172.81L1203.4 8177.35 1200.15 8177.34 1197.56 8173.38 1197.48 8173.38 1196.01 8173.38 1196.01 8177.35 1193.27 8177.35ZM1249.82 8165.62 1252.75 8165.62 1250.54 8168.97C1250.18 8169.48 1249.96 8169.79 1249.87 8169.9 1250.14 8169.84 1250.39 8169.82 1250.62 8169.82 1251.37 8169.82 1252.03 8169.97 1252.6 8170.28 1253.17 8170.59 1253.62 8171.03 1253.94 8171.59 1254.26 8172.16 1254.42 8172.82 1254.42 8173.58 1254.42 8174.34 1254.22 8175.03 1253.83 8175.64 1253.44 8176.25 1252.92 8176.72 1252.26 8177.06 1251.59 8177.39 1250.88 8177.56 1250.11 8177.56 1249.33 8177.56 1248.62 8177.39 1247.96 8177.05 1247.3 8176.71 1246.78 8176.22 1246.4 8175.59 1246.02 8174.96 1245.82 8174.24 1245.82 8173.42 1245.82 8172.8 1245.94 8172.21 1246.17 8171.64 1246.4 8171.07 1246.82 8170.31 1247.44 8169.35ZM1260.05 8165.42C1261.41 8165.42 1262.47 8165.93 1263.21 8166.97 1263.95 8168 1264.32 8169.51 1264.32 8171.5 1264.32 8173.47 1263.95 8174.97 1263.21 8176.01 1262.47 8177.04 1261.41 8177.56 1260.05 8177.56 1258.68 8177.56 1257.62 8177.05 1256.87 8176.02 1256.12 8174.99 1255.74 8173.48 1255.74 8171.5 1255.74 8169.51 1256.12 8168 1256.87 8166.97 1257.62 8165.93 1258.68 8165.42 1260.05 8165.42ZM1240.05 8165.42C1241.41 8165.42 1242.47 8165.93 1243.21 8166.97 1243.95 8168 1244.32 8169.51 1244.32 8171.5 1244.32 8173.47 1243.95 8174.97 1243.21 8176.01 1242.47 8177.04 1241.41 8177.56 1240.05 8177.56 1238.68 8177.56 1237.62 8177.05 1236.87 8176.02 1236.12 8174.99 1235.74 8173.48 1235.74 8171.5 1235.74 8169.51 1236.12 8168 1236.87 8166.97 1237.62 8165.93 1238.68 8165.42 1240.05 8165.42ZM1229.94 8165.4C1230.74 8165.4 1231.42 8165.56 1231.99 8165.88 1232.56 8166.2 1232.99 8166.63 1233.28 8167.18 1233.57 8167.73 1233.71 8168.34 1233.71 8169.02 1233.71 8169.69 1233.55 8170.31 1233.23 8170.88 1232.91 8171.45 1232.34 8172.18 1231.52 8173.08L1229.82 8174.98 1234.24 8174.98 1234.24 8177.35 1225.89 8177.35 1225.89 8175.58 1229.31 8171.72C1229.88 8171.08 1230.27 8170.58 1230.5 8170.23 1230.72 8169.88 1230.83 8169.52 1230.83 8169.16 1230.83 8168.8 1230.73 8168.5 1230.53 8168.26 1230.33 8168.03 1230.04 8167.91 1229.68 8167.91 1228.87 8167.91 1228.28 8168.5 1227.92 8169.67L1225.81 8168.44C1226.11 8167.46 1226.62 8166.71 1227.36 8166.18 1228.1 8165.66 1228.95 8165.4 1229.94 8165.4Z" stroke="#000000" stroke-linejoin="round" stroke-miterlimit="10" stroke-opacity="0.54902" fill="#FFFFFF" fill-rule="evenodd"/><text fill="#000000" fill-opacity="0" font-family="Arial,Arial_MSFontService,sans-serif" font-size="12.1602" x="1193.27" y="8176.04">RTX2060</text></g></g></svg>