<svg width="1378" height="1556" xmlns="http://www.w3.org/2000/svg" xmlns:xlink="http://www.w3.org/1999/xlink" xml:space="preserve" overflow="hidden"><defs><clipPath id="clip0"><rect x="455" y="7054" width="1378" height="1556"/></clipPath></defs><g clip-path="url(#clip0)" transform="translate(-455 -7054)"><g><path d="M1641.95 7950.84C1641.95 7953.05 1640.16 7954.84 1637.95 7954.84 1635.74 7954.84 1633.95 7953.05 1633.95 7950.84 1633.95 7948.63 1635.74 7946.84 1637.95 7946.84 1640.16 7946.84 1641.95 7948.63 1641.95 7950.84Z" stroke="#AD00D0" stroke-width="3.4375" stroke-linejoin="round" stroke-miterlimit="10" fill="#AD00D0"/><path d="M1373.95 8012.84C1373.95 8015.05 1372.16 8016.84 1369.95 8016.84 1367.74 8016.84 1365.95 8015.05 1365.95 8012.84 1365.95 8010.63 1367.74 8008.84 1369.95 8008.84 1372.16 8008.84 1373.95 8010.63 1373.95 8012.84Z" stroke="#AD00D0" stroke-width="3.4375" stroke-linejoin="round" stroke-miterlimit="10" fill="#AD00D0"/></g><g><path d="M1678.11 7934.64C1677.67 7934.64 1677.32 7934.77 1677.05 7935.04 1676.78 7935.32 1676.65 7935.68 1676.65 7936.12 1676.65 7936.57 1676.79 7936.93 1677.06 7937.2 1677.33 7937.46 1677.68 7937.6 1678.11 7937.6 1678.51 7937.6 1678.84 7937.46 1679.11 7937.2 1679.37 7936.93 1679.5 7936.57 1679.5 7936.12 1679.5 7935.68 1679.37 7935.32 1679.12 7935.04 1678.87 7934.77 1678.53 7934.64 1678.11 7934.64ZM1722.47 7933.5C1721.97 7933.5 1721.55 7933.69 1721.21 7934.06 1720.87 7934.43 1720.7 7934.97 1720.7 7935.66 1720.7 7936.35 1720.87 7936.87 1721.2 7937.21 1721.54 7937.55 1721.96 7937.72 1722.47 7937.72 1722.99 7937.72 1723.4 7937.54 1723.72 7937.17 1724.04 7936.8 1724.2 7936.3 1724.2 7935.66 1724.2 7935.01 1724.04 7934.49 1723.72 7934.09 1723.4 7933.7 1722.99 7933.5 1722.47 7933.5ZM1731.82 7933.39C1731.46 7933.39 1731.15 7933.5 1730.9 7933.72 1730.65 7933.94 1730.46 7934.24 1730.35 7934.64L1733.1 7934.64C1733.06 7934.23 1732.92 7933.92 1732.68 7933.71 1732.45 7933.49 1732.16 7933.39 1731.82 7933.39ZM1707.96 7931.53 1710.57 7931.53 1710.57 7935.53C1710.57 7936.19 1710.66 7936.72 1710.85 7937.12 1711.04 7937.52 1711.38 7937.72 1711.88 7937.72 1712.37 7937.72 1712.75 7937.52 1713.02 7937.12 1713.28 7936.71 1713.42 7936.15 1713.42 7935.42L1713.42 7931.53 1716.03 7931.53 1716.03 7939.8 1713.72 7939.8 1713.69 7939.45C1713.65 7938.97 1713.61 7938.66 1713.58 7938.52 1713.03 7939.52 1712.17 7940.01 1710.99 7940.01 1710.05 7940.01 1709.31 7939.71 1708.77 7939.1 1708.23 7938.49 1707.96 7937.6 1707.96 7936.41ZM1741.92 7931.31C1742.26 7931.31 1742.59 7931.36 1742.89 7931.47 1743.19 7931.57 1743.42 7931.71 1743.57 7931.88L1742.56 7933.87C1742.22 7933.64 1741.88 7933.53 1741.54 7933.53 1740.97 7933.53 1740.52 7933.77 1740.19 7934.24 1739.86 7934.71 1739.7 7935.34 1739.7 7936.14L1739.7 7939.8 1737.09 7939.8 1737.09 7931.53 1739.41 7931.53C1739.43 7932.05 1739.48 7932.48 1739.55 7932.81 1739.8 7932.32 1740.13 7931.95 1740.54 7931.69 1740.95 7931.44 1741.41 7931.31 1741.92 7931.31ZM1731.9 7931.31C1732.66 7931.31 1733.32 7931.47 1733.91 7931.8 1734.49 7932.12 1734.94 7932.59 1735.26 7933.2 1735.58 7933.8 1735.74 7934.51 1735.74 7935.32 1735.74 7935.67 1735.71 7936.03 1735.64 7936.41L1730.35 7936.41C1730.46 7936.87 1730.67 7937.23 1730.95 7937.48 1731.24 7937.73 1731.59 7937.85 1732.01 7937.85 1732.35 7937.85 1732.66 7937.77 1732.93 7937.61 1733.2 7937.45 1733.4 7937.22 1733.53 7936.91L1735.43 7938.04C1735.2 7938.67 1734.76 7939.16 1734.11 7939.5 1733.46 7939.84 1732.72 7940.01 1731.91 7940.01 1731.17 7940.01 1730.47 7939.85 1729.81 7939.52 1729.15 7939.19 1728.63 7938.69 1728.23 7938.03 1727.83 7937.37 1727.63 7936.57 1727.63 7935.63 1727.63 7934.7 1727.83 7933.91 1728.23 7933.26 1728.63 7932.61 1729.15 7932.12 1729.8 7931.8 1730.45 7931.47 1731.15 7931.31 1731.9 7931.31ZM1723.15 7931.31C1723.83 7931.31 1724.46 7931.48 1725.03 7931.82 1725.6 7932.16 1726.05 7932.66 1726.39 7933.32 1726.72 7933.97 1726.89 7934.75 1726.89 7935.66 1726.89 7936.56 1726.72 7937.33 1726.39 7937.99 1726.05 7938.64 1725.6 7939.15 1725.03 7939.49 1724.46 7939.84 1723.83 7940.01 1723.15 7940.01 1722.1 7940.01 1721.28 7939.63 1720.7 7938.88L1720.7 7943.52 1718.09 7943.52 1718.09 7931.53 1720.41 7931.53C1720.45 7932.13 1720.49 7932.52 1720.52 7932.7 1720.82 7932.23 1721.19 7931.88 1721.64 7931.65 1722.09 7931.42 1722.59 7931.31 1723.15 7931.31ZM1624.03 7930.4 1624.03 7933.55 1625.23 7933.55C1625.84 7933.55 1626.36 7933.43 1626.79 7933.19 1627.23 7932.95 1627.44 7932.54 1627.44 7931.96 1627.44 7930.92 1626.71 7930.4 1625.23 7930.4ZM1688.07 7930.38C1687.59 7930.38 1687.24 7930.67 1687.01 7931.24 1686.78 7931.82 1686.67 7932.72 1686.67 7933.95 1686.67 7935.15 1686.78 7936.05 1687.01 7936.64 1687.24 7937.22 1687.59 7937.52 1688.07 7937.52 1688.54 7937.52 1688.89 7937.22 1689.11 7936.63 1689.34 7936.04 1689.45 7935.14 1689.45 7933.95 1689.45 7932.75 1689.34 7931.86 1689.11 7931.27 1688.89 7930.68 1688.54 7930.38 1688.07 7930.38ZM1668.07 7930.38C1667.59 7930.38 1667.24 7930.67 1667.01 7931.24 1666.78 7931.82 1666.67 7932.72 1666.67 7933.95 1666.67 7935.15 1666.78 7936.05 1667.01 7936.64 1667.24 7937.22 1667.59 7937.52 1668.07 7937.52 1668.54 7937.52 1668.89 7937.22 1669.11 7936.63 1669.34 7936.04 1669.45 7935.14 1669.45 7933.95 1669.45 7932.75 1669.34 7931.86 1669.11 7931.27 1668.89 7930.68 1668.54 7930.38 1668.07 7930.38ZM1678.11 7930.11C1677.76 7930.11 1677.49 7930.21 1677.29 7930.43 1677.09 7930.64 1676.99 7930.91 1676.99 7931.23 1676.99 7931.55 1677.09 7931.81 1677.29 7932.02 1677.49 7932.23 1677.76 7932.33 1678.11 7932.33 1678.44 7932.33 1678.71 7932.23 1678.92 7932.02 1679.14 7931.81 1679.24 7931.55 1679.24 7931.23 1679.24 7930.92 1679.14 7930.65 1678.92 7930.44 1678.71 7930.22 1678.44 7930.11 1678.11 7930.11ZM1641.39 7928.09 1644.73 7928.09 1647.15 7931.61 1649.59 7928.09 1652.75 7928.09 1648.65 7933.77 1652.95 7939.8 1649.58 7939.8 1646.97 7936 1644.31 7939.8 1641.18 7939.8 1645.48 7933.84ZM1631.26 7928.09 1641.02 7928.09 1641.02 7930.51 1637.5 7930.51 1637.5 7939.8 1634.78 7939.8 1634.78 7930.51 1631.26 7930.51ZM1621.3 7928.09 1625.55 7928.09C1626.52 7928.09 1627.37 7928.25 1628.09 7928.57 1628.81 7928.89 1629.36 7929.35 1629.75 7929.93 1630.13 7930.52 1630.32 7931.2 1630.32 7931.96 1630.32 7932.7 1630.15 7933.35 1629.79 7933.92 1629.44 7934.48 1628.94 7934.93 1628.27 7935.26L1631.43 7939.8 1628.18 7939.79 1625.59 7935.84 1625.51 7935.84 1624.03 7935.84 1624.03 7939.8 1621.3 7939.8ZM1702.19 7927.87C1703.21 7927.87 1704.11 7928.1 1704.87 7928.57 1705.64 7929.04 1706.14 7929.71 1706.36 7930.57L1704.12 7931.84C1703.95 7931.36 1703.69 7930.98 1703.33 7930.72 1702.97 7930.45 1702.54 7930.32 1702.03 7930.32 1701.59 7930.32 1701.23 7930.42 1700.96 7930.62 1700.69 7930.82 1700.55 7931.08 1700.55 7931.4 1700.55 7931.65 1700.65 7931.86 1700.83 7932.03 1701.02 7932.2 1701.25 7932.34 1701.53 7932.44 1701.81 7932.55 1702.2 7932.68 1702.71 7932.84 1703.5 7933.08 1704.14 7933.31 1704.63 7933.54 1705.12 7933.77 1705.55 7934.11 1705.91 7934.57 1706.28 7935.03 1706.46 7935.63 1706.46 7936.36 1706.46 7937.23 1706.23 7937.93 1705.78 7938.48 1705.32 7939.02 1704.76 7939.41 1704.07 7939.65 1703.39 7939.89 1702.69 7940.01 1701.98 7940.01 1700.9 7940.01 1699.91 7939.76 1699.02 7939.27 1698.12 7938.77 1697.52 7938.05 1697.23 7937.12L1699.43 7935.85C1699.67 7936.4 1700.01 7936.82 1700.47 7937.12 1700.92 7937.42 1701.46 7937.56 1702.07 7937.56 1702.53 7937.56 1702.9 7937.48 1703.19 7937.3 1703.47 7937.12 1703.61 7936.87 1703.61 7936.52 1703.61 7936.25 1703.51 7936.02 1703.32 7935.84 1703.13 7935.65 1702.89 7935.51 1702.6 7935.39 1702.31 7935.27 1701.91 7935.14 1701.39 7934.99 1700.62 7934.76 1699.99 7934.54 1699.51 7934.32 1699.02 7934.09 1698.6 7933.75 1698.25 7933.3 1697.9 7932.85 1697.72 7932.25 1697.72 7931.52 1697.72 7930.71 1697.93 7930.03 1698.35 7929.48 1698.78 7928.94 1699.32 7928.53 1700 7928.27 1700.68 7928 1701.41 7927.87 1702.19 7927.87ZM1688.07 7927.87C1689.44 7927.87 1690.49 7928.39 1691.23 7929.42 1691.98 7930.46 1692.35 7931.96 1692.35 7933.95 1692.35 7935.92 1691.98 7937.43 1691.23 7938.46 1690.49 7939.49 1689.44 7940.01 1688.07 7940.01 1686.71 7940.01 1685.65 7939.5 1684.9 7938.47 1684.15 7937.44 1683.77 7935.93 1683.77 7933.95 1683.77 7931.96 1684.15 7930.46 1684.9 7929.42 1685.65 7928.39 1686.71 7927.87 1688.07 7927.87ZM1668.07 7927.87C1669.44 7927.87 1670.49 7928.39 1671.23 7929.42 1671.98 7930.46 1672.35 7931.96 1672.35 7933.95 1672.35 7935.92 1671.98 7937.43 1671.23 7938.46 1670.49 7939.49 1669.44 7940.01 1668.07 7940.01 1666.71 7940.01 1665.65 7939.5 1664.9 7938.47 1664.15 7937.44 1663.77 7935.93 1663.77 7933.95 1663.77 7931.96 1664.15 7930.46 1664.9 7929.42 1665.65 7928.39 1666.71 7927.87 1668.07 7927.87ZM1678.11 7927.85C1678.94 7927.85 1679.64 7927.99 1680.21 7928.28 1680.78 7928.56 1681.21 7928.94 1681.49 7929.43 1681.77 7929.91 1681.91 7930.46 1681.91 7931.07 1681.91 7931.6 1681.79 7932.07 1681.55 7932.48 1681.3 7932.88 1680.95 7933.2 1680.51 7933.44 1681.09 7933.72 1681.55 7934.12 1681.88 7934.62 1682.21 7935.12 1682.38 7935.72 1682.38 7936.43 1682.38 7937.13 1682.2 7937.76 1681.86 7938.3 1681.51 7938.84 1681.02 7939.27 1680.37 7939.56 1679.72 7939.86 1678.97 7940.01 1678.11 7940.01 1677.22 7940.01 1676.45 7939.86 1675.79 7939.56 1675.14 7939.25 1674.63 7938.83 1674.28 7938.29 1673.93 7937.75 1673.75 7937.13 1673.75 7936.43 1673.75 7935.72 1673.92 7935.12 1674.26 7934.62 1674.59 7934.12 1675.06 7933.73 1675.64 7933.45 1675.17 7933.21 1674.81 7932.88 1674.55 7932.48 1674.28 7932.07 1674.15 7931.6 1674.15 7931.07 1674.15 7930.48 1674.31 7929.94 1674.61 7929.45 1674.91 7928.96 1675.36 7928.57 1675.96 7928.28 1676.56 7928 1677.27 7927.85 1678.11 7927.85ZM1657.96 7927.85C1658.76 7927.85 1659.45 7928.01 1660.02 7928.33 1660.59 7928.65 1661.02 7929.09 1661.31 7929.64 1661.59 7930.19 1661.74 7930.8 1661.74 7931.47 1661.74 7932.14 1661.58 7932.76 1661.26 7933.33 1660.94 7933.9 1660.37 7934.64 1659.55 7935.53L1657.85 7937.44 1662.27 7937.44 1662.27 7939.8 1653.91 7939.8 1653.91 7938.03 1657.34 7934.17C1657.9 7933.53 1658.3 7933.04 1658.52 7932.68 1658.75 7932.33 1658.86 7931.98 1658.86 7931.61 1658.86 7931.25 1658.76 7930.95 1658.55 7930.72 1658.35 7930.48 1658.07 7930.36 1657.71 7930.36 1656.9 7930.36 1656.31 7930.95 1655.95 7932.12L1653.83 7930.89C1654.13 7929.91 1654.65 7929.16 1655.39 7928.64 1656.12 7928.11 1656.98 7927.85 1657.96 7927.85Z" stroke="#000000" stroke-linejoin="round" stroke-miterlimit="10" stroke-opacity="0.54902" fill="#FFFFFF" fill-rule="evenodd"/><text fill="#000000" fill-opacity="0" font-family="Arial,Arial_MSFontService,sans-serif" font-size="15.6641" x="1621.3" y="7941.56">RTX2080 Super</text></g><g><path d="M1383.02 7996.42C1382.58 7996.42 1382.23 7996.55 1381.96 7996.82 1381.7 7997.1 1381.56 7997.46 1381.56 7997.9 1381.56 7998.35 1381.7 7998.71 1381.97 7998.98 1382.24 7999.24 1382.59 7999.38 1383.02 7999.38 1383.43 7999.38 1383.76 7999.24 1384.02 7998.98 1384.28 7998.71 1384.41 7998.35 1384.41 7997.9 1384.41 7997.46 1384.29 7997.1 1384.04 7996.82 1383.79 7996.55 1383.45 7996.42 1383.02 7996.42ZM1427.39 7995.28C1426.89 7995.28 1426.47 7995.47 1426.12 7995.84 1425.78 7996.21 1425.61 7996.75 1425.61 7997.44 1425.61 7998.13 1425.78 7998.65 1426.12 7998.99 1426.45 7999.33 1426.88 7999.5 1427.39 7999.5 1427.9 7999.5 1428.32 7999.32 1428.64 7998.95 1428.96 7998.58 1429.12 7998.08 1429.12 7997.44 1429.12 7996.79 1428.96 7996.27 1428.64 7995.87 1428.32 7995.48 1427.9 7995.28 1427.39 7995.28ZM1436.73 7995.17C1436.37 7995.17 1436.06 7995.28 1435.81 7995.5 1435.56 7995.71 1435.38 7996.02 1435.26 7996.42L1438.01 7996.42C1437.97 7996.01 1437.83 7995.7 1437.6 7995.49 1437.36 7995.27 1437.07 7995.17 1436.73 7995.17ZM1412.88 7993.31 1415.48 7993.31 1415.48 7997.31C1415.48 7997.97 1415.58 7998.5 1415.76 7998.9 1415.95 7999.3 1416.29 7999.5 1416.8 7999.5 1417.29 7999.5 1417.67 7999.3 1417.93 7998.9 1418.2 7998.49 1418.33 7997.92 1418.33 7997.2L1418.33 7993.31 1420.94 7993.31 1420.94 8001.58 1418.64 8001.58 1418.6 8001.23C1418.56 8000.75 1418.52 8000.44 1418.49 8000.3 1417.95 8001.29 1417.08 8001.79 1415.9 8001.79 1414.96 8001.79 1414.22 8001.49 1413.68 8000.88 1413.15 8000.27 1412.88 7999.38 1412.88 7998.19ZM1446.84 7993.09C1447.18 7993.09 1447.5 7993.14 1447.8 7993.25 1448.11 7993.35 1448.33 7993.49 1448.48 7993.66L1447.48 7995.65C1447.13 7995.42 1446.79 7995.31 1446.45 7995.31 1445.89 7995.31 1445.44 7995.55 1445.11 7996.02 1444.78 7996.48 1444.61 7997.12 1444.61 7997.92L1444.61 8001.58 1442 8001.58 1442 7993.31 1444.32 7993.31C1444.35 7993.83 1444.39 7994.26 1444.47 7994.59 1444.71 7994.1 1445.04 7993.73 1445.45 7993.47 1445.86 7993.21 1446.32 7993.09 1446.84 7993.09ZM1436.81 7993.09C1437.57 7993.09 1438.24 7993.25 1438.82 7993.58 1439.4 7993.9 1439.85 7994.37 1440.17 7994.98 1440.49 7995.58 1440.65 7996.29 1440.65 7997.1 1440.65 7997.44 1440.62 7997.81 1440.56 7998.19L1435.26 7998.19C1435.38 7998.65 1435.58 7999 1435.87 7999.25 1436.16 7999.51 1436.51 7999.63 1436.92 7999.63 1437.27 7999.63 1437.57 7999.55 1437.84 7999.39 1438.12 7999.23 1438.32 7999 1438.44 7998.69L1440.35 7999.82C1440.11 8000.45 1439.67 8000.94 1439.02 8001.28 1438.37 8001.62 1437.64 8001.79 1436.83 8001.79 1436.08 8001.79 1435.38 8001.63 1434.72 8001.29 1434.07 8000.96 1433.54 8000.47 1433.14 7999.81 1432.74 7999.15 1432.54 7998.35 1432.54 7997.41 1432.54 7996.48 1432.74 7995.69 1433.14 7995.04 1433.54 7994.39 1434.07 7993.9 1434.72 7993.58 1435.37 7993.25 1436.07 7993.09 1436.81 7993.09ZM1428.06 7993.09C1428.74 7993.09 1429.37 7993.26 1429.94 7993.6 1430.51 7993.94 1430.96 7994.44 1431.3 7995.1 1431.64 7995.75 1431.8 7996.53 1431.8 7997.44 1431.8 7998.33 1431.64 7999.11 1431.3 7999.77 1430.96 8000.42 1430.51 8000.92 1429.94 8001.27 1429.37 8001.62 1428.74 8001.79 1428.06 8001.79 1427.01 8001.79 1426.2 8001.41 1425.61 8000.65L1425.61 8005.29 1423 8005.29 1423 7993.31 1425.32 7993.31C1425.37 7993.91 1425.4 7994.3 1425.44 7994.48 1425.73 7994.01 1426.11 7993.66 1426.56 7993.43 1427 7993.2 1427.51 7993.09 1428.06 7993.09ZM1328.95 7992.17 1328.95 7995.33 1330.15 7995.33C1330.76 7995.33 1331.28 7995.21 1331.71 7994.97 1332.14 7994.73 1332.36 7994.32 1332.36 7993.74 1332.36 7992.7 1331.62 7992.17 1330.15 7992.17ZM1392.99 7992.16C1392.51 7992.16 1392.15 7992.45 1391.92 7993.02 1391.69 7993.6 1391.58 7994.5 1391.58 7995.73 1391.58 7996.93 1391.69 7997.83 1391.92 7998.42 1392.15 7999 1392.51 7999.29 1392.99 7999.29 1393.46 7999.29 1393.8 7999 1394.03 7998.41 1394.25 7997.81 1394.36 7996.92 1394.36 7995.73 1394.36 7994.53 1394.25 7993.64 1394.03 7993.05 1393.8 7992.46 1393.46 7992.16 1392.99 7992.16ZM1372.99 7992.16C1372.51 7992.16 1372.15 7992.45 1371.92 7993.02 1371.69 7993.6 1371.58 7994.5 1371.58 7995.73 1371.58 7996.93 1371.69 7997.83 1371.92 7998.42 1372.15 7999 1372.51 7999.29 1372.99 7999.29 1373.46 7999.29 1373.8 7999 1374.03 7998.41 1374.25 7997.81 1374.36 7996.92 1374.36 7995.73 1374.36 7994.53 1374.25 7993.64 1374.03 7993.05 1373.8 7992.46 1373.46 7992.16 1372.99 7992.16ZM1383.02 7991.89C1382.68 7991.89 1382.41 7991.99 1382.2 7992.21 1382 7992.42 1381.9 7992.69 1381.9 7993.01 1381.9 7993.33 1382 7993.59 1382.2 7993.8 1382.41 7994.01 1382.68 7994.11 1383.02 7994.11 1383.35 7994.11 1383.62 7994.01 1383.84 7993.8 1384.05 7993.59 1384.16 7993.33 1384.16 7993.01 1384.16 7992.7 1384.05 7992.43 1383.84 7992.21 1383.62 7992 1383.35 7991.89 1383.02 7991.89ZM1346.3 7989.87 1349.64 7989.87 1352.06 7993.39 1354.51 7989.87 1357.66 7989.87 1353.56 7995.55 1357.87 8001.58 1354.49 8001.58 1351.88 7997.77 1349.23 8001.58 1346.09 8001.58 1350.4 7995.62ZM1336.17 7989.87 1345.93 7989.87 1345.93 7992.29 1342.41 7992.29 1342.41 8001.58 1339.69 8001.58 1339.69 7992.29 1336.17 7992.29ZM1326.21 7989.87 1330.47 7989.87C1331.44 7989.87 1332.28 7990.03 1333 7990.35 1333.72 7990.67 1334.28 7991.12 1334.66 7991.71 1335.04 7992.3 1335.24 7992.98 1335.24 7993.74 1335.24 7994.48 1335.06 7995.13 1334.71 7995.69 1334.36 7996.26 1333.85 7996.71 1333.19 7997.04L1336.34 8001.58 1333.09 8001.57 1330.5 7997.62 1330.42 7997.62 1328.95 7997.62 1328.95 8001.58 1326.21 8001.58ZM1407.1 7989.65C1408.12 7989.65 1409.02 7989.88 1409.79 7990.35 1410.56 7990.82 1411.05 7991.49 1411.28 7992.35L1409.04 7993.62C1408.87 7993.13 1408.6 7992.76 1408.24 7992.5 1407.89 7992.23 1407.45 7992.1 1406.94 7992.1 1406.5 7992.1 1406.15 7992.2 1405.88 7992.4 1405.6 7992.6 1405.47 7992.86 1405.47 7993.18 1405.47 7993.43 1405.56 7993.64 1405.75 7993.81 1405.93 7993.98 1406.17 7994.12 1406.44 7994.22 1406.72 7994.33 1407.12 7994.46 1407.63 7994.62 1408.42 7994.86 1409.06 7995.09 1409.55 7995.32 1410.04 7995.55 1410.47 7995.89 1410.83 7996.35 1411.19 7996.81 1411.37 7997.41 1411.37 7998.14 1411.37 7999.01 1411.15 7999.71 1410.69 8000.25 1410.24 8000.8 1409.67 8001.19 1408.99 8001.43 1408.31 8001.67 1407.61 8001.79 1406.89 8001.79 1405.81 8001.79 1404.83 8001.54 1403.93 8001.05 1403.04 8000.55 1402.44 7999.83 1402.14 7998.9L1404.35 7997.63C1404.58 7998.17 1404.93 7998.6 1405.38 7998.9 1405.83 7999.19 1406.37 7999.34 1406.99 7999.34 1407.45 7999.34 1407.82 7999.25 1408.1 7999.08 1408.38 7998.9 1408.52 7998.64 1408.52 7998.3 1408.52 7998.03 1408.43 7997.8 1408.24 7997.62 1408.04 7997.43 1407.8 7997.28 1407.52 7997.17 1407.23 7997.05 1406.82 7996.92 1406.3 7996.77 1405.53 7996.54 1404.91 7996.32 1404.42 7996.1 1403.93 7995.87 1403.52 7995.53 1403.16 7995.08 1402.81 7994.63 1402.64 7994.03 1402.64 7993.29 1402.64 7992.48 1402.85 7991.81 1403.27 7991.26 1403.69 7990.72 1404.24 7990.31 1404.92 7990.05 1405.59 7989.78 1406.32 7989.65 1407.1 7989.65ZM1392.99 7989.65C1394.35 7989.65 1395.41 7990.16 1396.15 7991.2 1396.89 7992.23 1397.26 7993.74 1397.26 7995.73 1397.26 7997.7 1396.89 7999.2 1396.15 8000.24 1395.41 8001.27 1394.35 8001.79 1392.99 8001.79 1391.62 8001.79 1390.56 8001.28 1389.81 8000.25 1389.06 7999.22 1388.68 7997.71 1388.68 7995.73 1388.68 7993.74 1389.06 7992.23 1389.81 7991.2 1390.56 7990.16 1391.62 7989.65 1392.99 7989.65ZM1372.99 7989.65C1374.35 7989.65 1375.41 7990.16 1376.15 7991.2 1376.89 7992.23 1377.26 7993.74 1377.26 7995.73 1377.26 7997.7 1376.89 7999.2 1376.15 8000.24 1375.41 8001.27 1374.35 8001.79 1372.99 8001.79 1371.62 8001.79 1370.56 8001.28 1369.81 8000.25 1369.06 7999.22 1368.68 7997.71 1368.68 7995.73 1368.68 7993.74 1369.06 7992.23 1369.81 7991.2 1370.56 7990.16 1371.62 7989.65 1372.99 7989.65ZM1383.02 7989.63C1383.85 7989.63 1384.55 7989.77 1385.12 7990.06 1385.69 7990.34 1386.12 7990.72 1386.4 7991.21 1386.69 7991.69 1386.83 7992.24 1386.83 7992.85 1386.83 7993.38 1386.71 7993.85 1386.46 7994.25 1386.21 7994.66 1385.87 7994.98 1385.42 7995.21 1386.01 7995.5 1386.47 7995.9 1386.8 7996.4 1387.13 7996.9 1387.29 7997.5 1387.29 7998.21 1387.29 7998.91 1387.12 7999.54 1386.77 8000.08 1386.43 8000.62 1385.93 8001.04 1385.28 8001.34 1384.64 8001.64 1383.88 8001.79 1383.02 8001.79 1382.13 8001.79 1381.36 8001.64 1380.71 8001.33 1380.05 8001.03 1379.55 8000.61 1379.2 8000.07 1378.84 7999.53 1378.67 7998.91 1378.67 7998.21 1378.67 7997.5 1378.84 7996.9 1379.17 7996.4 1379.51 7995.9 1379.97 7995.51 1380.56 7995.23 1380.09 7994.99 1379.72 7994.66 1379.46 7994.25 1379.2 7993.85 1379.07 7993.38 1379.07 7992.85 1379.07 7992.26 1379.22 7991.72 1379.52 7991.23 1379.83 7990.74 1380.28 7990.35 1380.88 7990.06 1381.47 7989.77 1382.19 7989.63 1383.02 7989.63ZM1362.88 7989.63C1363.68 7989.63 1364.36 7989.79 1364.93 7990.11 1365.5 7990.43 1365.93 7990.87 1366.22 7991.42 1366.51 7991.96 1366.65 7992.58 1366.65 7993.25 1366.65 7993.92 1366.49 7994.54 1366.17 7995.11 1365.85 7995.68 1365.28 7996.42 1364.46 7997.31L1362.76 7999.21 1367.18 7999.21 1367.18 8001.58 1358.83 8001.58 1358.83 7999.81 1362.25 7995.95C1362.82 7995.31 1363.21 7994.81 1363.44 7994.46 1363.66 7994.11 1363.77 7993.75 1363.77 7993.39 1363.77 7993.03 1363.67 7992.73 1363.47 7992.5 1363.27 7992.26 1362.98 7992.14 1362.62 7992.14 1361.81 7992.14 1361.22 7992.73 1360.86 7993.9L1358.75 7992.67C1359.05 7991.69 1359.56 7990.94 1360.3 7990.42 1361.04 7989.89 1361.89 7989.63 1362.88 7989.63Z" stroke="#000000" stroke-linejoin="round" stroke-miterlimit="10" stroke-opacity="0.54902" fill="#FFFFFF" fill-rule="evenodd"/><text fill="#000000" fill-opacity="0" font-family="Arial,Arial_MSFontService,sans-serif" font-size="15.6641" x="1326.21" y="8003.34">RTX2080 Super</text></g></g></svg>