<svg width="1378" height="1556" xmlns="http://www.w3.org/2000/svg" xmlns:xlink="http://www.w3.org/1999/xlink" xml:space="preserve" overflow="hidden"><defs><clipPath id="clip0"><rect x="455" y="7054" width="1378" height="1556"/></clipPath></defs><g clip-path="url(#clip0)" transform="translate(-455 -7054)"><g><path d="M1103 8074 1050.03 8103.27 996 8147" stroke="#7434FE" stroke-width="4.125" stroke-linecap="round" stroke-linejoin="round" stroke-miterlimit="10" fill="none"/></g><g><path d="M1171.68 8063.85C1171.24 8063.85 1170.89 8063.93 1170.64 8064.09 1170.38 8064.25 1170.25 8064.46 1170.25 8064.73 1170.25 8064.97 1170.35 8065.16 1170.54 8065.3 1170.73 8065.44 1170.98 8065.51 1171.28 8065.51 1171.68 8065.51 1172.05 8065.39 1172.37 8065.16 1172.7 8064.92 1172.86 8064.61 1172.86 8064.21L1172.86 8064.01C1172.45 8063.9 1172.05 8063.85 1171.68 8063.85ZM1134.06 8062.07C1133.62 8062.07 1133.27 8062.21 1133.01 8062.48 1132.74 8062.75 1132.61 8063.11 1132.61 8063.56 1132.61 8064.01 1132.74 8064.36 1133.01 8064.63 1133.29 8064.9 1133.64 8065.03 1134.06 8065.03 1134.47 8065.03 1134.8 8064.9 1135.06 8064.63 1135.32 8064.36 1135.45 8064.01 1135.45 8063.56 1135.45 8063.11 1135.33 8062.75 1135.08 8062.48 1134.83 8062.21 1134.49 8062.07 1134.06 8062.07ZM1176.12 8058.97 1179.08 8058.97 1180.6 8061.16 1182.15 8058.97 1185 8058.97 1181.94 8063.03 1185 8067.24 1182.04 8067.24 1180.5 8065.03 1178.97 8067.24 1176.12 8067.24 1179.16 8063.16ZM1171.69 8058.74C1172.89 8058.74 1173.81 8059.08 1174.46 8059.74 1175.11 8060.41 1175.44 8061.35 1175.44 8062.57L1175.44 8067.24 1173.25 8067.24C1173.19 8066.79 1173.16 8066.49 1173.13 8066.34 1172.88 8066.72 1172.57 8066.99 1172.21 8067.17 1171.84 8067.35 1171.38 8067.45 1170.83 8067.45 1170.24 8067.45 1169.71 8067.34 1169.22 8067.13 1168.74 8066.93 1168.35 8066.63 1168.07 8066.24 1167.79 8065.85 1167.65 8065.39 1167.65 8064.85 1167.65 8064.3 1167.8 8063.81 1168.12 8063.39 1168.43 8062.97 1168.86 8062.65 1169.39 8062.42 1169.92 8062.2 1170.5 8062.09 1171.13 8062.09 1171.72 8062.09 1172.3 8062.19 1172.86 8062.39 1172.79 8061.34 1172.31 8060.82 1171.44 8060.82 1170.7 8060.82 1170.17 8061.16 1169.84 8061.85L1168 8060.77C1168.31 8060.14 1168.78 8059.65 1169.43 8059.29 1170.08 8058.92 1170.83 8058.74 1171.69 8058.74ZM1079.99 8057.83 1079.99 8060.98 1081.19 8060.98C1081.8 8060.98 1082.32 8060.86 1082.75 8060.62 1083.18 8060.38 1083.4 8059.97 1083.4 8059.4 1083.4 8058.35 1082.66 8057.83 1081.19 8057.83ZM1144.03 8057.81C1143.55 8057.81 1143.2 8058.1 1142.97 8058.68 1142.74 8059.25 1142.62 8060.16 1142.62 8061.38 1142.62 8062.59 1142.74 8063.48 1142.97 8064.07 1143.2 8064.66 1143.55 8064.95 1144.03 8064.95 1144.5 8064.95 1144.85 8064.65 1145.07 8064.06 1145.29 8063.47 1145.41 8062.58 1145.41 8061.38 1145.41 8060.19 1145.29 8059.29 1145.07 8058.7 1144.85 8058.11 1144.5 8057.81 1144.03 8057.81ZM1124.03 8057.81C1123.55 8057.81 1123.2 8058.1 1122.97 8058.68 1122.74 8059.25 1122.62 8060.16 1122.62 8061.38 1122.62 8062.59 1122.74 8063.48 1122.97 8064.07 1123.2 8064.66 1123.55 8064.95 1124.03 8064.95 1124.5 8064.95 1124.85 8064.65 1125.07 8064.06 1125.29 8063.47 1125.41 8062.58 1125.41 8061.38 1125.41 8060.19 1125.29 8059.29 1125.07 8058.7 1124.85 8058.11 1124.5 8057.81 1124.03 8057.81ZM1134.06 8057.54C1133.72 8057.54 1133.45 8057.65 1133.25 8057.86 1133.04 8058.08 1132.94 8058.34 1132.94 8058.66 1132.94 8058.98 1133.04 8059.25 1133.25 8059.45 1133.45 8059.66 1133.72 8059.77 1134.06 8059.77 1134.39 8059.77 1134.66 8059.66 1134.88 8059.45 1135.09 8059.25 1135.2 8058.98 1135.2 8058.66 1135.2 8058.35 1135.09 8058.09 1134.88 8057.87 1134.66 8057.65 1134.39 8057.54 1134.06 8057.54ZM1154.25 8055.53 1156.37 8055.53 1160.22 8061.17 1164.05 8055.53 1166.11 8055.53 1166.11 8067.24 1163.52 8067.24 1163.52 8060.29 1160.88 8064.07 1159.49 8064.07 1156.81 8060.26 1156.81 8067.24 1154.25 8067.24ZM1097.34 8055.53 1100.69 8055.53 1103.1 8059.05 1105.55 8055.53 1108.7 8055.53 1104.61 8061.21 1108.91 8067.24 1105.53 8067.24 1102.93 8063.43 1100.27 8067.24 1097.13 8067.24 1101.44 8061.27ZM1087.21 8055.53 1096.97 8055.53 1096.97 8057.94 1093.45 8057.94 1093.45 8067.24 1090.73 8067.24 1090.73 8057.94 1087.21 8057.94ZM1077.25 8055.53 1081.51 8055.53C1082.48 8055.53 1083.33 8055.69 1084.05 8056.01 1084.77 8056.33 1085.32 8056.78 1085.7 8057.37 1086.09 8057.95 1086.28 8058.63 1086.28 8059.4 1086.28 8060.13 1086.1 8060.78 1085.75 8061.35 1085.4 8061.92 1084.89 8062.36 1084.23 8062.69L1087.38 8067.24 1084.13 8067.22 1081.54 8063.27 1081.46 8063.27 1079.99 8063.27 1079.99 8067.24 1077.25 8067.24ZM1144.03 8055.3C1145.4 8055.3 1146.45 8055.82 1147.19 8056.85 1147.93 8057.89 1148.3 8059.4 1148.3 8061.38 1148.3 8063.35 1147.93 8064.86 1147.19 8065.89 1146.45 8066.93 1145.4 8067.45 1144.03 8067.45 1142.66 8067.45 1141.61 8066.93 1140.85 8065.9 1140.1 8064.87 1139.73 8063.37 1139.73 8061.38 1139.73 8059.4 1140.1 8057.89 1140.85 8056.85 1141.61 8055.82 1142.66 8055.3 1144.03 8055.3ZM1124.03 8055.3C1125.4 8055.3 1126.45 8055.82 1127.19 8056.85 1127.93 8057.89 1128.3 8059.4 1128.3 8061.38 1128.3 8063.35 1127.93 8064.86 1127.19 8065.89 1126.45 8066.93 1125.4 8067.45 1124.03 8067.45 1122.66 8067.45 1121.61 8066.93 1120.85 8065.9 1120.1 8064.87 1119.73 8063.37 1119.73 8061.38 1119.73 8059.4 1120.1 8057.89 1120.85 8056.85 1121.61 8055.82 1122.66 8055.3 1124.03 8055.3ZM1134.06 8055.29C1134.89 8055.29 1135.6 8055.43 1136.17 8055.71 1136.74 8055.99 1137.16 8056.38 1137.45 8056.86 1137.73 8057.35 1137.87 8057.89 1137.87 8058.5 1137.87 8059.04 1137.75 8059.5 1137.5 8059.91 1137.26 8060.31 1136.91 8060.64 1136.46 8060.87 1137.05 8061.16 1137.51 8061.55 1137.84 8062.05 1138.17 8062.56 1138.33 8063.16 1138.33 8063.86 1138.33 8064.57 1138.16 8065.19 1137.81 8065.73 1137.47 8066.28 1136.97 8066.7 1136.33 8067 1135.68 8067.3 1134.93 8067.45 1134.06 8067.45 1133.18 8067.45 1132.41 8067.29 1131.75 8066.99 1131.09 8066.69 1130.59 8066.26 1130.24 8065.73 1129.89 8065.19 1129.71 8064.57 1129.71 8063.86 1129.71 8063.16 1129.88 8062.56 1130.21 8062.05 1130.55 8061.55 1131.01 8061.16 1131.6 8060.89 1131.13 8060.64 1130.76 8060.31 1130.5 8059.91 1130.24 8059.5 1130.11 8059.04 1130.11 8058.5 1130.11 8057.92 1130.26 8057.38 1130.57 8056.89 1130.87 8056.4 1131.32 8056.01 1131.92 8055.72 1132.52 8055.43 1133.23 8055.29 1134.06 8055.29ZM1113.92 8055.29C1114.72 8055.29 1115.4 8055.45 1115.97 8055.77 1116.54 8056.09 1116.97 8056.52 1117.26 8057.07 1117.55 8057.62 1117.69 8058.23 1117.69 8058.9 1117.69 8059.57 1117.53 8060.2 1117.21 8060.77 1116.89 8061.34 1116.32 8062.07 1115.5 8062.97L1113.81 8064.87 1118.22 8064.87 1118.22 8067.24 1109.87 8067.24 1109.87 8065.46 1113.29 8061.61C1113.86 8060.97 1114.25 8060.47 1114.48 8060.12 1114.7 8059.77 1114.81 8059.41 1114.81 8059.05 1114.81 8058.68 1114.71 8058.38 1114.51 8058.15 1114.31 8057.92 1114.02 8057.8 1113.66 8057.8 1112.85 8057.8 1112.26 8058.38 1111.9 8059.56L1109.79 8058.33C1110.09 8057.34 1110.61 8056.59 1111.34 8056.07 1112.08 8055.55 1112.94 8055.29 1113.92 8055.29Z" stroke="#000000" stroke-linejoin="round" stroke-miterlimit="10" stroke-opacity="0.54902" fill="#FFFFFF" fill-rule="evenodd"/><text fill="#000000" fill-opacity="0" font-family="Arial,Arial_MSFontService,sans-serif" font-size="12.1602" x="1077.25" y="8065.93">RTX2080 Max</text></g><g><path d="M1186.26 8061.32 1192.36 8061.32 1192.36 8063.49 1186.26 8063.49Z" stroke="#000000" stroke-linejoin="round" stroke-miterlimit="10" stroke-opacity="0.54902" fill="#FFFFFF" fill-rule="evenodd"/><text fill="#000000" fill-opacity="0" font-family="Arial,Arial_MSFontService,sans-serif" font-size="2.17578" x="1186.26" y="8063.22">-</text></g><g><path d="M1199.59 8057.81C1199.03 8057.81 1198.54 8057.96 1198.12 8058.25 1197.69 8058.55 1197.36 8058.96 1197.12 8059.5 1196.88 8060.04 1196.76 8060.66 1196.76 8061.37 1196.76 8062.08 1196.88 8062.71 1197.12 8063.25 1197.36 8063.8 1197.69 8064.22 1198.12 8064.51 1198.54 8064.8 1199.03 8064.95 1199.59 8064.95 1200.14 8064.95 1200.64 8064.8 1201.07 8064.51 1201.5 8064.22 1201.84 8063.8 1202.08 8063.25 1202.32 8062.71 1202.44 8062.08 1202.44 8061.37 1202.44 8060.66 1202.32 8060.04 1202.08 8059.5 1201.84 8058.96 1201.5 8058.55 1201.07 8058.25 1200.64 8057.96 1200.14 8057.81 1199.59 8057.81ZM1199.59 8055.3C1200.64 8055.3 1201.61 8055.54 1202.48 8056.03 1203.35 8056.52 1204.04 8057.22 1204.55 8058.13 1205.06 8059.05 1205.32 8060.13 1205.32 8061.37 1205.32 8062.54 1205.09 8063.57 1204.64 8064.45 1204.18 8065.34 1203.56 8066.04 1202.77 8066.55L1206.58 8070.01 1202.87 8070.01 1199.99 8067.43C1199.89 8067.44 1199.76 8067.45 1199.59 8067.45 1198.52 8067.45 1197.55 8067.2 1196.68 8066.72 1195.81 8066.23 1195.13 8065.53 1194.62 8064.61 1194.11 8063.7 1193.86 8062.61 1193.86 8061.37 1193.86 8060.13 1194.11 8059.05 1194.62 8058.13 1195.13 8057.22 1195.82 8056.52 1196.69 8056.03 1197.57 8055.54 1198.53 8055.3 1199.59 8055.3Z" stroke="#000000" stroke-linejoin="round" stroke-miterlimit="10" stroke-opacity="0.54902" fill="#FFFFFF" fill-rule="evenodd"/><text fill="#000000" fill-opacity="0" font-family="Arial,Arial_MSFontService,sans-serif" font-size="14.7041" x="1193.86" y="8068.17">Q</text></g></g></svg>