<svg width="1378" height="1556" xmlns="http://www.w3.org/2000/svg" xmlns:xlink="http://www.w3.org/1999/xlink" xml:space="preserve" overflow="hidden"><defs><clipPath id="clip0"><rect x="455" y="7054" width="1378" height="1556"/></clipPath></defs><g clip-path="url(#clip0)" transform="translate(-455 -7054)"><g><path d="M1639 7960 1532.05 7967.26 1371 8024" stroke="#A32EFF" stroke-width="4.125" stroke-linecap="round" stroke-linejoin="round" stroke-miterlimit="10" fill="none"/></g><g><path d="M1705.41 7961.46C1704.97 7961.46 1704.62 7961.59 1704.35 7961.87 1704.08 7962.14 1703.95 7962.5 1703.95 7962.95 1703.95 7963.39 1704.09 7963.75 1704.36 7964.02 1704.63 7964.28 1704.98 7964.42 1705.41 7964.42 1705.81 7964.42 1706.15 7964.28 1706.41 7964.02 1706.67 7963.75 1706.8 7963.39 1706.8 7962.95 1706.8 7962.5 1706.67 7962.14 1706.42 7961.87 1706.17 7961.59 1705.83 7961.46 1705.41 7961.46ZM1651.34 7957.22 1651.34 7960.37 1652.54 7960.37C1653.14 7960.37 1653.66 7960.25 1654.1 7960.01 1654.53 7959.77 1654.74 7959.36 1654.74 7958.79 1654.74 7957.74 1654.01 7957.22 1652.54 7957.22ZM1715.38 7957.2C1714.9 7957.2 1714.54 7957.49 1714.31 7958.07 1714.08 7958.64 1713.97 7959.54 1713.97 7960.77 1713.97 7961.98 1714.08 7962.87 1714.31 7963.46 1714.54 7964.04 1714.9 7964.34 1715.38 7964.34 1715.84 7964.34 1716.19 7964.04 1716.42 7963.45 1716.64 7962.86 1716.75 7961.96 1716.75 7960.77 1716.75 7959.58 1716.64 7958.68 1716.42 7958.09 1716.19 7957.5 1715.84 7957.2 1715.38 7957.2ZM1695.38 7957.2C1694.9 7957.2 1694.54 7957.49 1694.31 7958.07 1694.08 7958.64 1693.97 7959.54 1693.97 7960.77 1693.97 7961.98 1694.08 7962.87 1694.31 7963.46 1694.54 7964.04 1694.9 7964.34 1695.38 7964.34 1695.84 7964.34 1696.19 7964.04 1696.42 7963.45 1696.64 7962.86 1696.75 7961.96 1696.75 7960.77 1696.75 7959.58 1696.64 7958.68 1696.42 7958.09 1696.19 7957.5 1695.84 7957.2 1695.38 7957.2ZM1705.41 7956.93C1705.07 7956.93 1704.79 7957.04 1704.59 7957.25 1704.39 7957.46 1704.29 7957.73 1704.29 7958.05 1704.29 7958.37 1704.39 7958.63 1704.59 7958.84 1704.79 7959.05 1705.07 7959.15 1705.41 7959.15 1705.74 7959.15 1706.01 7959.05 1706.22 7958.84 1706.44 7958.63 1706.54 7958.37 1706.54 7958.05 1706.54 7957.74 1706.44 7957.48 1706.22 7957.26 1706.01 7957.04 1705.74 7956.93 1705.41 7956.93ZM1668.69 7954.91 1672.03 7954.91 1674.45 7958.43 1676.9 7954.91 1680.05 7954.91 1675.95 7960.59 1680.26 7966.63 1676.88 7966.63 1674.27 7962.82 1671.62 7966.63 1668.48 7966.63 1672.78 7960.66ZM1658.56 7954.91 1668.32 7954.91 1668.32 7957.33 1664.8 7957.33 1664.8 7966.63 1662.08 7966.63 1662.08 7957.33 1658.56 7957.33ZM1648.6 7954.91 1652.86 7954.91C1653.83 7954.91 1654.67 7955.07 1655.39 7955.39 1656.11 7955.71 1656.66 7956.17 1657.05 7956.75 1657.43 7957.34 1657.62 7958.02 1657.62 7958.79 1657.62 7959.52 1657.45 7960.17 1657.1 7960.74 1656.74 7961.3 1656.24 7961.75 1655.58 7962.08L1658.73 7966.63 1655.48 7966.61 1652.89 7962.66 1652.81 7962.66 1651.34 7962.66 1651.34 7966.63 1648.6 7966.63ZM1715.38 7954.69C1716.74 7954.69 1717.79 7955.21 1718.54 7956.24 1719.28 7957.28 1719.65 7958.79 1719.65 7960.77 1719.65 7962.74 1719.28 7964.25 1718.54 7965.28 1717.79 7966.32 1716.74 7966.83 1715.38 7966.83 1714.01 7966.83 1712.95 7966.32 1712.2 7965.29 1711.45 7964.26 1711.07 7962.75 1711.07 7960.77 1711.07 7958.79 1711.45 7957.28 1712.2 7956.24 1712.95 7955.21 1714.01 7954.69 1715.38 7954.69ZM1695.38 7954.69C1696.74 7954.69 1697.79 7955.21 1698.54 7956.24 1699.28 7957.28 1699.65 7958.79 1699.65 7960.77 1699.65 7962.74 1699.28 7964.25 1698.54 7965.28 1697.79 7966.32 1696.74 7966.83 1695.38 7966.83 1694.01 7966.83 1692.95 7966.32 1692.2 7965.29 1691.45 7964.26 1691.07 7962.75 1691.07 7960.77 1691.07 7958.79 1691.45 7957.28 1692.2 7956.24 1692.95 7955.21 1694.01 7954.69 1695.38 7954.69ZM1705.41 7954.67C1706.24 7954.67 1706.94 7954.82 1707.51 7955.1 1708.08 7955.38 1708.51 7955.76 1708.79 7956.25 1709.07 7956.74 1709.22 7957.28 1709.22 7957.89 1709.22 7958.42 1709.09 7958.89 1708.85 7959.3 1708.6 7959.7 1708.26 7960.02 1707.81 7960.26 1708.39 7960.55 1708.85 7960.94 1709.18 7961.44 1709.51 7961.94 1709.68 7962.55 1709.68 7963.25 1709.68 7963.95 1709.51 7964.58 1709.16 7965.12 1708.81 7965.67 1708.32 7966.09 1707.67 7966.39 1707.03 7966.68 1706.27 7966.83 1705.41 7966.83 1704.52 7966.83 1703.75 7966.68 1703.1 7966.38 1702.44 7966.07 1701.94 7965.65 1701.58 7965.11 1701.23 7964.58 1701.06 7963.95 1701.06 7963.25 1701.06 7962.55 1701.22 7961.94 1701.56 7961.44 1701.9 7960.94 1702.36 7960.55 1702.94 7960.27 1702.47 7960.03 1702.11 7959.7 1701.85 7959.3 1701.59 7958.89 1701.46 7958.42 1701.46 7957.89 1701.46 7957.3 1701.61 7956.76 1701.91 7956.27 1702.22 7955.78 1702.67 7955.39 1703.26 7955.11 1703.86 7954.82 1704.58 7954.67 1705.41 7954.67ZM1685.26 7954.67C1686.06 7954.67 1686.75 7954.83 1687.32 7955.15 1687.89 7955.47 1688.32 7955.91 1688.61 7956.46 1688.9 7957.01 1689.04 7957.62 1689.04 7958.29 1689.04 7958.96 1688.88 7959.58 1688.56 7960.15 1688.24 7960.72 1687.67 7961.46 1686.85 7962.35L1685.15 7964.26 1689.57 7964.26 1689.57 7966.63 1681.22 7966.63 1681.22 7964.85 1684.64 7960.99C1685.2 7960.35 1685.6 7959.86 1685.82 7959.51 1686.05 7959.15 1686.16 7958.8 1686.16 7958.43 1686.16 7958.07 1686.06 7957.77 1685.86 7957.54 1685.65 7957.3 1685.37 7957.19 1685.01 7957.19 1684.2 7957.19 1683.61 7957.77 1683.25 7958.95L1681.14 7957.71C1681.43 7956.73 1681.95 7955.98 1682.69 7955.46 1683.42 7954.94 1684.28 7954.67 1685.26 7954.67Z" stroke="#000000" stroke-linejoin="round" stroke-miterlimit="10" stroke-opacity="0.54902" fill="#FFFFFF" fill-rule="evenodd"/><text fill="#000000" fill-opacity="0" font-family="Arial,Arial_MSFontService,sans-serif" font-size="12.1602" x="1648.6" y="7965.31">RTX2080</text></g></g></svg>