<svg width="1378" height="1556" xmlns="http://www.w3.org/2000/svg" xmlns:xlink="http://www.w3.org/1999/xlink" xml:space="preserve" overflow="hidden"><defs><clipPath id="clip0"><rect x="455" y="7054" width="1378" height="1556"/></clipPath></defs><g clip-path="url(#clip0)" transform="translate(-455 -7054)"><g><path d="M1183 8107 1050.03 8131.27 996 8150" stroke="#3B6FF5" stroke-width="4.125" stroke-linecap="round" stroke-linejoin="round" stroke-miterlimit="10" fill="none"/></g><g><path d="M1288.1 8121.33C1287.59 8121.33 1287.17 8121.51 1286.83 8121.89 1286.49 8122.26 1286.32 8122.79 1286.32 8123.49 1286.32 8124.18 1286.49 8124.7 1286.82 8125.04 1287.16 8125.38 1287.58 8125.55 1288.1 8125.55 1288.61 8125.55 1289.02 8125.37 1289.34 8125 1289.66 8124.63 1289.82 8124.13 1289.82 8123.49 1289.82 8122.84 1289.66 8122.31 1289.34 8121.92 1289.02 8121.52 1288.61 8121.33 1288.1 8121.33ZM1297.44 8121.21C1297.08 8121.21 1296.77 8121.32 1296.52 8121.54 1296.27 8121.76 1296.09 8122.07 1295.97 8122.46L1298.72 8122.46C1298.68 8122.06 1298.54 8121.75 1298.3 8121.53 1298.07 8121.32 1297.78 8121.21 1297.44 8121.21ZM1273.58 8119.36 1276.19 8119.36 1276.19 8123.36C1276.19 8124.02 1276.29 8124.55 1276.47 8124.95 1276.66 8125.35 1277 8125.55 1277.5 8125.55 1277.99 8125.55 1278.37 8125.35 1278.64 8124.94 1278.91 8124.54 1279.04 8123.97 1279.04 8123.25L1279.04 8119.36 1281.65 8119.36 1281.65 8127.63 1279.34 8127.63 1279.31 8127.28C1279.27 8126.8 1279.23 8126.49 1279.2 8126.35 1278.66 8127.34 1277.79 8127.84 1276.61 8127.84 1275.67 8127.84 1274.93 8127.53 1274.39 8126.93 1273.85 8126.32 1273.58 8125.42 1273.58 8124.24ZM1307.54 8119.13C1307.89 8119.13 1308.21 8119.19 1308.51 8119.29 1308.82 8119.4 1309.04 8119.54 1309.19 8119.71L1308.18 8121.69C1307.84 8121.47 1307.5 8121.36 1307.16 8121.36 1306.59 8121.36 1306.15 8121.59 1305.82 8122.06 1305.49 8122.53 1305.32 8123.17 1305.32 8123.97L1305.32 8127.63 1302.71 8127.63 1302.71 8119.36 1305.03 8119.36C1305.05 8119.88 1305.1 8120.31 1305.18 8120.64 1305.42 8120.15 1305.75 8119.77 1306.16 8119.52 1306.57 8119.26 1307.03 8119.13 1307.54 8119.13ZM1297.52 8119.13C1298.28 8119.13 1298.95 8119.3 1299.53 8119.62 1300.11 8119.95 1300.56 8120.42 1300.88 8121.02 1301.2 8121.63 1301.36 8122.34 1301.36 8123.15 1301.36 8123.49 1301.33 8123.85 1301.26 8124.24L1295.97 8124.24C1296.09 8124.7 1296.29 8125.05 1296.58 8125.3 1296.86 8125.55 1297.22 8125.68 1297.63 8125.68 1297.97 8125.68 1298.28 8125.6 1298.55 8125.44 1298.82 8125.28 1299.02 8125.04 1299.15 8124.73L1301.06 8125.87C1300.82 8126.5 1300.38 8126.99 1299.73 8127.33 1299.08 8127.67 1298.35 8127.84 1297.54 8127.84 1296.79 8127.84 1296.09 8127.67 1295.43 8127.34 1294.78 8127.01 1294.25 8126.52 1293.85 8125.85 1293.45 8125.19 1293.25 8124.39 1293.25 8123.46 1293.25 8122.53 1293.45 8121.74 1293.85 8121.09 1294.25 8120.44 1294.77 8119.95 1295.42 8119.62 1296.07 8119.3 1296.77 8119.13 1297.52 8119.13ZM1288.77 8119.13C1289.45 8119.13 1290.08 8119.31 1290.65 8119.65 1291.22 8119.99 1291.67 8120.49 1292.01 8121.14 1292.34 8121.8 1292.51 8122.58 1292.51 8123.49 1292.51 8124.38 1292.34 8125.16 1292.01 8125.81 1291.67 8126.47 1291.22 8126.97 1290.65 8127.32 1290.08 8127.67 1289.45 8127.84 1288.77 8127.84 1287.72 8127.84 1286.91 8127.46 1286.32 8126.7L1286.32 8131.34 1283.71 8131.34 1283.71 8119.36 1286.03 8119.36C1286.07 8119.96 1286.11 8120.35 1286.14 8120.53 1286.44 8120.06 1286.82 8119.71 1287.26 8119.48 1287.71 8119.25 1288.21 8119.13 1288.77 8119.13ZM1189.66 8118.22 1189.66 8121.38 1190.86 8121.38C1191.46 8121.38 1191.98 8121.25 1192.42 8121.01 1192.85 8120.77 1193.06 8120.37 1193.06 8119.79 1193.06 8118.75 1192.33 8118.22 1190.86 8118.22ZM1253.7 8118.21C1253.22 8118.21 1252.86 8118.49 1252.63 8119.07 1252.4 8119.65 1252.29 8120.55 1252.29 8121.77 1252.29 8122.98 1252.4 8123.88 1252.63 8124.46 1252.86 8125.05 1253.22 8125.34 1253.7 8125.34 1254.17 8125.34 1254.51 8125.05 1254.74 8124.46 1254.96 8123.86 1255.07 8122.97 1255.07 8121.77 1255.07 8120.58 1254.96 8119.69 1254.74 8119.09 1254.51 8118.5 1254.17 8118.21 1253.7 8118.21ZM1233.7 8118.21C1233.22 8118.21 1232.86 8118.49 1232.63 8119.07 1232.4 8119.65 1232.29 8120.55 1232.29 8121.77 1232.29 8122.98 1232.4 8123.88 1232.63 8124.46 1232.86 8125.05 1233.22 8125.34 1233.7 8125.34 1234.17 8125.34 1234.51 8125.05 1234.74 8124.46 1234.96 8123.86 1235.07 8122.97 1235.07 8121.77 1235.07 8120.58 1234.96 8119.69 1234.74 8119.09 1234.51 8118.5 1234.17 8118.21 1233.7 8118.21ZM1207.01 8115.92 1210.35 8115.92 1212.77 8119.44 1215.22 8115.92 1218.37 8115.92 1214.27 8121.6 1218.58 8127.63 1215.2 8127.63 1212.59 8123.82 1209.94 8127.63 1206.8 8127.63 1211.1 8121.66ZM1196.88 8115.92 1206.64 8115.92 1206.64 8118.33 1203.12 8118.33 1203.12 8127.63 1200.4 8127.63 1200.4 8118.33 1196.88 8118.33ZM1186.92 8115.92 1191.18 8115.92C1192.15 8115.92 1192.99 8116.08 1193.71 8116.4 1194.43 8116.72 1194.98 8117.17 1195.37 8117.76 1195.75 8118.35 1195.94 8119.02 1195.94 8119.79 1195.94 8120.53 1195.77 8121.18 1195.42 8121.74 1195.06 8122.31 1194.56 8122.76 1193.9 8123.09L1197.05 8127.63 1193.8 8127.61 1191.21 8123.66 1191.13 8123.66 1189.66 8123.66 1189.66 8127.63 1186.92 8127.63ZM1239.62 8115.9 1247.73 8115.9 1247.73 8117.61 1243.82 8127.63 1240.86 8127.63 1244.67 8118.29 1239.62 8118.29ZM1267.81 8115.69C1268.83 8115.69 1269.73 8115.93 1270.5 8116.4 1271.26 8116.87 1271.76 8117.53 1271.98 8118.4L1269.74 8119.66C1269.57 8119.18 1269.31 8118.81 1268.95 8118.54 1268.59 8118.28 1268.16 8118.14 1267.65 8118.14 1267.21 8118.14 1266.86 8118.24 1266.58 8118.45 1266.31 8118.65 1266.18 8118.91 1266.18 8119.23 1266.18 8119.48 1266.27 8119.68 1266.46 8119.85 1266.64 8120.03 1266.87 8120.16 1267.15 8120.27 1267.43 8120.38 1267.82 8120.51 1268.34 8120.67 1269.13 8120.91 1269.77 8121.14 1270.26 8121.37 1270.75 8121.6 1271.17 8121.94 1271.54 8122.4 1271.9 8122.86 1272.08 8123.46 1272.08 8124.19 1272.08 8125.05 1271.85 8125.76 1271.4 8126.3 1270.95 8126.85 1270.38 8127.24 1269.7 8127.48 1269.01 8127.72 1268.31 8127.84 1267.6 8127.84 1266.52 8127.84 1265.54 8127.59 1264.64 8127.09 1263.74 8126.6 1263.15 8125.88 1262.85 8124.94L1265.06 8123.68C1265.29 8124.22 1265.63 8124.64 1266.09 8124.94 1266.54 8125.24 1267.08 8125.39 1267.7 8125.39 1268.15 8125.39 1268.53 8125.3 1268.81 8125.13 1269.09 8124.95 1269.23 8124.69 1269.23 8124.35 1269.23 8124.07 1269.14 8123.84 1268.94 8123.66 1268.75 8123.48 1268.51 8123.33 1268.22 8123.21 1267.94 8123.1 1267.53 8122.96 1267.01 8122.81 1266.24 8122.59 1265.61 8122.37 1265.13 8122.14 1264.64 8121.92 1264.22 8121.58 1263.87 8121.13 1263.52 8120.67 1263.34 8120.08 1263.34 8119.34 1263.34 8118.53 1263.55 8117.85 1263.98 8117.31 1264.4 8116.77 1264.95 8116.36 1265.62 8116.09 1266.3 8115.83 1267.03 8115.69 1267.81 8115.69ZM1253.7 8115.69C1255.06 8115.69 1256.11 8116.21 1256.86 8117.25 1257.6 8118.28 1257.97 8119.79 1257.97 8121.77 1257.97 8123.75 1257.6 8125.25 1256.86 8126.29 1256.11 8127.32 1255.06 8127.84 1253.7 8127.84 1252.33 8127.84 1251.27 8127.32 1250.52 8126.29 1249.77 8125.27 1249.39 8123.76 1249.39 8121.77 1249.39 8119.79 1249.77 8118.28 1250.52 8117.25 1251.27 8116.21 1252.33 8115.69 1253.7 8115.69ZM1233.7 8115.69C1235.06 8115.69 1236.11 8116.21 1236.86 8117.25 1237.6 8118.28 1237.97 8119.79 1237.97 8121.77 1237.97 8123.75 1237.6 8125.25 1236.86 8126.29 1236.11 8127.32 1235.06 8127.84 1233.7 8127.84 1232.33 8127.84 1231.27 8127.32 1230.52 8126.29 1229.77 8125.27 1229.39 8123.76 1229.39 8121.77 1229.39 8119.79 1229.77 8118.28 1230.52 8117.25 1231.27 8116.21 1232.33 8115.69 1233.7 8115.69ZM1223.58 8115.68C1224.38 8115.68 1225.07 8115.84 1225.64 8116.16 1226.21 8116.48 1226.64 8116.91 1226.93 8117.46 1227.22 8118.01 1227.36 8118.62 1227.36 8119.29 1227.36 8119.97 1227.2 8120.59 1226.88 8121.16 1226.56 8121.73 1225.99 8122.46 1225.17 8123.36L1223.47 8125.26 1227.89 8125.26 1227.89 8127.63 1219.54 8127.63 1219.54 8125.85 1222.96 8122C1223.53 8121.36 1223.92 8120.86 1224.14 8120.51 1224.37 8120.16 1224.48 8119.8 1224.48 8119.44 1224.48 8119.08 1224.38 8118.78 1224.18 8118.54 1223.97 8118.31 1223.69 8118.19 1223.33 8118.19 1222.52 8118.19 1221.93 8118.78 1221.57 8119.95L1219.46 8118.72C1219.75 8117.74 1220.27 8116.99 1221.01 8116.46 1221.74 8115.94 1222.6 8115.68 1223.58 8115.68Z" stroke="#000000" stroke-linejoin="round" stroke-miterlimit="10" stroke-opacity="0.54902" fill="#FFFFFF" fill-rule="evenodd"/><text fill="#000000" fill-opacity="0" font-family="Arial,Arial_MSFontService,sans-serif" font-size="15.6641" x="1186.92" y="8129.38">RTX2070 Super</text></g></g></svg>