<svg width="1378" height="1556" xmlns="http://www.w3.org/2000/svg" xmlns:xlink="http://www.w3.org/1999/xlink" xml:space="preserve" overflow="hidden"><defs><clipPath id="clip0"><rect x="455" y="7054" width="1378" height="1556"/></clipPath></defs><g clip-path="url(#clip0)" transform="translate(-455 -7054)"><g><path d="M889 8305C871 8307.33 853 8309.67 835 8312" stroke="#EBEE10" stroke-width="4.125" stroke-linecap="round" stroke-linejoin="round" stroke-miterlimit="10" stroke-dasharray="0 8.25" fill="none"/></g><g><path d="M891.946 8303.84C891.946 8306.05 890.156 8307.84 887.946 8307.84 885.737 8307.84 883.947 8306.05 883.947 8303.84 883.947 8301.63 885.737 8299.84 887.946 8299.84 890.156 8299.84 891.946 8301.63 891.946 8303.84Z" stroke="#EBEE10" stroke-width="3.4375" stroke-linejoin="round" stroke-miterlimit="10" fill="#EBEE10"/><path d="M838.946 8311.84C838.946 8314.05 837.156 8315.84 834.947 8315.84 832.738 8315.84 830.947 8314.05 830.947 8311.84 830.947 8309.63 832.738 8307.84 834.947 8307.84 837.156 8307.84 838.946 8309.63 838.946 8311.84Z" stroke="#EBEE10" stroke-width="3.4375" stroke-linejoin="round" stroke-miterlimit="10" fill="#EBEE10"/></g><g><path d="M903.177 8301.78 903.177 8304.94 904.377 8304.94C904.985 8304.94 905.505 8304.82 905.937 8304.58 906.369 8304.34 906.585 8303.93 906.585 8303.35 906.585 8302.31 905.849 8301.78 904.377 8301.78ZM967.217 8301.77C966.737 8301.77 966.382 8302.06 966.153 8302.63 965.923 8303.21 965.809 8304.11 965.809 8305.34 965.809 8306.54 965.923 8307.44 966.153 8308.02 966.382 8308.61 966.737 8308.9 967.217 8308.9 967.686 8308.9 968.033 8308.61 968.257 8308.02 968.481 8307.42 968.593 8306.53 968.593 8305.34 968.593 8304.14 968.481 8303.25 968.257 8302.66 968.033 8302.06 967.686 8301.77 967.217 8301.77ZM947.217 8301.77C946.737 8301.77 946.382 8302.06 946.153 8302.63 945.923 8303.21 945.809 8304.11 945.809 8305.34 945.809 8306.54 945.923 8307.44 946.153 8308.02 946.382 8308.61 946.737 8308.9 947.217 8308.9 947.686 8308.9 948.033 8308.61 948.257 8308.02 948.481 8307.42 948.593 8306.53 948.593 8305.34 948.593 8304.14 948.481 8303.25 948.257 8302.66 948.033 8302.06 947.686 8301.77 947.217 8301.77ZM920.529 8299.48 923.873 8299.48 926.289 8303 928.737 8299.48 931.889 8299.48 927.793 8305.16 932.097 8311.19 928.721 8311.19 926.113 8307.38 923.457 8311.19 920.321 8311.19 924.625 8305.22ZM910.401 8299.48 920.161 8299.48 920.161 8301.9 916.641 8301.9 916.641 8311.19 913.921 8311.19 913.921 8301.9 910.401 8301.9ZM900.441 8299.48 904.697 8299.48C905.667 8299.48 906.513 8299.64 907.233 8299.96 907.953 8300.28 908.505 8300.73 908.889 8301.32 909.273 8301.91 909.465 8302.58 909.465 8303.35 909.465 8304.09 909.289 8304.74 908.937 8305.3 908.585 8305.87 908.078 8306.32 907.417 8306.65L910.569 8311.19 907.321 8311.18 904.729 8307.22 904.649 8307.22 903.177 8307.22 903.177 8311.19 900.441 8311.19ZM954.337 8299.46 960.769 8299.46 960.769 8301.77 956.609 8301.77 956.353 8303.72C956.737 8303.58 957.163 8303.51 957.633 8303.51 958.305 8303.51 958.921 8303.67 959.481 8303.98 960.041 8304.3 960.489 8304.75 960.825 8305.33 961.161 8305.91 961.329 8306.59 961.329 8307.37 961.329 8308.2 961.142 8308.92 960.769 8309.54 960.395 8310.15 959.889 8310.61 959.249 8310.93 958.609 8311.24 957.905 8311.4 957.137 8311.4 956.209 8311.4 955.414 8311.19 954.753 8310.78 954.091 8310.36 953.617 8309.73 953.329 8308.87L955.505 8307.59C955.633 8308.06 955.835 8308.41 956.113 8308.64 956.39 8308.87 956.715 8308.98 957.089 8308.98 957.526 8308.98 957.859 8308.84 958.089 8308.54 958.318 8308.25 958.433 8307.89 958.433 8307.45 958.433 8306.99 958.31 8306.61 958.065 8306.32 957.819 8306.03 957.462 8305.88 956.993 8305.88 956.374 8305.88 955.894 8306.19 955.553 8306.81L953.553 8305.85ZM967.217 8299.26C968.582 8299.26 969.635 8299.77 970.377 8300.81 971.118 8301.84 971.489 8303.35 971.489 8305.34 971.489 8307.31 971.118 8308.81 970.377 8309.85 969.635 8310.88 968.582 8311.4 967.217 8311.4 965.851 8311.4 964.793 8310.89 964.041 8309.86 963.289 8308.83 962.913 8307.32 962.913 8305.34 962.913 8303.35 963.289 8301.84 964.041 8300.81 964.793 8299.77 965.851 8299.26 967.217 8299.26ZM947.217 8299.26C948.582 8299.26 949.635 8299.77 950.377 8300.81 951.118 8301.84 951.489 8303.35 951.489 8305.34 951.489 8307.31 951.118 8308.81 950.377 8309.85 949.635 8310.88 948.582 8311.4 947.217 8311.4 945.851 8311.4 944.793 8310.89 944.041 8309.86 943.289 8308.83 942.913 8307.32 942.913 8305.34 942.913 8303.35 943.289 8301.84 944.041 8300.81 944.793 8299.77 945.851 8299.26 947.217 8299.26ZM937.105 8299.24C937.905 8299.24 938.59 8299.4 939.161 8299.72 939.731 8300.04 940.161 8300.47 940.449 8301.02 940.737 8301.57 940.881 8302.18 940.881 8302.86 940.881 8303.53 940.721 8304.15 940.401 8304.72 940.081 8305.29 939.51 8306.02 938.689 8306.92L936.993 8308.82 941.409 8308.82 941.409 8311.19 933.057 8311.19 933.057 8309.42 936.481 8305.56C937.046 8304.92 937.441 8304.42 937.665 8304.07 937.889 8303.72 938.001 8303.36 938.001 8303 938.001 8302.64 937.899 8302.34 937.697 8302.1 937.494 8301.87 937.211 8301.75 936.849 8301.75 936.038 8301.75 935.451 8302.34 935.089 8303.51L932.977 8302.28C933.275 8301.3 933.793 8300.55 934.529 8300.02 935.265 8299.5 936.123 8299.24 937.105 8299.24Z" stroke="#000000" stroke-linejoin="round" stroke-miterlimit="10" stroke-opacity="0.54902" fill="#FFFFFF" fill-rule="evenodd"/><text fill="#000000" fill-opacity="0" font-family="Arial,Arial_MSFontService,sans-serif" font-size="12.1602" x="900.441" y="8309.88">RTX2050</text></g></g></svg>