<svg width="1378" height="1556" xmlns="http://www.w3.org/2000/svg" xmlns:xlink="http://www.w3.org/1999/xlink" xml:space="preserve" overflow="hidden"><defs><clipPath id="clip0"><rect x="455" y="7054" width="1378" height="1556"/></clipPath></defs><g clip-path="url(#clip0)" transform="translate(-455 -7054)"><g><path d="M1505 7838 1451.05 7850.26 1371.04 7874.26 1317.04 7895.26 1264.04 7911.26 1237.04 7925.26 1210.04 7946.26 1183.04 7951.26 1130.04 7972.26 1103.04 7988.26 1076.04 8006.26 1050 8042" stroke="#2F7E5E" stroke-width="4.125" stroke-linecap="round" stroke-linejoin="round" stroke-miterlimit="10" fill="none"/></g><g><path d="M1571.49 7835.13C1571.05 7835.13 1570.7 7835.27 1570.43 7835.54 1570.17 7835.81 1570.03 7836.17 1570.03 7836.62 1570.03 7837.07 1570.17 7837.43 1570.44 7837.69 1570.71 7837.96 1571.06 7838.09 1571.49 7838.09 1571.89 7838.09 1572.23 7837.96 1572.49 7837.69 1572.75 7837.43 1572.88 7837.07 1572.88 7836.62 1572.88 7836.17 1572.75 7835.81 1572.5 7835.54 1572.25 7835.27 1571.91 7835.13 1571.49 7835.13ZM1597.47 7832.03 1600.08 7832.03 1600.08 7840.3 1597.47 7840.3ZM1517.42 7830.89 1517.42 7834.05 1518.62 7834.05C1519.22 7834.05 1519.74 7833.93 1520.18 7833.69 1520.61 7833.45 1520.82 7833.04 1520.82 7832.46 1520.82 7831.42 1520.09 7830.89 1518.62 7830.89ZM1581.46 7830.88C1580.98 7830.88 1580.62 7831.17 1580.39 7831.74 1580.16 7832.32 1580.05 7833.22 1580.05 7834.45 1580.05 7835.65 1580.16 7836.55 1580.39 7837.13 1580.62 7837.72 1580.98 7838.01 1581.46 7838.01 1581.93 7838.01 1582.27 7837.72 1582.5 7837.13 1582.72 7836.53 1582.83 7835.64 1582.83 7834.45 1582.83 7833.25 1582.72 7832.36 1582.5 7831.77 1582.27 7831.17 1581.93 7830.88 1581.46 7830.88ZM1561.46 7830.88C1560.98 7830.88 1560.62 7831.17 1560.39 7831.74 1560.16 7832.32 1560.05 7833.22 1560.05 7834.45 1560.05 7835.65 1560.16 7836.55 1560.39 7837.13 1560.62 7837.72 1560.98 7838.01 1561.46 7838.01 1561.93 7838.01 1562.27 7837.72 1562.5 7837.13 1562.72 7836.53 1562.83 7835.64 1562.83 7834.45 1562.83 7833.25 1562.72 7832.36 1562.5 7831.77 1562.27 7831.17 1561.93 7830.88 1561.46 7830.88ZM1571.49 7830.61C1571.15 7830.61 1570.87 7830.71 1570.67 7830.93 1570.47 7831.14 1570.37 7831.41 1570.37 7831.73 1570.37 7832.05 1570.47 7832.31 1570.67 7832.52 1570.87 7832.73 1571.15 7832.83 1571.49 7832.83 1571.82 7832.83 1572.09 7832.73 1572.3 7832.52 1572.52 7832.31 1572.62 7832.05 1572.62 7831.73 1572.62 7831.42 1572.52 7831.15 1572.3 7830.93 1572.09 7830.72 1571.82 7830.61 1571.49 7830.61ZM1586.64 7828.59 1596.4 7828.59 1596.4 7831.01 1592.88 7831.01 1592.88 7840.3 1590.16 7840.3 1590.16 7831.01 1586.64 7831.01ZM1534.77 7828.59 1538.11 7828.59 1540.53 7832.11 1542.98 7828.59 1546.13 7828.59 1542.03 7834.27 1546.34 7840.3 1542.96 7840.3 1540.35 7836.49 1537.7 7840.3 1534.56 7840.3 1538.86 7834.33ZM1524.64 7828.59 1534.4 7828.59 1534.4 7831.01 1530.88 7831.01 1530.88 7840.3 1528.16 7840.3 1528.16 7831.01 1524.64 7831.01ZM1514.68 7828.59 1518.94 7828.59C1519.91 7828.59 1520.75 7828.75 1521.47 7829.07 1522.19 7829.39 1522.74 7829.84 1523.13 7830.43 1523.51 7831.02 1523.7 7831.69 1523.7 7832.46 1523.7 7833.2 1523.53 7833.85 1523.18 7834.41 1522.82 7834.98 1522.32 7835.43 1521.66 7835.76L1524.81 7840.3 1521.56 7840.29 1518.97 7836.33 1518.89 7836.33 1517.42 7836.33 1517.42 7840.3 1514.68 7840.3ZM1581.46 7828.37C1582.82 7828.37 1583.87 7828.88 1584.62 7829.92 1585.36 7830.95 1585.73 7832.46 1585.73 7834.45 1585.73 7836.42 1585.36 7837.92 1584.62 7838.96 1583.87 7839.99 1582.82 7840.51 1581.46 7840.51 1580.09 7840.51 1579.03 7840 1578.28 7838.97 1577.53 7837.94 1577.15 7836.43 1577.15 7834.45 1577.15 7832.46 1577.53 7830.95 1578.28 7829.92 1579.03 7828.88 1580.09 7828.37 1581.46 7828.37ZM1561.46 7828.37C1562.82 7828.37 1563.87 7828.88 1564.62 7829.92 1565.36 7830.95 1565.73 7832.46 1565.73 7834.45 1565.73 7836.42 1565.36 7837.92 1564.62 7838.96 1563.87 7839.99 1562.82 7840.51 1561.46 7840.51 1560.09 7840.51 1559.03 7840 1558.28 7838.97 1557.53 7837.94 1557.15 7836.43 1557.15 7834.45 1557.15 7832.46 1557.53 7830.95 1558.28 7829.92 1559.03 7828.88 1560.09 7828.37 1561.46 7828.37ZM1571.49 7828.35C1572.32 7828.35 1573.02 7828.49 1573.59 7828.77 1574.16 7829.06 1574.59 7829.44 1574.87 7829.93 1575.15 7830.41 1575.3 7830.96 1575.3 7831.57 1575.3 7832.1 1575.17 7832.57 1574.93 7832.97 1574.68 7833.38 1574.34 7833.7 1573.89 7833.93 1574.47 7834.22 1574.93 7834.62 1575.26 7835.12 1575.59 7835.62 1575.76 7836.22 1575.76 7836.93 1575.76 7837.63 1575.59 7838.25 1575.24 7838.8 1574.89 7839.34 1574.4 7839.76 1573.75 7840.06 1573.11 7840.36 1572.35 7840.51 1571.49 7840.51 1570.6 7840.51 1569.83 7840.36 1569.18 7840.05 1568.52 7839.75 1568.02 7839.33 1567.66 7838.79 1567.31 7838.25 1567.14 7837.63 1567.14 7836.93 1567.14 7836.22 1567.3 7835.62 1567.64 7835.12 1567.98 7834.62 1568.44 7834.23 1569.02 7833.95 1568.55 7833.71 1568.19 7833.38 1567.93 7832.97 1567.67 7832.57 1567.54 7832.1 1567.54 7831.57 1567.54 7830.98 1567.69 7830.44 1567.99 7829.95 1568.3 7829.46 1568.75 7829.07 1569.34 7828.78 1569.94 7828.49 1570.66 7828.35 1571.49 7828.35ZM1551.28 7828.35C1552.04 7828.35 1552.71 7828.49 1553.3 7828.77 1553.9 7829.04 1554.35 7829.43 1554.68 7829.93 1555.01 7830.44 1555.17 7831.01 1555.17 7831.66 1555.17 7832.26 1555.03 7832.78 1554.75 7833.22 1554.47 7833.67 1554.07 7834.01 1553.55 7834.25 1554.18 7834.5 1554.67 7834.86 1555.01 7835.33 1555.35 7835.8 1555.52 7836.37 1555.52 7837.05 1555.52 7837.78 1555.33 7838.4 1554.95 7838.93 1554.57 7839.45 1554.06 7839.84 1553.41 7840.11 1552.76 7840.38 1552.03 7840.51 1551.23 7840.51 1550.21 7840.51 1549.34 7840.28 1548.62 7839.81 1547.9 7839.35 1547.38 7838.67 1547.07 7837.77L1549.22 7836.53C1549.36 7837.04 1549.62 7837.43 1549.97 7837.69 1550.32 7837.96 1550.71 7838.09 1551.15 7838.09 1551.58 7838.09 1551.93 7837.98 1552.22 7837.75 1552.5 7837.52 1552.64 7837.2 1552.64 7836.8 1552.64 7835.89 1551.88 7835.44 1550.37 7835.44L1549.97 7835.44 1549.97 7833.23 1550.62 7833.23C1551.14 7833.23 1551.54 7833.11 1551.83 7832.85 1552.12 7832.6 1552.27 7832.29 1552.27 7831.92 1552.27 7831.58 1552.15 7831.3 1551.92 7831.09 1551.69 7830.89 1551.39 7830.78 1551.02 7830.78 1550.62 7830.78 1550.26 7830.92 1549.95 7831.2 1549.64 7831.48 1549.41 7831.87 1549.26 7832.37L1547.22 7831.18C1547.49 7830.27 1547.99 7829.56 1548.71 7829.08 1549.43 7828.59 1550.29 7828.35 1551.28 7828.35ZM1598.77 7828.06C1599.17 7828.06 1599.53 7828.22 1599.83 7828.53 1600.14 7828.84 1600.29 7829.2 1600.29 7829.61 1600.29 7830.03 1600.14 7830.39 1599.84 7830.69 1599.54 7831 1599.18 7831.15 1598.77 7831.15 1598.35 7831.15 1597.99 7831 1597.7 7830.69 1597.4 7830.39 1597.25 7830.03 1597.25 7829.61 1597.25 7829.19 1597.39 7828.82 1597.69 7828.52 1597.98 7828.21 1598.34 7828.06 1598.77 7828.06Z" stroke="#000000" stroke-linejoin="round" stroke-miterlimit="10" stroke-opacity="0.54902" fill="#FFFFFF" fill-rule="evenodd"/><text fill="#000000" fill-opacity="0" font-family="Arial,Arial_MSFontService,sans-serif" font-size="12.4482" x="1514.68" y="7838.95">RTX3080Ti</text></g></g></svg>