<svg width="1378" height="1556" xmlns="http://www.w3.org/2000/svg" xmlns:xlink="http://www.w3.org/1999/xlink" xml:space="preserve" overflow="hidden"><defs><clipPath id="clip0"><rect x="455" y="7054" width="1378" height="1556"/></clipPath></defs><g clip-path="url(#clip0)" transform="translate(-455 -7054)"><g><path d="M1076 8237 969.032 8251.27 889.029 8266.27 782 8302" stroke="#D2D600" stroke-width="4.125" stroke-linecap="round" stroke-linejoin="round" stroke-miterlimit="10" fill="none"/></g><g><path d="M1088.87 8233.98 1088.87 8237.14 1090.07 8237.14C1090.68 8237.14 1091.2 8237.02 1091.63 8236.78 1092.06 8236.54 1092.28 8236.13 1092.28 8235.55 1092.28 8234.51 1091.54 8233.98 1090.07 8233.98ZM1152.91 8233.97C1152.43 8233.97 1152.08 8234.26 1151.85 8234.83 1151.62 8235.41 1151.5 8236.31 1151.5 8237.54 1151.5 8238.74 1151.62 8239.64 1151.85 8240.22 1152.08 8240.81 1152.43 8241.1 1152.91 8241.1 1153.38 8241.1 1153.73 8240.81 1153.95 8240.22 1154.18 8239.62 1154.29 8238.73 1154.29 8237.54 1154.29 8236.34 1154.18 8235.45 1153.95 8234.86 1153.73 8234.26 1153.38 8233.97 1152.91 8233.97ZM1132.91 8233.97C1132.43 8233.97 1132.08 8234.26 1131.85 8234.83 1131.62 8235.41 1131.5 8236.31 1131.5 8237.54 1131.5 8238.74 1131.62 8239.64 1131.85 8240.22 1132.08 8240.81 1132.43 8241.1 1132.91 8241.1 1133.38 8241.1 1133.73 8240.81 1133.95 8240.22 1134.18 8239.62 1134.29 8238.73 1134.29 8237.54 1134.29 8236.34 1134.18 8235.45 1133.95 8234.86 1133.73 8234.26 1133.38 8233.97 1132.91 8233.97ZM1106.22 8231.68 1109.57 8231.68 1111.98 8235.2 1114.43 8231.68 1117.58 8231.68 1113.49 8237.36 1117.79 8243.39 1114.42 8243.39 1111.81 8239.58 1109.15 8243.39 1106.02 8243.39 1110.32 8237.42ZM1096.1 8231.68 1105.86 8231.68 1105.86 8234.1 1102.34 8234.1 1102.34 8243.39 1099.62 8243.39 1099.62 8234.1 1096.1 8234.1ZM1086.14 8231.68 1090.39 8231.68C1091.36 8231.68 1092.21 8231.84 1092.93 8232.16 1093.65 8232.48 1094.2 8232.93 1094.58 8233.52 1094.97 8234.11 1095.16 8234.78 1095.16 8235.55 1095.16 8236.29 1094.98 8236.94 1094.63 8237.5 1094.28 8238.07 1093.77 8238.52 1093.11 8238.85L1096.26 8243.39 1093.02 8243.38 1090.42 8239.42 1090.34 8239.42 1088.87 8239.42 1088.87 8243.39 1086.14 8243.39ZM1140.03 8231.67 1146.46 8231.67 1146.46 8233.97 1142.3 8233.97 1142.05 8235.92C1142.43 8235.78 1142.86 8235.71 1143.33 8235.71 1144 8235.71 1144.62 8235.87 1145.18 8236.18 1145.74 8236.5 1146.18 8236.95 1146.52 8237.53 1146.86 8238.11 1147.02 8238.79 1147.02 8239.57 1147.02 8240.4 1146.84 8241.12 1146.46 8241.74 1146.09 8242.35 1145.58 8242.81 1144.94 8243.13 1144.3 8243.44 1143.6 8243.6 1142.83 8243.6 1141.9 8243.6 1141.11 8243.39 1140.45 8242.98 1139.79 8242.56 1139.31 8241.93 1139.02 8241.07L1141.2 8239.79C1141.33 8240.26 1141.53 8240.61 1141.81 8240.84 1142.09 8241.07 1142.41 8241.18 1142.78 8241.18 1143.22 8241.18 1143.55 8241.04 1143.78 8240.74 1144.01 8240.45 1144.13 8240.09 1144.13 8239.65 1144.13 8239.19 1144.01 8238.81 1143.76 8238.52 1143.51 8238.23 1143.16 8238.08 1142.69 8238.08 1142.07 8238.08 1141.59 8238.39 1141.25 8239.01L1139.25 8238.05ZM1152.91 8231.46C1154.28 8231.46 1155.33 8231.97 1156.07 8233.01 1156.81 8234.04 1157.18 8235.55 1157.18 8237.54 1157.18 8239.51 1156.81 8241.01 1156.07 8242.05 1155.33 8243.08 1154.28 8243.6 1152.91 8243.6 1151.55 8243.6 1150.49 8243.09 1149.74 8242.06 1148.98 8241.03 1148.61 8239.52 1148.61 8237.54 1148.61 8235.55 1148.98 8234.04 1149.74 8233.01 1150.49 8231.97 1151.55 8231.46 1152.91 8231.46ZM1132.91 8231.46C1134.28 8231.46 1135.33 8231.97 1136.07 8233.01 1136.81 8234.04 1137.18 8235.55 1137.18 8237.54 1137.18 8239.51 1136.81 8241.01 1136.07 8242.05 1135.33 8243.08 1134.28 8243.6 1132.91 8243.6 1131.55 8243.6 1130.49 8243.09 1129.74 8242.06 1128.98 8241.03 1128.61 8239.52 1128.61 8237.54 1128.61 8235.55 1128.98 8234.04 1129.74 8233.01 1130.49 8231.97 1131.55 8231.46 1132.91 8231.46ZM1122.74 8231.44C1123.49 8231.44 1124.17 8231.58 1124.76 8231.86 1125.35 8232.13 1125.81 8232.52 1126.14 8233.02 1126.46 8233.53 1126.62 8234.1 1126.62 8234.75 1126.62 8235.35 1126.49 8235.87 1126.21 8236.31 1125.93 8236.75 1125.53 8237.1 1125.01 8237.34 1125.64 8237.59 1126.12 8237.95 1126.46 8238.42 1126.81 8238.89 1126.98 8239.46 1126.98 8240.14 1126.98 8240.87 1126.79 8241.49 1126.41 8242.02 1126.03 8242.54 1125.51 8242.93 1124.86 8243.2 1124.21 8243.47 1123.49 8243.6 1122.69 8243.6 1121.66 8243.6 1120.79 8243.37 1120.07 8242.9 1119.35 8242.44 1118.84 8241.76 1118.53 8240.86L1120.67 8239.62C1120.82 8240.13 1121.07 8240.52 1121.42 8240.78 1121.78 8241.05 1122.17 8241.18 1122.61 8241.18 1123.03 8241.18 1123.39 8241.07 1123.67 8240.84 1123.95 8240.61 1124.1 8240.29 1124.1 8239.89 1124.1 8238.98 1123.34 8238.53 1121.82 8238.53L1121.42 8238.53 1121.42 8236.32 1122.08 8236.32C1122.59 8236.32 1122.99 8236.2 1123.29 8235.94 1123.58 8235.69 1123.73 8235.38 1123.73 8235.01 1123.73 8234.67 1123.61 8234.39 1123.38 8234.18 1123.14 8233.98 1122.84 8233.87 1122.48 8233.87 1122.07 8233.87 1121.72 8234.01 1121.41 8234.29 1121.1 8234.57 1120.87 8234.96 1120.72 8235.46L1118.67 8234.27C1118.95 8233.36 1119.45 8232.65 1120.17 8232.17 1120.89 8231.68 1121.74 8231.44 1122.74 8231.44Z" stroke="#000000" stroke-linejoin="round" stroke-miterlimit="10" stroke-opacity="0.54902" fill="#FFFFFF" fill-rule="evenodd"/><text fill="#000000" fill-opacity="0" font-family="Arial,Arial_MSFontService,sans-serif" font-size="12.1602" x="1086.14" y="8242.08">RTX3050</text></g></g></svg>