<svg width="1378" height="1556" xmlns="http://www.w3.org/2000/svg" xmlns:xlink="http://www.w3.org/1999/xlink" xml:space="preserve" overflow="hidden"><defs><clipPath id="clip0"><rect x="455" y="7054" width="1378" height="1556"/></clipPath></defs><g clip-path="url(#clip0)" transform="translate(-455 -7054)"><g><path d="M1076 8207C1049.33 8210 1022.67 8213 996 8216" stroke="#BFD100" stroke-width="4.125" stroke-linecap="round" stroke-linejoin="round" stroke-miterlimit="10" stroke-dasharray="0 8.25" fill="none"/></g><g><path d="M1079.95 8205.84C1079.95 8208.05 1078.16 8209.84 1075.95 8209.84 1073.74 8209.84 1071.95 8208.05 1071.95 8205.84 1071.95 8203.63 1073.74 8201.84 1075.95 8201.84 1078.16 8201.84 1079.95 8203.63 1079.95 8205.84Z" stroke="#D2D600" stroke-width="3.4375" stroke-linejoin="round" stroke-miterlimit="10" fill="#D2D600"/><path d="M999.946 8214.84C999.946 8217.05 998.155 8218.84 995.946 8218.84 993.737 8218.84 991.947 8217.05 991.947 8214.84 991.947 8212.63 993.737 8210.84 995.946 8210.84 998.155 8210.84 999.946 8212.63 999.946 8214.84Z" stroke="#D2D600" stroke-width="3.4375" stroke-linejoin="round" stroke-miterlimit="10" fill="#D2D600"/></g><g><path d="M1170.72 8204.74 1173.33 8204.74 1173.33 8213.01 1170.72 8213.01ZM1090.66 8203.6 1090.66 8206.75 1091.86 8206.75C1092.47 8206.75 1092.99 8206.63 1093.42 8206.39 1093.86 8206.15 1094.07 8205.75 1094.07 8205.17 1094.07 8204.12 1093.34 8203.6 1091.86 8203.6ZM1154.7 8203.59C1154.22 8203.59 1153.87 8203.87 1153.64 8204.45 1153.41 8205.03 1153.3 8205.93 1153.3 8207.15 1153.3 8208.36 1153.41 8209.25 1153.64 8209.84 1153.87 8210.43 1154.22 8210.72 1154.7 8210.72 1155.17 8210.72 1155.52 8210.43 1155.74 8209.83 1155.97 8209.24 1156.08 8208.35 1156.08 8207.15 1156.08 8205.96 1155.97 8205.07 1155.74 8204.47 1155.52 8203.88 1155.17 8203.59 1154.7 8203.59ZM1134.7 8203.59C1134.22 8203.59 1133.87 8203.87 1133.64 8204.45 1133.41 8205.03 1133.3 8205.93 1133.3 8207.15 1133.3 8208.36 1133.41 8209.25 1133.64 8209.84 1133.87 8210.43 1134.22 8210.72 1134.7 8210.72 1135.17 8210.72 1135.52 8210.43 1135.74 8209.83 1135.97 8209.24 1136.08 8208.35 1136.08 8207.15 1136.08 8205.96 1135.97 8205.07 1135.74 8204.47 1135.52 8203.88 1135.17 8203.59 1134.7 8203.59ZM1159.89 8201.3 1169.65 8201.3 1169.65 8203.71 1166.13 8203.71 1166.13 8213.01 1163.41 8213.01 1163.41 8203.71 1159.89 8203.71ZM1108.02 8201.3 1111.36 8201.3 1113.78 8204.82 1116.22 8201.3 1119.38 8201.3 1115.28 8206.98 1119.58 8213.01 1116.21 8213.01 1113.6 8209.2 1110.94 8213.01 1107.81 8213.01 1112.11 8207.04ZM1097.89 8201.3 1107.65 8201.3 1107.65 8203.71 1104.13 8203.71 1104.13 8213.01 1101.41 8213.01 1101.41 8203.71 1097.89 8203.71ZM1087.93 8201.3 1092.18 8201.3C1093.16 8201.3 1094 8201.46 1094.72 8201.78 1095.44 8202.1 1095.99 8202.55 1096.38 8203.14 1096.76 8203.72 1096.95 8204.4 1096.95 8205.17 1096.95 8205.91 1096.78 8206.56 1096.42 8207.12 1096.07 8207.69 1095.57 8208.13 1094.9 8208.47L1098.06 8213.01 1094.81 8212.99 1092.22 8209.04 1092.14 8209.04 1090.66 8209.04 1090.66 8213.01 1087.93 8213.01ZM1141.82 8201.28 1148.26 8201.28 1148.26 8203.59 1144.1 8203.59 1143.84 8205.54C1144.22 8205.4 1144.65 8205.33 1145.12 8205.33 1145.79 8205.33 1146.41 8205.49 1146.97 8205.8 1147.53 8206.12 1147.98 8206.56 1148.31 8207.15 1148.65 8207.73 1148.82 8208.41 1148.82 8209.19 1148.82 8210.02 1148.63 8210.74 1148.26 8211.35 1147.88 8211.97 1147.38 8212.43 1146.74 8212.75 1146.1 8213.06 1145.39 8213.22 1144.62 8213.22 1143.7 8213.22 1142.9 8213.01 1142.24 8212.59 1141.58 8212.18 1141.1 8211.54 1140.82 8210.69L1142.99 8209.41C1143.12 8209.88 1143.32 8210.23 1143.6 8210.46 1143.88 8210.69 1144.2 8210.8 1144.58 8210.8 1145.01 8210.8 1145.35 8210.66 1145.58 8210.36 1145.81 8210.07 1145.92 8209.7 1145.92 8209.27 1145.92 8208.81 1145.8 8208.43 1145.55 8208.14 1145.31 8207.84 1144.95 8207.7 1144.48 8207.7 1143.86 8207.7 1143.38 8208.01 1143.04 8208.63L1141.04 8207.67ZM1154.7 8201.07C1156.07 8201.07 1157.12 8201.59 1157.86 8202.63 1158.61 8203.66 1158.98 8205.17 1158.98 8207.15 1158.98 8209.13 1158.61 8210.63 1157.86 8211.67 1157.12 8212.7 1156.07 8213.22 1154.7 8213.22 1153.34 8213.22 1152.28 8212.7 1151.53 8211.67 1150.78 8210.64 1150.4 8209.14 1150.4 8207.15 1150.4 8205.17 1150.78 8203.66 1151.53 8202.63 1152.28 8201.59 1153.34 8201.07 1154.7 8201.07ZM1134.7 8201.07C1136.07 8201.07 1137.12 8201.59 1137.86 8202.63 1138.61 8203.66 1138.98 8205.17 1138.98 8207.15 1138.98 8209.13 1138.61 8210.63 1137.86 8211.67 1137.12 8212.7 1136.07 8213.22 1134.7 8213.22 1133.34 8213.22 1132.28 8212.7 1131.53 8211.67 1130.78 8210.64 1130.4 8209.14 1130.4 8207.15 1130.4 8205.17 1130.78 8203.66 1131.53 8202.63 1132.28 8201.59 1133.34 8201.07 1134.7 8201.07ZM1124.53 8201.06C1125.29 8201.06 1125.96 8201.2 1126.55 8201.47 1127.14 8201.75 1127.6 8202.14 1127.93 8202.64 1128.25 8203.14 1128.42 8203.72 1128.42 8204.37 1128.42 8204.97 1128.28 8205.49 1128 8205.93 1127.72 8206.37 1127.32 8206.72 1126.8 8206.96 1127.43 8207.21 1127.92 8207.56 1128.26 8208.03 1128.6 8208.5 1128.77 8209.08 1128.77 8209.76 1128.77 8210.49 1128.58 8211.11 1128.2 8211.63 1127.82 8212.16 1127.31 8212.55 1126.66 8212.82 1126.01 8213.08 1125.28 8213.22 1124.48 8213.22 1123.46 8213.22 1122.58 8212.99 1121.86 8212.52 1121.14 8212.06 1120.63 8211.38 1120.32 8210.48L1122.46 8209.23C1122.61 8209.75 1122.86 8210.13 1123.22 8210.4 1123.57 8210.67 1123.96 8210.8 1124.4 8210.8 1124.83 8210.8 1125.18 8210.69 1125.46 8210.46 1125.75 8210.23 1125.89 8209.91 1125.89 8209.51 1125.89 8208.6 1125.13 8208.15 1123.62 8208.15L1123.22 8208.15 1123.22 8205.94 1123.87 8205.94C1124.38 8205.94 1124.79 8205.81 1125.08 8205.56 1125.37 8205.31 1125.52 8205 1125.52 8204.63 1125.52 8204.28 1125.4 8204.01 1125.17 8203.8 1124.93 8203.59 1124.64 8203.49 1124.27 8203.49 1123.87 8203.49 1123.51 8203.63 1123.2 8203.91 1122.89 8204.18 1122.66 8204.57 1122.51 8205.07L1120.46 8203.89C1120.74 8202.97 1121.24 8202.27 1121.96 8201.79 1122.68 8201.3 1123.54 8201.06 1124.53 8201.06ZM1172.02 8200.77C1172.42 8200.77 1172.78 8200.92 1173.08 8201.23 1173.38 8201.54 1173.54 8201.91 1173.54 8202.32 1173.54 8202.74 1173.39 8203.1 1173.09 8203.4 1172.79 8203.71 1172.43 8203.86 1172.02 8203.86 1171.6 8203.86 1171.24 8203.71 1170.94 8203.4 1170.65 8203.1 1170.5 8202.74 1170.5 8202.32 1170.5 8201.9 1170.64 8201.53 1170.94 8201.23 1171.23 8200.92 1171.59 8200.77 1172.02 8200.77Z" stroke="#000000" stroke-linejoin="round" stroke-miterlimit="10" stroke-opacity="0.54902" fill="#FFFFFF" fill-rule="evenodd"/><text fill="#000000" fill-opacity="0" font-family="Arial,Arial_MSFontService,sans-serif" font-size="12.4482" x="1087.93" y="8211.66">RTX3050Ti</text></g></g></svg>