<svg width="1378" height="1556" xmlns="http://www.w3.org/2000/svg" xmlns:xlink="http://www.w3.org/1999/xlink" xml:space="preserve" overflow="hidden"><defs><clipPath id="clip0"><rect x="455" y="7054" width="1378" height="1556"/></clipPath></defs><g clip-path="url(#clip0)" transform="translate(-455 -7054)"><g><path d="M1371 7921 1317.04 7934.26 1264.04 7951.26 1210.04 7969.26 1183.04 7979.26 1130.04 8000.26 1103.04 8012.26 1076.04 8026.26 1050.03 8042.26 1023.03 8057.26 996 8082" stroke="#63A52A" stroke-width="4.125" stroke-linecap="round" stroke-linejoin="round" stroke-miterlimit="10" fill="none"/></g><g><path d="M1463.55 7918.89 1466.16 7918.89 1466.16 7927.16 1463.55 7927.16ZM1383.5 7917.75 1383.5 7920.9 1384.7 7920.9C1385.3 7920.9 1385.82 7920.78 1386.26 7920.54 1386.69 7920.3 1386.9 7919.89 1386.9 7919.32 1386.9 7918.27 1386.17 7917.75 1384.7 7917.75ZM1447.54 7917.73C1447.06 7917.73 1446.7 7918.02 1446.47 7918.6 1446.24 7919.17 1446.13 7920.07 1446.13 7921.3 1446.13 7922.51 1446.24 7923.4 1446.47 7923.99 1446.7 7924.58 1447.06 7924.87 1447.54 7924.87 1448.01 7924.87 1448.35 7924.57 1448.58 7923.98 1448.8 7923.39 1448.91 7922.5 1448.91 7921.3 1448.91 7920.11 1448.8 7919.21 1448.58 7918.62 1448.35 7918.03 1448.01 7917.73 1447.54 7917.73ZM1427.54 7917.73C1427.06 7917.73 1426.7 7918.02 1426.47 7918.6 1426.24 7919.17 1426.13 7920.07 1426.13 7921.3 1426.13 7922.51 1426.24 7923.4 1426.47 7923.99 1426.7 7924.58 1427.06 7924.87 1427.54 7924.87 1428.01 7924.87 1428.35 7924.57 1428.58 7923.98 1428.8 7923.39 1428.91 7922.5 1428.91 7921.3 1428.91 7920.11 1428.8 7919.21 1428.58 7918.62 1428.35 7918.03 1428.01 7917.73 1427.54 7917.73ZM1452.72 7915.45 1462.48 7915.45 1462.48 7917.86 1458.96 7917.86 1458.96 7927.16 1456.24 7927.16 1456.24 7917.86 1452.72 7917.86ZM1400.85 7915.45 1404.19 7915.45 1406.61 7918.97 1409.06 7915.45 1412.21 7915.45 1408.11 7921.12 1412.42 7927.16 1409.04 7927.16 1406.43 7923.35 1403.78 7927.16 1400.64 7927.16 1404.94 7921.19ZM1390.72 7915.45 1400.48 7915.45 1400.48 7917.86 1396.96 7917.86 1396.96 7927.16 1394.24 7927.16 1394.24 7917.86 1390.72 7917.86ZM1380.76 7915.45 1385.02 7915.45C1385.99 7915.45 1386.83 7915.61 1387.55 7915.93 1388.27 7916.25 1388.82 7916.7 1389.21 7917.29 1389.59 7917.87 1389.78 7918.55 1389.78 7919.32 1389.78 7920.05 1389.61 7920.7 1389.26 7921.27 1388.9 7921.83 1388.4 7922.28 1387.74 7922.61L1390.89 7927.16 1387.64 7927.14 1385.05 7923.19 1384.97 7923.19 1383.5 7923.19 1383.5 7927.16 1380.76 7927.16ZM1433.46 7915.43 1441.57 7915.43 1441.57 7917.14 1437.66 7927.16 1434.7 7927.16 1438.51 7917.81 1433.46 7917.81ZM1447.54 7915.22C1448.9 7915.22 1449.95 7915.74 1450.7 7916.77 1451.44 7917.81 1451.81 7919.32 1451.81 7921.3 1451.81 7923.27 1451.44 7924.78 1450.7 7925.81 1449.95 7926.85 1448.9 7927.37 1447.54 7927.37 1446.17 7927.37 1445.11 7926.85 1444.36 7925.82 1443.61 7924.79 1443.23 7923.29 1443.23 7921.3 1443.23 7919.32 1443.61 7917.81 1444.36 7916.77 1445.11 7915.74 1446.17 7915.22 1447.54 7915.22ZM1427.54 7915.22C1428.9 7915.22 1429.95 7915.74 1430.7 7916.77 1431.44 7917.81 1431.81 7919.32 1431.81 7921.3 1431.81 7923.27 1431.44 7924.78 1430.7 7925.81 1429.95 7926.85 1428.9 7927.37 1427.54 7927.37 1426.17 7927.37 1425.11 7926.85 1424.36 7925.82 1423.61 7924.79 1423.23 7923.29 1423.23 7921.3 1423.23 7919.32 1423.61 7917.81 1424.36 7916.77 1425.11 7915.74 1426.17 7915.22 1427.54 7915.22ZM1417.36 7915.21C1418.12 7915.21 1418.79 7915.34 1419.38 7915.62 1419.98 7915.9 1420.43 7916.29 1420.76 7916.79 1421.09 7917.29 1421.25 7917.87 1421.25 7918.52 1421.25 7919.11 1421.11 7919.63 1420.83 7920.08 1420.55 7920.52 1420.15 7920.86 1419.63 7921.11 1420.26 7921.35 1420.75 7921.71 1421.09 7922.18 1421.43 7922.65 1421.6 7923.23 1421.6 7923.91 1421.6 7924.63 1421.41 7925.26 1421.03 7925.78 1420.65 7926.3 1420.14 7926.7 1419.49 7926.97 1418.84 7927.23 1418.11 7927.37 1417.31 7927.37 1416.29 7927.37 1415.42 7927.13 1414.7 7926.67 1413.98 7926.21 1413.46 7925.53 1413.15 7924.63L1415.3 7923.38C1415.45 7923.89 1415.7 7924.28 1416.05 7924.55 1416.4 7924.82 1416.79 7924.95 1417.23 7924.95 1417.66 7924.95 1418.01 7924.83 1418.3 7924.61 1418.58 7924.38 1418.72 7924.06 1418.72 7923.65 1418.72 7922.75 1417.96 7922.29 1416.45 7922.29L1416.05 7922.29 1416.05 7920.09 1416.7 7920.09C1417.22 7920.09 1417.62 7919.96 1417.91 7919.71 1418.21 7919.46 1418.35 7919.15 1418.35 7918.77 1418.35 7918.43 1418.23 7918.16 1418 7917.95 1417.77 7917.74 1417.47 7917.64 1417.1 7917.64 1416.7 7917.64 1416.34 7917.78 1416.03 7918.05 1415.72 7918.33 1415.49 7918.72 1415.34 7919.22L1413.3 7918.04C1413.57 7917.12 1414.07 7916.42 1414.79 7915.93 1415.51 7915.45 1416.37 7915.21 1417.36 7915.21ZM1464.85 7914.92C1465.25 7914.92 1465.61 7915.07 1465.91 7915.38 1466.22 7915.69 1466.37 7916.05 1466.37 7916.47 1466.37 7916.89 1466.22 7917.25 1465.92 7917.55 1465.62 7917.85 1465.26 7918.01 1464.85 7918.01 1464.43 7918.01 1464.07 7917.85 1463.78 7917.55 1463.48 7917.25 1463.33 7916.89 1463.33 7916.47 1463.33 7916.04 1463.47 7915.68 1463.77 7915.37 1464.06 7915.07 1464.42 7914.92 1464.85 7914.92Z" stroke="#000000" stroke-linejoin="round" stroke-miterlimit="10" stroke-opacity="0.54902" fill="#FFFFFF" fill-rule="evenodd"/><text fill="#000000" fill-opacity="0" font-family="Arial,Arial_MSFontService,sans-serif" font-size="12.4482" x="1380.76" y="7925.81">RTX3070Ti</text></g></g></svg>