<svg width="1378" height="1556" xmlns="http://www.w3.org/2000/svg" xmlns:xlink="http://www.w3.org/1999/xlink" xml:space="preserve" overflow="hidden"><defs><clipPath id="clip0"><rect x="455" y="7054" width="1378" height="1556"/></clipPath></defs><g clip-path="url(#clip0)" transform="translate(-455 -7054)"><g><path d="M1317 8058 1264.04 8067.26 1237.04 8071.27 1210.04 8078.27 1183.04 8083.27 1157.04 8089.27 1130.04 8094.27 1103.04 8100.27 1076.04 8109.27 1050.03 8118.27 1023.03 8129.27 996.033 8148.27 969.032 8158.27 942.031 8170.27 916.03 8186.27 889 8205" stroke="#ACCB00" stroke-width="4.125" stroke-linecap="round" stroke-linejoin="round" stroke-miterlimit="10" fill="none"/></g><g><path d="M1384.02 8059.53C1383.59 8059.53 1383.24 8059.67 1382.98 8059.95 1382.71 8060.23 1382.58 8060.6 1382.58 8061.05 1382.58 8061.5 1382.71 8061.86 1382.98 8062.15 1383.26 8062.44 1383.6 8062.58 1384.02 8062.58 1384.43 8062.58 1384.77 8062.44 1385.04 8062.15 1385.31 8061.86 1385.44 8061.49 1385.44 8061.03 1385.44 8060.58 1385.31 8060.22 1385.04 8059.94 1384.77 8059.67 1384.43 8059.53 1384.02 8059.53ZM1329.93 8055.4 1329.93 8058.55 1331.13 8058.55C1331.74 8058.55 1332.26 8058.43 1332.69 8058.19 1333.12 8057.95 1333.34 8057.54 1333.34 8056.97 1333.34 8055.92 1332.6 8055.4 1331.13 8055.4ZM1393.97 8055.38C1393.49 8055.38 1393.13 8055.67 1392.9 8056.25 1392.67 8056.82 1392.56 8057.73 1392.56 8058.95 1392.56 8060.16 1392.67 8061.05 1392.9 8061.64 1393.13 8062.23 1393.49 8062.52 1393.97 8062.52 1394.44 8062.52 1394.78 8062.22 1395.01 8061.63 1395.23 8061.04 1395.34 8060.15 1395.34 8058.95 1395.34 8057.76 1395.23 8056.86 1395.01 8056.27 1394.78 8055.68 1394.44 8055.38 1393.97 8055.38ZM1373.97 8055.38C1373.49 8055.38 1373.13 8055.67 1372.9 8056.25 1372.67 8056.82 1372.56 8057.73 1372.56 8058.95 1372.56 8060.16 1372.67 8061.05 1372.9 8061.64 1373.13 8062.23 1373.49 8062.52 1373.97 8062.52 1374.44 8062.52 1374.78 8062.22 1375.01 8061.63 1375.23 8061.04 1375.34 8060.15 1375.34 8058.95 1375.34 8057.76 1375.23 8056.86 1375.01 8056.27 1374.78 8055.68 1374.44 8055.38 1373.97 8055.38ZM1347.28 8053.1 1350.62 8053.1 1353.04 8056.62 1355.49 8053.1 1358.64 8053.1 1354.54 8058.78 1358.85 8064.81 1355.47 8064.81 1352.86 8061 1350.21 8064.81 1347.07 8064.81 1351.38 8058.84ZM1337.15 8053.1 1346.91 8053.1 1346.91 8055.51 1343.39 8055.51 1343.39 8064.81 1340.67 8064.81 1340.67 8055.51 1337.15 8055.51ZM1327.19 8053.1 1331.45 8053.1C1332.42 8053.1 1333.26 8053.26 1333.98 8053.58 1334.7 8053.9 1335.26 8054.35 1335.64 8054.94 1336.02 8055.52 1336.22 8056.2 1336.22 8056.97 1336.22 8057.7 1336.04 8058.35 1335.69 8058.92 1335.34 8059.49 1334.83 8059.93 1334.17 8060.26L1337.32 8064.81 1334.07 8064.79 1331.48 8060.84 1331.4 8060.84 1329.93 8060.84 1329.93 8064.81 1327.19 8064.81ZM1383.74 8053.08 1386.67 8053.08 1384.46 8056.42C1384.1 8056.94 1383.88 8057.25 1383.79 8057.35 1384.06 8057.3 1384.31 8057.27 1384.54 8057.27 1385.29 8057.27 1385.95 8057.43 1386.52 8057.74 1387.09 8058.05 1387.54 8058.48 1387.86 8059.05 1388.18 8059.61 1388.34 8060.27 1388.34 8061.03 1388.34 8061.8 1388.14 8062.49 1387.75 8063.1 1387.36 8063.7 1386.84 8064.18 1386.18 8064.51 1385.51 8064.85 1384.8 8065.02 1384.03 8065.02 1383.25 8065.02 1382.54 8064.85 1381.88 8064.5 1381.22 8064.16 1380.7 8063.68 1380.32 8063.05 1379.94 8062.42 1379.74 8061.69 1379.74 8060.87 1379.74 8060.25 1379.86 8059.66 1380.09 8059.1 1380.32 8058.53 1380.74 8057.77 1381.36 8056.81ZM1393.97 8052.87C1395.33 8052.87 1396.39 8053.39 1397.13 8054.42 1397.87 8055.46 1398.24 8056.97 1398.24 8058.95 1398.24 8060.93 1397.87 8062.43 1397.13 8063.46 1396.39 8064.5 1395.33 8065.02 1393.97 8065.02 1392.6 8065.02 1391.54 8064.5 1390.79 8063.47 1390.04 8062.44 1389.66 8060.94 1389.66 8058.95 1389.66 8056.97 1390.04 8055.46 1390.79 8054.42 1391.54 8053.39 1392.6 8052.87 1393.97 8052.87ZM1373.97 8052.87C1375.33 8052.87 1376.39 8053.39 1377.13 8054.42 1377.87 8055.46 1378.24 8056.97 1378.24 8058.95 1378.24 8060.93 1377.87 8062.43 1377.13 8063.46 1376.39 8064.5 1375.33 8065.02 1373.97 8065.02 1372.6 8065.02 1371.54 8064.5 1370.79 8063.47 1370.04 8062.44 1369.66 8060.94 1369.66 8058.95 1369.66 8056.97 1370.04 8055.46 1370.79 8054.42 1371.54 8053.39 1372.6 8052.87 1373.97 8052.87ZM1363.79 8052.86C1364.55 8052.86 1365.22 8052.99 1365.82 8053.27 1366.41 8053.55 1366.87 8053.94 1367.19 8054.44 1367.52 8054.94 1367.68 8055.52 1367.68 8056.17 1367.68 8056.77 1367.54 8057.29 1367.26 8057.73 1366.99 8058.17 1366.59 8058.51 1366.06 8058.76 1366.69 8059.01 1367.18 8059.36 1367.52 8059.83 1367.86 8060.3 1368.03 8060.88 1368.03 8061.56 1368.03 8062.29 1367.84 8062.91 1367.46 8063.43 1367.08 8063.95 1366.57 8064.35 1365.92 8064.62 1365.27 8064.88 1364.54 8065.02 1363.74 8065.02 1362.72 8065.02 1361.85 8064.78 1361.13 8064.32 1360.41 8063.86 1359.89 8063.18 1359.58 8062.28L1361.73 8061.03C1361.88 8061.54 1362.13 8061.93 1362.48 8062.2 1362.83 8062.47 1363.23 8062.6 1363.66 8062.6 1364.09 8062.6 1364.44 8062.49 1364.73 8062.26 1365.01 8062.03 1365.15 8061.71 1365.15 8061.3 1365.15 8060.4 1364.39 8059.94 1362.88 8059.94L1362.48 8059.94 1362.48 8057.74 1363.14 8057.74C1363.65 8057.74 1364.05 8057.61 1364.34 8057.36 1364.64 8057.11 1364.78 8056.8 1364.78 8056.42 1364.78 8056.08 1364.67 8055.81 1364.43 8055.6 1364.2 8055.39 1363.9 8055.29 1363.54 8055.29 1363.13 8055.29 1362.77 8055.43 1362.46 8055.7 1362.15 8055.98 1361.93 8056.37 1361.78 8056.87L1359.73 8055.69C1360.01 8054.77 1360.5 8054.07 1361.22 8053.58 1361.94 8053.1 1362.8 8052.86 1363.79 8052.86Z" stroke="#000000" stroke-linejoin="round" stroke-miterlimit="10" stroke-opacity="0.54902" fill="#FFFFFF" fill-rule="evenodd"/><text fill="#000000" fill-opacity="0" font-family="Arial,Arial_MSFontService,sans-serif" font-size="12.1602" x="1327.19" y="8063.5">RTX3060</text></g></g></svg>