<svg width="1378" height="1556" xmlns="http://www.w3.org/2000/svg" xmlns:xlink="http://www.w3.org/1999/xlink" xml:space="preserve" overflow="hidden"><defs><clipPath id="clip0"><rect x="455" y="7054" width="1378" height="1556"/></clipPath></defs><g clip-path="url(#clip0)" transform="translate(-455 -7054)"><g><path d="M1371 7945 1317.04 7956.26 1264.04 7968.26 1210.04 7982.26 1183.04 7994.26 1103.04 8023.26 1050.03 8048.26 996 8077" stroke="#87B805" stroke-width="4.125" stroke-linecap="round" stroke-linejoin="round" stroke-miterlimit="10" fill="none"/></g><g><path d="M1383.5 7941.64 1383.5 7944.79 1384.7 7944.79C1385.3 7944.79 1385.82 7944.67 1386.26 7944.43 1386.69 7944.19 1386.9 7943.78 1386.9 7943.2 1386.9 7942.16 1386.17 7941.64 1384.7 7941.64ZM1447.54 7941.62C1447.06 7941.62 1446.7 7941.91 1446.47 7942.48 1446.24 7943.06 1446.13 7943.96 1446.13 7945.19 1446.13 7946.39 1446.24 7947.29 1446.47 7947.88 1446.7 7948.46 1447.06 7948.76 1447.54 7948.76 1448.01 7948.76 1448.35 7948.46 1448.58 7947.87 1448.8 7947.28 1448.91 7946.38 1448.91 7945.19 1448.91 7943.99 1448.8 7943.1 1448.58 7942.51 1448.35 7941.92 1448.01 7941.62 1447.54 7941.62ZM1427.54 7941.62C1427.06 7941.62 1426.7 7941.91 1426.47 7942.48 1426.24 7943.06 1426.13 7943.96 1426.13 7945.19 1426.13 7946.39 1426.24 7947.29 1426.47 7947.88 1426.7 7948.46 1427.06 7948.76 1427.54 7948.76 1428.01 7948.76 1428.35 7948.46 1428.58 7947.87 1428.8 7947.28 1428.91 7946.38 1428.91 7945.19 1428.91 7943.99 1428.8 7943.1 1428.58 7942.51 1428.35 7941.92 1428.01 7941.62 1427.54 7941.62ZM1400.85 7939.33 1404.19 7939.33 1406.61 7942.85 1409.06 7939.33 1412.21 7939.33 1408.11 7945.01 1412.42 7951.04 1409.04 7951.04 1406.43 7947.24 1403.78 7951.04 1400.64 7951.04 1404.94 7945.08ZM1390.72 7939.33 1400.48 7939.33 1400.48 7941.75 1396.96 7941.75 1396.96 7951.04 1394.24 7951.04 1394.24 7941.75 1390.72 7941.75ZM1380.76 7939.33 1385.02 7939.33C1385.99 7939.33 1386.83 7939.49 1387.55 7939.81 1388.27 7940.13 1388.82 7940.58 1389.21 7941.17 1389.59 7941.76 1389.78 7942.44 1389.78 7943.2 1389.78 7943.94 1389.61 7944.59 1389.26 7945.16 1388.9 7945.72 1388.4 7946.17 1387.74 7946.5L1390.89 7951.04 1387.64 7951.03 1385.05 7947.08 1384.97 7947.08 1383.5 7947.08 1383.5 7951.04 1380.76 7951.04ZM1433.46 7939.32 1441.57 7939.32 1441.57 7941.03 1437.66 7951.04 1434.7 7951.04 1438.51 7941.7 1433.46 7941.7ZM1447.54 7939.11C1448.9 7939.11 1449.95 7939.62 1450.7 7940.66 1451.44 7941.69 1451.81 7943.2 1451.81 7945.19 1451.81 7947.16 1451.44 7948.66 1450.7 7949.7 1449.95 7950.73 1448.9 7951.25 1447.54 7951.25 1446.17 7951.25 1445.11 7950.74 1444.36 7949.71 1443.61 7948.68 1443.23 7947.17 1443.23 7945.19 1443.23 7943.2 1443.61 7941.69 1444.36 7940.66 1445.11 7939.62 1446.17 7939.11 1447.54 7939.11ZM1427.54 7939.11C1428.9 7939.11 1429.95 7939.62 1430.7 7940.66 1431.44 7941.69 1431.81 7943.2 1431.81 7945.19 1431.81 7947.16 1431.44 7948.66 1430.7 7949.7 1429.95 7950.73 1428.9 7951.25 1427.54 7951.25 1426.17 7951.25 1425.11 7950.74 1424.36 7949.71 1423.61 7948.68 1423.23 7947.17 1423.23 7945.19 1423.23 7943.2 1423.61 7941.69 1424.36 7940.66 1425.11 7939.62 1426.17 7939.11 1427.54 7939.11ZM1417.36 7939.09C1418.12 7939.09 1418.79 7939.23 1419.38 7939.51 1419.98 7939.78 1420.43 7940.17 1420.76 7940.68 1421.08 7941.18 1421.25 7941.75 1421.25 7942.4 1421.25 7943 1421.11 7943.52 1420.83 7943.96 1420.55 7944.41 1420.15 7944.75 1419.63 7945 1420.26 7945.24 1420.75 7945.6 1421.09 7946.07 1421.43 7946.54 1421.6 7947.11 1421.6 7947.8 1421.6 7948.52 1421.41 7949.15 1421.03 7949.67 1420.65 7950.19 1420.14 7950.58 1419.49 7950.85 1418.84 7951.12 1418.11 7951.25 1417.31 7951.25 1416.29 7951.25 1415.42 7951.02 1414.7 7950.56 1413.98 7950.09 1413.46 7949.41 1413.15 7948.52L1415.3 7947.27C1415.44 7947.78 1415.7 7948.17 1416.05 7948.44 1416.4 7948.7 1416.79 7948.84 1417.23 7948.84 1417.66 7948.84 1418.01 7948.72 1418.3 7948.49 1418.58 7948.26 1418.72 7947.94 1418.72 7947.54 1418.72 7946.63 1417.96 7946.18 1416.45 7946.18L1416.05 7946.18 1416.05 7943.97 1416.7 7943.97C1417.22 7943.97 1417.62 7943.85 1417.91 7943.6 1418.2 7943.34 1418.35 7943.03 1418.35 7942.66 1418.35 7942.32 1418.23 7942.04 1418 7941.84 1417.77 7941.63 1417.47 7941.52 1417.1 7941.52 1416.7 7941.52 1416.34 7941.66 1416.03 7941.94 1415.72 7942.22 1415.49 7942.61 1415.34 7943.11L1413.3 7941.92C1413.57 7941.01 1414.07 7940.3 1414.79 7939.82 1415.51 7939.33 1416.37 7939.09 1417.36 7939.09Z" stroke="#000000" stroke-linejoin="round" stroke-miterlimit="10" stroke-opacity="0.54902" fill="#FFFFFF" fill-rule="evenodd"/><text fill="#000000" fill-opacity="0" font-family="Arial,Arial_MSFontService,sans-serif" font-size="12.1602" x="1380.76" y="7949.73">RTX3070</text></g></g></svg>