<svg width="1378" height="1556" xmlns="http://www.w3.org/2000/svg" xmlns:xlink="http://www.w3.org/1999/xlink" xml:space="preserve" overflow="hidden"><defs><clipPath id="clip0"><rect x="455" y="7054" width="1378" height="1556"/></clipPath></defs><g clip-path="url(#clip0)" transform="translate(-455 -7054)"><g><path d="M1398 7904 1371.04 7907.26 1317.04 7922.26 1264.04 7935.26 1237.04 7943.26 1210.04 7956.26 1183.04 7965.26 1130.04 7986.26 1103.04 7995.26 1076.04 8006.26 1050.03 8024.26 1023.03 8040.26 996 8061" stroke="#449245" stroke-width="4.125" stroke-linecap="round" stroke-linejoin="round" stroke-miterlimit="10" fill="none"/></g><g><path d="M1464.35 7900.54C1463.91 7900.54 1463.56 7900.68 1463.3 7900.95 1463.03 7901.22 1462.9 7901.58 1462.9 7902.03 1462.9 7902.48 1463.03 7902.83 1463.3 7903.1 1463.58 7903.37 1463.92 7903.5 1464.35 7903.5 1464.76 7903.5 1465.09 7903.37 1465.35 7903.1 1465.61 7902.83 1465.74 7902.48 1465.74 7902.03 1465.74 7901.58 1465.62 7901.22 1465.37 7900.95 1465.12 7900.68 1464.78 7900.54 1464.35 7900.54ZM1410.28 7896.3 1410.28 7899.45 1411.48 7899.45C1412.09 7899.45 1412.61 7899.33 1413.04 7899.09 1413.47 7898.85 1413.69 7898.45 1413.69 7897.87 1413.69 7896.82 1412.95 7896.3 1411.48 7896.3ZM1474.32 7896.29C1473.84 7896.29 1473.48 7896.57 1473.26 7897.15 1473.03 7897.73 1472.91 7898.63 1472.91 7899.85 1472.91 7901.06 1473.03 7901.95 1473.26 7902.54 1473.48 7903.13 1473.84 7903.42 1474.32 7903.42 1474.79 7903.42 1475.14 7903.13 1475.36 7902.53 1475.58 7901.94 1475.7 7901.05 1475.7 7899.85 1475.7 7898.66 1475.58 7897.77 1475.36 7897.17 1475.14 7896.58 1474.79 7896.29 1474.32 7896.29ZM1454.32 7896.29C1453.84 7896.29 1453.48 7896.57 1453.26 7897.15 1453.03 7897.73 1452.91 7898.63 1452.91 7899.85 1452.91 7901.06 1453.03 7901.95 1453.26 7902.54 1453.48 7903.13 1453.84 7903.42 1454.32 7903.42 1454.79 7903.42 1455.14 7903.13 1455.36 7902.53 1455.58 7901.94 1455.7 7901.05 1455.7 7899.85 1455.7 7898.66 1455.58 7897.77 1455.36 7897.17 1455.14 7896.58 1454.79 7896.29 1454.32 7896.29ZM1464.35 7896.01C1464.01 7896.01 1463.74 7896.12 1463.54 7896.33 1463.33 7896.55 1463.23 7896.81 1463.23 7897.13 1463.23 7897.45 1463.33 7897.72 1463.54 7897.93 1463.74 7898.13 1464.01 7898.24 1464.35 7898.24 1464.68 7898.24 1464.95 7898.13 1465.17 7897.93 1465.38 7897.72 1465.49 7897.45 1465.49 7897.13 1465.49 7896.82 1465.38 7896.56 1465.17 7896.34 1464.95 7896.12 1464.68 7896.01 1464.35 7896.01ZM1427.63 7894 1430.98 7894 1433.39 7897.52 1435.84 7894 1438.99 7894 1434.9 7899.68 1439.2 7905.71 1435.82 7905.71 1433.22 7901.9 1430.56 7905.71 1427.42 7905.71 1431.73 7899.74ZM1417.5 7894 1427.26 7894 1427.26 7896.41 1423.74 7896.41 1423.74 7905.71 1421.02 7905.71 1421.02 7896.41 1417.5 7896.41ZM1407.54 7894 1411.8 7894C1412.77 7894 1413.62 7894.16 1414.34 7894.48 1415.06 7894.8 1415.61 7895.25 1415.99 7895.84 1416.38 7896.42 1416.57 7897.1 1416.57 7897.87 1416.57 7898.61 1416.39 7899.26 1416.04 7899.82 1415.69 7900.39 1415.18 7900.83 1414.52 7901.17L1417.67 7905.71 1414.42 7905.69 1411.83 7901.74 1411.75 7901.74 1410.28 7901.74 1410.28 7905.71 1407.54 7905.71ZM1474.32 7893.77C1475.68 7893.77 1476.74 7894.29 1477.48 7895.33 1478.22 7896.36 1478.59 7897.87 1478.59 7899.85 1478.59 7901.83 1478.22 7903.33 1477.48 7904.37 1476.74 7905.4 1475.68 7905.92 1474.32 7905.92 1472.95 7905.92 1471.9 7905.4 1471.14 7904.37 1470.39 7903.34 1470.02 7901.84 1470.02 7899.85 1470.02 7897.87 1470.39 7896.36 1471.14 7895.33 1471.9 7894.29 1472.95 7893.77 1474.32 7893.77ZM1454.32 7893.77C1455.68 7893.77 1456.74 7894.29 1457.48 7895.33 1458.22 7896.36 1458.59 7897.87 1458.59 7899.85 1458.59 7901.83 1458.22 7903.33 1457.48 7904.37 1456.74 7905.4 1455.68 7905.92 1454.32 7905.92 1452.95 7905.92 1451.9 7905.4 1451.14 7904.37 1450.39 7903.34 1450.02 7901.84 1450.02 7899.85 1450.02 7897.87 1450.39 7896.36 1451.14 7895.33 1451.9 7894.29 1452.95 7893.77 1454.32 7893.77ZM1464.35 7893.76C1465.18 7893.76 1465.88 7893.9 1466.46 7894.18 1467.03 7894.46 1467.45 7894.85 1467.74 7895.33 1468.02 7895.82 1468.16 7896.37 1468.16 7896.97 1468.16 7897.51 1468.04 7897.98 1467.79 7898.38 1467.55 7898.79 1467.2 7899.11 1466.75 7899.34 1467.34 7899.63 1467.8 7900.02 1468.13 7900.53 1468.46 7901.03 1468.62 7901.63 1468.62 7902.33 1468.62 7903.04 1468.45 7903.66 1468.1 7904.21 1467.76 7904.75 1467.26 7905.17 1466.62 7905.47 1465.97 7905.77 1465.22 7905.92 1464.35 7905.92 1463.47 7905.92 1462.7 7905.77 1462.04 7905.46 1461.38 7905.16 1460.88 7904.74 1460.53 7904.2 1460.18 7903.66 1460 7903.04 1460 7902.33 1460 7901.63 1460.17 7901.03 1460.5 7900.53 1460.84 7900.02 1461.3 7899.63 1461.89 7899.36 1461.42 7899.11 1461.05 7898.79 1460.79 7898.38 1460.53 7897.98 1460.4 7897.51 1460.4 7896.97 1460.4 7896.39 1460.55 7895.85 1460.86 7895.36 1461.16 7894.87 1461.61 7894.48 1462.21 7894.19 1462.8 7893.9 1463.52 7893.76 1464.35 7893.76ZM1444.14 7893.76C1444.9 7893.76 1445.58 7893.9 1446.17 7894.17 1446.76 7894.45 1447.22 7894.84 1447.54 7895.34 1447.87 7895.84 1448.03 7896.42 1448.03 7897.07 1448.03 7897.67 1447.89 7898.19 1447.62 7898.63 1447.34 7899.07 1446.94 7899.42 1446.42 7899.66 1447.04 7899.91 1447.53 7900.26 1447.87 7900.73 1448.21 7901.2 1448.38 7901.78 1448.38 7902.46 1448.38 7903.19 1448.19 7903.81 1447.82 7904.33 1447.44 7904.86 1446.92 7905.25 1446.27 7905.52 1445.62 7905.78 1444.9 7905.92 1444.1 7905.92 1443.07 7905.92 1442.2 7905.69 1441.48 7905.22 1440.76 7904.76 1440.24 7904.08 1439.94 7903.18L1442.08 7901.93C1442.23 7902.45 1442.48 7902.83 1442.83 7903.1 1443.18 7903.37 1443.58 7903.5 1444.02 7903.5 1444.44 7903.5 1444.8 7903.39 1445.08 7903.16 1445.36 7902.93 1445.5 7902.61 1445.5 7902.21 1445.5 7901.3 1444.75 7900.85 1443.23 7900.85L1442.83 7900.85 1442.83 7898.64 1443.49 7898.64C1444 7898.64 1444.4 7898.51 1444.7 7898.26 1444.99 7898.01 1445.14 7897.7 1445.14 7897.33 1445.14 7896.98 1445.02 7896.71 1444.78 7896.5 1444.55 7896.29 1444.25 7896.19 1443.89 7896.19 1443.48 7896.19 1443.12 7896.33 1442.82 7896.61 1442.51 7896.88 1442.28 7897.27 1442.13 7897.77L1440.08 7896.59C1440.36 7895.67 1440.86 7894.97 1441.58 7894.49 1442.3 7894 1443.15 7893.76 1444.14 7893.76Z" stroke="#000000" stroke-linejoin="round" stroke-miterlimit="10" stroke-opacity="0.54902" fill="#FFFFFF" fill-rule="evenodd"/><text fill="#000000" fill-opacity="0" font-family="Arial,Arial_MSFontService,sans-serif" font-size="12.1602" x="1407.54" y="7904.4">RTX3080</text></g></g></svg>