<svg width="1378" height="1556" xmlns="http://www.w3.org/2000/svg" xmlns:xlink="http://www.w3.org/1999/xlink" xml:space="preserve" overflow="hidden"><defs><clipPath id="clip0"><rect x="455" y="7054" width="1378" height="1556"/></clipPath></defs><g clip-path="url(#clip0)" transform="translate(-455 -7054)"><g><path d="M1076 8072 1023.03 8081.27 969.032 8094.27 916.03 8113.27 889.029 8125.27 862.028 8137.27 835.027 8151.27 808.026 8173.27 755 8220" stroke="#EE1F17" stroke-width="4.125" stroke-linecap="round" stroke-linejoin="round" stroke-miterlimit="10" fill="none"/></g><g><path d="M647.677 8248.88 647.677 8252.03 648.877 8252.03C649.484 8252.03 650.005 8251.91 650.437 8251.67 650.869 8251.43 651.085 8251.03 651.085 8250.45 651.085 8249.4 650.349 8248.88 648.877 8248.88ZM711.716 8248.87C711.237 8248.87 710.882 8249.15 710.653 8249.73 710.423 8250.31 710.308 8251.21 710.308 8252.43 710.308 8253.64 710.423 8254.54 710.653 8255.12 710.882 8255.71 711.237 8256 711.716 8256 712.186 8256 712.533 8255.71 712.757 8255.11 712.981 8254.52 713.093 8253.63 713.093 8252.43 713.093 8251.24 712.981 8250.35 712.757 8249.75 712.533 8249.16 712.186 8248.87 711.716 8248.87ZM691.716 8248.87C691.237 8248.87 690.882 8249.15 690.653 8249.73 690.423 8250.31 690.309 8251.21 690.309 8252.43 690.309 8253.64 690.423 8254.54 690.653 8255.12 690.882 8255.71 691.237 8256 691.716 8256 692.186 8256 692.533 8255.71 692.757 8255.11 692.981 8254.52 693.093 8253.63 693.093 8252.43 693.093 8251.24 692.981 8250.35 692.757 8249.75 692.533 8249.16 692.186 8248.87 691.716 8248.87ZM665.029 8246.58 668.372 8246.58 670.789 8250.1 673.237 8246.58 676.388 8246.58 672.293 8252.26 676.596 8258.29 673.221 8258.29 670.612 8254.48 667.956 8258.29 664.82 8258.29 669.125 8252.32ZM654.901 8246.58 664.661 8246.58 664.661 8248.99 661.141 8248.99 661.141 8258.29 658.421 8258.29 658.421 8248.99 654.901 8248.99ZM644.94 8246.58 649.197 8246.58C650.167 8246.58 651.013 8246.74 651.732 8247.06 652.453 8247.38 653.005 8247.83 653.388 8248.42 653.773 8249 653.965 8249.68 653.965 8250.45 653.965 8251.19 653.789 8251.84 653.437 8252.4 653.085 8252.97 652.578 8253.42 651.917 8253.75L655.069 8258.29 651.82 8258.27 649.229 8254.32 649.148 8254.32 647.677 8254.32 647.677 8258.29 644.94 8258.29ZM698.836 8246.56 705.268 8246.56 705.268 8248.87 701.109 8248.87 700.853 8250.82C701.237 8250.68 701.663 8250.61 702.133 8250.61 702.805 8250.61 703.421 8250.77 703.981 8251.08 704.541 8251.4 704.989 8251.84 705.325 8252.43 705.661 8253.01 705.828 8253.69 705.828 8254.47 705.828 8255.3 705.642 8256.02 705.268 8256.63 704.895 8257.25 704.388 8257.71 703.749 8258.03 703.109 8258.34 702.405 8258.5 701.637 8258.5 700.708 8258.5 699.914 8258.29 699.253 8257.87 698.591 8257.46 698.117 8256.82 697.828 8255.97L700.005 8254.69C700.133 8255.16 700.335 8255.51 700.612 8255.74 700.89 8255.97 701.215 8256.08 701.589 8256.08 702.026 8256.08 702.359 8255.94 702.589 8255.64 702.818 8255.35 702.932 8254.98 702.932 8254.55 702.932 8254.09 702.81 8253.71 702.565 8253.42 702.319 8253.12 701.962 8252.98 701.492 8252.98 700.874 8252.98 700.394 8253.29 700.052 8253.91L698.052 8252.95ZM681.205 8246.56 684.036 8246.56 680.372 8253.67 682.276 8253.67 682.276 8251.19 684.932 8251.19 684.932 8253.67 686.5 8253.67 686.5 8256 684.932 8256 684.932 8258.29 682.276 8258.29 682.276 8256 677.333 8256 677.333 8254.13ZM711.716 8246.35C713.082 8246.35 714.135 8246.87 714.877 8247.91 715.618 8248.94 715.989 8250.45 715.989 8252.43 715.989 8254.41 715.618 8255.91 714.877 8256.95 714.135 8257.98 713.082 8258.5 711.716 8258.5 710.351 8258.5 709.292 8257.98 708.541 8256.95 707.789 8255.92 707.413 8254.42 707.413 8252.43 707.413 8250.45 707.789 8248.94 708.541 8247.91 709.292 8246.87 710.351 8246.35 711.716 8246.35ZM691.716 8246.35C693.082 8246.35 694.135 8246.87 694.877 8247.91 695.618 8248.94 695.989 8250.45 695.989 8252.43 695.989 8254.41 695.618 8255.91 694.877 8256.95 694.135 8257.98 693.082 8258.5 691.716 8258.5 690.351 8258.5 689.292 8257.98 688.541 8256.95 687.789 8255.92 687.413 8254.42 687.413 8252.43 687.413 8250.45 687.789 8248.94 688.541 8247.91 689.292 8246.87 690.351 8246.35 691.716 8246.35Z" stroke="#000000" stroke-linejoin="round" stroke-miterlimit="10" stroke-opacity="0.54902" fill="#FFFFFF" fill-rule="evenodd"/><text fill="#000000" fill-opacity="0" font-family="Arial,Arial_MSFontService,sans-serif" font-size="12.1436" x="644.94" y="8256.98">RTX4050</text></g></g></svg>