<svg width="1378" height="1556" xmlns="http://www.w3.org/2000/svg" xmlns:xlink="http://www.w3.org/1999/xlink" xml:space="preserve" overflow="hidden"><defs><clipPath id="clip0"><rect x="455" y="7054" width="1378" height="1556"/></clipPath></defs><g clip-path="url(#clip0)" transform="translate(-455 -7054)"><g><path d="M1505 7383 1451.05 7409.24 1371.05 7464.24 1317.04 7499.25 1264.04 7536.25 1237.04 7553.25 1183.04 7594.25 1130.04 7647.25 1103.04 7673.25 1076.04 7701.25 1050.03 7736.25 1023.03 7742.25 996.033 7735.25 969 7767" stroke="#EE1F17" stroke-width="4.125" stroke-linecap="round" stroke-linejoin="round" stroke-miterlimit="10" fill="none"/></g><g><path d="M1526.65 7389.22 1526.65 7392.38 1527.85 7392.38C1528.46 7392.38 1528.98 7392.26 1529.41 7392.02 1529.84 7391.78 1530.06 7391.37 1530.06 7390.79 1530.06 7389.75 1529.32 7389.22 1527.85 7389.22ZM1590.69 7389.21C1590.21 7389.21 1589.85 7389.5 1589.62 7390.07 1589.39 7390.65 1589.28 7391.55 1589.28 7392.78 1589.28 7393.98 1589.39 7394.88 1589.62 7395.46 1589.85 7396.05 1590.21 7396.34 1590.69 7396.34 1591.16 7396.34 1591.5 7396.05 1591.73 7395.46 1591.95 7394.86 1592.06 7393.97 1592.06 7392.78 1592.06 7391.58 1591.95 7390.69 1591.73 7390.1 1591.5 7389.5 1591.16 7389.21 1590.69 7389.21ZM1570.69 7389.21C1570.21 7389.21 1569.85 7389.5 1569.62 7390.07 1569.39 7390.65 1569.28 7391.55 1569.28 7392.78 1569.28 7393.98 1569.39 7394.88 1569.62 7395.46 1569.85 7396.05 1570.21 7396.34 1570.69 7396.34 1571.16 7396.34 1571.5 7396.05 1571.73 7395.46 1571.95 7394.86 1572.06 7393.97 1572.06 7392.78 1572.06 7391.58 1571.95 7390.69 1571.73 7390.1 1571.5 7389.5 1571.16 7389.21 1570.69 7389.21ZM1580.64 7389.11C1580.21 7389.11 1579.87 7389.26 1579.6 7389.54 1579.33 7389.83 1579.2 7390.21 1579.2 7390.67 1579.2 7391.11 1579.33 7391.48 1579.6 7391.75 1579.87 7392.03 1580.21 7392.17 1580.64 7392.17 1581.06 7392.17 1581.4 7392.03 1581.66 7391.74 1581.93 7391.46 1582.06 7391.1 1582.06 7390.65 1582.06 7390.2 1581.93 7389.83 1581.66 7389.54 1581.4 7389.26 1581.06 7389.11 1580.64 7389.11ZM1544 7386.92 1547.34 7386.92 1549.76 7390.44 1552.21 7386.92 1555.36 7386.92 1551.26 7392.6 1555.57 7398.63 1552.19 7398.63 1549.58 7394.82 1546.93 7398.63 1543.79 7398.63 1548.1 7392.67ZM1533.87 7386.92 1543.63 7386.92 1543.63 7389.34 1540.11 7389.34 1540.11 7398.63 1537.39 7398.63 1537.39 7389.34 1533.87 7389.34ZM1523.91 7386.92 1528.17 7386.92C1529.14 7386.92 1529.98 7387.08 1530.7 7387.4 1531.42 7387.72 1531.98 7388.17 1532.36 7388.76 1532.74 7389.35 1532.94 7390.02 1532.94 7390.79 1532.94 7391.53 1532.76 7392.18 1532.41 7392.74 1532.06 7393.31 1531.55 7393.76 1530.89 7394.09L1534.04 7398.63 1530.79 7398.62 1528.2 7394.67 1528.12 7394.67 1526.65 7394.67 1526.65 7398.63 1523.91 7398.63ZM1560.18 7386.9 1563.01 7386.9 1559.34 7394.01 1561.25 7394.01 1561.25 7391.53 1563.9 7391.53 1563.9 7394.01 1565.47 7394.01 1565.47 7396.34 1563.9 7396.34 1563.9 7398.63 1561.25 7398.63 1561.25 7396.34 1556.3 7396.34 1556.3 7394.47ZM1590.69 7386.7C1592.05 7386.7 1593.11 7387.21 1593.85 7388.25 1594.59 7389.28 1594.96 7390.79 1594.96 7392.78 1594.96 7394.75 1594.59 7396.25 1593.85 7397.29 1593.11 7398.32 1592.05 7398.84 1590.69 7398.84 1589.32 7398.84 1588.26 7398.33 1587.51 7397.3 1586.76 7396.27 1586.38 7394.76 1586.38 7392.78 1586.38 7390.79 1586.76 7389.28 1587.51 7388.25 1588.26 7387.21 1589.32 7386.7 1590.69 7386.7ZM1570.69 7386.7C1572.05 7386.7 1573.11 7387.21 1573.85 7388.25 1574.59 7389.28 1574.96 7390.79 1574.96 7392.78 1574.96 7394.75 1574.59 7396.25 1573.85 7397.29 1573.11 7398.32 1572.05 7398.84 1570.69 7398.84 1569.32 7398.84 1568.26 7398.33 1567.51 7397.3 1566.76 7396.27 1566.38 7394.76 1566.38 7392.78 1566.38 7390.79 1566.76 7389.28 1567.51 7388.25 1568.26 7387.21 1569.32 7386.7 1570.69 7386.7ZM1580.61 7386.68C1581.39 7386.68 1582.1 7386.85 1582.76 7387.19 1583.42 7387.53 1583.94 7388.02 1584.32 7388.65 1584.7 7389.28 1584.9 7390 1584.9 7390.82 1584.9 7391.45 1584.78 7392.05 1584.55 7392.61 1584.32 7393.17 1583.9 7393.93 1583.28 7394.89L1580.9 7398.62 1577.97 7398.62 1580.19 7395.27C1580.35 7395.03 1580.57 7394.72 1580.85 7394.34 1580.58 7394.4 1580.33 7394.42 1580.1 7394.42 1579.35 7394.42 1578.69 7394.27 1578.12 7393.96 1577.55 7393.65 1577.11 7393.21 1576.79 7392.65 1576.48 7392.08 1576.32 7391.42 1576.32 7390.67 1576.32 7389.9 1576.51 7389.21 1576.9 7388.6 1577.29 7387.99 1577.82 7387.52 1578.47 7387.18 1579.13 7386.85 1579.84 7386.68 1580.61 7386.68Z" stroke="#000000" stroke-linejoin="round" stroke-miterlimit="10" stroke-opacity="0.54902" fill="#FFFFFF" fill-rule="evenodd"/><text fill="#000000" fill-opacity="0" font-family="Arial,Arial_MSFontService,sans-serif" font-size="12.1602" x="1523.91" y="7397.32">RTX4090</text></g></g></svg>