<svg width="1378" height="1556" xmlns="http://www.w3.org/2000/svg" xmlns:xlink="http://www.w3.org/1999/xlink" xml:space="preserve" overflow="hidden"><defs><clipPath id="clip0"><rect x="455" y="7054" width="1378" height="1556"/></clipPath></defs><g clip-path="url(#clip0)" transform="translate(-455 -7054)"><g><path d="M755 8160 782.026 8123.27 808.026 8094.27 835.027 8066.26 862.028 8045.26 889.029 8027.26 916.03 8009.26 942.031 7991.26 969.032 7975.26 996.033 7956.26 1023.03 7942.26 1050.03 7927.26 1076.04 7919.26 1103.04 7908.26 1130.04 7900.26 1157.04 7893.26 1183.04 7883.26 1210.04 7876.26 1237.04 7870.26 1264.04 7865.26 1291.04 7864.26 1317 7862" stroke="#FF0000" stroke-width="4.125" stroke-linecap="round" stroke-linejoin="round" stroke-miterlimit="10" fill="none"/></g><g><path d="M715.706 8181.63C716.122 8181.63 716.479 8181.78 716.778 8182.09 717.076 8182.39 717.226 8182.76 717.226 8183.18 717.226 8183.6 717.076 8183.96 716.778 8184.26 716.479 8184.57 716.122 8184.72 715.706 8184.72 715.29 8184.72 714.935 8184.57 714.642 8184.26 714.348 8183.96 714.202 8183.6 714.202 8183.18 714.202 8182.76 714.348 8182.39 714.642 8182.09 714.935 8181.78 715.29 8181.63 715.706 8181.63ZM696.154 8178.09C695.791 8178.09 695.484 8178.2 695.234 8178.42 694.983 8178.64 694.799 8178.95 694.682 8179.34L697.434 8179.34C697.391 8178.94 697.252 8178.63 697.018 8178.41 696.783 8178.2 696.495 8178.09 696.154 8178.09ZM700.498 8176.24 703.186 8176.24 704.738 8181.01 706.178 8176.24 708.402 8176.24 709.938 8180.91 711.394 8176.24 713.938 8176.24 710.882 8184.49 708.994 8184.49 707.25 8179.9 705.57 8184.49 703.666 8184.49ZM696.234 8176.01C696.991 8176.01 697.66 8176.18 698.242 8176.5 698.823 8176.83 699.274 8177.29 699.594 8177.9 699.914 8178.51 700.074 8179.22 700.074 8180.03 700.074 8180.37 700.042 8180.73 699.978 8181.12L694.682 8181.12C694.799 8181.58 695.002 8181.93 695.29 8182.18 695.578 8182.43 695.93 8182.56 696.346 8182.56 696.687 8182.56 696.994 8182.48 697.266 8182.32 697.538 8182.16 697.738 8181.92 697.866 8181.61L699.77 8182.75C699.535 8183.38 699.092 8183.86 698.442 8184.21 697.791 8184.55 697.06 8184.72 696.25 8184.72 695.503 8184.72 694.802 8184.55 694.146 8184.22 693.49 8183.89 692.962 8183.4 692.562 8182.73 692.162 8182.07 691.962 8181.27 691.962 8180.33 691.962 8179.41 692.162 8178.62 692.562 8177.97 692.962 8177.32 693.487 8176.83 694.138 8176.5 694.788 8176.18 695.487 8176.01 696.234 8176.01ZM605.37 8175.1 605.37 8178.25 606.57 8178.25C607.178 8178.25 607.698 8178.13 608.13 8177.89 608.562 8177.65 608.778 8177.25 608.778 8176.67 608.778 8175.62 608.042 8175.1 606.57 8175.1ZM669.41 8175.09C668.93 8175.09 668.575 8175.37 668.346 8175.95 668.116 8176.53 668.002 8177.43 668.002 8178.65 668.002 8179.86 668.116 8180.76 668.346 8181.34 668.575 8181.93 668.93 8182.22 669.41 8182.22 669.879 8182.22 670.226 8181.93 670.45 8181.33 670.674 8180.74 670.786 8179.85 670.786 8178.65 670.786 8177.46 670.674 8176.57 670.45 8175.97 670.226 8175.38 669.879 8175.09 669.41 8175.09ZM649.41 8175.09C648.93 8175.09 648.575 8175.37 648.346 8175.95 648.116 8176.53 648.002 8177.43 648.002 8178.65 648.002 8179.86 648.116 8180.76 648.346 8181.34 648.575 8181.93 648.93 8182.22 649.41 8182.22 649.879 8182.22 650.226 8181.93 650.45 8181.33 650.674 8180.74 650.786 8179.85 650.786 8178.65 650.786 8177.46 650.674 8176.57 650.45 8175.97 650.226 8175.38 649.879 8175.09 649.41 8175.09ZM679.634 8172.8 681.826 8172.8 687.138 8179.9 687.138 8172.8 689.634 8172.8 689.634 8184.51 687.442 8184.51 682.13 8177.39 682.13 8184.51 679.634 8184.51ZM622.722 8172.8 626.066 8172.8 628.482 8176.32 630.93 8172.8 634.082 8172.8 629.986 8178.48 634.29 8184.51 630.914 8184.51 628.306 8180.7 625.65 8184.51 622.514 8184.51 626.818 8178.54ZM612.594 8172.8 622.354 8172.8 622.354 8175.21 618.834 8175.21 618.834 8184.51 616.114 8184.51 616.114 8175.21 612.594 8175.21ZM602.634 8172.8 606.89 8172.8C607.86 8172.8 608.706 8172.96 609.426 8173.28 610.146 8173.6 610.698 8174.05 611.082 8174.64 611.466 8175.23 611.658 8175.9 611.658 8176.67 611.658 8177.41 611.482 8178.06 611.13 8178.62 610.778 8179.19 610.271 8179.64 609.61 8179.97L612.762 8184.51 609.514 8184.49 606.922 8180.54 606.842 8180.54 605.37 8180.54 605.37 8184.51 602.634 8184.51ZM655.33 8172.78 663.442 8172.78 663.442 8174.49 659.538 8184.51 656.578 8184.51 660.386 8175.17 655.33 8175.17ZM638.898 8172.78 641.73 8172.78 638.066 8179.89 639.97 8179.89 639.97 8177.41 642.626 8177.41 642.626 8179.89 644.194 8179.89 644.194 8182.22 642.626 8182.22 642.626 8184.51 639.97 8184.51 639.97 8182.22 635.026 8182.22 635.026 8180.35ZM669.41 8172.57C670.775 8172.57 671.828 8173.09 672.57 8174.13 673.311 8175.16 673.682 8176.67 673.682 8178.65 673.682 8180.63 673.311 8182.13 672.57 8183.17 671.828 8184.2 670.775 8184.72 669.41 8184.72 668.044 8184.72 666.986 8184.2 666.234 8183.17 665.482 8182.15 665.106 8180.64 665.106 8178.65 665.106 8176.67 665.482 8175.16 666.234 8174.13 666.986 8173.09 668.044 8172.57 669.41 8172.57ZM649.41 8172.57C650.775 8172.57 651.828 8173.09 652.57 8174.13 653.311 8175.16 653.682 8176.67 653.682 8178.65 653.682 8180.63 653.311 8182.13 652.57 8183.17 651.828 8184.2 650.775 8184.72 649.41 8184.72 648.044 8184.72 646.986 8184.2 646.234 8183.17 645.482 8182.15 645.106 8180.64 645.106 8178.65 645.106 8176.67 645.482 8175.16 646.234 8174.13 646.986 8173.09 648.044 8172.57 649.41 8172.57ZM714.33 8172.33 717.082 8172.33 716.714 8180.53 714.714 8180.53Z" stroke="#000000" stroke-linejoin="round" stroke-miterlimit="10" stroke-opacity="0.54902" fill="#FFFFFF" fill-rule="evenodd"/><text fill="#000000" fill-opacity="0" font-family="Arial,Arial_MSFontService,sans-serif" font-size="12.3838" x="602.634" y="8183.17">RTX4070 New!</text></g></g></svg>