<svg width="1378" height="1556" xmlns="http://www.w3.org/2000/svg" xmlns:xlink="http://www.w3.org/1999/xlink" xml:space="preserve" overflow="hidden"><defs><clipPath id="clip0"><rect x="455" y="7054" width="1378" height="1556"/></clipPath></defs><g clip-path="url(#clip0)" transform="translate(-455 -7054)"><g><path d="M1157 7985 1130.04 7985.26 1103.04 7988.26 1076.04 7994.26 1050.03 8001.26 996.033 8020.26 969.032 8030.26 916.03 8058.26 889.029 8070.26 862.028 8091.27 835.027 8114.27 808.026 8134.27 755 8191" stroke="#EE1F17" stroke-width="4.125" stroke-linecap="round" stroke-linejoin="round" stroke-miterlimit="10" fill="none"/></g><g><path d="M692.592 8229.2C692.166 8229.2 691.819 8229.34 691.552 8229.62 691.286 8229.9 691.152 8230.27 691.152 8230.72 691.152 8231.16 691.288 8231.53 691.56 8231.82 691.832 8232.11 692.176 8232.25 692.592 8232.25 693.008 8232.25 693.35 8232.11 693.616 8231.82 693.883 8231.53 694.016 8231.16 694.016 8230.7 694.016 8230.25 693.883 8229.89 693.616 8229.61 693.35 8229.33 693.008 8229.2 692.592 8229.2ZM638.504 8225.07 638.504 8228.22 639.704 8228.22C640.312 8228.22 640.832 8228.1 641.264 8227.86 641.696 8227.62 641.912 8227.21 641.912 8226.64 641.912 8225.59 641.176 8225.07 639.704 8225.07ZM702.544 8225.05C702.064 8225.05 701.71 8225.34 701.48 8225.92 701.251 8226.49 701.136 8227.39 701.136 8228.62 701.136 8229.83 701.251 8230.72 701.48 8231.31 701.71 8231.89 702.064 8232.19 702.544 8232.19 703.014 8232.19 703.36 8231.89 703.584 8231.3 703.808 8230.71 703.92 8229.81 703.92 8228.62 703.92 8227.42 703.808 8226.53 703.584 8225.94 703.36 8225.35 703.014 8225.05 702.544 8225.05ZM682.544 8225.05C682.064 8225.05 681.71 8225.34 681.48 8225.92 681.251 8226.49 681.136 8227.39 681.136 8228.62 681.136 8229.83 681.251 8230.72 681.48 8231.31 681.71 8231.89 682.064 8232.19 682.544 8232.19 683.014 8232.19 683.36 8231.89 683.584 8231.3 683.808 8230.71 683.92 8229.81 683.92 8228.62 683.92 8227.42 683.808 8226.53 683.584 8225.94 683.36 8225.35 683.014 8225.05 682.544 8225.05ZM655.856 8222.76 659.2 8222.76 661.616 8226.28 664.064 8222.76 667.216 8222.76 663.12 8228.44 667.424 8234.48 664.048 8234.48 661.44 8230.67 658.784 8234.48 655.648 8234.48 659.952 8228.51ZM645.728 8222.76 655.488 8222.76 655.488 8225.18 651.968 8225.18 651.968 8234.48 649.248 8234.48 649.248 8225.18 645.728 8225.18ZM635.768 8222.76 640.024 8222.76C640.995 8222.76 641.84 8222.92 642.56 8223.24 643.28 8223.56 643.832 8224.02 644.216 8224.6 644.6 8225.19 644.792 8225.87 644.792 8226.64 644.792 8227.37 644.616 8228.02 644.264 8228.59 643.912 8229.15 643.406 8229.6 642.744 8229.93L645.896 8234.48 642.648 8234.46 640.056 8230.51 639.976 8230.51 638.504 8230.51 638.504 8234.48 635.768 8234.48ZM692.32 8222.75 695.248 8222.75 693.04 8226.09C692.678 8226.6 692.454 8226.91 692.368 8227.02 692.635 8226.97 692.886 8226.94 693.12 8226.94 693.867 8226.94 694.526 8227.09 695.096 8227.4 695.667 8227.71 696.112 8228.15 696.432 8228.72 696.752 8229.28 696.912 8229.94 696.912 8230.7 696.912 8231.47 696.718 8232.16 696.328 8232.76 695.939 8233.37 695.414 8233.84 694.752 8234.18 694.091 8234.52 693.376 8234.68 692.608 8234.68 691.83 8234.68 691.112 8234.51 690.456 8234.17 689.8 8233.83 689.28 8233.34 688.896 8232.72 688.512 8232.09 688.32 8231.36 688.32 8230.54 688.32 8229.92 688.435 8229.33 688.664 8228.76 688.894 8228.2 689.318 8227.44 689.936 8226.48ZM672.032 8222.75 674.864 8222.75 671.2 8229.85 673.104 8229.85 673.104 8227.37 675.76 8227.37 675.76 8229.85 677.328 8229.85 677.328 8232.19 675.76 8232.19 675.76 8234.48 673.104 8234.48 673.104 8232.19 668.16 8232.19 668.16 8230.32ZM702.544 8222.54C703.91 8222.54 704.963 8223.06 705.704 8224.09 706.446 8225.13 706.816 8226.64 706.816 8228.62 706.816 8230.59 706.446 8232.1 705.704 8233.13 704.963 8234.17 703.91 8234.68 702.544 8234.68 701.179 8234.68 700.12 8234.17 699.368 8233.14 698.616 8232.11 698.24 8230.6 698.24 8228.62 698.24 8226.64 698.616 8225.13 699.368 8224.09 700.12 8223.06 701.179 8222.54 702.544 8222.54ZM682.544 8222.54C683.91 8222.54 684.963 8223.06 685.704 8224.09 686.446 8225.13 686.816 8226.64 686.816 8228.62 686.816 8230.59 686.446 8232.1 685.704 8233.13 684.963 8234.17 683.91 8234.68 682.544 8234.68 681.179 8234.68 680.12 8234.17 679.368 8233.14 678.616 8232.11 678.24 8230.6 678.24 8228.62 678.24 8226.64 678.616 8225.13 679.368 8224.09 680.12 8223.06 681.179 8222.54 682.544 8222.54Z" stroke="#000000" stroke-linejoin="round" stroke-miterlimit="10" stroke-opacity="0.54902" fill="#FFFFFF" fill-rule="evenodd"/><text fill="#000000" fill-opacity="0" font-family="Arial,Arial_MSFontService,sans-serif" font-size="12.1436" x="635.768" y="8233.17">RTX4060</text></g></g></svg>