<svg width="1378" height="1556" xmlns="http://www.w3.org/2000/svg" xmlns:xlink="http://www.w3.org/1999/xlink" xml:space="preserve" overflow="hidden"><defs><clipPath id="clip0"><rect x="455" y="7054" width="1378" height="1556"/></clipPath></defs><g clip-path="url(#clip0)" transform="translate(-455 -7054)"><g><path d="M1505 7563 1451.05 7581.25 1371.04 7610.25 1317.04 7633.25 1264.04 7662.25 1237.04 7680.25 1183.04 7720.25 1130.04 7755.25 1103.04 7775.26 1076.04 7794.26 1050.03 7824.26 1023.03 7836.26 996.033 7839.26 969.032 7871.26 916.03 7914.26 889 7950" stroke="#EE1F17" stroke-width="4.125" stroke-linecap="round" stroke-linejoin="round" stroke-miterlimit="10" fill="none"/></g><g><path d="M1571.55 7559.44C1571.12 7559.44 1570.76 7559.58 1570.5 7559.85 1570.23 7560.12 1570.1 7560.48 1570.1 7560.93 1570.1 7561.38 1570.23 7561.74 1570.5 7562 1570.78 7562.27 1571.13 7562.4 1571.55 7562.4 1571.96 7562.4 1572.29 7562.27 1572.55 7562 1572.81 7561.74 1572.94 7561.38 1572.94 7560.93 1572.94 7560.48 1572.82 7560.12 1572.57 7559.85 1572.32 7559.58 1571.98 7559.44 1571.55 7559.44ZM1517.48 7555.2 1517.48 7558.35 1518.68 7558.35C1519.29 7558.35 1519.81 7558.23 1520.24 7557.99 1520.67 7557.75 1520.89 7557.35 1520.89 7556.77 1520.89 7555.72 1520.15 7555.2 1518.68 7555.2ZM1581.52 7555.19C1581.04 7555.19 1580.69 7555.47 1580.46 7556.05 1580.23 7556.63 1580.11 7557.53 1580.11 7558.75 1580.11 7559.96 1580.23 7560.85 1580.46 7561.44 1580.69 7562.03 1581.04 7562.32 1581.52 7562.32 1581.99 7562.32 1582.34 7562.03 1582.56 7561.43 1582.78 7560.84 1582.9 7559.95 1582.9 7558.75 1582.9 7557.56 1582.78 7556.67 1582.56 7556.07 1582.34 7555.48 1581.99 7555.19 1581.52 7555.19ZM1561.52 7555.19C1561.04 7555.19 1560.69 7555.47 1560.46 7556.05 1560.23 7556.63 1560.11 7557.53 1560.11 7558.75 1560.11 7559.96 1560.23 7560.85 1560.46 7561.44 1560.69 7562.03 1561.04 7562.32 1561.52 7562.32 1561.99 7562.32 1562.34 7562.03 1562.56 7561.43 1562.78 7560.84 1562.9 7559.95 1562.9 7558.75 1562.9 7557.56 1562.78 7556.67 1562.56 7556.07 1562.34 7555.48 1561.99 7555.19 1561.52 7555.19ZM1571.55 7554.91C1571.21 7554.91 1570.94 7555.02 1570.74 7555.23 1570.53 7555.45 1570.43 7555.71 1570.43 7556.03 1570.43 7556.35 1570.53 7556.62 1570.74 7556.83 1570.94 7557.03 1571.21 7557.14 1571.55 7557.14 1571.88 7557.14 1572.16 7557.03 1572.37 7556.83 1572.58 7556.62 1572.69 7556.35 1572.69 7556.03 1572.69 7555.72 1572.58 7555.46 1572.37 7555.24 1572.16 7555.02 1571.88 7554.91 1571.55 7554.91ZM1534.83 7552.9 1538.18 7552.9 1540.59 7556.42 1543.04 7552.9 1546.19 7552.9 1542.1 7558.58 1546.4 7564.61 1543.02 7564.61 1540.42 7560.8 1537.76 7564.61 1534.62 7564.61 1538.93 7558.64ZM1524.7 7552.9 1534.46 7552.9 1534.46 7555.31 1530.94 7555.31 1530.94 7564.61 1528.22 7564.61 1528.22 7555.31 1524.7 7555.31ZM1514.74 7552.9 1519 7552.9C1519.97 7552.9 1520.82 7553.06 1521.54 7553.38 1522.26 7553.7 1522.81 7554.15 1523.19 7554.74 1523.58 7555.32 1523.77 7556 1523.77 7556.77 1523.77 7557.51 1523.59 7558.16 1523.24 7558.72 1522.89 7559.29 1522.38 7559.74 1521.72 7560.07L1524.87 7564.61 1521.62 7564.59 1519.03 7560.64 1518.95 7560.64 1517.48 7560.64 1517.48 7564.61 1514.74 7564.61ZM1551.01 7552.88 1553.84 7552.88 1550.18 7559.99 1552.08 7559.99 1552.08 7557.51 1554.74 7557.51 1554.74 7559.99 1556.3 7559.99 1556.3 7562.32 1554.74 7562.32 1554.74 7564.61 1552.08 7564.61 1552.08 7562.32 1547.14 7562.32 1547.14 7560.45ZM1581.52 7552.67C1582.89 7552.67 1583.94 7553.19 1584.68 7554.23 1585.42 7555.26 1585.79 7556.77 1585.79 7558.75 1585.79 7560.73 1585.42 7562.23 1584.68 7563.27 1583.94 7564.3 1582.89 7564.82 1581.52 7564.82 1580.16 7564.82 1579.1 7564.3 1578.34 7563.27 1577.59 7562.24 1577.22 7560.74 1577.22 7558.75 1577.22 7556.77 1577.59 7555.26 1578.34 7554.23 1579.1 7553.19 1580.16 7552.67 1581.52 7552.67ZM1561.52 7552.67C1562.89 7552.67 1563.94 7553.19 1564.68 7554.23 1565.42 7555.26 1565.79 7556.77 1565.79 7558.75 1565.79 7560.73 1565.42 7562.23 1564.68 7563.27 1563.94 7564.3 1562.89 7564.82 1561.52 7564.82 1560.16 7564.82 1559.1 7564.3 1558.34 7563.27 1557.59 7562.24 1557.22 7560.74 1557.22 7558.75 1557.22 7556.77 1557.59 7555.26 1558.34 7554.23 1559.1 7553.19 1560.16 7552.67 1561.52 7552.67ZM1571.55 7552.66C1572.38 7552.66 1573.09 7552.8 1573.66 7553.08 1574.23 7553.36 1574.65 7553.75 1574.94 7554.23 1575.22 7554.72 1575.36 7555.27 1575.36 7555.87 1575.36 7556.41 1575.24 7556.88 1574.99 7557.28 1574.75 7557.69 1574.4 7558.01 1573.95 7558.24 1574.54 7558.53 1575 7558.92 1575.33 7559.43 1575.66 7559.93 1575.82 7560.53 1575.82 7561.23 1575.82 7561.94 1575.65 7562.56 1575.3 7563.11 1574.96 7563.65 1574.46 7564.07 1573.82 7564.37 1573.17 7564.67 1572.42 7564.82 1571.55 7564.82 1570.67 7564.82 1569.9 7564.67 1569.24 7564.36 1568.58 7564.06 1568.08 7563.64 1567.73 7563.1 1567.38 7562.56 1567.2 7561.94 1567.2 7561.23 1567.2 7560.53 1567.37 7559.93 1567.7 7559.43 1568.04 7558.92 1568.5 7558.54 1569.09 7558.26 1568.62 7558.01 1568.25 7557.69 1567.99 7557.28 1567.73 7556.88 1567.6 7556.41 1567.6 7555.87 1567.6 7555.29 1567.75 7554.75 1568.06 7554.26 1568.36 7553.77 1568.81 7553.38 1569.41 7553.09 1570.01 7552.8 1570.72 7552.66 1571.55 7552.66Z" stroke="#000000" stroke-linejoin="round" stroke-miterlimit="10" stroke-opacity="0.54902" fill="#FFFFFF" fill-rule="evenodd"/><text fill="#000000" fill-opacity="0" font-family="Arial,Arial_MSFontService,sans-serif" font-size="12.1602" x="1514.74" y="7563.3">RTX4080</text></g></g></svg>