<svg width="1378" height="1556" xmlns="http://www.w3.org/2000/svg" xmlns:xlink="http://www.w3.org/1999/xlink" xml:space="preserve" overflow="hidden"><defs><clipPath id="clip0"><rect x="455" y="7054" width="1378" height="1556"/></clipPath></defs><g clip-path="url(#clip0)" transform="translate(-455 -7054)"><g><path d="M782 8112C790.911 8103.09 799.822 8093.5 808.733 8085.26 817.644 8077.01 826.555 8070.5 835.467 8062.51 844.378 8054.53 853.289 8046.43 862.2 8037.33 871.111 8028.24 880.022 8016.86 888.933 8007.95 897.844 7999.05 906.755 7990.62 915.667 7983.9 924.578 7977.17 933.489 7972.55 942.4 7967.6 951.311 7962.64 960.222 7958.28 969.133 7954.17 978.044 7950.07 986.955 7946.9 995.867 7942.95 1004.78 7939 1013.69 7933.77 1022.6 7930.46 1031.51 7927.15 1040.42 7925.79 1049.33 7923.09 1058.24 7920.39 1067.16 7916.75 1076.07 7914.25 1084.98 7911.76 1093.89 7910.21 1102.8 7908.11 1111.71 7906 1120.62 7903.66 1129.53 7901.62 1138.44 7899.57 1147.36 7897.79 1156.27 7895.86 1165.18 7893.92 1174.09 7891.95 1183 7890" stroke="#AD00D0" stroke-width="4.125" stroke-linecap="round" stroke-linejoin="round" stroke-miterlimit="10" fill="none"/></g><g><path d="M1252.95 7886.36C1252.52 7886.36 1252.17 7886.5 1251.91 7886.78 1251.64 7887.06 1251.51 7887.43 1251.51 7887.88 1251.51 7888.32 1251.64 7888.69 1251.92 7888.98 1252.19 7889.27 1252.53 7889.41 1252.95 7889.41 1253.36 7889.41 1253.7 7889.27 1253.97 7888.98 1254.24 7888.69 1254.37 7888.32 1254.37 7887.86 1254.37 7887.41 1254.24 7887.05 1253.97 7886.77 1253.7 7886.49 1253.36 7886.36 1252.95 7886.36ZM1198.86 7882.23 1198.86 7885.38 1200.06 7885.38C1200.67 7885.38 1201.19 7885.26 1201.62 7885.02 1202.05 7884.78 1202.27 7884.37 1202.27 7883.8 1202.27 7882.75 1201.53 7882.23 1200.06 7882.23ZM1262.9 7882.21C1262.42 7882.21 1262.06 7882.5 1261.84 7883.08 1261.61 7883.65 1261.49 7884.55 1261.49 7885.78 1261.49 7886.98 1261.61 7887.88 1261.84 7888.47 1262.06 7889.05 1262.42 7889.35 1262.9 7889.35 1263.37 7889.35 1263.72 7889.05 1263.94 7888.46 1264.16 7887.87 1264.28 7886.97 1264.28 7885.78 1264.28 7884.58 1264.16 7883.69 1263.94 7883.1 1263.72 7882.51 1263.37 7882.21 1262.9 7882.21ZM1242.9 7882.21C1242.42 7882.21 1242.06 7882.5 1241.84 7883.08 1241.61 7883.65 1241.49 7884.55 1241.49 7885.78 1241.49 7886.98 1241.61 7887.88 1241.84 7888.47 1242.06 7889.05 1242.42 7889.35 1242.9 7889.35 1243.37 7889.35 1243.72 7889.05 1243.94 7888.46 1244.16 7887.87 1244.28 7886.97 1244.28 7885.78 1244.28 7884.58 1244.16 7883.69 1243.94 7883.1 1243.72 7882.51 1243.37 7882.21 1242.9 7882.21ZM1216.21 7879.92 1219.56 7879.92 1221.97 7883.44 1224.42 7879.92 1227.57 7879.92 1223.48 7885.6 1227.78 7891.64 1224.4 7891.64 1221.8 7887.83 1219.14 7891.64 1216 7891.64 1220.31 7885.67ZM1206.08 7879.92 1215.84 7879.92 1215.84 7882.34 1212.32 7882.34 1212.32 7891.64 1209.6 7891.64 1209.6 7882.34 1206.08 7882.34ZM1196.12 7879.92 1200.38 7879.92C1201.35 7879.92 1202.2 7880.08 1202.92 7880.4 1203.64 7880.72 1204.19 7881.18 1204.57 7881.76 1204.96 7882.35 1205.15 7883.03 1205.15 7883.8 1205.15 7884.53 1204.97 7885.18 1204.62 7885.75 1204.27 7886.31 1203.76 7886.76 1203.1 7887.09L1206.25 7891.64 1203 7891.62 1200.41 7887.67 1200.33 7887.67 1198.86 7887.67 1198.86 7891.64 1196.12 7891.64ZM1252.68 7879.91 1255.6 7879.91 1253.4 7883.25C1253.03 7883.76 1252.81 7884.07 1252.72 7884.18 1252.99 7884.13 1253.24 7884.1 1253.48 7884.1 1254.22 7884.1 1254.88 7884.25 1255.45 7884.56 1256.02 7884.87 1256.47 7885.31 1256.79 7885.88 1257.11 7886.44 1257.27 7887.1 1257.27 7887.86 1257.27 7888.63 1257.07 7889.32 1256.68 7889.92 1256.29 7890.53 1255.77 7891 1255.11 7891.34 1254.45 7891.68 1253.73 7891.84 1252.96 7891.84 1252.18 7891.84 1251.47 7891.67 1250.81 7891.33 1250.16 7890.99 1249.64 7890.5 1249.25 7889.88 1248.87 7889.25 1248.68 7888.52 1248.68 7887.7 1248.68 7887.08 1248.79 7886.49 1249.02 7885.92 1249.25 7885.36 1249.67 7884.6 1250.29 7883.64ZM1230.02 7879.91 1236.45 7879.91 1236.45 7882.21 1232.29 7882.21 1232.04 7884.16C1232.42 7884.02 1232.85 7883.96 1233.32 7883.96 1233.99 7883.96 1234.6 7884.11 1235.16 7884.43 1235.72 7884.74 1236.17 7885.19 1236.51 7885.77 1236.84 7886.35 1237.01 7887.03 1237.01 7887.81 1237.01 7888.64 1236.82 7889.37 1236.45 7889.98 1236.08 7890.59 1235.57 7891.06 1234.93 7891.37 1234.29 7891.69 1233.59 7891.84 1232.82 7891.84 1231.89 7891.84 1231.1 7891.64 1230.44 7891.22 1229.77 7890.8 1229.3 7890.17 1229.01 7889.32L1231.19 7888.04C1231.32 7888.5 1231.52 7888.85 1231.8 7889.08 1232.07 7889.31 1232.4 7889.43 1232.77 7889.43 1233.21 7889.43 1233.54 7889.28 1233.77 7888.99 1234 7888.69 1234.12 7888.33 1234.12 7887.89 1234.12 7887.43 1233.99 7887.06 1233.75 7886.76 1233.5 7886.47 1233.14 7886.32 1232.68 7886.32 1232.06 7886.32 1231.58 7886.63 1231.24 7887.25L1229.24 7886.29ZM1262.9 7879.7C1264.26 7879.7 1265.32 7880.22 1266.06 7881.25 1266.8 7882.29 1267.17 7883.8 1267.17 7885.78 1267.17 7887.75 1266.8 7889.26 1266.06 7890.29 1265.32 7891.33 1264.26 7891.84 1262.9 7891.84 1261.53 7891.84 1260.48 7891.33 1259.72 7890.3 1258.97 7889.27 1258.6 7887.76 1258.6 7885.78 1258.6 7883.8 1258.97 7882.29 1259.72 7881.25 1260.48 7880.22 1261.53 7879.7 1262.9 7879.7ZM1242.9 7879.7C1244.26 7879.7 1245.32 7880.22 1246.06 7881.25 1246.8 7882.29 1247.17 7883.8 1247.17 7885.78 1247.17 7887.75 1246.8 7889.26 1246.06 7890.29 1245.32 7891.33 1244.26 7891.84 1242.9 7891.84 1241.53 7891.84 1240.48 7891.33 1239.72 7890.3 1238.97 7889.27 1238.6 7887.76 1238.6 7885.78 1238.6 7883.8 1238.97 7882.29 1239.72 7881.25 1240.48 7880.22 1241.53 7879.7 1242.9 7879.7Z" stroke="#000000" stroke-linejoin="round" stroke-miterlimit="10" stroke-opacity="0.54902" fill="#FFFFFF" fill-rule="evenodd"/><text fill="#000000" fill-opacity="0" font-family="Arial,Arial_MSFontService,sans-serif" font-size="12.144" x="1196.12" y="7890.33">RTX5060</text></g></g></svg>