<svg width="1378" height="1556" xmlns="http://www.w3.org/2000/svg" xmlns:xlink="http://www.w3.org/1999/xlink" xml:space="preserve" overflow="hidden"><defs><clipPath id="clip0"><rect x="455" y="7054" width="1378" height="1556"/></clipPath></defs><g clip-path="url(#clip0)" transform="translate(-455 -7054)"><g><path d="M728 8372C736.931 8366.06 745.862 8367.43 754.793 8354.17 763.724 8340.91 772.655 8321.3 781.586 8292.42 790.517 8263.54 799.448 8220.52 808.379 8180.89 817.31 8141.25 826.241 8086.99 835.172 8054.6 844.103 8022.22 853.034 8008.99 861.966 7986.6 870.896 7964.21 879.828 7942.88 888.759 7920.26 897.689 7897.64 906.621 7873.12 915.552 7850.89 924.483 7828.65 933.414 7807.74 942.345 7786.84 951.276 7765.94 960.207 7744.2 969.138 7725.48 978.069 7706.76 987 7688.43 995.931 7674.53 1004.86 7660.63 1013.79 7653.95 1022.72 7642.09 1031.65 7630.23 1040.59 7614.43 1049.52 7603.35 1058.45 7592.27 1067.38 7584.58 1076.31 7575.6 1085.24 7566.62 1094.17 7557.79 1103.1 7549.47 1112.03 7541.15 1120.97 7533.3 1129.9 7525.68 1138.83 7518.05 1147.76 7510.86 1156.69 7503.74 1165.62 7496.62 1174.55 7489.61 1183.48 7482.93 1192.41 7476.24 1201.34 7469.97 1210.28 7463.63 1219.21 7457.3 1228.14 7450.52 1237.07 7444.92 1246 7439.32 1254.93 7436.87 1263.86 7430.02 1272.79 7423.17 1281.72 7411.47 1290.66 7403.84 1299.59 7396.21 1308.52 7391.44 1317.45 7384.25 1326.38 7377.06 1335.31 7367.29 1344.24 7360.7 1353.17 7354.11 1362.1 7349.19 1371.03 7344.72 1379.97 7340.25 1388.9 7338.46 1397.83 7333.88 1406.76 7329.3 1415.69 7323.51 1424.62 7317.27 1433.55 7311.02 1442.48 7302.14 1451.41 7296.41 1460.34 7290.68 1469.28 7287.78 1478.21 7282.88 1487.14 7277.98 1496.07 7272.29 1505 7267" stroke="#AD00D0" stroke-width="4.125" stroke-linecap="round" stroke-linejoin="round" stroke-miterlimit="10" fill="none"/></g><g><path d="M1529.41 7264.22 1529.41 7267.38 1530.61 7267.38C1531.22 7267.38 1531.74 7267.26 1532.17 7267.02 1532.61 7266.78 1532.82 7266.37 1532.82 7265.79 1532.82 7264.75 1532.09 7264.22 1530.61 7264.22ZM1593.45 7264.21C1592.97 7264.21 1592.62 7264.5 1592.39 7265.07 1592.16 7265.65 1592.05 7266.55 1592.05 7267.78 1592.05 7268.98 1592.16 7269.88 1592.39 7270.46 1592.62 7271.05 1592.97 7271.34 1593.45 7271.34 1593.92 7271.34 1594.27 7271.05 1594.49 7270.46 1594.72 7269.86 1594.83 7268.97 1594.83 7267.78 1594.83 7266.58 1594.72 7265.69 1594.49 7265.1 1594.27 7264.5 1593.92 7264.21 1593.45 7264.21ZM1573.45 7264.21C1572.97 7264.21 1572.62 7264.5 1572.39 7265.07 1572.16 7265.65 1572.05 7266.55 1572.05 7267.78 1572.05 7268.98 1572.16 7269.88 1572.39 7270.46 1572.62 7271.05 1572.97 7271.34 1573.45 7271.34 1573.92 7271.34 1574.27 7271.05 1574.49 7270.46 1574.72 7269.86 1574.83 7268.97 1574.83 7267.78 1574.83 7266.58 1574.72 7265.69 1574.49 7265.1 1574.27 7264.5 1573.92 7264.21 1573.45 7264.21ZM1583.41 7264.11C1582.98 7264.11 1582.63 7264.26 1582.37 7264.54 1582.1 7264.83 1581.97 7265.21 1581.97 7265.66 1581.97 7266.11 1582.1 7266.48 1582.37 7266.75 1582.63 7267.03 1582.98 7267.17 1583.41 7267.17 1583.82 7267.17 1584.16 7267.03 1584.43 7266.74 1584.7 7266.46 1584.83 7266.1 1584.83 7265.65 1584.83 7265.2 1584.7 7264.83 1584.43 7264.54 1584.16 7264.26 1583.82 7264.11 1583.41 7264.11ZM1546.77 7261.92 1550.11 7261.92 1552.53 7265.44 1554.97 7261.92 1558.13 7261.92 1554.03 7267.6 1558.33 7273.63 1554.96 7273.63 1552.35 7269.82 1549.69 7273.63 1546.56 7273.63 1550.86 7267.66ZM1536.64 7261.92 1546.4 7261.92 1546.4 7264.34 1542.88 7264.34 1542.88 7273.63 1540.16 7273.63 1540.16 7264.34 1536.64 7264.34ZM1526.68 7261.92 1530.93 7261.92C1531.9 7261.92 1532.75 7262.08 1533.47 7262.4 1534.19 7262.72 1534.74 7263.17 1535.13 7263.76 1535.51 7264.35 1535.7 7265.02 1535.7 7265.79 1535.7 7266.53 1535.53 7267.18 1535.17 7267.74 1534.82 7268.31 1534.32 7268.76 1533.65 7269.09L1536.81 7273.63 1533.56 7273.62 1530.97 7269.66 1530.89 7269.66 1529.41 7269.66 1529.41 7273.63 1526.68 7273.63ZM1560.57 7261.9 1567.01 7261.9 1567.01 7264.21 1562.85 7264.21 1562.59 7266.16C1562.97 7266.02 1563.4 7265.95 1563.87 7265.95 1564.54 7265.95 1565.16 7266.11 1565.72 7266.42 1566.28 7266.74 1566.73 7267.19 1567.06 7267.77 1567.4 7268.35 1567.57 7269.03 1567.57 7269.81 1567.57 7270.64 1567.38 7271.36 1567.01 7271.98 1566.63 7272.59 1566.13 7273.05 1565.49 7273.37 1564.85 7273.68 1564.14 7273.84 1563.37 7273.84 1562.45 7273.84 1561.65 7273.63 1560.99 7273.22 1560.33 7272.8 1559.85 7272.17 1559.57 7271.31L1561.74 7270.03C1561.87 7270.5 1562.07 7270.85 1562.35 7271.08 1562.63 7271.31 1562.95 7271.42 1563.33 7271.42 1563.76 7271.42 1564.1 7271.28 1564.33 7270.98 1564.56 7270.69 1564.67 7270.33 1564.67 7269.89 1564.67 7269.43 1564.55 7269.05 1564.3 7268.76 1564.06 7268.47 1563.7 7268.32 1563.23 7268.32 1562.61 7268.32 1562.13 7268.63 1561.79 7269.25L1559.79 7268.29ZM1593.45 7261.7C1594.82 7261.7 1595.87 7262.21 1596.61 7263.25 1597.36 7264.28 1597.73 7265.79 1597.73 7267.78 1597.73 7269.75 1597.36 7271.25 1596.61 7272.29 1595.87 7273.32 1594.82 7273.84 1593.45 7273.84 1592.09 7273.84 1591.03 7273.33 1590.28 7272.3 1589.53 7271.27 1589.15 7269.76 1589.15 7267.78 1589.15 7265.79 1589.53 7264.28 1590.28 7263.25 1591.03 7262.21 1592.09 7261.7 1593.45 7261.7ZM1573.45 7261.7C1574.82 7261.7 1575.87 7262.21 1576.61 7263.25 1577.36 7264.28 1577.73 7265.79 1577.73 7267.78 1577.73 7269.75 1577.36 7271.25 1576.61 7272.29 1575.87 7273.32 1574.82 7273.84 1573.45 7273.84 1572.09 7273.84 1571.03 7273.33 1570.28 7272.3 1569.53 7271.27 1569.15 7269.76 1569.15 7267.78 1569.15 7265.79 1569.53 7264.28 1570.28 7263.25 1571.03 7262.21 1572.09 7261.7 1573.45 7261.7ZM1583.37 7261.68C1584.15 7261.68 1584.87 7261.85 1585.53 7262.19 1586.18 7262.53 1586.7 7263.02 1587.09 7263.65 1587.47 7264.28 1587.66 7265 1587.66 7265.82 1587.66 7266.45 1587.55 7267.05 1587.32 7267.61 1587.09 7268.17 1586.66 7268.93 1586.05 7269.89L1583.66 7273.62 1580.73 7273.62 1582.96 7270.27C1583.12 7270.03 1583.34 7269.72 1583.61 7269.34 1583.35 7269.4 1583.1 7269.42 1582.86 7269.42 1582.12 7269.42 1581.46 7269.27 1580.89 7268.96 1580.32 7268.65 1579.87 7268.21 1579.56 7267.65 1579.24 7267.08 1579.09 7266.42 1579.09 7265.66 1579.09 7264.9 1579.28 7264.21 1579.67 7263.6 1580.06 7262.99 1580.58 7262.52 1581.24 7262.18 1581.89 7261.85 1582.61 7261.68 1583.37 7261.68Z" stroke="#000000" stroke-linejoin="round" stroke-miterlimit="10" stroke-opacity="0.54902" fill="#FFFFFF" fill-rule="evenodd"/><text fill="#000000" fill-opacity="0" font-family="Arial,Arial_MSFontService,sans-serif" font-size="12.1602" x="1526.68" y="7272.32">RTX5090</text></g></g></svg>