<svg width="1378" height="1556" xmlns="http://www.w3.org/2000/svg" xmlns:xlink="http://www.w3.org/1999/xlink" xml:space="preserve" overflow="hidden"><defs><clipPath id="clip0"><rect x="455" y="7054" width="1378" height="1556"/></clipPath></defs><g clip-path="url(#clip0)" transform="translate(-455 -7054)"><g><path d="M835 8061C843.933 8037.27 852.866 8013.11 861.8 7989.81 870.733 7966.51 879.667 7943 888.6 7921.2 897.533 7899.41 906.466 7878.56 915.4 7859.05 924.333 7839.54 933.266 7818.46 942.2 7804.13 951.133 7789.79 960.066 7783.64 969 7773.05 977.933 7762.46 986.866 7750.78 995.8 7740.61 1004.73 7730.43 1013.67 7720.03 1022.6 7712.02 1031.53 7704.01 1040.47 7699.75 1049.4 7692.52 1058.33 7685.3 1067.27 7675.9 1076.2 7668.68 1085.13 7661.46 1094.07 7655.78 1103 7649.18 1111.93 7642.59 1120.87 7635.39 1129.8 7629.1 1138.73 7622.81 1147.67 7617.35 1156.6 7611.46 1165.53 7605.57 1174.47 7599.62 1183.4 7593.77 1192.33 7587.92 1201.27 7582.75 1210.2 7576.38 1219.13 7570 1228.07 7560.54 1237 7555.51 1245.93 7550.48 1254.87 7550.74 1263.8 7546.18 1272.73 7541.62 1281.67 7534.51 1290.6 7528.15 1299.53 7521.79 1308.47 7514.46 1317.4 7508.02 1326.33 7501.58 1335.27 7497.63 1344.2 7489.5 1353.13 7481.37 1362.07 7467.76 1371 7459.25 1379.93 7450.74 1388.87 7444.67 1397.8 7438.44 1406.73 7432.21 1415.67 7426.9 1424.6 7421.87 1433.53 7416.84 1442.47 7413.38 1451.4 7408.24 1460.33 7403.1 1469.27 7395.41 1478.2 7391.04 1487.13 7386.67 1496.07 7385.01 1505 7382" stroke="#AD00D0" stroke-width="4.125" stroke-linecap="round" stroke-linejoin="round" stroke-miterlimit="10" fill="none"/></g><g><path d="M1578.92 7360.25C1578.48 7360.25 1578.13 7360.39 1577.86 7360.66 1577.6 7360.93 1577.46 7361.29 1577.46 7361.74 1577.46 7362.19 1577.6 7362.54 1577.87 7362.81 1578.14 7363.08 1578.49 7363.21 1578.92 7363.21 1579.32 7363.21 1579.66 7363.08 1579.92 7362.81 1580.18 7362.54 1580.31 7362.19 1580.31 7361.74 1580.31 7361.29 1580.18 7360.93 1579.93 7360.66 1579.68 7360.39 1579.34 7360.25 1578.92 7360.25ZM1524.85 7356.01 1524.85 7359.16 1526.05 7359.16C1526.65 7359.16 1527.17 7359.04 1527.61 7358.8 1528.04 7358.56 1528.25 7358.15 1528.25 7357.58 1528.25 7356.53 1527.52 7356.01 1526.05 7356.01ZM1588.89 7355.99C1588.41 7355.99 1588.05 7356.28 1587.82 7356.86 1587.59 7357.43 1587.48 7358.34 1587.48 7359.56 1587.48 7360.77 1587.59 7361.66 1587.82 7362.25 1588.05 7362.84 1588.41 7363.13 1588.89 7363.13 1589.36 7363.13 1589.7 7362.83 1589.93 7362.24 1590.15 7361.65 1590.26 7360.76 1590.26 7359.56 1590.26 7358.37 1590.15 7357.47 1589.93 7356.88 1589.7 7356.29 1589.36 7355.99 1588.89 7355.99ZM1568.89 7355.99C1568.41 7355.99 1568.05 7356.28 1567.82 7356.86 1567.59 7357.43 1567.48 7358.34 1567.48 7359.56 1567.48 7360.77 1567.59 7361.66 1567.82 7362.25 1568.05 7362.84 1568.41 7363.13 1568.89 7363.13 1569.36 7363.13 1569.7 7362.83 1569.93 7362.24 1570.15 7361.65 1570.26 7360.76 1570.26 7359.56 1570.26 7358.37 1570.15 7357.47 1569.93 7356.88 1569.7 7356.29 1569.36 7355.99 1568.89 7355.99ZM1578.92 7355.72C1578.58 7355.72 1578.3 7355.83 1578.1 7356.04 1577.9 7356.26 1577.8 7356.52 1577.8 7356.84 1577.8 7357.16 1577.9 7357.43 1578.1 7357.63 1578.3 7357.84 1578.58 7357.95 1578.92 7357.95 1579.25 7357.95 1579.52 7357.84 1579.73 7357.63 1579.95 7357.43 1580.05 7357.16 1580.05 7356.84 1580.05 7356.53 1579.95 7356.27 1579.73 7356.05 1579.52 7355.83 1579.25 7355.72 1578.92 7355.72ZM1542.2 7353.71 1545.54 7353.71 1547.96 7357.23 1550.41 7353.71 1553.56 7353.71 1549.46 7359.39 1553.77 7365.42 1550.39 7365.42 1547.78 7361.61 1545.13 7365.42 1541.99 7365.42 1546.29 7359.45ZM1532.07 7353.71 1541.83 7353.71 1541.83 7356.12 1538.31 7356.12 1538.31 7365.42 1535.59 7365.42 1535.59 7356.12 1532.07 7356.12ZM1522.11 7353.71 1526.37 7353.71C1527.34 7353.71 1528.18 7353.87 1528.9 7354.19 1529.62 7354.51 1530.17 7354.96 1530.56 7355.55 1530.94 7356.13 1531.13 7356.81 1531.13 7357.58 1531.13 7358.31 1530.96 7358.96 1530.61 7359.53 1530.25 7360.1 1529.75 7360.54 1529.09 7360.87L1532.24 7365.42 1528.99 7365.4 1526.4 7361.45 1526.32 7361.45 1524.85 7361.45 1524.85 7365.42 1522.11 7365.42ZM1556.01 7353.69 1562.44 7353.69 1562.44 7355.99 1558.28 7355.99 1558.02 7357.95C1558.41 7357.81 1558.83 7357.74 1559.3 7357.74 1559.97 7357.74 1560.59 7357.9 1561.15 7358.21 1561.71 7358.52 1562.16 7358.97 1562.49 7359.55 1562.83 7360.14 1563 7360.82 1563 7361.59 1563 7362.43 1562.81 7363.15 1562.44 7363.76 1562.06 7364.38 1561.56 7364.84 1560.92 7365.15 1560.28 7365.47 1559.57 7365.63 1558.81 7365.63 1557.88 7365.63 1557.08 7365.42 1556.42 7365 1555.76 7364.59 1555.29 7363.95 1555 7363.1L1557.17 7361.82C1557.3 7362.29 1557.5 7362.64 1557.78 7362.87 1558.06 7363.1 1558.38 7363.21 1558.76 7363.21 1559.2 7363.21 1559.53 7363.06 1559.76 7362.77 1559.99 7362.48 1560.1 7362.11 1560.1 7361.67 1560.1 7361.22 1559.98 7360.84 1559.73 7360.55 1559.49 7360.25 1559.13 7360.11 1558.66 7360.11 1558.04 7360.11 1557.56 7360.42 1557.22 7361.03L1555.22 7360.07ZM1588.89 7353.48C1590.25 7353.48 1591.3 7354 1592.05 7355.03 1592.79 7356.07 1593.16 7357.58 1593.16 7359.56 1593.16 7361.54 1592.79 7363.04 1592.05 7364.07 1591.3 7365.11 1590.25 7365.63 1588.89 7365.63 1587.52 7365.63 1586.46 7365.11 1585.71 7364.08 1584.96 7363.05 1584.58 7361.55 1584.58 7359.56 1584.58 7357.58 1584.96 7356.07 1585.71 7355.03 1586.46 7354 1587.52 7353.48 1588.89 7353.48ZM1568.89 7353.48C1570.25 7353.48 1571.3 7354 1572.05 7355.03 1572.79 7356.07 1573.16 7357.58 1573.16 7359.56 1573.16 7361.54 1572.79 7363.04 1572.05 7364.07 1571.3 7365.11 1570.25 7365.63 1568.89 7365.63 1567.52 7365.63 1566.46 7365.11 1565.71 7364.08 1564.96 7363.05 1564.58 7361.55 1564.58 7359.56 1564.58 7357.58 1564.96 7356.07 1565.71 7355.03 1566.46 7354 1567.52 7353.48 1568.89 7353.48ZM1578.92 7353.47C1579.75 7353.47 1580.45 7353.61 1581.02 7353.89 1581.59 7354.17 1582.02 7354.56 1582.3 7355.04 1582.58 7355.53 1582.73 7356.07 1582.73 7356.68 1582.73 7357.22 1582.6 7357.68 1582.36 7358.09 1582.11 7358.5 1581.77 7358.82 1581.32 7359.05 1581.9 7359.34 1582.36 7359.73 1582.69 7360.23 1583.02 7360.74 1583.19 7361.34 1583.19 7362.04 1583.19 7362.75 1583.02 7363.37 1582.67 7363.91 1582.32 7364.46 1581.83 7364.88 1581.18 7365.18 1580.54 7365.48 1579.78 7365.63 1578.92 7365.63 1578.03 7365.63 1577.26 7365.47 1576.61 7365.17 1575.95 7364.87 1575.45 7364.44 1575.09 7363.91 1574.74 7363.37 1574.57 7362.75 1574.57 7362.04 1574.57 7361.34 1574.73 7360.74 1575.07 7360.23 1575.41 7359.73 1575.87 7359.34 1576.45 7359.07 1575.98 7358.82 1575.62 7358.5 1575.36 7358.09 1575.1 7357.68 1574.97 7357.22 1574.97 7356.68 1574.97 7356.1 1575.12 7355.56 1575.42 7355.07 1575.73 7354.58 1576.18 7354.19 1576.77 7353.9 1577.37 7353.61 1578.09 7353.47 1578.92 7353.47Z" stroke="#000000" stroke-linejoin="round" stroke-miterlimit="10" stroke-opacity="0.54902" fill="#FFFFFF" fill-rule="evenodd"/><text fill="#000000" fill-opacity="0" font-family="Arial,Arial_MSFontService,sans-serif" font-size="12.1602" x="1522.11" y="7364.11">RTX5080</text></g></g></svg>