<svg width="1378" height="1556" xmlns="http://www.w3.org/2000/svg" xmlns:xlink="http://www.w3.org/1999/xlink" xml:space="preserve" overflow="hidden"><defs><clipPath id="clip0"><rect x="455" y="7054" width="1378" height="1556"/></clipPath></defs><g clip-path="url(#clip0)" transform="translate(-455 -7054)"><g><path d="M782 8070C790.911 8057.11 799.822 8042.54 808.733 8031.34 817.644 8020.14 826.555 8011.68 835.467 8002.78 844.378 7993.88 853.289 7987.12 862.2 7977.94 871.111 7968.75 880.022 7956.1 888.933 7947.67 897.844 7939.24 906.755 7934.66 915.667 7927.37 924.578 7920.08 933.489 7912.23 942.4 7903.94 951.311 7895.65 960.222 7885.79 969.133 7877.63 978.044 7869.47 986.955 7861.36 995.867 7854.98 1004.78 7848.59 1013.69 7844.25 1022.6 7839.31 1031.51 7834.37 1040.42 7829.32 1049.33 7825.35 1058.24 7821.38 1067.16 7818.46 1076.07 7815.49 1084.98 7812.51 1093.89 7810.07 1102.8 7807.48 1111.71 7804.89 1120.62 7802.92 1129.53 7799.96 1138.44 7797.01 1147.36 7792.76 1156.27 7789.76 1165.18 7786.77 1174.09 7784.59 1183 7782" stroke="#AD00D0" stroke-width="4.125" stroke-linecap="round" stroke-linejoin="round" stroke-miterlimit="10" fill="none"/></g><g><path d="M1203.44 7769.92 1203.44 7773.07 1204.64 7773.07C1205.25 7773.07 1205.77 7772.95 1206.2 7772.71 1206.63 7772.47 1206.85 7772.06 1206.85 7771.48 1206.85 7770.44 1206.11 7769.92 1204.64 7769.92ZM1267.48 7769.9C1267 7769.9 1266.65 7770.19 1266.42 7770.76 1266.19 7771.34 1266.07 7772.24 1266.07 7773.47 1266.07 7774.67 1266.19 7775.57 1266.42 7776.16 1266.65 7776.74 1267 7777.04 1267.48 7777.04 1267.95 7777.04 1268.3 7776.74 1268.52 7776.15 1268.74 7775.56 1268.86 7774.66 1268.86 7773.47 1268.86 7772.27 1268.74 7771.38 1268.52 7770.79 1268.3 7770.2 1267.95 7769.9 1267.48 7769.9ZM1247.48 7769.9C1247 7769.9 1246.65 7770.19 1246.42 7770.76 1246.19 7771.34 1246.07 7772.24 1246.07 7773.47 1246.07 7774.67 1246.19 7775.57 1246.42 7776.16 1246.65 7776.74 1247 7777.04 1247.48 7777.04 1247.95 7777.04 1248.3 7776.74 1248.52 7776.15 1248.74 7775.56 1248.86 7774.66 1248.86 7773.47 1248.86 7772.27 1248.74 7771.38 1248.52 7770.79 1248.3 7770.2 1247.95 7769.9 1247.48 7769.9ZM1220.79 7767.61 1224.14 7767.61 1226.55 7771.13 1229 7767.61 1232.15 7767.61 1228.06 7773.29 1232.36 7779.32 1228.98 7779.32 1226.38 7775.52 1223.72 7779.32 1220.58 7779.32 1224.89 7773.36ZM1210.66 7767.61 1220.42 7767.61 1220.42 7770.03 1216.9 7770.03 1216.9 7779.32 1214.18 7779.32 1214.18 7770.03 1210.66 7770.03ZM1200.7 7767.61 1204.96 7767.61C1205.93 7767.61 1206.78 7767.77 1207.5 7768.09 1208.22 7768.41 1208.77 7768.86 1209.15 7769.45 1209.54 7770.04 1209.73 7770.72 1209.73 7771.48 1209.73 7772.22 1209.55 7772.87 1209.2 7773.44 1208.85 7774 1208.34 7774.45 1207.68 7774.78L1210.83 7779.32 1207.58 7779.31 1204.99 7775.36 1204.91 7775.36 1203.44 7775.36 1203.44 7779.32 1200.7 7779.32ZM1253.4 7767.6 1261.51 7767.6 1261.51 7769.31 1257.61 7779.32 1254.65 7779.32 1258.46 7769.98 1253.4 7769.98ZM1234.6 7767.6 1241.03 7767.6 1241.03 7769.9 1236.87 7769.9 1236.62 7771.85C1237 7771.71 1237.43 7771.64 1237.9 7771.64 1238.57 7771.64 1239.18 7771.8 1239.74 7772.12 1240.3 7772.43 1240.75 7772.88 1241.09 7773.46 1241.42 7774.04 1241.59 7774.72 1241.59 7775.5 1241.59 7776.33 1241.41 7777.05 1241.03 7777.67 1240.66 7778.28 1240.15 7778.74 1239.51 7779.06 1238.87 7779.37 1238.17 7779.53 1237.4 7779.53 1236.47 7779.53 1235.68 7779.32 1235.02 7778.91 1234.35 7778.49 1233.88 7777.86 1233.59 7777L1235.77 7775.72C1235.9 7776.19 1236.1 7776.54 1236.38 7776.77 1236.65 7777 1236.98 7777.12 1237.35 7777.12 1237.79 7777.12 1238.12 7776.97 1238.35 7776.68 1238.58 7776.38 1238.7 7776.02 1238.7 7775.58 1238.7 7775.12 1238.57 7774.74 1238.33 7774.45 1238.08 7774.16 1237.73 7774.01 1237.26 7774.01 1236.64 7774.01 1236.16 7774.32 1235.82 7774.94L1233.82 7773.98ZM1267.48 7767.39C1268.85 7767.39 1269.9 7767.9 1270.64 7768.94 1271.38 7769.97 1271.75 7771.48 1271.75 7773.47 1271.75 7775.44 1271.38 7776.94 1270.64 7777.98 1269.9 7779.01 1268.85 7779.53 1267.48 7779.53 1266.11 7779.53 1265.06 7779.02 1264.3 7777.99 1263.55 7776.96 1263.18 7775.45 1263.18 7773.47 1263.18 7771.48 1263.55 7769.97 1264.3 7768.94 1265.06 7767.9 1266.11 7767.39 1267.48 7767.39ZM1247.48 7767.39C1248.85 7767.39 1249.9 7767.9 1250.64 7768.94 1251.38 7769.97 1251.75 7771.48 1251.75 7773.47 1251.75 7775.44 1251.38 7776.94 1250.64 7777.98 1249.9 7779.01 1248.85 7779.53 1247.48 7779.53 1246.11 7779.53 1245.06 7779.02 1244.3 7777.99 1243.55 7776.96 1243.18 7775.45 1243.18 7773.47 1243.18 7771.48 1243.55 7769.97 1244.3 7768.94 1245.06 7767.9 1246.11 7767.39 1247.48 7767.39Z" stroke="#000000" stroke-linejoin="round" stroke-miterlimit="10" stroke-opacity="0.54902" fill="#FFFFFF" fill-rule="evenodd"/><text fill="#000000" fill-opacity="0" font-family="Arial,Arial_MSFontService,sans-serif" font-size="12.144" x="1200.7" y="7778.01">RTX5070</text></g></g></svg>