<svg width="1378" height="1556" xmlns="http://www.w3.org/2000/svg" xmlns:xlink="http://www.w3.org/1999/xlink" xml:space="preserve" overflow="hidden"><defs><clipPath id="clip0"><rect x="455" y="7054" width="1378" height="1556"/></clipPath></defs><g clip-path="url(#clip0)" transform="translate(-455 -7054)"><g><path d="M782 8150C790.917 8127.96 799.833 8105.33 808.75 8083.89 817.667 8062.46 826.583 8041.51 835.5 8021.4 844.417 8001.28 853.333 7980.73 862.25 7963.19 871.166 7945.65 880.083 7928.74 889 7916.16 897.916 7903.58 906.833 7896.92 915.75 7887.72 924.666 7878.52 933.583 7869.18 942.5 7860.94 951.416 7852.69 960.333 7844.98 969.25 7838.25 978.166 7831.52 987.083 7826.95 996 7820.54 1004.92 7814.13 1013.83 7806.72 1022.75 7799.81 1031.67 7792.89 1040.58 7786.02 1049.5 7779.07 1058.42 7772.12 1067.33 7766 1076.25 7758.09 1085.17 7750.18 1094.08 7738.61 1103 7731.6 1111.92 7724.59 1120.83 7721.5 1129.75 7716.04 1138.67 7710.57 1147.58 7704.58 1156.5 7698.82 1165.42 7693.05 1174.33 7686.77 1183.25 7681.45 1192.17 7676.12 1201.08 7671.93 1210 7666.86 1218.92 7661.79 1227.83 7655.31 1236.75 7651 1245.67 7646.7 1254.58 7644.37 1263.5 7641.05 1272.42 7637.73 1281.33 7634.77 1290.25 7631.1 1299.17 7627.42 1308.08 7623.03 1317 7619" stroke="#AD00D0" stroke-width="4.125" stroke-linecap="round" stroke-linejoin="round" stroke-miterlimit="10" fill="none"/></g><g><path d="M1389.93 7589.26 1392.54 7589.26 1392.54 7597.54 1389.93 7597.54ZM1309.87 7588.13 1309.87 7591.28 1311.07 7591.28C1311.68 7591.28 1312.2 7591.16 1312.63 7590.92 1313.06 7590.68 1313.28 7590.27 1313.28 7589.7 1313.28 7588.65 1312.54 7588.13 1311.07 7588.13ZM1373.91 7588.11C1373.43 7588.11 1373.08 7588.4 1372.85 7588.98 1372.62 7589.55 1372.5 7590.45 1372.5 7591.68 1372.5 7592.89 1372.62 7593.78 1372.85 7594.37 1373.08 7594.95 1373.43 7595.25 1373.91 7595.25 1374.38 7595.25 1374.73 7594.95 1374.95 7594.36 1375.18 7593.77 1375.29 7592.88 1375.29 7591.68 1375.29 7590.49 1375.18 7589.59 1374.95 7589 1374.73 7588.41 1374.38 7588.11 1373.91 7588.11ZM1353.91 7588.11C1353.43 7588.11 1353.08 7588.4 1352.85 7588.98 1352.62 7589.55 1352.5 7590.45 1352.5 7591.68 1352.5 7592.89 1352.62 7593.78 1352.85 7594.37 1353.08 7594.95 1353.43 7595.25 1353.91 7595.25 1354.38 7595.25 1354.73 7594.95 1354.95 7594.36 1355.18 7593.77 1355.29 7592.88 1355.29 7591.68 1355.29 7590.49 1355.18 7589.59 1354.95 7589 1354.73 7588.41 1354.38 7588.11 1353.91 7588.11ZM1379.1 7585.82 1388.86 7585.82 1388.86 7588.24 1385.34 7588.24 1385.34 7597.54 1382.62 7597.54 1382.62 7588.24 1379.1 7588.24ZM1327.22 7585.82 1330.57 7585.82 1332.98 7589.34 1335.43 7585.82 1338.58 7585.82 1334.49 7591.5 1338.79 7597.54 1335.42 7597.54 1332.81 7593.73 1330.15 7597.54 1327.02 7597.54 1331.32 7591.57ZM1317.1 7585.82 1326.86 7585.82 1326.86 7588.24 1323.34 7588.24 1323.34 7597.54 1320.62 7597.54 1320.62 7588.24 1317.1 7588.24ZM1307.14 7585.82 1311.39 7585.82C1312.36 7585.82 1313.21 7585.98 1313.93 7586.3 1314.65 7586.62 1315.2 7587.08 1315.58 7587.66 1315.97 7588.25 1316.16 7588.93 1316.16 7589.7 1316.16 7590.43 1315.98 7591.08 1315.63 7591.65 1315.28 7592.21 1314.77 7592.66 1314.11 7592.99L1317.26 7597.54 1314.02 7597.52 1311.42 7593.57 1311.34 7593.57 1309.87 7593.57 1309.87 7597.54 1307.14 7597.54ZM1359.83 7585.81 1367.94 7585.81 1367.94 7587.52 1364.04 7597.54 1361.08 7597.54 1364.89 7588.19 1359.83 7588.19ZM1341.03 7585.81 1347.46 7585.81 1347.46 7588.11 1343.3 7588.11 1343.05 7590.06C1343.43 7589.93 1343.86 7589.86 1344.33 7589.86 1345 7589.86 1345.62 7590.01 1346.18 7590.33 1346.74 7590.64 1347.18 7591.09 1347.52 7591.67 1347.86 7592.25 1348.02 7592.93 1348.02 7593.71 1348.02 7594.54 1347.84 7595.27 1347.46 7595.88 1347.09 7596.49 1346.58 7596.96 1345.94 7597.27 1345.3 7597.59 1344.6 7597.74 1343.83 7597.74 1342.9 7597.74 1342.11 7597.54 1341.45 7597.12 1340.79 7596.7 1340.31 7596.07 1340.02 7595.22L1342.2 7593.94C1342.33 7594.41 1342.53 7594.75 1342.81 7594.98 1343.08 7595.21 1343.41 7595.33 1343.78 7595.33 1344.22 7595.33 1344.55 7595.18 1344.78 7594.89 1345.01 7594.59 1345.13 7594.23 1345.13 7593.79 1345.13 7593.33 1345.01 7592.96 1344.76 7592.66 1344.51 7592.37 1344.16 7592.22 1343.69 7592.22 1343.07 7592.22 1342.59 7592.53 1342.25 7593.15L1340.25 7592.19ZM1373.91 7585.6C1375.28 7585.6 1376.33 7586.12 1377.07 7587.15 1377.81 7588.19 1378.18 7589.7 1378.18 7591.68 1378.18 7593.65 1377.81 7595.16 1377.07 7596.19 1376.33 7597.23 1375.28 7597.74 1373.91 7597.74 1372.55 7597.74 1371.49 7597.23 1370.74 7596.2 1369.98 7595.17 1369.61 7593.66 1369.61 7591.68 1369.61 7589.7 1369.98 7588.19 1370.74 7587.15 1371.49 7586.12 1372.55 7585.6 1373.91 7585.6ZM1353.91 7585.6C1355.28 7585.6 1356.33 7586.12 1357.07 7587.15 1357.81 7588.19 1358.18 7589.7 1358.18 7591.68 1358.18 7593.65 1357.81 7595.16 1357.07 7596.19 1356.33 7597.23 1355.28 7597.74 1353.91 7597.74 1352.55 7597.74 1351.49 7597.23 1350.74 7596.2 1349.98 7595.17 1349.61 7593.66 1349.61 7591.68 1349.61 7589.7 1349.98 7588.19 1350.74 7587.15 1351.49 7586.12 1352.55 7585.6 1353.91 7585.6ZM1391.22 7585.3C1391.63 7585.3 1391.98 7585.45 1392.29 7585.76 1392.59 7586.07 1392.74 7586.43 1392.74 7586.85 1392.74 7587.26 1392.59 7587.62 1392.3 7587.93 1392 7588.23 1391.64 7588.38 1391.22 7588.38 1390.81 7588.38 1390.45 7588.23 1390.15 7587.93 1389.85 7587.62 1389.7 7587.26 1389.7 7586.85 1389.7 7586.42 1389.85 7586.06 1390.14 7585.75 1390.44 7585.45 1390.8 7585.3 1391.22 7585.3Z" stroke="#000000" stroke-linejoin="round" stroke-miterlimit="10" stroke-opacity="0.54902" fill="#FFFFFF" fill-rule="evenodd"/><text fill="#000000" fill-opacity="0" font-family="Arial,Arial_MSFontService,sans-serif" font-size="12.4482" x="1307.14" y="7596.19">RTX5070Ti</text></g></g></svg>