<svg width="1378" height="1556" xmlns="http://www.w3.org/2000/svg" xmlns:xlink="http://www.w3.org/1999/xlink" xml:space="preserve" overflow="hidden"><defs><clipPath id="clip0"><rect x="455" y="7054" width="1378" height="1556"/></clipPath></defs><g clip-path="url(#clip0)" transform="translate(-455 -7054)"><g><path d="M755 8182C763.916 8173.24 772.833 8164.26 781.75 8155.73 790.666 8147.2 799.583 8139.39 808.5 8130.83 817.416 8122.27 826.333 8112.23 835.25 8104.36 844.166 8096.5 853.083 8089.49 862 8083.63 870.916 8077.77 879.833 8073.87 888.75 8069.22 897.666 8064.57 906.583 8059.71 915.5 8055.74 924.416 8051.77 933.333 8048.65 942.25 8045.4 951.166 8042.15 960.083 8040.91 969 8036.24 977.916 8031.56 986.833 8021.87 995.75 8017.37 1004.67 8012.87 1013.58 8011.55 1022.5 8009.23 1031.42 8006.91 1040.33 8004.23 1049.25 8003.45 1058.17 8002.66 1067.08 8004.93 1076 8004.53 1084.92 8004.12 1093.83 8001.5 1102.75 8001 1111.67 8000.49 1120.58 8001.63 1129.5 8001.49 1138.42 8001.34 1147.33 8000.23 1156.25 8000.11 1165.17 8000 1174.08 8000.57 1183 8000.8" stroke="#AD00D0" stroke-width="4.125" stroke-linecap="round" stroke-linejoin="round" stroke-miterlimit="10" fill="none"/></g><g><path d="M1194.28 7998.29 1194.28 8001.45 1195.48 8001.45C1196.09 8001.45 1196.61 8001.33 1197.04 8001.09 1197.47 8000.85 1197.69 8000.44 1197.69 7999.86 1197.69 7998.82 1196.95 7998.29 1195.48 7998.29ZM1258.32 7998.28C1257.84 7998.28 1257.48 7998.57 1257.25 7999.14 1257.03 7999.72 1256.91 8000.62 1256.91 8001.85 1256.91 8003.05 1257.03 8003.95 1257.25 8004.54 1257.48 8005.12 1257.84 8005.42 1258.32 8005.42 1258.79 8005.42 1259.13 8005.12 1259.36 8004.53 1259.58 8003.94 1259.69 8003.04 1259.69 8001.85 1259.69 8000.65 1259.58 7999.76 1259.36 7999.17 1259.13 7998.58 1258.79 7998.28 1258.32 7998.28ZM1238.32 7998.28C1237.84 7998.28 1237.48 7998.57 1237.25 7999.14 1237.03 7999.72 1236.91 8000.62 1236.91 8001.85 1236.91 8003.05 1237.03 8003.95 1237.25 8004.54 1237.48 8005.12 1237.84 8005.42 1238.32 8005.42 1238.79 8005.42 1239.13 8005.12 1239.36 8004.53 1239.58 8003.94 1239.69 8003.04 1239.69 8001.85 1239.69 8000.65 1239.58 7999.76 1239.36 7999.17 1239.13 7998.58 1238.79 7998.28 1238.32 7998.28ZM1211.63 7995.99 1214.97 7995.99 1217.39 7999.51 1219.84 7995.99 1222.99 7995.99 1218.89 8001.67 1223.2 8007.7 1219.82 8007.7 1217.21 8003.9 1214.56 8007.7 1211.42 8007.7 1215.73 8001.74ZM1201.5 7995.99 1211.26 7995.99 1211.26 7998.41 1207.74 7998.41 1207.74 8007.7 1205.02 8007.7 1205.02 7998.41 1201.5 7998.41ZM1191.54 7995.99 1195.8 7995.99C1196.77 7995.99 1197.61 7996.15 1198.33 7996.47 1199.05 7996.79 1199.61 7997.24 1199.99 7997.83 1200.37 7998.42 1200.57 7999.1 1200.57 7999.86 1200.57 8000.6 1200.39 8001.25 1200.04 8001.81 1199.69 8002.38 1199.18 8002.83 1198.52 8003.16L1201.67 8007.7 1198.42 8007.69 1195.83 8003.74 1195.75 8003.74 1194.28 8003.74 1194.28 8007.7 1191.54 8007.7ZM1245.44 7995.98 1251.87 7995.98 1251.87 7998.28 1247.71 7998.28 1247.45 8000.23C1247.84 8000.09 1248.27 8000.02 1248.73 8000.02 1249.41 8000.02 1250.02 8000.18 1250.58 8000.5 1251.14 8000.81 1251.59 8001.26 1251.93 8001.84 1252.26 8002.42 1252.43 8003.1 1252.43 8003.88 1252.43 8004.71 1252.24 8005.43 1251.87 8006.05 1251.5 8006.66 1250.99 8007.12 1250.35 8007.44 1249.71 8007.75 1249.01 8007.91 1248.24 8007.91 1247.31 8007.91 1246.52 8007.7 1245.85 8007.29 1245.19 8006.87 1244.72 8006.24 1244.43 8005.38L1246.61 8004.1C1246.73 8004.57 1246.94 8004.92 1247.21 8005.15 1247.49 8005.38 1247.82 8005.5 1248.19 8005.5 1248.63 8005.5 1248.96 8005.35 1249.19 8005.06 1249.42 8004.76 1249.53 8004.4 1249.53 8003.96 1249.53 8003.5 1249.41 8003.12 1249.17 8002.83 1248.92 8002.54 1248.56 8002.39 1248.09 8002.39 1247.48 8002.39 1247 8002.7 1246.65 8003.32L1244.65 8002.36ZM1225.44 7995.98 1231.87 7995.98 1231.87 7998.28 1227.71 7998.28 1227.45 8000.23C1227.84 8000.09 1228.27 8000.02 1228.73 8000.02 1229.41 8000.02 1230.02 8000.18 1230.58 8000.5 1231.14 8000.81 1231.59 8001.26 1231.93 8001.84 1232.26 8002.42 1232.43 8003.1 1232.43 8003.88 1232.43 8004.71 1232.24 8005.43 1231.87 8006.05 1231.5 8006.66 1230.99 8007.12 1230.35 8007.44 1229.71 8007.75 1229.01 8007.91 1228.24 8007.91 1227.31 8007.91 1226.52 8007.7 1225.85 8007.29 1225.19 8006.87 1224.72 8006.24 1224.43 8005.38L1226.61 8004.1C1226.73 8004.57 1226.94 8004.92 1227.21 8005.15 1227.49 8005.38 1227.82 8005.5 1228.19 8005.5 1228.63 8005.5 1228.96 8005.35 1229.19 8005.06 1229.42 8004.76 1229.53 8004.4 1229.53 8003.96 1229.53 8003.5 1229.41 8003.12 1229.17 8002.83 1228.92 8002.54 1228.56 8002.39 1228.09 8002.39 1227.48 8002.39 1227 8002.7 1226.65 8003.32L1224.65 8002.36ZM1258.32 7995.77C1259.68 7995.77 1260.74 7996.28 1261.48 7997.32 1262.22 7998.35 1262.59 7999.86 1262.59 8001.85 1262.59 8003.82 1262.22 8005.32 1261.48 8006.36 1260.74 8007.39 1259.68 8007.91 1258.32 8007.91 1256.95 8007.91 1255.89 8007.4 1255.14 8006.37 1254.39 8005.34 1254.01 8003.83 1254.01 8001.85 1254.01 7999.86 1254.39 7998.35 1255.14 7997.32 1255.89 7996.28 1256.95 7995.77 1258.32 7995.77ZM1238.32 7995.77C1239.68 7995.77 1240.74 7996.28 1241.48 7997.32 1242.22 7998.35 1242.59 7999.86 1242.59 8001.85 1242.59 8003.82 1242.22 8005.32 1241.48 8006.36 1240.74 8007.39 1239.68 8007.91 1238.32 8007.91 1236.95 8007.91 1235.89 8007.4 1235.14 8006.37 1234.39 8005.34 1234.01 8003.83 1234.01 8001.85 1234.01 7999.86 1234.39 7998.35 1235.14 7997.32 1235.89 7996.28 1236.95 7995.77 1238.32 7995.77Z" stroke="#000000" stroke-linejoin="round" stroke-miterlimit="10" stroke-opacity="0.54902" fill="#FFFFFF" fill-rule="evenodd"/><text fill="#000000" fill-opacity="0" font-family="Arial,Arial_MSFontService,sans-serif" font-size="12.144" x="1191.54" y="8006.39">RTX5050</text></g></g></svg>