<svg width="1378" height="1556" xmlns="http://www.w3.org/2000/svg" xmlns:xlink="http://www.w3.org/1999/xlink" xml:space="preserve" overflow="hidden"><defs><clipPath id="clip0"><rect x="455" y="7054" width="1378" height="1556"/></clipPath></defs><g clip-path="url(#clip0)" transform="translate(-455 -7054)"><g><path d="M999.946 8119.84C999.946 8122.05 998.155 8123.84 995.946 8123.84 993.737 8123.84 991.947 8122.05 991.947 8119.84 991.947 8117.63 993.737 8115.84 995.946 8115.84 998.155 8115.84 999.946 8117.63 999.946 8119.84Z" stroke="#BFBFBF" stroke-width="3.4375" stroke-linejoin="round" stroke-miterlimit="10" fill="#BFBFBF"/></g><g><path d="M952.05 8130.85C951.623 8130.85 951.276 8130.99 951.01 8131.27 950.743 8131.55 950.61 8131.92 950.61 8132.37 950.61 8132.81 950.746 8133.18 951.018 8133.47 951.29 8133.76 951.634 8133.9 952.05 8133.9 952.466 8133.9 952.807 8133.76 953.074 8133.47 953.341 8133.18 953.474 8132.81 953.474 8132.35 953.474 8131.9 953.341 8131.54 953.074 8131.26 952.807 8130.99 952.466 8130.85 952.05 8130.85ZM943.05 8130.85C942.623 8130.85 942.276 8130.99 942.01 8131.27 941.743 8131.55 941.61 8131.92 941.61 8132.37 941.61 8132.81 941.746 8133.18 942.018 8133.47 942.29 8133.76 942.634 8133.9 943.05 8133.9 943.466 8133.9 943.807 8133.76 944.074 8133.47 944.341 8133.18 944.474 8132.81 944.474 8132.35 944.474 8131.9 944.341 8131.54 944.074 8131.26 943.807 8130.99 943.466 8130.85 943.05 8130.85ZM913.962 8126.72 913.962 8129.87 915.162 8129.87C915.77 8129.87 916.29 8129.75 916.722 8129.51 917.154 8129.27 917.37 8128.86 917.37 8128.29 917.37 8127.24 916.634 8126.72 915.162 8126.72ZM972.002 8126.7C971.522 8126.7 971.167 8126.99 970.938 8127.57 970.708 8128.14 970.594 8129.04 970.594 8130.27 970.594 8131.48 970.708 8132.37 970.938 8132.96 971.167 8133.55 971.522 8133.84 972.002 8133.84 972.471 8133.84 972.818 8133.54 973.042 8132.95 973.266 8132.36 973.378 8131.47 973.378 8130.27 973.378 8129.08 973.266 8128.18 973.042 8127.59 972.818 8127 972.471 8126.7 972.002 8126.7ZM962.002 8126.7C961.522 8126.7 961.167 8126.99 960.938 8127.57 960.708 8128.14 960.594 8129.04 960.594 8130.27 960.594 8131.48 960.708 8132.37 960.938 8132.96 961.167 8133.55 961.522 8133.84 962.002 8133.84 962.471 8133.84 962.818 8133.54 963.042 8132.95 963.266 8132.36 963.378 8131.47 963.378 8130.27 963.378 8129.08 963.266 8128.18 963.042 8127.59 962.818 8127 962.471 8126.7 962.002 8126.7ZM911.226 8124.42 915.482 8124.42C916.453 8124.42 917.298 8124.58 918.018 8124.9 918.738 8125.21 919.29 8125.67 919.674 8126.25 920.058 8126.84 920.25 8127.52 920.25 8128.29 920.25 8129.02 920.074 8129.67 919.722 8130.24 919.37 8130.8 918.863 8131.25 918.202 8131.58L921.232 8135.95 925.41 8130.16 921.314 8124.42 924.658 8124.42 927.074 8127.94 929.522 8124.42 932.674 8124.42 928.578 8130.09 932.882 8136.13 929.506 8136.13 926.898 8132.32 924.242 8136.13 921.354 8136.13 921.106 8136.13 921.107 8136.13 918.106 8136.11 915.514 8132.16 915.434 8132.16 913.962 8132.16 913.962 8136.13 911.226 8136.13ZM951.778 8124.4 954.706 8124.4 952.498 8127.74C952.135 8128.25 951.911 8128.56 951.826 8128.67 952.093 8128.62 952.343 8128.59 952.578 8128.59 953.325 8128.59 953.983 8128.75 954.554 8129.06 955.125 8129.36 955.57 8129.8 955.89 8130.37 956.21 8130.93 956.37 8131.59 956.37 8132.35 956.37 8133.12 956.175 8133.81 955.786 8134.42 955.396 8135.02 954.871 8135.5 954.21 8135.83 953.549 8136.17 952.834 8136.33 952.066 8136.33 951.287 8136.33 950.57 8136.16 949.914 8135.82 949.258 8135.48 948.738 8135 948.354 8134.37 947.97 8133.74 947.778 8133.01 947.778 8132.19 947.778 8131.57 947.893 8130.98 948.122 8130.42 948.351 8129.85 948.775 8129.09 949.394 8128.13ZM942.778 8124.4 945.706 8124.4 943.498 8127.74C943.135 8128.25 942.911 8128.56 942.826 8128.67 943.093 8128.62 943.343 8128.59 943.578 8128.59 944.325 8128.59 944.983 8128.75 945.554 8129.06 946.125 8129.36 946.57 8129.8 946.89 8130.37 947.21 8130.93 947.37 8131.59 947.37 8132.35 947.37 8133.12 947.175 8133.81 946.786 8134.42 946.396 8135.02 945.871 8135.5 945.21 8135.83 944.549 8136.17 943.834 8136.33 943.066 8136.33 942.287 8136.33 941.57 8136.16 940.914 8135.82 940.258 8135.48 939.738 8135 939.354 8134.37 938.97 8133.74 938.778 8133.01 938.778 8132.19 938.778 8131.57 938.893 8130.98 939.122 8130.42 939.351 8129.85 939.775 8129.09 940.394 8128.13ZM982.114 8124.19C983.138 8124.19 984.034 8124.43 984.802 8124.9 985.57 8125.36 986.066 8126.03 986.29 8126.9L984.05 8128.16C983.879 8127.68 983.615 8127.31 983.258 8127.04 982.901 8126.77 982.466 8126.64 981.954 8126.64 981.516 8126.64 981.162 8126.74 980.89 8126.94 980.618 8127.15 980.482 8127.41 980.482 8127.73 980.482 8127.97 980.575 8128.18 980.762 8128.35 980.948 8128.52 981.181 8128.66 981.458 8128.77 981.735 8128.87 982.13 8129.01 982.642 8129.17 983.431 8129.4 984.071 8129.63 984.562 8129.86 985.052 8130.09 985.479 8130.44 985.842 8130.9 986.205 8131.35 986.386 8131.95 986.386 8132.69 986.386 8133.55 986.159 8134.25 985.706 8134.8 985.253 8135.34 984.685 8135.73 984.002 8135.98 983.319 8136.21 982.62 8136.33 981.906 8136.33 980.828 8136.33 979.842 8136.09 978.946 8135.59 978.05 8135.09 977.453 8134.38 977.154 8133.44L979.362 8132.17C979.596 8132.72 979.94 8133.14 980.394 8133.44 980.847 8133.74 981.383 8133.89 982.002 8133.89 982.461 8133.89 982.831 8133.8 983.114 8133.62 983.396 8133.45 983.538 8133.19 983.538 8132.85 983.538 8132.57 983.442 8132.34 983.25 8132.16 983.058 8131.98 982.818 8131.83 982.53 8131.71 982.242 8131.59 981.836 8131.46 981.314 8131.31 980.546 8131.09 979.919 8130.86 979.434 8130.64 978.948 8130.42 978.53 8130.08 978.178 8129.62 977.826 8129.17 977.65 8128.58 977.65 8127.84 977.65 8127.03 977.861 8126.35 978.282 8125.81 978.703 8125.26 979.253 8124.86 979.93 8124.59 980.607 8124.32 981.335 8124.19 982.114 8124.19ZM972.002 8124.19C973.367 8124.19 974.421 8124.71 975.162 8125.74 975.903 8126.78 976.274 8128.29 976.274 8130.27 976.274 8132.24 975.903 8133.75 975.162 8134.78 974.421 8135.82 973.367 8136.33 972.002 8136.33 970.637 8136.33 969.578 8135.82 968.826 8134.79 968.074 8133.76 967.698 8132.25 967.698 8130.27 967.698 8128.29 968.074 8126.78 968.826 8125.74 969.578 8124.71 970.637 8124.19 972.002 8124.19ZM962.002 8124.19C963.367 8124.19 964.421 8124.71 965.162 8125.74 965.903 8126.78 966.274 8128.29 966.274 8130.27 966.274 8132.24 965.903 8133.75 965.162 8134.78 964.421 8135.82 963.367 8136.33 962.002 8136.33 960.637 8136.33 959.578 8135.82 958.826 8134.79 958.074 8133.76 957.698 8132.25 957.698 8130.27 957.698 8128.29 958.074 8126.78 958.826 8125.74 959.578 8124.71 960.637 8124.19 962.002 8124.19Z" stroke="#000000" stroke-linejoin="round" stroke-miterlimit="10" stroke-opacity="0.54902" fill="#FFFFFF" fill-rule="evenodd"/><text fill="#000000" fill-opacity="0" font-family="Arial,Arial_MSFontService,sans-serif" font-size="12.144" x="911.226" y="8134.82">RX 6600S</text></g></g></svg>