<svg width="1378" height="1556" xmlns="http://www.w3.org/2000/svg" xmlns:xlink="http://www.w3.org/1999/xlink" xml:space="preserve" overflow="hidden"><defs><clipPath id="clip0"><rect x="455" y="7054" width="1378" height="1556"/></clipPath></defs><g clip-path="url(#clip0)" transform="translate(-455 -7054)"><g><path d="M1210 8071C1174.33 8077 1138.67 8083 1103 8089" stroke="#BFBFBF" stroke-width="4.125" stroke-linecap="round" stroke-linejoin="round" stroke-miterlimit="10" stroke-dasharray="0 8.25" fill="none"/></g><g><path d="M1213.95 8069.84C1213.95 8072.05 1212.16 8073.84 1209.95 8073.84 1207.74 8073.84 1205.95 8072.05 1205.95 8069.84 1205.95 8067.63 1207.74 8065.84 1209.95 8065.84 1212.16 8065.84 1213.95 8067.63 1213.95 8069.84Z" stroke="#BFBFBF" stroke-width="3.4375" stroke-linejoin="round" stroke-miterlimit="10" fill="#BFBFBF"/><path d="M1106.95 8087.84C1106.95 8090.05 1105.16 8091.84 1102.95 8091.84 1100.74 8091.84 1098.95 8090.05 1098.95 8087.84 1098.95 8085.63 1100.74 8083.84 1102.95 8083.84 1105.16 8083.84 1106.95 8085.63 1106.95 8087.84Z" stroke="#BFBFBF" stroke-width="3.4375" stroke-linejoin="round" stroke-miterlimit="10" fill="#BFBFBF"/></g><g><path d="M1254.25 8048.93C1253.83 8048.93 1253.48 8049.07 1253.21 8049.36 1252.95 8049.64 1252.81 8050 1252.81 8050.45 1252.81 8050.9 1252.95 8051.27 1253.22 8051.56 1253.49 8051.84 1253.84 8051.99 1254.25 8051.99 1254.67 8051.99 1255.01 8051.84 1255.28 8051.56 1255.54 8051.27 1255.68 8050.9 1255.68 8050.44 1255.68 8049.99 1255.54 8049.63 1255.28 8049.35 1255.01 8049.07 1254.67 8048.93 1254.25 8048.93ZM1245.25 8048.93C1244.83 8048.93 1244.48 8049.07 1244.21 8049.36 1243.95 8049.64 1243.81 8050 1243.81 8050.45 1243.81 8050.9 1243.95 8051.27 1244.22 8051.56 1244.49 8051.84 1244.84 8051.99 1245.25 8051.99 1245.67 8051.99 1246.01 8051.84 1246.28 8051.56 1246.54 8051.27 1246.68 8050.9 1246.68 8050.44 1246.68 8049.99 1246.54 8049.63 1246.28 8049.35 1246.01 8049.07 1245.67 8048.93 1245.25 8048.93ZM1216.17 8044.8 1216.17 8047.96 1217.37 8047.96C1217.97 8047.96 1218.49 8047.84 1218.93 8047.6 1219.36 8047.36 1219.57 8046.95 1219.57 8046.37 1219.57 8045.33 1218.84 8044.8 1217.37 8044.8ZM1274.21 8044.79C1273.73 8044.79 1273.37 8045.08 1273.14 8045.65 1272.91 8046.23 1272.8 8047.13 1272.8 8048.36 1272.8 8049.56 1272.91 8050.46 1273.14 8051.04 1273.37 8051.63 1273.73 8051.92 1274.21 8051.92 1274.68 8051.92 1275.02 8051.63 1275.25 8051.04 1275.47 8050.44 1275.58 8049.55 1275.58 8048.36 1275.58 8047.16 1275.47 8046.27 1275.25 8045.68 1275.02 8045.08 1274.68 8044.79 1274.21 8044.79ZM1280.43 8042.5 1282.54 8042.5 1286.4 8048.15 1290.22 8042.5 1292.29 8042.5 1292.29 8054.21 1289.69 8054.21 1289.69 8047.27 1287.05 8051.04 1285.66 8051.04 1282.99 8047.24 1282.99 8054.21 1280.43 8054.21ZM1213.43 8042.5 1217.69 8042.5C1218.66 8042.5 1219.5 8042.66 1220.22 8042.98 1220.94 8043.3 1221.49 8043.75 1221.88 8044.34 1222.26 8044.93 1222.45 8045.6 1222.45 8046.37 1222.45 8047.11 1222.28 8047.76 1221.93 8048.32 1221.57 8048.89 1221.07 8049.34 1220.41 8049.67L1223.44 8054.04 1227.61 8048.24 1223.52 8042.5 1226.86 8042.5 1229.28 8046.02 1231.73 8042.5 1234.88 8042.5 1230.78 8048.18 1235.09 8054.21 1231.71 8054.21 1229.1 8050.4 1226.45 8054.21 1223.56 8054.21 1223.31 8054.21 1223.31 8054.21 1220.31 8054.2 1217.72 8050.24 1217.64 8050.24 1216.17 8050.24 1216.17 8054.21 1213.43 8054.21ZM1261.33 8042.48 1267.76 8042.48 1267.76 8044.79 1263.6 8044.79 1263.34 8046.74C1263.73 8046.6 1264.15 8046.53 1264.62 8046.53 1265.29 8046.53 1265.91 8046.69 1266.47 8047 1267.03 8047.32 1267.48 8047.77 1267.81 8048.35 1268.15 8048.93 1268.32 8049.61 1268.32 8050.39 1268.32 8051.22 1268.13 8051.94 1267.76 8052.56 1267.38 8053.17 1266.88 8053.63 1266.24 8053.95 1265.6 8054.26 1264.89 8054.42 1264.13 8054.42 1263.2 8054.42 1262.4 8054.21 1261.74 8053.8 1261.08 8053.38 1260.61 8052.75 1260.32 8051.89L1262.49 8050.61C1262.62 8051.08 1262.82 8051.43 1263.1 8051.66 1263.38 8051.89 1263.7 8052 1264.08 8052 1264.52 8052 1264.85 8051.86 1265.08 8051.56 1265.31 8051.27 1265.42 8050.91 1265.42 8050.47 1265.42 8050.01 1265.3 8049.63 1265.05 8049.34 1264.81 8049.05 1264.45 8048.9 1263.98 8048.9 1263.36 8048.9 1262.88 8049.21 1262.54 8049.83L1260.54 8048.87ZM1253.98 8042.48 1256.91 8042.48 1254.7 8045.83C1254.34 8046.34 1254.12 8046.65 1254.03 8046.76 1254.3 8046.7 1254.55 8046.68 1254.78 8046.68 1255.53 8046.68 1256.19 8046.83 1256.76 8047.14 1257.33 8047.45 1257.77 8047.89 1258.09 8048.45 1258.41 8049.02 1258.57 8049.68 1258.57 8050.44 1258.57 8051.2 1258.38 8051.89 1257.99 8052.5 1257.6 8053.11 1257.08 8053.58 1256.41 8053.92 1255.75 8054.25 1255.04 8054.42 1254.27 8054.42 1253.49 8054.42 1252.77 8054.25 1252.12 8053.91 1251.46 8053.57 1250.94 8053.08 1250.56 8052.45 1250.17 8051.82 1249.98 8051.1 1249.98 8050.28 1249.98 8049.66 1250.1 8049.07 1250.33 8048.5 1250.56 8047.94 1250.98 8047.17 1251.6 8046.21ZM1244.98 8042.48 1247.91 8042.48 1245.7 8045.83C1245.34 8046.34 1245.12 8046.65 1245.03 8046.76 1245.3 8046.7 1245.55 8046.68 1245.78 8046.68 1246.53 8046.68 1247.19 8046.83 1247.76 8047.14 1248.33 8047.45 1248.77 8047.89 1249.09 8048.45 1249.41 8049.02 1249.57 8049.68 1249.57 8050.44 1249.57 8051.2 1249.38 8051.89 1248.99 8052.5 1248.6 8053.11 1248.08 8053.58 1247.41 8053.92 1246.75 8054.25 1246.04 8054.42 1245.27 8054.42 1244.49 8054.42 1243.77 8054.25 1243.12 8053.91 1242.46 8053.57 1241.94 8053.08 1241.56 8052.45 1241.17 8051.82 1240.98 8051.1 1240.98 8050.28 1240.98 8049.66 1241.1 8049.07 1241.33 8048.5 1241.56 8047.94 1241.98 8047.17 1242.6 8046.21ZM1274.21 8042.28C1275.57 8042.28 1276.62 8042.79 1277.37 8043.83 1278.11 8044.86 1278.48 8046.37 1278.48 8048.36 1278.48 8050.33 1278.11 8051.83 1277.37 8052.87 1276.62 8053.9 1275.57 8054.42 1274.21 8054.42 1272.84 8054.42 1271.78 8053.91 1271.03 8052.88 1270.28 8051.85 1269.9 8050.34 1269.9 8048.36 1269.9 8046.37 1270.28 8044.86 1271.03 8043.83 1271.78 8042.79 1272.84 8042.28 1274.21 8042.28Z" stroke="#000000" stroke-linejoin="round" stroke-miterlimit="10" stroke-opacity="0.54902" fill="#FFFFFF" fill-rule="evenodd"/><text fill="#000000" fill-opacity="0" font-family="Arial,Arial_MSFontService,sans-serif" font-size="12.144" x="1213.43" y="8052.9">RX 6650M</text></g></g></svg>