<svg width="1378" height="1556" xmlns="http://www.w3.org/2000/svg" xmlns:xlink="http://www.w3.org/1999/xlink" xml:space="preserve" overflow="hidden"><defs><clipPath id="clip0"><rect x="455" y="7054" width="1378" height="1556"/></clipPath></defs><g clip-path="url(#clip0)" transform="translate(-455 -7054)"><g><path d="M1213.95 8101.84C1213.95 8104.05 1212.16 8105.84 1209.95 8105.84 1207.74 8105.84 1205.95 8104.05 1205.95 8101.84 1205.95 8099.63 1207.74 8097.84 1209.95 8097.84 1212.16 8097.84 1213.95 8099.63 1213.95 8101.84Z" stroke="#BFBFBF" stroke-width="3.4375" stroke-linejoin="round" stroke-miterlimit="10" fill="#BFBFBF"/></g><g><path d="M1262.67 8103.69C1262.25 8103.69 1261.9 8103.83 1261.63 8104.11 1261.37 8104.39 1261.23 8104.76 1261.23 8105.21 1261.23 8105.65 1261.37 8106.02 1261.64 8106.31 1261.91 8106.6 1262.26 8106.74 1262.67 8106.74 1263.09 8106.74 1263.43 8106.6 1263.7 8106.31 1263.96 8106.02 1264.1 8105.65 1264.1 8105.19 1264.1 8104.74 1263.96 8104.38 1263.7 8104.1 1263.43 8103.82 1263.09 8103.69 1262.67 8103.69ZM1253.67 8103.69C1253.25 8103.69 1252.9 8103.83 1252.63 8104.11 1252.37 8104.39 1252.23 8104.76 1252.23 8105.21 1252.23 8105.65 1252.37 8106.02 1252.64 8106.31 1252.91 8106.6 1253.26 8106.74 1253.67 8106.74 1254.09 8106.74 1254.43 8106.6 1254.7 8106.31 1254.96 8106.02 1255.1 8105.65 1255.1 8105.19 1255.1 8104.74 1254.96 8104.38 1254.7 8104.1 1254.43 8103.82 1254.09 8103.69 1253.67 8103.69ZM1224.58 8099.56 1224.58 8102.71 1225.78 8102.71C1226.39 8102.71 1226.91 8102.59 1227.34 8102.35 1227.78 8102.11 1227.99 8101.7 1227.99 8101.13 1227.99 8100.08 1227.26 8099.56 1225.78 8099.56ZM1282.62 8099.54C1282.14 8099.54 1281.79 8099.83 1281.56 8100.41 1281.33 8100.98 1281.22 8101.88 1281.22 8103.11 1281.22 8104.31 1281.33 8105.21 1281.56 8105.8 1281.79 8106.38 1282.14 8106.68 1282.62 8106.68 1283.09 8106.68 1283.44 8106.38 1283.66 8105.79 1283.89 8105.2 1284 8104.3 1284 8103.11 1284 8101.92 1283.89 8101.02 1283.66 8100.43 1283.44 8099.84 1283.09 8099.54 1282.62 8099.54ZM1272.62 8099.54C1272.14 8099.54 1271.79 8099.83 1271.56 8100.41 1271.33 8100.98 1271.22 8101.88 1271.22 8103.11 1271.22 8104.31 1271.33 8105.21 1271.56 8105.8 1271.79 8106.38 1272.14 8106.68 1272.62 8106.68 1273.09 8106.68 1273.44 8106.38 1273.66 8105.79 1273.89 8105.2 1274 8104.3 1274 8103.11 1274 8101.92 1273.89 8101.02 1273.66 8100.43 1273.44 8099.84 1273.09 8099.54 1272.62 8099.54ZM1288.85 8097.25 1290.96 8097.25 1294.82 8102.9 1298.64 8097.25 1300.7 8097.25 1300.7 8108.97 1298.11 8108.97 1298.11 8102.02 1295.47 8105.8 1294.08 8105.8 1291.41 8101.99 1291.41 8108.97 1288.85 8108.97ZM1221.85 8097.25 1226.1 8097.25C1227.08 8097.25 1227.92 8097.41 1228.64 8097.73 1229.36 8098.05 1229.91 8098.51 1230.3 8099.09 1230.68 8099.68 1230.87 8100.36 1230.87 8101.13 1230.87 8101.86 1230.7 8102.51 1230.34 8103.08 1229.99 8103.64 1229.49 8104.09 1228.82 8104.42L1231.86 8108.79 1236.03 8103 1231.94 8097.25 1235.28 8097.25 1237.7 8100.77 1240.14 8097.25 1243.3 8097.25 1239.2 8102.93 1243.5 8108.97 1240.13 8108.97 1237.52 8105.16 1234.86 8108.97 1231.98 8108.97 1231.73 8108.97 1231.73 8108.96 1228.73 8108.95 1226.14 8105 1226.06 8105 1224.58 8105 1224.58 8108.97 1221.85 8108.97ZM1262.4 8097.24 1265.33 8097.24 1263.12 8100.58C1262.76 8101.09 1262.53 8101.4 1262.45 8101.51 1262.72 8101.46 1262.97 8101.43 1263.2 8101.43 1263.95 8101.43 1264.61 8101.58 1265.18 8101.89 1265.75 8102.2 1266.19 8102.64 1266.51 8103.21 1266.83 8103.77 1266.99 8104.43 1266.99 8105.19 1266.99 8105.96 1266.8 8106.65 1266.41 8107.25 1266.02 8107.86 1265.49 8108.33 1264.83 8108.67 1264.17 8109.01 1263.46 8109.17 1262.69 8109.17 1261.91 8109.17 1261.19 8109 1260.54 8108.66 1259.88 8108.32 1259.36 8107.83 1258.98 8107.21 1258.59 8106.58 1258.4 8105.85 1258.4 8105.03 1258.4 8104.41 1258.52 8103.82 1258.74 8103.25 1258.97 8102.69 1259.4 8101.93 1260.02 8100.97ZM1253.4 8097.24 1256.33 8097.24 1254.12 8100.58C1253.76 8101.09 1253.53 8101.4 1253.45 8101.51 1253.72 8101.46 1253.97 8101.43 1254.2 8101.43 1254.95 8101.43 1255.61 8101.58 1256.18 8101.89 1256.75 8102.2 1257.19 8102.64 1257.51 8103.21 1257.83 8103.77 1257.99 8104.43 1257.99 8105.19 1257.99 8105.96 1257.8 8106.65 1257.41 8107.25 1257.02 8107.86 1256.49 8108.33 1255.83 8108.67 1255.17 8109.01 1254.46 8109.17 1253.69 8109.17 1252.91 8109.17 1252.19 8109 1251.54 8108.66 1250.88 8108.32 1250.36 8107.83 1249.98 8107.21 1249.59 8106.58 1249.4 8105.85 1249.4 8105.03 1249.4 8104.41 1249.52 8103.82 1249.74 8103.25 1249.97 8102.69 1250.4 8101.93 1251.02 8100.97ZM1282.62 8097.03C1283.99 8097.03 1285.04 8097.55 1285.78 8098.58 1286.53 8099.62 1286.9 8101.13 1286.9 8103.11 1286.9 8105.08 1286.53 8106.59 1285.78 8107.62 1285.04 8108.66 1283.99 8109.17 1282.62 8109.17 1281.26 8109.17 1280.2 8108.66 1279.45 8107.63 1278.7 8106.6 1278.32 8105.09 1278.32 8103.11 1278.32 8101.13 1278.7 8099.62 1279.45 8098.58 1280.2 8097.55 1281.26 8097.03 1282.62 8097.03ZM1272.62 8097.03C1273.99 8097.03 1275.04 8097.55 1275.78 8098.58 1276.53 8099.62 1276.9 8101.13 1276.9 8103.11 1276.9 8105.08 1276.53 8106.59 1275.78 8107.62 1275.04 8108.66 1273.99 8109.17 1272.62 8109.17 1271.26 8109.17 1270.2 8108.66 1269.45 8107.63 1268.7 8106.6 1268.32 8105.09 1268.32 8103.11 1268.32 8101.13 1268.7 8099.62 1269.45 8098.58 1270.2 8097.55 1271.26 8097.03 1272.62 8097.03Z" stroke="#000000" stroke-linejoin="round" stroke-miterlimit="10" stroke-opacity="0.54902" fill="#FFFFFF" fill-rule="evenodd"/><text fill="#000000" fill-opacity="0" font-family="Arial,Arial_MSFontService,sans-serif" font-size="12.144" x="1221.85" y="8107.66">RX 6600M</text></g></g></svg>