<svg width="1378" height="1556" xmlns="http://www.w3.org/2000/svg" xmlns:xlink="http://www.w3.org/1999/xlink" xml:space="preserve" overflow="hidden"><defs><clipPath id="clip0"><rect x="455" y="7054" width="1378" height="1556"/></clipPath></defs><g clip-path="url(#clip0)" transform="translate(-455 -7054)"><g><path d="M1507.95 7891.84C1507.95 7894.05 1506.16 7895.84 1503.95 7895.84 1501.74 7895.84 1499.95 7894.05 1499.95 7891.84 1499.95 7889.63 1501.74 7887.84 1503.95 7887.84 1506.16 7887.84 1507.95 7889.63 1507.95 7891.84Z" stroke="#BFBFBF" stroke-width="3.4375" stroke-linejoin="round" stroke-miterlimit="10" fill="#BFBFBF"/></g><g><path d="M1557.28 7893.95C1556.84 7893.95 1556.49 7894.09 1556.22 7894.36 1555.96 7894.63 1555.82 7894.99 1555.82 7895.44 1555.82 7895.89 1555.96 7896.24 1556.23 7896.51 1556.5 7896.78 1556.85 7896.91 1557.28 7896.91 1557.69 7896.91 1558.02 7896.78 1558.28 7896.51 1558.54 7896.24 1558.67 7895.89 1558.67 7895.44 1558.67 7894.99 1558.55 7894.63 1558.3 7894.36 1558.05 7894.09 1557.71 7893.95 1557.28 7893.95ZM1548.3 7893.84C1547.87 7893.84 1547.52 7893.98 1547.26 7894.26 1546.99 7894.55 1546.86 7894.91 1546.86 7895.36 1546.86 7895.81 1546.99 7896.18 1547.26 7896.46 1547.54 7896.75 1547.88 7896.9 1548.3 7896.9 1548.71 7896.9 1549.05 7896.75 1549.32 7896.46 1549.59 7896.18 1549.72 7895.8 1549.72 7895.34 1549.72 7894.9 1549.59 7894.53 1549.32 7894.26 1549.05 7893.98 1548.71 7893.84 1548.3 7893.84ZM1519.21 7889.71 1519.21 7892.86 1520.41 7892.86C1521.02 7892.86 1521.54 7892.74 1521.97 7892.5 1522.4 7892.26 1522.62 7891.85 1522.62 7891.28 1522.62 7890.23 1521.88 7889.71 1520.41 7889.71ZM1577.25 7889.7C1576.77 7889.7 1576.41 7889.98 1576.18 7890.56 1575.96 7891.14 1575.84 7892.04 1575.84 7893.26 1575.84 7894.47 1575.96 7895.36 1576.18 7895.95 1576.41 7896.54 1576.77 7896.83 1577.25 7896.83 1577.72 7896.83 1578.06 7896.54 1578.29 7895.94 1578.51 7895.35 1578.62 7894.46 1578.62 7893.26 1578.62 7892.07 1578.51 7891.18 1578.29 7890.58 1578.06 7889.99 1577.72 7889.7 1577.25 7889.7ZM1557.28 7889.42C1556.94 7889.42 1556.67 7889.53 1556.46 7889.74 1556.26 7889.96 1556.16 7890.22 1556.16 7890.54 1556.16 7890.86 1556.26 7891.13 1556.46 7891.33 1556.67 7891.54 1556.94 7891.65 1557.28 7891.65 1557.61 7891.65 1557.88 7891.54 1558.1 7891.33 1558.31 7891.13 1558.42 7890.86 1558.42 7890.54 1558.42 7890.23 1558.31 7889.97 1558.1 7889.75 1557.88 7889.53 1557.61 7889.42 1557.28 7889.42ZM1612.43 7887.41 1622.19 7887.41 1622.19 7889.82 1618.67 7889.82 1618.67 7899.12 1615.95 7899.12 1615.95 7889.82 1612.43 7889.82ZM1600.56 7887.41 1603.9 7887.41 1606.32 7890.93 1608.77 7887.41 1611.92 7887.41 1607.82 7893.09 1612.13 7899.12 1608.75 7899.12 1606.14 7895.31 1603.49 7899.12 1600.35 7899.12 1604.66 7893.15ZM1583.47 7887.41 1585.58 7887.41 1589.44 7893.06 1593.26 7887.41 1595.33 7887.41 1595.33 7899.12 1592.74 7899.12 1592.74 7892.18 1590.1 7895.95 1588.7 7895.95 1586.03 7892.14 1586.03 7899.12 1583.47 7899.12ZM1516.47 7887.41 1520.73 7887.41C1521.7 7887.41 1522.54 7887.57 1523.26 7887.89 1523.98 7888.21 1524.54 7888.66 1524.92 7889.25 1525.3 7889.83 1525.5 7890.51 1525.5 7891.28 1525.5 7892.02 1525.32 7892.67 1524.97 7893.23 1524.62 7893.8 1524.11 7894.24 1523.45 7894.58L1526.48 7898.94 1530.66 7893.15 1526.56 7887.41 1529.9 7887.41 1532.32 7890.93 1534.77 7887.41 1537.92 7887.41 1533.82 7893.09 1538.13 7899.12 1534.75 7899.12 1532.14 7895.31 1529.49 7899.12 1526.6 7899.12 1526.35 7899.12 1526.35 7899.12 1523.35 7899.1 1520.76 7895.15 1520.68 7895.15 1519.21 7895.15 1519.21 7899.12 1516.47 7899.12ZM1564.37 7887.39 1570.8 7887.39 1570.8 7889.7 1566.64 7889.7 1566.38 7891.65C1566.77 7891.51 1567.2 7891.44 1567.66 7891.44 1568.34 7891.44 1568.95 7891.6 1569.51 7891.91 1570.07 7892.23 1570.52 7892.67 1570.86 7893.26 1571.19 7893.84 1571.36 7894.52 1571.36 7895.29 1571.36 7896.13 1571.17 7896.85 1570.8 7897.46 1570.43 7898.08 1569.92 7898.54 1569.28 7898.85 1568.64 7899.17 1567.94 7899.33 1567.17 7899.33 1566.24 7899.33 1565.45 7899.12 1564.78 7898.7 1564.12 7898.29 1563.65 7897.65 1563.36 7896.8L1565.54 7895.52C1565.66 7895.99 1565.87 7896.34 1566.14 7896.57 1566.42 7896.8 1566.75 7896.91 1567.12 7896.91 1567.56 7896.91 1567.89 7896.76 1568.12 7896.47 1568.35 7896.18 1568.46 7895.81 1568.46 7895.38 1568.46 7894.92 1568.34 7894.54 1568.1 7894.25 1567.85 7893.95 1567.49 7893.81 1567.02 7893.81 1566.41 7893.81 1565.93 7894.12 1565.58 7894.74L1563.58 7893.77ZM1548.02 7887.39 1550.95 7887.39 1548.74 7890.74C1548.38 7891.25 1548.16 7891.56 1548.07 7891.66 1548.34 7891.61 1548.59 7891.58 1548.82 7891.58 1549.57 7891.58 1550.23 7891.74 1550.8 7892.05 1551.37 7892.36 1551.82 7892.79 1552.14 7893.36 1552.46 7893.92 1552.62 7894.59 1552.62 7895.34 1552.62 7896.11 1552.42 7896.8 1552.03 7897.41 1551.64 7898.02 1551.12 7898.49 1550.46 7898.82 1549.8 7899.16 1549.08 7899.33 1548.31 7899.33 1547.53 7899.33 1546.82 7899.16 1546.16 7898.81 1545.5 7898.47 1544.98 7897.99 1544.6 7897.36 1544.22 7896.73 1544.02 7896 1544.02 7895.18 1544.02 7894.56 1544.14 7893.97 1544.37 7893.41 1544.6 7892.84 1545.02 7892.08 1545.64 7891.12ZM1577.25 7887.18C1578.61 7887.18 1579.67 7887.7 1580.41 7888.74 1581.15 7889.77 1581.52 7891.28 1581.52 7893.26 1581.52 7895.24 1581.15 7896.74 1580.41 7897.77 1579.67 7898.81 1578.61 7899.33 1577.25 7899.33 1575.88 7899.33 1574.82 7898.81 1574.07 7897.78 1573.32 7896.75 1572.94 7895.25 1572.94 7893.26 1572.94 7891.28 1573.32 7889.77 1574.07 7888.74 1574.82 7887.7 1575.88 7887.18 1577.25 7887.18ZM1557.28 7887.17C1558.11 7887.17 1558.81 7887.31 1559.38 7887.59 1559.96 7887.87 1560.38 7888.26 1560.66 7888.74 1560.95 7889.23 1561.09 7889.77 1561.09 7890.38 1561.09 7890.92 1560.97 7891.39 1560.72 7891.79 1560.48 7892.2 1560.13 7892.52 1559.68 7892.75 1560.27 7893.04 1560.73 7893.43 1561.06 7893.94 1561.39 7894.44 1561.55 7895.04 1561.55 7895.74 1561.55 7896.45 1561.38 7897.07 1561.03 7897.62 1560.69 7898.16 1560.19 7898.58 1559.54 7898.88 1558.9 7899.18 1558.14 7899.33 1557.28 7899.33 1556.4 7899.33 1555.62 7899.18 1554.97 7898.87 1554.31 7898.57 1553.81 7898.15 1553.46 7897.61 1553.1 7897.07 1552.93 7896.45 1552.93 7895.74 1552.93 7895.04 1553.1 7894.44 1553.43 7893.94 1553.77 7893.43 1554.23 7893.04 1554.82 7892.77 1554.35 7892.52 1553.98 7892.2 1553.72 7891.79 1553.46 7891.39 1553.33 7890.92 1553.33 7890.38 1553.33 7889.8 1553.48 7889.26 1553.78 7888.77 1554.09 7888.28 1554.54 7887.89 1555.14 7887.6 1555.73 7887.31 1556.45 7887.17 1557.28 7887.17Z" stroke="#000000" stroke-linejoin="round" stroke-miterlimit="10" stroke-opacity="0.54902" fill="#FFFFFF" fill-rule="evenodd"/><text fill="#000000" fill-opacity="0" font-family="Arial,Arial_MSFontService,sans-serif" font-size="12.1602" x="1516.47" y="7897.81">RX 6850M XT</text></g></g></svg>