<svg width="1378" height="1556" xmlns="http://www.w3.org/2000/svg" xmlns:xlink="http://www.w3.org/1999/xlink" xml:space="preserve" overflow="hidden"><defs><clipPath id="clip0"><rect x="455" y="7054" width="1378" height="1556"/></clipPath></defs><g clip-path="url(#clip0)" transform="translate(-455 -7054)"><g><path d="M1502.95 7932.84C1502.95 7935.05 1501.16 7936.84 1498.95 7936.84 1496.74 7936.84 1494.95 7935.05 1494.95 7932.84 1494.95 7930.63 1496.74 7928.84 1498.95 7928.84 1501.16 7928.84 1502.95 7930.63 1502.95 7932.84Z" stroke="#BFBFBF" stroke-width="3.4375" stroke-linejoin="round" stroke-miterlimit="10" fill="#BFBFBF"/></g><g><path d="M1551.92 7934.69C1551.49 7934.69 1551.13 7934.83 1550.87 7935.1 1550.6 7935.37 1550.47 7935.73 1550.47 7936.18 1550.47 7936.63 1550.6 7936.98 1550.88 7937.25 1551.15 7937.52 1551.5 7937.65 1551.92 7937.65 1552.33 7937.65 1552.66 7937.52 1552.92 7937.25 1553.19 7936.98 1553.32 7936.63 1553.32 7936.18 1553.32 7935.73 1553.19 7935.37 1552.94 7935.1 1552.69 7934.83 1552.35 7934.69 1551.92 7934.69ZM1542.94 7934.58C1542.51 7934.58 1542.17 7934.72 1541.9 7935 1541.63 7935.28 1541.5 7935.65 1541.5 7936.1 1541.5 7936.55 1541.64 7936.91 1541.91 7937.2 1542.18 7937.49 1542.52 7937.63 1542.94 7937.63 1543.36 7937.63 1543.7 7937.49 1543.96 7937.2 1544.23 7936.91 1544.36 7936.54 1544.36 7936.08 1544.36 7935.63 1544.23 7935.27 1543.96 7934.99 1543.7 7934.72 1543.36 7934.58 1542.94 7934.58ZM1513.85 7930.45 1513.85 7933.6 1515.05 7933.6C1515.66 7933.6 1516.18 7933.48 1516.61 7933.24 1517.04 7933 1517.26 7932.59 1517.26 7932.02 1517.26 7930.97 1516.52 7930.45 1515.05 7930.45ZM1571.89 7930.43C1571.41 7930.43 1571.06 7930.72 1570.83 7931.3 1570.6 7931.87 1570.48 7932.77 1570.48 7934 1570.48 7935.21 1570.6 7936.1 1570.83 7936.69 1571.06 7937.28 1571.41 7937.57 1571.89 7937.57 1572.36 7937.57 1572.71 7937.27 1572.93 7936.68 1573.16 7936.09 1573.27 7935.2 1573.27 7934 1573.27 7932.81 1573.16 7931.91 1572.93 7931.32 1572.71 7930.73 1572.36 7930.43 1571.89 7930.43ZM1561.89 7930.43C1561.41 7930.43 1561.06 7930.72 1560.83 7931.3 1560.6 7931.87 1560.48 7932.77 1560.48 7934 1560.48 7935.21 1560.6 7936.1 1560.83 7936.69 1561.06 7937.28 1561.41 7937.57 1561.89 7937.57 1562.36 7937.57 1562.71 7937.27 1562.93 7936.68 1563.16 7936.09 1563.27 7935.2 1563.27 7934 1563.27 7932.81 1563.16 7931.91 1562.93 7931.32 1562.71 7930.73 1562.36 7930.43 1561.89 7930.43ZM1551.92 7930.16C1551.58 7930.16 1551.31 7930.27 1551.11 7930.48 1550.91 7930.69 1550.8 7930.96 1550.8 7931.28 1550.8 7931.6 1550.91 7931.87 1551.11 7932.07 1551.31 7932.28 1551.58 7932.39 1551.92 7932.39 1552.25 7932.39 1552.53 7932.28 1552.74 7932.07 1552.95 7931.87 1553.06 7931.6 1553.06 7931.28 1553.06 7930.97 1552.95 7930.71 1552.74 7930.49 1552.53 7930.27 1552.25 7930.16 1551.92 7930.16ZM1578.12 7928.15 1580.23 7928.15 1584.08 7933.79 1587.91 7928.15 1589.97 7928.15 1589.97 7939.86 1587.38 7939.86 1587.38 7932.91 1584.74 7936.69 1583.35 7936.69 1580.68 7932.88 1580.68 7939.86 1578.12 7939.86ZM1511.12 7928.15 1515.37 7928.15C1516.34 7928.15 1517.19 7928.31 1517.91 7928.63 1518.63 7928.95 1519.18 7929.4 1519.56 7929.99 1519.95 7930.57 1520.14 7931.25 1520.14 7932.02 1520.14 7932.75 1519.96 7933.4 1519.61 7933.97 1519.26 7934.53 1518.75 7934.98 1518.09 7935.31L1521.12 7939.68 1525.3 7933.89 1521.2 7928.15 1524.55 7928.15 1526.96 7931.67 1529.41 7928.15 1532.56 7928.15 1528.47 7933.83 1532.77 7939.86 1529.4 7939.86 1526.79 7936.05 1524.13 7939.86 1521.24 7939.86 1521 7939.86 1521 7939.86 1518 7939.84 1515.4 7935.89 1515.32 7935.89 1513.85 7935.89 1513.85 7939.86 1511.12 7939.86ZM1542.67 7928.13 1545.6 7928.13 1543.39 7931.47C1543.03 7931.99 1542.8 7932.29 1542.72 7932.4 1542.98 7932.35 1543.23 7932.32 1543.47 7932.32 1544.21 7932.32 1544.87 7932.48 1545.44 7932.79 1546.01 7933.09 1546.46 7933.53 1546.78 7934.1 1547.1 7934.66 1547.26 7935.32 1547.26 7936.08 1547.26 7936.85 1547.07 7937.54 1546.68 7938.15 1546.29 7938.75 1545.76 7939.23 1545.1 7939.56 1544.44 7939.9 1543.72 7940.07 1542.96 7940.07 1542.18 7940.07 1541.46 7939.89 1540.8 7939.55 1540.15 7939.21 1539.63 7938.73 1539.24 7938.1 1538.86 7937.47 1538.67 7936.74 1538.67 7935.92 1538.67 7935.3 1538.78 7934.71 1539.01 7934.15 1539.24 7933.58 1539.67 7932.82 1540.28 7931.86ZM1571.89 7927.92C1573.26 7927.92 1574.31 7928.44 1575.05 7929.47 1575.79 7930.51 1576.16 7932.02 1576.16 7934 1576.16 7935.97 1575.79 7937.48 1575.05 7938.51 1574.31 7939.55 1573.26 7940.07 1571.89 7940.07 1570.53 7940.07 1569.47 7939.55 1568.72 7938.52 1567.96 7937.49 1567.59 7935.99 1567.59 7934 1567.59 7932.02 1567.96 7930.51 1568.72 7929.47 1569.47 7928.44 1570.53 7927.92 1571.89 7927.92ZM1561.89 7927.92C1563.26 7927.92 1564.31 7928.44 1565.05 7929.47 1565.79 7930.51 1566.16 7932.02 1566.16 7934 1566.16 7935.97 1565.79 7937.48 1565.05 7938.51 1564.31 7939.55 1563.26 7940.07 1561.89 7940.07 1560.53 7940.07 1559.47 7939.55 1558.72 7938.52 1557.96 7937.49 1557.59 7935.99 1557.59 7934 1557.59 7932.02 1557.96 7930.51 1558.72 7929.47 1559.47 7928.44 1560.53 7927.92 1561.89 7927.92ZM1551.92 7927.91C1552.76 7927.91 1553.46 7928.05 1554.03 7928.33 1554.6 7928.61 1555.03 7929 1555.31 7929.48 1555.59 7929.97 1555.73 7930.51 1555.73 7931.12 1555.73 7931.65 1555.61 7932.12 1555.36 7932.53 1555.12 7932.93 1554.77 7933.25 1554.32 7933.49 1554.91 7933.78 1555.37 7934.17 1555.7 7934.67 1556.03 7935.17 1556.2 7935.78 1556.2 7936.48 1556.2 7937.19 1556.02 7937.81 1555.68 7938.35 1555.33 7938.9 1554.83 7939.32 1554.19 7939.62 1553.54 7939.92 1552.79 7940.07 1551.92 7940.07 1551.04 7940.07 1550.27 7939.91 1549.61 7939.61 1548.96 7939.31 1548.45 7938.88 1548.1 7938.35 1547.75 7937.81 1547.57 7937.19 1547.57 7936.48 1547.57 7935.78 1547.74 7935.17 1548.08 7934.67 1548.41 7934.17 1548.87 7933.78 1549.46 7933.51 1548.99 7933.26 1548.63 7932.93 1548.36 7932.53 1548.1 7932.12 1547.97 7931.65 1547.97 7931.12 1547.97 7930.53 1548.12 7930 1548.43 7929.51 1548.73 7929.01 1549.18 7928.63 1549.78 7928.34 1550.38 7928.05 1551.09 7927.91 1551.92 7927.91Z" stroke="#000000" stroke-linejoin="round" stroke-miterlimit="10" stroke-opacity="0.54902" fill="#FFFFFF" fill-rule="evenodd"/><text fill="#000000" fill-opacity="0" font-family="Arial,Arial_MSFontService,sans-serif" font-size="12.1602" x="1511.12" y="7938.55">RX 6800M</text></g></g></svg>