<svg width="1378" height="1556" xmlns="http://www.w3.org/2000/svg" xmlns:xlink="http://www.w3.org/1999/xlink" xml:space="preserve" overflow="hidden"><defs><clipPath id="clip0"><rect x="455" y="7054" width="1378" height="1556"/></clipPath></defs><g clip-path="url(#clip0)" transform="translate(-455 -7054)"><g><path d="M1103 8045C1085.33 8054 1067.67 8063 1050 8072" stroke="#BFBFBF" stroke-width="4.125" stroke-linecap="round" stroke-linejoin="round" stroke-miterlimit="10" stroke-dasharray="0 8.25" fill="none"/></g><g><path d="M1106.95 8044.84C1106.95 8047.05 1105.16 8048.84 1102.95 8048.84 1100.74 8048.84 1098.95 8047.05 1098.95 8044.84 1098.95 8042.63 1100.74 8040.84 1102.95 8040.84 1105.16 8040.84 1106.95 8042.63 1106.95 8044.84Z" stroke="#C9C9C9" stroke-width="3.4375" stroke-linejoin="round" stroke-miterlimit="10" fill="#C9C9C9"/><path d="M1052.95 8070.84C1052.95 8073.05 1051.16 8074.84 1048.95 8074.84 1046.74 8074.84 1044.95 8073.05 1044.95 8070.84 1044.95 8068.63 1046.74 8066.84 1048.95 8066.84 1051.16 8066.84 1052.95 8068.63 1052.95 8070.84Z" stroke="#C9C9C9" stroke-width="3.4375" stroke-linejoin="round" stroke-miterlimit="10" fill="#C9C9C9"/></g><g><path d="M1155.52 8041.86C1155.08 8041.86 1154.73 8041.99 1154.46 8042.26 1154.2 8042.54 1154.06 8042.9 1154.06 8043.34 1154.06 8043.79 1154.2 8044.15 1154.47 8044.42 1154.74 8044.68 1155.09 8044.82 1155.52 8044.82 1155.93 8044.82 1156.26 8044.68 1156.52 8044.42 1156.78 8044.15 1156.91 8043.79 1156.91 8043.34 1156.91 8042.9 1156.79 8042.54 1156.54 8042.26 1156.29 8041.99 1155.95 8041.86 1155.52 8041.86ZM1146.54 8041.74C1146.11 8041.74 1145.76 8041.88 1145.5 8042.17 1145.23 8042.45 1145.1 8042.82 1145.1 8043.26 1145.1 8043.71 1145.23 8044.08 1145.5 8044.37 1145.78 8044.66 1146.12 8044.8 1146.54 8044.8 1146.95 8044.8 1147.29 8044.66 1147.56 8044.37 1147.83 8044.08 1147.96 8043.71 1147.96 8043.25 1147.96 8042.8 1147.83 8042.44 1147.56 8042.16 1147.29 8041.88 1146.95 8041.74 1146.54 8041.74ZM1117.45 8037.62 1117.45 8040.77 1118.65 8040.77C1119.26 8040.77 1119.78 8040.65 1120.21 8040.41 1120.64 8040.17 1120.86 8039.76 1120.86 8039.18 1120.86 8038.14 1120.12 8037.62 1118.65 8037.62ZM1175.49 8037.6C1175.01 8037.6 1174.65 8037.89 1174.42 8038.46 1174.2 8039.04 1174.08 8039.94 1174.08 8041.17 1174.08 8042.37 1174.2 8043.27 1174.42 8043.86 1174.65 8044.44 1175.01 8044.74 1175.49 8044.74 1175.96 8044.74 1176.3 8044.44 1176.53 8043.85 1176.75 8043.26 1176.86 8042.36 1176.86 8041.17 1176.86 8039.97 1176.75 8039.08 1176.53 8038.49 1176.3 8037.9 1175.96 8037.6 1175.49 8037.6ZM1165.49 8037.6C1165.01 8037.6 1164.65 8037.89 1164.42 8038.46 1164.2 8039.04 1164.08 8039.94 1164.08 8041.17 1164.08 8042.37 1164.2 8043.27 1164.42 8043.86 1164.65 8044.44 1165.01 8044.74 1165.49 8044.74 1165.96 8044.74 1166.3 8044.44 1166.53 8043.85 1166.75 8043.26 1166.86 8042.36 1166.86 8041.17 1166.86 8039.97 1166.75 8039.08 1166.53 8038.49 1166.3 8037.9 1165.96 8037.6 1165.49 8037.6ZM1155.52 8037.33C1155.18 8037.33 1154.91 8037.43 1154.7 8037.65 1154.5 8037.86 1154.4 8038.13 1154.4 8038.45 1154.4 8038.77 1154.5 8039.03 1154.7 8039.24 1154.91 8039.45 1155.18 8039.55 1155.52 8039.55 1155.85 8039.55 1156.12 8039.45 1156.34 8039.24 1156.55 8039.03 1156.66 8038.77 1156.66 8038.45 1156.66 8038.14 1156.55 8037.87 1156.34 8037.66 1156.12 8037.44 1155.85 8037.33 1155.52 8037.33ZM1114.71 8035.31 1118.97 8035.31C1119.94 8035.31 1120.78 8035.47 1121.5 8035.79 1122.22 8036.11 1122.78 8036.56 1123.16 8037.15 1123.54 8037.74 1123.74 8038.42 1123.74 8039.18 1123.74 8039.92 1123.56 8040.57 1123.21 8041.14 1122.86 8041.7 1122.35 8042.15 1121.69 8042.48L1124.72 8046.85 1128.9 8041.06 1124.8 8035.31 1128.14 8035.31 1130.56 8038.83 1133.01 8035.31 1136.16 8035.31 1132.06 8040.99 1136.37 8047.02 1132.99 8047.02 1130.38 8043.22 1127.73 8047.02 1124.84 8047.02 1124.59 8047.02 1124.59 8047.02 1121.59 8047.01 1119 8043.06 1118.92 8043.06 1117.45 8043.06 1117.45 8047.02 1114.71 8047.02ZM1146.26 8035.3 1149.19 8035.3 1146.98 8038.64C1146.62 8039.15 1146.4 8039.46 1146.31 8039.57 1146.58 8039.51 1146.83 8039.49 1147.06 8039.49 1147.81 8039.49 1148.47 8039.64 1149.04 8039.95 1149.61 8040.26 1150.06 8040.7 1150.38 8041.26 1150.7 8041.83 1150.86 8042.49 1150.86 8043.25 1150.86 8044.02 1150.66 8044.7 1150.27 8045.31 1149.88 8045.92 1149.36 8046.39 1148.7 8046.73 1148.04 8047.06 1147.32 8047.23 1146.55 8047.23 1145.77 8047.23 1145.06 8047.06 1144.4 8046.72 1143.74 8046.38 1143.22 8045.89 1142.84 8045.26 1142.46 8044.63 1142.26 8043.91 1142.26 8043.09 1142.26 8042.47 1142.38 8041.88 1142.61 8041.31 1142.84 8040.75 1143.26 8039.98 1143.88 8039.02ZM1185.6 8035.09C1186.62 8035.09 1187.52 8035.32 1188.29 8035.79 1189.06 8036.26 1189.55 8036.93 1189.78 8037.79L1187.54 8039.06C1187.37 8038.58 1187.1 8038.2 1186.74 8037.94 1186.39 8037.67 1185.95 8037.54 1185.44 8037.54 1185 8037.54 1184.65 8037.64 1184.38 8037.84 1184.1 8038.04 1183.97 8038.3 1183.97 8038.62 1183.97 8038.87 1184.06 8039.08 1184.25 8039.25 1184.44 8039.42 1184.67 8039.56 1184.94 8039.66 1185.22 8039.77 1185.62 8039.9 1186.13 8040.06 1186.92 8040.3 1187.56 8040.53 1188.05 8040.76 1188.54 8040.99 1188.97 8041.33 1189.33 8041.79 1189.69 8042.25 1189.87 8042.85 1189.87 8043.58 1189.87 8044.45 1189.65 8045.15 1189.19 8045.7 1188.74 8046.24 1188.17 8046.63 1187.49 8046.87 1186.81 8047.11 1186.11 8047.23 1185.39 8047.23 1184.32 8047.23 1183.33 8046.98 1182.43 8046.49 1181.54 8045.99 1180.94 8045.27 1180.64 8044.34L1182.85 8043.07C1183.08 8043.62 1183.43 8044.04 1183.88 8044.34 1184.33 8044.63 1184.87 8044.78 1185.49 8044.78 1185.95 8044.78 1186.32 8044.7 1186.6 8044.52 1186.88 8044.34 1187.02 8044.08 1187.02 8043.74 1187.02 8043.47 1186.93 8043.24 1186.74 8043.06 1186.54 8042.87 1186.3 8042.72 1186.02 8042.61 1185.73 8042.49 1185.32 8042.36 1184.8 8042.21 1184.03 8041.98 1183.41 8041.76 1182.92 8041.54 1182.44 8041.31 1182.02 8040.97 1181.66 8040.52 1181.31 8040.07 1181.14 8039.47 1181.14 8038.74 1181.14 8037.92 1181.35 8037.25 1181.77 8036.7 1182.19 8036.16 1182.74 8035.75 1183.42 8035.49 1184.09 8035.22 1184.82 8035.09 1185.6 8035.09ZM1175.49 8035.09C1176.85 8035.09 1177.91 8035.6 1178.65 8036.64 1179.39 8037.67 1179.76 8039.18 1179.76 8041.17 1179.76 8043.14 1179.39 8044.64 1178.65 8045.68 1177.91 8046.71 1176.85 8047.23 1175.49 8047.23 1174.12 8047.23 1173.06 8046.72 1172.31 8045.69 1171.56 8044.66 1171.18 8043.15 1171.18 8041.17 1171.18 8039.18 1171.56 8037.67 1172.31 8036.64 1173.06 8035.6 1174.12 8035.09 1175.49 8035.09ZM1165.49 8035.09C1166.85 8035.09 1167.91 8035.6 1168.65 8036.64 1169.39 8037.67 1169.76 8039.18 1169.76 8041.17 1169.76 8043.14 1169.39 8044.64 1168.65 8045.68 1167.91 8046.71 1166.85 8047.23 1165.49 8047.23 1164.12 8047.23 1163.06 8046.72 1162.31 8045.69 1161.56 8044.66 1161.18 8043.15 1161.18 8041.17 1161.18 8039.18 1161.56 8037.67 1162.31 8036.64 1163.06 8035.6 1164.12 8035.09 1165.49 8035.09ZM1155.52 8035.07C1156.35 8035.07 1157.05 8035.21 1157.62 8035.5 1158.2 8035.78 1158.62 8036.16 1158.9 8036.65 1159.19 8037.13 1159.33 8037.68 1159.33 8038.29 1159.33 8038.82 1159.21 8039.29 1158.96 8039.7 1158.72 8040.1 1158.37 8040.42 1157.92 8040.66 1158.51 8040.94 1158.97 8041.34 1159.3 8041.84 1159.63 8042.34 1159.79 8042.94 1159.79 8043.65 1159.79 8044.35 1159.62 8044.98 1159.27 8045.52 1158.93 8046.06 1158.43 8046.48 1157.78 8046.78 1157.14 8047.08 1156.38 8047.23 1155.52 8047.23 1154.64 8047.23 1153.86 8047.08 1153.21 8046.78 1152.55 8046.47 1152.05 8046.05 1151.7 8045.51 1151.34 8044.97 1151.17 8044.35 1151.17 8043.65 1151.17 8042.94 1151.34 8042.34 1151.67 8041.84 1152.01 8041.34 1152.47 8040.95 1153.06 8040.67 1152.59 8040.43 1152.22 8040.1 1151.96 8039.7 1151.7 8039.29 1151.57 8038.82 1151.57 8038.29 1151.57 8037.7 1151.72 8037.16 1152.02 8036.67 1152.33 8036.18 1152.78 8035.79 1153.38 8035.5 1153.97 8035.22 1154.69 8035.07 1155.52 8035.07Z" stroke="#000000" stroke-linejoin="round" stroke-miterlimit="10" stroke-opacity="0.54902" fill="#FFFFFF" fill-rule="evenodd"/><text fill="#000000" fill-opacity="0" font-family="Arial,Arial_MSFontService,sans-serif" font-size="12.1602" x="1114.71" y="8045.71">RX 6800S</text></g></g></svg>