<?xml version="1.0" encoding="utf-8" standalone="no"?>
<!DOCTYPE svg PUBLIC "-//W3C//DTD SVG 1.1//EN"
  "http://www.w3.org/Graphics/SVG/1.1/DTD/svg11.dtd">
<svg xmlns:xlink="http://www.w3.org/1999/xlink" width="1152pt" height="648pt" viewBox="0 0 1152 648" xmlns="http://www.w3.org/2000/svg" version="1.1">
 <metadata>
  <rdf:RDF xmlns:dc="http://purl.org/dc/elements/1.1/" xmlns:cc="http://creativecommons.org/ns#" xmlns:rdf="http://www.w3.org/1999/02/22-rdf-syntax-ns#">
   <cc:Work>
    <dc:type rdf:resource="http://purl.org/dc/dcmitype/StillImage"/>
    <dc:date>2025-05-29T13:59:26.820529</dc:date>
    <dc:format>image/svg+xml</dc:format>
    <dc:creator>
     <cc:Agent>
      <dc:title>Matplotlib v3.10.0, https://matplotlib.org/</dc:title>
     </cc:Agent>
    </dc:creator>
   </cc:Work>
  </rdf:RDF>
 </metadata>
 <defs>
  <style type="text/css">*{stroke-linejoin: round; stroke-linecap: butt}</style>
 </defs>
 <g id="figure_1">
  <g id="patch_1">
   <path d="M 0 648 
L 1152 648 
L 1152 0 
L 0 0 
L 0 648 
z
" style="fill: none"/>
  </g>
  <g id="axes_1">
   <g id="line2d_1">
    <path d="M 179.154 520.581345 
L 183.076909 516.002786 
L 186.999818 511.526965 
L 190.922727 507.15158 
L 194.845636 502.874379 
L 198.768545 498.693162 
L 202.691455 494.605775 
L 206.614364 490.610117 
L 210.537273 486.70413 
L 214.460182 482.885804 
L 218.383091 479.153173 
L 222.306 475.504316 
L 226.228909 471.937354 
L 230.151818 468.450451 
L 234.074727 465.041812 
L 237.997636 461.70968 
L 241.920545 458.452341 
L 245.843455 455.268117 
L 249.766364 452.155369 
L 253.689273 449.112491 
L 257.612182 446.137919 
L 261.535091 443.230119 
L 265.458 440.387594 
L 269.380909 437.608879 
L 273.303818 434.892543 
L 277.226727 432.237186 
L 281.149636 429.641441 
L 285.072545 427.10397 
L 288.995455 424.623466 
L 292.918364 422.19865 
L 296.841273 419.828273 
L 300.764182 417.511113 
L 304.687091 415.245977 
L 308.61 413.031696 
L 312.532909 410.867131 
L 316.455818 408.751164 
L 320.378727 406.682707 
L 324.301636 404.660691 
L 328.224545 402.684076 
L 332.147455 400.751842 
L 336.070364 398.862994 
L 339.993273 397.016557 
L 343.916182 395.21158 
L 347.839091 393.447132 
L 351.762 391.722303 
L 355.684909 390.036205 
L 359.607818 388.387968 
L 363.530727 386.776742 
L 367.453636 385.201696 
L 371.376545 383.662019 
L 375.299455 382.156916 
L 379.222364 380.685611 
L 383.145273 379.247345 
L 387.068182 377.841378 
L 390.991091 376.466983 
L 394.914 375.123453 
L 398.836909 373.810093 
L 402.759818 372.526228 
L 406.682727 371.271194 
L 410.605636 370.044344 
L 414.528545 368.845047 
L 418.451455 367.672682 
L 422.374364 366.526646 
L 426.297273 365.406347 
L 430.220182 364.311208 
L 434.143091 363.240664 
L 438.066 362.194162 
L 441.988909 361.171162 
L 445.911818 360.171137 
L 449.834727 359.193572 
L 453.757636 358.237961 
L 457.680545 357.303812 
L 461.603455 356.390643 
L 465.526364 355.497983 
L 469.449273 354.625371 
L 473.372182 353.772357 
L 477.295091 352.938502 
L 481.218 352.123374 
L 485.140909 351.326554 
L 489.063818 350.54763 
L 492.986727 349.7862 
L 496.909636 349.041872 
L 500.832545 348.314262 
L 504.755455 347.602994 
L 508.678364 346.9077 
L 512.601273 346.228024 
L 516.524182 345.563613 
L 520.447091 344.914124 
L 524.37 344.279224 
L 528.292909 343.658584 
L 532.215818 343.051883 
L 536.138727 342.45881 
L 540.061636 341.879057 
L 543.984545 341.312327 
L 547.907455 340.758325 
L 551.830364 340.216767 
L 555.753273 339.687373 
L 559.676182 339.169869 
L 563.599091 338.663989 
L 567.522 338.169472 
" clip-path="url(#p5bab984bd5)" style="fill: none; stroke: #f2ca79; stroke-width: 3; stroke-linecap: round"/>
   </g>
   <g id="text_1">
    <path d="M 574.967605 338.869165 
L 576.573855 338.869165 
Q 577.359792 338.869165 577.791042 338.461353 
Q 578.223855 338.05354 578.223855 337.311353 
L 578.223855 335.220728 
Q 578.223855 334.47854 577.791042 334.070728 
Q 577.359792 333.662915 576.573855 333.662915 
L 574.967605 333.662915 
L 574.967605 332.71604 
L 576.544167 332.71604 
Q 577.398855 332.71604 578.003542 333.014478 
Q 578.609792 333.311353 578.92698 333.883228 
Q 579.244167 334.455103 579.244167 335.25979 
L 579.244167 337.27229 
Q 579.244167 338.076978 578.92698 338.648853 
Q 578.609792 339.220728 578.00198 339.519165 
Q 577.394167 339.81604 576.53948 339.81604 
L 574.967605 339.81604 
L 574.967605 338.869165 
z
M 574.294167 332.71604 
L 575.28948 332.71604 
L 575.28948 339.81604 
L 574.294167 339.81604 
L 574.294167 332.71604 
z
M 582.78948 339.889478 
Q 582.14573 339.889478 581.656667 339.645728 
Q 581.169167 339.400415 580.90198 338.95354 
Q 580.636355 338.506665 580.636355 337.91604 
L 580.636355 337.798853 
Q 580.636355 337.267603 580.90198 336.798853 
Q 581.169167 336.330103 581.612917 336.09104 
Q 581.236355 335.88479 581.009792 335.49729 
Q 580.78323 335.108228 580.78323 334.67854 
L 580.78323 334.508228 
Q 580.78323 333.951978 581.031667 333.530103 
Q 581.280105 333.106665 581.734792 332.875415 
Q 582.18948 332.642603 582.78948 332.642603 
Q 583.38948 332.642603 583.844167 332.875415 
Q 584.298855 333.106665 584.547292 333.530103 
Q 584.79573 333.951978 584.79573 334.508228 
L 584.79573 334.67854 
Q 584.79573 335.119165 584.56448 335.505103 
Q 584.33323 335.889478 583.95198 336.09104 
Q 584.400417 336.33479 584.67073 336.801978 
Q 584.942605 337.267603 584.942605 337.798853 
L 584.942605 337.91604 
Q 584.942605 338.506665 584.67698 338.95354 
Q 584.411355 339.400415 583.922292 339.645728 
Q 583.434792 339.889478 582.78948 339.889478 
z
M 582.78948 338.931665 
Q 583.136355 338.931665 583.398855 338.795728 
Q 583.662917 338.658228 583.806667 338.412915 
Q 583.95198 338.16604 583.95198 337.842603 
L 583.95198 337.775415 
Q 583.95198 337.44729 583.806667 337.201978 
Q 583.662917 336.955103 583.398855 336.819165 
Q 583.136355 336.681665 582.78948 336.681665 
Q 582.442605 336.681665 582.178542 336.819165 
Q 581.916042 336.955103 581.77073 337.20354 
Q 581.62698 337.451978 581.62698 337.780103 
L 581.62698 337.85354 
Q 581.62698 338.175415 581.77073 338.419165 
Q 581.916042 338.662915 582.178542 338.79729 
Q 582.442605 338.931665 582.78948 338.931665 
z
M 582.78948 335.723853 
Q 583.087917 335.723853 583.316042 335.595728 
Q 583.54573 335.46604 583.672292 335.226978 
Q 583.800417 334.986353 583.800417 334.673853 
L 583.800417 334.606665 
Q 583.800417 334.308228 583.672292 334.07854 
Q 583.54573 333.848853 583.316042 333.725415 
Q 583.087917 333.600415 582.78948 333.600415 
Q 582.491042 333.600415 582.261355 333.725415 
Q 582.03323 333.848853 581.905105 334.07854 
Q 581.778542 334.308228 581.778542 334.611353 
L 581.778542 334.68479 
Q 581.778542 334.99104 581.905105 335.22854 
Q 582.03323 335.46604 582.261355 335.595728 
Q 582.491042 335.723853 582.78948 335.723853 
z
M 586.236355 337.862915 
L 588.619167 332.720728 
L 589.64573 332.720728 
L 587.32073 337.80354 
L 590.80198 337.80354 
L 590.80198 338.726978 
L 586.236355 338.726978 
L 586.236355 337.862915 
z
M 589.298855 335.64104 
L 590.27073 335.64104 
L 590.27073 339.820728 
L 589.298855 339.820728 
L 589.298855 335.64104 
z
M 594.049832 339.889478 
Q 593.052957 339.889478 592.537332 339.358228 
Q 592.023269 338.825415 592.023269 337.87229 
L 592.023269 334.645728 
Q 592.023269 333.687915 592.540457 333.158228 
Q 593.057644 332.62854 594.049832 332.62854 
Q 595.045144 332.62854 595.560769 333.156665 
Q 596.076394 333.683228 596.076394 334.645728 
L 596.076394 337.87229 
Q 596.076394 338.830103 595.557644 339.35979 
Q 595.040457 339.889478 594.049832 339.889478 
z
M 594.049832 338.942603 
Q 594.576394 338.942603 594.827957 338.66604 
Q 595.079519 338.389478 595.079519 337.87229 
L 595.079519 334.645728 
Q 595.079519 334.126978 594.829519 333.851978 
Q 594.581082 333.575415 594.049832 333.575415 
Q 593.517019 333.575415 593.267019 333.851978 
Q 593.018582 334.126978 593.018582 334.645728 
L 593.018582 337.87229 
Q 593.018582 338.389478 593.270144 338.66604 
Q 593.521707 338.942603 594.049832 338.942603 
z
M 599.56741 339.889478 
Q 598.570535 339.889478 598.05491 339.358228 
Q 597.540847 338.825415 597.540847 337.87229 
L 597.540847 334.645728 
Q 597.540847 333.687915 598.058035 333.158228 
Q 598.575222 332.62854 599.56741 332.62854 
Q 600.562722 332.62854 601.078347 333.156665 
Q 601.593972 333.683228 601.593972 334.645728 
L 601.593972 337.87229 
Q 601.593972 338.830103 601.075222 339.35979 
Q 600.558035 339.889478 599.56741 339.889478 
z
M 599.56741 338.942603 
Q 600.093972 338.942603 600.345535 338.66604 
Q 600.597097 338.389478 600.597097 337.87229 
L 600.597097 334.645728 
Q 600.597097 334.126978 600.347097 333.851978 
Q 600.09866 333.575415 599.56741 333.575415 
Q 599.034597 333.575415 598.784597 333.851978 
Q 598.53616 334.126978 598.53616 334.645728 
L 598.53616 337.87229 
Q 598.53616 338.389478 598.787722 338.66604 
Q 599.039285 338.942603 599.56741 338.942603 
z
M 610.015847 332.71604 
L 610.94866 332.71604 
L 610.94866 339.81604 
L 609.976785 339.81604 
L 609.976785 334.498853 
L 610.025222 334.811353 
L 608.278347 338.830103 
L 607.584597 338.830103 
L 605.83616 334.908228 
L 605.884597 334.498853 
L 605.884597 339.81604 
L 604.914285 339.81604 
L 604.914285 332.71604 
L 605.845535 332.71604 
L 607.931472 337.40354 
L 610.015847 332.71604 
z
M 614.640066 332.71604 
L 615.490066 332.71604 
L 618.107253 339.81604 
L 617.032253 339.81604 
L 615.065066 334.087915 
L 613.097878 339.81604 
L 612.022878 339.81604 
L 614.640066 332.71604 
z
M 613.229128 337.311353 
L 616.965066 337.311353 
L 616.965066 338.258228 
L 613.229128 338.258228 
L 613.229128 337.311353 
z
M 620.914675 336.695728 
L 620.763113 336.451978 
L 618.458425 332.71604 
L 619.577175 332.71604 
L 621.291238 335.606665 
L 621.452175 335.870728 
L 623.878738 339.81604 
L 622.759988 339.81604 
L 620.914675 336.695728 
z
M 620.870925 335.758228 
L 622.652175 332.71604 
L 623.770925 332.71604 
L 621.422488 336.55979 
L 619.5178 339.81604 
L 618.400613 339.81604 
L 620.870925 335.758228 
z
" style="fill: #ffffff; stroke: #000000"/>
    <path d="M 574.967605 338.869165 
L 576.573855 338.869165 
Q 577.359792 338.869165 577.791042 338.461353 
Q 578.223855 338.05354 578.223855 337.311353 
L 578.223855 335.220728 
Q 578.223855 334.47854 577.791042 334.070728 
Q 577.359792 333.662915 576.573855 333.662915 
L 574.967605 333.662915 
L 574.967605 332.71604 
L 576.544167 332.71604 
Q 577.398855 332.71604 578.003542 333.014478 
Q 578.609792 333.311353 578.92698 333.883228 
Q 579.244167 334.455103 579.244167 335.25979 
L 579.244167 337.27229 
Q 579.244167 338.076978 578.92698 338.648853 
Q 578.609792 339.220728 578.00198 339.519165 
Q 577.394167 339.81604 576.53948 339.81604 
L 574.967605 339.81604 
L 574.967605 338.869165 
z
M 574.294167 332.71604 
L 575.28948 332.71604 
L 575.28948 339.81604 
L 574.294167 339.81604 
L 574.294167 332.71604 
z
M 582.78948 339.889478 
Q 582.14573 339.889478 581.656667 339.645728 
Q 581.169167 339.400415 580.90198 338.95354 
Q 580.636355 338.506665 580.636355 337.91604 
L 580.636355 337.798853 
Q 580.636355 337.267603 580.90198 336.798853 
Q 581.169167 336.330103 581.612917 336.09104 
Q 581.236355 335.88479 581.009792 335.49729 
Q 580.78323 335.108228 580.78323 334.67854 
L 580.78323 334.508228 
Q 580.78323 333.951978 581.031667 333.530103 
Q 581.280105 333.106665 581.734792 332.875415 
Q 582.18948 332.642603 582.78948 332.642603 
Q 583.38948 332.642603 583.844167 332.875415 
Q 584.298855 333.106665 584.547292 333.530103 
Q 584.79573 333.951978 584.79573 334.508228 
L 584.79573 334.67854 
Q 584.79573 335.119165 584.56448 335.505103 
Q 584.33323 335.889478 583.95198 336.09104 
Q 584.400417 336.33479 584.67073 336.801978 
Q 584.942605 337.267603 584.942605 337.798853 
L 584.942605 337.91604 
Q 584.942605 338.506665 584.67698 338.95354 
Q 584.411355 339.400415 583.922292 339.645728 
Q 583.434792 339.889478 582.78948 339.889478 
z
M 582.78948 338.931665 
Q 583.136355 338.931665 583.398855 338.795728 
Q 583.662917 338.658228 583.806667 338.412915 
Q 583.95198 338.16604 583.95198 337.842603 
L 583.95198 337.775415 
Q 583.95198 337.44729 583.806667 337.201978 
Q 583.662917 336.955103 583.398855 336.819165 
Q 583.136355 336.681665 582.78948 336.681665 
Q 582.442605 336.681665 582.178542 336.819165 
Q 581.916042 336.955103 581.77073 337.20354 
Q 581.62698 337.451978 581.62698 337.780103 
L 581.62698 337.85354 
Q 581.62698 338.175415 581.77073 338.419165 
Q 581.916042 338.662915 582.178542 338.79729 
Q 582.442605 338.931665 582.78948 338.931665 
z
M 582.78948 335.723853 
Q 583.087917 335.723853 583.316042 335.595728 
Q 583.54573 335.46604 583.672292 335.226978 
Q 583.800417 334.986353 583.800417 334.673853 
L 583.800417 334.606665 
Q 583.800417 334.308228 583.672292 334.07854 
Q 583.54573 333.848853 583.316042 333.725415 
Q 583.087917 333.600415 582.78948 333.600415 
Q 582.491042 333.600415 582.261355 333.725415 
Q 582.03323 333.848853 581.905105 334.07854 
Q 581.778542 334.308228 581.778542 334.611353 
L 581.778542 334.68479 
Q 581.778542 334.99104 581.905105 335.22854 
Q 582.03323 335.46604 582.261355 335.595728 
Q 582.491042 335.723853 582.78948 335.723853 
z
M 586.236355 337.862915 
L 588.619167 332.720728 
L 589.64573 332.720728 
L 587.32073 337.80354 
L 590.80198 337.80354 
L 590.80198 338.726978 
L 586.236355 338.726978 
L 586.236355 337.862915 
z
M 589.298855 335.64104 
L 590.27073 335.64104 
L 590.27073 339.820728 
L 589.298855 339.820728 
L 589.298855 335.64104 
z
M 594.049832 339.889478 
Q 593.052957 339.889478 592.537332 339.358228 
Q 592.023269 338.825415 592.023269 337.87229 
L 592.023269 334.645728 
Q 592.023269 333.687915 592.540457 333.158228 
Q 593.057644 332.62854 594.049832 332.62854 
Q 595.045144 332.62854 595.560769 333.156665 
Q 596.076394 333.683228 596.076394 334.645728 
L 596.076394 337.87229 
Q 596.076394 338.830103 595.557644 339.35979 
Q 595.040457 339.889478 594.049832 339.889478 
z
M 594.049832 338.942603 
Q 594.576394 338.942603 594.827957 338.66604 
Q 595.079519 338.389478 595.079519 337.87229 
L 595.079519 334.645728 
Q 595.079519 334.126978 594.829519 333.851978 
Q 594.581082 333.575415 594.049832 333.575415 
Q 593.517019 333.575415 593.267019 333.851978 
Q 593.018582 334.126978 593.018582 334.645728 
L 593.018582 337.87229 
Q 593.018582 338.389478 593.270144 338.66604 
Q 593.521707 338.942603 594.049832 338.942603 
z
M 599.56741 339.889478 
Q 598.570535 339.889478 598.05491 339.358228 
Q 597.540847 338.825415 597.540847 337.87229 
L 597.540847 334.645728 
Q 597.540847 333.687915 598.058035 333.158228 
Q 598.575222 332.62854 599.56741 332.62854 
Q 600.562722 332.62854 601.078347 333.156665 
Q 601.593972 333.683228 601.593972 334.645728 
L 601.593972 337.87229 
Q 601.593972 338.830103 601.075222 339.35979 
Q 600.558035 339.889478 599.56741 339.889478 
z
M 599.56741 338.942603 
Q 600.093972 338.942603 600.345535 338.66604 
Q 600.597097 338.389478 600.597097 337.87229 
L 600.597097 334.645728 
Q 600.597097 334.126978 600.347097 333.851978 
Q 600.09866 333.575415 599.56741 333.575415 
Q 599.034597 333.575415 598.784597 333.851978 
Q 598.53616 334.126978 598.53616 334.645728 
L 598.53616 337.87229 
Q 598.53616 338.389478 598.787722 338.66604 
Q 599.039285 338.942603 599.56741 338.942603 
z
M 610.015847 332.71604 
L 610.94866 332.71604 
L 610.94866 339.81604 
L 609.976785 339.81604 
L 609.976785 334.498853 
L 610.025222 334.811353 
L 608.278347 338.830103 
L 607.584597 338.830103 
L 605.83616 334.908228 
L 605.884597 334.498853 
L 605.884597 339.81604 
L 604.914285 339.81604 
L 604.914285 332.71604 
L 605.845535 332.71604 
L 607.931472 337.40354 
L 610.015847 332.71604 
z
M 614.640066 332.71604 
L 615.490066 332.71604 
L 618.107253 339.81604 
L 617.032253 339.81604 
L 615.065066 334.087915 
L 613.097878 339.81604 
L 612.022878 339.81604 
L 614.640066 332.71604 
z
M 613.229128 337.311353 
L 616.965066 337.311353 
L 616.965066 338.258228 
L 613.229128 338.258228 
L 613.229128 337.311353 
z
M 620.914675 336.695728 
L 620.763113 336.451978 
L 618.458425 332.71604 
L 619.577175 332.71604 
L 621.291238 335.606665 
L 621.452175 335.870728 
L 623.878738 339.81604 
L 622.759988 339.81604 
L 620.914675 336.695728 
z
M 620.870925 335.758228 
L 622.652175 332.71604 
L 623.770925 332.71604 
L 621.422488 336.55979 
L 619.5178 339.81604 
L 618.400613 339.81604 
L 620.870925 335.758228 
z
" style="fill: #ffffff"/>
   </g>
  </g>
 </g>
 <defs>
  <clipPath id="p5bab984bd5">
   <rect x="144" y="77.76" width="892.8" height="498.96"/>
  </clipPath>
 </defs>
</svg>
