<?xml version="1.0" encoding="utf-8" standalone="no"?>
<!DOCTYPE svg PUBLIC "-//W3C//DTD SVG 1.1//EN"
  "http://www.w3.org/Graphics/SVG/1.1/DTD/svg11.dtd">
<svg xmlns:xlink="http://www.w3.org/1999/xlink" width="1152pt" height="648pt" viewBox="0 0 1152 648" xmlns="http://www.w3.org/2000/svg" version="1.1">
 <metadata>
  <rdf:RDF xmlns:dc="http://purl.org/dc/elements/1.1/" xmlns:cc="http://creativecommons.org/ns#" xmlns:rdf="http://www.w3.org/1999/02/22-rdf-syntax-ns#">
   <cc:Work>
    <dc:type rdf:resource="http://purl.org/dc/dcmitype/StillImage"/>
    <dc:date>2025-09-19T13:51:42.651997</dc:date>
    <dc:format>image/svg+xml</dc:format>
    <dc:creator>
     <cc:Agent>
      <dc:title>Matplotlib v3.10.3, https://matplotlib.org/</dc:title>
     </cc:Agent>
    </dc:creator>
   </cc:Work>
  </rdf:RDF>
 </metadata>
 <defs>
  <style type="text/css">*{stroke-linejoin: round; stroke-linecap: butt}</style>
 </defs>
 <g id="figure_1">
  <g id="patch_1">
   <path d="M 0 648 
L 1152 648 
L 1152 0 
L 0 0 
L 0 648 
z
" style="fill: none"/>
  </g>
  <g id="axes_1">
   <g id="line2d_1">
    <path d="M 214.928 552.780963 
L 216.250667 552.271876 
L 217.573333 551.762974 
L 218.896 551.254442 
L 220.218667 550.746464 
L 221.541333 550.239223 
L 222.864 549.732901 
L 224.186667 549.22768 
L 225.509333 548.723739 
L 226.832 548.221254 
L 228.154667 547.720403 
L 229.477333 547.221357 
L 230.8 546.724288 
L 232.122667 546.229363 
L 233.445333 545.736747 
L 234.768 545.246602 
L 236.090667 544.759085 
L 237.413333 544.274352 
L 238.736 543.792554 
L 240.058667 543.313836 
L 241.381333 542.838343 
L 242.704 542.366212 
L 244.026667 541.897578 
L 245.349333 541.43257 
L 246.672 540.971314 
L 247.994667 540.513929 
L 249.317333 540.060532 
L 250.64 539.611233 
L 251.962667 539.166138 
L 253.285333 538.725347 
L 254.608 538.288956 
L 255.930667 537.857056 
L 257.253333 537.429733 
L 258.576 537.007066 
L 259.898667 536.589132 
L 261.221333 536.176 
L 262.544 535.767736 
L 263.866667 535.364399 
L 265.189333 534.966046 
L 266.512 534.572726 
L 267.834667 534.184485 
L 269.157333 533.801363 
L 270.48 533.423397 
L 271.802667 533.050617 
L 273.125333 532.68305 
L 274.448 532.320719 
L 275.770667 531.963641 
L 277.093333 531.611829 
L 278.416 531.265294 
L 279.738667 530.924039 
L 281.061333 530.588068 
L 282.384 530.257377 
L 283.706667 529.931959 
L 285.029333 529.611806 
L 286.352 529.296905 
L 287.674667 528.987238 
L 288.997333 528.682785 
L 290.32 528.383525 
L 291.642667 528.089432 
L 292.965333 527.800476 
L 294.288 527.516627 
L 295.610667 527.23785 
L 296.933333 526.964111 
L 298.256 526.69537 
L 299.578667 526.431586 
L 300.901333 526.172718 
L 302.224 525.918719 
L 303.546667 525.669545 
L 304.869333 525.425146 
L 306.192 525.185473 
L 307.514667 524.950475 
L 308.837333 524.720099 
L 310.16 524.494292 
L 311.482667 524.272998 
L 312.805333 524.056162 
L 314.128 523.843727 
L 315.450667 523.635634 
L 316.773333 523.431826 
L 318.096 523.232243 
L 319.418667 523.036826 
L 320.741333 522.845514 
L 322.064 522.658246 
L 323.386667 522.474962 
L 324.709333 522.295601 
L 326.032 522.1201 
L 327.354667 521.948399 
L 328.677333 521.780435 
L 330 521.616147 
L 331.322667 521.455473 
L 332.645333 521.298352 
L 333.968 521.144723 
L 335.290667 520.994524 
L 336.613333 520.847695 
L 337.936 520.704175 
L 339.258667 520.563903 
L 340.581333 520.426821 
L 341.904 520.292868 
L 343.226667 520.161986 
L 344.549333 520.034116 
L 345.872 519.9092 
" clip-path="url(#p45f85c5371)" style="fill: none; stroke: #d2f230; stroke-width: 3; stroke-linecap: round"/>
   </g>
   <g id="text_1">
    <path d="M 353.317605 520.608893 
L 354.923855 520.608893 
Q 355.709792 520.608893 356.141042 520.20108 
Q 356.573855 519.793268 356.573855 519.05108 
L 356.573855 516.960455 
Q 356.573855 516.218268 356.141042 515.810455 
Q 355.709792 515.402643 354.923855 515.402643 
L 353.317605 515.402643 
L 353.317605 514.455768 
L 354.894167 514.455768 
Q 355.748855 514.455768 356.353543 514.754205 
Q 356.959792 515.05108 357.27698 515.622955 
Q 357.594167 516.19483 357.594167 516.999518 
L 357.594167 519.012018 
Q 357.594167 519.816705 357.27698 520.38858 
Q 356.959792 520.960455 356.35198 521.258893 
Q 355.744168 521.555768 354.88948 521.555768 
L 353.317605 521.555768 
L 353.317605 520.608893 
z
M 352.644167 514.455768 
L 353.63948 514.455768 
L 353.63948 521.555768 
L 352.644167 521.555768 
L 352.644167 514.455768 
z
M 360.773855 521.555768 
L 359.77698 521.555768 
L 359.77698 515.540143 
L 358.766042 516.160455 
L 358.766042 515.129205 
L 359.77698 514.455768 
L 360.773855 514.455768 
L 360.773855 521.555768 
z
M 362.277175 520.691705 
L 364.752175 517.390143 
Q 364.9678 517.10733 365.08655 516.802643 
Q 365.206863 516.496393 365.206863 516.233893 
L 365.206863 516.222955 
Q 365.206863 515.799518 364.956863 515.565143 
Q 364.708425 515.330768 364.250613 515.330768 
Q 363.814675 515.330768 363.545925 515.587018 
Q 363.278738 515.843268 363.219363 516.312018 
L 363.219363 516.316705 
L 362.189675 516.316705 
L 362.189675 516.312018 
Q 362.277175 515.70108 362.547488 515.26983 
Q 362.819363 514.837018 363.24905 514.610455 
Q 363.678738 514.38233 364.239675 514.38233 
Q 364.875613 514.38233 365.32405 514.599518 
Q 365.77405 514.816705 366.008425 515.23233 
Q 366.2428 515.647955 366.2428 516.233893 
L 366.2428 516.23858 
Q 366.2428 516.61358 366.08655 517.024518 
Q 365.9303 517.433893 365.650613 517.815143 
L 363.595925 520.608893 
L 366.281863 520.608893 
L 366.281863 521.555768 
L 362.277175 521.555768 
L 362.277175 520.691705 
z
M 369.577566 521.629205 
Q 368.580691 521.629205 368.065066 521.097955 
Q 367.551003 520.565143 367.551003 519.612018 
L 367.551003 516.385455 
Q 367.551003 515.427643 368.068191 514.897955 
Q 368.585378 514.368268 369.577566 514.368268 
Q 370.572878 514.368268 371.088503 514.896393 
Q 371.604128 515.422955 371.604128 516.385455 
L 371.604128 519.612018 
Q 371.604128 520.56983 371.085378 521.099518 
Q 370.568191 521.629205 369.577566 521.629205 
z
M 369.577566 520.68233 
Q 370.104128 520.68233 370.355691 520.405768 
Q 370.607253 520.129205 370.607253 519.612018 
L 370.607253 516.385455 
Q 370.607253 515.866705 370.357253 515.591705 
Q 370.108816 515.315143 369.577566 515.315143 
Q 369.044753 515.315143 368.794753 515.591705 
Q 368.546316 515.866705 368.546316 516.385455 
L 368.546316 519.612018 
Q 368.546316 520.129205 368.797878 520.405768 
Q 369.049441 520.68233 369.577566 520.68233 
z
M 375.095144 521.629205 
Q 374.098269 521.629205 373.582644 521.097955 
Q 373.068582 520.565143 373.068582 519.612018 
L 373.068582 516.385455 
Q 373.068582 515.427643 373.585769 514.897955 
Q 374.102957 514.368268 375.095144 514.368268 
Q 376.090457 514.368268 376.606082 514.896393 
Q 377.121707 515.422955 377.121707 516.385455 
L 377.121707 519.612018 
Q 377.121707 520.56983 376.602957 521.099518 
Q 376.085769 521.629205 375.095144 521.629205 
z
M 375.095144 520.68233 
Q 375.621707 520.68233 375.873269 520.405768 
Q 376.124832 520.129205 376.124832 519.612018 
L 376.124832 516.385455 
Q 376.124832 515.866705 375.874832 515.591705 
Q 375.626394 515.315143 375.095144 515.315143 
Q 374.562332 515.315143 374.312332 515.591705 
Q 374.063894 515.866705 374.063894 516.385455 
L 374.063894 519.612018 
Q 374.063894 520.129205 374.315457 520.405768 
Q 374.567019 520.68233 375.095144 520.68233 
z
" style="fill: #ffffff; stroke: #000000"/>
    <path d="M 353.317605 520.608893 
L 354.923855 520.608893 
Q 355.709792 520.608893 356.141042 520.20108 
Q 356.573855 519.793268 356.573855 519.05108 
L 356.573855 516.960455 
Q 356.573855 516.218268 356.141042 515.810455 
Q 355.709792 515.402643 354.923855 515.402643 
L 353.317605 515.402643 
L 353.317605 514.455768 
L 354.894167 514.455768 
Q 355.748855 514.455768 356.353543 514.754205 
Q 356.959792 515.05108 357.27698 515.622955 
Q 357.594167 516.19483 357.594167 516.999518 
L 357.594167 519.012018 
Q 357.594167 519.816705 357.27698 520.38858 
Q 356.959792 520.960455 356.35198 521.258893 
Q 355.744168 521.555768 354.88948 521.555768 
L 353.317605 521.555768 
L 353.317605 520.608893 
z
M 352.644167 514.455768 
L 353.63948 514.455768 
L 353.63948 521.555768 
L 352.644167 521.555768 
L 352.644167 514.455768 
z
M 360.773855 521.555768 
L 359.77698 521.555768 
L 359.77698 515.540143 
L 358.766042 516.160455 
L 358.766042 515.129205 
L 359.77698 514.455768 
L 360.773855 514.455768 
L 360.773855 521.555768 
z
M 362.277175 520.691705 
L 364.752175 517.390143 
Q 364.9678 517.10733 365.08655 516.802643 
Q 365.206863 516.496393 365.206863 516.233893 
L 365.206863 516.222955 
Q 365.206863 515.799518 364.956863 515.565143 
Q 364.708425 515.330768 364.250613 515.330768 
Q 363.814675 515.330768 363.545925 515.587018 
Q 363.278738 515.843268 363.219363 516.312018 
L 363.219363 516.316705 
L 362.189675 516.316705 
L 362.189675 516.312018 
Q 362.277175 515.70108 362.547488 515.26983 
Q 362.819363 514.837018 363.24905 514.610455 
Q 363.678738 514.38233 364.239675 514.38233 
Q 364.875613 514.38233 365.32405 514.599518 
Q 365.77405 514.816705 366.008425 515.23233 
Q 366.2428 515.647955 366.2428 516.233893 
L 366.2428 516.23858 
Q 366.2428 516.61358 366.08655 517.024518 
Q 365.9303 517.433893 365.650613 517.815143 
L 363.595925 520.608893 
L 366.281863 520.608893 
L 366.281863 521.555768 
L 362.277175 521.555768 
L 362.277175 520.691705 
z
M 369.577566 521.629205 
Q 368.580691 521.629205 368.065066 521.097955 
Q 367.551003 520.565143 367.551003 519.612018 
L 367.551003 516.385455 
Q 367.551003 515.427643 368.068191 514.897955 
Q 368.585378 514.368268 369.577566 514.368268 
Q 370.572878 514.368268 371.088503 514.896393 
Q 371.604128 515.422955 371.604128 516.385455 
L 371.604128 519.612018 
Q 371.604128 520.56983 371.085378 521.099518 
Q 370.568191 521.629205 369.577566 521.629205 
z
M 369.577566 520.68233 
Q 370.104128 520.68233 370.355691 520.405768 
Q 370.607253 520.129205 370.607253 519.612018 
L 370.607253 516.385455 
Q 370.607253 515.866705 370.357253 515.591705 
Q 370.108816 515.315143 369.577566 515.315143 
Q 369.044753 515.315143 368.794753 515.591705 
Q 368.546316 515.866705 368.546316 516.385455 
L 368.546316 519.612018 
Q 368.546316 520.129205 368.797878 520.405768 
Q 369.049441 520.68233 369.577566 520.68233 
z
M 375.095144 521.629205 
Q 374.098269 521.629205 373.582644 521.097955 
Q 373.068582 520.565143 373.068582 519.612018 
L 373.068582 516.385455 
Q 373.068582 515.427643 373.585769 514.897955 
Q 374.102957 514.368268 375.095144 514.368268 
Q 376.090457 514.368268 376.606082 514.896393 
Q 377.121707 515.422955 377.121707 516.385455 
L 377.121707 519.612018 
Q 377.121707 520.56983 376.602957 521.099518 
Q 376.085769 521.629205 375.095144 521.629205 
z
M 375.095144 520.68233 
Q 375.621707 520.68233 375.873269 520.405768 
Q 376.124832 520.129205 376.124832 519.612018 
L 376.124832 516.385455 
Q 376.124832 515.866705 375.874832 515.591705 
Q 375.626394 515.315143 375.095144 515.315143 
Q 374.562332 515.315143 374.312332 515.591705 
Q 374.063894 515.866705 374.063894 516.385455 
L 374.063894 519.612018 
Q 374.063894 520.129205 374.315457 520.405768 
Q 374.567019 520.68233 375.095144 520.68233 
z
" style="fill: #ffffff"/>
   </g>
  </g>
 </g>
 <defs>
  <clipPath id="p45f85c5371">
   <rect x="144" y="77.76" width="892.8" height="498.96"/>
  </clipPath>
 </defs>
</svg>
