<?xml version="1.0" encoding="utf-8" standalone="no"?>
<!DOCTYPE svg PUBLIC "-//W3C//DTD SVG 1.1//EN"
  "http://www.w3.org/Graphics/SVG/1.1/DTD/svg11.dtd">
<svg xmlns:xlink="http://www.w3.org/1999/xlink" width="1152pt" height="648pt" viewBox="0 0 1152 648" xmlns="http://www.w3.org/2000/svg" version="1.1">
 <metadata>
  <rdf:RDF xmlns:dc="http://purl.org/dc/elements/1.1/" xmlns:cc="http://creativecommons.org/ns#" xmlns:rdf="http://www.w3.org/1999/02/22-rdf-syntax-ns#">
   <cc:Work>
    <dc:type rdf:resource="http://purl.org/dc/dcmitype/StillImage"/>
    <dc:date>2025-05-29T13:59:26.852839</dc:date>
    <dc:format>image/svg+xml</dc:format>
    <dc:creator>
     <cc:Agent>
      <dc:title>Matplotlib v3.10.0, https://matplotlib.org/</dc:title>
     </cc:Agent>
    </dc:creator>
   </cc:Work>
  </rdf:RDF>
 </metadata>
 <defs>
  <style type="text/css">*{stroke-linejoin: round; stroke-linecap: butt}</style>
 </defs>
 <g id="figure_1">
  <g id="patch_1">
   <path d="M 0 648 
L 1152 648 
L 1152 0 
L 0 0 
L 0 648 
z
" style="fill: none"/>
  </g>
  <g id="axes_1">
   <g id="line2d_1">
    <path d="M 220.446 508.415723 
L 228.359455 499.450556 
L 236.272909 490.662971 
L 244.186364 482.04993 
L 252.099818 473.608426 
L 260.013273 465.335486 
L 267.926727 457.228167 
L 275.840182 449.283562 
L 283.753636 441.498797 
L 291.667091 433.871032 
L 299.580545 426.397462 
L 307.494 419.075317 
L 315.407455 411.90186 
L 323.320909 404.874393 
L 331.234364 397.990249 
L 339.147818 391.2468 
L 347.061273 384.641453 
L 354.974727 378.17165 
L 362.888182 371.834869 
L 370.801636 365.628625 
L 378.715091 359.550466 
L 386.628545 353.597979 
L 394.542 347.768786 
L 402.455455 342.060542 
L 410.368909 336.470941 
L 418.282364 330.99771 
L 426.195818 325.638613 
L 434.109273 320.391447 
L 442.022727 315.254045 
L 449.936182 310.224275 
L 457.849636 305.300039 
L 465.763091 300.479272 
L 473.676545 295.759946 
L 481.59 291.140062 
L 489.503455 286.617658 
L 497.416909 282.190805 
L 505.330364 277.857604 
L 513.243818 273.616191 
L 521.157273 269.464733 
L 529.070727 265.401429 
L 536.984182 261.424509 
L 544.897636 257.532236 
L 552.811091 253.7229 
L 560.724545 249.994826 
L 568.638 246.346365 
L 576.551455 242.7759 
L 584.464909 239.281842 
L 592.378364 235.862633 
L 600.291818 232.51674 
L 608.205273 229.242662 
L 616.118727 226.038924 
L 624.032182 222.904077 
L 631.945636 219.836702 
L 639.859091 216.835404 
L 647.772545 213.898816 
L 655.686 211.025596 
L 663.599455 208.214428 
L 671.512909 205.464021 
L 679.426364 202.773108 
L 687.339818 200.140447 
L 695.253273 197.56482 
L 703.166727 195.045033 
L 711.080182 192.579914 
L 718.993636 190.168315 
L 726.907091 187.80911 
L 734.820545 185.501195 
L 742.734 183.243488 
L 750.647455 181.034929 
L 758.560909 178.874477 
L 766.474364 176.761115 
L 774.387818 174.693842 
L 782.301273 172.671681 
L 790.214727 170.693672 
L 798.128182 168.758875 
L 806.041636 166.86637 
L 813.955091 165.015255 
L 821.868545 163.204645 
L 829.782 161.433674 
L 837.695455 159.701495 
L 845.608909 158.007275 
L 853.522364 156.350202 
L 861.435818 154.729476 
L 869.349273 153.144319 
L 877.262727 151.593963 
L 885.176182 150.077661 
L 893.089636 148.594678 
L 901.003091 147.144296 
L 908.916545 145.725811 
L 916.83 144.338535 
L 924.743455 142.981792 
L 932.656909 141.654922 
L 940.570364 140.357279 
L 948.483818 139.088227 
L 956.397273 137.847149 
L 964.310727 136.633436 
L 972.224182 135.446495 
L 980.137636 134.285743 
L 988.051091 133.150612 
L 995.964545 132.040542 
L 1003.878 130.95499 
" clip-path="url(#p0d6afa9bc4)" style="fill: none; stroke: #1f77b4; stroke-width: 3; stroke-linecap: round"/>
   </g>
   <g id="text_1">
    <path d="M 1012.38298 129.481246 
L 1012.231418 129.237496 
L 1009.92673 125.501558 
L 1011.04548 125.501558 
L 1012.759543 128.392183 
L 1012.92048 128.656246 
L 1015.347043 132.601558 
L 1014.228293 132.601558 
L 1012.38298 129.481246 
z
M 1012.33923 128.543746 
L 1014.12048 125.501558 
L 1015.23923 125.501558 
L 1012.890792 129.345308 
L 1010.986105 132.601558 
L 1009.868918 132.601558 
L 1012.33923 128.543746 
z
M 1016.758371 128.651558 
L 1019.180246 128.651558 
Q 1019.463058 128.651558 1019.681808 128.515621 
Q 1019.902121 128.378121 1020.020871 128.126558 
Q 1020.141183 127.874996 1020.141183 127.548433 
L 1020.141183 127.548433 
Q 1020.141183 127.220308 1020.020871 126.968746 
Q 1019.902121 126.717183 1019.684933 126.581246 
Q 1019.467746 126.443746 1019.180246 126.443746 
L 1016.758371 126.443746 
L 1016.758371 125.496871 
L 1019.141183 125.496871 
Q 1019.755246 125.496871 1020.220871 125.751558 
Q 1020.688058 126.004683 1020.944308 126.471871 
Q 1021.200558 126.937496 1021.200558 127.548433 
L 1021.200558 127.548433 
Q 1021.200558 128.157808 1020.941183 128.624996 
Q 1020.683371 129.090621 1020.216183 129.345308 
Q 1019.750558 129.598433 1019.141183 129.598433 
L 1016.758371 129.598433 
L 1016.758371 128.651558 
z
M 1016.323996 125.496871 
L 1017.319308 125.496871 
L 1017.319308 132.601558 
L 1016.323996 132.601558 
L 1016.323996 125.496871 
z
M 1018.691183 129.378121 
L 1019.683371 129.154683 
L 1021.498996 132.601558 
L 1020.317746 132.601558 
L 1018.691183 129.378121 
z
M 1022.744113 125.501558 
L 1023.740988 125.501558 
L 1023.740988 126.498433 
L 1022.744113 126.498433 
L 1022.744113 125.501558 
z
M 1022.744113 127.532808 
L 1023.740988 127.532808 
L 1023.740988 132.601558 
L 1022.744113 132.601558 
L 1022.744113 127.532808 
z
M 1025.253878 127.532808 
L 1026.250753 127.532808 
L 1026.250753 132.601558 
L 1025.253878 132.601558 
L 1025.253878 127.532808 
z
M 1028.330441 129.529683 
Q 1028.330441 128.993746 1028.052316 128.701558 
Q 1027.774191 128.407808 1027.271066 128.407808 
Q 1026.782003 128.407808 1026.516378 128.667183 
Q 1026.250753 128.924996 1026.250753 129.393746 
L 1026.147628 128.417183 
Q 1026.382003 127.957808 1026.760128 127.709371 
Q 1027.138253 127.459371 1027.597628 127.459371 
Q 1028.422628 127.459371 1028.874191 127.999996 
Q 1029.325753 128.539058 1029.325753 129.524996 
L 1029.325753 132.601558 
L 1028.330441 132.601558 
L 1028.330441 129.529683 
z
M 1032.539816 134.662496 
Q 1031.967941 134.662496 1031.516378 134.449996 
Q 1031.064816 134.237496 1030.814816 133.851558 
L 1030.814816 133.851558 
L 1031.489816 133.240621 
L 1031.489816 133.240621 
Q 1031.685128 133.509371 1031.955441 133.656246 
Q 1032.227316 133.803121 1032.524191 133.803121 
Q 1033.096066 133.803121 1033.408566 133.487496 
Q 1033.721066 133.173433 1033.721066 132.596871 
L 1033.721066 127.532808 
L 1034.716378 127.532808 
L 1034.716378 132.449996 
Q 1034.716378 133.148433 1034.460128 133.646871 
Q 1034.203878 134.145308 1033.714816 134.403121 
Q 1033.227316 134.662496 1032.539816 134.662496 
z
M 1032.446066 132.689058 
Q 1031.889816 132.689058 1031.496066 132.448433 
Q 1031.103878 132.206246 1030.897628 131.742183 
Q 1030.692941 131.278121 1030.692941 130.628121 
L 1030.692941 129.510933 
Q 1030.692941 128.856246 1030.892941 128.392183 
Q 1031.094503 127.928121 1031.477316 127.687496 
Q 1031.860128 127.445308 1032.397628 127.445308 
Q 1032.846066 127.445308 1033.219503 127.679683 
Q 1033.594503 127.914058 1033.822628 128.339058 
L 1033.721066 129.373433 
Q 1033.721066 129.051558 1033.603878 128.821871 
Q 1033.486691 128.592183 1033.263253 128.473433 
Q 1033.041378 128.353121 1032.724191 128.353121 
Q 1032.232003 128.353121 1031.960128 128.660933 
Q 1031.689816 128.968746 1031.689816 129.524996 
L 1031.689816 130.628121 
Q 1031.689816 131.181246 1031.960128 131.481246 
Q 1032.232003 131.781246 1032.724191 131.781246 
Q 1033.041378 131.781246 1033.263253 131.657808 
Q 1033.486691 131.532808 1033.603878 131.298433 
Q 1033.721066 131.064058 1033.721066 130.735933 
L 1033.789816 131.806246 
Q 1033.638253 132.181246 1033.292941 132.435933 
Q 1032.949191 132.689058 1032.446066 132.689058 
z
M 1040.3863 132.674996 
Q 1039.644113 132.674996 1039.076925 132.349996 
Q 1038.5113 132.024996 1038.200363 131.432808 
Q 1037.890988 130.839058 1037.890988 130.057808 
L 1037.890988 128.045308 
Q 1037.890988 127.264058 1038.200363 126.671871 
Q 1038.5113 126.078121 1039.076925 125.753121 
Q 1039.644113 125.428121 1040.3863 125.428121 
Q 1041.128488 125.428121 1041.694113 125.753121 
Q 1042.2613 126.078121 1042.570675 126.671871 
Q 1042.881613 127.264058 1042.881613 128.045308 
L 1042.881613 130.057808 
Q 1042.881613 130.839058 1042.570675 131.432808 
Q 1042.2613 132.024996 1041.694113 132.349996 
Q 1041.128488 132.674996 1040.3863 132.674996 
z
M 1040.3863 131.693746 
Q 1040.825363 131.693746 1041.159738 131.496871 
Q 1041.494113 131.298433 1041.676925 130.934371 
Q 1041.859738 130.570308 1041.859738 130.092183 
L 1041.859738 128.010933 
Q 1041.859738 127.532808 1041.676925 127.170308 
Q 1041.494113 126.806246 1041.159738 126.607808 
Q 1040.825363 126.409371 1040.3863 126.409371 
Q 1039.945675 126.409371 1039.6113 126.607808 
Q 1039.276925 126.806246 1039.094113 127.170308 
Q 1038.9113 127.532808 1038.9113 128.010933 
L 1038.9113 130.092183 
Q 1038.9113 130.570308 1039.094113 130.934371 
Q 1039.276925 131.298433 1039.6113 131.496871 
Q 1039.945675 131.693746 1040.3863 131.693746 
z
M 1046.060128 132.601558 
L 1045.063253 132.601558 
L 1045.063253 126.585933 
L 1044.052316 127.206246 
L 1044.052316 126.174996 
L 1045.063253 125.501558 
L 1046.060128 125.501558 
L 1046.060128 132.601558 
z
" style="fill: #ffffff; stroke: #000000"/>
    <path d="M 1012.38298 129.481246 
L 1012.231418 129.237496 
L 1009.92673 125.501558 
L 1011.04548 125.501558 
L 1012.759543 128.392183 
L 1012.92048 128.656246 
L 1015.347043 132.601558 
L 1014.228293 132.601558 
L 1012.38298 129.481246 
z
M 1012.33923 128.543746 
L 1014.12048 125.501558 
L 1015.23923 125.501558 
L 1012.890792 129.345308 
L 1010.986105 132.601558 
L 1009.868918 132.601558 
L 1012.33923 128.543746 
z
M 1016.758371 128.651558 
L 1019.180246 128.651558 
Q 1019.463058 128.651558 1019.681808 128.515621 
Q 1019.902121 128.378121 1020.020871 128.126558 
Q 1020.141183 127.874996 1020.141183 127.548433 
L 1020.141183 127.548433 
Q 1020.141183 127.220308 1020.020871 126.968746 
Q 1019.902121 126.717183 1019.684933 126.581246 
Q 1019.467746 126.443746 1019.180246 126.443746 
L 1016.758371 126.443746 
L 1016.758371 125.496871 
L 1019.141183 125.496871 
Q 1019.755246 125.496871 1020.220871 125.751558 
Q 1020.688058 126.004683 1020.944308 126.471871 
Q 1021.200558 126.937496 1021.200558 127.548433 
L 1021.200558 127.548433 
Q 1021.200558 128.157808 1020.941183 128.624996 
Q 1020.683371 129.090621 1020.216183 129.345308 
Q 1019.750558 129.598433 1019.141183 129.598433 
L 1016.758371 129.598433 
L 1016.758371 128.651558 
z
M 1016.323996 125.496871 
L 1017.319308 125.496871 
L 1017.319308 132.601558 
L 1016.323996 132.601558 
L 1016.323996 125.496871 
z
M 1018.691183 129.378121 
L 1019.683371 129.154683 
L 1021.498996 132.601558 
L 1020.317746 132.601558 
L 1018.691183 129.378121 
z
M 1022.744113 125.501558 
L 1023.740988 125.501558 
L 1023.740988 126.498433 
L 1022.744113 126.498433 
L 1022.744113 125.501558 
z
M 1022.744113 127.532808 
L 1023.740988 127.532808 
L 1023.740988 132.601558 
L 1022.744113 132.601558 
L 1022.744113 127.532808 
z
M 1025.253878 127.532808 
L 1026.250753 127.532808 
L 1026.250753 132.601558 
L 1025.253878 132.601558 
L 1025.253878 127.532808 
z
M 1028.330441 129.529683 
Q 1028.330441 128.993746 1028.052316 128.701558 
Q 1027.774191 128.407808 1027.271066 128.407808 
Q 1026.782003 128.407808 1026.516378 128.667183 
Q 1026.250753 128.924996 1026.250753 129.393746 
L 1026.147628 128.417183 
Q 1026.382003 127.957808 1026.760128 127.709371 
Q 1027.138253 127.459371 1027.597628 127.459371 
Q 1028.422628 127.459371 1028.874191 127.999996 
Q 1029.325753 128.539058 1029.325753 129.524996 
L 1029.325753 132.601558 
L 1028.330441 132.601558 
L 1028.330441 129.529683 
z
M 1032.539816 134.662496 
Q 1031.967941 134.662496 1031.516378 134.449996 
Q 1031.064816 134.237496 1030.814816 133.851558 
L 1030.814816 133.851558 
L 1031.489816 133.240621 
L 1031.489816 133.240621 
Q 1031.685128 133.509371 1031.955441 133.656246 
Q 1032.227316 133.803121 1032.524191 133.803121 
Q 1033.096066 133.803121 1033.408566 133.487496 
Q 1033.721066 133.173433 1033.721066 132.596871 
L 1033.721066 127.532808 
L 1034.716378 127.532808 
L 1034.716378 132.449996 
Q 1034.716378 133.148433 1034.460128 133.646871 
Q 1034.203878 134.145308 1033.714816 134.403121 
Q 1033.227316 134.662496 1032.539816 134.662496 
z
M 1032.446066 132.689058 
Q 1031.889816 132.689058 1031.496066 132.448433 
Q 1031.103878 132.206246 1030.897628 131.742183 
Q 1030.692941 131.278121 1030.692941 130.628121 
L 1030.692941 129.510933 
Q 1030.692941 128.856246 1030.892941 128.392183 
Q 1031.094503 127.928121 1031.477316 127.687496 
Q 1031.860128 127.445308 1032.397628 127.445308 
Q 1032.846066 127.445308 1033.219503 127.679683 
Q 1033.594503 127.914058 1033.822628 128.339058 
L 1033.721066 129.373433 
Q 1033.721066 129.051558 1033.603878 128.821871 
Q 1033.486691 128.592183 1033.263253 128.473433 
Q 1033.041378 128.353121 1032.724191 128.353121 
Q 1032.232003 128.353121 1031.960128 128.660933 
Q 1031.689816 128.968746 1031.689816 129.524996 
L 1031.689816 130.628121 
Q 1031.689816 131.181246 1031.960128 131.481246 
Q 1032.232003 131.781246 1032.724191 131.781246 
Q 1033.041378 131.781246 1033.263253 131.657808 
Q 1033.486691 131.532808 1033.603878 131.298433 
Q 1033.721066 131.064058 1033.721066 130.735933 
L 1033.789816 131.806246 
Q 1033.638253 132.181246 1033.292941 132.435933 
Q 1032.949191 132.689058 1032.446066 132.689058 
z
M 1040.3863 132.674996 
Q 1039.644113 132.674996 1039.076925 132.349996 
Q 1038.5113 132.024996 1038.200363 131.432808 
Q 1037.890988 130.839058 1037.890988 130.057808 
L 1037.890988 128.045308 
Q 1037.890988 127.264058 1038.200363 126.671871 
Q 1038.5113 126.078121 1039.076925 125.753121 
Q 1039.644113 125.428121 1040.3863 125.428121 
Q 1041.128488 125.428121 1041.694113 125.753121 
Q 1042.2613 126.078121 1042.570675 126.671871 
Q 1042.881613 127.264058 1042.881613 128.045308 
L 1042.881613 130.057808 
Q 1042.881613 130.839058 1042.570675 131.432808 
Q 1042.2613 132.024996 1041.694113 132.349996 
Q 1041.128488 132.674996 1040.3863 132.674996 
z
M 1040.3863 131.693746 
Q 1040.825363 131.693746 1041.159738 131.496871 
Q 1041.494113 131.298433 1041.676925 130.934371 
Q 1041.859738 130.570308 1041.859738 130.092183 
L 1041.859738 128.010933 
Q 1041.859738 127.532808 1041.676925 127.170308 
Q 1041.494113 126.806246 1041.159738 126.607808 
Q 1040.825363 126.409371 1040.3863 126.409371 
Q 1039.945675 126.409371 1039.6113 126.607808 
Q 1039.276925 126.806246 1039.094113 127.170308 
Q 1038.9113 127.532808 1038.9113 128.010933 
L 1038.9113 130.092183 
Q 1038.9113 130.570308 1039.094113 130.934371 
Q 1039.276925 131.298433 1039.6113 131.496871 
Q 1039.945675 131.693746 1040.3863 131.693746 
z
M 1046.060128 132.601558 
L 1045.063253 132.601558 
L 1045.063253 126.585933 
L 1044.052316 127.206246 
L 1044.052316 126.174996 
L 1045.063253 125.501558 
L 1046.060128 125.501558 
L 1046.060128 132.601558 
z
" style="fill: #ffffff"/>
   </g>
  </g>
 </g>
 <defs>
  <clipPath id="p0d6afa9bc4">
   <rect x="144" y="77.76" width="892.8" height="498.96"/>
  </clipPath>
 </defs>
</svg>
