<?xml version="1.0" encoding="utf-8" standalone="no"?>
<!DOCTYPE svg PUBLIC "-//W3C//DTD SVG 1.1//EN"
  "http://www.w3.org/Graphics/SVG/1.1/DTD/svg11.dtd">
<svg xmlns:xlink="http://www.w3.org/1999/xlink" width="1152pt" height="648pt" viewBox="0 0 1152 648" xmlns="http://www.w3.org/2000/svg" version="1.1">
 <metadata>
  <rdf:RDF xmlns:dc="http://purl.org/dc/elements/1.1/" xmlns:cc="http://creativecommons.org/ns#" xmlns:rdf="http://www.w3.org/1999/02/22-rdf-syntax-ns#">
   <cc:Work>
    <dc:type rdf:resource="http://purl.org/dc/dcmitype/StillImage"/>
    <dc:date>2025-09-19T13:51:42.476892</dc:date>
    <dc:format>image/svg+xml</dc:format>
    <dc:creator>
     <cc:Agent>
      <dc:title>Matplotlib v3.10.3, https://matplotlib.org/</dc:title>
     </cc:Agent>
    </dc:creator>
   </cc:Work>
  </rdf:RDF>
 </metadata>
 <defs>
  <style type="text/css">*{stroke-linejoin: round; stroke-linecap: butt}</style>
 </defs>
 <g id="figure_1">
  <g id="patch_1">
   <path d="M 0 648 
L 1152 648 
L 1152 0 
L 0 0 
L 0 648 
z
" style="fill: none"/>
  </g>
  <g id="axes_1">
   <g id="line2d_1">
    <path d="M 201.536 542.796545 
L 204.046061 541.001952 
L 206.556121 539.207988 
L 209.066182 537.415282 
L 211.576242 535.624458 
L 214.086303 533.836142 
L 216.596364 532.050952 
L 219.106424 530.269506 
L 221.616485 528.492412 
L 224.126545 526.720277 
L 226.636606 524.953698 
L 229.146667 523.193265 
L 231.656727 521.43956 
L 234.166788 519.693154 
L 236.676848 517.954612 
L 239.186909 516.224485 
L 241.69697 514.503314 
L 244.20703 512.791629 
L 246.717091 511.089946 
L 249.227152 509.398768 
L 251.737212 507.718587 
L 254.247273 506.049879 
L 256.757333 504.393104 
L 259.267394 502.74871 
L 261.777455 501.117129 
L 264.287515 499.498777 
L 266.797576 497.894053 
L 269.307636 496.303342 
L 271.817697 494.727011 
L 274.327758 493.165411 
L 276.837818 491.618876 
L 279.347879 490.087723 
L 281.857939 488.572253 
L 284.368 487.072749 
L 286.878061 485.589477 
L 289.388121 484.122687 
L 291.898182 482.672611 
L 294.408242 481.239464 
L 296.918303 479.823446 
L 299.428364 478.424738 
L 301.938424 477.043506 
L 304.448485 475.679901 
L 306.958545 474.334054 
L 309.468606 473.006085 
L 311.978667 471.696096 
L 314.488727 470.404173 
L 316.998788 469.13039 
L 319.508848 467.874804 
L 322.018909 466.637458 
L 324.52897 465.418382 
L 327.03903 464.217593 
L 329.549091 463.035093 
L 332.059152 461.870873 
L 334.569212 460.724911 
L 337.079273 459.597173 
L 339.589333 458.487613 
L 342.099394 457.396176 
L 344.609455 456.322794 
L 347.119515 455.267389 
L 349.629576 454.229875 
L 352.139636 453.210155 
L 354.649697 452.208124 
L 357.159758 451.223666 
L 359.669818 450.256661 
L 362.179879 449.306977 
L 364.689939 448.374479 
L 367.2 447.459021 
L 369.710061 446.560452 
L 372.220121 445.678617 
L 374.730182 444.813352 
L 377.240242 443.96449 
L 379.750303 443.131858 
L 382.260364 442.315278 
L 384.770424 441.514568 
L 387.280485 440.729543 
L 389.790545 439.960014 
L 392.300606 439.205788 
L 394.810667 438.46667 
L 397.320727 437.742461 
L 399.830788 437.032962 
L 402.340848 436.337969 
L 404.850909 435.657279 
L 407.36097 434.990686 
L 409.87103 434.337984 
L 412.381091 433.698963 
L 414.891152 433.073415 
L 417.401212 432.461132 
L 419.911273 431.861903 
L 422.421333 431.275519 
L 424.931394 430.70177 
L 427.441455 430.140447 
L 429.951515 429.591341 
L 432.461576 429.054244 
L 434.971636 428.528948 
L 437.481697 428.015246 
L 439.991758 427.512934 
L 442.501818 427.021806 
L 445.011879 426.54166 
L 447.521939 426.072295 
L 450.032 425.613509 
" clip-path="url(#p562c5089c6)" style="fill: none; stroke: #f29130; stroke-width: 3; stroke-linecap: round"/>
   </g>
   <g id="text_1">
    <path d="M 457.477605 426.313202 
L 459.083855 426.313202 
Q 459.869792 426.313202 460.301042 425.90539 
Q 460.733855 425.497577 460.733855 424.75539 
L 460.733855 422.664765 
Q 460.733855 421.922577 460.301042 421.514765 
Q 459.869792 421.106952 459.083855 421.106952 
L 457.477605 421.106952 
L 457.477605 420.160077 
L 459.054167 420.160077 
Q 459.908855 420.160077 460.513542 420.458515 
Q 461.119792 420.75539 461.43698 421.327265 
Q 461.754167 421.89914 461.754167 422.703827 
L 461.754167 424.716327 
Q 461.754167 425.521015 461.43698 426.09289 
Q 461.119792 426.664765 460.51198 426.963202 
Q 459.904167 427.260077 459.04948 427.260077 
L 457.477605 427.260077 
L 457.477605 426.313202 
z
M 456.804167 420.160077 
L 457.79948 420.160077 
L 457.79948 427.260077 
L 456.804167 427.260077 
L 456.804167 420.160077 
z
M 465.29948 427.333515 
Q 464.65573 427.333515 464.166667 427.089765 
Q 463.679167 426.844452 463.41198 426.397577 
Q 463.146355 425.950702 463.146355 425.360077 
L 463.146355 425.24289 
Q 463.146355 424.71164 463.41198 424.24289 
Q 463.679167 423.77414 464.122917 423.535077 
Q 463.746355 423.328827 463.519792 422.941327 
Q 463.29323 422.552265 463.29323 422.122577 
L 463.29323 421.952265 
Q 463.29323 421.396015 463.541667 420.97414 
Q 463.790105 420.550702 464.244792 420.319452 
Q 464.69948 420.08664 465.29948 420.08664 
Q 465.89948 420.08664 466.354167 420.319452 
Q 466.808855 420.550702 467.057292 420.97414 
Q 467.30573 421.396015 467.30573 421.952265 
L 467.30573 422.122577 
Q 467.30573 422.563202 467.07448 422.94914 
Q 466.84323 423.333515 466.46198 423.535077 
Q 466.910417 423.778827 467.18073 424.246015 
Q 467.452605 424.71164 467.452605 425.24289 
L 467.452605 425.360077 
Q 467.452605 425.950702 467.18698 426.397577 
Q 466.921355 426.844452 466.432292 427.089765 
Q 465.944792 427.333515 465.29948 427.333515 
z
M 465.29948 426.375702 
Q 465.646355 426.375702 465.908855 426.239765 
Q 466.172917 426.102265 466.316667 425.856952 
Q 466.46198 425.610077 466.46198 425.28664 
L 466.46198 425.219452 
Q 466.46198 424.891327 466.316667 424.646015 
Q 466.172917 424.39914 465.908855 424.263202 
Q 465.646355 424.125702 465.29948 424.125702 
Q 464.952605 424.125702 464.688542 424.263202 
Q 464.426042 424.39914 464.28073 424.647577 
Q 464.13698 424.896015 464.13698 425.22414 
L 464.13698 425.297577 
Q 464.13698 425.619452 464.28073 425.863202 
Q 464.426042 426.106952 464.688542 426.241327 
Q 464.952605 426.375702 465.29948 426.375702 
z
M 465.29948 423.16789 
Q 465.597917 423.16789 465.826042 423.039765 
Q 466.05573 422.910077 466.182292 422.671015 
Q 466.310417 422.43039 466.310417 422.11789 
L 466.310417 422.050702 
Q 466.310417 421.752265 466.182292 421.522577 
Q 466.05573 421.29289 465.826042 421.169452 
Q 465.597917 421.044452 465.29948 421.044452 
Q 465.001042 421.044452 464.771355 421.169452 
Q 464.54323 421.29289 464.415105 421.522577 
Q 464.288542 421.752265 464.288542 422.05539 
L 464.288542 422.128827 
Q 464.288542 422.435077 464.415105 422.672577 
Q 464.54323 422.910077 464.771355 423.039765 
Q 465.001042 423.16789 465.29948 423.16789 
z
M 470.68073 427.333515 
Q 470.085417 427.333515 469.63073 427.116327 
Q 469.176042 426.89914 468.89948 426.48664 
Q 468.62448 426.07414 468.551042 425.49289 
L 468.551042 425.49289 
L 469.566667 425.49289 
L 469.566667 425.49289 
Q 469.610417 425.794452 469.757292 425.989765 
Q 469.904167 426.185077 470.135417 426.28039 
Q 470.36823 426.375702 470.68073 426.375702 
Q 471.172917 426.375702 471.446355 426.113202 
Q 471.719792 425.84914 471.719792 425.371015 
L 471.719792 425.15539 
Q 471.719792 424.622577 471.460417 424.333515 
Q 471.202605 424.04289 470.729167 424.04289 
L 470.226042 424.04289 
L 470.226042 423.094452 
L 470.729167 423.094452 
Q 471.144792 423.094452 471.372917 422.846015 
Q 471.602605 422.597577 471.602605 422.14289 
L 471.602605 421.922577 
Q 471.602605 421.503827 471.360417 421.27414 
Q 471.119792 421.044452 470.676042 421.044452 
Q 470.421355 421.044452 470.221355 421.139765 
Q 470.021355 421.235077 469.882292 421.433515 
Q 469.74323 421.63039 469.679167 421.927265 
L 469.679167 421.927265 
L 468.66823 421.927265 
L 468.66823 421.927265 
Q 468.766667 421.347577 469.03698 420.931952 
Q 469.308855 420.516327 469.722917 420.302265 
Q 470.138542 420.08664 470.676042 420.08664 
Q 471.59323 420.08664 472.096355 420.571015 
Q 472.59948 421.053827 472.59948 421.933515 
L 472.59948 422.050702 
Q 472.59948 422.581952 472.310417 422.977265 
Q 472.022917 423.372577 471.496355 423.553827 
Q 472.077605 423.68039 472.396355 424.125702 
Q 472.716667 424.569452 472.716667 425.258515 
L 472.716667 425.375702 
Q 472.716667 425.996015 472.477605 426.435077 
Q 472.238542 426.87414 471.78073 427.103827 
Q 471.32448 427.333515 470.68073 427.333515 
z
M 476.159441 427.333515 
Q 475.162566 427.333515 474.646941 426.802265 
Q 474.132878 426.269452 474.132878 425.316327 
L 474.132878 422.089765 
Q 474.132878 421.131952 474.650066 420.602265 
Q 475.167253 420.072577 476.159441 420.072577 
Q 477.154753 420.072577 477.670378 420.600702 
Q 478.186003 421.127265 478.186003 422.089765 
L 478.186003 425.316327 
Q 478.186003 426.27414 477.667253 426.803827 
Q 477.150066 427.333515 476.159441 427.333515 
z
M 476.159441 426.38664 
Q 476.686003 426.38664 476.937566 426.110077 
Q 477.189128 425.833515 477.189128 425.316327 
L 477.189128 422.089765 
Q 477.189128 421.571015 476.939128 421.296015 
Q 476.690691 421.019452 476.159441 421.019452 
Q 475.626628 421.019452 475.376628 421.296015 
Q 475.128191 421.571015 475.128191 422.089765 
L 475.128191 425.316327 
Q 475.128191 425.833515 475.379753 426.110077 
Q 475.631316 426.38664 476.159441 426.38664 
z
M 481.677019 427.333515 
Q 480.680144 427.333515 480.164519 426.802265 
Q 479.650457 426.269452 479.650457 425.316327 
L 479.650457 422.089765 
Q 479.650457 421.131952 480.167644 420.602265 
Q 480.684832 420.072577 481.677019 420.072577 
Q 482.672332 420.072577 483.187957 420.600702 
Q 483.703582 421.127265 483.703582 422.089765 
L 483.703582 425.316327 
Q 483.703582 426.27414 483.184832 426.803827 
Q 482.667644 427.333515 481.677019 427.333515 
z
M 481.677019 426.38664 
Q 482.203582 426.38664 482.455144 426.110077 
Q 482.706707 425.833515 482.706707 425.316327 
L 482.706707 422.089765 
Q 482.706707 421.571015 482.456707 421.296015 
Q 482.208269 421.019452 481.677019 421.019452 
Q 481.144207 421.019452 480.894207 421.296015 
Q 480.645769 421.571015 480.645769 422.089765 
L 480.645769 425.316327 
Q 480.645769 425.833515 480.897332 426.110077 
Q 481.148894 426.38664 481.677019 426.38664 
z
M 489.416082 427.333515 
Q 488.630144 427.333515 488.070769 427.02414 
Q 487.511394 426.713202 487.217644 426.121015 
Q 486.925457 425.527265 486.925457 424.691327 
L 486.925457 420.160077 
L 487.922332 420.160077 
L 487.922332 424.725702 
Q 487.922332 425.502265 488.312957 425.927265 
Q 488.703582 426.352265 489.416082 426.352265 
Q 490.133269 426.352265 490.525457 425.927265 
Q 490.919207 425.502265 490.919207 424.725702 
L 490.919207 420.160077 
L 491.916082 420.160077 
L 491.916082 424.691327 
Q 491.916082 425.527265 491.622332 426.121015 
Q 491.330144 426.713202 490.767644 427.02414 
Q 490.206707 427.333515 489.416082 427.333515 
z
M 494.475066 425.950702 
Q 494.475066 426.13664 494.554753 426.23664 
Q 494.636003 426.33664 494.781316 426.33664 
L 495.250066 426.33664 
L 495.250066 427.285077 
L 494.664128 427.285077 
Q 494.098503 427.285077 493.787566 426.933515 
Q 493.478191 426.581952 493.478191 425.941327 
L 493.478191 420.160077 
L 494.475066 420.160077 
L 494.475066 425.950702 
z
M 497.692449 427.285077 
Q 497.076824 427.285077 496.790886 426.946015 
Q 496.504949 426.60539 496.504949 425.941327 
L 496.504949 420.716327 
L 497.501824 420.716327 
L 497.501824 425.950702 
Q 497.501824 426.13664 497.575261 426.23664 
Q 497.648699 426.33664 497.789324 426.33664 
L 498.269011 426.33664 
L 498.269011 427.285077 
L 497.692449 427.285077 
z
M 495.983074 422.191327 
L 498.269011 422.191327 
L 498.269011 423.089765 
L 495.983074 423.089765 
L 495.983074 422.191327 
z
M 499.635417 422.191327 
L 500.632292 422.191327 
L 500.632292 427.260077 
L 499.635417 427.260077 
L 499.635417 422.191327 
z
M 502.422917 423.39289 
Q 502.291667 423.231952 502.091667 423.14914 
Q 501.891667 423.066327 501.627605 423.066327 
Q 501.154167 423.066327 500.89323 423.327265 
Q 500.632292 423.588202 500.632292 424.052265 
L 500.529167 423.075702 
Q 500.763542 422.621015 501.133855 422.369452 
Q 501.50573 422.11789 501.954167 422.11789 
Q 502.301042 422.11789 502.582292 422.21789 
Q 502.863542 422.31789 503.072917 422.513202 
L 502.422917 423.39289 
z
M 506.763933 424.047577 
Q 506.763933 423.54914 506.498308 423.27414 
Q 506.232683 422.997577 505.743621 422.997577 
Q 505.440496 422.997577 505.149871 423.091327 
Q 504.860808 423.183515 504.635808 423.34914 
L 503.907683 422.850702 
Q 504.196746 422.503827 504.667058 422.31164 
Q 505.138933 422.11789 505.713933 422.11789 
Q 506.345183 422.11789 506.793621 422.341327 
Q 507.243621 422.563202 507.477996 422.985077 
Q 507.712371 423.406952 507.712371 424.003827 
L 507.712371 427.260077 
L 506.763933 427.260077 
L 506.763933 424.047577 
z
M 505.524871 427.333515 
Q 504.587371 427.333515 504.123308 426.946015 
Q 503.659246 426.556952 503.659246 425.766327 
Q 503.659246 425.013202 504.084246 424.638202 
Q 504.509246 424.26164 505.368621 424.26164 
L 506.807683 424.26164 
L 506.876433 425.063202 
L 505.373308 425.063202 
Q 504.982683 425.063202 504.788933 425.23664 
Q 504.596746 425.410077 504.596746 425.766327 
Q 504.596746 426.152265 504.852996 426.338202 
Q 505.109246 426.522577 505.631121 426.522577 
Q 506.202996 426.522577 506.482683 426.400702 
Q 506.763933 426.278827 506.763933 426.019452 
L 506.867058 426.731952 
Q 506.735808 426.938202 506.542058 427.069452 
Q 506.349871 427.200702 506.095183 427.266327 
Q 505.842058 427.333515 505.524871 427.333515 
z
" style="fill: #ffffff; stroke: #000000"/>
    <path d="M 457.477605 426.313202 
L 459.083855 426.313202 
Q 459.869792 426.313202 460.301042 425.90539 
Q 460.733855 425.497577 460.733855 424.75539 
L 460.733855 422.664765 
Q 460.733855 421.922577 460.301042 421.514765 
Q 459.869792 421.106952 459.083855 421.106952 
L 457.477605 421.106952 
L 457.477605 420.160077 
L 459.054167 420.160077 
Q 459.908855 420.160077 460.513542 420.458515 
Q 461.119792 420.75539 461.43698 421.327265 
Q 461.754167 421.89914 461.754167 422.703827 
L 461.754167 424.716327 
Q 461.754167 425.521015 461.43698 426.09289 
Q 461.119792 426.664765 460.51198 426.963202 
Q 459.904167 427.260077 459.04948 427.260077 
L 457.477605 427.260077 
L 457.477605 426.313202 
z
M 456.804167 420.160077 
L 457.79948 420.160077 
L 457.79948 427.260077 
L 456.804167 427.260077 
L 456.804167 420.160077 
z
M 465.29948 427.333515 
Q 464.65573 427.333515 464.166667 427.089765 
Q 463.679167 426.844452 463.41198 426.397577 
Q 463.146355 425.950702 463.146355 425.360077 
L 463.146355 425.24289 
Q 463.146355 424.71164 463.41198 424.24289 
Q 463.679167 423.77414 464.122917 423.535077 
Q 463.746355 423.328827 463.519792 422.941327 
Q 463.29323 422.552265 463.29323 422.122577 
L 463.29323 421.952265 
Q 463.29323 421.396015 463.541667 420.97414 
Q 463.790105 420.550702 464.244792 420.319452 
Q 464.69948 420.08664 465.29948 420.08664 
Q 465.89948 420.08664 466.354167 420.319452 
Q 466.808855 420.550702 467.057292 420.97414 
Q 467.30573 421.396015 467.30573 421.952265 
L 467.30573 422.122577 
Q 467.30573 422.563202 467.07448 422.94914 
Q 466.84323 423.333515 466.46198 423.535077 
Q 466.910417 423.778827 467.18073 424.246015 
Q 467.452605 424.71164 467.452605 425.24289 
L 467.452605 425.360077 
Q 467.452605 425.950702 467.18698 426.397577 
Q 466.921355 426.844452 466.432292 427.089765 
Q 465.944792 427.333515 465.29948 427.333515 
z
M 465.29948 426.375702 
Q 465.646355 426.375702 465.908855 426.239765 
Q 466.172917 426.102265 466.316667 425.856952 
Q 466.46198 425.610077 466.46198 425.28664 
L 466.46198 425.219452 
Q 466.46198 424.891327 466.316667 424.646015 
Q 466.172917 424.39914 465.908855 424.263202 
Q 465.646355 424.125702 465.29948 424.125702 
Q 464.952605 424.125702 464.688542 424.263202 
Q 464.426042 424.39914 464.28073 424.647577 
Q 464.13698 424.896015 464.13698 425.22414 
L 464.13698 425.297577 
Q 464.13698 425.619452 464.28073 425.863202 
Q 464.426042 426.106952 464.688542 426.241327 
Q 464.952605 426.375702 465.29948 426.375702 
z
M 465.29948 423.16789 
Q 465.597917 423.16789 465.826042 423.039765 
Q 466.05573 422.910077 466.182292 422.671015 
Q 466.310417 422.43039 466.310417 422.11789 
L 466.310417 422.050702 
Q 466.310417 421.752265 466.182292 421.522577 
Q 466.05573 421.29289 465.826042 421.169452 
Q 465.597917 421.044452 465.29948 421.044452 
Q 465.001042 421.044452 464.771355 421.169452 
Q 464.54323 421.29289 464.415105 421.522577 
Q 464.288542 421.752265 464.288542 422.05539 
L 464.288542 422.128827 
Q 464.288542 422.435077 464.415105 422.672577 
Q 464.54323 422.910077 464.771355 423.039765 
Q 465.001042 423.16789 465.29948 423.16789 
z
M 470.68073 427.333515 
Q 470.085417 427.333515 469.63073 427.116327 
Q 469.176042 426.89914 468.89948 426.48664 
Q 468.62448 426.07414 468.551042 425.49289 
L 468.551042 425.49289 
L 469.566667 425.49289 
L 469.566667 425.49289 
Q 469.610417 425.794452 469.757292 425.989765 
Q 469.904167 426.185077 470.135417 426.28039 
Q 470.36823 426.375702 470.68073 426.375702 
Q 471.172917 426.375702 471.446355 426.113202 
Q 471.719792 425.84914 471.719792 425.371015 
L 471.719792 425.15539 
Q 471.719792 424.622577 471.460417 424.333515 
Q 471.202605 424.04289 470.729167 424.04289 
L 470.226042 424.04289 
L 470.226042 423.094452 
L 470.729167 423.094452 
Q 471.144792 423.094452 471.372917 422.846015 
Q 471.602605 422.597577 471.602605 422.14289 
L 471.602605 421.922577 
Q 471.602605 421.503827 471.360417 421.27414 
Q 471.119792 421.044452 470.676042 421.044452 
Q 470.421355 421.044452 470.221355 421.139765 
Q 470.021355 421.235077 469.882292 421.433515 
Q 469.74323 421.63039 469.679167 421.927265 
L 469.679167 421.927265 
L 468.66823 421.927265 
L 468.66823 421.927265 
Q 468.766667 421.347577 469.03698 420.931952 
Q 469.308855 420.516327 469.722917 420.302265 
Q 470.138542 420.08664 470.676042 420.08664 
Q 471.59323 420.08664 472.096355 420.571015 
Q 472.59948 421.053827 472.59948 421.933515 
L 472.59948 422.050702 
Q 472.59948 422.581952 472.310417 422.977265 
Q 472.022917 423.372577 471.496355 423.553827 
Q 472.077605 423.68039 472.396355 424.125702 
Q 472.716667 424.569452 472.716667 425.258515 
L 472.716667 425.375702 
Q 472.716667 425.996015 472.477605 426.435077 
Q 472.238542 426.87414 471.78073 427.103827 
Q 471.32448 427.333515 470.68073 427.333515 
z
M 476.159441 427.333515 
Q 475.162566 427.333515 474.646941 426.802265 
Q 474.132878 426.269452 474.132878 425.316327 
L 474.132878 422.089765 
Q 474.132878 421.131952 474.650066 420.602265 
Q 475.167253 420.072577 476.159441 420.072577 
Q 477.154753 420.072577 477.670378 420.600702 
Q 478.186003 421.127265 478.186003 422.089765 
L 478.186003 425.316327 
Q 478.186003 426.27414 477.667253 426.803827 
Q 477.150066 427.333515 476.159441 427.333515 
z
M 476.159441 426.38664 
Q 476.686003 426.38664 476.937566 426.110077 
Q 477.189128 425.833515 477.189128 425.316327 
L 477.189128 422.089765 
Q 477.189128 421.571015 476.939128 421.296015 
Q 476.690691 421.019452 476.159441 421.019452 
Q 475.626628 421.019452 475.376628 421.296015 
Q 475.128191 421.571015 475.128191 422.089765 
L 475.128191 425.316327 
Q 475.128191 425.833515 475.379753 426.110077 
Q 475.631316 426.38664 476.159441 426.38664 
z
M 481.677019 427.333515 
Q 480.680144 427.333515 480.164519 426.802265 
Q 479.650457 426.269452 479.650457 425.316327 
L 479.650457 422.089765 
Q 479.650457 421.131952 480.167644 420.602265 
Q 480.684832 420.072577 481.677019 420.072577 
Q 482.672332 420.072577 483.187957 420.600702 
Q 483.703582 421.127265 483.703582 422.089765 
L 483.703582 425.316327 
Q 483.703582 426.27414 483.184832 426.803827 
Q 482.667644 427.333515 481.677019 427.333515 
z
M 481.677019 426.38664 
Q 482.203582 426.38664 482.455144 426.110077 
Q 482.706707 425.833515 482.706707 425.316327 
L 482.706707 422.089765 
Q 482.706707 421.571015 482.456707 421.296015 
Q 482.208269 421.019452 481.677019 421.019452 
Q 481.144207 421.019452 480.894207 421.296015 
Q 480.645769 421.571015 480.645769 422.089765 
L 480.645769 425.316327 
Q 480.645769 425.833515 480.897332 426.110077 
Q 481.148894 426.38664 481.677019 426.38664 
z
M 489.416082 427.333515 
Q 488.630144 427.333515 488.070769 427.02414 
Q 487.511394 426.713202 487.217644 426.121015 
Q 486.925457 425.527265 486.925457 424.691327 
L 486.925457 420.160077 
L 487.922332 420.160077 
L 487.922332 424.725702 
Q 487.922332 425.502265 488.312957 425.927265 
Q 488.703582 426.352265 489.416082 426.352265 
Q 490.133269 426.352265 490.525457 425.927265 
Q 490.919207 425.502265 490.919207 424.725702 
L 490.919207 420.160077 
L 491.916082 420.160077 
L 491.916082 424.691327 
Q 491.916082 425.527265 491.622332 426.121015 
Q 491.330144 426.713202 490.767644 427.02414 
Q 490.206707 427.333515 489.416082 427.333515 
z
M 494.475066 425.950702 
Q 494.475066 426.13664 494.554753 426.23664 
Q 494.636003 426.33664 494.781316 426.33664 
L 495.250066 426.33664 
L 495.250066 427.285077 
L 494.664128 427.285077 
Q 494.098503 427.285077 493.787566 426.933515 
Q 493.478191 426.581952 493.478191 425.941327 
L 493.478191 420.160077 
L 494.475066 420.160077 
L 494.475066 425.950702 
z
M 497.692449 427.285077 
Q 497.076824 427.285077 496.790886 426.946015 
Q 496.504949 426.60539 496.504949 425.941327 
L 496.504949 420.716327 
L 497.501824 420.716327 
L 497.501824 425.950702 
Q 497.501824 426.13664 497.575261 426.23664 
Q 497.648699 426.33664 497.789324 426.33664 
L 498.269011 426.33664 
L 498.269011 427.285077 
L 497.692449 427.285077 
z
M 495.983074 422.191327 
L 498.269011 422.191327 
L 498.269011 423.089765 
L 495.983074 423.089765 
L 495.983074 422.191327 
z
M 499.635417 422.191327 
L 500.632292 422.191327 
L 500.632292 427.260077 
L 499.635417 427.260077 
L 499.635417 422.191327 
z
M 502.422917 423.39289 
Q 502.291667 423.231952 502.091667 423.14914 
Q 501.891667 423.066327 501.627605 423.066327 
Q 501.154167 423.066327 500.89323 423.327265 
Q 500.632292 423.588202 500.632292 424.052265 
L 500.529167 423.075702 
Q 500.763542 422.621015 501.133855 422.369452 
Q 501.50573 422.11789 501.954167 422.11789 
Q 502.301042 422.11789 502.582292 422.21789 
Q 502.863542 422.31789 503.072917 422.513202 
L 502.422917 423.39289 
z
M 506.763933 424.047577 
Q 506.763933 423.54914 506.498308 423.27414 
Q 506.232683 422.997577 505.743621 422.997577 
Q 505.440496 422.997577 505.149871 423.091327 
Q 504.860808 423.183515 504.635808 423.34914 
L 503.907683 422.850702 
Q 504.196746 422.503827 504.667058 422.31164 
Q 505.138933 422.11789 505.713933 422.11789 
Q 506.345183 422.11789 506.793621 422.341327 
Q 507.243621 422.563202 507.477996 422.985077 
Q 507.712371 423.406952 507.712371 424.003827 
L 507.712371 427.260077 
L 506.763933 427.260077 
L 506.763933 424.047577 
z
M 505.524871 427.333515 
Q 504.587371 427.333515 504.123308 426.946015 
Q 503.659246 426.556952 503.659246 425.766327 
Q 503.659246 425.013202 504.084246 424.638202 
Q 504.509246 424.26164 505.368621 424.26164 
L 506.807683 424.26164 
L 506.876433 425.063202 
L 505.373308 425.063202 
Q 504.982683 425.063202 504.788933 425.23664 
Q 504.596746 425.410077 504.596746 425.766327 
Q 504.596746 426.152265 504.852996 426.338202 
Q 505.109246 426.522577 505.631121 426.522577 
Q 506.202996 426.522577 506.482683 426.400702 
Q 506.763933 426.278827 506.763933 426.019452 
L 506.867058 426.731952 
Q 506.735808 426.938202 506.542058 427.069452 
Q 506.349871 427.200702 506.095183 427.266327 
Q 505.842058 427.333515 505.524871 427.333515 
z
" style="fill: #ffffff"/>
   </g>
  </g>
 </g>
 <defs>
  <clipPath id="p562c5089c6">
   <rect x="144" y="77.76" width="892.8" height="498.96"/>
  </clipPath>
 </defs>
</svg>
