<?xml version="1.0" encoding="utf-8" standalone="no"?>
<!DOCTYPE svg PUBLIC "-//W3C//DTD SVG 1.1//EN"
  "http://www.w3.org/Graphics/SVG/1.1/DTD/svg11.dtd">
<svg xmlns:xlink="http://www.w3.org/1999/xlink" width="1152pt" height="648pt" viewBox="0 0 1152 648" xmlns="http://www.w3.org/2000/svg" version="1.1">
 <metadata>
  <rdf:RDF xmlns:dc="http://purl.org/dc/elements/1.1/" xmlns:cc="http://creativecommons.org/ns#" xmlns:rdf="http://www.w3.org/1999/02/22-rdf-syntax-ns#">
   <cc:Work>
    <dc:type rdf:resource="http://purl.org/dc/dcmitype/StillImage"/>
    <dc:date>2025-09-19T13:51:42.587348</dc:date>
    <dc:format>image/svg+xml</dc:format>
    <dc:creator>
     <cc:Agent>
      <dc:title>Matplotlib v3.10.3, https://matplotlib.org/</dc:title>
     </cc:Agent>
    </dc:creator>
   </cc:Work>
  </rdf:RDF>
 </metadata>
 <defs>
  <style type="text/css">*{stroke-linejoin: round; stroke-linecap: butt}</style>
 </defs>
 <g id="figure_1">
  <g id="patch_1">
   <path d="M 0 648 
L 1152 648 
L 1152 0 
L 0 0 
L 0 648 
z
" style="fill: none"/>
  </g>
  <g id="axes_1">
   <g id="line2d_1">
    <path d="M 175.248 534.616009 
L 178.73503 531.18209 
L 182.222061 527.825224 
L 185.709091 524.543685 
L 189.196121 521.335785 
L 192.683152 518.199871 
L 196.170182 515.134332 
L 199.657212 512.137588 
L 203.144242 509.208098 
L 206.631273 506.344353 
L 210.118303 503.54488 
L 213.605333 500.808237 
L 217.092364 498.133016 
L 220.579394 495.517838 
L 224.066424 492.961359 
L 227.553455 490.46226 
L 231.040485 488.019256 
L 234.527515 485.631088 
L 238.014545 483.296526 
L 241.501576 481.014369 
L 244.988606 478.783439 
L 248.475636 476.602589 
L 251.962667 474.470695 
L 255.449697 472.386659 
L 258.936727 470.349407 
L 262.423758 468.35789 
L 265.910788 466.411081 
L 269.397818 464.507978 
L 272.884848 462.647599 
L 276.371879 460.828987 
L 279.858909 459.051204 
L 283.345939 457.313335 
L 286.83297 455.614482 
L 290.32 453.953772 
L 293.80703 452.330348 
L 297.294061 450.743373 
L 300.781091 449.19203 
L 304.268121 447.675518 
L 307.755152 446.193057 
L 311.242182 444.743882 
L 314.729212 443.327245 
L 318.216242 441.942418 
L 321.703273 440.588685 
L 325.190303 439.265349 
L 328.677333 437.971727 
L 332.164364 436.707154 
L 335.651394 435.470976 
L 339.138424 434.262556 
L 342.625455 433.081272 
L 346.112485 431.926514 
L 349.599515 430.797687 
L 353.086545 429.694208 
L 356.573576 428.615509 
L 360.060606 427.561033 
L 363.547636 426.530237 
L 367.034667 425.522589 
L 370.521697 424.53757 
L 374.008727 423.574671 
L 377.495758 422.633395 
L 380.982788 421.713258 
L 384.469818 420.813785 
L 387.956848 419.934512 
L 391.443879 419.074985 
L 394.930909 418.234761 
L 398.417939 417.413406 
L 401.90497 416.610498 
L 405.392 415.825621 
L 408.87903 415.058371 
L 412.366061 414.308353 
L 415.853091 413.575179 
L 419.340121 412.858471 
L 422.827152 412.157859 
L 426.314182 411.472982 
L 429.801212 410.803487 
L 433.288242 410.149028 
L 436.775273 409.509268 
L 440.262303 408.883876 
L 443.749333 408.272531 
L 447.236364 407.674916 
L 450.723394 407.090723 
L 454.210424 406.51965 
L 457.697455 405.961404 
L 461.184485 405.415696 
L 464.671515 404.882245 
L 468.158545 404.360775 
L 471.645576 403.851018 
L 475.132606 403.352709 
L 478.619636 402.865593 
L 482.106667 402.389418 
L 485.593697 401.923938 
L 489.080727 401.468913 
L 492.567758 401.024108 
L 496.054788 400.589293 
L 499.541818 400.164245 
L 503.028848 399.748744 
L 506.515879 399.342575 
L 510.002909 398.94553 
L 513.489939 398.557402 
L 516.97697 398.177992 
L 520.464 397.807104 
" clip-path="url(#p1a641e93d2)" style="fill: none; stroke: #f2de79; stroke-width: 3; stroke-linecap: round"/>
   </g>
   <g id="text_1">
    <path d="M 527.909605 398.506797 
L 529.515855 398.506797 
Q 530.301792 398.506797 530.733042 398.098985 
Q 531.165855 397.691172 531.165855 396.948985 
L 531.165855 394.85836 
Q 531.165855 394.116172 530.733042 393.70836 
Q 530.301792 393.300547 529.515855 393.300547 
L 527.909605 393.300547 
L 527.909605 392.353672 
L 529.486167 392.353672 
Q 530.340855 392.353672 530.945542 392.65211 
Q 531.551792 392.948985 531.86898 393.52086 
Q 532.186167 394.092735 532.186167 394.897422 
L 532.186167 396.909922 
Q 532.186167 397.71461 531.86898 398.286485 
Q 531.551792 398.85836 530.94398 399.156797 
Q 530.336167 399.453672 529.48148 399.453672 
L 527.909605 399.453672 
L 527.909605 398.506797 
z
M 527.236167 392.353672 
L 528.23148 392.353672 
L 528.23148 399.453672 
L 527.236167 399.453672 
L 527.236167 392.353672 
z
M 535.73148 399.52711 
Q 535.08773 399.52711 534.598667 399.28336 
Q 534.111167 399.038047 533.84398 398.591172 
Q 533.578355 398.144297 533.578355 397.553672 
L 533.578355 397.436485 
Q 533.578355 396.905235 533.84398 396.436485 
Q 534.111167 395.967735 534.554917 395.728672 
Q 534.178355 395.522422 533.951792 395.134922 
Q 533.72523 394.74586 533.72523 394.316172 
L 533.72523 394.14586 
Q 533.72523 393.58961 533.973667 393.167735 
Q 534.222105 392.744297 534.676792 392.513047 
Q 535.13148 392.280235 535.73148 392.280235 
Q 536.33148 392.280235 536.786167 392.513047 
Q 537.240855 392.744297 537.489292 393.167735 
Q 537.73773 393.58961 537.73773 394.14586 
L 537.73773 394.316172 
Q 537.73773 394.756797 537.50648 395.142735 
Q 537.27523 395.52711 536.89398 395.728672 
Q 537.342417 395.972422 537.61273 396.43961 
Q 537.884605 396.905235 537.884605 397.436485 
L 537.884605 397.553672 
Q 537.884605 398.144297 537.61898 398.591172 
Q 537.353355 399.038047 536.864292 399.28336 
Q 536.376792 399.52711 535.73148 399.52711 
z
M 535.73148 398.569297 
Q 536.078355 398.569297 536.340855 398.43336 
Q 536.604917 398.29586 536.748667 398.050547 
Q 536.89398 397.803672 536.89398 397.480235 
L 536.89398 397.413047 
Q 536.89398 397.084922 536.748667 396.83961 
Q 536.604917 396.592735 536.340855 396.456797 
Q 536.078355 396.319297 535.73148 396.319297 
Q 535.384605 396.319297 535.120542 396.456797 
Q 534.858042 396.592735 534.71273 396.841172 
Q 534.56898 397.08961 534.56898 397.417735 
L 534.56898 397.491172 
Q 534.56898 397.813047 534.71273 398.056797 
Q 534.858042 398.300547 535.120542 398.434922 
Q 535.384605 398.569297 535.73148 398.569297 
z
M 535.73148 395.361485 
Q 536.029917 395.361485 536.258042 395.23336 
Q 536.48773 395.103672 536.614292 394.86461 
Q 536.742417 394.623985 536.742417 394.311485 
L 536.742417 394.244297 
Q 536.742417 393.94586 536.614292 393.716172 
Q 536.48773 393.486485 536.258042 393.363047 
Q 536.029917 393.238047 535.73148 393.238047 
Q 535.433042 393.238047 535.203355 393.363047 
Q 534.97523 393.486485 534.847105 393.716172 
Q 534.720542 393.94586 534.720542 394.248985 
L 534.720542 394.322422 
Q 534.720542 394.628672 534.847105 394.866172 
Q 534.97523 395.103672 535.203355 395.23336 
Q 535.433042 395.361485 535.73148 395.361485 
z
M 539.178355 397.500547 
L 541.561167 392.35836 
L 542.58773 392.35836 
L 540.26273 397.441172 
L 543.74398 397.441172 
L 543.74398 398.36461 
L 539.178355 398.36461 
L 539.178355 397.500547 
z
M 542.240855 395.278672 
L 543.21273 395.278672 
L 543.21273 399.45836 
L 542.240855 399.45836 
L 542.240855 395.278672 
z
M 546.991832 399.52711 
Q 545.994957 399.52711 545.479332 398.99586 
Q 544.965269 398.463047 544.965269 397.509922 
L 544.965269 394.28336 
Q 544.965269 393.325547 545.482457 392.79586 
Q 545.999644 392.266172 546.991832 392.266172 
Q 547.987144 392.266172 548.502769 392.794297 
Q 549.018394 393.32086 549.018394 394.28336 
L 549.018394 397.509922 
Q 549.018394 398.467735 548.499644 398.997422 
Q 547.982457 399.52711 546.991832 399.52711 
z
M 546.991832 398.580235 
Q 547.518394 398.580235 547.769957 398.303672 
Q 548.021519 398.02711 548.021519 397.509922 
L 548.021519 394.28336 
Q 548.021519 393.76461 547.771519 393.48961 
Q 547.523082 393.213047 546.991832 393.213047 
Q 546.459019 393.213047 546.209019 393.48961 
Q 545.960582 393.76461 545.960582 394.28336 
L 545.960582 397.509922 
Q 545.960582 398.02711 546.212144 398.303672 
Q 546.463707 398.580235 546.991832 398.580235 
z
M 552.50941 399.52711 
Q 551.512535 399.52711 550.99691 398.99586 
Q 550.482847 398.463047 550.482847 397.509922 
L 550.482847 394.28336 
Q 550.482847 393.325547 551.000035 392.79586 
Q 551.517222 392.266172 552.50941 392.266172 
Q 553.504722 392.266172 554.020347 392.794297 
Q 554.535972 393.32086 554.535972 394.28336 
L 554.535972 397.509922 
Q 554.535972 398.467735 554.017222 398.997422 
Q 553.500035 399.52711 552.50941 399.52711 
z
M 552.50941 398.580235 
Q 553.035972 398.580235 553.287535 398.303672 
Q 553.539097 398.02711 553.539097 397.509922 
L 553.539097 394.28336 
Q 553.539097 393.76461 553.289097 393.48961 
Q 553.04066 393.213047 552.50941 393.213047 
Q 551.976597 393.213047 551.726597 393.48961 
Q 551.47816 393.76461 551.47816 394.28336 
L 551.47816 397.509922 
Q 551.47816 398.02711 551.729722 398.303672 
Q 551.981285 398.580235 552.50941 398.580235 
z
M 562.957847 392.353672 
L 563.89066 392.353672 
L 563.89066 399.453672 
L 562.918785 399.453672 
L 562.918785 394.136485 
L 562.967222 394.448985 
L 561.220347 398.467735 
L 560.526597 398.467735 
L 558.77816 394.54586 
L 558.826597 394.136485 
L 558.826597 399.453672 
L 557.856285 399.453672 
L 557.856285 392.353672 
L 558.787535 392.353672 
L 560.873472 397.041172 
L 562.957847 392.353672 
z
M 567.582066 392.353672 
L 568.432066 392.353672 
L 571.049253 399.453672 
L 569.974253 399.453672 
L 568.007066 393.725547 
L 566.039878 399.453672 
L 564.964878 399.453672 
L 567.582066 392.353672 
z
M 566.171128 396.948985 
L 569.907066 396.948985 
L 569.907066 397.89586 
L 566.171128 397.89586 
L 566.171128 396.948985 
z
M 573.856675 396.33336 
L 573.705113 396.08961 
L 571.400425 392.353672 
L 572.519175 392.353672 
L 574.233238 395.244297 
L 574.394175 395.50836 
L 576.820738 399.453672 
L 575.701988 399.453672 
L 573.856675 396.33336 
z
M 573.812925 395.39586 
L 575.594175 392.353672 
L 576.712925 392.353672 
L 574.364488 396.197422 
L 572.4598 399.453672 
L 571.342613 399.453672 
L 573.812925 395.39586 
z
" style="fill: #ffffff; stroke: #000000"/>
    <path d="M 527.909605 398.506797 
L 529.515855 398.506797 
Q 530.301792 398.506797 530.733042 398.098985 
Q 531.165855 397.691172 531.165855 396.948985 
L 531.165855 394.85836 
Q 531.165855 394.116172 530.733042 393.70836 
Q 530.301792 393.300547 529.515855 393.300547 
L 527.909605 393.300547 
L 527.909605 392.353672 
L 529.486167 392.353672 
Q 530.340855 392.353672 530.945542 392.65211 
Q 531.551792 392.948985 531.86898 393.52086 
Q 532.186167 394.092735 532.186167 394.897422 
L 532.186167 396.909922 
Q 532.186167 397.71461 531.86898 398.286485 
Q 531.551792 398.85836 530.94398 399.156797 
Q 530.336167 399.453672 529.48148 399.453672 
L 527.909605 399.453672 
L 527.909605 398.506797 
z
M 527.236167 392.353672 
L 528.23148 392.353672 
L 528.23148 399.453672 
L 527.236167 399.453672 
L 527.236167 392.353672 
z
M 535.73148 399.52711 
Q 535.08773 399.52711 534.598667 399.28336 
Q 534.111167 399.038047 533.84398 398.591172 
Q 533.578355 398.144297 533.578355 397.553672 
L 533.578355 397.436485 
Q 533.578355 396.905235 533.84398 396.436485 
Q 534.111167 395.967735 534.554917 395.728672 
Q 534.178355 395.522422 533.951792 395.134922 
Q 533.72523 394.74586 533.72523 394.316172 
L 533.72523 394.14586 
Q 533.72523 393.58961 533.973667 393.167735 
Q 534.222105 392.744297 534.676792 392.513047 
Q 535.13148 392.280235 535.73148 392.280235 
Q 536.33148 392.280235 536.786167 392.513047 
Q 537.240855 392.744297 537.489292 393.167735 
Q 537.73773 393.58961 537.73773 394.14586 
L 537.73773 394.316172 
Q 537.73773 394.756797 537.50648 395.142735 
Q 537.27523 395.52711 536.89398 395.728672 
Q 537.342417 395.972422 537.61273 396.43961 
Q 537.884605 396.905235 537.884605 397.436485 
L 537.884605 397.553672 
Q 537.884605 398.144297 537.61898 398.591172 
Q 537.353355 399.038047 536.864292 399.28336 
Q 536.376792 399.52711 535.73148 399.52711 
z
M 535.73148 398.569297 
Q 536.078355 398.569297 536.340855 398.43336 
Q 536.604917 398.29586 536.748667 398.050547 
Q 536.89398 397.803672 536.89398 397.480235 
L 536.89398 397.413047 
Q 536.89398 397.084922 536.748667 396.83961 
Q 536.604917 396.592735 536.340855 396.456797 
Q 536.078355 396.319297 535.73148 396.319297 
Q 535.384605 396.319297 535.120542 396.456797 
Q 534.858042 396.592735 534.71273 396.841172 
Q 534.56898 397.08961 534.56898 397.417735 
L 534.56898 397.491172 
Q 534.56898 397.813047 534.71273 398.056797 
Q 534.858042 398.300547 535.120542 398.434922 
Q 535.384605 398.569297 535.73148 398.569297 
z
M 535.73148 395.361485 
Q 536.029917 395.361485 536.258042 395.23336 
Q 536.48773 395.103672 536.614292 394.86461 
Q 536.742417 394.623985 536.742417 394.311485 
L 536.742417 394.244297 
Q 536.742417 393.94586 536.614292 393.716172 
Q 536.48773 393.486485 536.258042 393.363047 
Q 536.029917 393.238047 535.73148 393.238047 
Q 535.433042 393.238047 535.203355 393.363047 
Q 534.97523 393.486485 534.847105 393.716172 
Q 534.720542 393.94586 534.720542 394.248985 
L 534.720542 394.322422 
Q 534.720542 394.628672 534.847105 394.866172 
Q 534.97523 395.103672 535.203355 395.23336 
Q 535.433042 395.361485 535.73148 395.361485 
z
M 539.178355 397.500547 
L 541.561167 392.35836 
L 542.58773 392.35836 
L 540.26273 397.441172 
L 543.74398 397.441172 
L 543.74398 398.36461 
L 539.178355 398.36461 
L 539.178355 397.500547 
z
M 542.240855 395.278672 
L 543.21273 395.278672 
L 543.21273 399.45836 
L 542.240855 399.45836 
L 542.240855 395.278672 
z
M 546.991832 399.52711 
Q 545.994957 399.52711 545.479332 398.99586 
Q 544.965269 398.463047 544.965269 397.509922 
L 544.965269 394.28336 
Q 544.965269 393.325547 545.482457 392.79586 
Q 545.999644 392.266172 546.991832 392.266172 
Q 547.987144 392.266172 548.502769 392.794297 
Q 549.018394 393.32086 549.018394 394.28336 
L 549.018394 397.509922 
Q 549.018394 398.467735 548.499644 398.997422 
Q 547.982457 399.52711 546.991832 399.52711 
z
M 546.991832 398.580235 
Q 547.518394 398.580235 547.769957 398.303672 
Q 548.021519 398.02711 548.021519 397.509922 
L 548.021519 394.28336 
Q 548.021519 393.76461 547.771519 393.48961 
Q 547.523082 393.213047 546.991832 393.213047 
Q 546.459019 393.213047 546.209019 393.48961 
Q 545.960582 393.76461 545.960582 394.28336 
L 545.960582 397.509922 
Q 545.960582 398.02711 546.212144 398.303672 
Q 546.463707 398.580235 546.991832 398.580235 
z
M 552.50941 399.52711 
Q 551.512535 399.52711 550.99691 398.99586 
Q 550.482847 398.463047 550.482847 397.509922 
L 550.482847 394.28336 
Q 550.482847 393.325547 551.000035 392.79586 
Q 551.517222 392.266172 552.50941 392.266172 
Q 553.504722 392.266172 554.020347 392.794297 
Q 554.535972 393.32086 554.535972 394.28336 
L 554.535972 397.509922 
Q 554.535972 398.467735 554.017222 398.997422 
Q 553.500035 399.52711 552.50941 399.52711 
z
M 552.50941 398.580235 
Q 553.035972 398.580235 553.287535 398.303672 
Q 553.539097 398.02711 553.539097 397.509922 
L 553.539097 394.28336 
Q 553.539097 393.76461 553.289097 393.48961 
Q 553.04066 393.213047 552.50941 393.213047 
Q 551.976597 393.213047 551.726597 393.48961 
Q 551.47816 393.76461 551.47816 394.28336 
L 551.47816 397.509922 
Q 551.47816 398.02711 551.729722 398.303672 
Q 551.981285 398.580235 552.50941 398.580235 
z
M 562.957847 392.353672 
L 563.89066 392.353672 
L 563.89066 399.453672 
L 562.918785 399.453672 
L 562.918785 394.136485 
L 562.967222 394.448985 
L 561.220347 398.467735 
L 560.526597 398.467735 
L 558.77816 394.54586 
L 558.826597 394.136485 
L 558.826597 399.453672 
L 557.856285 399.453672 
L 557.856285 392.353672 
L 558.787535 392.353672 
L 560.873472 397.041172 
L 562.957847 392.353672 
z
M 567.582066 392.353672 
L 568.432066 392.353672 
L 571.049253 399.453672 
L 569.974253 399.453672 
L 568.007066 393.725547 
L 566.039878 399.453672 
L 564.964878 399.453672 
L 567.582066 392.353672 
z
M 566.171128 396.948985 
L 569.907066 396.948985 
L 569.907066 397.89586 
L 566.171128 397.89586 
L 566.171128 396.948985 
z
M 573.856675 396.33336 
L 573.705113 396.08961 
L 571.400425 392.353672 
L 572.519175 392.353672 
L 574.233238 395.244297 
L 574.394175 395.50836 
L 576.820738 399.453672 
L 575.701988 399.453672 
L 573.856675 396.33336 
z
M 573.812925 395.39586 
L 575.594175 392.353672 
L 576.712925 392.353672 
L 574.364488 396.197422 
L 572.4598 399.453672 
L 571.342613 399.453672 
L 573.812925 395.39586 
z
" style="fill: #ffffff"/>
   </g>
  </g>
 </g>
 <defs>
  <clipPath id="p1a641e93d2">
   <rect x="144" y="77.76" width="892.8" height="498.96"/>
  </clipPath>
 </defs>
</svg>
