<?xml version="1.0" encoding="utf-8" standalone="no"?>
<!DOCTYPE svg PUBLIC "-//W3C//DTD SVG 1.1//EN"
  "http://www.w3.org/Graphics/SVG/1.1/DTD/svg11.dtd">
<svg xmlns:xlink="http://www.w3.org/1999/xlink" width="1152pt" height="648pt" viewBox="0 0 1152 648" xmlns="http://www.w3.org/2000/svg" version="1.1">
 <metadata>
  <rdf:RDF xmlns:dc="http://purl.org/dc/elements/1.1/" xmlns:cc="http://creativecommons.org/ns#" xmlns:rdf="http://www.w3.org/1999/02/22-rdf-syntax-ns#">
   <cc:Work>
    <dc:type rdf:resource="http://purl.org/dc/dcmitype/StillImage"/>
    <dc:date>2025-09-19T13:51:41.976587</dc:date>
    <dc:format>image/svg+xml</dc:format>
    <dc:creator>
     <cc:Agent>
      <dc:title>Matplotlib v3.10.3, https://matplotlib.org/</dc:title>
     </cc:Agent>
    </dc:creator>
   </cc:Work>
  </rdf:RDF>
 </metadata>
 <defs>
  <style type="text/css">*{stroke-linejoin: round; stroke-linecap: butt}</style>
 </defs>
 <g id="figure_1">
  <g id="patch_1">
   <path d="M 0 648 
L 1152 648 
L 1152 0 
L 0 0 
L 0 648 
z
" style="fill: none"/>
  </g>
  <g id="axes_1">
   <g id="line2d_1">
    <path d="M 268.496 423.219179 
L 272.388848 420.362825 
L 276.281697 417.538797 
L 280.174545 414.746733 
L 284.067394 411.98627 
L 287.960242 409.257054 
L 291.853091 406.558731 
L 295.745939 403.890953 
L 299.638788 401.253375 
L 303.531636 398.645657 
L 307.424485 396.067462 
L 311.317333 393.518456 
L 315.210182 390.998311 
L 319.10303 388.5067 
L 322.995879 386.043301 
L 326.888727 383.607797 
L 330.781576 381.199871 
L 334.674424 378.819214 
L 338.567273 376.465516 
L 342.460121 374.138474 
L 346.35297 371.837786 
L 350.245818 369.563155 
L 354.138667 367.314287 
L 358.031515 365.090891 
L 361.924364 362.892679 
L 365.817212 360.719366 
L 369.710061 358.570672 
L 373.602909 356.446318 
L 377.495758 354.346029 
L 381.388606 352.269534 
L 385.281455 350.216563 
L 389.174303 348.186851 
L 393.067152 346.180135 
L 396.96 344.196155 
L 400.852848 342.234654 
L 404.745697 340.295378 
L 408.638545 338.378076 
L 412.531394 336.482499 
L 416.424242 334.608403 
L 420.317091 332.755543 
L 424.209939 330.92368 
L 428.102788 329.112577 
L 431.995636 327.321999 
L 435.888485 325.551713 
L 439.781333 323.801491 
L 443.674182 322.071106 
L 447.56703 320.360332 
L 451.459879 318.668949 
L 455.352727 316.996737 
L 459.245576 315.343479 
L 463.138424 313.708961 
L 467.031273 312.09297 
L 470.924121 310.495298 
L 474.81697 308.915737 
L 478.709818 307.354083 
L 482.602667 305.810131 
L 486.495515 304.283683 
L 490.388364 302.77454 
L 494.281212 301.282507 
L 498.174061 299.807389 
L 502.066909 298.348996 
L 505.959758 296.907138 
L 509.852606 295.481628 
L 513.745455 294.072281 
L 517.638303 292.678914 
L 521.531152 291.301346 
L 525.424 289.939398 
L 529.316848 288.592894 
L 533.209697 287.261658 
L 537.102545 285.945519 
L 540.995394 284.644304 
L 544.888242 283.357846 
L 548.781091 282.085976 
L 552.673939 280.82853 
L 556.566788 279.585344 
L 560.459636 278.356258 
L 564.352485 277.141111 
L 568.245333 275.939745 
L 572.138182 274.752005 
L 576.03103 273.577736 
L 579.923879 272.416785 
L 583.816727 271.269002 
L 587.709576 270.134238 
L 591.602424 269.012345 
L 595.495273 267.903177 
L 599.388121 266.80659 
L 603.28097 265.722442 
L 607.173818 264.650592 
L 611.066667 263.590901 
L 614.959515 262.54323 
L 618.852364 261.507444 
L 622.745212 260.483408 
L 626.638061 259.470988 
L 630.530909 258.470054 
L 634.423758 257.480475 
L 638.316606 256.502123 
L 642.209455 255.534869 
L 646.102303 254.578589 
L 649.995152 253.633159 
L 653.888 252.698454 
" clip-path="url(#pa2afa66b2c)" style="fill: none; stroke: #bfff80; stroke-width: 3; stroke-linecap: round"/>
   </g>
   <g id="text_1">
    <path d="M 662.59298 247.245022 
L 663.44298 247.245022 
L 666.060167 254.345022 
L 664.985167 254.345022 
L 663.01798 248.616897 
L 661.050792 254.345022 
L 659.975792 254.345022 
L 662.59298 247.245022 
z
M 661.182042 251.840335 
L 664.91798 251.840335 
L 664.91798 252.78721 
L 661.182042 252.78721 
L 661.182042 251.840335 
z
M 668.701964 254.345022 
L 667.705089 254.345022 
L 667.705089 248.329397 
L 666.694152 248.94971 
L 666.694152 247.91846 
L 667.705089 247.245022 
L 668.701964 247.245022 
L 668.701964 254.345022 
z
M 672.82716 250.820022 
L 672.822472 250.995022 
Q 672.700597 251.220022 672.453722 251.32471 
Q 672.206847 251.429397 671.87091 251.429397 
Q 671.363097 251.429397 670.97716 251.171585 
Q 670.591222 250.91221 670.378722 250.441897 
Q 670.166222 249.970022 670.166222 249.34971 
L 670.166222 249.345022 
Q 670.166222 248.65596 670.397472 248.16846 
Q 670.630285 247.679397 671.07716 247.426272 
Q 671.524035 247.171585 672.149035 247.171585 
Q 672.774035 247.171585 673.217785 247.43096 
Q 673.663097 247.690335 673.894347 248.184085 
Q 674.125597 248.676272 674.125597 249.370022 
L 674.125597 249.37471 
Q 674.125597 249.754397 674.02716 250.18721 
Q 673.930285 250.620022 673.750597 251.04346 
Q 673.72091 251.107522 673.691222 251.173147 
Q 673.663097 251.238772 673.628722 251.302835 
L 672.11466 254.345022 
L 671.03966 254.345022 
L 672.82716 250.820022 
z
M 672.149035 250.521585 
Q 672.617785 250.521585 672.874035 250.204397 
Q 673.130285 249.88721 673.130285 249.310647 
L 673.130285 249.30596 
Q 673.130285 248.745022 672.874035 248.43721 
Q 672.617785 248.129397 672.149035 248.129397 
Q 671.675597 248.129397 671.419347 248.43721 
Q 671.163097 248.745022 671.163097 249.310647 
L 671.163097 249.315335 
Q 671.163097 249.891897 671.419347 250.207522 
Q 671.675597 250.521585 672.149035 250.521585 
z
" style="fill: #ffffff; stroke: #000000"/>
    <path d="M 662.59298 247.245022 
L 663.44298 247.245022 
L 666.060167 254.345022 
L 664.985167 254.345022 
L 663.01798 248.616897 
L 661.050792 254.345022 
L 659.975792 254.345022 
L 662.59298 247.245022 
z
M 661.182042 251.840335 
L 664.91798 251.840335 
L 664.91798 252.78721 
L 661.182042 252.78721 
L 661.182042 251.840335 
z
M 668.701964 254.345022 
L 667.705089 254.345022 
L 667.705089 248.329397 
L 666.694152 248.94971 
L 666.694152 247.91846 
L 667.705089 247.245022 
L 668.701964 247.245022 
L 668.701964 254.345022 
z
M 672.82716 250.820022 
L 672.822472 250.995022 
Q 672.700597 251.220022 672.453722 251.32471 
Q 672.206847 251.429397 671.87091 251.429397 
Q 671.363097 251.429397 670.97716 251.171585 
Q 670.591222 250.91221 670.378722 250.441897 
Q 670.166222 249.970022 670.166222 249.34971 
L 670.166222 249.345022 
Q 670.166222 248.65596 670.397472 248.16846 
Q 670.630285 247.679397 671.07716 247.426272 
Q 671.524035 247.171585 672.149035 247.171585 
Q 672.774035 247.171585 673.217785 247.43096 
Q 673.663097 247.690335 673.894347 248.184085 
Q 674.125597 248.676272 674.125597 249.370022 
L 674.125597 249.37471 
Q 674.125597 249.754397 674.02716 250.18721 
Q 673.930285 250.620022 673.750597 251.04346 
Q 673.72091 251.107522 673.691222 251.173147 
Q 673.663097 251.238772 673.628722 251.302835 
L 672.11466 254.345022 
L 671.03966 254.345022 
L 672.82716 250.820022 
z
M 672.149035 250.521585 
Q 672.617785 250.521585 672.874035 250.204397 
Q 673.130285 249.88721 673.130285 249.310647 
L 673.130285 249.30596 
Q 673.130285 248.745022 672.874035 248.43721 
Q 672.617785 248.129397 672.149035 248.129397 
Q 671.675597 248.129397 671.419347 248.43721 
Q 671.163097 248.745022 671.163097 249.310647 
L 671.163097 249.315335 
Q 671.163097 249.891897 671.419347 250.207522 
Q 671.675597 250.521585 672.149035 250.521585 
z
" style="fill: #ffffff"/>
   </g>
  </g>
 </g>
 <defs>
  <clipPath id="pa2afa66b2c">
   <rect x="144" y="77.76" width="892.8" height="498.96"/>
  </clipPath>
 </defs>
</svg>
