<?xml version="1.0" encoding="utf-8" standalone="no"?>
<!DOCTYPE svg PUBLIC "-//W3C//DTD SVG 1.1//EN"
  "http://www.w3.org/Graphics/SVG/1.1/DTD/svg11.dtd">
<svg xmlns:xlink="http://www.w3.org/1999/xlink" width="1152pt" height="648pt" viewBox="0 0 1152 648" xmlns="http://www.w3.org/2000/svg" version="1.1">
 <metadata>
  <rdf:RDF xmlns:dc="http://purl.org/dc/elements/1.1/" xmlns:cc="http://creativecommons.org/ns#" xmlns:rdf="http://www.w3.org/1999/02/22-rdf-syntax-ns#">
   <cc:Work>
    <dc:type rdf:resource="http://purl.org/dc/dcmitype/StillImage"/>
    <dc:date>2025-09-19T13:51:41.997816</dc:date>
    <dc:format>image/svg+xml</dc:format>
    <dc:creator>
     <cc:Agent>
      <dc:title>Matplotlib v3.10.3, https://matplotlib.org/</dc:title>
     </cc:Agent>
    </dc:creator>
   </cc:Work>
  </rdf:RDF>
 </metadata>
 <defs>
  <style type="text/css">*{stroke-linejoin: round; stroke-linecap: butt}</style>
 </defs>
 <g id="figure_1">
  <g id="patch_1">
   <path d="M 0 648 
L 1152 648 
L 1152 0 
L 0 0 
L 0 648 
z
" style="fill: none"/>
  </g>
  <g id="axes_1">
   <g id="PathCollection_1">
    <defs>
     <path id="m03ec74bd1a" d="M 0 2.738613 
C 0.726289 2.738613 1.422928 2.450055 1.936492 1.936492 
C 2.450055 1.422928 2.738613 0.726289 2.738613 0 
C 2.738613 -0.726289 2.450055 -1.422928 1.936492 -1.936492 
C 1.422928 -2.450055 0.726289 -2.738613 0 -2.738613 
C -0.726289 -2.738613 -1.422928 -2.450055 -1.936492 -1.936492 
C -2.450055 -1.422928 -2.738613 -0.726289 -2.738613 0 
C -2.738613 0.726289 -2.450055 1.422928 -1.936492 1.936492 
C -1.422928 2.450055 -0.726289 2.738613 0 2.738613 
z
" style="stroke: #66ff33"/>
    </defs>
    <g clip-path="url(#pb541f31bf3)">
     <use xlink:href="#m03ec74bd1a" x="720.848" y="310.77432" style="fill: #66ff33; stroke: #66ff33"/>
     <use xlink:href="#m03ec74bd1a" x="386.544" y="399.5892" style="fill: #66ff33; stroke: #66ff33"/>
     <use xlink:href="#m03ec74bd1a" x="273.456" y="460.83654" style="fill: #66ff33; stroke: #66ff33"/>
    </g>
   </g>
   <g id="text_1">
    <path d="M 729.55298 305.320888 
L 730.40298 305.320888 
L 733.020167 312.420888 
L 731.945167 312.420888 
L 729.97798 306.692763 
L 728.010792 312.420888 
L 726.935792 312.420888 
L 729.55298 305.320888 
z
M 728.142042 309.916201 
L 731.87798 309.916201 
L 731.87798 310.863075 
L 728.142042 310.863075 
L 728.142042 309.916201 
z
M 735.661964 312.420888 
L 734.665089 312.420888 
L 734.665089 306.405263 
L 733.654152 307.025576 
L 733.654152 305.994326 
L 734.665089 305.320888 
L 735.661964 305.320888 
L 735.661964 312.420888 
z
M 739.352785 312.494326 
Q 738.709035 312.494326 738.219972 312.250575 
Q 737.732472 312.005263 737.465285 311.558388 
Q 737.19966 311.111513 737.19966 310.520888 
L 737.19966 310.403701 
Q 737.19966 309.872451 737.465285 309.403701 
Q 737.732472 308.934951 738.176222 308.695888 
Q 737.79966 308.489638 737.573097 308.102138 
Q 737.346535 307.713076 737.346535 307.283388 
L 737.346535 307.113075 
Q 737.346535 306.556826 737.594972 306.134951 
Q 737.84341 305.711513 738.298097 305.480263 
Q 738.752785 305.247451 739.352785 305.247451 
Q 739.952785 305.247451 740.407472 305.480263 
Q 740.86216 305.711513 741.110597 306.134951 
Q 741.359035 306.556826 741.359035 307.113075 
L 741.359035 307.283388 
Q 741.359035 307.724013 741.127785 308.10995 
Q 740.896535 308.494326 740.515285 308.695888 
Q 740.963722 308.939638 741.234035 309.406825 
Q 741.50591 309.872451 741.50591 310.403701 
L 741.50591 310.520888 
Q 741.50591 311.111513 741.240285 311.558388 
Q 740.97466 312.005263 740.485597 312.250575 
Q 739.998097 312.494326 739.352785 312.494326 
z
M 739.352785 311.536513 
Q 739.69966 311.536513 739.96216 311.400576 
Q 740.226222 311.263076 740.369972 311.017763 
Q 740.515285 310.770888 740.515285 310.447451 
L 740.515285 310.380263 
Q 740.515285 310.052138 740.369972 309.806826 
Q 740.226222 309.559951 739.96216 309.424013 
Q 739.69966 309.286513 739.352785 309.286513 
Q 739.00591 309.286513 738.741847 309.424013 
Q 738.479347 309.559951 738.334035 309.808388 
Q 738.190285 310.056826 738.190285 310.384951 
L 738.190285 310.458388 
Q 738.190285 310.780263 738.334035 311.024013 
Q 738.479347 311.267763 738.741847 311.402138 
Q 739.00591 311.536513 739.352785 311.536513 
z
M 739.352785 308.3287 
Q 739.651222 308.3287 739.879347 308.200576 
Q 740.109035 308.070888 740.235597 307.831825 
Q 740.363722 307.591201 740.363722 307.278701 
L 740.363722 307.211513 
Q 740.363722 306.913075 740.235597 306.683388 
Q 740.109035 306.4537 739.879347 306.330263 
Q 739.651222 306.205263 739.352785 306.205263 
Q 739.054347 306.205263 738.82466 306.330263 
Q 738.596535 306.4537 738.46841 306.683388 
Q 738.341847 306.913075 738.341847 307.216201 
L 738.341847 307.289638 
Q 738.341847 307.595888 738.46841 307.833388 
Q 738.596535 308.070888 738.82466 308.200576 
Q 739.054347 308.3287 739.352785 308.3287 
z
M 745.266457 308.719325 
L 747.536769 308.719325 
Q 747.858644 308.719325 748.102394 308.567763 
Q 748.347707 308.416201 748.480519 308.138076 
Q 748.614894 307.85995 748.614894 307.499013 
L 748.614894 307.499013 
Q 748.614894 307.133388 748.480519 306.855263 
Q 748.347707 306.575576 748.102394 306.42245 
Q 747.858644 306.267763 747.536769 306.267763 
L 745.266457 306.267763 
L 745.266457 305.320888 
L 747.502394 305.320888 
Q 748.136769 305.320888 748.619582 305.592763 
Q 749.103957 305.863075 749.369582 306.356826 
Q 749.636769 306.849013 749.636769 307.499013 
L 749.636769 307.499013 
Q 749.636769 308.149013 749.369582 308.639638 
Q 749.103957 309.130263 748.619582 309.399013 
Q 748.136769 309.666201 747.502394 309.666201 
L 745.266457 309.666201 
L 745.266457 308.719325 
z
M 744.753957 305.320888 
L 745.749269 305.320888 
L 745.749269 312.420888 
L 744.753957 312.420888 
L 744.753957 305.320888 
z
M 750.881105 307.352138 
L 751.87798 307.352138 
L 751.87798 312.420888 
L 750.881105 312.420888 
L 750.881105 307.352138 
z
M 753.668605 308.5537 
Q 753.537355 308.392763 753.337355 308.309951 
Q 753.137355 308.227138 752.873292 308.227138 
Q 752.399855 308.227138 752.138917 308.488075 
Q 751.87798 308.749013 751.87798 309.213076 
L 751.774855 308.236513 
Q 752.00923 307.781825 752.379542 307.530263 
Q 752.751417 307.278701 753.199855 307.278701 
Q 753.54673 307.278701 753.82798 307.3787 
Q 754.10923 307.478701 754.318605 307.674013 
L 753.668605 308.5537 
z
M 757.092433 312.494326 
Q 756.433058 312.494326 755.964308 312.236513 
Q 755.495558 311.977138 755.248683 311.481826 
Q 755.001808 310.98495 755.001808 310.286513 
L 755.001808 309.461513 
Q 755.001808 308.774013 755.248683 308.283388 
Q 755.495558 307.791201 755.964308 307.53495 
Q 756.433058 307.278701 757.092433 307.278701 
Q 757.751808 307.278701 758.220558 307.53495 
Q 758.689308 307.791201 758.934621 308.283388 
Q 759.181496 308.774013 759.181496 309.461513 
L 759.181496 310.302138 
Q 759.181496 310.994326 758.934621 311.486513 
Q 758.689308 311.977138 758.220558 312.236513 
Q 757.751808 312.494326 757.092433 312.494326 
z
M 757.092433 311.54745 
Q 757.614308 311.54745 757.900246 311.220888 
Q 758.186183 310.892763 758.186183 310.302138 
L 758.186183 309.461513 
Q 758.186183 308.870888 757.900246 308.549013 
Q 757.614308 308.227138 757.092433 308.227138 
Q 756.568996 308.227138 756.283058 308.549013 
Q 755.998683 308.870888 755.998683 309.461513 
L 755.998683 310.302138 
Q 755.998683 310.892763 756.283058 311.220888 
Q 756.568996 311.54745 757.092433 311.54745 
z
" style="fill: #ffffff; stroke: #000000"/>
    <path d="M 729.55298 305.320888 
L 730.40298 305.320888 
L 733.020167 312.420888 
L 731.945167 312.420888 
L 729.97798 306.692763 
L 728.010792 312.420888 
L 726.935792 312.420888 
L 729.55298 305.320888 
z
M 728.142042 309.916201 
L 731.87798 309.916201 
L 731.87798 310.863075 
L 728.142042 310.863075 
L 728.142042 309.916201 
z
M 735.661964 312.420888 
L 734.665089 312.420888 
L 734.665089 306.405263 
L 733.654152 307.025576 
L 733.654152 305.994326 
L 734.665089 305.320888 
L 735.661964 305.320888 
L 735.661964 312.420888 
z
M 739.352785 312.494326 
Q 738.709035 312.494326 738.219972 312.250575 
Q 737.732472 312.005263 737.465285 311.558388 
Q 737.19966 311.111513 737.19966 310.520888 
L 737.19966 310.403701 
Q 737.19966 309.872451 737.465285 309.403701 
Q 737.732472 308.934951 738.176222 308.695888 
Q 737.79966 308.489638 737.573097 308.102138 
Q 737.346535 307.713076 737.346535 307.283388 
L 737.346535 307.113075 
Q 737.346535 306.556826 737.594972 306.134951 
Q 737.84341 305.711513 738.298097 305.480263 
Q 738.752785 305.247451 739.352785 305.247451 
Q 739.952785 305.247451 740.407472 305.480263 
Q 740.86216 305.711513 741.110597 306.134951 
Q 741.359035 306.556826 741.359035 307.113075 
L 741.359035 307.283388 
Q 741.359035 307.724013 741.127785 308.10995 
Q 740.896535 308.494326 740.515285 308.695888 
Q 740.963722 308.939638 741.234035 309.406825 
Q 741.50591 309.872451 741.50591 310.403701 
L 741.50591 310.520888 
Q 741.50591 311.111513 741.240285 311.558388 
Q 740.97466 312.005263 740.485597 312.250575 
Q 739.998097 312.494326 739.352785 312.494326 
z
M 739.352785 311.536513 
Q 739.69966 311.536513 739.96216 311.400576 
Q 740.226222 311.263076 740.369972 311.017763 
Q 740.515285 310.770888 740.515285 310.447451 
L 740.515285 310.380263 
Q 740.515285 310.052138 740.369972 309.806826 
Q 740.226222 309.559951 739.96216 309.424013 
Q 739.69966 309.286513 739.352785 309.286513 
Q 739.00591 309.286513 738.741847 309.424013 
Q 738.479347 309.559951 738.334035 309.808388 
Q 738.190285 310.056826 738.190285 310.384951 
L 738.190285 310.458388 
Q 738.190285 310.780263 738.334035 311.024013 
Q 738.479347 311.267763 738.741847 311.402138 
Q 739.00591 311.536513 739.352785 311.536513 
z
M 739.352785 308.3287 
Q 739.651222 308.3287 739.879347 308.200576 
Q 740.109035 308.070888 740.235597 307.831825 
Q 740.363722 307.591201 740.363722 307.278701 
L 740.363722 307.211513 
Q 740.363722 306.913075 740.235597 306.683388 
Q 740.109035 306.4537 739.879347 306.330263 
Q 739.651222 306.205263 739.352785 306.205263 
Q 739.054347 306.205263 738.82466 306.330263 
Q 738.596535 306.4537 738.46841 306.683388 
Q 738.341847 306.913075 738.341847 307.216201 
L 738.341847 307.289638 
Q 738.341847 307.595888 738.46841 307.833388 
Q 738.596535 308.070888 738.82466 308.200576 
Q 739.054347 308.3287 739.352785 308.3287 
z
M 745.266457 308.719325 
L 747.536769 308.719325 
Q 747.858644 308.719325 748.102394 308.567763 
Q 748.347707 308.416201 748.480519 308.138076 
Q 748.614894 307.85995 748.614894 307.499013 
L 748.614894 307.499013 
Q 748.614894 307.133388 748.480519 306.855263 
Q 748.347707 306.575576 748.102394 306.42245 
Q 747.858644 306.267763 747.536769 306.267763 
L 745.266457 306.267763 
L 745.266457 305.320888 
L 747.502394 305.320888 
Q 748.136769 305.320888 748.619582 305.592763 
Q 749.103957 305.863075 749.369582 306.356826 
Q 749.636769 306.849013 749.636769 307.499013 
L 749.636769 307.499013 
Q 749.636769 308.149013 749.369582 308.639638 
Q 749.103957 309.130263 748.619582 309.399013 
Q 748.136769 309.666201 747.502394 309.666201 
L 745.266457 309.666201 
L 745.266457 308.719325 
z
M 744.753957 305.320888 
L 745.749269 305.320888 
L 745.749269 312.420888 
L 744.753957 312.420888 
L 744.753957 305.320888 
z
M 750.881105 307.352138 
L 751.87798 307.352138 
L 751.87798 312.420888 
L 750.881105 312.420888 
L 750.881105 307.352138 
z
M 753.668605 308.5537 
Q 753.537355 308.392763 753.337355 308.309951 
Q 753.137355 308.227138 752.873292 308.227138 
Q 752.399855 308.227138 752.138917 308.488075 
Q 751.87798 308.749013 751.87798 309.213076 
L 751.774855 308.236513 
Q 752.00923 307.781825 752.379542 307.530263 
Q 752.751417 307.278701 753.199855 307.278701 
Q 753.54673 307.278701 753.82798 307.3787 
Q 754.10923 307.478701 754.318605 307.674013 
L 753.668605 308.5537 
z
M 757.092433 312.494326 
Q 756.433058 312.494326 755.964308 312.236513 
Q 755.495558 311.977138 755.248683 311.481826 
Q 755.001808 310.98495 755.001808 310.286513 
L 755.001808 309.461513 
Q 755.001808 308.774013 755.248683 308.283388 
Q 755.495558 307.791201 755.964308 307.53495 
Q 756.433058 307.278701 757.092433 307.278701 
Q 757.751808 307.278701 758.220558 307.53495 
Q 758.689308 307.791201 758.934621 308.283388 
Q 759.181496 308.774013 759.181496 309.461513 
L 759.181496 310.302138 
Q 759.181496 310.994326 758.934621 311.486513 
Q 758.689308 311.977138 758.220558 312.236513 
Q 757.751808 312.494326 757.092433 312.494326 
z
M 757.092433 311.54745 
Q 757.614308 311.54745 757.900246 311.220888 
Q 758.186183 310.892763 758.186183 310.302138 
L 758.186183 309.461513 
Q 758.186183 308.870888 757.900246 308.549013 
Q 757.614308 308.227138 757.092433 308.227138 
Q 756.568996 308.227138 756.283058 308.549013 
Q 755.998683 308.870888 755.998683 309.461513 
L 755.998683 310.302138 
Q 755.998683 310.892763 756.283058 311.220888 
Q 756.568996 311.54745 757.092433 311.54745 
z
" style="fill: #ffffff"/>
   </g>
   <g id="text_2">
    <path d="M 395.24898 394.135768 
L 396.09898 394.135768 
L 398.716167 401.235768 
L 397.641167 401.235768 
L 395.67398 395.507643 
L 393.706792 401.235768 
L 392.631792 401.235768 
L 395.24898 394.135768 
z
M 393.838042 398.731081 
L 397.57398 398.731081 
L 397.57398 399.677955 
L 393.838042 399.677955 
L 393.838042 398.731081 
z
M 401.357964 401.235768 
L 400.361089 401.235768 
L 400.361089 395.220143 
L 399.350152 395.840456 
L 399.350152 394.809206 
L 400.361089 394.135768 
L 401.357964 394.135768 
L 401.357964 401.235768 
z
M 405.048785 401.309206 
Q 404.405035 401.309206 403.915972 401.065455 
Q 403.428472 400.820143 403.161285 400.373268 
Q 402.89566 399.926393 402.89566 399.335768 
L 402.89566 399.218581 
Q 402.89566 398.687331 403.161285 398.218581 
Q 403.428472 397.749831 403.872222 397.510768 
Q 403.49566 397.304518 403.269097 396.917018 
Q 403.042535 396.527956 403.042535 396.098268 
L 403.042535 395.927955 
Q 403.042535 395.371706 403.290972 394.949831 
Q 403.53941 394.526393 403.994097 394.295143 
Q 404.448785 394.062331 405.048785 394.062331 
Q 405.648785 394.062331 406.103472 394.295143 
Q 406.55816 394.526393 406.806597 394.949831 
Q 407.055035 395.371706 407.055035 395.927955 
L 407.055035 396.098268 
Q 407.055035 396.538893 406.823785 396.92483 
Q 406.592535 397.309206 406.211285 397.510768 
Q 406.659722 397.754518 406.930035 398.221705 
Q 407.20191 398.687331 407.20191 399.218581 
L 407.20191 399.335768 
Q 407.20191 399.926393 406.936285 400.373268 
Q 406.67066 400.820143 406.181597 401.065455 
Q 405.694097 401.309206 405.048785 401.309206 
z
M 405.048785 400.351393 
Q 405.39566 400.351393 405.65816 400.215456 
Q 405.922222 400.077956 406.065972 399.832643 
Q 406.211285 399.585768 406.211285 399.262331 
L 406.211285 399.195143 
Q 406.211285 398.867018 406.065972 398.621706 
Q 405.922222 398.374831 405.65816 398.238893 
Q 405.39566 398.101393 405.048785 398.101393 
Q 404.70191 398.101393 404.437847 398.238893 
Q 404.175347 398.374831 404.030035 398.623268 
Q 403.886285 398.871706 403.886285 399.199831 
L 403.886285 399.273268 
Q 403.886285 399.595143 404.030035 399.838893 
Q 404.175347 400.082643 404.437847 400.217018 
Q 404.70191 400.351393 405.048785 400.351393 
z
M 405.048785 397.14358 
Q 405.347222 397.14358 405.575347 397.015456 
Q 405.805035 396.885768 405.931597 396.646705 
Q 406.059722 396.406081 406.059722 396.093581 
L 406.059722 396.026393 
Q 406.059722 395.727956 405.931597 395.498268 
Q 405.805035 395.26858 405.575347 395.145143 
Q 405.347222 395.020143 405.048785 395.020143 
Q 404.750347 395.020143 404.52066 395.145143 
Q 404.292535 395.26858 404.16441 395.498268 
Q 404.037847 395.727956 404.037847 396.031081 
L 404.037847 396.104518 
Q 404.037847 396.410768 404.16441 396.648268 
Q 404.292535 396.885768 404.52066 397.015456 
Q 404.750347 397.14358 405.048785 397.14358 
z
M 410.962457 397.534205 
L 413.232769 397.534205 
Q 413.554644 397.534205 413.798394 397.382643 
Q 414.043707 397.231081 414.176519 396.952956 
Q 414.310894 396.67483 414.310894 396.313893 
L 414.310894 396.313893 
Q 414.310894 395.948268 414.176519 395.670143 
Q 414.043707 395.390456 413.798394 395.23733 
Q 413.554644 395.082643 413.232769 395.082643 
L 410.962457 395.082643 
L 410.962457 394.135768 
L 413.198394 394.135768 
Q 413.832769 394.135768 414.315582 394.407643 
Q 414.799957 394.677955 415.065582 395.171706 
Q 415.332769 395.663893 415.332769 396.313893 
L 415.332769 396.313893 
Q 415.332769 396.963893 415.065582 397.454518 
Q 414.799957 397.945143 414.315582 398.213893 
Q 413.832769 398.481081 413.198394 398.481081 
L 410.962457 398.481081 
L 410.962457 397.534205 
z
M 410.449957 394.135768 
L 411.445269 394.135768 
L 411.445269 401.235768 
L 410.449957 401.235768 
L 410.449957 394.135768 
z
M 416.577105 396.167018 
L 417.57398 396.167018 
L 417.57398 401.235768 
L 416.577105 401.235768 
L 416.577105 396.167018 
z
M 419.364605 397.368581 
Q 419.233355 397.207643 419.033355 397.124831 
Q 418.833355 397.042018 418.569292 397.042018 
Q 418.095855 397.042018 417.834917 397.302955 
Q 417.57398 397.563893 417.57398 398.027956 
L 417.470855 397.051393 
Q 417.70523 396.596705 418.075542 396.345143 
Q 418.447417 396.093581 418.895855 396.093581 
Q 419.24273 396.093581 419.52398 396.19358 
Q 419.80523 396.293581 420.014605 396.488893 
L 419.364605 397.368581 
z
M 422.788433 401.309206 
Q 422.129058 401.309206 421.660308 401.051393 
Q 421.191558 400.792018 420.944683 400.296706 
Q 420.697808 399.79983 420.697808 399.101393 
L 420.697808 398.276393 
Q 420.697808 397.588893 420.944683 397.098268 
Q 421.191558 396.606081 421.660308 396.34983 
Q 422.129058 396.093581 422.788433 396.093581 
Q 423.447808 396.093581 423.916558 396.34983 
Q 424.385308 396.606081 424.630621 397.098268 
Q 424.877496 397.588893 424.877496 398.276393 
L 424.877496 399.117018 
Q 424.877496 399.809206 424.630621 400.301393 
Q 424.385308 400.792018 423.916558 401.051393 
Q 423.447808 401.309206 422.788433 401.309206 
z
M 422.788433 400.36233 
Q 423.310308 400.36233 423.596246 400.035768 
Q 423.882183 399.707643 423.882183 399.117018 
L 423.882183 398.276393 
Q 423.882183 397.685768 423.596246 397.363893 
Q 423.310308 397.042018 422.788433 397.042018 
Q 422.264996 397.042018 421.979058 397.363893 
Q 421.694683 397.685768 421.694683 398.276393 
L 421.694683 399.117018 
Q 421.694683 399.707643 421.979058 400.035768 
Q 422.264996 400.36233 422.788433 400.36233 
z
" style="fill: #ffffff; stroke: #000000"/>
    <path d="M 395.24898 394.135768 
L 396.09898 394.135768 
L 398.716167 401.235768 
L 397.641167 401.235768 
L 395.67398 395.507643 
L 393.706792 401.235768 
L 392.631792 401.235768 
L 395.24898 394.135768 
z
M 393.838042 398.731081 
L 397.57398 398.731081 
L 397.57398 399.677955 
L 393.838042 399.677955 
L 393.838042 398.731081 
z
M 401.357964 401.235768 
L 400.361089 401.235768 
L 400.361089 395.220143 
L 399.350152 395.840456 
L 399.350152 394.809206 
L 400.361089 394.135768 
L 401.357964 394.135768 
L 401.357964 401.235768 
z
M 405.048785 401.309206 
Q 404.405035 401.309206 403.915972 401.065455 
Q 403.428472 400.820143 403.161285 400.373268 
Q 402.89566 399.926393 402.89566 399.335768 
L 402.89566 399.218581 
Q 402.89566 398.687331 403.161285 398.218581 
Q 403.428472 397.749831 403.872222 397.510768 
Q 403.49566 397.304518 403.269097 396.917018 
Q 403.042535 396.527956 403.042535 396.098268 
L 403.042535 395.927955 
Q 403.042535 395.371706 403.290972 394.949831 
Q 403.53941 394.526393 403.994097 394.295143 
Q 404.448785 394.062331 405.048785 394.062331 
Q 405.648785 394.062331 406.103472 394.295143 
Q 406.55816 394.526393 406.806597 394.949831 
Q 407.055035 395.371706 407.055035 395.927955 
L 407.055035 396.098268 
Q 407.055035 396.538893 406.823785 396.92483 
Q 406.592535 397.309206 406.211285 397.510768 
Q 406.659722 397.754518 406.930035 398.221705 
Q 407.20191 398.687331 407.20191 399.218581 
L 407.20191 399.335768 
Q 407.20191 399.926393 406.936285 400.373268 
Q 406.67066 400.820143 406.181597 401.065455 
Q 405.694097 401.309206 405.048785 401.309206 
z
M 405.048785 400.351393 
Q 405.39566 400.351393 405.65816 400.215456 
Q 405.922222 400.077956 406.065972 399.832643 
Q 406.211285 399.585768 406.211285 399.262331 
L 406.211285 399.195143 
Q 406.211285 398.867018 406.065972 398.621706 
Q 405.922222 398.374831 405.65816 398.238893 
Q 405.39566 398.101393 405.048785 398.101393 
Q 404.70191 398.101393 404.437847 398.238893 
Q 404.175347 398.374831 404.030035 398.623268 
Q 403.886285 398.871706 403.886285 399.199831 
L 403.886285 399.273268 
Q 403.886285 399.595143 404.030035 399.838893 
Q 404.175347 400.082643 404.437847 400.217018 
Q 404.70191 400.351393 405.048785 400.351393 
z
M 405.048785 397.14358 
Q 405.347222 397.14358 405.575347 397.015456 
Q 405.805035 396.885768 405.931597 396.646705 
Q 406.059722 396.406081 406.059722 396.093581 
L 406.059722 396.026393 
Q 406.059722 395.727956 405.931597 395.498268 
Q 405.805035 395.26858 405.575347 395.145143 
Q 405.347222 395.020143 405.048785 395.020143 
Q 404.750347 395.020143 404.52066 395.145143 
Q 404.292535 395.26858 404.16441 395.498268 
Q 404.037847 395.727956 404.037847 396.031081 
L 404.037847 396.104518 
Q 404.037847 396.410768 404.16441 396.648268 
Q 404.292535 396.885768 404.52066 397.015456 
Q 404.750347 397.14358 405.048785 397.14358 
z
M 410.962457 397.534205 
L 413.232769 397.534205 
Q 413.554644 397.534205 413.798394 397.382643 
Q 414.043707 397.231081 414.176519 396.952956 
Q 414.310894 396.67483 414.310894 396.313893 
L 414.310894 396.313893 
Q 414.310894 395.948268 414.176519 395.670143 
Q 414.043707 395.390456 413.798394 395.23733 
Q 413.554644 395.082643 413.232769 395.082643 
L 410.962457 395.082643 
L 410.962457 394.135768 
L 413.198394 394.135768 
Q 413.832769 394.135768 414.315582 394.407643 
Q 414.799957 394.677955 415.065582 395.171706 
Q 415.332769 395.663893 415.332769 396.313893 
L 415.332769 396.313893 
Q 415.332769 396.963893 415.065582 397.454518 
Q 414.799957 397.945143 414.315582 398.213893 
Q 413.832769 398.481081 413.198394 398.481081 
L 410.962457 398.481081 
L 410.962457 397.534205 
z
M 410.449957 394.135768 
L 411.445269 394.135768 
L 411.445269 401.235768 
L 410.449957 401.235768 
L 410.449957 394.135768 
z
M 416.577105 396.167018 
L 417.57398 396.167018 
L 417.57398 401.235768 
L 416.577105 401.235768 
L 416.577105 396.167018 
z
M 419.364605 397.368581 
Q 419.233355 397.207643 419.033355 397.124831 
Q 418.833355 397.042018 418.569292 397.042018 
Q 418.095855 397.042018 417.834917 397.302955 
Q 417.57398 397.563893 417.57398 398.027956 
L 417.470855 397.051393 
Q 417.70523 396.596705 418.075542 396.345143 
Q 418.447417 396.093581 418.895855 396.093581 
Q 419.24273 396.093581 419.52398 396.19358 
Q 419.80523 396.293581 420.014605 396.488893 
L 419.364605 397.368581 
z
M 422.788433 401.309206 
Q 422.129058 401.309206 421.660308 401.051393 
Q 421.191558 400.792018 420.944683 400.296706 
Q 420.697808 399.79983 420.697808 399.101393 
L 420.697808 398.276393 
Q 420.697808 397.588893 420.944683 397.098268 
Q 421.191558 396.606081 421.660308 396.34983 
Q 422.129058 396.093581 422.788433 396.093581 
Q 423.447808 396.093581 423.916558 396.34983 
Q 424.385308 396.606081 424.630621 397.098268 
Q 424.877496 397.588893 424.877496 398.276393 
L 424.877496 399.117018 
Q 424.877496 399.809206 424.630621 400.301393 
Q 424.385308 400.792018 423.916558 401.051393 
Q 423.447808 401.309206 422.788433 401.309206 
z
M 422.788433 400.36233 
Q 423.310308 400.36233 423.596246 400.035768 
Q 423.882183 399.707643 423.882183 399.117018 
L 423.882183 398.276393 
Q 423.882183 397.685768 423.596246 397.363893 
Q 423.310308 397.042018 422.788433 397.042018 
Q 422.264996 397.042018 421.979058 397.363893 
Q 421.694683 397.685768 421.694683 398.276393 
L 421.694683 399.117018 
Q 421.694683 399.707643 421.979058 400.035768 
Q 422.264996 400.36233 422.788433 400.36233 
z
" style="fill: #ffffff"/>
   </g>
   <g id="text_3">
    <path d="M 282.16098 455.383108 
L 283.01098 455.383108 
L 285.628168 462.483108 
L 284.553167 462.483108 
L 282.58598 456.754983 
L 280.618792 462.483108 
L 279.543792 462.483108 
L 282.16098 455.383108 
z
M 280.750043 459.978421 
L 284.48598 459.978421 
L 284.48598 460.925296 
L 280.750043 460.925296 
L 280.750043 459.978421 
z
M 288.269964 462.483108 
L 287.273089 462.483108 
L 287.273089 456.467483 
L 286.262152 457.087796 
L 286.262152 456.056546 
L 287.273089 455.383108 
L 288.269964 455.383108 
L 288.269964 462.483108 
z
M 291.960785 462.556546 
Q 291.317035 462.556546 290.827972 462.312795 
Q 290.340472 462.067483 290.073285 461.620608 
Q 289.80766 461.173733 289.80766 460.583108 
L 289.80766 460.465921 
Q 289.80766 459.934671 290.073285 459.465921 
Q 290.340472 458.997171 290.784222 458.758108 
Q 290.40766 458.551858 290.181097 458.164358 
Q 289.954535 457.775296 289.954535 457.345608 
L 289.954535 457.175296 
Q 289.954535 456.619046 290.202972 456.197171 
Q 290.45141 455.773733 290.906097 455.542483 
Q 291.360785 455.309671 291.960785 455.309671 
Q 292.560785 455.309671 293.015472 455.542483 
Q 293.47016 455.773733 293.718597 456.197171 
Q 293.967035 456.619046 293.967035 457.175296 
L 293.967035 457.345608 
Q 293.967035 457.786233 293.735785 458.17217 
Q 293.504535 458.556546 293.123285 458.758108 
Q 293.571722 459.001858 293.842035 459.469045 
Q 294.11391 459.934671 294.11391 460.465921 
L 294.11391 460.583108 
Q 294.11391 461.173733 293.848285 461.620608 
Q 293.58266 462.067483 293.093597 462.312795 
Q 292.606097 462.556546 291.960785 462.556546 
z
M 291.960785 461.598733 
Q 292.30766 461.598733 292.57016 461.462796 
Q 292.834222 461.325296 292.977972 461.079983 
Q 293.123285 460.833108 293.123285 460.509671 
L 293.123285 460.442483 
Q 293.123285 460.114358 292.977972 459.869046 
Q 292.834222 459.622171 292.57016 459.486233 
Q 292.30766 459.348733 291.960785 459.348733 
Q 291.61391 459.348733 291.349847 459.486233 
Q 291.087347 459.622171 290.942035 459.870608 
Q 290.798285 460.119046 290.798285 460.447171 
L 290.798285 460.520608 
Q 290.798285 460.842483 290.942035 461.086233 
Q 291.087347 461.329983 291.349847 461.464358 
Q 291.61391 461.598733 291.960785 461.598733 
z
M 291.960785 458.39092 
Q 292.259222 458.39092 292.487347 458.262796 
Q 292.717035 458.133108 292.843597 457.894046 
Q 292.971722 457.653421 292.971722 457.340921 
L 292.971722 457.273733 
Q 292.971722 456.975296 292.843597 456.745608 
Q 292.717035 456.51592 292.487347 456.392483 
Q 292.259222 456.267483 291.960785 456.267483 
Q 291.662347 456.267483 291.43266 456.392483 
Q 291.204535 456.51592 291.07641 456.745608 
Q 290.949847 456.975296 290.949847 457.278421 
L 290.949847 457.351858 
Q 290.949847 457.658108 291.07641 457.895608 
Q 291.204535 458.133108 291.43266 458.262796 
Q 291.662347 458.39092 291.960785 458.39092 
z
M 297.874457 458.781545 
L 300.144769 458.781545 
Q 300.466644 458.781545 300.710394 458.629983 
Q 300.955707 458.478421 301.088519 458.200296 
Q 301.222894 457.92217 301.222894 457.561233 
L 301.222894 457.561233 
Q 301.222894 457.195608 301.088519 456.917483 
Q 300.955707 456.637796 300.710394 456.48467 
Q 300.466644 456.329983 300.144769 456.329983 
L 297.874457 456.329983 
L 297.874457 455.383108 
L 300.110394 455.383108 
Q 300.744769 455.383108 301.227582 455.654983 
Q 301.711957 455.925296 301.977582 456.419046 
Q 302.244769 456.911233 302.244769 457.561233 
L 302.244769 457.561233 
Q 302.244769 458.211233 301.977582 458.701858 
Q 301.711957 459.192483 301.227582 459.461233 
Q 300.744769 459.728421 300.110394 459.728421 
L 297.874457 459.728421 
L 297.874457 458.781545 
z
M 297.361957 455.383108 
L 298.357269 455.383108 
L 298.357269 462.483108 
L 297.361957 462.483108 
L 297.361957 455.383108 
z
M 303.489105 457.414358 
L 304.48598 457.414358 
L 304.48598 462.483108 
L 303.489105 462.483108 
L 303.489105 457.414358 
z
M 306.276605 458.615921 
Q 306.145355 458.454983 305.945355 458.372171 
Q 305.745355 458.289358 305.481292 458.289358 
Q 305.007855 458.289358 304.746917 458.550296 
Q 304.48598 458.811233 304.48598 459.275296 
L 304.382855 458.298733 
Q 304.61723 457.844045 304.987543 457.592483 
Q 305.359418 457.340921 305.807855 457.340921 
Q 306.15473 457.340921 306.43598 457.440921 
Q 306.71723 457.540921 306.926605 457.736233 
L 306.276605 458.615921 
z
M 309.700433 462.556546 
Q 309.041058 462.556546 308.572308 462.298733 
Q 308.103558 462.039358 307.856683 461.544046 
Q 307.609808 461.04717 307.609808 460.348733 
L 307.609808 459.523733 
Q 307.609808 458.836233 307.856683 458.345608 
Q 308.103558 457.853421 308.572308 457.597171 
Q 309.041058 457.340921 309.700433 457.340921 
Q 310.359808 457.340921 310.828558 457.597171 
Q 311.297308 457.853421 311.542621 458.345608 
Q 311.789496 458.836233 311.789496 459.523733 
L 311.789496 460.364358 
Q 311.789496 461.056546 311.542621 461.548733 
Q 311.297308 462.039358 310.828558 462.298733 
Q 310.359808 462.556546 309.700433 462.556546 
z
M 309.700433 461.60967 
Q 310.222308 461.60967 310.508246 461.283108 
Q 310.794183 460.954983 310.794183 460.364358 
L 310.794183 459.523733 
Q 310.794183 458.933108 310.508246 458.611233 
Q 310.222308 458.289358 309.700433 458.289358 
Q 309.176996 458.289358 308.891058 458.611233 
Q 308.606683 458.933108 308.606683 459.523733 
L 308.606683 460.364358 
Q 308.606683 460.954983 308.891058 461.283108 
Q 309.176996 461.60967 309.700433 461.60967 
z
" style="fill: #ffffff; stroke: #000000"/>
    <path d="M 282.16098 455.383108 
L 283.01098 455.383108 
L 285.628168 462.483108 
L 284.553167 462.483108 
L 282.58598 456.754983 
L 280.618792 462.483108 
L 279.543792 462.483108 
L 282.16098 455.383108 
z
M 280.750043 459.978421 
L 284.48598 459.978421 
L 284.48598 460.925296 
L 280.750043 460.925296 
L 280.750043 459.978421 
z
M 288.269964 462.483108 
L 287.273089 462.483108 
L 287.273089 456.467483 
L 286.262152 457.087796 
L 286.262152 456.056546 
L 287.273089 455.383108 
L 288.269964 455.383108 
L 288.269964 462.483108 
z
M 291.960785 462.556546 
Q 291.317035 462.556546 290.827972 462.312795 
Q 290.340472 462.067483 290.073285 461.620608 
Q 289.80766 461.173733 289.80766 460.583108 
L 289.80766 460.465921 
Q 289.80766 459.934671 290.073285 459.465921 
Q 290.340472 458.997171 290.784222 458.758108 
Q 290.40766 458.551858 290.181097 458.164358 
Q 289.954535 457.775296 289.954535 457.345608 
L 289.954535 457.175296 
Q 289.954535 456.619046 290.202972 456.197171 
Q 290.45141 455.773733 290.906097 455.542483 
Q 291.360785 455.309671 291.960785 455.309671 
Q 292.560785 455.309671 293.015472 455.542483 
Q 293.47016 455.773733 293.718597 456.197171 
Q 293.967035 456.619046 293.967035 457.175296 
L 293.967035 457.345608 
Q 293.967035 457.786233 293.735785 458.17217 
Q 293.504535 458.556546 293.123285 458.758108 
Q 293.571722 459.001858 293.842035 459.469045 
Q 294.11391 459.934671 294.11391 460.465921 
L 294.11391 460.583108 
Q 294.11391 461.173733 293.848285 461.620608 
Q 293.58266 462.067483 293.093597 462.312795 
Q 292.606097 462.556546 291.960785 462.556546 
z
M 291.960785 461.598733 
Q 292.30766 461.598733 292.57016 461.462796 
Q 292.834222 461.325296 292.977972 461.079983 
Q 293.123285 460.833108 293.123285 460.509671 
L 293.123285 460.442483 
Q 293.123285 460.114358 292.977972 459.869046 
Q 292.834222 459.622171 292.57016 459.486233 
Q 292.30766 459.348733 291.960785 459.348733 
Q 291.61391 459.348733 291.349847 459.486233 
Q 291.087347 459.622171 290.942035 459.870608 
Q 290.798285 460.119046 290.798285 460.447171 
L 290.798285 460.520608 
Q 290.798285 460.842483 290.942035 461.086233 
Q 291.087347 461.329983 291.349847 461.464358 
Q 291.61391 461.598733 291.960785 461.598733 
z
M 291.960785 458.39092 
Q 292.259222 458.39092 292.487347 458.262796 
Q 292.717035 458.133108 292.843597 457.894046 
Q 292.971722 457.653421 292.971722 457.340921 
L 292.971722 457.273733 
Q 292.971722 456.975296 292.843597 456.745608 
Q 292.717035 456.51592 292.487347 456.392483 
Q 292.259222 456.267483 291.960785 456.267483 
Q 291.662347 456.267483 291.43266 456.392483 
Q 291.204535 456.51592 291.07641 456.745608 
Q 290.949847 456.975296 290.949847 457.278421 
L 290.949847 457.351858 
Q 290.949847 457.658108 291.07641 457.895608 
Q 291.204535 458.133108 291.43266 458.262796 
Q 291.662347 458.39092 291.960785 458.39092 
z
M 297.874457 458.781545 
L 300.144769 458.781545 
Q 300.466644 458.781545 300.710394 458.629983 
Q 300.955707 458.478421 301.088519 458.200296 
Q 301.222894 457.92217 301.222894 457.561233 
L 301.222894 457.561233 
Q 301.222894 457.195608 301.088519 456.917483 
Q 300.955707 456.637796 300.710394 456.48467 
Q 300.466644 456.329983 300.144769 456.329983 
L 297.874457 456.329983 
L 297.874457 455.383108 
L 300.110394 455.383108 
Q 300.744769 455.383108 301.227582 455.654983 
Q 301.711957 455.925296 301.977582 456.419046 
Q 302.244769 456.911233 302.244769 457.561233 
L 302.244769 457.561233 
Q 302.244769 458.211233 301.977582 458.701858 
Q 301.711957 459.192483 301.227582 459.461233 
Q 300.744769 459.728421 300.110394 459.728421 
L 297.874457 459.728421 
L 297.874457 458.781545 
z
M 297.361957 455.383108 
L 298.357269 455.383108 
L 298.357269 462.483108 
L 297.361957 462.483108 
L 297.361957 455.383108 
z
M 303.489105 457.414358 
L 304.48598 457.414358 
L 304.48598 462.483108 
L 303.489105 462.483108 
L 303.489105 457.414358 
z
M 306.276605 458.615921 
Q 306.145355 458.454983 305.945355 458.372171 
Q 305.745355 458.289358 305.481292 458.289358 
Q 305.007855 458.289358 304.746917 458.550296 
Q 304.48598 458.811233 304.48598 459.275296 
L 304.382855 458.298733 
Q 304.61723 457.844045 304.987543 457.592483 
Q 305.359418 457.340921 305.807855 457.340921 
Q 306.15473 457.340921 306.43598 457.440921 
Q 306.71723 457.540921 306.926605 457.736233 
L 306.276605 458.615921 
z
M 309.700433 462.556546 
Q 309.041058 462.556546 308.572308 462.298733 
Q 308.103558 462.039358 307.856683 461.544046 
Q 307.609808 461.04717 307.609808 460.348733 
L 307.609808 459.523733 
Q 307.609808 458.836233 307.856683 458.345608 
Q 308.103558 457.853421 308.572308 457.597171 
Q 309.041058 457.340921 309.700433 457.340921 
Q 310.359808 457.340921 310.828558 457.597171 
Q 311.297308 457.853421 311.542621 458.345608 
Q 311.789496 458.836233 311.789496 459.523733 
L 311.789496 460.364358 
Q 311.789496 461.056546 311.542621 461.548733 
Q 311.297308 462.039358 310.828558 462.298733 
Q 310.359808 462.556546 309.700433 462.556546 
z
M 309.700433 461.60967 
Q 310.222308 461.60967 310.508246 461.283108 
Q 310.794183 460.954983 310.794183 460.364358 
L 310.794183 459.523733 
Q 310.794183 458.933108 310.508246 458.611233 
Q 310.222308 458.289358 309.700433 458.289358 
Q 309.176996 458.289358 308.891058 458.611233 
Q 308.606683 458.933108 308.606683 459.523733 
L 308.606683 460.364358 
Q 308.606683 460.954983 308.891058 461.283108 
Q 309.176996 461.60967 309.700433 461.60967 
z
" style="fill: #ffffff"/>
   </g>
  </g>
 </g>
 <defs>
  <clipPath id="pb541f31bf3">
   <rect x="144" y="77.76" width="892.8" height="498.96"/>
  </clipPath>
 </defs>
</svg>
