<?xml version="1.0" encoding="utf-8" standalone="no"?>
<!DOCTYPE svg PUBLIC "-//W3C//DTD SVG 1.1//EN"
  "http://www.w3.org/Graphics/SVG/1.1/DTD/svg11.dtd">
<svg xmlns:xlink="http://www.w3.org/1999/xlink" width="1152pt" height="648pt" viewBox="0 0 1152 648" xmlns="http://www.w3.org/2000/svg" version="1.1">
 <metadata>
  <rdf:RDF xmlns:dc="http://purl.org/dc/elements/1.1/" xmlns:cc="http://creativecommons.org/ns#" xmlns:rdf="http://www.w3.org/1999/02/22-rdf-syntax-ns#">
   <cc:Work>
    <dc:type rdf:resource="http://purl.org/dc/dcmitype/StillImage"/>
    <dc:date>2025-09-19T13:51:42.054539</dc:date>
    <dc:format>image/svg+xml</dc:format>
    <dc:creator>
     <cc:Agent>
      <dc:title>Matplotlib v3.10.3, https://matplotlib.org/</dc:title>
     </cc:Agent>
    </dc:creator>
   </cc:Work>
  </rdf:RDF>
 </metadata>
 <defs>
  <style type="text/css">*{stroke-linejoin: round; stroke-linecap: butt}</style>
 </defs>
 <g id="figure_1">
  <g id="patch_1">
   <path d="M 0 648 
L 1152 648 
L 1152 0 
L 0 0 
L 0 648 
z
" style="fill: none"/>
  </g>
  <g id="axes_1">
   <g id="PathCollection_1">
    <defs>
     <path id="m730672cd1f" d="M 0 2.738613 
C 0.726289 2.738613 1.422928 2.450055 1.936492 1.936492 
C 2.450055 1.422928 2.738613 0.726289 2.738613 0 
C 2.738613 -0.726289 2.450055 -1.422928 1.936492 -1.936492 
C 1.422928 -2.450055 0.726289 -2.738613 0 -2.738613 
C -0.726289 -2.738613 -1.422928 -2.450055 -1.936492 -1.936492 
C -2.450055 -1.422928 -2.738613 -0.726289 -2.738613 0 
C -2.738613 0.726289 -2.450055 1.422928 -1.936492 1.936492 
C -1.422928 2.450055 -0.726289 2.738613 0 2.738613 
z
" style="stroke: #33ff66"/>
    </defs>
    <g clip-path="url(#p5765388dd2)">
     <use xlink:href="#m730672cd1f" x="605.776" y="337.71816" style="fill: #33ff66; stroke: #33ff66"/>
     <use xlink:href="#m730672cd1f" x="368.192" y="416.92806" style="fill: #33ff66; stroke: #33ff66"/>
     <use xlink:href="#m730672cd1f" x="283.376" y="456.22116" style="fill: #33ff66; stroke: #33ff66"/>
    </g>
   </g>
   <g id="text_1">
    <path d="M 614.48098 332.264728 
L 615.33098 332.264728 
L 617.948168 339.364728 
L 616.873168 339.364728 
L 614.90598 333.636603 
L 612.938793 339.364728 
L 611.863793 339.364728 
L 614.48098 332.264728 
z
M 613.070042 336.860041 
L 616.80598 336.860041 
L 616.80598 337.806916 
L 613.070042 337.806916 
L 613.070042 336.860041 
z
M 620.589964 339.364728 
L 619.593089 339.364728 
L 619.593089 333.349103 
L 618.582152 333.969416 
L 618.582152 332.938166 
L 619.593089 332.264728 
L 620.589964 332.264728 
L 620.589964 339.364728 
z
M 624.280785 339.438166 
Q 623.637035 339.438166 623.147972 339.194415 
Q 622.660472 338.949103 622.393285 338.502228 
Q 622.12766 338.055353 622.12766 337.464728 
L 622.12766 337.347541 
Q 622.12766 336.816291 622.393285 336.347541 
Q 622.660472 335.878791 623.104222 335.639728 
Q 622.72766 335.433478 622.501097 335.045978 
Q 622.274535 334.656916 622.274535 334.227228 
L 622.274535 334.056916 
Q 622.274535 333.500666 622.522972 333.078791 
Q 622.77141 332.655353 623.226097 332.424103 
Q 623.680785 332.191291 624.280785 332.191291 
Q 624.880785 332.191291 625.335472 332.424103 
Q 625.79016 332.655353 626.038597 333.078791 
Q 626.287035 333.500666 626.287035 334.056916 
L 626.287035 334.227228 
Q 626.287035 334.667853 626.055785 335.05379 
Q 625.824535 335.438166 625.443285 335.639728 
Q 625.891722 335.883478 626.162035 336.350665 
Q 626.43391 336.816291 626.43391 337.347541 
L 626.43391 337.464728 
Q 626.43391 338.055353 626.168285 338.502228 
Q 625.90266 338.949103 625.413597 339.194415 
Q 624.926097 339.438166 624.280785 339.438166 
z
M 624.280785 338.480353 
Q 624.62766 338.480353 624.89016 338.344416 
Q 625.154222 338.206916 625.297972 337.961603 
Q 625.443285 337.714728 625.443285 337.391291 
L 625.443285 337.324103 
Q 625.443285 336.995978 625.297972 336.750666 
Q 625.154222 336.503791 624.89016 336.367853 
Q 624.62766 336.230353 624.280785 336.230353 
Q 623.93391 336.230353 623.669847 336.367853 
Q 623.407347 336.503791 623.262035 336.752228 
Q 623.118285 337.000666 623.118285 337.328791 
L 623.118285 337.402228 
Q 623.118285 337.724103 623.262035 337.967853 
Q 623.407347 338.211603 623.669847 338.345978 
Q 623.93391 338.480353 624.280785 338.480353 
z
M 624.280785 335.27254 
Q 624.579222 335.27254 624.807347 335.144416 
Q 625.037035 335.014728 625.163597 334.775666 
Q 625.291722 334.535041 625.291722 334.222541 
L 625.291722 334.155353 
Q 625.291722 333.856916 625.163597 333.627228 
Q 625.037035 333.39754 624.807347 333.274103 
Q 624.579222 333.149103 624.280785 333.149103 
Q 623.982347 333.149103 623.75266 333.274103 
Q 623.524535 333.39754 623.39641 333.627228 
Q 623.269847 333.856916 623.269847 334.160041 
L 623.269847 334.233478 
Q 623.269847 334.539728 623.39641 334.777228 
Q 623.524535 335.014728 623.75266 335.144416 
Q 623.982347 335.27254 624.280785 335.27254 
z
" style="fill: #ffffff; stroke: #000000"/>
    <path d="M 614.48098 332.264728 
L 615.33098 332.264728 
L 617.948168 339.364728 
L 616.873168 339.364728 
L 614.90598 333.636603 
L 612.938793 339.364728 
L 611.863793 339.364728 
L 614.48098 332.264728 
z
M 613.070042 336.860041 
L 616.80598 336.860041 
L 616.80598 337.806916 
L 613.070042 337.806916 
L 613.070042 336.860041 
z
M 620.589964 339.364728 
L 619.593089 339.364728 
L 619.593089 333.349103 
L 618.582152 333.969416 
L 618.582152 332.938166 
L 619.593089 332.264728 
L 620.589964 332.264728 
L 620.589964 339.364728 
z
M 624.280785 339.438166 
Q 623.637035 339.438166 623.147972 339.194415 
Q 622.660472 338.949103 622.393285 338.502228 
Q 622.12766 338.055353 622.12766 337.464728 
L 622.12766 337.347541 
Q 622.12766 336.816291 622.393285 336.347541 
Q 622.660472 335.878791 623.104222 335.639728 
Q 622.72766 335.433478 622.501097 335.045978 
Q 622.274535 334.656916 622.274535 334.227228 
L 622.274535 334.056916 
Q 622.274535 333.500666 622.522972 333.078791 
Q 622.77141 332.655353 623.226097 332.424103 
Q 623.680785 332.191291 624.280785 332.191291 
Q 624.880785 332.191291 625.335472 332.424103 
Q 625.79016 332.655353 626.038597 333.078791 
Q 626.287035 333.500666 626.287035 334.056916 
L 626.287035 334.227228 
Q 626.287035 334.667853 626.055785 335.05379 
Q 625.824535 335.438166 625.443285 335.639728 
Q 625.891722 335.883478 626.162035 336.350665 
Q 626.43391 336.816291 626.43391 337.347541 
L 626.43391 337.464728 
Q 626.43391 338.055353 626.168285 338.502228 
Q 625.90266 338.949103 625.413597 339.194415 
Q 624.926097 339.438166 624.280785 339.438166 
z
M 624.280785 338.480353 
Q 624.62766 338.480353 624.89016 338.344416 
Q 625.154222 338.206916 625.297972 337.961603 
Q 625.443285 337.714728 625.443285 337.391291 
L 625.443285 337.324103 
Q 625.443285 336.995978 625.297972 336.750666 
Q 625.154222 336.503791 624.89016 336.367853 
Q 624.62766 336.230353 624.280785 336.230353 
Q 623.93391 336.230353 623.669847 336.367853 
Q 623.407347 336.503791 623.262035 336.752228 
Q 623.118285 337.000666 623.118285 337.328791 
L 623.118285 337.402228 
Q 623.118285 337.724103 623.262035 337.967853 
Q 623.407347 338.211603 623.669847 338.345978 
Q 623.93391 338.480353 624.280785 338.480353 
z
M 624.280785 335.27254 
Q 624.579222 335.27254 624.807347 335.144416 
Q 625.037035 335.014728 625.163597 334.775666 
Q 625.291722 334.535041 625.291722 334.222541 
L 625.291722 334.155353 
Q 625.291722 333.856916 625.163597 333.627228 
Q 625.037035 333.39754 624.807347 333.274103 
Q 624.579222 333.149103 624.280785 333.149103 
Q 623.982347 333.149103 623.75266 333.274103 
Q 623.524535 333.39754 623.39641 333.627228 
Q 623.269847 333.856916 623.269847 334.160041 
L 623.269847 334.233478 
Q 623.269847 334.539728 623.39641 334.777228 
Q 623.524535 335.014728 623.75266 335.144416 
Q 623.982347 335.27254 624.280785 335.27254 
z
" style="fill: #ffffff"/>
   </g>
   <g id="text_2">
    <path d="M 376.89698 411.474628 
L 377.74698 411.474628 
L 380.364168 418.574628 
L 379.289167 418.574628 
L 377.32198 412.846503 
L 375.354792 418.574628 
L 374.279792 418.574628 
L 376.89698 411.474628 
z
M 375.486042 416.069941 
L 379.22198 416.069941 
L 379.22198 417.016816 
L 375.486042 417.016816 
L 375.486042 416.069941 
z
M 383.005964 418.574628 
L 382.009089 418.574628 
L 382.009089 412.559003 
L 380.998152 413.179316 
L 380.998152 412.148066 
L 382.009089 411.474628 
L 383.005964 411.474628 
L 383.005964 418.574628 
z
M 386.696785 418.648066 
Q 386.053035 418.648066 385.563972 418.404315 
Q 385.076472 418.159003 384.809285 417.712128 
Q 384.54366 417.265253 384.54366 416.674628 
L 384.54366 416.557441 
Q 384.54366 416.026191 384.809285 415.557441 
Q 385.076472 415.088691 385.520222 414.849628 
Q 385.14366 414.643378 384.917097 414.255878 
Q 384.690535 413.866816 384.690535 413.437128 
L 384.690535 413.266816 
Q 384.690535 412.710566 384.938972 412.288691 
Q 385.18741 411.865253 385.642097 411.634003 
Q 386.096785 411.401191 386.696785 411.401191 
Q 387.296785 411.401191 387.751472 411.634003 
Q 388.20616 411.865253 388.454597 412.288691 
Q 388.703035 412.710566 388.703035 413.266816 
L 388.703035 413.437128 
Q 388.703035 413.877753 388.471785 414.26369 
Q 388.240535 414.648066 387.859285 414.849628 
Q 388.307722 415.093378 388.578035 415.560565 
Q 388.84991 416.026191 388.84991 416.557441 
L 388.84991 416.674628 
Q 388.84991 417.265253 388.584285 417.712128 
Q 388.31866 418.159003 387.829597 418.404315 
Q 387.342097 418.648066 386.696785 418.648066 
z
M 386.696785 417.690253 
Q 387.04366 417.690253 387.30616 417.554316 
Q 387.570222 417.416816 387.713972 417.171503 
Q 387.859285 416.924628 387.859285 416.601191 
L 387.859285 416.534003 
Q 387.859285 416.205878 387.713972 415.960566 
Q 387.570222 415.713691 387.30616 415.577753 
Q 387.04366 415.440253 386.696785 415.440253 
Q 386.34991 415.440253 386.085847 415.577753 
Q 385.823347 415.713691 385.678035 415.962128 
Q 385.534285 416.210566 385.534285 416.538691 
L 385.534285 416.612128 
Q 385.534285 416.934003 385.678035 417.177753 
Q 385.823347 417.421503 386.085847 417.555878 
Q 386.34991 417.690253 386.696785 417.690253 
z
M 386.696785 414.48244 
Q 386.995222 414.48244 387.223347 414.354316 
Q 387.453035 414.224628 387.579597 413.985566 
Q 387.707722 413.744941 387.707722 413.432441 
L 387.707722 413.365253 
Q 387.707722 413.066816 387.579597 412.837128 
Q 387.453035 412.60744 387.223347 412.484003 
Q 386.995222 412.359003 386.696785 412.359003 
Q 386.398347 412.359003 386.16866 412.484003 
Q 385.940535 412.60744 385.81241 412.837128 
Q 385.685847 413.066816 385.685847 413.369941 
L 385.685847 413.443378 
Q 385.685847 413.749628 385.81241 413.987128 
Q 385.940535 414.224628 386.16866 414.354316 
Q 386.398347 414.48244 386.696785 414.48244 
z
" style="fill: #ffffff; stroke: #000000"/>
    <path d="M 376.89698 411.474628 
L 377.74698 411.474628 
L 380.364168 418.574628 
L 379.289167 418.574628 
L 377.32198 412.846503 
L 375.354792 418.574628 
L 374.279792 418.574628 
L 376.89698 411.474628 
z
M 375.486042 416.069941 
L 379.22198 416.069941 
L 379.22198 417.016816 
L 375.486042 417.016816 
L 375.486042 416.069941 
z
M 383.005964 418.574628 
L 382.009089 418.574628 
L 382.009089 412.559003 
L 380.998152 413.179316 
L 380.998152 412.148066 
L 382.009089 411.474628 
L 383.005964 411.474628 
L 383.005964 418.574628 
z
M 386.696785 418.648066 
Q 386.053035 418.648066 385.563972 418.404315 
Q 385.076472 418.159003 384.809285 417.712128 
Q 384.54366 417.265253 384.54366 416.674628 
L 384.54366 416.557441 
Q 384.54366 416.026191 384.809285 415.557441 
Q 385.076472 415.088691 385.520222 414.849628 
Q 385.14366 414.643378 384.917097 414.255878 
Q 384.690535 413.866816 384.690535 413.437128 
L 384.690535 413.266816 
Q 384.690535 412.710566 384.938972 412.288691 
Q 385.18741 411.865253 385.642097 411.634003 
Q 386.096785 411.401191 386.696785 411.401191 
Q 387.296785 411.401191 387.751472 411.634003 
Q 388.20616 411.865253 388.454597 412.288691 
Q 388.703035 412.710566 388.703035 413.266816 
L 388.703035 413.437128 
Q 388.703035 413.877753 388.471785 414.26369 
Q 388.240535 414.648066 387.859285 414.849628 
Q 388.307722 415.093378 388.578035 415.560565 
Q 388.84991 416.026191 388.84991 416.557441 
L 388.84991 416.674628 
Q 388.84991 417.265253 388.584285 417.712128 
Q 388.31866 418.159003 387.829597 418.404315 
Q 387.342097 418.648066 386.696785 418.648066 
z
M 386.696785 417.690253 
Q 387.04366 417.690253 387.30616 417.554316 
Q 387.570222 417.416816 387.713972 417.171503 
Q 387.859285 416.924628 387.859285 416.601191 
L 387.859285 416.534003 
Q 387.859285 416.205878 387.713972 415.960566 
Q 387.570222 415.713691 387.30616 415.577753 
Q 387.04366 415.440253 386.696785 415.440253 
Q 386.34991 415.440253 386.085847 415.577753 
Q 385.823347 415.713691 385.678035 415.962128 
Q 385.534285 416.210566 385.534285 416.538691 
L 385.534285 416.612128 
Q 385.534285 416.934003 385.678035 417.177753 
Q 385.823347 417.421503 386.085847 417.555878 
Q 386.34991 417.690253 386.696785 417.690253 
z
M 386.696785 414.48244 
Q 386.995222 414.48244 387.223347 414.354316 
Q 387.453035 414.224628 387.579597 413.985566 
Q 387.707722 413.744941 387.707722 413.432441 
L 387.707722 413.365253 
Q 387.707722 413.066816 387.579597 412.837128 
Q 387.453035 412.60744 387.223347 412.484003 
Q 386.995222 412.359003 386.696785 412.359003 
Q 386.398347 412.359003 386.16866 412.484003 
Q 385.940535 412.60744 385.81241 412.837128 
Q 385.685847 413.066816 385.685847 413.369941 
L 385.685847 413.443378 
Q 385.685847 413.749628 385.81241 413.987128 
Q 385.940535 414.224628 386.16866 414.354316 
Q 386.398347 414.48244 386.696785 414.48244 
z
" style="fill: #ffffff"/>
   </g>
   <g id="text_3">
    <path d="M 292.08098 450.767728 
L 292.93098 450.767728 
L 295.548167 457.867728 
L 294.473167 457.867728 
L 292.50598 452.139603 
L 290.538792 457.867728 
L 289.463792 457.867728 
L 292.08098 450.767728 
z
M 290.670042 455.363041 
L 294.40598 455.363041 
L 294.40598 456.309915 
L 290.670042 456.309915 
L 290.670042 455.363041 
z
M 298.189964 457.867728 
L 297.193089 457.867728 
L 297.193089 451.852103 
L 296.182152 452.472416 
L 296.182152 451.441166 
L 297.193089 450.767728 
L 298.189964 450.767728 
L 298.189964 457.867728 
z
M 301.880785 457.941166 
Q 301.237035 457.941166 300.747972 457.697415 
Q 300.260472 457.452103 299.993285 457.005228 
Q 299.72766 456.558353 299.72766 455.967728 
L 299.72766 455.850541 
Q 299.72766 455.319291 299.993285 454.850541 
Q 300.260472 454.381791 300.704222 454.142728 
Q 300.32766 453.936478 300.101097 453.548978 
Q 299.874535 453.159916 299.874535 452.730228 
L 299.874535 452.559915 
Q 299.874535 452.003666 300.122972 451.581791 
Q 300.37141 451.158353 300.826097 450.927103 
Q 301.280785 450.694291 301.880785 450.694291 
Q 302.480785 450.694291 302.935472 450.927103 
Q 303.39016 451.158353 303.638597 451.581791 
Q 303.887035 452.003666 303.887035 452.559915 
L 303.887035 452.730228 
Q 303.887035 453.170853 303.655785 453.55679 
Q 303.424535 453.941166 303.043285 454.142728 
Q 303.491722 454.386478 303.762035 454.853665 
Q 304.03391 455.319291 304.03391 455.850541 
L 304.03391 455.967728 
Q 304.03391 456.558353 303.768285 457.005228 
Q 303.50266 457.452103 303.013597 457.697415 
Q 302.526097 457.941166 301.880785 457.941166 
z
M 301.880785 456.983353 
Q 302.22766 456.983353 302.49016 456.847416 
Q 302.754222 456.709916 302.897972 456.464603 
Q 303.043285 456.217728 303.043285 455.894291 
L 303.043285 455.827103 
Q 303.043285 455.498978 302.897972 455.253666 
Q 302.754222 455.006791 302.49016 454.870853 
Q 302.22766 454.733353 301.880785 454.733353 
Q 301.53391 454.733353 301.269847 454.870853 
Q 301.007347 455.006791 300.862035 455.255228 
Q 300.718285 455.503666 300.718285 455.831791 
L 300.718285 455.905228 
Q 300.718285 456.227103 300.862035 456.470853 
Q 301.007347 456.714603 301.269847 456.848978 
Q 301.53391 456.983353 301.880785 456.983353 
z
M 301.880785 453.77554 
Q 302.179222 453.77554 302.407347 453.647416 
Q 302.637035 453.517728 302.763597 453.278665 
Q 302.891722 453.038041 302.891722 452.725541 
L 302.891722 452.658353 
Q 302.891722 452.359915 302.763597 452.130228 
Q 302.637035 451.90054 302.407347 451.777103 
Q 302.179222 451.652103 301.880785 451.652103 
Q 301.582347 451.652103 301.35266 451.777103 
Q 301.124535 451.90054 300.99641 452.130228 
Q 300.869847 452.359915 300.869847 452.663041 
L 300.869847 452.736478 
Q 300.869847 453.042728 300.99641 453.280228 
Q 301.124535 453.517728 301.35266 453.647416 
Q 301.582347 453.77554 301.880785 453.77554 
z
" style="fill: #ffffff; stroke: #000000"/>
    <path d="M 292.08098 450.767728 
L 292.93098 450.767728 
L 295.548167 457.867728 
L 294.473167 457.867728 
L 292.50598 452.139603 
L 290.538792 457.867728 
L 289.463792 457.867728 
L 292.08098 450.767728 
z
M 290.670042 455.363041 
L 294.40598 455.363041 
L 294.40598 456.309915 
L 290.670042 456.309915 
L 290.670042 455.363041 
z
M 298.189964 457.867728 
L 297.193089 457.867728 
L 297.193089 451.852103 
L 296.182152 452.472416 
L 296.182152 451.441166 
L 297.193089 450.767728 
L 298.189964 450.767728 
L 298.189964 457.867728 
z
M 301.880785 457.941166 
Q 301.237035 457.941166 300.747972 457.697415 
Q 300.260472 457.452103 299.993285 457.005228 
Q 299.72766 456.558353 299.72766 455.967728 
L 299.72766 455.850541 
Q 299.72766 455.319291 299.993285 454.850541 
Q 300.260472 454.381791 300.704222 454.142728 
Q 300.32766 453.936478 300.101097 453.548978 
Q 299.874535 453.159916 299.874535 452.730228 
L 299.874535 452.559915 
Q 299.874535 452.003666 300.122972 451.581791 
Q 300.37141 451.158353 300.826097 450.927103 
Q 301.280785 450.694291 301.880785 450.694291 
Q 302.480785 450.694291 302.935472 450.927103 
Q 303.39016 451.158353 303.638597 451.581791 
Q 303.887035 452.003666 303.887035 452.559915 
L 303.887035 452.730228 
Q 303.887035 453.170853 303.655785 453.55679 
Q 303.424535 453.941166 303.043285 454.142728 
Q 303.491722 454.386478 303.762035 454.853665 
Q 304.03391 455.319291 304.03391 455.850541 
L 304.03391 455.967728 
Q 304.03391 456.558353 303.768285 457.005228 
Q 303.50266 457.452103 303.013597 457.697415 
Q 302.526097 457.941166 301.880785 457.941166 
z
M 301.880785 456.983353 
Q 302.22766 456.983353 302.49016 456.847416 
Q 302.754222 456.709916 302.897972 456.464603 
Q 303.043285 456.217728 303.043285 455.894291 
L 303.043285 455.827103 
Q 303.043285 455.498978 302.897972 455.253666 
Q 302.754222 455.006791 302.49016 454.870853 
Q 302.22766 454.733353 301.880785 454.733353 
Q 301.53391 454.733353 301.269847 454.870853 
Q 301.007347 455.006791 300.862035 455.255228 
Q 300.718285 455.503666 300.718285 455.831791 
L 300.718285 455.905228 
Q 300.718285 456.227103 300.862035 456.470853 
Q 301.007347 456.714603 301.269847 456.848978 
Q 301.53391 456.983353 301.880785 456.983353 
z
M 301.880785 453.77554 
Q 302.179222 453.77554 302.407347 453.647416 
Q 302.637035 453.517728 302.763597 453.278665 
Q 302.891722 453.038041 302.891722 452.725541 
L 302.891722 452.658353 
Q 302.891722 452.359915 302.763597 452.130228 
Q 302.637035 451.90054 302.407347 451.777103 
Q 302.179222 451.652103 301.880785 451.652103 
Q 301.582347 451.652103 301.35266 451.777103 
Q 301.124535 451.90054 300.99641 452.130228 
Q 300.869847 452.359915 300.869847 452.663041 
L 300.869847 452.736478 
Q 300.869847 453.042728 300.99641 453.280228 
Q 301.124535 453.517728 301.35266 453.647416 
Q 301.582347 453.77554 301.880785 453.77554 
z
" style="fill: #ffffff"/>
   </g>
  </g>
 </g>
 <defs>
  <clipPath id="p5765388dd2">
   <rect x="144" y="77.76" width="892.8" height="498.96"/>
  </clipPath>
 </defs>
</svg>
