<?xml version="1.0" encoding="utf-8" standalone="no"?>
<!DOCTYPE svg PUBLIC "-//W3C//DTD SVG 1.1//EN"
  "http://www.w3.org/Graphics/SVG/1.1/DTD/svg11.dtd">
<svg xmlns:xlink="http://www.w3.org/1999/xlink" width="1152pt" height="648pt" viewBox="0 0 1152 648" xmlns="http://www.w3.org/2000/svg" version="1.1">
 <metadata>
  <rdf:RDF xmlns:dc="http://purl.org/dc/elements/1.1/" xmlns:cc="http://creativecommons.org/ns#" xmlns:rdf="http://www.w3.org/1999/02/22-rdf-syntax-ns#">
   <cc:Work>
    <dc:type rdf:resource="http://purl.org/dc/dcmitype/StillImage"/>
    <dc:date>2025-09-19T13:51:42.313025</dc:date>
    <dc:format>image/svg+xml</dc:format>
    <dc:creator>
     <cc:Agent>
      <dc:title>Matplotlib v3.10.3, https://matplotlib.org/</dc:title>
     </cc:Agent>
    </dc:creator>
   </cc:Work>
  </rdf:RDF>
 </metadata>
 <defs>
  <style type="text/css">*{stroke-linejoin: round; stroke-linecap: butt}</style>
 </defs>
 <g id="figure_1">
  <g id="patch_1">
   <path d="M 0 648 
L 1152 648 
L 1152 0 
L 0 0 
L 0 648 
z
" style="fill: none"/>
  </g>
  <g id="axes_1">
   <g id="line2d_1">
    <path d="M 199.056 547.61837 
L 200.017939 547.004951 
L 200.979879 546.393269 
L 201.941818 545.78338 
L 202.903758 545.175333 
L 203.865697 544.569181 
L 204.827636 543.964976 
L 205.789576 543.362767 
L 206.751515 542.762603 
L 207.713455 542.164534 
L 208.675394 541.568608 
L 209.637333 540.974872 
L 210.599273 540.383372 
L 211.561212 539.794154 
L 212.523152 539.207263 
L 213.485091 538.622743 
L 214.44703 538.040637 
L 215.40897 537.460988 
L 216.370909 536.883837 
L 217.332848 536.309226 
L 218.294788 535.737193 
L 219.256727 535.167778 
L 220.218667 534.601019 
L 221.180606 534.036954 
L 222.142545 533.475618 
L 223.104485 532.917047 
L 224.066424 532.361276 
L 225.028364 531.808338 
L 225.990303 531.258267 
L 226.952242 530.711093 
L 227.914182 530.166849 
L 228.876121 529.625563 
L 229.838061 529.087266 
L 230.8 528.551986 
L 231.761939 528.019749 
L 232.723879 527.490582 
L 233.685818 526.964512 
L 234.647758 526.441561 
L 235.609697 525.921755 
L 236.571636 525.405116 
L 237.533576 524.891665 
L 238.495515 524.381424 
L 239.457455 523.874413 
L 240.419394 523.370651 
L 241.381333 522.870157 
L 242.343273 522.372947 
L 243.305212 521.879039 
L 244.267152 521.388448 
L 245.229091 520.901189 
L 246.19103 520.417276 
L 247.15297 519.936722 
L 248.114909 519.45954 
L 249.076848 518.98574 
L 250.038788 518.515334 
L 251.000727 518.048331 
L 251.962667 517.584741 
L 252.924606 517.124571 
L 253.886545 516.667829 
L 254.848485 516.214521 
L 255.810424 515.764654 
L 256.772364 515.318232 
L 257.734303 514.875259 
L 258.696242 514.43574 
L 259.658182 513.999678 
L 260.620121 513.567073 
L 261.582061 513.137928 
L 262.544 512.712244 
L 263.505939 512.29002 
L 264.467879 511.871255 
L 265.429818 511.455949 
L 266.391758 511.044099 
L 267.353697 510.635703 
L 268.315636 510.230758 
L 269.277576 509.829259 
L 270.239515 509.431202 
L 271.201455 509.036581 
L 272.163394 508.645392 
L 273.125333 508.257628 
L 274.087273 507.873282 
L 275.049212 507.492347 
L 276.011152 507.114814 
L 276.973091 506.740675 
L 277.93503 506.369922 
L 278.89697 506.002545 
L 279.858909 505.638533 
L 280.820848 505.277877 
L 281.782788 504.920566 
L 282.744727 504.566587 
L 283.706667 504.21593 
L 284.668606 503.868581 
L 285.630545 503.52453 
L 286.592485 503.183761 
L 287.554424 502.846262 
L 288.516364 502.512019 
L 289.478303 502.181018 
L 290.440242 501.853244 
L 291.402182 501.528682 
L 292.364121 501.207317 
L 293.326061 500.889133 
L 294.288 500.574115 
" clip-path="url(#p6065d9d28b)" style="fill: none; stroke: #798df2; stroke-width: 3; stroke-linecap: round"/>
   </g>
   <g id="text_1">
    <path d="M 303.19298 502.29412 
Q 302.68048 502.29412 302.221105 502.197245 
Q 301.763292 502.098808 301.364855 501.903495 
Q 300.966417 501.708183 300.619542 501.414433 
L 300.619542 501.414433 
L 301.239855 500.653495 
L 301.239855 500.653495 
Q 301.646105 501.005058 302.133605 501.18162 
Q 302.622667 501.35662 303.19298 501.35662 
Q 303.964855 501.35662 304.389855 501.070683 
Q 304.814855 500.784745 304.814855 500.26287 
L 304.814855 500.258183 
Q 304.814855 499.886308 304.621105 499.66912 
Q 304.428918 499.451933 304.122667 499.347245 
Q 303.81798 499.242558 303.335168 499.153495 
Q 303.319543 499.148808 303.302355 499.148808 
Q 303.28673 499.148808 303.271105 499.14412 
L 303.197667 499.130058 
Q 302.485167 499.008183 302.038293 498.855058 
Q 301.591417 498.70037 301.27423 498.292558 
Q 300.957043 497.884745 300.957043 497.133183 
L 300.957043 497.128495 
Q 300.957043 496.46912 301.252355 496.003495 
Q 301.547667 495.536308 302.113293 495.292558 
Q 302.68048 495.047245 303.475793 495.047245 
Q 303.857042 495.047245 304.225793 495.13162 
Q 304.594542 495.214433 304.952355 495.378495 
Q 305.31173 495.540995 305.658605 495.789433 
L 305.658605 495.789433 
L 305.09298 496.58162 
L 305.09298 496.58162 
Q 304.68673 496.283183 304.283605 496.134745 
Q 303.882043 495.984745 303.475793 495.984745 
Q 302.74923 495.984745 302.346105 496.27537 
Q 301.94298 496.565995 301.94298 497.098808 
L 301.94298 497.103495 
Q 301.94298 497.46912 302.150792 497.680058 
Q 302.358605 497.889433 302.66798 497.989433 
Q 302.978917 498.089433 303.53048 498.197245 
Q 303.54923 498.201933 303.566418 498.205058 
Q 303.583605 498.20662 303.603917 498.211308 
Q 303.627355 498.215995 303.657042 498.222245 
Q 303.68673 498.226933 303.710168 498.23162 
Q 304.35548 498.36287 304.78673 498.54412 
Q 305.219542 498.723808 305.510167 499.126933 
Q 305.800793 499.530058 305.800793 500.228495 
L 305.800793 500.23787 
Q 305.800793 500.88787 305.49298 501.348808 
Q 305.185167 501.809745 304.600793 502.051933 
Q 304.01798 502.29412 303.19298 502.29412 
z
M 307.890832 501.273808 
L 309.497082 501.273808 
Q 310.283019 501.273808 310.714269 500.865995 
Q 311.147082 500.458183 311.147082 499.715995 
L 311.147082 497.62537 
Q 311.147082 496.883183 310.714269 496.47537 
Q 310.283019 496.067558 309.497082 496.067558 
L 307.890832 496.067558 
L 307.890832 495.120683 
L 309.467394 495.120683 
Q 310.322082 495.120683 310.926769 495.41912 
Q 311.533019 495.715995 311.850207 496.28787 
Q 312.167394 496.859745 312.167394 497.664433 
L 312.167394 499.676933 
Q 312.167394 500.48162 311.850207 501.053495 
Q 311.533019 501.62537 310.925207 501.923808 
Q 310.317394 502.220683 309.462707 502.220683 
L 307.890832 502.220683 
L 307.890832 501.273808 
z
M 307.217394 495.120683 
L 308.212707 495.120683 
L 308.212707 502.220683 
L 307.217394 502.220683 
L 307.217394 495.120683 
z
M 317.300207 496.009745 
L 315.464269 502.220683 
L 314.404894 502.220683 
L 316.240832 496.067558 
L 314.433019 496.067558 
L 314.433019 497.089433 
L 313.437707 497.089433 
L 313.437707 495.120683 
L 317.300207 495.120683 
L 317.300207 496.009745 
z
M 322.582824 498.47537 
L 322.582824 499.422245 
L 318.618761 499.422245 
L 318.618761 498.47537 
L 322.582824 498.47537 
z
M 321.098449 500.93162 
L 320.103136 500.93162 
L 320.103136 496.965995 
L 321.098449 496.965995 
L 321.098449 500.93162 
z
M 330.659386 498.397245 
L 330.659386 499.63787 
Q 330.659386 500.428495 330.351574 501.03162 
Q 330.043761 501.634745 329.479699 501.964433 
Q 328.915636 502.29412 328.173449 502.29412 
Q 327.421886 502.29412 326.853136 501.984745 
Q 326.284386 501.673808 325.971886 501.108183 
Q 325.659386 500.540995 325.659386 499.79412 
L 325.659386 497.698808 
Q 325.659386 496.908183 325.967199 496.308183 
Q 326.275011 495.70662 326.837511 495.376933 
Q 327.401574 495.047245 328.143761 495.047245 
Q 328.754699 495.047245 329.268761 495.309745 
Q 329.784386 495.570683 330.131261 496.048808 
Q 330.478136 496.526933 330.600011 497.15662 
L 330.600011 497.15662 
L 329.521886 497.15662 
L 329.521886 497.15662 
Q 329.432824 496.80037 329.223449 496.54412 
Q 329.014074 496.28787 328.729699 496.153495 
Q 328.446886 496.01912 328.143761 496.01912 
Q 327.704699 496.01912 327.371886 496.230058 
Q 327.040636 496.439433 326.859386 496.817558 
Q 326.679699 497.195683 326.679699 497.698808 
L 326.679699 499.79412 
Q 326.679699 500.253495 326.864074 500.597245 
Q 327.050011 500.940995 327.389074 501.13162 
Q 327.729699 501.322245 328.173449 501.322245 
Q 328.612511 501.322245 328.943761 501.12537 
Q 329.276574 500.926933 329.457824 500.551933 
Q 329.639074 500.17537 329.639074 499.65662 
L 329.639074 499.348808 
L 328.198449 499.348808 
L 328.198449 498.397245 
L 330.659386 498.397245 
z
M 334.247667 502.29412 
Q 333.544542 502.29412 333.046105 502.030058 
Q 332.54923 501.765995 332.28673 501.25662 
Q 332.025792 500.745683 332.025792 500.023808 
L 332.025792 499.451933 
Q 332.025792 498.70037 332.277355 498.16912 
Q 332.528917 497.636308 333.007043 497.358183 
Q 333.48673 497.078495 334.160168 497.078495 
Q 334.794542 497.078495 335.24298 497.397245 
Q 335.69298 497.714433 335.928918 498.314433 
Q 336.166417 498.914433 336.166417 499.755058 
L 336.166417 500.086308 
L 332.74923 500.086308 
L 332.74923 499.286308 
L 335.219542 499.286308 
L 335.219542 499.286308 
Q 335.175793 498.665995 334.89923 498.322245 
Q 334.62423 497.976933 334.160168 497.976933 
Q 333.59298 497.976933 333.283605 498.348808 
Q 332.97423 498.71912 332.97423 499.398808 
L 332.97423 500.042558 
Q 332.97423 500.672245 333.30548 501.009745 
Q 333.638292 501.347245 334.247667 501.347245 
Q 334.550793 501.347245 334.847668 501.22537 
Q 335.146105 501.101933 335.38048 500.883183 
L 335.38048 500.883183 
L 336.035168 501.536308 
L 336.035168 501.536308 
Q 335.658605 501.898808 335.189855 502.097245 
Q 334.721105 502.29412 334.247667 502.29412 
z
M 337.533996 497.151933 
L 338.530871 497.151933 
L 338.530871 502.220683 
L 337.533996 502.220683 
L 337.533996 497.151933 
z
M 340.610558 499.148808 
Q 340.610558 498.61287 340.332433 498.320683 
Q 340.054308 498.026933 339.551183 498.026933 
Q 339.062121 498.026933 338.796496 498.286308 
Q 338.530871 498.54412 338.530871 499.01287 
L 338.427746 498.036308 
Q 338.662121 497.576933 339.040246 497.328495 
Q 339.418371 497.078495 339.877746 497.078495 
Q 340.702746 497.078495 341.154308 497.61912 
Q 341.605871 498.158183 341.605871 499.14412 
L 341.605871 502.220683 
L 340.610558 502.220683 
L 340.610558 499.148808 
z
M 342.963683 501.35662 
L 345.438683 498.055058 
Q 345.654308 497.772245 345.773058 497.467558 
Q 345.893371 497.161308 345.893371 496.898808 
L 345.893371 496.88787 
Q 345.893371 496.464433 345.643371 496.230058 
Q 345.394933 495.995683 344.937121 495.995683 
Q 344.501183 495.995683 344.232433 496.251933 
Q 343.965246 496.508183 343.905871 496.976933 
L 343.905871 496.98162 
L 342.876183 496.98162 
L 342.876183 496.976933 
Q 342.963683 496.365995 343.233996 495.934745 
Q 343.505871 495.501933 343.935558 495.27537 
Q 344.365246 495.047245 344.926183 495.047245 
Q 345.562121 495.047245 346.010558 495.264433 
Q 346.460558 495.48162 346.694933 495.897245 
Q 346.929308 496.31287 346.929308 496.898808 
L 346.929308 496.903495 
Q 346.929308 497.278495 346.773058 497.689433 
Q 346.616808 498.098808 346.337121 498.480058 
L 344.282433 501.273808 
L 346.968371 501.273808 
L 346.968371 502.220683 
L 342.963683 502.220683 
L 342.963683 501.35662 
z
" style="fill: #ffffff; stroke: #000000"/>
    <path d="M 303.19298 502.29412 
Q 302.68048 502.29412 302.221105 502.197245 
Q 301.763292 502.098808 301.364855 501.903495 
Q 300.966417 501.708183 300.619542 501.414433 
L 300.619542 501.414433 
L 301.239855 500.653495 
L 301.239855 500.653495 
Q 301.646105 501.005058 302.133605 501.18162 
Q 302.622667 501.35662 303.19298 501.35662 
Q 303.964855 501.35662 304.389855 501.070683 
Q 304.814855 500.784745 304.814855 500.26287 
L 304.814855 500.258183 
Q 304.814855 499.886308 304.621105 499.66912 
Q 304.428918 499.451933 304.122667 499.347245 
Q 303.81798 499.242558 303.335168 499.153495 
Q 303.319543 499.148808 303.302355 499.148808 
Q 303.28673 499.148808 303.271105 499.14412 
L 303.197667 499.130058 
Q 302.485167 499.008183 302.038293 498.855058 
Q 301.591417 498.70037 301.27423 498.292558 
Q 300.957043 497.884745 300.957043 497.133183 
L 300.957043 497.128495 
Q 300.957043 496.46912 301.252355 496.003495 
Q 301.547667 495.536308 302.113293 495.292558 
Q 302.68048 495.047245 303.475793 495.047245 
Q 303.857042 495.047245 304.225793 495.13162 
Q 304.594542 495.214433 304.952355 495.378495 
Q 305.31173 495.540995 305.658605 495.789433 
L 305.658605 495.789433 
L 305.09298 496.58162 
L 305.09298 496.58162 
Q 304.68673 496.283183 304.283605 496.134745 
Q 303.882043 495.984745 303.475793 495.984745 
Q 302.74923 495.984745 302.346105 496.27537 
Q 301.94298 496.565995 301.94298 497.098808 
L 301.94298 497.103495 
Q 301.94298 497.46912 302.150792 497.680058 
Q 302.358605 497.889433 302.66798 497.989433 
Q 302.978917 498.089433 303.53048 498.197245 
Q 303.54923 498.201933 303.566418 498.205058 
Q 303.583605 498.20662 303.603917 498.211308 
Q 303.627355 498.215995 303.657042 498.222245 
Q 303.68673 498.226933 303.710168 498.23162 
Q 304.35548 498.36287 304.78673 498.54412 
Q 305.219542 498.723808 305.510167 499.126933 
Q 305.800793 499.530058 305.800793 500.228495 
L 305.800793 500.23787 
Q 305.800793 500.88787 305.49298 501.348808 
Q 305.185167 501.809745 304.600793 502.051933 
Q 304.01798 502.29412 303.19298 502.29412 
z
M 307.890832 501.273808 
L 309.497082 501.273808 
Q 310.283019 501.273808 310.714269 500.865995 
Q 311.147082 500.458183 311.147082 499.715995 
L 311.147082 497.62537 
Q 311.147082 496.883183 310.714269 496.47537 
Q 310.283019 496.067558 309.497082 496.067558 
L 307.890832 496.067558 
L 307.890832 495.120683 
L 309.467394 495.120683 
Q 310.322082 495.120683 310.926769 495.41912 
Q 311.533019 495.715995 311.850207 496.28787 
Q 312.167394 496.859745 312.167394 497.664433 
L 312.167394 499.676933 
Q 312.167394 500.48162 311.850207 501.053495 
Q 311.533019 501.62537 310.925207 501.923808 
Q 310.317394 502.220683 309.462707 502.220683 
L 307.890832 502.220683 
L 307.890832 501.273808 
z
M 307.217394 495.120683 
L 308.212707 495.120683 
L 308.212707 502.220683 
L 307.217394 502.220683 
L 307.217394 495.120683 
z
M 317.300207 496.009745 
L 315.464269 502.220683 
L 314.404894 502.220683 
L 316.240832 496.067558 
L 314.433019 496.067558 
L 314.433019 497.089433 
L 313.437707 497.089433 
L 313.437707 495.120683 
L 317.300207 495.120683 
L 317.300207 496.009745 
z
M 322.582824 498.47537 
L 322.582824 499.422245 
L 318.618761 499.422245 
L 318.618761 498.47537 
L 322.582824 498.47537 
z
M 321.098449 500.93162 
L 320.103136 500.93162 
L 320.103136 496.965995 
L 321.098449 496.965995 
L 321.098449 500.93162 
z
M 330.659386 498.397245 
L 330.659386 499.63787 
Q 330.659386 500.428495 330.351574 501.03162 
Q 330.043761 501.634745 329.479699 501.964433 
Q 328.915636 502.29412 328.173449 502.29412 
Q 327.421886 502.29412 326.853136 501.984745 
Q 326.284386 501.673808 325.971886 501.108183 
Q 325.659386 500.540995 325.659386 499.79412 
L 325.659386 497.698808 
Q 325.659386 496.908183 325.967199 496.308183 
Q 326.275011 495.70662 326.837511 495.376933 
Q 327.401574 495.047245 328.143761 495.047245 
Q 328.754699 495.047245 329.268761 495.309745 
Q 329.784386 495.570683 330.131261 496.048808 
Q 330.478136 496.526933 330.600011 497.15662 
L 330.600011 497.15662 
L 329.521886 497.15662 
L 329.521886 497.15662 
Q 329.432824 496.80037 329.223449 496.54412 
Q 329.014074 496.28787 328.729699 496.153495 
Q 328.446886 496.01912 328.143761 496.01912 
Q 327.704699 496.01912 327.371886 496.230058 
Q 327.040636 496.439433 326.859386 496.817558 
Q 326.679699 497.195683 326.679699 497.698808 
L 326.679699 499.79412 
Q 326.679699 500.253495 326.864074 500.597245 
Q 327.050011 500.940995 327.389074 501.13162 
Q 327.729699 501.322245 328.173449 501.322245 
Q 328.612511 501.322245 328.943761 501.12537 
Q 329.276574 500.926933 329.457824 500.551933 
Q 329.639074 500.17537 329.639074 499.65662 
L 329.639074 499.348808 
L 328.198449 499.348808 
L 328.198449 498.397245 
L 330.659386 498.397245 
z
M 334.247667 502.29412 
Q 333.544542 502.29412 333.046105 502.030058 
Q 332.54923 501.765995 332.28673 501.25662 
Q 332.025792 500.745683 332.025792 500.023808 
L 332.025792 499.451933 
Q 332.025792 498.70037 332.277355 498.16912 
Q 332.528917 497.636308 333.007043 497.358183 
Q 333.48673 497.078495 334.160168 497.078495 
Q 334.794542 497.078495 335.24298 497.397245 
Q 335.69298 497.714433 335.928918 498.314433 
Q 336.166417 498.914433 336.166417 499.755058 
L 336.166417 500.086308 
L 332.74923 500.086308 
L 332.74923 499.286308 
L 335.219542 499.286308 
L 335.219542 499.286308 
Q 335.175793 498.665995 334.89923 498.322245 
Q 334.62423 497.976933 334.160168 497.976933 
Q 333.59298 497.976933 333.283605 498.348808 
Q 332.97423 498.71912 332.97423 499.398808 
L 332.97423 500.042558 
Q 332.97423 500.672245 333.30548 501.009745 
Q 333.638292 501.347245 334.247667 501.347245 
Q 334.550793 501.347245 334.847668 501.22537 
Q 335.146105 501.101933 335.38048 500.883183 
L 335.38048 500.883183 
L 336.035168 501.536308 
L 336.035168 501.536308 
Q 335.658605 501.898808 335.189855 502.097245 
Q 334.721105 502.29412 334.247667 502.29412 
z
M 337.533996 497.151933 
L 338.530871 497.151933 
L 338.530871 502.220683 
L 337.533996 502.220683 
L 337.533996 497.151933 
z
M 340.610558 499.148808 
Q 340.610558 498.61287 340.332433 498.320683 
Q 340.054308 498.026933 339.551183 498.026933 
Q 339.062121 498.026933 338.796496 498.286308 
Q 338.530871 498.54412 338.530871 499.01287 
L 338.427746 498.036308 
Q 338.662121 497.576933 339.040246 497.328495 
Q 339.418371 497.078495 339.877746 497.078495 
Q 340.702746 497.078495 341.154308 497.61912 
Q 341.605871 498.158183 341.605871 499.14412 
L 341.605871 502.220683 
L 340.610558 502.220683 
L 340.610558 499.148808 
z
M 342.963683 501.35662 
L 345.438683 498.055058 
Q 345.654308 497.772245 345.773058 497.467558 
Q 345.893371 497.161308 345.893371 496.898808 
L 345.893371 496.88787 
Q 345.893371 496.464433 345.643371 496.230058 
Q 345.394933 495.995683 344.937121 495.995683 
Q 344.501183 495.995683 344.232433 496.251933 
Q 343.965246 496.508183 343.905871 496.976933 
L 343.905871 496.98162 
L 342.876183 496.98162 
L 342.876183 496.976933 
Q 342.963683 496.365995 343.233996 495.934745 
Q 343.505871 495.501933 343.935558 495.27537 
Q 344.365246 495.047245 344.926183 495.047245 
Q 345.562121 495.047245 346.010558 495.264433 
Q 346.460558 495.48162 346.694933 495.897245 
Q 346.929308 496.31287 346.929308 496.898808 
L 346.929308 496.903495 
Q 346.929308 497.278495 346.773058 497.689433 
Q 346.616808 498.098808 346.337121 498.480058 
L 344.282433 501.273808 
L 346.968371 501.273808 
L 346.968371 502.220683 
L 342.963683 502.220683 
L 342.963683 501.35662 
z
" style="fill: #ffffff"/>
   </g>
  </g>
 </g>
 <defs>
  <clipPath id="p6065d9d28b">
   <rect x="144" y="77.76" width="892.8" height="498.96"/>
  </clipPath>
 </defs>
</svg>
