<?xml version="1.0" encoding="utf-8" standalone="no"?>
<!DOCTYPE svg PUBLIC "-//W3C//DTD SVG 1.1//EN"
  "http://www.w3.org/Graphics/SVG/1.1/DTD/svg11.dtd">
<svg xmlns:xlink="http://www.w3.org/1999/xlink" width="1152pt" height="648pt" viewBox="0 0 1152 648" xmlns="http://www.w3.org/2000/svg" version="1.1">
 <metadata>
  <rdf:RDF xmlns:dc="http://purl.org/dc/elements/1.1/" xmlns:cc="http://creativecommons.org/ns#" xmlns:rdf="http://www.w3.org/1999/02/22-rdf-syntax-ns#">
   <cc:Work>
    <dc:type rdf:resource="http://purl.org/dc/dcmitype/StillImage"/>
    <dc:date>2025-09-19T13:51:42.609856</dc:date>
    <dc:format>image/svg+xml</dc:format>
    <dc:creator>
     <cc:Agent>
      <dc:title>Matplotlib v3.10.3, https://matplotlib.org/</dc:title>
     </cc:Agent>
    </dc:creator>
   </cc:Work>
  </rdf:RDF>
 </metadata>
 <defs>
  <style type="text/css">*{stroke-linejoin: round; stroke-linecap: butt}</style>
 </defs>
 <g id="figure_1">
  <g id="patch_1">
   <path d="M 0 648 
L 1152 648 
L 1152 0 
L 0 0 
L 0 648 
z
" style="fill: none"/>
  </g>
  <g id="axes_1">
   <g id="line2d_1">
    <path d="M 191.12 559.672223 
L 192.963717 558.774913 
L 194.807434 557.8861 
L 196.651152 557.005704 
L 198.494869 556.133646 
L 200.338586 555.269848 
L 202.182303 554.414232 
L 204.02602 553.56672 
L 205.869737 552.727238 
L 207.713455 551.895708 
L 209.557172 551.072057 
L 211.400889 550.256209 
L 213.244606 549.448093 
L 215.088323 548.647634 
L 216.93204 547.854761 
L 218.775758 547.069402 
L 220.619475 546.291487 
L 222.463192 545.520945 
L 224.306909 544.757707 
L 226.150626 544.001704 
L 227.994343 543.252868 
L 229.838061 542.511131 
L 231.681778 541.776427 
L 233.525495 541.048689 
L 235.369212 540.327851 
L 237.212929 539.613849 
L 239.056646 538.906618 
L 240.900364 538.206094 
L 242.744081 537.512214 
L 244.587798 536.824914 
L 246.431515 536.144135 
L 248.275232 535.469812 
L 250.118949 534.801886 
L 251.962667 534.140297 
L 253.806384 533.484984 
L 255.650101 532.835889 
L 257.493818 532.192952 
L 259.337535 531.556115 
L 261.181253 530.925321 
L 263.02497 530.300513 
L 264.868687 529.681634 
L 266.712404 529.068629 
L 268.556121 528.461441 
L 270.399838 527.860016 
L 272.243556 527.2643 
L 274.087273 526.674238 
L 275.93099 526.089777 
L 277.774707 525.510864 
L 279.618424 524.937447 
L 281.462141 524.369474 
L 283.305859 523.806893 
L 285.149576 523.249653 
L 286.993293 522.697704 
L 288.83701 522.150996 
L 290.680727 521.609479 
L 292.524444 521.073105 
L 294.368162 520.541824 
L 296.211879 520.015588 
L 298.055596 519.49435 
L 299.899313 518.978063 
L 301.74303 518.466679 
L 303.586747 517.960152 
L 305.430465 517.458436 
L 307.274182 516.961487 
L 309.117899 516.469257 
L 310.961616 515.981704 
L 312.805333 515.498783 
L 314.649051 515.020449 
L 316.492768 514.54666 
L 318.336485 514.077372 
L 320.180202 513.612543 
L 322.023919 513.152131 
L 323.867636 512.696093 
L 325.711354 512.244389 
L 327.555071 511.796977 
L 329.398788 511.353817 
L 331.242505 510.914868 
L 333.086222 510.480091 
L 334.929939 510.049446 
L 336.773657 509.622893 
L 338.617374 509.200395 
L 340.461091 508.781913 
L 342.304808 508.367408 
L 344.148525 507.956843 
L 345.992242 507.550181 
L 347.83596 507.147385 
L 349.679677 506.748417 
L 351.523394 506.353243 
L 353.367111 505.961825 
L 355.210828 505.574129 
L 357.054545 505.190118 
L 358.898263 504.809758 
L 360.74198 504.433015 
L 362.585697 504.059854 
L 364.429414 503.690241 
L 366.273131 503.324142 
L 368.116848 502.961525 
L 369.960566 502.602356 
L 371.804283 502.246602 
L 373.648 501.894232 
" clip-path="url(#p561d5d835c)" style="fill: none; stroke: #f2f230; stroke-width: 3; stroke-linecap: round"/>
   </g>
   <g id="text_1">
    <path d="M 381.093605 502.593925 
L 382.699855 502.593925 
Q 383.485793 502.593925 383.917042 502.186112 
Q 384.349855 501.7783 384.349855 501.036112 
L 384.349855 498.945487 
Q 384.349855 498.2033 383.917042 497.795487 
Q 383.485793 497.387675 382.699855 497.387675 
L 381.093605 497.387675 
L 381.093605 496.4408 
L 382.670167 496.4408 
Q 383.524855 496.4408 384.129543 496.739237 
Q 384.735793 497.036112 385.05298 497.607987 
Q 385.370167 498.179862 385.370167 498.98455 
L 385.370167 500.99705 
Q 385.370167 501.801737 385.05298 502.373612 
Q 384.735793 502.945487 384.12798 503.243925 
Q 383.520168 503.5408 382.66548 503.5408 
L 381.093605 503.5408 
L 381.093605 502.593925 
z
M 380.420167 496.4408 
L 381.41548 496.4408 
L 381.41548 503.5408 
L 380.420167 503.5408 
L 380.420167 496.4408 
z
M 388.91548 503.614237 
Q 388.27173 503.614237 387.782668 503.370487 
Q 387.295167 503.125175 387.02798 502.6783 
Q 386.762355 502.231425 386.762355 501.6408 
L 386.762355 501.523612 
Q 386.762355 500.992362 387.02798 500.523612 
Q 387.295167 500.054862 387.738918 499.8158 
Q 387.362355 499.60955 387.135792 499.22205 
Q 386.90923 498.832987 386.90923 498.4033 
L 386.90923 498.232987 
Q 386.90923 497.676737 387.157668 497.254862 
Q 387.406105 496.831425 387.860793 496.600175 
Q 388.31548 496.367362 388.91548 496.367362 
Q 389.51548 496.367362 389.970168 496.600175 
Q 390.424855 496.831425 390.673293 497.254862 
Q 390.92173 497.676737 390.92173 498.232987 
L 390.92173 498.4033 
Q 390.92173 498.843925 390.69048 499.229862 
Q 390.45923 499.614237 390.07798 499.8158 
Q 390.526417 500.05955 390.79673 500.526737 
Q 391.068605 500.992362 391.068605 501.523612 
L 391.068605 501.6408 
Q 391.068605 502.231425 390.80298 502.6783 
Q 390.537355 503.125175 390.048293 503.370487 
Q 389.560792 503.614237 388.91548 503.614237 
z
M 388.91548 502.656425 
Q 389.262355 502.656425 389.524855 502.520487 
Q 389.788918 502.382987 389.932667 502.137675 
Q 390.07798 501.8908 390.07798 501.567362 
L 390.07798 501.500175 
Q 390.07798 501.17205 389.932667 500.926737 
Q 389.788918 500.679862 389.524855 500.543925 
Q 389.262355 500.406425 388.91548 500.406425 
Q 388.568605 500.406425 388.304543 500.543925 
Q 388.042042 500.679862 387.89673 500.9283 
Q 387.75298 501.176737 387.75298 501.504862 
L 387.75298 501.5783 
Q 387.75298 501.900175 387.89673 502.143925 
Q 388.042042 502.387675 388.304543 502.52205 
Q 388.568605 502.656425 388.91548 502.656425 
z
M 388.91548 499.448612 
Q 389.213917 499.448612 389.442043 499.320487 
Q 389.67173 499.1908 389.798293 498.951737 
Q 389.926418 498.711112 389.926418 498.398612 
L 389.926418 498.331425 
Q 389.926418 498.032987 389.798293 497.8033 
Q 389.67173 497.573612 389.442043 497.450175 
Q 389.213917 497.325175 388.91548 497.325175 
Q 388.617043 497.325175 388.387355 497.450175 
Q 388.15923 497.573612 388.031105 497.8033 
Q 387.904542 498.032987 387.904542 498.336112 
L 387.904542 498.40955 
Q 387.904542 498.7158 388.031105 498.9533 
Q 388.15923 499.1908 388.387355 499.320487 
Q 388.617043 499.448612 388.91548 499.448612 
z
M 392.35298 502.676737 
L 394.82798 499.375175 
Q 395.043605 499.092362 395.162355 498.787675 
Q 395.282668 498.481425 395.282668 498.218925 
L 395.282668 498.207987 
Q 395.282668 497.78455 395.032668 497.550175 
Q 394.78423 497.3158 394.326417 497.3158 
Q 393.89048 497.3158 393.62173 497.57205 
Q 393.354542 497.8283 393.295167 498.29705 
L 393.295167 498.301737 
L 392.26548 498.301737 
L 392.26548 498.29705 
Q 392.35298 497.686112 392.623292 497.254862 
Q 392.895168 496.82205 393.324855 496.595487 
Q 393.754543 496.367362 394.31548 496.367362 
Q 394.951417 496.367362 395.399855 496.58455 
Q 395.849855 496.801737 396.08423 497.217362 
Q 396.318605 497.632987 396.318605 498.218925 
L 396.318605 498.223612 
Q 396.318605 498.598612 396.162355 499.00955 
Q 396.006105 499.418925 395.726418 499.800175 
L 393.67173 502.593925 
L 396.357667 502.593925 
L 396.357667 503.5408 
L 392.35298 503.5408 
L 392.35298 502.676737 
z
M 399.653371 503.614237 
Q 398.656496 503.614237 398.140871 503.082987 
Q 397.626808 502.550175 397.626808 501.59705 
L 397.626808 498.370487 
Q 397.626808 497.412675 398.143996 496.882987 
Q 398.661183 496.3533 399.653371 496.3533 
Q 400.648683 496.3533 401.164308 496.881425 
Q 401.679933 497.407987 401.679933 498.370487 
L 401.679933 501.59705 
Q 401.679933 502.554862 401.161183 503.08455 
Q 400.643996 503.614237 399.653371 503.614237 
z
M 399.653371 502.667362 
Q 400.179933 502.667362 400.431496 502.3908 
Q 400.683058 502.114237 400.683058 501.59705 
L 400.683058 498.370487 
Q 400.683058 497.851737 400.433058 497.576737 
Q 400.184621 497.300175 399.653371 497.300175 
Q 399.120558 497.300175 398.870558 497.576737 
Q 398.622121 497.851737 398.622121 498.370487 
L 398.622121 501.59705 
Q 398.622121 502.114237 398.873683 502.3908 
Q 399.125246 502.667362 399.653371 502.667362 
z
M 405.170949 503.614237 
Q 404.174074 503.614237 403.658449 503.082987 
Q 403.144386 502.550175 403.144386 501.59705 
L 403.144386 498.370487 
Q 403.144386 497.412675 403.661574 496.882987 
Q 404.178761 496.3533 405.170949 496.3533 
Q 406.166261 496.3533 406.681886 496.881425 
Q 407.197511 497.407987 407.197511 498.370487 
L 407.197511 501.59705 
Q 407.197511 502.554862 406.678761 503.08455 
Q 406.161574 503.614237 405.170949 503.614237 
z
M 405.170949 502.667362 
Q 405.697511 502.667362 405.949074 502.3908 
Q 406.200636 502.114237 406.200636 501.59705 
L 406.200636 498.370487 
Q 406.200636 497.851737 405.950636 497.576737 
Q 405.702199 497.300175 405.170949 497.300175 
Q 404.638136 497.300175 404.388136 497.576737 
Q 404.139699 497.851737 404.139699 498.370487 
L 404.139699 501.59705 
Q 404.139699 502.114237 404.391261 502.3908 
Q 404.642824 502.667362 405.170949 502.667362 
z
" style="fill: #ffffff; stroke: #000000"/>
    <path d="M 381.093605 502.593925 
L 382.699855 502.593925 
Q 383.485793 502.593925 383.917042 502.186112 
Q 384.349855 501.7783 384.349855 501.036112 
L 384.349855 498.945487 
Q 384.349855 498.2033 383.917042 497.795487 
Q 383.485793 497.387675 382.699855 497.387675 
L 381.093605 497.387675 
L 381.093605 496.4408 
L 382.670167 496.4408 
Q 383.524855 496.4408 384.129543 496.739237 
Q 384.735793 497.036112 385.05298 497.607987 
Q 385.370167 498.179862 385.370167 498.98455 
L 385.370167 500.99705 
Q 385.370167 501.801737 385.05298 502.373612 
Q 384.735793 502.945487 384.12798 503.243925 
Q 383.520168 503.5408 382.66548 503.5408 
L 381.093605 503.5408 
L 381.093605 502.593925 
z
M 380.420167 496.4408 
L 381.41548 496.4408 
L 381.41548 503.5408 
L 380.420167 503.5408 
L 380.420167 496.4408 
z
M 388.91548 503.614237 
Q 388.27173 503.614237 387.782668 503.370487 
Q 387.295167 503.125175 387.02798 502.6783 
Q 386.762355 502.231425 386.762355 501.6408 
L 386.762355 501.523612 
Q 386.762355 500.992362 387.02798 500.523612 
Q 387.295167 500.054862 387.738918 499.8158 
Q 387.362355 499.60955 387.135792 499.22205 
Q 386.90923 498.832987 386.90923 498.4033 
L 386.90923 498.232987 
Q 386.90923 497.676737 387.157668 497.254862 
Q 387.406105 496.831425 387.860793 496.600175 
Q 388.31548 496.367362 388.91548 496.367362 
Q 389.51548 496.367362 389.970168 496.600175 
Q 390.424855 496.831425 390.673293 497.254862 
Q 390.92173 497.676737 390.92173 498.232987 
L 390.92173 498.4033 
Q 390.92173 498.843925 390.69048 499.229862 
Q 390.45923 499.614237 390.07798 499.8158 
Q 390.526417 500.05955 390.79673 500.526737 
Q 391.068605 500.992362 391.068605 501.523612 
L 391.068605 501.6408 
Q 391.068605 502.231425 390.80298 502.6783 
Q 390.537355 503.125175 390.048293 503.370487 
Q 389.560792 503.614237 388.91548 503.614237 
z
M 388.91548 502.656425 
Q 389.262355 502.656425 389.524855 502.520487 
Q 389.788918 502.382987 389.932667 502.137675 
Q 390.07798 501.8908 390.07798 501.567362 
L 390.07798 501.500175 
Q 390.07798 501.17205 389.932667 500.926737 
Q 389.788918 500.679862 389.524855 500.543925 
Q 389.262355 500.406425 388.91548 500.406425 
Q 388.568605 500.406425 388.304543 500.543925 
Q 388.042042 500.679862 387.89673 500.9283 
Q 387.75298 501.176737 387.75298 501.504862 
L 387.75298 501.5783 
Q 387.75298 501.900175 387.89673 502.143925 
Q 388.042042 502.387675 388.304543 502.52205 
Q 388.568605 502.656425 388.91548 502.656425 
z
M 388.91548 499.448612 
Q 389.213917 499.448612 389.442043 499.320487 
Q 389.67173 499.1908 389.798293 498.951737 
Q 389.926418 498.711112 389.926418 498.398612 
L 389.926418 498.331425 
Q 389.926418 498.032987 389.798293 497.8033 
Q 389.67173 497.573612 389.442043 497.450175 
Q 389.213917 497.325175 388.91548 497.325175 
Q 388.617043 497.325175 388.387355 497.450175 
Q 388.15923 497.573612 388.031105 497.8033 
Q 387.904542 498.032987 387.904542 498.336112 
L 387.904542 498.40955 
Q 387.904542 498.7158 388.031105 498.9533 
Q 388.15923 499.1908 388.387355 499.320487 
Q 388.617043 499.448612 388.91548 499.448612 
z
M 392.35298 502.676737 
L 394.82798 499.375175 
Q 395.043605 499.092362 395.162355 498.787675 
Q 395.282668 498.481425 395.282668 498.218925 
L 395.282668 498.207987 
Q 395.282668 497.78455 395.032668 497.550175 
Q 394.78423 497.3158 394.326417 497.3158 
Q 393.89048 497.3158 393.62173 497.57205 
Q 393.354542 497.8283 393.295167 498.29705 
L 393.295167 498.301737 
L 392.26548 498.301737 
L 392.26548 498.29705 
Q 392.35298 497.686112 392.623292 497.254862 
Q 392.895168 496.82205 393.324855 496.595487 
Q 393.754543 496.367362 394.31548 496.367362 
Q 394.951417 496.367362 395.399855 496.58455 
Q 395.849855 496.801737 396.08423 497.217362 
Q 396.318605 497.632987 396.318605 498.218925 
L 396.318605 498.223612 
Q 396.318605 498.598612 396.162355 499.00955 
Q 396.006105 499.418925 395.726418 499.800175 
L 393.67173 502.593925 
L 396.357667 502.593925 
L 396.357667 503.5408 
L 392.35298 503.5408 
L 392.35298 502.676737 
z
M 399.653371 503.614237 
Q 398.656496 503.614237 398.140871 503.082987 
Q 397.626808 502.550175 397.626808 501.59705 
L 397.626808 498.370487 
Q 397.626808 497.412675 398.143996 496.882987 
Q 398.661183 496.3533 399.653371 496.3533 
Q 400.648683 496.3533 401.164308 496.881425 
Q 401.679933 497.407987 401.679933 498.370487 
L 401.679933 501.59705 
Q 401.679933 502.554862 401.161183 503.08455 
Q 400.643996 503.614237 399.653371 503.614237 
z
M 399.653371 502.667362 
Q 400.179933 502.667362 400.431496 502.3908 
Q 400.683058 502.114237 400.683058 501.59705 
L 400.683058 498.370487 
Q 400.683058 497.851737 400.433058 497.576737 
Q 400.184621 497.300175 399.653371 497.300175 
Q 399.120558 497.300175 398.870558 497.576737 
Q 398.622121 497.851737 398.622121 498.370487 
L 398.622121 501.59705 
Q 398.622121 502.114237 398.873683 502.3908 
Q 399.125246 502.667362 399.653371 502.667362 
z
M 405.170949 503.614237 
Q 404.174074 503.614237 403.658449 503.082987 
Q 403.144386 502.550175 403.144386 501.59705 
L 403.144386 498.370487 
Q 403.144386 497.412675 403.661574 496.882987 
Q 404.178761 496.3533 405.170949 496.3533 
Q 406.166261 496.3533 406.681886 496.881425 
Q 407.197511 497.407987 407.197511 498.370487 
L 407.197511 501.59705 
Q 407.197511 502.554862 406.678761 503.08455 
Q 406.161574 503.614237 405.170949 503.614237 
z
M 405.170949 502.667362 
Q 405.697511 502.667362 405.949074 502.3908 
Q 406.200636 502.114237 406.200636 501.59705 
L 406.200636 498.370487 
Q 406.200636 497.851737 405.950636 497.576737 
Q 405.702199 497.300175 405.170949 497.300175 
Q 404.638136 497.300175 404.388136 497.576737 
Q 404.139699 497.851737 404.139699 498.370487 
L 404.139699 501.59705 
Q 404.139699 502.114237 404.391261 502.3908 
Q 404.642824 502.667362 405.170949 502.667362 
z
" style="fill: #ffffff"/>
   </g>
  </g>
 </g>
 <defs>
  <clipPath id="p561d5d835c">
   <rect x="144" y="77.76" width="892.8" height="498.96"/>
  </clipPath>
 </defs>
</svg>
