<?xml version="1.0" encoding="utf-8" standalone="no"?>
<!DOCTYPE svg PUBLIC "-//W3C//DTD SVG 1.1//EN"
  "http://www.w3.org/Graphics/SVG/1.1/DTD/svg11.dtd">
<svg xmlns:xlink="http://www.w3.org/1999/xlink" width="1152pt" height="648pt" viewBox="0 0 1152 648" xmlns="http://www.w3.org/2000/svg" version="1.1">
 <metadata>
  <rdf:RDF xmlns:dc="http://purl.org/dc/elements/1.1/" xmlns:cc="http://creativecommons.org/ns#" xmlns:rdf="http://www.w3.org/1999/02/22-rdf-syntax-ns#">
   <cc:Work>
    <dc:type rdf:resource="http://purl.org/dc/dcmitype/StillImage"/>
    <dc:date>2025-09-19T13:51:42.379987</dc:date>
    <dc:format>image/svg+xml</dc:format>
    <dc:creator>
     <cc:Agent>
      <dc:title>Matplotlib v3.10.3, https://matplotlib.org/</dc:title>
     </cc:Agent>
    </dc:creator>
   </cc:Work>
  </rdf:RDF>
 </metadata>
 <defs>
  <style type="text/css">*{stroke-linejoin: round; stroke-linecap: butt}</style>
 </defs>
 <g id="figure_1">
  <g id="patch_1">
   <path d="M 0 648 
L 1152 648 
L 1152 0 
L 0 0 
L 0 648 
z
" style="fill: none"/>
  </g>
  <g id="axes_1">
   <g id="line2d_1">
    <path d="M 228.816 471.091232 
L 233.500444 466.383513 
L 238.184889 461.755794 
L 242.869333 457.206719 
L 247.553778 452.734955 
L 252.238222 448.339189 
L 256.922667 444.018132 
L 261.607111 439.770518 
L 266.291556 435.5951 
L 270.976 431.490654 
L 275.660444 427.455975 
L 280.344889 423.48988 
L 285.029333 419.591204 
L 289.713778 415.758804 
L 294.398222 411.991554 
L 299.082667 408.28835 
L 303.767111 404.648104 
L 308.451556 401.069747 
L 313.136 397.552229 
L 317.820444 394.094517 
L 322.504889 390.695596 
L 327.189333 387.354468 
L 331.873778 384.070151 
L 336.558222 380.841681 
L 341.242667 377.668109 
L 345.927111 374.548504 
L 350.611556 371.481949 
L 355.296 368.467542 
L 359.980444 365.504399 
L 364.664889 362.591648 
L 369.349333 359.728435 
L 374.033778 356.913916 
L 378.718222 354.147266 
L 383.402667 351.427671 
L 388.087111 348.754331 
L 392.771556 346.126461 
L 397.456 343.543289 
L 402.140444 341.004054 
L 406.824889 338.508011 
L 411.509333 336.054426 
L 416.193778 333.642577 
L 420.878222 331.271755 
L 425.562667 328.941262 
L 430.247111 326.650414 
L 434.931556 324.398537 
L 439.616 322.184968 
L 444.300444 320.009057 
L 448.984889 317.870162 
L 453.669333 315.767656 
L 458.353778 313.70092 
L 463.038222 311.669346 
L 467.722667 309.672335 
L 472.407111 307.709301 
L 477.091556 305.779666 
L 481.776 303.882862 
L 486.460444 302.018331 
L 491.144889 300.185524 
L 495.829333 298.383903 
L 500.513778 296.612936 
L 505.198222 294.872103 
L 509.882667 293.160891 
L 514.567111 291.478796 
L 519.251556 289.825325 
L 523.936 288.199989 
L 528.620444 286.60231 
L 533.304889 285.031819 
L 537.989333 283.488053 
L 542.673778 281.970556 
L 547.358222 280.478884 
L 552.042667 279.012596 
L 556.727111 277.57126 
L 561.411556 276.154453 
L 566.096 274.761757 
L 570.780444 273.392763 
L 575.464889 272.047066 
L 580.149333 270.724271 
L 584.833778 269.423988 
L 589.518222 268.145835 
L 594.202667 266.889434 
L 598.887111 265.654417 
L 603.571556 264.440418 
L 608.256 263.247082 
L 612.940444 262.074055 
L 617.624889 260.920993 
L 622.309333 259.787556 
L 626.993778 258.673411 
L 631.678222 257.578228 
L 636.362667 256.501686 
L 641.047111 255.443467 
L 645.731556 254.40326 
L 650.416 253.380758 
L 655.100444 252.37566 
L 659.784889 251.387669 
L 664.469333 250.416496 
L 669.153778 249.461853 
L 673.838222 248.523459 
L 678.522667 247.601038 
L 683.207111 246.694319 
L 687.891556 245.803033 
L 692.576 244.926919 
" clip-path="url(#p2389acf2d0)" style="fill: none; stroke: #f27979; stroke-width: 3; stroke-linecap: round"/>
   </g>
   <g id="text_1">
    <path d="M 700.021605 245.626612 
L 701.627855 245.626612 
Q 702.413792 245.626612 702.845042 245.218799 
Q 703.277855 244.810987 703.277855 244.068799 
L 703.277855 241.978174 
Q 703.277855 241.235987 702.845042 240.828174 
Q 702.413792 240.420362 701.627855 240.420362 
L 700.021605 240.420362 
L 700.021605 239.473487 
L 701.598168 239.473487 
Q 702.452855 239.473487 703.057542 239.771924 
Q 703.663792 240.068799 703.98098 240.640674 
Q 704.298167 241.212549 704.298167 242.017237 
L 704.298167 244.029737 
Q 704.298167 244.834424 703.98098 245.406299 
Q 703.663792 245.978174 703.05598 246.276612 
Q 702.448167 246.573487 701.59348 246.573487 
L 700.021605 246.573487 
L 700.021605 245.626612 
z
M 699.348168 239.473487 
L 700.34348 239.473487 
L 700.34348 246.573487 
L 699.348168 246.573487 
L 699.348168 239.473487 
z
M 708.277855 243.048487 
L 708.273167 243.223487 
Q 708.151292 243.448487 707.904418 243.553174 
Q 707.657542 243.657862 707.321605 243.657862 
Q 706.813792 243.657862 706.427855 243.400049 
Q 706.041917 243.140674 705.829417 242.670362 
Q 705.616917 242.198487 705.616917 241.578174 
L 705.616917 241.573487 
Q 705.616917 240.884424 705.848168 240.396924 
Q 706.08098 239.907862 706.527855 239.654737 
Q 706.97473 239.400049 707.59973 239.400049 
Q 708.22473 239.400049 708.66848 239.659424 
Q 709.113793 239.918799 709.345042 240.412549 
Q 709.576293 240.904737 709.576293 241.598487 
L 709.576293 241.603174 
Q 709.576293 241.982862 709.477855 242.415674 
Q 709.38098 242.848487 709.201293 243.271924 
Q 709.171605 243.335987 709.141917 243.401612 
Q 709.113793 243.467237 709.079417 243.531299 
L 707.565355 246.573487 
L 706.490355 246.573487 
L 708.277855 243.048487 
z
M 707.59973 242.750049 
Q 708.06848 242.750049 708.32473 242.432862 
Q 708.58098 242.115674 708.58098 241.539112 
L 708.58098 241.534424 
Q 708.58098 240.973487 708.32473 240.665674 
Q 708.06848 240.357862 707.59973 240.357862 
Q 707.126292 240.357862 706.870042 240.665674 
Q 706.613793 240.973487 706.613793 241.539112 
L 706.613793 241.543799 
Q 706.613793 242.120362 706.870042 242.435987 
Q 707.126292 242.750049 707.59973 242.750049 
z
M 710.797191 244.620362 
L 713.180003 239.478174 
L 714.206566 239.478174 
L 711.881566 244.560987 
L 715.362816 244.560987 
L 715.362816 245.484424 
L 710.797191 245.484424 
L 710.797191 244.620362 
z
M 713.859691 242.398487 
L 714.831566 242.398487 
L 714.831566 246.578174 
L 713.859691 246.578174 
L 713.859691 242.398487 
z
M 718.610667 246.646924 
Q 717.613793 246.646924 717.098168 246.115674 
Q 716.584105 245.582862 716.584105 244.629737 
L 716.584105 241.403174 
Q 716.584105 240.445362 717.101292 239.915674 
Q 717.61848 239.385987 718.610667 239.385987 
Q 719.60598 239.385987 720.121605 239.914112 
Q 720.63723 240.440674 720.63723 241.403174 
L 720.63723 244.629737 
Q 720.63723 245.587549 720.11848 246.117237 
Q 719.601292 246.646924 718.610667 246.646924 
z
M 718.610667 245.700049 
Q 719.13723 245.700049 719.388793 245.423487 
Q 719.640355 245.146924 719.640355 244.629737 
L 719.640355 241.403174 
Q 719.640355 240.884424 719.390355 240.609424 
Q 719.141917 240.332862 718.610667 240.332862 
Q 718.077855 240.332862 717.827855 240.609424 
Q 717.579417 240.884424 717.579417 241.403174 
L 717.579417 244.629737 
Q 717.579417 245.146924 717.83098 245.423487 
Q 718.082543 245.700049 718.610667 245.700049 
z
M 724.128246 246.646924 
Q 723.131371 246.646924 722.615746 246.115674 
Q 722.101683 245.582862 722.101683 244.629737 
L 722.101683 241.403174 
Q 722.101683 240.445362 722.618871 239.915674 
Q 723.136058 239.385987 724.128246 239.385987 
Q 725.123558 239.385987 725.639183 239.914112 
Q 726.154808 240.440674 726.154808 241.403174 
L 726.154808 244.629737 
Q 726.154808 245.587549 725.636058 246.117237 
Q 725.118871 246.646924 724.128246 246.646924 
z
M 724.128246 245.700049 
Q 724.654808 245.700049 724.906371 245.423487 
Q 725.157933 245.146924 725.157933 244.629737 
L 725.157933 241.403174 
Q 725.157933 240.884424 724.907933 240.609424 
Q 724.659496 240.332862 724.128246 240.332862 
Q 723.595433 240.332862 723.345433 240.609424 
Q 723.096996 240.884424 723.096996 241.403174 
L 723.096996 244.629737 
Q 723.096996 245.146924 723.348558 245.423487 
Q 723.600121 245.700049 724.128246 245.700049 
z
M 731.207933 248.101612 
Q 730.339183 247.159424 729.906371 245.990674 
Q 729.475121 244.820362 729.475121 243.409424 
Q 729.475121 241.998487 729.906371 240.829737 
Q 730.339183 239.659424 731.207933 238.717237 
L 731.890746 239.337549 
Q 731.154808 240.157862 730.787621 241.173487 
Q 730.421996 242.189112 730.421996 243.409424 
Q 730.421996 244.629737 730.787621 245.645362 
Q 731.154808 246.660987 731.890746 247.485987 
L 731.207933 248.101612 
z
M 734.435863 246.573487 
L 733.438988 246.573487 
L 733.438988 240.557862 
L 732.42805 241.178174 
L 732.42805 240.146924 
L 733.438988 239.473487 
L 734.435863 239.473487 
L 734.435863 246.573487 
z
M 738.073558 246.646924 
Q 737.076683 246.646924 736.561058 246.115674 
Q 736.046996 245.582862 736.046996 244.629737 
L 736.046996 241.403174 
Q 736.046996 240.445362 736.564183 239.915674 
Q 737.081371 239.385987 738.073558 239.385987 
Q 739.068871 239.385987 739.584496 239.914112 
Q 740.100121 240.440674 740.100121 241.403174 
L 740.100121 244.629737 
Q 740.100121 245.587549 739.581371 246.117237 
Q 739.064183 246.646924 738.073558 246.646924 
z
M 738.073558 245.700049 
Q 738.600121 245.700049 738.851683 245.423487 
Q 739.103246 245.146924 739.103246 244.629737 
L 739.103246 241.403174 
Q 739.103246 240.884424 738.853246 240.609424 
Q 738.604808 240.332862 738.073558 240.332862 
Q 737.540746 240.332862 737.290746 240.609424 
Q 737.042308 240.884424 737.042308 241.403174 
L 737.042308 244.629737 
Q 737.042308 245.146924 737.293871 245.423487 
Q 737.545433 245.700049 738.073558 245.700049 
z
M 743.395824 246.646924 
Q 742.770824 246.646924 742.325511 246.395362 
Q 741.881761 246.143799 741.648949 245.662549 
Q 741.417699 245.181299 741.417699 244.503174 
L 741.417699 244.498487 
Q 741.417699 244.103174 741.509886 243.668799 
Q 741.603636 243.232862 741.778636 242.814112 
Q 741.808324 242.740674 741.842699 242.670362 
Q 741.877074 242.598487 741.911449 242.529737 
L 743.453636 239.473487 
L 744.528636 239.473487 
L 742.716136 243.014112 
L 742.720824 242.837549 
Q 742.844261 242.607862 743.078636 242.481299 
Q 743.313011 242.354737 743.625511 242.354737 
Q 744.177074 242.354737 744.572386 242.604737 
Q 744.967699 242.853174 745.172386 243.329737 
Q 745.377074 243.804737 745.377074 244.473487 
L 745.377074 244.478174 
Q 745.377074 245.162549 745.145824 245.651612 
Q 744.914574 246.139112 744.467699 246.393799 
Q 744.020824 246.646924 743.395824 246.646924 
z
M 743.395824 245.689112 
Q 743.869261 245.689112 744.125511 245.396924 
Q 744.381761 245.103174 744.381761 244.560987 
L 744.381761 244.556299 
Q 744.381761 243.960987 744.113011 243.635987 
Q 743.844261 243.310987 743.345824 243.310987 
Q 742.902074 243.310987 742.658324 243.639112 
Q 742.414574 243.965674 742.414574 244.560987 
L 742.414574 244.567237 
Q 742.414574 245.107862 742.670824 245.398487 
Q 742.927074 245.689112 743.395824 245.689112 
z
M 748.52766 246.646924 
Q 747.90266 246.646924 747.457347 246.395362 
Q 747.013597 246.143799 746.780785 245.662549 
Q 746.549535 245.181299 746.549535 244.503174 
L 746.549535 244.498487 
Q 746.549535 244.103174 746.641722 243.668799 
Q 746.735472 243.232862 746.910472 242.814112 
Q 746.94016 242.740674 746.974535 242.670362 
Q 747.00891 242.598487 747.043285 242.529737 
L 748.585472 239.473487 
L 749.660472 239.473487 
L 747.847972 243.014112 
L 747.85266 242.837549 
Q 747.976097 242.607862 748.210472 242.481299 
Q 748.444847 242.354737 748.757347 242.354737 
Q 749.30891 242.354737 749.704222 242.604737 
Q 750.099535 242.853174 750.304222 243.329737 
Q 750.50891 243.804737 750.50891 244.473487 
L 750.50891 244.478174 
Q 750.50891 245.162549 750.27766 245.651612 
Q 750.04641 246.139112 749.599535 246.393799 
Q 749.15266 246.646924 748.52766 246.646924 
z
M 748.52766 245.689112 
Q 749.001097 245.689112 749.257347 245.396924 
Q 749.513597 245.103174 749.513597 244.560987 
L 749.513597 244.556299 
Q 749.513597 243.960987 749.244847 243.635987 
Q 748.976097 243.310987 748.47766 243.310987 
Q 748.03391 243.310987 747.79016 243.639112 
Q 747.54641 243.965674 747.54641 244.560987 
L 747.54641 244.567237 
Q 747.54641 245.107862 747.80266 245.398487 
Q 748.05891 245.689112 748.52766 245.689112 
z
M 755.495433 240.362549 
L 753.659496 246.573487 
L 752.600121 246.573487 
L 754.436058 240.420362 
L 752.628246 240.420362 
L 752.628246 241.442237 
L 751.632933 241.442237 
L 751.632933 239.473487 
L 755.495433 239.473487 
L 755.495433 240.362549 
z
M 756.22805 247.485987 
Q 756.963988 246.660987 757.329613 245.645362 
Q 757.6968 244.629737 757.6968 243.409424 
Q 757.6968 242.189112 757.329613 241.173487 
Q 756.963988 240.157862 756.22805 239.337549 
L 756.910863 238.717237 
Q 757.779613 239.659424 758.210863 240.829737 
Q 758.643675 241.998487 758.643675 243.409424 
Q 758.643675 244.820362 758.210863 245.990674 
Q 757.779613 247.159424 756.910863 248.101612 
L 756.22805 247.485987 
z
" style="fill: #ffffff; stroke: #000000"/>
    <path d="M 700.021605 245.626612 
L 701.627855 245.626612 
Q 702.413792 245.626612 702.845042 245.218799 
Q 703.277855 244.810987 703.277855 244.068799 
L 703.277855 241.978174 
Q 703.277855 241.235987 702.845042 240.828174 
Q 702.413792 240.420362 701.627855 240.420362 
L 700.021605 240.420362 
L 700.021605 239.473487 
L 701.598168 239.473487 
Q 702.452855 239.473487 703.057542 239.771924 
Q 703.663792 240.068799 703.98098 240.640674 
Q 704.298167 241.212549 704.298167 242.017237 
L 704.298167 244.029737 
Q 704.298167 244.834424 703.98098 245.406299 
Q 703.663792 245.978174 703.05598 246.276612 
Q 702.448167 246.573487 701.59348 246.573487 
L 700.021605 246.573487 
L 700.021605 245.626612 
z
M 699.348168 239.473487 
L 700.34348 239.473487 
L 700.34348 246.573487 
L 699.348168 246.573487 
L 699.348168 239.473487 
z
M 708.277855 243.048487 
L 708.273167 243.223487 
Q 708.151292 243.448487 707.904418 243.553174 
Q 707.657542 243.657862 707.321605 243.657862 
Q 706.813792 243.657862 706.427855 243.400049 
Q 706.041917 243.140674 705.829417 242.670362 
Q 705.616917 242.198487 705.616917 241.578174 
L 705.616917 241.573487 
Q 705.616917 240.884424 705.848168 240.396924 
Q 706.08098 239.907862 706.527855 239.654737 
Q 706.97473 239.400049 707.59973 239.400049 
Q 708.22473 239.400049 708.66848 239.659424 
Q 709.113793 239.918799 709.345042 240.412549 
Q 709.576293 240.904737 709.576293 241.598487 
L 709.576293 241.603174 
Q 709.576293 241.982862 709.477855 242.415674 
Q 709.38098 242.848487 709.201293 243.271924 
Q 709.171605 243.335987 709.141917 243.401612 
Q 709.113793 243.467237 709.079417 243.531299 
L 707.565355 246.573487 
L 706.490355 246.573487 
L 708.277855 243.048487 
z
M 707.59973 242.750049 
Q 708.06848 242.750049 708.32473 242.432862 
Q 708.58098 242.115674 708.58098 241.539112 
L 708.58098 241.534424 
Q 708.58098 240.973487 708.32473 240.665674 
Q 708.06848 240.357862 707.59973 240.357862 
Q 707.126292 240.357862 706.870042 240.665674 
Q 706.613793 240.973487 706.613793 241.539112 
L 706.613793 241.543799 
Q 706.613793 242.120362 706.870042 242.435987 
Q 707.126292 242.750049 707.59973 242.750049 
z
M 710.797191 244.620362 
L 713.180003 239.478174 
L 714.206566 239.478174 
L 711.881566 244.560987 
L 715.362816 244.560987 
L 715.362816 245.484424 
L 710.797191 245.484424 
L 710.797191 244.620362 
z
M 713.859691 242.398487 
L 714.831566 242.398487 
L 714.831566 246.578174 
L 713.859691 246.578174 
L 713.859691 242.398487 
z
M 718.610667 246.646924 
Q 717.613793 246.646924 717.098168 246.115674 
Q 716.584105 245.582862 716.584105 244.629737 
L 716.584105 241.403174 
Q 716.584105 240.445362 717.101292 239.915674 
Q 717.61848 239.385987 718.610667 239.385987 
Q 719.60598 239.385987 720.121605 239.914112 
Q 720.63723 240.440674 720.63723 241.403174 
L 720.63723 244.629737 
Q 720.63723 245.587549 720.11848 246.117237 
Q 719.601292 246.646924 718.610667 246.646924 
z
M 718.610667 245.700049 
Q 719.13723 245.700049 719.388793 245.423487 
Q 719.640355 245.146924 719.640355 244.629737 
L 719.640355 241.403174 
Q 719.640355 240.884424 719.390355 240.609424 
Q 719.141917 240.332862 718.610667 240.332862 
Q 718.077855 240.332862 717.827855 240.609424 
Q 717.579417 240.884424 717.579417 241.403174 
L 717.579417 244.629737 
Q 717.579417 245.146924 717.83098 245.423487 
Q 718.082543 245.700049 718.610667 245.700049 
z
M 724.128246 246.646924 
Q 723.131371 246.646924 722.615746 246.115674 
Q 722.101683 245.582862 722.101683 244.629737 
L 722.101683 241.403174 
Q 722.101683 240.445362 722.618871 239.915674 
Q 723.136058 239.385987 724.128246 239.385987 
Q 725.123558 239.385987 725.639183 239.914112 
Q 726.154808 240.440674 726.154808 241.403174 
L 726.154808 244.629737 
Q 726.154808 245.587549 725.636058 246.117237 
Q 725.118871 246.646924 724.128246 246.646924 
z
M 724.128246 245.700049 
Q 724.654808 245.700049 724.906371 245.423487 
Q 725.157933 245.146924 725.157933 244.629737 
L 725.157933 241.403174 
Q 725.157933 240.884424 724.907933 240.609424 
Q 724.659496 240.332862 724.128246 240.332862 
Q 723.595433 240.332862 723.345433 240.609424 
Q 723.096996 240.884424 723.096996 241.403174 
L 723.096996 244.629737 
Q 723.096996 245.146924 723.348558 245.423487 
Q 723.600121 245.700049 724.128246 245.700049 
z
M 731.207933 248.101612 
Q 730.339183 247.159424 729.906371 245.990674 
Q 729.475121 244.820362 729.475121 243.409424 
Q 729.475121 241.998487 729.906371 240.829737 
Q 730.339183 239.659424 731.207933 238.717237 
L 731.890746 239.337549 
Q 731.154808 240.157862 730.787621 241.173487 
Q 730.421996 242.189112 730.421996 243.409424 
Q 730.421996 244.629737 730.787621 245.645362 
Q 731.154808 246.660987 731.890746 247.485987 
L 731.207933 248.101612 
z
M 734.435863 246.573487 
L 733.438988 246.573487 
L 733.438988 240.557862 
L 732.42805 241.178174 
L 732.42805 240.146924 
L 733.438988 239.473487 
L 734.435863 239.473487 
L 734.435863 246.573487 
z
M 738.073558 246.646924 
Q 737.076683 246.646924 736.561058 246.115674 
Q 736.046996 245.582862 736.046996 244.629737 
L 736.046996 241.403174 
Q 736.046996 240.445362 736.564183 239.915674 
Q 737.081371 239.385987 738.073558 239.385987 
Q 739.068871 239.385987 739.584496 239.914112 
Q 740.100121 240.440674 740.100121 241.403174 
L 740.100121 244.629737 
Q 740.100121 245.587549 739.581371 246.117237 
Q 739.064183 246.646924 738.073558 246.646924 
z
M 738.073558 245.700049 
Q 738.600121 245.700049 738.851683 245.423487 
Q 739.103246 245.146924 739.103246 244.629737 
L 739.103246 241.403174 
Q 739.103246 240.884424 738.853246 240.609424 
Q 738.604808 240.332862 738.073558 240.332862 
Q 737.540746 240.332862 737.290746 240.609424 
Q 737.042308 240.884424 737.042308 241.403174 
L 737.042308 244.629737 
Q 737.042308 245.146924 737.293871 245.423487 
Q 737.545433 245.700049 738.073558 245.700049 
z
M 743.395824 246.646924 
Q 742.770824 246.646924 742.325511 246.395362 
Q 741.881761 246.143799 741.648949 245.662549 
Q 741.417699 245.181299 741.417699 244.503174 
L 741.417699 244.498487 
Q 741.417699 244.103174 741.509886 243.668799 
Q 741.603636 243.232862 741.778636 242.814112 
Q 741.808324 242.740674 741.842699 242.670362 
Q 741.877074 242.598487 741.911449 242.529737 
L 743.453636 239.473487 
L 744.528636 239.473487 
L 742.716136 243.014112 
L 742.720824 242.837549 
Q 742.844261 242.607862 743.078636 242.481299 
Q 743.313011 242.354737 743.625511 242.354737 
Q 744.177074 242.354737 744.572386 242.604737 
Q 744.967699 242.853174 745.172386 243.329737 
Q 745.377074 243.804737 745.377074 244.473487 
L 745.377074 244.478174 
Q 745.377074 245.162549 745.145824 245.651612 
Q 744.914574 246.139112 744.467699 246.393799 
Q 744.020824 246.646924 743.395824 246.646924 
z
M 743.395824 245.689112 
Q 743.869261 245.689112 744.125511 245.396924 
Q 744.381761 245.103174 744.381761 244.560987 
L 744.381761 244.556299 
Q 744.381761 243.960987 744.113011 243.635987 
Q 743.844261 243.310987 743.345824 243.310987 
Q 742.902074 243.310987 742.658324 243.639112 
Q 742.414574 243.965674 742.414574 244.560987 
L 742.414574 244.567237 
Q 742.414574 245.107862 742.670824 245.398487 
Q 742.927074 245.689112 743.395824 245.689112 
z
M 748.52766 246.646924 
Q 747.90266 246.646924 747.457347 246.395362 
Q 747.013597 246.143799 746.780785 245.662549 
Q 746.549535 245.181299 746.549535 244.503174 
L 746.549535 244.498487 
Q 746.549535 244.103174 746.641722 243.668799 
Q 746.735472 243.232862 746.910472 242.814112 
Q 746.94016 242.740674 746.974535 242.670362 
Q 747.00891 242.598487 747.043285 242.529737 
L 748.585472 239.473487 
L 749.660472 239.473487 
L 747.847972 243.014112 
L 747.85266 242.837549 
Q 747.976097 242.607862 748.210472 242.481299 
Q 748.444847 242.354737 748.757347 242.354737 
Q 749.30891 242.354737 749.704222 242.604737 
Q 750.099535 242.853174 750.304222 243.329737 
Q 750.50891 243.804737 750.50891 244.473487 
L 750.50891 244.478174 
Q 750.50891 245.162549 750.27766 245.651612 
Q 750.04641 246.139112 749.599535 246.393799 
Q 749.15266 246.646924 748.52766 246.646924 
z
M 748.52766 245.689112 
Q 749.001097 245.689112 749.257347 245.396924 
Q 749.513597 245.103174 749.513597 244.560987 
L 749.513597 244.556299 
Q 749.513597 243.960987 749.244847 243.635987 
Q 748.976097 243.310987 748.47766 243.310987 
Q 748.03391 243.310987 747.79016 243.639112 
Q 747.54641 243.965674 747.54641 244.560987 
L 747.54641 244.567237 
Q 747.54641 245.107862 747.80266 245.398487 
Q 748.05891 245.689112 748.52766 245.689112 
z
M 755.495433 240.362549 
L 753.659496 246.573487 
L 752.600121 246.573487 
L 754.436058 240.420362 
L 752.628246 240.420362 
L 752.628246 241.442237 
L 751.632933 241.442237 
L 751.632933 239.473487 
L 755.495433 239.473487 
L 755.495433 240.362549 
z
M 756.22805 247.485987 
Q 756.963988 246.660987 757.329613 245.645362 
Q 757.6968 244.629737 757.6968 243.409424 
Q 757.6968 242.189112 757.329613 241.173487 
Q 756.963988 240.157862 756.22805 239.337549 
L 756.910863 238.717237 
Q 757.779613 239.659424 758.210863 240.829737 
Q 758.643675 241.998487 758.643675 243.409424 
Q 758.643675 244.820362 758.210863 245.990674 
Q 757.779613 247.159424 756.910863 248.101612 
L 756.22805 247.485987 
z
" style="fill: #ffffff"/>
   </g>
  </g>
 </g>
 <defs>
  <clipPath id="p2389acf2d0">
   <rect x="144" y="77.76" width="892.8" height="498.96"/>
  </clipPath>
 </defs>
</svg>
