<?xml version="1.0" encoding="utf-8" standalone="no"?>
<!DOCTYPE svg PUBLIC "-//W3C//DTD SVG 1.1//EN"
  "http://www.w3.org/Graphics/SVG/1.1/DTD/svg11.dtd">
<svg xmlns:xlink="http://www.w3.org/1999/xlink" width="1152pt" height="648pt" viewBox="0 0 1152 648" xmlns="http://www.w3.org/2000/svg" version="1.1">
 <metadata>
  <rdf:RDF xmlns:dc="http://purl.org/dc/elements/1.1/" xmlns:cc="http://creativecommons.org/ns#" xmlns:rdf="http://www.w3.org/1999/02/22-rdf-syntax-ns#">
   <cc:Work>
    <dc:type rdf:resource="http://purl.org/dc/dcmitype/StillImage"/>
    <dc:date>2025-09-19T13:51:42.777168</dc:date>
    <dc:format>image/svg+xml</dc:format>
    <dc:creator>
     <cc:Agent>
      <dc:title>Matplotlib v3.10.3, https://matplotlib.org/</dc:title>
     </cc:Agent>
    </dc:creator>
   </cc:Work>
  </rdf:RDF>
 </metadata>
 <defs>
  <style type="text/css">*{stroke-linejoin: round; stroke-linecap: butt}</style>
 </defs>
 <g id="figure_1">
  <g id="patch_1">
   <path d="M 0 648 
L 1152 648 
L 1152 0 
L 0 0 
L 0 648 
z
" style="fill: none"/>
  </g>
  <g id="axes_1">
   <g id="line2d_1">
    <path d="M 211.952 525.491792 
L 218.986182 518.767917 
L 226.020364 512.177229 
L 233.054545 505.717448 
L 240.088727 499.38632 
L 247.122909 493.181614 
L 254.157091 487.101125 
L 261.191273 481.142671 
L 268.225455 475.304098 
L 275.259636 469.583274 
L 282.293818 463.978097 
L 289.328 458.486488 
L 296.362182 453.106395 
L 303.396364 447.835795 
L 310.430545 442.672687 
L 317.464727 437.6151 
L 324.498909 432.66109 
L 331.533091 427.808738 
L 338.567273 423.056152 
L 345.601455 418.401469 
L 352.635636 413.84285 
L 359.669818 409.378485 
L 366.704 405.006589 
L 373.738182 400.725407 
L 380.772364 396.533206 
L 387.806545 392.428283 
L 394.840727 388.40896 
L 401.874909 384.473585 
L 408.909091 380.620534 
L 415.943273 376.848206 
L 422.977455 373.155029 
L 430.011636 369.539454 
L 437.045818 365.999959 
L 444.08 362.535046 
L 451.114182 359.143244 
L 458.148364 355.823104 
L 465.182545 352.573203 
L 472.216727 349.392143 
L 479.250909 346.27855 
L 486.285091 343.231072 
L 493.319273 340.248382 
L 500.353455 337.329177 
L 507.387636 334.472175 
L 514.421818 331.676119 
L 521.456 328.939774 
L 528.490182 326.261925 
L 535.524364 323.641382 
L 542.558545 321.076975 
L 549.592727 318.567555 
L 556.626909 316.111997 
L 563.661091 313.709193 
L 570.695273 311.358058 
L 577.729455 309.057526 
L 584.763636 306.806553 
L 591.797818 304.604112 
L 598.832 302.449197 
L 605.866182 300.340821 
L 612.900364 298.278016 
L 619.934545 296.259831 
L 626.968727 294.285335 
L 634.002909 292.353615 
L 641.037091 290.463774 
L 648.071273 288.614935 
L 655.105455 286.806236 
L 662.139636 285.036832 
L 669.173818 283.305896 
L 676.208 281.612616 
L 683.242182 279.956197 
L 690.276364 278.335858 
L 697.310545 276.750836 
L 704.344727 275.200381 
L 711.378909 273.68376 
L 718.413091 272.200254 
L 725.447273 270.749156 
L 732.481455 269.329778 
L 739.515636 267.941441 
L 746.549818 266.583484 
L 753.584 265.255256 
L 760.618182 263.956121 
L 767.652364 262.685457 
L 774.686545 261.442651 
L 781.720727 260.227107 
L 788.754909 259.038239 
L 795.789091 257.875472 
L 802.823273 256.738246 
L 809.857455 255.626008 
L 816.891636 254.538222 
L 823.925818 253.474359 
L 830.96 252.433901 
L 837.994182 251.416344 
L 845.028364 250.421192 
L 852.062545 249.447959 
L 859.096727 248.496171 
L 866.130909 247.565362 
L 873.165091 246.655077 
L 880.199273 245.764871 
L 887.233455 244.894307 
L 894.267636 244.042959 
L 901.301818 243.210407 
L 908.336 242.396243 
" clip-path="url(#p4ac7db9ccf)" style="fill: none; stroke: #1f77b4; stroke-width: 3; stroke-linecap: round"/>
   </g>
   <g id="text_1">
    <path d="M 916.84098 240.922498 
L 916.689417 240.678748 
L 914.38473 236.942811 
L 915.50348 236.942811 
L 917.217542 239.833436 
L 917.37848 240.097498 
L 919.805042 244.042811 
L 918.686292 244.042811 
L 916.84098 240.922498 
z
M 916.79723 239.984998 
L 918.57848 236.942811 
L 919.69723 236.942811 
L 917.348792 240.786561 
L 915.444105 244.042811 
L 914.326917 244.042811 
L 916.79723 239.984998 
z
M 921.216371 240.092811 
L 923.638246 240.092811 
Q 923.921058 240.092811 924.139808 239.956873 
Q 924.360121 239.819373 924.478871 239.567811 
Q 924.599183 239.316248 924.599183 238.989686 
L 924.599183 238.989686 
Q 924.599183 238.661561 924.478871 238.409998 
Q 924.360121 238.158436 924.142933 238.022498 
Q 923.925746 237.884998 923.638246 237.884998 
L 921.216371 237.884998 
L 921.216371 236.938123 
L 923.599183 236.938123 
Q 924.213246 236.938123 924.678871 237.192811 
Q 925.146058 237.445936 925.402308 237.913123 
Q 925.658558 238.378748 925.658558 238.989686 
L 925.658558 238.989686 
Q 925.658558 239.599061 925.399183 240.066248 
Q 925.141371 240.531873 924.674183 240.786561 
Q 924.208558 241.039686 923.599183 241.039686 
L 921.216371 241.039686 
L 921.216371 240.092811 
z
M 920.781996 236.938123 
L 921.777308 236.938123 
L 921.777308 244.042811 
L 920.781996 244.042811 
L 920.781996 236.938123 
z
M 923.149183 240.819373 
L 924.141371 240.595936 
L 925.956996 244.042811 
L 924.775746 244.042811 
L 923.149183 240.819373 
z
M 927.202113 236.942811 
L 928.198988 236.942811 
L 928.198988 237.939686 
L 927.202113 237.939686 
L 927.202113 236.942811 
z
M 927.202113 238.974061 
L 928.198988 238.974061 
L 928.198988 244.042811 
L 927.202113 244.042811 
L 927.202113 238.974061 
z
M 929.711878 238.974061 
L 930.708753 238.974061 
L 930.708753 244.042811 
L 929.711878 244.042811 
L 929.711878 238.974061 
z
M 932.788441 240.970936 
Q 932.788441 240.434998 932.510316 240.142811 
Q 932.232191 239.849061 931.729066 239.849061 
Q 931.240003 239.849061 930.974378 240.108436 
Q 930.708753 240.366248 930.708753 240.834998 
L 930.605628 239.858436 
Q 930.840003 239.399061 931.218128 239.150623 
Q 931.596253 238.900623 932.055628 238.900623 
Q 932.880628 238.900623 933.332191 239.441248 
Q 933.783753 239.980311 933.783753 240.966248 
L 933.783753 244.042811 
L 932.788441 244.042811 
L 932.788441 240.970936 
z
M 936.997816 246.103748 
Q 936.425941 246.103748 935.974378 245.891248 
Q 935.522816 245.678748 935.272816 245.292811 
L 935.272816 245.292811 
L 935.947816 244.681873 
L 935.947816 244.681873 
Q 936.143128 244.950623 936.413441 245.097498 
Q 936.685316 245.244373 936.982191 245.244373 
Q 937.554066 245.244373 937.866566 244.928748 
Q 938.179066 244.614686 938.179066 244.038123 
L 938.179066 238.974061 
L 939.174378 238.974061 
L 939.174378 243.891248 
Q 939.174378 244.589686 938.918128 245.088123 
Q 938.661878 245.586561 938.172816 245.844373 
Q 937.685316 246.103748 936.997816 246.103748 
z
M 936.904066 244.130311 
Q 936.347816 244.130311 935.954066 243.889686 
Q 935.561878 243.647498 935.355628 243.183436 
Q 935.150941 242.719373 935.150941 242.069373 
L 935.150941 240.952186 
Q 935.150941 240.297498 935.350941 239.833436 
Q 935.552503 239.369373 935.935316 239.128748 
Q 936.318128 238.886561 936.855628 238.886561 
Q 937.304066 238.886561 937.677503 239.120936 
Q 938.052503 239.355311 938.280628 239.780311 
L 938.179066 240.814686 
Q 938.179066 240.492811 938.061878 240.263123 
Q 937.944691 240.033436 937.721253 239.914686 
Q 937.499378 239.794373 937.182191 239.794373 
Q 936.690003 239.794373 936.418128 240.102186 
Q 936.147816 240.409998 936.147816 240.966248 
L 936.147816 242.069373 
Q 936.147816 242.622498 936.418128 242.922498 
Q 936.690003 243.222498 937.182191 243.222498 
Q 937.499378 243.222498 937.721253 243.099061 
Q 937.944691 242.974061 938.061878 242.739686 
Q 938.179066 242.505311 938.179066 242.177186 
L 938.247816 243.247498 
Q 938.096253 243.622498 937.750941 243.877186 
Q 937.407191 244.130311 936.904066 244.130311 
z
M 944.8443 244.116248 
Q 944.102113 244.116248 943.534925 243.791248 
Q 942.9693 243.466248 942.658363 242.874061 
Q 942.348988 242.280311 942.348988 241.499061 
L 942.348988 239.486561 
Q 942.348988 238.705311 942.658363 238.113123 
Q 942.9693 237.519373 943.534925 237.194373 
Q 944.102113 236.869373 944.8443 236.869373 
Q 945.586488 236.869373 946.152113 237.194373 
Q 946.7193 237.519373 947.028675 238.113123 
Q 947.339613 238.705311 947.339613 239.486561 
L 947.339613 241.499061 
Q 947.339613 242.280311 947.028675 242.874061 
Q 946.7193 243.466248 946.152113 243.791248 
Q 945.586488 244.116248 944.8443 244.116248 
z
M 944.8443 243.134998 
Q 945.283363 243.134998 945.617738 242.938123 
Q 945.952113 242.739686 946.134925 242.375623 
Q 946.317738 242.011561 946.317738 241.533436 
L 946.317738 239.452186 
Q 946.317738 238.974061 946.134925 238.611561 
Q 945.952113 238.247498 945.617738 238.049061 
Q 945.283363 237.850623 944.8443 237.850623 
Q 944.403675 237.850623 944.0693 238.049061 
Q 943.734925 238.247498 943.552113 238.611561 
Q 943.3693 238.974061 943.3693 239.452186 
L 943.3693 241.533436 
Q 943.3693 242.011561 943.552113 242.375623 
Q 943.734925 242.739686 944.0693 242.938123 
Q 944.403675 243.134998 944.8443 243.134998 
z
M 950.518128 244.042811 
L 949.521253 244.042811 
L 949.521253 238.027186 
L 948.510316 238.647498 
L 948.510316 237.616248 
L 949.521253 236.942811 
L 950.518128 236.942811 
L 950.518128 244.042811 
z
" style="fill: #ffffff; stroke: #000000"/>
    <path d="M 916.84098 240.922498 
L 916.689417 240.678748 
L 914.38473 236.942811 
L 915.50348 236.942811 
L 917.217542 239.833436 
L 917.37848 240.097498 
L 919.805042 244.042811 
L 918.686292 244.042811 
L 916.84098 240.922498 
z
M 916.79723 239.984998 
L 918.57848 236.942811 
L 919.69723 236.942811 
L 917.348792 240.786561 
L 915.444105 244.042811 
L 914.326917 244.042811 
L 916.79723 239.984998 
z
M 921.216371 240.092811 
L 923.638246 240.092811 
Q 923.921058 240.092811 924.139808 239.956873 
Q 924.360121 239.819373 924.478871 239.567811 
Q 924.599183 239.316248 924.599183 238.989686 
L 924.599183 238.989686 
Q 924.599183 238.661561 924.478871 238.409998 
Q 924.360121 238.158436 924.142933 238.022498 
Q 923.925746 237.884998 923.638246 237.884998 
L 921.216371 237.884998 
L 921.216371 236.938123 
L 923.599183 236.938123 
Q 924.213246 236.938123 924.678871 237.192811 
Q 925.146058 237.445936 925.402308 237.913123 
Q 925.658558 238.378748 925.658558 238.989686 
L 925.658558 238.989686 
Q 925.658558 239.599061 925.399183 240.066248 
Q 925.141371 240.531873 924.674183 240.786561 
Q 924.208558 241.039686 923.599183 241.039686 
L 921.216371 241.039686 
L 921.216371 240.092811 
z
M 920.781996 236.938123 
L 921.777308 236.938123 
L 921.777308 244.042811 
L 920.781996 244.042811 
L 920.781996 236.938123 
z
M 923.149183 240.819373 
L 924.141371 240.595936 
L 925.956996 244.042811 
L 924.775746 244.042811 
L 923.149183 240.819373 
z
M 927.202113 236.942811 
L 928.198988 236.942811 
L 928.198988 237.939686 
L 927.202113 237.939686 
L 927.202113 236.942811 
z
M 927.202113 238.974061 
L 928.198988 238.974061 
L 928.198988 244.042811 
L 927.202113 244.042811 
L 927.202113 238.974061 
z
M 929.711878 238.974061 
L 930.708753 238.974061 
L 930.708753 244.042811 
L 929.711878 244.042811 
L 929.711878 238.974061 
z
M 932.788441 240.970936 
Q 932.788441 240.434998 932.510316 240.142811 
Q 932.232191 239.849061 931.729066 239.849061 
Q 931.240003 239.849061 930.974378 240.108436 
Q 930.708753 240.366248 930.708753 240.834998 
L 930.605628 239.858436 
Q 930.840003 239.399061 931.218128 239.150623 
Q 931.596253 238.900623 932.055628 238.900623 
Q 932.880628 238.900623 933.332191 239.441248 
Q 933.783753 239.980311 933.783753 240.966248 
L 933.783753 244.042811 
L 932.788441 244.042811 
L 932.788441 240.970936 
z
M 936.997816 246.103748 
Q 936.425941 246.103748 935.974378 245.891248 
Q 935.522816 245.678748 935.272816 245.292811 
L 935.272816 245.292811 
L 935.947816 244.681873 
L 935.947816 244.681873 
Q 936.143128 244.950623 936.413441 245.097498 
Q 936.685316 245.244373 936.982191 245.244373 
Q 937.554066 245.244373 937.866566 244.928748 
Q 938.179066 244.614686 938.179066 244.038123 
L 938.179066 238.974061 
L 939.174378 238.974061 
L 939.174378 243.891248 
Q 939.174378 244.589686 938.918128 245.088123 
Q 938.661878 245.586561 938.172816 245.844373 
Q 937.685316 246.103748 936.997816 246.103748 
z
M 936.904066 244.130311 
Q 936.347816 244.130311 935.954066 243.889686 
Q 935.561878 243.647498 935.355628 243.183436 
Q 935.150941 242.719373 935.150941 242.069373 
L 935.150941 240.952186 
Q 935.150941 240.297498 935.350941 239.833436 
Q 935.552503 239.369373 935.935316 239.128748 
Q 936.318128 238.886561 936.855628 238.886561 
Q 937.304066 238.886561 937.677503 239.120936 
Q 938.052503 239.355311 938.280628 239.780311 
L 938.179066 240.814686 
Q 938.179066 240.492811 938.061878 240.263123 
Q 937.944691 240.033436 937.721253 239.914686 
Q 937.499378 239.794373 937.182191 239.794373 
Q 936.690003 239.794373 936.418128 240.102186 
Q 936.147816 240.409998 936.147816 240.966248 
L 936.147816 242.069373 
Q 936.147816 242.622498 936.418128 242.922498 
Q 936.690003 243.222498 937.182191 243.222498 
Q 937.499378 243.222498 937.721253 243.099061 
Q 937.944691 242.974061 938.061878 242.739686 
Q 938.179066 242.505311 938.179066 242.177186 
L 938.247816 243.247498 
Q 938.096253 243.622498 937.750941 243.877186 
Q 937.407191 244.130311 936.904066 244.130311 
z
M 944.8443 244.116248 
Q 944.102113 244.116248 943.534925 243.791248 
Q 942.9693 243.466248 942.658363 242.874061 
Q 942.348988 242.280311 942.348988 241.499061 
L 942.348988 239.486561 
Q 942.348988 238.705311 942.658363 238.113123 
Q 942.9693 237.519373 943.534925 237.194373 
Q 944.102113 236.869373 944.8443 236.869373 
Q 945.586488 236.869373 946.152113 237.194373 
Q 946.7193 237.519373 947.028675 238.113123 
Q 947.339613 238.705311 947.339613 239.486561 
L 947.339613 241.499061 
Q 947.339613 242.280311 947.028675 242.874061 
Q 946.7193 243.466248 946.152113 243.791248 
Q 945.586488 244.116248 944.8443 244.116248 
z
M 944.8443 243.134998 
Q 945.283363 243.134998 945.617738 242.938123 
Q 945.952113 242.739686 946.134925 242.375623 
Q 946.317738 242.011561 946.317738 241.533436 
L 946.317738 239.452186 
Q 946.317738 238.974061 946.134925 238.611561 
Q 945.952113 238.247498 945.617738 238.049061 
Q 945.283363 237.850623 944.8443 237.850623 
Q 944.403675 237.850623 944.0693 238.049061 
Q 943.734925 238.247498 943.552113 238.611561 
Q 943.3693 238.974061 943.3693 239.452186 
L 943.3693 241.533436 
Q 943.3693 242.011561 943.552113 242.375623 
Q 943.734925 242.739686 944.0693 242.938123 
Q 944.403675 243.134998 944.8443 243.134998 
z
M 950.518128 244.042811 
L 949.521253 244.042811 
L 949.521253 238.027186 
L 948.510316 238.647498 
L 948.510316 237.616248 
L 949.521253 236.942811 
L 950.518128 236.942811 
L 950.518128 244.042811 
z
" style="fill: #ffffff"/>
   </g>
  </g>
 </g>
 <defs>
  <clipPath id="p4ac7db9ccf">
   <rect x="144" y="77.76" width="892.8" height="498.96"/>
  </clipPath>
 </defs>
</svg>
