<?xml version="1.0" encoding="utf-8" standalone="no"?>
<!DOCTYPE svg PUBLIC "-//W3C//DTD SVG 1.1//EN"
  "http://www.w3.org/Graphics/SVG/1.1/DTD/svg11.dtd">
<svg xmlns:xlink="http://www.w3.org/1999/xlink" width="1152pt" height="648pt" viewBox="0 0 1152 648" xmlns="http://www.w3.org/2000/svg" version="1.1">
 <metadata>
  <rdf:RDF xmlns:dc="http://purl.org/dc/elements/1.1/" xmlns:cc="http://creativecommons.org/ns#" xmlns:rdf="http://www.w3.org/1999/02/22-rdf-syntax-ns#">
   <cc:Work>
    <dc:type rdf:resource="http://purl.org/dc/dcmitype/StillImage"/>
    <dc:date>2025-09-19T13:51:42.675622</dc:date>
    <dc:format>image/svg+xml</dc:format>
    <dc:creator>
     <cc:Agent>
      <dc:title>Matplotlib v3.10.3, https://matplotlib.org/</dc:title>
     </cc:Agent>
    </dc:creator>
   </cc:Work>
  </rdf:RDF>
 </metadata>
 <defs>
  <style type="text/css">*{stroke-linejoin: round; stroke-linecap: butt}</style>
 </defs>
 <g id="figure_1">
  <g id="patch_1">
   <path d="M 0 648 
L 1152 648 
L 1152 0 
L 0 0 
L 0 648 
z
" style="fill: none"/>
  </g>
  <g id="axes_1">
   <g id="PathCollection_1">
    <defs>
     <path id="ma9514e7fd6" d="M 0 2.738613 
C 0.726289 2.738613 1.422928 2.450055 1.936492 1.936492 
C 2.450055 1.422928 2.738613 0.726289 2.738613 0 
C 2.738613 -0.726289 2.450055 -1.422928 1.936492 -1.936492 
C 1.422928 -2.450055 0.726289 -2.738613 0 -2.738613 
C -0.726289 -2.738613 -1.422928 -2.450055 -1.936492 -1.936492 
C -2.450055 -1.422928 -2.738613 -0.726289 -2.738613 0 
C -2.738613 0.726289 -2.450055 1.422928 -1.936492 1.936492 
C -1.422928 2.450055 -0.726289 2.738613 0 2.738613 
z
" style="stroke: #ff0000"/>
    </defs>
    <g clip-path="url(#p057237a159)">
     <use xlink:href="#ma9514e7fd6" x="411.84" y="507.98826" style="fill: #ff0000; stroke: #ff0000"/>
     <use xlink:href="#ma9514e7fd6" x="193.6" y="554.39154" style="fill: #ff0000; stroke: #ff0000"/>
    </g>
   </g>
   <g id="text_1">
    <path d="M 419.393417 506.519203 
L 422.527793 502.534828 
L 423.752792 502.534828 
L 419.246543 508.012953 
L 419.393417 506.519203 
z
M 418.612167 502.534828 
L 419.60748 502.534828 
L 419.60748 509.634828 
L 418.612167 509.634828 
L 418.612167 502.534828 
z
M 420.574668 505.845766 
L 421.360605 505.117641 
L 424.05123 509.634828 
L 422.830917 509.634828 
L 420.574668 505.845766 
z
M 427.395371 506.109828 
L 427.390683 506.284828 
Q 427.268808 506.509828 427.021933 506.614516 
Q 426.775058 506.719203 426.439121 506.719203 
Q 425.931308 506.719203 425.545371 506.461391 
Q 425.159433 506.202016 424.946933 505.731703 
Q 424.734433 505.259828 424.734433 504.639516 
L 424.734433 504.634828 
Q 424.734433 503.945766 424.965683 503.458266 
Q 425.198496 502.969203 425.645371 502.716078 
Q 426.092246 502.461391 426.717246 502.461391 
Q 427.342246 502.461391 427.785996 502.720766 
Q 428.231308 502.980141 428.462558 503.473891 
Q 428.693808 503.966078 428.693808 504.659828 
L 428.693808 504.664516 
Q 428.693808 505.044203 428.595371 505.477016 
Q 428.498496 505.909828 428.318808 506.333266 
Q 428.289121 506.397328 428.259433 506.462953 
Q 428.231308 506.528578 428.196933 506.592641 
L 426.682871 509.634828 
L 425.607871 509.634828 
L 427.395371 506.109828 
z
M 426.717246 505.811391 
Q 427.185996 505.811391 427.442246 505.494203 
Q 427.698496 505.177016 427.698496 504.600453 
L 427.698496 504.595766 
Q 427.698496 504.034828 427.442246 503.727016 
Q 427.185996 503.419203 426.717246 503.419203 
Q 426.243808 503.419203 425.987558 503.727016 
Q 425.731308 504.034828 425.731308 504.600453 
L 425.731308 504.605141 
Q 425.731308 505.181703 425.987558 505.497328 
Q 426.243808 505.811391 426.717246 505.811391 
z
M 432.039707 509.708266 
Q 431.042832 509.708266 430.527207 509.177016 
Q 430.013144 508.644203 430.013144 507.691078 
L 430.013144 504.464516 
Q 430.013144 503.506703 430.530332 502.977016 
Q 431.047519 502.447328 432.039707 502.447328 
Q 433.035019 502.447328 433.550644 502.975453 
Q 434.066269 503.502016 434.066269 504.464516 
L 434.066269 507.691078 
Q 434.066269 508.648891 433.547519 509.178578 
Q 433.030332 509.708266 432.039707 509.708266 
z
M 432.039707 508.761391 
Q 432.566269 508.761391 432.817832 508.484828 
Q 433.069394 508.208266 433.069394 507.691078 
L 433.069394 504.464516 
Q 433.069394 503.945766 432.819394 503.670766 
Q 432.570957 503.394203 432.039707 503.394203 
Q 431.506894 503.394203 431.256894 503.670766 
Q 431.008457 503.945766 431.008457 504.464516 
L 431.008457 507.691078 
Q 431.008457 508.208266 431.260019 508.484828 
Q 431.511582 508.761391 432.039707 508.761391 
z
M 435.42291 508.770766 
L 437.89791 505.469203 
Q 438.113535 505.186391 438.232285 504.881703 
Q 438.352597 504.575453 438.352597 504.312953 
L 438.352597 504.302016 
Q 438.352597 503.878578 438.102597 503.644203 
Q 437.85416 503.409828 437.396347 503.409828 
Q 436.96041 503.409828 436.69166 503.666078 
Q 436.424472 503.922328 436.365097 504.391078 
L 436.365097 504.395766 
L 435.33541 504.395766 
L 435.33541 504.391078 
Q 435.42291 503.780141 435.693222 503.348891 
Q 435.965097 502.916078 436.394785 502.689516 
Q 436.824472 502.461391 437.38541 502.461391 
Q 438.021347 502.461391 438.469785 502.678578 
Q 438.919785 502.895766 439.15416 503.311391 
Q 439.388535 503.727016 439.388535 504.312953 
L 439.388535 504.317641 
Q 439.388535 504.692641 439.232285 505.103578 
Q 439.076035 505.512953 438.796347 505.894203 
L 436.74166 508.687953 
L 439.427597 508.687953 
L 439.427597 509.634828 
L 435.42291 509.634828 
L 435.42291 508.770766 
z
M 442.7233 509.708266 
Q 441.726425 509.708266 441.2108 509.177016 
Q 440.696738 508.644203 440.696738 507.691078 
L 440.696738 504.464516 
Q 440.696738 503.506703 441.213925 502.977016 
Q 441.731113 502.447328 442.7233 502.447328 
Q 443.718613 502.447328 444.234238 502.975453 
Q 444.749863 503.502016 444.749863 504.464516 
L 444.749863 507.691078 
Q 444.749863 508.648891 444.231113 509.178578 
Q 443.713925 509.708266 442.7233 509.708266 
z
M 442.7233 508.761391 
Q 443.249863 508.761391 443.501425 508.484828 
Q 443.752988 508.208266 443.752988 507.691078 
L 443.752988 504.464516 
Q 443.752988 503.945766 443.502988 503.670766 
Q 443.25455 503.394203 442.7233 503.394203 
Q 442.190488 503.394203 441.940488 503.670766 
Q 441.69205 503.945766 441.69205 504.464516 
L 441.69205 507.691078 
Q 441.69205 508.208266 441.943613 508.484828 
Q 442.195175 508.761391 442.7233 508.761391 
z
" style="fill: #ffffff; stroke: #000000"/>
    <path d="M 419.393417 506.519203 
L 422.527793 502.534828 
L 423.752792 502.534828 
L 419.246543 508.012953 
L 419.393417 506.519203 
z
M 418.612167 502.534828 
L 419.60748 502.534828 
L 419.60748 509.634828 
L 418.612167 509.634828 
L 418.612167 502.534828 
z
M 420.574668 505.845766 
L 421.360605 505.117641 
L 424.05123 509.634828 
L 422.830917 509.634828 
L 420.574668 505.845766 
z
M 427.395371 506.109828 
L 427.390683 506.284828 
Q 427.268808 506.509828 427.021933 506.614516 
Q 426.775058 506.719203 426.439121 506.719203 
Q 425.931308 506.719203 425.545371 506.461391 
Q 425.159433 506.202016 424.946933 505.731703 
Q 424.734433 505.259828 424.734433 504.639516 
L 424.734433 504.634828 
Q 424.734433 503.945766 424.965683 503.458266 
Q 425.198496 502.969203 425.645371 502.716078 
Q 426.092246 502.461391 426.717246 502.461391 
Q 427.342246 502.461391 427.785996 502.720766 
Q 428.231308 502.980141 428.462558 503.473891 
Q 428.693808 503.966078 428.693808 504.659828 
L 428.693808 504.664516 
Q 428.693808 505.044203 428.595371 505.477016 
Q 428.498496 505.909828 428.318808 506.333266 
Q 428.289121 506.397328 428.259433 506.462953 
Q 428.231308 506.528578 428.196933 506.592641 
L 426.682871 509.634828 
L 425.607871 509.634828 
L 427.395371 506.109828 
z
M 426.717246 505.811391 
Q 427.185996 505.811391 427.442246 505.494203 
Q 427.698496 505.177016 427.698496 504.600453 
L 427.698496 504.595766 
Q 427.698496 504.034828 427.442246 503.727016 
Q 427.185996 503.419203 426.717246 503.419203 
Q 426.243808 503.419203 425.987558 503.727016 
Q 425.731308 504.034828 425.731308 504.600453 
L 425.731308 504.605141 
Q 425.731308 505.181703 425.987558 505.497328 
Q 426.243808 505.811391 426.717246 505.811391 
z
M 432.039707 509.708266 
Q 431.042832 509.708266 430.527207 509.177016 
Q 430.013144 508.644203 430.013144 507.691078 
L 430.013144 504.464516 
Q 430.013144 503.506703 430.530332 502.977016 
Q 431.047519 502.447328 432.039707 502.447328 
Q 433.035019 502.447328 433.550644 502.975453 
Q 434.066269 503.502016 434.066269 504.464516 
L 434.066269 507.691078 
Q 434.066269 508.648891 433.547519 509.178578 
Q 433.030332 509.708266 432.039707 509.708266 
z
M 432.039707 508.761391 
Q 432.566269 508.761391 432.817832 508.484828 
Q 433.069394 508.208266 433.069394 507.691078 
L 433.069394 504.464516 
Q 433.069394 503.945766 432.819394 503.670766 
Q 432.570957 503.394203 432.039707 503.394203 
Q 431.506894 503.394203 431.256894 503.670766 
Q 431.008457 503.945766 431.008457 504.464516 
L 431.008457 507.691078 
Q 431.008457 508.208266 431.260019 508.484828 
Q 431.511582 508.761391 432.039707 508.761391 
z
M 435.42291 508.770766 
L 437.89791 505.469203 
Q 438.113535 505.186391 438.232285 504.881703 
Q 438.352597 504.575453 438.352597 504.312953 
L 438.352597 504.302016 
Q 438.352597 503.878578 438.102597 503.644203 
Q 437.85416 503.409828 437.396347 503.409828 
Q 436.96041 503.409828 436.69166 503.666078 
Q 436.424472 503.922328 436.365097 504.391078 
L 436.365097 504.395766 
L 435.33541 504.395766 
L 435.33541 504.391078 
Q 435.42291 503.780141 435.693222 503.348891 
Q 435.965097 502.916078 436.394785 502.689516 
Q 436.824472 502.461391 437.38541 502.461391 
Q 438.021347 502.461391 438.469785 502.678578 
Q 438.919785 502.895766 439.15416 503.311391 
Q 439.388535 503.727016 439.388535 504.312953 
L 439.388535 504.317641 
Q 439.388535 504.692641 439.232285 505.103578 
Q 439.076035 505.512953 438.796347 505.894203 
L 436.74166 508.687953 
L 439.427597 508.687953 
L 439.427597 509.634828 
L 435.42291 509.634828 
L 435.42291 508.770766 
z
M 442.7233 509.708266 
Q 441.726425 509.708266 441.2108 509.177016 
Q 440.696738 508.644203 440.696738 507.691078 
L 440.696738 504.464516 
Q 440.696738 503.506703 441.213925 502.977016 
Q 441.731113 502.447328 442.7233 502.447328 
Q 443.718613 502.447328 444.234238 502.975453 
Q 444.749863 503.502016 444.749863 504.464516 
L 444.749863 507.691078 
Q 444.749863 508.648891 444.231113 509.178578 
Q 443.713925 509.708266 442.7233 509.708266 
z
M 442.7233 508.761391 
Q 443.249863 508.761391 443.501425 508.484828 
Q 443.752988 508.208266 443.752988 507.691078 
L 443.752988 504.464516 
Q 443.752988 503.945766 443.502988 503.670766 
Q 443.25455 503.394203 442.7233 503.394203 
Q 442.190488 503.394203 441.940488 503.670766 
Q 441.69205 503.945766 441.69205 504.464516 
L 441.69205 507.691078 
Q 441.69205 508.208266 441.943613 508.484828 
Q 442.195175 508.761391 442.7233 508.761391 
z
" style="fill: #ffffff"/>
   </g>
   <g id="text_2">
    <path d="M 201.153417 552.922483 
L 204.287792 548.938108 
L 205.512792 548.938108 
L 201.006542 554.416233 
L 201.153417 552.922483 
z
M 200.372167 548.938108 
L 201.36748 548.938108 
L 201.36748 556.038108 
L 200.372167 556.038108 
L 200.372167 548.938108 
z
M 202.334667 552.249045 
L 203.120605 551.52092 
L 205.81123 556.038108 
L 204.590917 556.038108 
L 202.334667 552.249045 
z
M 209.155371 552.513108 
L 209.150683 552.688108 
Q 209.028808 552.913108 208.781933 553.017795 
Q 208.535058 553.122483 208.199121 553.122483 
Q 207.691308 553.122483 207.305371 552.86467 
Q 206.919433 552.605296 206.706933 552.134983 
Q 206.494433 551.663108 206.494433 551.042796 
L 206.494433 551.038108 
Q 206.494433 550.349045 206.725683 549.861545 
Q 206.958496 549.372483 207.405371 549.119358 
Q 207.852246 548.86467 208.477246 548.86467 
Q 209.102246 548.86467 209.545996 549.124045 
Q 209.991308 549.38342 210.222558 549.87717 
Q 210.453808 550.369358 210.453808 551.063108 
L 210.453808 551.067795 
Q 210.453808 551.447483 210.355371 551.880295 
Q 210.258496 552.313108 210.078808 552.736545 
Q 210.049121 552.800608 210.019433 552.866233 
Q 209.991308 552.931858 209.956933 552.995921 
L 208.442871 556.038108 
L 207.367871 556.038108 
L 209.155371 552.513108 
z
M 208.477246 552.214671 
Q 208.945996 552.214671 209.202246 551.897483 
Q 209.458496 551.580295 209.458496 551.003733 
L 209.458496 550.999045 
Q 209.458496 550.438108 209.202246 550.130295 
Q 208.945996 549.822483 208.477246 549.822483 
Q 208.003808 549.822483 207.747558 550.130295 
Q 207.491308 550.438108 207.491308 551.003733 
L 207.491308 551.00842 
Q 207.491308 551.584983 207.747558 551.900608 
Q 208.003808 552.214671 208.477246 552.214671 
z
M 213.799707 556.111545 
Q 212.802832 556.111545 212.287207 555.580295 
Q 211.773144 555.047483 211.773144 554.094358 
L 211.773144 550.867795 
Q 211.773144 549.909983 212.290332 549.380295 
Q 212.807519 548.850608 213.799707 548.850608 
Q 214.795019 548.850608 215.310644 549.378733 
Q 215.826269 549.905295 215.826269 550.867795 
L 215.826269 554.094358 
Q 215.826269 555.05217 215.307519 555.581858 
Q 214.790332 556.111545 213.799707 556.111545 
z
M 213.799707 555.16467 
Q 214.326269 555.16467 214.577832 554.888108 
Q 214.829394 554.611545 214.829394 554.094358 
L 214.829394 550.867795 
Q 214.829394 550.349045 214.579394 550.074046 
Q 214.330957 549.797483 213.799707 549.797483 
Q 213.266894 549.797483 213.016894 550.074046 
Q 212.768457 550.349045 212.768457 550.867795 
L 212.768457 554.094358 
Q 212.768457 554.611545 213.020019 554.888108 
Q 213.271582 555.16467 213.799707 555.16467 
z
M 217.18291 555.174045 
L 219.65791 551.872483 
Q 219.873535 551.589671 219.992285 551.284983 
Q 220.112597 550.978733 220.112597 550.716233 
L 220.112597 550.705295 
Q 220.112597 550.281858 219.862597 550.047483 
Q 219.61416 549.813108 219.156347 549.813108 
Q 218.72041 549.813108 218.45166 550.069358 
Q 218.184472 550.325608 218.125097 550.794358 
L 218.125097 550.799045 
L 217.09541 550.799045 
L 217.09541 550.794358 
Q 217.18291 550.183421 217.453222 549.75217 
Q 217.725097 549.319358 218.154785 549.092795 
Q 218.584472 548.86467 219.14541 548.86467 
Q 219.781347 548.86467 220.229785 549.081858 
Q 220.679785 549.299045 220.91416 549.714671 
Q 221.148535 550.130295 221.148535 550.716233 
L 221.148535 550.72092 
Q 221.148535 551.09592 220.992285 551.506858 
Q 220.836035 551.916233 220.556347 552.297483 
L 218.50166 555.091233 
L 221.187597 555.091233 
L 221.187597 556.038108 
L 217.18291 556.038108 
L 217.18291 555.174045 
z
M 224.4833 556.111545 
Q 223.486425 556.111545 222.9708 555.580295 
Q 222.456738 555.047483 222.456738 554.094358 
L 222.456738 550.867795 
Q 222.456738 549.909983 222.973925 549.380295 
Q 223.491113 548.850608 224.4833 548.850608 
Q 225.478613 548.850608 225.994238 549.378733 
Q 226.509863 549.905295 226.509863 550.867795 
L 226.509863 554.094358 
Q 226.509863 555.05217 225.991113 555.581858 
Q 225.473925 556.111545 224.4833 556.111545 
z
M 224.4833 555.16467 
Q 225.009863 555.16467 225.261425 554.888108 
Q 225.512988 554.611545 225.512988 554.094358 
L 225.512988 550.867795 
Q 225.512988 550.349045 225.262988 550.074046 
Q 225.01455 549.797483 224.4833 549.797483 
Q 223.950488 549.797483 223.700488 550.074046 
Q 223.45205 550.349045 223.45205 550.867795 
L 223.45205 554.094358 
Q 223.45205 554.611545 223.703613 554.888108 
Q 223.955175 555.16467 224.4833 555.16467 
z
" style="fill: #ffffff; stroke: #000000"/>
    <path d="M 201.153417 552.922483 
L 204.287792 548.938108 
L 205.512792 548.938108 
L 201.006542 554.416233 
L 201.153417 552.922483 
z
M 200.372167 548.938108 
L 201.36748 548.938108 
L 201.36748 556.038108 
L 200.372167 556.038108 
L 200.372167 548.938108 
z
M 202.334667 552.249045 
L 203.120605 551.52092 
L 205.81123 556.038108 
L 204.590917 556.038108 
L 202.334667 552.249045 
z
M 209.155371 552.513108 
L 209.150683 552.688108 
Q 209.028808 552.913108 208.781933 553.017795 
Q 208.535058 553.122483 208.199121 553.122483 
Q 207.691308 553.122483 207.305371 552.86467 
Q 206.919433 552.605296 206.706933 552.134983 
Q 206.494433 551.663108 206.494433 551.042796 
L 206.494433 551.038108 
Q 206.494433 550.349045 206.725683 549.861545 
Q 206.958496 549.372483 207.405371 549.119358 
Q 207.852246 548.86467 208.477246 548.86467 
Q 209.102246 548.86467 209.545996 549.124045 
Q 209.991308 549.38342 210.222558 549.87717 
Q 210.453808 550.369358 210.453808 551.063108 
L 210.453808 551.067795 
Q 210.453808 551.447483 210.355371 551.880295 
Q 210.258496 552.313108 210.078808 552.736545 
Q 210.049121 552.800608 210.019433 552.866233 
Q 209.991308 552.931858 209.956933 552.995921 
L 208.442871 556.038108 
L 207.367871 556.038108 
L 209.155371 552.513108 
z
M 208.477246 552.214671 
Q 208.945996 552.214671 209.202246 551.897483 
Q 209.458496 551.580295 209.458496 551.003733 
L 209.458496 550.999045 
Q 209.458496 550.438108 209.202246 550.130295 
Q 208.945996 549.822483 208.477246 549.822483 
Q 208.003808 549.822483 207.747558 550.130295 
Q 207.491308 550.438108 207.491308 551.003733 
L 207.491308 551.00842 
Q 207.491308 551.584983 207.747558 551.900608 
Q 208.003808 552.214671 208.477246 552.214671 
z
M 213.799707 556.111545 
Q 212.802832 556.111545 212.287207 555.580295 
Q 211.773144 555.047483 211.773144 554.094358 
L 211.773144 550.867795 
Q 211.773144 549.909983 212.290332 549.380295 
Q 212.807519 548.850608 213.799707 548.850608 
Q 214.795019 548.850608 215.310644 549.378733 
Q 215.826269 549.905295 215.826269 550.867795 
L 215.826269 554.094358 
Q 215.826269 555.05217 215.307519 555.581858 
Q 214.790332 556.111545 213.799707 556.111545 
z
M 213.799707 555.16467 
Q 214.326269 555.16467 214.577832 554.888108 
Q 214.829394 554.611545 214.829394 554.094358 
L 214.829394 550.867795 
Q 214.829394 550.349045 214.579394 550.074046 
Q 214.330957 549.797483 213.799707 549.797483 
Q 213.266894 549.797483 213.016894 550.074046 
Q 212.768457 550.349045 212.768457 550.867795 
L 212.768457 554.094358 
Q 212.768457 554.611545 213.020019 554.888108 
Q 213.271582 555.16467 213.799707 555.16467 
z
M 217.18291 555.174045 
L 219.65791 551.872483 
Q 219.873535 551.589671 219.992285 551.284983 
Q 220.112597 550.978733 220.112597 550.716233 
L 220.112597 550.705295 
Q 220.112597 550.281858 219.862597 550.047483 
Q 219.61416 549.813108 219.156347 549.813108 
Q 218.72041 549.813108 218.45166 550.069358 
Q 218.184472 550.325608 218.125097 550.794358 
L 218.125097 550.799045 
L 217.09541 550.799045 
L 217.09541 550.794358 
Q 217.18291 550.183421 217.453222 549.75217 
Q 217.725097 549.319358 218.154785 549.092795 
Q 218.584472 548.86467 219.14541 548.86467 
Q 219.781347 548.86467 220.229785 549.081858 
Q 220.679785 549.299045 220.91416 549.714671 
Q 221.148535 550.130295 221.148535 550.716233 
L 221.148535 550.72092 
Q 221.148535 551.09592 220.992285 551.506858 
Q 220.836035 551.916233 220.556347 552.297483 
L 218.50166 555.091233 
L 221.187597 555.091233 
L 221.187597 556.038108 
L 217.18291 556.038108 
L 217.18291 555.174045 
z
M 224.4833 556.111545 
Q 223.486425 556.111545 222.9708 555.580295 
Q 222.456738 555.047483 222.456738 554.094358 
L 222.456738 550.867795 
Q 222.456738 549.909983 222.973925 549.380295 
Q 223.491113 548.850608 224.4833 548.850608 
Q 225.478613 548.850608 225.994238 549.378733 
Q 226.509863 549.905295 226.509863 550.867795 
L 226.509863 554.094358 
Q 226.509863 555.05217 225.991113 555.581858 
Q 225.473925 556.111545 224.4833 556.111545 
z
M 224.4833 555.16467 
Q 225.009863 555.16467 225.261425 554.888108 
Q 225.512988 554.611545 225.512988 554.094358 
L 225.512988 550.867795 
Q 225.512988 550.349045 225.262988 550.074046 
Q 225.01455 549.797483 224.4833 549.797483 
Q 223.950488 549.797483 223.700488 550.074046 
Q 223.45205 550.349045 223.45205 550.867795 
L 223.45205 554.094358 
Q 223.45205 554.611545 223.703613 554.888108 
Q 223.955175 555.16467 224.4833 555.16467 
z
" style="fill: #ffffff"/>
   </g>
  </g>
 </g>
 <defs>
  <clipPath id="p057237a159">
   <rect x="144" y="77.76" width="892.8" height="498.96"/>
  </clipPath>
 </defs>
</svg>
