<?xml version="1.0" encoding="utf-8" standalone="no"?>
<!DOCTYPE svg PUBLIC "-//W3C//DTD SVG 1.1//EN"
  "http://www.w3.org/Graphics/SVG/1.1/DTD/svg11.dtd">
<svg xmlns:xlink="http://www.w3.org/1999/xlink" width="1152pt" height="648pt" viewBox="0 0 1152 648" xmlns="http://www.w3.org/2000/svg" version="1.1">
 <metadata>
  <rdf:RDF xmlns:dc="http://purl.org/dc/elements/1.1/" xmlns:cc="http://creativecommons.org/ns#" xmlns:rdf="http://www.w3.org/1999/02/22-rdf-syntax-ns#">
   <cc:Work>
    <dc:type rdf:resource="http://purl.org/dc/dcmitype/StillImage"/>
    <dc:date>2025-09-19T13:51:42.726215</dc:date>
    <dc:format>image/svg+xml</dc:format>
    <dc:creator>
     <cc:Agent>
      <dc:title>Matplotlib v3.10.3, https://matplotlib.org/</dc:title>
     </cc:Agent>
    </dc:creator>
   </cc:Work>
  </rdf:RDF>
 </metadata>
 <defs>
  <style type="text/css">*{stroke-linejoin: round; stroke-linecap: butt}</style>
 </defs>
 <g id="figure_1">
  <g id="patch_1">
   <path d="M 0 648 
L 1152 648 
L 1152 0 
L 0 0 
L 0 648 
z
" style="fill: none"/>
  </g>
  <g id="axes_1">
   <g id="line2d_1">
    <path d="M 206 555.723258 
L 208.404848 554.028066 
L 210.809697 552.353026 
L 213.214545 550.697901 
L 215.619394 549.062454 
L 218.024242 547.446452 
L 220.429091 545.849665 
L 222.833939 544.271866 
L 225.238788 542.712829 
L 227.643636 541.172333 
L 230.048485 539.650157 
L 232.453333 538.146085 
L 234.858182 536.659902 
L 237.26303 535.191397 
L 239.667879 533.740359 
L 242.072727 532.306581 
L 244.477576 530.88986 
L 246.882424 529.489993 
L 249.287273 528.106779 
L 251.692121 526.740023 
L 254.09697 525.389527 
L 256.501818 524.055101 
L 258.906667 522.736552 
L 261.311515 521.433694 
L 263.716364 520.146339 
L 266.121212 518.874304 
L 268.526061 517.617407 
L 270.930909 516.375468 
L 273.335758 515.14831 
L 275.740606 513.935758 
L 278.145455 512.737639 
L 280.550303 511.55378 
L 282.955152 510.384014 
L 285.36 509.228171 
L 287.764848 508.086088 
L 290.169697 506.957601 
L 292.574545 505.842549 
L 294.979394 504.740772 
L 297.384242 503.652112 
L 299.789091 502.576414 
L 302.193939 501.513523 
L 304.598788 500.463288 
L 307.003636 499.425559 
L 309.408485 498.400186 
L 311.813333 497.387024 
L 314.218182 496.385927 
L 316.62303 495.396751 
L 319.027879 494.419356 
L 321.432727 493.4536 
L 323.837576 492.499347 
L 326.242424 491.556459 
L 328.647273 490.624801 
L 331.052121 489.70424 
L 333.45697 488.794643 
L 335.861818 487.895882 
L 338.266667 487.007826 
L 340.671515 486.130348 
L 343.076364 485.263324 
L 345.481212 484.406628 
L 347.886061 483.560137 
L 350.290909 482.723731 
L 352.695758 481.89729 
L 355.100606 481.080695 
L 357.505455 480.273829 
L 359.910303 479.476576 
L 362.315152 478.688822 
L 364.72 477.910455 
L 367.124848 477.141362 
L 369.529697 476.381433 
L 371.934545 475.630559 
L 374.339394 474.888632 
L 376.744242 474.155547 
L 379.149091 473.431198 
L 381.553939 472.71548 
L 383.958788 472.008292 
L 386.363636 471.309532 
L 388.768485 470.619099 
L 391.173333 469.936895 
L 393.578182 469.262821 
L 395.98303 468.596781 
L 398.387879 467.938679 
L 400.792727 467.288422 
L 403.197576 466.645914 
L 405.602424 466.011065 
L 408.007273 465.383783 
L 410.412121 464.763978 
L 412.81697 464.151561 
L 415.221818 463.546444 
L 417.626667 462.948541 
L 420.031515 462.357765 
L 422.436364 461.774031 
L 424.841212 461.197256 
L 427.246061 460.627357 
L 429.650909 460.064252 
L 432.055758 459.50786 
L 434.460606 458.958101 
L 436.865455 458.414896 
L 439.270303 457.878168 
L 441.675152 457.347839 
L 444.08 456.823833 
" clip-path="url(#p2235f42639)" style="fill: none; stroke: #30b1f2; stroke-width: 3; stroke-linecap: round"/>
   </g>
   <g id="text_1">
    <path d="M 451.881855 451.951651 
L 452.877167 451.951651 
L 452.877167 458.470401 
L 451.881855 458.470401 
L 451.881855 451.951651 
z
M 449.874042 451.370401 
L 454.88498 451.370401 
L 454.88498 452.317276 
L 449.874042 452.317276 
L 449.874042 451.370401 
z
M 457.643183 458.543838 
Q 456.940058 458.543838 456.441621 458.279776 
Q 455.944746 458.015713 455.682246 457.506338 
Q 455.421308 456.995401 455.421308 456.273526 
L 455.421308 455.701651 
Q 455.421308 454.950088 455.672871 454.418838 
Q 455.924433 453.886026 456.402558 453.607901 
Q 456.882246 453.328213 457.555683 453.328213 
Q 458.190058 453.328213 458.638496 453.646963 
Q 459.088496 453.964151 459.324433 454.564151 
Q 459.561933 455.164151 459.561933 456.004776 
L 459.561933 456.336026 
L 456.144746 456.336026 
L 456.144746 455.536026 
L 458.615058 455.536026 
L 458.615058 455.536026 
Q 458.571308 454.915713 458.294746 454.571963 
Q 458.019746 454.226651 457.555683 454.226651 
Q 456.988496 454.226651 456.679121 454.598526 
Q 456.369746 454.968838 456.369746 455.648526 
L 456.369746 456.292276 
Q 456.369746 456.921963 456.700996 457.259463 
Q 457.033808 457.596963 457.643183 457.596963 
Q 457.946308 457.596963 458.243183 457.475088 
Q 458.541621 457.351651 458.775996 457.132901 
L 458.775996 457.132901 
L 459.430683 457.786026 
L 459.430683 457.786026 
Q 459.054121 458.148526 458.585371 458.346963 
Q 458.116621 458.543838 457.643183 458.543838 
z
M 460.929511 453.401651 
L 461.926386 453.401651 
L 461.926386 458.470401 
L 460.929511 458.470401 
L 460.929511 453.401651 
z
M 464.006074 455.398526 
Q 464.006074 454.862588 463.727949 454.570401 
Q 463.449824 454.276651 462.946699 454.276651 
Q 462.457636 454.276651 462.192011 454.536026 
Q 461.926386 454.793838 461.926386 455.262588 
L 461.823261 454.286026 
Q 462.057636 453.826651 462.435761 453.578213 
Q 462.813886 453.328213 463.273261 453.328213 
Q 464.098261 453.328213 464.549824 453.868838 
Q 465.001386 454.407901 465.001386 455.393838 
L 465.001386 458.470401 
L 464.006074 458.470401 
L 464.006074 455.398526 
z
M 468.307636 458.543838 
Q 467.857636 458.543838 467.463886 458.456338 
Q 467.071699 458.367276 466.729511 458.192276 
Q 466.388886 458.015713 466.099824 457.753213 
L 466.099824 457.753213 
L 466.692011 457.025088 
L 466.692011 457.025088 
Q 467.101386 457.337588 467.506074 457.493838 
Q 467.912324 457.650088 468.307636 457.650088 
Q 468.898261 457.650088 469.193574 457.467276 
Q 469.488886 457.284463 469.488886 456.917276 
Q 469.488886 456.673526 469.327949 456.551651 
Q 469.167011 456.429776 468.927949 456.389151 
Q 468.688886 456.346963 468.254511 456.312588 
Q 468.215449 456.312588 468.170136 456.311026 
Q 468.126386 456.307901 468.087324 456.301651 
Q 468.068574 456.301651 468.048261 456.300088 
Q 468.029511 456.296963 468.009199 456.296963 
Q 467.517011 456.257901 467.174824 456.153213 
Q 466.832636 456.048526 466.606074 455.761026 
Q 466.379511 455.471963 466.379511 454.934463 
Q 466.379511 454.398526 466.598261 454.042276 
Q 466.818574 453.684463 467.252949 453.506338 
Q 467.687324 453.328213 468.342011 453.328213 
Q 468.737324 453.328213 469.095136 453.401651 
Q 469.454511 453.475088 469.781074 453.618838 
Q 470.109199 453.762588 470.412324 453.982901 
L 470.412324 453.982901 
L 469.810761 454.711026 
L 469.810761 454.711026 
Q 469.431074 454.465713 469.062324 454.343838 
Q 468.693574 454.221963 468.342011 454.221963 
Q 467.834199 454.221963 467.579511 454.395401 
Q 467.326386 454.568838 467.326386 454.915713 
Q 467.326386 455.120401 467.470136 455.223526 
Q 467.613886 455.325088 467.832636 455.359463 
Q 468.052949 455.393838 468.459199 455.418838 
Q 468.488886 455.423526 468.520136 455.423526 
Q 468.551386 455.423526 468.585761 455.428213 
Q 468.599824 455.428213 468.613886 455.428213 
Q 468.629511 455.428213 468.645136 455.432901 
Q 469.176386 455.467276 469.549824 455.575088 
Q 469.923261 455.682901 470.176386 456.000088 
Q 470.431074 456.317276 470.431074 456.917276 
Q 470.431074 457.464151 470.196699 457.823526 
Q 469.962324 458.182901 469.490449 458.364151 
Q 469.020136 458.543838 468.307636 458.543838 
z
M 473.644746 458.543838 
Q 472.985371 458.543838 472.516621 458.286026 
Q 472.047871 458.026651 471.800996 457.531338 
Q 471.554121 457.034463 471.554121 456.336026 
L 471.554121 455.511026 
Q 471.554121 454.823526 471.800996 454.332901 
Q 472.047871 453.840713 472.516621 453.584463 
Q 472.985371 453.328213 473.644746 453.328213 
Q 474.304121 453.328213 474.772871 453.584463 
Q 475.241621 453.840713 475.486933 454.332901 
Q 475.733808 454.823526 475.733808 455.511026 
L 475.733808 456.351651 
Q 475.733808 457.043838 475.486933 457.536026 
Q 475.241621 458.026651 474.772871 458.286026 
Q 474.304121 458.543838 473.644746 458.543838 
z
M 473.644746 457.596963 
Q 474.166621 457.596963 474.452558 457.270401 
Q 474.738496 456.942276 474.738496 456.351651 
L 474.738496 455.511026 
Q 474.738496 454.920401 474.452558 454.598526 
Q 474.166621 454.276651 473.644746 454.276651 
Q 473.121308 454.276651 472.835371 454.598526 
Q 472.550996 454.920401 472.550996 455.511026 
L 472.550996 456.351651 
Q 472.550996 456.942276 472.835371 457.270401 
Q 473.121308 457.596963 473.644746 457.596963 
z
M 477.150214 453.401651 
L 478.147089 453.401651 
L 478.147089 458.470401 
L 477.150214 458.470401 
L 477.150214 453.401651 
z
M 479.937714 454.603213 
Q 479.806464 454.442276 479.606464 454.359463 
Q 479.406464 454.276651 479.142402 454.276651 
Q 478.668964 454.276651 478.408027 454.537588 
Q 478.147089 454.798526 478.147089 455.262588 
L 478.043964 454.286026 
Q 478.278339 453.831338 478.648652 453.579776 
Q 479.020527 453.328213 479.468964 453.328213 
Q 479.815839 453.328213 480.097089 453.428213 
Q 480.378339 453.528213 480.587714 453.723526 
L 479.937714 454.603213 
z
M 488.078339 454.646963 
L 488.078339 455.887588 
Q 488.078339 456.678213 487.770527 457.281338 
Q 487.462714 457.884463 486.898652 458.214151 
Q 486.334589 458.543838 485.592402 458.543838 
Q 484.840839 458.543838 484.272089 458.234463 
Q 483.703339 457.923526 483.390839 457.357901 
Q 483.078339 456.790713 483.078339 456.043838 
L 483.078339 453.948526 
Q 483.078339 453.157901 483.386152 452.557901 
Q 483.693964 451.956338 484.256464 451.626651 
Q 484.820527 451.296963 485.562714 451.296963 
Q 486.173652 451.296963 486.687714 451.559463 
Q 487.203339 451.820401 487.550214 452.298526 
Q 487.897089 452.776651 488.018964 453.406338 
L 488.018964 453.406338 
L 486.940839 453.406338 
L 486.940839 453.406338 
Q 486.851777 453.050088 486.642402 452.793838 
Q 486.433027 452.537588 486.148652 452.403213 
Q 485.865839 452.268838 485.562714 452.268838 
Q 485.123652 452.268838 484.790839 452.479776 
Q 484.459589 452.689151 484.278339 453.067276 
Q 484.098652 453.445401 484.098652 453.948526 
L 484.098652 456.043838 
Q 484.098652 456.503213 484.283027 456.846963 
Q 484.468964 457.190713 484.808027 457.381338 
Q 485.148652 457.571963 485.592402 457.571963 
Q 486.031464 457.571963 486.362714 457.375088 
Q 486.695527 457.176651 486.876777 456.801651 
Q 487.058027 456.425088 487.058027 455.906338 
L 487.058027 455.598526 
L 485.617402 455.598526 
L 485.617402 454.646963 
L 488.078339 454.646963 
z
M 491.379121 458.543838 
Q 490.783808 458.543838 490.329121 458.326651 
Q 489.874433 458.109463 489.597871 457.696963 
Q 489.322871 457.284463 489.249433 456.703213 
L 489.249433 456.703213 
L 490.265058 456.703213 
L 490.265058 456.703213 
Q 490.308808 457.004776 490.455683 457.200088 
Q 490.602558 457.395401 490.833808 457.490713 
Q 491.066621 457.586026 491.379121 457.586026 
Q 491.871308 457.586026 492.144746 457.323526 
Q 492.418183 457.059463 492.418183 456.581338 
L 492.418183 456.365713 
Q 492.418183 455.832901 492.158808 455.543838 
Q 491.900996 455.253213 491.427558 455.253213 
L 490.924433 455.253213 
L 490.924433 454.304776 
L 491.427558 454.304776 
Q 491.843183 454.304776 492.071308 454.056338 
Q 492.300996 453.807901 492.300996 453.353213 
L 492.300996 453.132901 
Q 492.300996 452.714151 492.058808 452.484463 
Q 491.818183 452.254776 491.374433 452.254776 
Q 491.119746 452.254776 490.919746 452.350088 
Q 490.719746 452.445401 490.580683 452.643838 
Q 490.441621 452.840713 490.377558 453.137588 
L 490.377558 453.137588 
L 489.366621 453.137588 
L 489.366621 453.137588 
Q 489.465058 452.557901 489.735371 452.142276 
Q 490.007246 451.726651 490.421308 451.512588 
Q 490.836933 451.296963 491.374433 451.296963 
Q 492.291621 451.296963 492.794746 451.781338 
Q 493.297871 452.264151 493.297871 453.143838 
L 493.297871 453.261026 
Q 493.297871 453.792276 493.008808 454.187588 
Q 492.721308 454.582901 492.194746 454.764151 
Q 492.775996 454.890713 493.094746 455.336026 
Q 493.415058 455.779776 493.415058 456.468838 
L 493.415058 456.586026 
Q 493.415058 457.206338 493.175996 457.645401 
Q 492.936933 458.084463 492.479121 458.314151 
Q 492.022871 458.543838 491.379121 458.543838 
z
" style="fill: #ffffff; stroke: #000000"/>
    <path d="M 451.881855 451.951651 
L 452.877167 451.951651 
L 452.877167 458.470401 
L 451.881855 458.470401 
L 451.881855 451.951651 
z
M 449.874042 451.370401 
L 454.88498 451.370401 
L 454.88498 452.317276 
L 449.874042 452.317276 
L 449.874042 451.370401 
z
M 457.643183 458.543838 
Q 456.940058 458.543838 456.441621 458.279776 
Q 455.944746 458.015713 455.682246 457.506338 
Q 455.421308 456.995401 455.421308 456.273526 
L 455.421308 455.701651 
Q 455.421308 454.950088 455.672871 454.418838 
Q 455.924433 453.886026 456.402558 453.607901 
Q 456.882246 453.328213 457.555683 453.328213 
Q 458.190058 453.328213 458.638496 453.646963 
Q 459.088496 453.964151 459.324433 454.564151 
Q 459.561933 455.164151 459.561933 456.004776 
L 459.561933 456.336026 
L 456.144746 456.336026 
L 456.144746 455.536026 
L 458.615058 455.536026 
L 458.615058 455.536026 
Q 458.571308 454.915713 458.294746 454.571963 
Q 458.019746 454.226651 457.555683 454.226651 
Q 456.988496 454.226651 456.679121 454.598526 
Q 456.369746 454.968838 456.369746 455.648526 
L 456.369746 456.292276 
Q 456.369746 456.921963 456.700996 457.259463 
Q 457.033808 457.596963 457.643183 457.596963 
Q 457.946308 457.596963 458.243183 457.475088 
Q 458.541621 457.351651 458.775996 457.132901 
L 458.775996 457.132901 
L 459.430683 457.786026 
L 459.430683 457.786026 
Q 459.054121 458.148526 458.585371 458.346963 
Q 458.116621 458.543838 457.643183 458.543838 
z
M 460.929511 453.401651 
L 461.926386 453.401651 
L 461.926386 458.470401 
L 460.929511 458.470401 
L 460.929511 453.401651 
z
M 464.006074 455.398526 
Q 464.006074 454.862588 463.727949 454.570401 
Q 463.449824 454.276651 462.946699 454.276651 
Q 462.457636 454.276651 462.192011 454.536026 
Q 461.926386 454.793838 461.926386 455.262588 
L 461.823261 454.286026 
Q 462.057636 453.826651 462.435761 453.578213 
Q 462.813886 453.328213 463.273261 453.328213 
Q 464.098261 453.328213 464.549824 453.868838 
Q 465.001386 454.407901 465.001386 455.393838 
L 465.001386 458.470401 
L 464.006074 458.470401 
L 464.006074 455.398526 
z
M 468.307636 458.543838 
Q 467.857636 458.543838 467.463886 458.456338 
Q 467.071699 458.367276 466.729511 458.192276 
Q 466.388886 458.015713 466.099824 457.753213 
L 466.099824 457.753213 
L 466.692011 457.025088 
L 466.692011 457.025088 
Q 467.101386 457.337588 467.506074 457.493838 
Q 467.912324 457.650088 468.307636 457.650088 
Q 468.898261 457.650088 469.193574 457.467276 
Q 469.488886 457.284463 469.488886 456.917276 
Q 469.488886 456.673526 469.327949 456.551651 
Q 469.167011 456.429776 468.927949 456.389151 
Q 468.688886 456.346963 468.254511 456.312588 
Q 468.215449 456.312588 468.170136 456.311026 
Q 468.126386 456.307901 468.087324 456.301651 
Q 468.068574 456.301651 468.048261 456.300088 
Q 468.029511 456.296963 468.009199 456.296963 
Q 467.517011 456.257901 467.174824 456.153213 
Q 466.832636 456.048526 466.606074 455.761026 
Q 466.379511 455.471963 466.379511 454.934463 
Q 466.379511 454.398526 466.598261 454.042276 
Q 466.818574 453.684463 467.252949 453.506338 
Q 467.687324 453.328213 468.342011 453.328213 
Q 468.737324 453.328213 469.095136 453.401651 
Q 469.454511 453.475088 469.781074 453.618838 
Q 470.109199 453.762588 470.412324 453.982901 
L 470.412324 453.982901 
L 469.810761 454.711026 
L 469.810761 454.711026 
Q 469.431074 454.465713 469.062324 454.343838 
Q 468.693574 454.221963 468.342011 454.221963 
Q 467.834199 454.221963 467.579511 454.395401 
Q 467.326386 454.568838 467.326386 454.915713 
Q 467.326386 455.120401 467.470136 455.223526 
Q 467.613886 455.325088 467.832636 455.359463 
Q 468.052949 455.393838 468.459199 455.418838 
Q 468.488886 455.423526 468.520136 455.423526 
Q 468.551386 455.423526 468.585761 455.428213 
Q 468.599824 455.428213 468.613886 455.428213 
Q 468.629511 455.428213 468.645136 455.432901 
Q 469.176386 455.467276 469.549824 455.575088 
Q 469.923261 455.682901 470.176386 456.000088 
Q 470.431074 456.317276 470.431074 456.917276 
Q 470.431074 457.464151 470.196699 457.823526 
Q 469.962324 458.182901 469.490449 458.364151 
Q 469.020136 458.543838 468.307636 458.543838 
z
M 473.644746 458.543838 
Q 472.985371 458.543838 472.516621 458.286026 
Q 472.047871 458.026651 471.800996 457.531338 
Q 471.554121 457.034463 471.554121 456.336026 
L 471.554121 455.511026 
Q 471.554121 454.823526 471.800996 454.332901 
Q 472.047871 453.840713 472.516621 453.584463 
Q 472.985371 453.328213 473.644746 453.328213 
Q 474.304121 453.328213 474.772871 453.584463 
Q 475.241621 453.840713 475.486933 454.332901 
Q 475.733808 454.823526 475.733808 455.511026 
L 475.733808 456.351651 
Q 475.733808 457.043838 475.486933 457.536026 
Q 475.241621 458.026651 474.772871 458.286026 
Q 474.304121 458.543838 473.644746 458.543838 
z
M 473.644746 457.596963 
Q 474.166621 457.596963 474.452558 457.270401 
Q 474.738496 456.942276 474.738496 456.351651 
L 474.738496 455.511026 
Q 474.738496 454.920401 474.452558 454.598526 
Q 474.166621 454.276651 473.644746 454.276651 
Q 473.121308 454.276651 472.835371 454.598526 
Q 472.550996 454.920401 472.550996 455.511026 
L 472.550996 456.351651 
Q 472.550996 456.942276 472.835371 457.270401 
Q 473.121308 457.596963 473.644746 457.596963 
z
M 477.150214 453.401651 
L 478.147089 453.401651 
L 478.147089 458.470401 
L 477.150214 458.470401 
L 477.150214 453.401651 
z
M 479.937714 454.603213 
Q 479.806464 454.442276 479.606464 454.359463 
Q 479.406464 454.276651 479.142402 454.276651 
Q 478.668964 454.276651 478.408027 454.537588 
Q 478.147089 454.798526 478.147089 455.262588 
L 478.043964 454.286026 
Q 478.278339 453.831338 478.648652 453.579776 
Q 479.020527 453.328213 479.468964 453.328213 
Q 479.815839 453.328213 480.097089 453.428213 
Q 480.378339 453.528213 480.587714 453.723526 
L 479.937714 454.603213 
z
M 488.078339 454.646963 
L 488.078339 455.887588 
Q 488.078339 456.678213 487.770527 457.281338 
Q 487.462714 457.884463 486.898652 458.214151 
Q 486.334589 458.543838 485.592402 458.543838 
Q 484.840839 458.543838 484.272089 458.234463 
Q 483.703339 457.923526 483.390839 457.357901 
Q 483.078339 456.790713 483.078339 456.043838 
L 483.078339 453.948526 
Q 483.078339 453.157901 483.386152 452.557901 
Q 483.693964 451.956338 484.256464 451.626651 
Q 484.820527 451.296963 485.562714 451.296963 
Q 486.173652 451.296963 486.687714 451.559463 
Q 487.203339 451.820401 487.550214 452.298526 
Q 487.897089 452.776651 488.018964 453.406338 
L 488.018964 453.406338 
L 486.940839 453.406338 
L 486.940839 453.406338 
Q 486.851777 453.050088 486.642402 452.793838 
Q 486.433027 452.537588 486.148652 452.403213 
Q 485.865839 452.268838 485.562714 452.268838 
Q 485.123652 452.268838 484.790839 452.479776 
Q 484.459589 452.689151 484.278339 453.067276 
Q 484.098652 453.445401 484.098652 453.948526 
L 484.098652 456.043838 
Q 484.098652 456.503213 484.283027 456.846963 
Q 484.468964 457.190713 484.808027 457.381338 
Q 485.148652 457.571963 485.592402 457.571963 
Q 486.031464 457.571963 486.362714 457.375088 
Q 486.695527 457.176651 486.876777 456.801651 
Q 487.058027 456.425088 487.058027 455.906338 
L 487.058027 455.598526 
L 485.617402 455.598526 
L 485.617402 454.646963 
L 488.078339 454.646963 
z
M 491.379121 458.543838 
Q 490.783808 458.543838 490.329121 458.326651 
Q 489.874433 458.109463 489.597871 457.696963 
Q 489.322871 457.284463 489.249433 456.703213 
L 489.249433 456.703213 
L 490.265058 456.703213 
L 490.265058 456.703213 
Q 490.308808 457.004776 490.455683 457.200088 
Q 490.602558 457.395401 490.833808 457.490713 
Q 491.066621 457.586026 491.379121 457.586026 
Q 491.871308 457.586026 492.144746 457.323526 
Q 492.418183 457.059463 492.418183 456.581338 
L 492.418183 456.365713 
Q 492.418183 455.832901 492.158808 455.543838 
Q 491.900996 455.253213 491.427558 455.253213 
L 490.924433 455.253213 
L 490.924433 454.304776 
L 491.427558 454.304776 
Q 491.843183 454.304776 492.071308 454.056338 
Q 492.300996 453.807901 492.300996 453.353213 
L 492.300996 453.132901 
Q 492.300996 452.714151 492.058808 452.484463 
Q 491.818183 452.254776 491.374433 452.254776 
Q 491.119746 452.254776 490.919746 452.350088 
Q 490.719746 452.445401 490.580683 452.643838 
Q 490.441621 452.840713 490.377558 453.137588 
L 490.377558 453.137588 
L 489.366621 453.137588 
L 489.366621 453.137588 
Q 489.465058 452.557901 489.735371 452.142276 
Q 490.007246 451.726651 490.421308 451.512588 
Q 490.836933 451.296963 491.374433 451.296963 
Q 492.291621 451.296963 492.794746 451.781338 
Q 493.297871 452.264151 493.297871 453.143838 
L 493.297871 453.261026 
Q 493.297871 453.792276 493.008808 454.187588 
Q 492.721308 454.582901 492.194746 454.764151 
Q 492.775996 454.890713 493.094746 455.336026 
Q 493.415058 455.779776 493.415058 456.468838 
L 493.415058 456.586026 
Q 493.415058 457.206338 493.175996 457.645401 
Q 492.936933 458.084463 492.479121 458.314151 
Q 492.022871 458.543838 491.379121 458.543838 
z
" style="fill: #ffffff"/>
   </g>
  </g>
 </g>
 <defs>
  <clipPath id="p2235f42639">
   <rect x="144" y="77.76" width="892.8" height="498.96"/>
  </clipPath>
 </defs>
</svg>
