<?xml version="1.0" encoding="utf-8" standalone="no"?>
<!DOCTYPE svg PUBLIC "-//W3C//DTD SVG 1.1//EN"
  "http://www.w3.org/Graphics/SVG/1.1/DTD/svg11.dtd">
<svg xmlns:xlink="http://www.w3.org/1999/xlink" width="1152pt" height="648pt" viewBox="0 0 1152 648" xmlns="http://www.w3.org/2000/svg" version="1.1">
 <metadata>
  <rdf:RDF xmlns:dc="http://purl.org/dc/elements/1.1/" xmlns:cc="http://creativecommons.org/ns#" xmlns:rdf="http://www.w3.org/1999/02/22-rdf-syntax-ns#">
   <cc:Work>
    <dc:type rdf:resource="http://purl.org/dc/dcmitype/StillImage"/>
    <dc:date>2025-09-19T13:51:42.404899</dc:date>
    <dc:format>image/svg+xml</dc:format>
    <dc:creator>
     <cc:Agent>
      <dc:title>Matplotlib v3.10.3, https://matplotlib.org/</dc:title>
     </cc:Agent>
    </dc:creator>
   </cc:Work>
  </rdf:RDF>
 </metadata>
 <defs>
  <style type="text/css">*{stroke-linejoin: round; stroke-linecap: butt}</style>
 </defs>
 <g id="figure_1">
  <g id="patch_1">
   <path d="M 0 648 
L 1152 648 
L 1152 0 
L 0 0 
L 0 648 
z
" style="fill: none"/>
  </g>
  <g id="axes_1">
   <g id="PathCollection_1">
    <defs>
     <path id="m9c70f793e1" d="M 0 2.738613 
C 0.726289 2.738613 1.422928 2.450055 1.936492 1.936492 
C 2.450055 1.422928 2.738613 0.726289 2.738613 0 
C 2.738613 -0.726289 2.450055 -1.422928 1.936492 -1.936492 
C 1.422928 -2.450055 0.726289 -2.738613 0 -2.738613 
C -0.726289 -2.738613 -1.422928 -2.450055 -1.936492 -1.936492 
C -2.450055 -1.422928 -2.738613 -0.726289 -2.738613 0 
C -2.738613 0.726289 -2.450055 1.422928 -1.936492 1.936492 
C -1.422928 2.450055 -0.726289 2.738613 0 2.738613 
z
" style="stroke: #f28d79"/>
    </defs>
    <g clip-path="url(#p36a5ebabf1)">
     <use xlink:href="#m9c70f793e1" x="681.664" y="261.87624" style="fill: #f28d79; stroke: #f28d79"/>
    </g>
   </g>
   <g id="text_1">
    <path d="M 689.109605 262.575933 
L 690.715855 262.575933 
Q 691.501792 262.575933 691.933042 262.16812 
Q 692.365855 261.760308 692.365855 261.01812 
L 692.365855 258.927495 
Q 692.365855 258.185308 691.933042 257.777495 
Q 691.501792 257.369683 690.715855 257.369683 
L 689.109605 257.369683 
L 689.109605 256.422808 
L 690.686168 256.422808 
Q 691.540855 256.422808 692.145542 256.721245 
Q 692.751792 257.01812 693.06898 257.589995 
Q 693.386167 258.16187 693.386167 258.966558 
L 693.386167 260.979058 
Q 693.386167 261.783745 693.06898 262.35562 
Q 692.751792 262.927495 692.14398 263.225933 
Q 691.536167 263.522808 690.68148 263.522808 
L 689.109605 263.522808 
L 689.109605 262.575933 
z
M 688.436168 256.422808 
L 689.43148 256.422808 
L 689.43148 263.522808 
L 688.436168 263.522808 
L 688.436168 256.422808 
z
M 697.365855 259.997808 
L 697.361167 260.172808 
Q 697.239292 260.397808 696.992417 260.502495 
Q 696.745542 260.607183 696.409605 260.607183 
Q 695.901792 260.607183 695.515855 260.34937 
Q 695.129917 260.089995 694.917417 259.619683 
Q 694.704917 259.147808 694.704917 258.527495 
L 694.704917 258.522808 
Q 694.704917 257.833745 694.936168 257.346245 
Q 695.16898 256.857183 695.615855 256.604058 
Q 696.06273 256.34937 696.68773 256.34937 
Q 697.31273 256.34937 697.75648 256.608745 
Q 698.201793 256.86812 698.433042 257.36187 
Q 698.664292 257.854058 698.664292 258.547808 
L 698.664292 258.552495 
Q 698.664292 258.932183 698.565855 259.364995 
Q 698.46898 259.797808 698.289292 260.221245 
Q 698.259605 260.285308 698.229917 260.350933 
Q 698.201793 260.416558 698.167417 260.48062 
L 696.653355 263.522808 
L 695.578355 263.522808 
L 697.365855 259.997808 
z
M 696.68773 259.69937 
Q 697.15648 259.69937 697.41273 259.382183 
Q 697.66898 259.064995 697.66898 258.488433 
L 697.66898 258.483745 
Q 697.66898 257.922808 697.41273 257.614995 
Q 697.15648 257.307183 696.68773 257.307183 
Q 696.214292 257.307183 695.958042 257.614995 
Q 695.701793 257.922808 695.701793 258.488433 
L 695.701793 258.49312 
Q 695.701793 259.069683 695.958042 259.385308 
Q 696.214292 259.69937 696.68773 259.69937 
z
M 699.885191 261.569683 
L 702.268003 256.427495 
L 703.294566 256.427495 
L 700.969566 261.510308 
L 704.450816 261.510308 
L 704.450816 262.433745 
L 699.885191 262.433745 
L 699.885191 261.569683 
z
M 702.947691 259.347808 
L 703.919566 259.347808 
L 703.919566 263.527495 
L 702.947691 263.527495 
L 702.947691 259.347808 
z
M 707.698667 263.596245 
Q 706.701793 263.596245 706.186168 263.064995 
Q 705.672105 262.532183 705.672105 261.579058 
L 705.672105 258.352495 
Q 705.672105 257.394683 706.189292 256.864995 
Q 706.70648 256.335308 707.698667 256.335308 
Q 708.69398 256.335308 709.209605 256.863433 
Q 709.72523 257.389995 709.72523 258.352495 
L 709.72523 261.579058 
Q 709.72523 262.53687 709.20648 263.066558 
Q 708.689292 263.596245 707.698667 263.596245 
z
M 707.698667 262.64937 
Q 708.22523 262.64937 708.476792 262.372808 
Q 708.728355 262.096245 708.728355 261.579058 
L 708.728355 258.352495 
Q 708.728355 257.833745 708.478355 257.558745 
Q 708.229917 257.282183 707.698667 257.282183 
Q 707.165855 257.282183 706.915855 257.558745 
Q 706.667417 257.833745 706.667417 258.352495 
L 706.667417 261.579058 
Q 706.667417 262.096245 706.91898 262.372808 
Q 707.170543 262.64937 707.698667 262.64937 
z
M 713.216246 263.596245 
Q 712.219371 263.596245 711.703746 263.064995 
Q 711.189683 262.532183 711.189683 261.579058 
L 711.189683 258.352495 
Q 711.189683 257.394683 711.706871 256.864995 
Q 712.224058 256.335308 713.216246 256.335308 
Q 714.211558 256.335308 714.727183 256.863433 
Q 715.242808 257.389995 715.242808 258.352495 
L 715.242808 261.579058 
Q 715.242808 262.53687 714.724058 263.066558 
Q 714.206871 263.596245 713.216246 263.596245 
z
M 713.216246 262.64937 
Q 713.742808 262.64937 713.994371 262.372808 
Q 714.245933 262.096245 714.245933 261.579058 
L 714.245933 258.352495 
Q 714.245933 257.833745 713.995933 257.558745 
Q 713.747496 257.282183 713.216246 257.282183 
Q 712.683433 257.282183 712.433433 257.558745 
Q 712.184996 257.833745 712.184996 258.352495 
L 712.184996 261.579058 
Q 712.184996 262.096245 712.436558 262.372808 
Q 712.688121 262.64937 713.216246 262.64937 
z
M 720.295933 265.050933 
Q 719.427183 264.108745 718.994371 262.939995 
Q 718.563121 261.769683 718.563121 260.358745 
Q 718.563121 258.947808 718.994371 257.779058 
Q 719.427183 256.608745 720.295933 255.666558 
L 720.978746 256.28687 
Q 720.242808 257.107183 719.875621 258.122808 
Q 719.509996 259.138433 719.509996 260.358745 
Q 719.509996 261.579058 719.875621 262.594683 
Q 720.242808 263.610308 720.978746 264.435308 
L 720.295933 265.050933 
z
M 723.889488 263.596245 
Q 723.245738 263.596245 722.756675 263.352495 
Q 722.269175 263.107183 722.001988 262.660308 
Q 721.736363 262.213433 721.736363 261.622808 
L 721.736363 261.50562 
Q 721.736363 260.97437 722.001988 260.50562 
Q 722.269175 260.03687 722.712925 259.797808 
Q 722.336363 259.591558 722.1098 259.204058 
Q 721.883238 258.814995 721.883238 258.385308 
L 721.883238 258.214995 
Q 721.883238 257.658745 722.131675 257.23687 
Q 722.380113 256.813433 722.8348 256.582183 
Q 723.289488 256.34937 723.889488 256.34937 
Q 724.489488 256.34937 724.944175 256.582183 
Q 725.398863 256.813433 725.6473 257.23687 
Q 725.895738 257.658745 725.895738 258.214995 
L 725.895738 258.385308 
Q 725.895738 258.825933 725.664488 259.21187 
Q 725.433238 259.596245 725.051988 259.797808 
Q 725.500425 260.041558 725.770738 260.508745 
Q 726.042613 260.97437 726.042613 261.50562 
L 726.042613 261.622808 
Q 726.042613 262.213433 725.776988 262.660308 
Q 725.511363 263.107183 725.0223 263.352495 
Q 724.5348 263.596245 723.889488 263.596245 
z
M 723.889488 262.638433 
Q 724.236363 262.638433 724.498863 262.502495 
Q 724.762925 262.364995 724.906675 262.119683 
Q 725.051988 261.872808 725.051988 261.54937 
L 725.051988 261.482183 
Q 725.051988 261.154058 724.906675 260.908745 
Q 724.762925 260.66187 724.498863 260.525933 
Q 724.236363 260.388433 723.889488 260.388433 
Q 723.542613 260.388433 723.27855 260.525933 
Q 723.01605 260.66187 722.870738 260.910308 
Q 722.726988 261.158745 722.726988 261.48687 
L 722.726988 261.560308 
Q 722.726988 261.882183 722.870738 262.125933 
Q 723.01605 262.369683 723.27855 262.504058 
Q 723.542613 262.638433 723.889488 262.638433 
z
M 723.889488 259.43062 
Q 724.187925 259.43062 724.41605 259.302495 
Q 724.645738 259.172808 724.7723 258.933745 
Q 724.900425 258.69312 724.900425 258.38062 
L 724.900425 258.313433 
Q 724.900425 258.014995 724.7723 257.785308 
Q 724.645738 257.55562 724.41605 257.432183 
Q 724.187925 257.307183 723.889488 257.307183 
Q 723.59105 257.307183 723.361363 257.432183 
Q 723.133238 257.55562 723.005113 257.785308 
Q 722.87855 258.014995 722.87855 258.31812 
L 722.87855 258.391558 
Q 722.87855 258.697808 723.005113 258.935308 
Q 723.133238 259.172808 723.361363 259.302495 
Q 723.59105 259.43062 723.889488 259.43062 
z
M 729.417613 263.596245 
Q 728.880113 263.596245 728.461363 263.38687 
Q 728.044175 263.175933 727.783238 262.775933 
Q 727.5223 262.375933 727.4348 261.813433 
L 727.4348 261.808745 
L 728.430113 261.808745 
L 728.430113 261.813433 
Q 728.4848 262.204058 728.742613 262.421245 
Q 729.001988 262.638433 729.417613 262.638433 
Q 729.895738 262.638433 730.156675 262.319683 
Q 730.417613 261.99937 730.417613 261.41812 
L 730.417613 260.822808 
Q 730.417613 260.246245 730.156675 259.927495 
Q 729.895738 259.607183 729.417613 259.607183 
Q 729.158238 259.607183 728.919175 259.754058 
Q 728.680113 259.89937 728.498863 260.163433 
L 727.59105 260.163433 
L 727.59105 256.422808 
L 731.208238 256.422808 
L 731.208238 257.369683 
L 728.586363 257.369683 
L 728.586363 258.966558 
Q 728.7723 258.814995 729.001988 258.732183 
Q 729.231675 258.64937 729.470738 258.64937 
Q 730.086363 258.64937 730.5223 258.904058 
Q 730.9598 259.157183 731.186363 259.646245 
Q 731.414488 260.133745 731.414488 260.822808 
L 731.414488 261.41812 
Q 731.414488 262.107183 731.180113 262.596245 
Q 730.945738 263.083745 730.495738 263.339995 
Q 730.0473 263.596245 729.417613 263.596245 
z
M 734.715074 263.596245 
Q 734.119761 263.596245 733.665074 263.379058 
Q 733.210386 263.16187 732.933824 262.74937 
Q 732.658824 262.33687 732.585386 261.75562 
L 732.585386 261.75562 
L 733.601011 261.75562 
L 733.601011 261.75562 
Q 733.644761 262.057183 733.791636 262.252495 
Q 733.938511 262.447808 734.169761 262.54312 
Q 734.402574 262.638433 734.715074 262.638433 
Q 735.207261 262.638433 735.480699 262.375933 
Q 735.754136 262.11187 735.754136 261.633745 
L 735.754136 261.41812 
Q 735.754136 260.885308 735.494761 260.596245 
Q 735.236949 260.30562 734.763511 260.30562 
L 734.260386 260.30562 
L 734.260386 259.357183 
L 734.763511 259.357183 
Q 735.179136 259.357183 735.407261 259.108745 
Q 735.636949 258.860308 735.636949 258.40562 
L 735.636949 258.185308 
Q 735.636949 257.766558 735.394761 257.53687 
Q 735.154136 257.307183 734.710386 257.307183 
Q 734.455699 257.307183 734.255699 257.402495 
Q 734.055699 257.497808 733.916636 257.696245 
Q 733.777574 257.89312 733.713511 258.189995 
L 733.713511 258.189995 
L 732.702574 258.189995 
L 732.702574 258.189995 
Q 732.801011 257.610308 733.071324 257.194683 
Q 733.343199 256.779058 733.757261 256.564995 
Q 734.172886 256.34937 734.710386 256.34937 
Q 735.627574 256.34937 736.130699 256.833745 
Q 736.633824 257.316558 736.633824 258.196245 
L 736.633824 258.313433 
Q 736.633824 258.844683 736.344761 259.239995 
Q 736.057261 259.635308 735.530699 259.816558 
Q 736.111949 259.94312 736.430699 260.388433 
Q 736.751011 260.832183 736.751011 261.521245 
L 736.751011 261.638433 
Q 736.751011 262.258745 736.511949 262.697808 
Q 736.272886 263.13687 735.815074 263.366558 
Q 735.358824 263.596245 734.715074 263.596245 
z
M 740.00316 263.596245 
Q 739.407847 263.596245 738.95316 263.379058 
Q 738.498472 263.16187 738.22191 262.74937 
Q 737.94691 262.33687 737.873472 261.75562 
L 737.873472 261.75562 
L 738.889097 261.75562 
L 738.889097 261.75562 
Q 738.932847 262.057183 739.079722 262.252495 
Q 739.226597 262.447808 739.457847 262.54312 
Q 739.69066 262.638433 740.00316 262.638433 
Q 740.495347 262.638433 740.768785 262.375933 
Q 741.042222 262.11187 741.042222 261.633745 
L 741.042222 261.41812 
Q 741.042222 260.885308 740.782847 260.596245 
Q 740.525035 260.30562 740.051597 260.30562 
L 739.548472 260.30562 
L 739.548472 259.357183 
L 740.051597 259.357183 
Q 740.467222 259.357183 740.695347 259.108745 
Q 740.925035 258.860308 740.925035 258.40562 
L 740.925035 258.185308 
Q 740.925035 257.766558 740.682847 257.53687 
Q 740.442222 257.307183 739.998472 257.307183 
Q 739.743785 257.307183 739.543785 257.402495 
Q 739.343785 257.497808 739.204722 257.696245 
Q 739.06566 257.89312 739.001597 258.189995 
L 739.001597 258.189995 
L 737.99066 258.189995 
L 737.99066 258.189995 
Q 738.089097 257.610308 738.35941 257.194683 
Q 738.631285 256.779058 739.045347 256.564995 
Q 739.460972 256.34937 739.998472 256.34937 
Q 740.91566 256.34937 741.418785 256.833745 
Q 741.92191 257.316558 741.92191 258.196245 
L 741.92191 258.313433 
Q 741.92191 258.844683 741.632847 259.239995 
Q 741.345347 259.635308 740.818785 259.816558 
Q 741.400035 259.94312 741.718785 260.388433 
Q 742.039097 260.832183 742.039097 261.521245 
L 742.039097 261.638433 
Q 742.039097 262.258745 741.800035 262.697808 
Q 741.560972 263.13687 741.10316 263.366558 
Q 740.64691 263.596245 740.00316 263.596245 
z
M 742.820933 264.435308 
Q 743.556871 263.610308 743.922496 262.594683 
Q 744.289683 261.579058 744.289683 260.358745 
Q 744.289683 259.138433 743.922496 258.122808 
Q 743.556871 257.107183 742.820933 256.28687 
L 743.503746 255.666558 
Q 744.372496 256.608745 744.803746 257.779058 
Q 745.236558 258.947808 745.236558 260.358745 
Q 745.236558 261.769683 744.803746 262.939995 
Q 744.372496 264.108745 743.503746 265.050933 
L 742.820933 264.435308 
z
" style="fill: #ffffff; stroke: #000000"/>
    <path d="M 689.109605 262.575933 
L 690.715855 262.575933 
Q 691.501792 262.575933 691.933042 262.16812 
Q 692.365855 261.760308 692.365855 261.01812 
L 692.365855 258.927495 
Q 692.365855 258.185308 691.933042 257.777495 
Q 691.501792 257.369683 690.715855 257.369683 
L 689.109605 257.369683 
L 689.109605 256.422808 
L 690.686168 256.422808 
Q 691.540855 256.422808 692.145542 256.721245 
Q 692.751792 257.01812 693.06898 257.589995 
Q 693.386167 258.16187 693.386167 258.966558 
L 693.386167 260.979058 
Q 693.386167 261.783745 693.06898 262.35562 
Q 692.751792 262.927495 692.14398 263.225933 
Q 691.536167 263.522808 690.68148 263.522808 
L 689.109605 263.522808 
L 689.109605 262.575933 
z
M 688.436168 256.422808 
L 689.43148 256.422808 
L 689.43148 263.522808 
L 688.436168 263.522808 
L 688.436168 256.422808 
z
M 697.365855 259.997808 
L 697.361167 260.172808 
Q 697.239292 260.397808 696.992417 260.502495 
Q 696.745542 260.607183 696.409605 260.607183 
Q 695.901792 260.607183 695.515855 260.34937 
Q 695.129917 260.089995 694.917417 259.619683 
Q 694.704917 259.147808 694.704917 258.527495 
L 694.704917 258.522808 
Q 694.704917 257.833745 694.936168 257.346245 
Q 695.16898 256.857183 695.615855 256.604058 
Q 696.06273 256.34937 696.68773 256.34937 
Q 697.31273 256.34937 697.75648 256.608745 
Q 698.201793 256.86812 698.433042 257.36187 
Q 698.664292 257.854058 698.664292 258.547808 
L 698.664292 258.552495 
Q 698.664292 258.932183 698.565855 259.364995 
Q 698.46898 259.797808 698.289292 260.221245 
Q 698.259605 260.285308 698.229917 260.350933 
Q 698.201793 260.416558 698.167417 260.48062 
L 696.653355 263.522808 
L 695.578355 263.522808 
L 697.365855 259.997808 
z
M 696.68773 259.69937 
Q 697.15648 259.69937 697.41273 259.382183 
Q 697.66898 259.064995 697.66898 258.488433 
L 697.66898 258.483745 
Q 697.66898 257.922808 697.41273 257.614995 
Q 697.15648 257.307183 696.68773 257.307183 
Q 696.214292 257.307183 695.958042 257.614995 
Q 695.701793 257.922808 695.701793 258.488433 
L 695.701793 258.49312 
Q 695.701793 259.069683 695.958042 259.385308 
Q 696.214292 259.69937 696.68773 259.69937 
z
M 699.885191 261.569683 
L 702.268003 256.427495 
L 703.294566 256.427495 
L 700.969566 261.510308 
L 704.450816 261.510308 
L 704.450816 262.433745 
L 699.885191 262.433745 
L 699.885191 261.569683 
z
M 702.947691 259.347808 
L 703.919566 259.347808 
L 703.919566 263.527495 
L 702.947691 263.527495 
L 702.947691 259.347808 
z
M 707.698667 263.596245 
Q 706.701793 263.596245 706.186168 263.064995 
Q 705.672105 262.532183 705.672105 261.579058 
L 705.672105 258.352495 
Q 705.672105 257.394683 706.189292 256.864995 
Q 706.70648 256.335308 707.698667 256.335308 
Q 708.69398 256.335308 709.209605 256.863433 
Q 709.72523 257.389995 709.72523 258.352495 
L 709.72523 261.579058 
Q 709.72523 262.53687 709.20648 263.066558 
Q 708.689292 263.596245 707.698667 263.596245 
z
M 707.698667 262.64937 
Q 708.22523 262.64937 708.476792 262.372808 
Q 708.728355 262.096245 708.728355 261.579058 
L 708.728355 258.352495 
Q 708.728355 257.833745 708.478355 257.558745 
Q 708.229917 257.282183 707.698667 257.282183 
Q 707.165855 257.282183 706.915855 257.558745 
Q 706.667417 257.833745 706.667417 258.352495 
L 706.667417 261.579058 
Q 706.667417 262.096245 706.91898 262.372808 
Q 707.170543 262.64937 707.698667 262.64937 
z
M 713.216246 263.596245 
Q 712.219371 263.596245 711.703746 263.064995 
Q 711.189683 262.532183 711.189683 261.579058 
L 711.189683 258.352495 
Q 711.189683 257.394683 711.706871 256.864995 
Q 712.224058 256.335308 713.216246 256.335308 
Q 714.211558 256.335308 714.727183 256.863433 
Q 715.242808 257.389995 715.242808 258.352495 
L 715.242808 261.579058 
Q 715.242808 262.53687 714.724058 263.066558 
Q 714.206871 263.596245 713.216246 263.596245 
z
M 713.216246 262.64937 
Q 713.742808 262.64937 713.994371 262.372808 
Q 714.245933 262.096245 714.245933 261.579058 
L 714.245933 258.352495 
Q 714.245933 257.833745 713.995933 257.558745 
Q 713.747496 257.282183 713.216246 257.282183 
Q 712.683433 257.282183 712.433433 257.558745 
Q 712.184996 257.833745 712.184996 258.352495 
L 712.184996 261.579058 
Q 712.184996 262.096245 712.436558 262.372808 
Q 712.688121 262.64937 713.216246 262.64937 
z
M 720.295933 265.050933 
Q 719.427183 264.108745 718.994371 262.939995 
Q 718.563121 261.769683 718.563121 260.358745 
Q 718.563121 258.947808 718.994371 257.779058 
Q 719.427183 256.608745 720.295933 255.666558 
L 720.978746 256.28687 
Q 720.242808 257.107183 719.875621 258.122808 
Q 719.509996 259.138433 719.509996 260.358745 
Q 719.509996 261.579058 719.875621 262.594683 
Q 720.242808 263.610308 720.978746 264.435308 
L 720.295933 265.050933 
z
M 723.889488 263.596245 
Q 723.245738 263.596245 722.756675 263.352495 
Q 722.269175 263.107183 722.001988 262.660308 
Q 721.736363 262.213433 721.736363 261.622808 
L 721.736363 261.50562 
Q 721.736363 260.97437 722.001988 260.50562 
Q 722.269175 260.03687 722.712925 259.797808 
Q 722.336363 259.591558 722.1098 259.204058 
Q 721.883238 258.814995 721.883238 258.385308 
L 721.883238 258.214995 
Q 721.883238 257.658745 722.131675 257.23687 
Q 722.380113 256.813433 722.8348 256.582183 
Q 723.289488 256.34937 723.889488 256.34937 
Q 724.489488 256.34937 724.944175 256.582183 
Q 725.398863 256.813433 725.6473 257.23687 
Q 725.895738 257.658745 725.895738 258.214995 
L 725.895738 258.385308 
Q 725.895738 258.825933 725.664488 259.21187 
Q 725.433238 259.596245 725.051988 259.797808 
Q 725.500425 260.041558 725.770738 260.508745 
Q 726.042613 260.97437 726.042613 261.50562 
L 726.042613 261.622808 
Q 726.042613 262.213433 725.776988 262.660308 
Q 725.511363 263.107183 725.0223 263.352495 
Q 724.5348 263.596245 723.889488 263.596245 
z
M 723.889488 262.638433 
Q 724.236363 262.638433 724.498863 262.502495 
Q 724.762925 262.364995 724.906675 262.119683 
Q 725.051988 261.872808 725.051988 261.54937 
L 725.051988 261.482183 
Q 725.051988 261.154058 724.906675 260.908745 
Q 724.762925 260.66187 724.498863 260.525933 
Q 724.236363 260.388433 723.889488 260.388433 
Q 723.542613 260.388433 723.27855 260.525933 
Q 723.01605 260.66187 722.870738 260.910308 
Q 722.726988 261.158745 722.726988 261.48687 
L 722.726988 261.560308 
Q 722.726988 261.882183 722.870738 262.125933 
Q 723.01605 262.369683 723.27855 262.504058 
Q 723.542613 262.638433 723.889488 262.638433 
z
M 723.889488 259.43062 
Q 724.187925 259.43062 724.41605 259.302495 
Q 724.645738 259.172808 724.7723 258.933745 
Q 724.900425 258.69312 724.900425 258.38062 
L 724.900425 258.313433 
Q 724.900425 258.014995 724.7723 257.785308 
Q 724.645738 257.55562 724.41605 257.432183 
Q 724.187925 257.307183 723.889488 257.307183 
Q 723.59105 257.307183 723.361363 257.432183 
Q 723.133238 257.55562 723.005113 257.785308 
Q 722.87855 258.014995 722.87855 258.31812 
L 722.87855 258.391558 
Q 722.87855 258.697808 723.005113 258.935308 
Q 723.133238 259.172808 723.361363 259.302495 
Q 723.59105 259.43062 723.889488 259.43062 
z
M 729.417613 263.596245 
Q 728.880113 263.596245 728.461363 263.38687 
Q 728.044175 263.175933 727.783238 262.775933 
Q 727.5223 262.375933 727.4348 261.813433 
L 727.4348 261.808745 
L 728.430113 261.808745 
L 728.430113 261.813433 
Q 728.4848 262.204058 728.742613 262.421245 
Q 729.001988 262.638433 729.417613 262.638433 
Q 729.895738 262.638433 730.156675 262.319683 
Q 730.417613 261.99937 730.417613 261.41812 
L 730.417613 260.822808 
Q 730.417613 260.246245 730.156675 259.927495 
Q 729.895738 259.607183 729.417613 259.607183 
Q 729.158238 259.607183 728.919175 259.754058 
Q 728.680113 259.89937 728.498863 260.163433 
L 727.59105 260.163433 
L 727.59105 256.422808 
L 731.208238 256.422808 
L 731.208238 257.369683 
L 728.586363 257.369683 
L 728.586363 258.966558 
Q 728.7723 258.814995 729.001988 258.732183 
Q 729.231675 258.64937 729.470738 258.64937 
Q 730.086363 258.64937 730.5223 258.904058 
Q 730.9598 259.157183 731.186363 259.646245 
Q 731.414488 260.133745 731.414488 260.822808 
L 731.414488 261.41812 
Q 731.414488 262.107183 731.180113 262.596245 
Q 730.945738 263.083745 730.495738 263.339995 
Q 730.0473 263.596245 729.417613 263.596245 
z
M 734.715074 263.596245 
Q 734.119761 263.596245 733.665074 263.379058 
Q 733.210386 263.16187 732.933824 262.74937 
Q 732.658824 262.33687 732.585386 261.75562 
L 732.585386 261.75562 
L 733.601011 261.75562 
L 733.601011 261.75562 
Q 733.644761 262.057183 733.791636 262.252495 
Q 733.938511 262.447808 734.169761 262.54312 
Q 734.402574 262.638433 734.715074 262.638433 
Q 735.207261 262.638433 735.480699 262.375933 
Q 735.754136 262.11187 735.754136 261.633745 
L 735.754136 261.41812 
Q 735.754136 260.885308 735.494761 260.596245 
Q 735.236949 260.30562 734.763511 260.30562 
L 734.260386 260.30562 
L 734.260386 259.357183 
L 734.763511 259.357183 
Q 735.179136 259.357183 735.407261 259.108745 
Q 735.636949 258.860308 735.636949 258.40562 
L 735.636949 258.185308 
Q 735.636949 257.766558 735.394761 257.53687 
Q 735.154136 257.307183 734.710386 257.307183 
Q 734.455699 257.307183 734.255699 257.402495 
Q 734.055699 257.497808 733.916636 257.696245 
Q 733.777574 257.89312 733.713511 258.189995 
L 733.713511 258.189995 
L 732.702574 258.189995 
L 732.702574 258.189995 
Q 732.801011 257.610308 733.071324 257.194683 
Q 733.343199 256.779058 733.757261 256.564995 
Q 734.172886 256.34937 734.710386 256.34937 
Q 735.627574 256.34937 736.130699 256.833745 
Q 736.633824 257.316558 736.633824 258.196245 
L 736.633824 258.313433 
Q 736.633824 258.844683 736.344761 259.239995 
Q 736.057261 259.635308 735.530699 259.816558 
Q 736.111949 259.94312 736.430699 260.388433 
Q 736.751011 260.832183 736.751011 261.521245 
L 736.751011 261.638433 
Q 736.751011 262.258745 736.511949 262.697808 
Q 736.272886 263.13687 735.815074 263.366558 
Q 735.358824 263.596245 734.715074 263.596245 
z
M 740.00316 263.596245 
Q 739.407847 263.596245 738.95316 263.379058 
Q 738.498472 263.16187 738.22191 262.74937 
Q 737.94691 262.33687 737.873472 261.75562 
L 737.873472 261.75562 
L 738.889097 261.75562 
L 738.889097 261.75562 
Q 738.932847 262.057183 739.079722 262.252495 
Q 739.226597 262.447808 739.457847 262.54312 
Q 739.69066 262.638433 740.00316 262.638433 
Q 740.495347 262.638433 740.768785 262.375933 
Q 741.042222 262.11187 741.042222 261.633745 
L 741.042222 261.41812 
Q 741.042222 260.885308 740.782847 260.596245 
Q 740.525035 260.30562 740.051597 260.30562 
L 739.548472 260.30562 
L 739.548472 259.357183 
L 740.051597 259.357183 
Q 740.467222 259.357183 740.695347 259.108745 
Q 740.925035 258.860308 740.925035 258.40562 
L 740.925035 258.185308 
Q 740.925035 257.766558 740.682847 257.53687 
Q 740.442222 257.307183 739.998472 257.307183 
Q 739.743785 257.307183 739.543785 257.402495 
Q 739.343785 257.497808 739.204722 257.696245 
Q 739.06566 257.89312 739.001597 258.189995 
L 739.001597 258.189995 
L 737.99066 258.189995 
L 737.99066 258.189995 
Q 738.089097 257.610308 738.35941 257.194683 
Q 738.631285 256.779058 739.045347 256.564995 
Q 739.460972 256.34937 739.998472 256.34937 
Q 740.91566 256.34937 741.418785 256.833745 
Q 741.92191 257.316558 741.92191 258.196245 
L 741.92191 258.313433 
Q 741.92191 258.844683 741.632847 259.239995 
Q 741.345347 259.635308 740.818785 259.816558 
Q 741.400035 259.94312 741.718785 260.388433 
Q 742.039097 260.832183 742.039097 261.521245 
L 742.039097 261.638433 
Q 742.039097 262.258745 741.800035 262.697808 
Q 741.560972 263.13687 741.10316 263.366558 
Q 740.64691 263.596245 740.00316 263.596245 
z
M 742.820933 264.435308 
Q 743.556871 263.610308 743.922496 262.594683 
Q 744.289683 261.579058 744.289683 260.358745 
Q 744.289683 259.138433 743.922496 258.122808 
Q 743.556871 257.107183 742.820933 256.28687 
L 743.503746 255.666558 
Q 744.372496 256.608745 744.803746 257.779058 
Q 745.236558 258.947808 745.236558 260.358745 
Q 745.236558 261.769683 744.803746 262.939995 
Q 744.372496 264.108745 743.503746 265.050933 
L 742.820933 264.435308 
z
" style="fill: #ffffff"/>
   </g>
  </g>
 </g>
 <defs>
  <clipPath id="p36a5ebabf1">
   <rect x="144" y="77.76" width="892.8" height="498.96"/>
  </clipPath>
 </defs>
</svg>
