<?xml version="1.0" encoding="utf-8" standalone="no"?>
<!DOCTYPE svg PUBLIC "-//W3C//DTD SVG 1.1//EN"
  "http://www.w3.org/Graphics/SVG/1.1/DTD/svg11.dtd">
<svg xmlns:xlink="http://www.w3.org/1999/xlink" width="1152pt" height="648pt" viewBox="0 0 1152 648" xmlns="http://www.w3.org/2000/svg" version="1.1">
 <metadata>
  <rdf:RDF xmlns:dc="http://purl.org/dc/elements/1.1/" xmlns:cc="http://creativecommons.org/ns#" xmlns:rdf="http://www.w3.org/1999/02/22-rdf-syntax-ns#">
   <cc:Work>
    <dc:type rdf:resource="http://purl.org/dc/dcmitype/StillImage"/>
    <dc:date>2025-09-19T13:51:42.500170</dc:date>
    <dc:format>image/svg+xml</dc:format>
    <dc:creator>
     <cc:Agent>
      <dc:title>Matplotlib v3.10.3, https://matplotlib.org/</dc:title>
     </cc:Agent>
    </dc:creator>
   </cc:Work>
  </rdf:RDF>
 </metadata>
 <defs>
  <style type="text/css">*{stroke-linejoin: round; stroke-linecap: butt}</style>
 </defs>
 <g id="figure_1">
  <g id="patch_1">
   <path d="M 0 648 
L 1152 648 
L 1152 0 
L 0 0 
L 0 648 
z
" style="fill: none"/>
  </g>
  <g id="axes_1">
   <g id="line2d_1">
    <path d="M 237.248 513.494282 
L 241.752081 509.856779 
L 246.256162 506.262729 
L 250.760242 502.712312 
L 255.264323 499.205684 
L 259.768404 495.742971 
L 264.272485 492.324274 
L 268.776566 488.949667 
L 273.280646 485.6192 
L 277.784727 482.332896 
L 282.288808 479.090756 
L 286.792889 475.892755 
L 291.29697 472.738846 
L 295.801051 469.628962 
L 300.305131 466.563011 
L 304.809212 463.540881 
L 309.313293 460.562441 
L 313.817374 457.627541 
L 318.321455 454.736008 
L 322.825535 451.887656 
L 327.329616 449.082279 
L 331.833697 446.319653 
L 336.337778 443.599541 
L 340.841859 440.921688 
L 345.345939 438.285826 
L 349.85002 435.691672 
L 354.354101 433.13893 
L 358.858182 430.627292 
L 363.362263 428.156435 
L 367.866343 425.726029 
L 372.370424 423.33573 
L 376.874505 420.985185 
L 381.378586 418.674031 
L 385.882667 416.401897 
L 390.386747 414.168403 
L 394.890828 411.973161 
L 399.394909 409.815777 
L 403.89899 407.695848 
L 408.403071 405.612967 
L 412.907152 403.566721 
L 417.411232 401.556691 
L 421.915313 399.582455 
L 426.419394 397.643586 
L 430.923475 395.739652 
L 435.427556 393.87022 
L 439.931636 392.034853 
L 444.435717 390.233112 
L 448.939798 388.464556 
L 453.443879 386.728743 
L 457.94796 385.025229 
L 462.45204 383.353569 
L 466.956121 381.713318 
L 471.460202 380.104032 
L 475.964283 378.525265 
L 480.468364 376.976573 
L 484.972444 375.457513 
L 489.476525 373.967641 
L 493.980606 372.506516 
L 498.484687 371.073699 
L 502.988768 369.668753 
L 507.492848 368.29124 
L 511.996929 366.940728 
L 516.50101 365.616786 
L 521.005091 364.318985 
L 525.509172 363.046901 
L 530.013253 361.800109 
L 534.517333 360.578193 
L 539.021414 359.380734 
L 543.525495 358.207322 
L 548.029576 357.057547 
L 552.533657 355.931005 
L 557.037737 354.827293 
L 561.541818 353.746016 
L 566.045899 352.68678 
L 570.54998 351.649197 
L 575.054061 350.63288 
L 579.558141 349.637451 
L 584.062222 348.662534 
L 588.566303 347.707756 
L 593.070384 346.77275 
L 597.574465 345.857155 
L 602.078545 344.960613 
L 606.582626 344.08277 
L 611.086707 343.223277 
L 615.590788 342.381792 
L 620.094869 341.557974 
L 624.598949 340.751489 
L 629.10303 339.962008 
L 633.607111 339.189205 
L 638.111192 338.432761 
L 642.615273 337.69236 
L 647.119354 336.96769 
L 651.623434 336.258447 
L 656.127515 335.564329 
L 660.631596 334.885038 
L 665.135677 334.220284 
L 669.639758 333.569779 
L 674.143838 332.933239 
L 678.647919 332.310388 
L 683.152 331.700952 
" clip-path="url(#p2eb52b3980)" style="fill: none; stroke: #f2b679; stroke-width: 3; stroke-linecap: round"/>
   </g>
   <g id="text_1">
    <path d="M 690.597605 332.400645 
L 692.203855 332.400645 
Q 692.989792 332.400645 693.421042 331.992832 
Q 693.853855 331.58502 693.853855 330.842832 
L 693.853855 328.752207 
Q 693.853855 328.01002 693.421042 327.602207 
Q 692.989792 327.194395 692.203855 327.194395 
L 690.597605 327.194395 
L 690.597605 326.24752 
L 692.174167 326.24752 
Q 693.028855 326.24752 693.633542 326.545957 
Q 694.239792 326.842832 694.55698 327.414707 
Q 694.874167 327.986582 694.874167 328.79127 
L 694.874167 330.80377 
Q 694.874167 331.608457 694.55698 332.180332 
Q 694.239792 332.752207 693.63198 333.050645 
Q 693.024167 333.34752 692.16948 333.34752 
L 690.597605 333.34752 
L 690.597605 332.400645 
z
M 689.924167 326.24752 
L 690.91948 326.24752 
L 690.91948 333.34752 
L 689.924167 333.34752 
L 689.924167 326.24752 
z
M 698.853855 329.82252 
L 698.849167 329.99752 
Q 698.727292 330.22252 698.480417 330.327207 
Q 698.233542 330.431895 697.897605 330.431895 
Q 697.389792 330.431895 697.003855 330.174082 
Q 696.617917 329.914707 696.405417 329.444395 
Q 696.192917 328.97252 696.192917 328.352207 
L 696.192917 328.34752 
Q 696.192917 327.658457 696.424167 327.170957 
Q 696.65698 326.681895 697.103855 326.42877 
Q 697.55073 326.174082 698.17573 326.174082 
Q 698.80073 326.174082 699.24448 326.433457 
Q 699.689792 326.692832 699.921042 327.186582 
Q 700.152292 327.67877 700.152292 328.37252 
L 700.152292 328.377207 
Q 700.152292 328.756895 700.053855 329.189707 
Q 699.95698 329.62252 699.777292 330.045957 
Q 699.747605 330.11002 699.717917 330.175645 
Q 699.689792 330.24127 699.655417 330.305332 
L 698.141355 333.34752 
L 697.066355 333.34752 
L 698.853855 329.82252 
z
M 698.17573 329.524082 
Q 698.64448 329.524082 698.90073 329.206895 
Q 699.15698 328.889707 699.15698 328.313145 
L 699.15698 328.308457 
Q 699.15698 327.74752 698.90073 327.439707 
Q 698.64448 327.131895 698.17573 327.131895 
Q 697.702292 327.131895 697.446042 327.439707 
Q 697.189792 327.74752 697.189792 328.313145 
L 697.189792 328.317832 
Q 697.189792 328.894395 697.446042 329.21002 
Q 697.702292 329.524082 698.17573 329.524082 
z
M 703.307566 333.420957 
Q 702.712253 333.420957 702.257566 333.20377 
Q 701.802878 332.986582 701.526316 332.574082 
Q 701.251316 332.161582 701.177878 331.580332 
L 701.177878 331.580332 
L 702.193503 331.580332 
L 702.193503 331.580332 
Q 702.237253 331.881895 702.384128 332.077207 
Q 702.531003 332.27252 702.762253 332.367832 
Q 702.995066 332.463145 703.307566 332.463145 
Q 703.799753 332.463145 704.073191 332.200645 
Q 704.346628 331.936582 704.346628 331.458457 
L 704.346628 331.242832 
Q 704.346628 330.71002 704.087253 330.420957 
Q 703.829441 330.130332 703.356003 330.130332 
L 702.852878 330.130332 
L 702.852878 329.181895 
L 703.356003 329.181895 
Q 703.771628 329.181895 703.999753 328.933457 
Q 704.229441 328.68502 704.229441 328.230332 
L 704.229441 328.01002 
Q 704.229441 327.59127 703.987253 327.361582 
Q 703.746628 327.131895 703.302878 327.131895 
Q 703.048191 327.131895 702.848191 327.227207 
Q 702.648191 327.32252 702.509128 327.520957 
Q 702.370066 327.717832 702.306003 328.014707 
L 702.306003 328.014707 
L 701.295066 328.014707 
L 701.295066 328.014707 
Q 701.393503 327.43502 701.663816 327.019395 
Q 701.935691 326.60377 702.349753 326.389707 
Q 702.765378 326.174082 703.302878 326.174082 
Q 704.220066 326.174082 704.723191 326.658457 
Q 705.226316 327.14127 705.226316 328.020957 
L 705.226316 328.138145 
Q 705.226316 328.669395 704.937253 329.064707 
Q 704.649753 329.46002 704.123191 329.64127 
Q 704.704441 329.767832 705.023191 330.213145 
Q 705.343503 330.656895 705.343503 331.345957 
L 705.343503 331.463145 
Q 705.343503 332.083457 705.104441 332.52252 
Q 704.865378 332.961582 704.407566 333.19127 
Q 703.951316 333.420957 703.307566 333.420957 
z
M 708.786277 333.420957 
Q 707.789402 333.420957 707.273777 332.889707 
Q 706.759714 332.356895 706.759714 331.40377 
L 706.759714 328.177207 
Q 706.759714 327.219395 707.276902 326.689707 
Q 707.794089 326.16002 708.786277 326.16002 
Q 709.781589 326.16002 710.297214 326.688145 
Q 710.812839 327.214707 710.812839 328.177207 
L 710.812839 331.40377 
Q 710.812839 332.361582 710.294089 332.89127 
Q 709.776902 333.420957 708.786277 333.420957 
z
M 708.786277 332.474082 
Q 709.312839 332.474082 709.564402 332.19752 
Q 709.815964 331.920957 709.815964 331.40377 
L 709.815964 328.177207 
Q 709.815964 327.658457 709.565964 327.383457 
Q 709.317527 327.106895 708.786277 327.106895 
Q 708.253464 327.106895 708.003464 327.383457 
Q 707.755027 327.658457 707.755027 328.177207 
L 707.755027 331.40377 
Q 707.755027 331.920957 708.006589 332.19752 
Q 708.258152 332.474082 708.786277 332.474082 
z
M 714.303855 333.420957 
Q 713.30698 333.420957 712.791355 332.889707 
Q 712.277292 332.356895 712.277292 331.40377 
L 712.277292 328.177207 
Q 712.277292 327.219395 712.79448 326.689707 
Q 713.311667 326.16002 714.303855 326.16002 
Q 715.299167 326.16002 715.814792 326.688145 
Q 716.330417 327.214707 716.330417 328.177207 
L 716.330417 331.40377 
Q 716.330417 332.361582 715.811667 332.89127 
Q 715.29448 333.420957 714.303855 333.420957 
z
M 714.303855 332.474082 
Q 714.830417 332.474082 715.08198 332.19752 
Q 715.333542 331.920957 715.333542 331.40377 
L 715.333542 328.177207 
Q 715.333542 327.658457 715.083542 327.383457 
Q 714.835105 327.106895 714.303855 327.106895 
Q 713.771042 327.106895 713.521042 327.383457 
Q 713.272605 327.658457 713.272605 328.177207 
L 713.272605 331.40377 
Q 713.272605 331.920957 713.524167 332.19752 
Q 713.77573 332.474082 714.303855 332.474082 
z
M 721.710496 329.602207 
L 721.710496 330.549082 
L 717.746433 330.549082 
L 717.746433 329.602207 
L 721.710496 329.602207 
z
M 720.226121 332.058457 
L 719.230808 332.058457 
L 719.230808 328.092832 
L 720.226121 328.092832 
L 720.226121 332.058457 
z
" style="fill: #ffffff; stroke: #000000"/>
    <path d="M 690.597605 332.400645 
L 692.203855 332.400645 
Q 692.989792 332.400645 693.421042 331.992832 
Q 693.853855 331.58502 693.853855 330.842832 
L 693.853855 328.752207 
Q 693.853855 328.01002 693.421042 327.602207 
Q 692.989792 327.194395 692.203855 327.194395 
L 690.597605 327.194395 
L 690.597605 326.24752 
L 692.174167 326.24752 
Q 693.028855 326.24752 693.633542 326.545957 
Q 694.239792 326.842832 694.55698 327.414707 
Q 694.874167 327.986582 694.874167 328.79127 
L 694.874167 330.80377 
Q 694.874167 331.608457 694.55698 332.180332 
Q 694.239792 332.752207 693.63198 333.050645 
Q 693.024167 333.34752 692.16948 333.34752 
L 690.597605 333.34752 
L 690.597605 332.400645 
z
M 689.924167 326.24752 
L 690.91948 326.24752 
L 690.91948 333.34752 
L 689.924167 333.34752 
L 689.924167 326.24752 
z
M 698.853855 329.82252 
L 698.849167 329.99752 
Q 698.727292 330.22252 698.480417 330.327207 
Q 698.233542 330.431895 697.897605 330.431895 
Q 697.389792 330.431895 697.003855 330.174082 
Q 696.617917 329.914707 696.405417 329.444395 
Q 696.192917 328.97252 696.192917 328.352207 
L 696.192917 328.34752 
Q 696.192917 327.658457 696.424167 327.170957 
Q 696.65698 326.681895 697.103855 326.42877 
Q 697.55073 326.174082 698.17573 326.174082 
Q 698.80073 326.174082 699.24448 326.433457 
Q 699.689792 326.692832 699.921042 327.186582 
Q 700.152292 327.67877 700.152292 328.37252 
L 700.152292 328.377207 
Q 700.152292 328.756895 700.053855 329.189707 
Q 699.95698 329.62252 699.777292 330.045957 
Q 699.747605 330.11002 699.717917 330.175645 
Q 699.689792 330.24127 699.655417 330.305332 
L 698.141355 333.34752 
L 697.066355 333.34752 
L 698.853855 329.82252 
z
M 698.17573 329.524082 
Q 698.64448 329.524082 698.90073 329.206895 
Q 699.15698 328.889707 699.15698 328.313145 
L 699.15698 328.308457 
Q 699.15698 327.74752 698.90073 327.439707 
Q 698.64448 327.131895 698.17573 327.131895 
Q 697.702292 327.131895 697.446042 327.439707 
Q 697.189792 327.74752 697.189792 328.313145 
L 697.189792 328.317832 
Q 697.189792 328.894395 697.446042 329.21002 
Q 697.702292 329.524082 698.17573 329.524082 
z
M 703.307566 333.420957 
Q 702.712253 333.420957 702.257566 333.20377 
Q 701.802878 332.986582 701.526316 332.574082 
Q 701.251316 332.161582 701.177878 331.580332 
L 701.177878 331.580332 
L 702.193503 331.580332 
L 702.193503 331.580332 
Q 702.237253 331.881895 702.384128 332.077207 
Q 702.531003 332.27252 702.762253 332.367832 
Q 702.995066 332.463145 703.307566 332.463145 
Q 703.799753 332.463145 704.073191 332.200645 
Q 704.346628 331.936582 704.346628 331.458457 
L 704.346628 331.242832 
Q 704.346628 330.71002 704.087253 330.420957 
Q 703.829441 330.130332 703.356003 330.130332 
L 702.852878 330.130332 
L 702.852878 329.181895 
L 703.356003 329.181895 
Q 703.771628 329.181895 703.999753 328.933457 
Q 704.229441 328.68502 704.229441 328.230332 
L 704.229441 328.01002 
Q 704.229441 327.59127 703.987253 327.361582 
Q 703.746628 327.131895 703.302878 327.131895 
Q 703.048191 327.131895 702.848191 327.227207 
Q 702.648191 327.32252 702.509128 327.520957 
Q 702.370066 327.717832 702.306003 328.014707 
L 702.306003 328.014707 
L 701.295066 328.014707 
L 701.295066 328.014707 
Q 701.393503 327.43502 701.663816 327.019395 
Q 701.935691 326.60377 702.349753 326.389707 
Q 702.765378 326.174082 703.302878 326.174082 
Q 704.220066 326.174082 704.723191 326.658457 
Q 705.226316 327.14127 705.226316 328.020957 
L 705.226316 328.138145 
Q 705.226316 328.669395 704.937253 329.064707 
Q 704.649753 329.46002 704.123191 329.64127 
Q 704.704441 329.767832 705.023191 330.213145 
Q 705.343503 330.656895 705.343503 331.345957 
L 705.343503 331.463145 
Q 705.343503 332.083457 705.104441 332.52252 
Q 704.865378 332.961582 704.407566 333.19127 
Q 703.951316 333.420957 703.307566 333.420957 
z
M 708.786277 333.420957 
Q 707.789402 333.420957 707.273777 332.889707 
Q 706.759714 332.356895 706.759714 331.40377 
L 706.759714 328.177207 
Q 706.759714 327.219395 707.276902 326.689707 
Q 707.794089 326.16002 708.786277 326.16002 
Q 709.781589 326.16002 710.297214 326.688145 
Q 710.812839 327.214707 710.812839 328.177207 
L 710.812839 331.40377 
Q 710.812839 332.361582 710.294089 332.89127 
Q 709.776902 333.420957 708.786277 333.420957 
z
M 708.786277 332.474082 
Q 709.312839 332.474082 709.564402 332.19752 
Q 709.815964 331.920957 709.815964 331.40377 
L 709.815964 328.177207 
Q 709.815964 327.658457 709.565964 327.383457 
Q 709.317527 327.106895 708.786277 327.106895 
Q 708.253464 327.106895 708.003464 327.383457 
Q 707.755027 327.658457 707.755027 328.177207 
L 707.755027 331.40377 
Q 707.755027 331.920957 708.006589 332.19752 
Q 708.258152 332.474082 708.786277 332.474082 
z
M 714.303855 333.420957 
Q 713.30698 333.420957 712.791355 332.889707 
Q 712.277292 332.356895 712.277292 331.40377 
L 712.277292 328.177207 
Q 712.277292 327.219395 712.79448 326.689707 
Q 713.311667 326.16002 714.303855 326.16002 
Q 715.299167 326.16002 715.814792 326.688145 
Q 716.330417 327.214707 716.330417 328.177207 
L 716.330417 331.40377 
Q 716.330417 332.361582 715.811667 332.89127 
Q 715.29448 333.420957 714.303855 333.420957 
z
M 714.303855 332.474082 
Q 714.830417 332.474082 715.08198 332.19752 
Q 715.333542 331.920957 715.333542 331.40377 
L 715.333542 328.177207 
Q 715.333542 327.658457 715.083542 327.383457 
Q 714.835105 327.106895 714.303855 327.106895 
Q 713.771042 327.106895 713.521042 327.383457 
Q 713.272605 327.658457 713.272605 328.177207 
L 713.272605 331.40377 
Q 713.272605 331.920957 713.524167 332.19752 
Q 713.77573 332.474082 714.303855 332.474082 
z
M 721.710496 329.602207 
L 721.710496 330.549082 
L 717.746433 330.549082 
L 717.746433 329.602207 
L 721.710496 329.602207 
z
M 720.226121 332.058457 
L 719.230808 332.058457 
L 719.230808 328.092832 
L 720.226121 328.092832 
L 720.226121 332.058457 
z
" style="fill: #ffffff"/>
   </g>
  </g>
 </g>
 <defs>
  <clipPath id="p2eb52b3980">
   <rect x="144" y="77.76" width="892.8" height="498.96"/>
  </clipPath>
 </defs>
</svg>
