<?xml version="1.0" encoding="utf-8" standalone="no"?>
<!DOCTYPE svg PUBLIC "-//W3C//DTD SVG 1.1//EN"
  "http://www.w3.org/Graphics/SVG/1.1/DTD/svg11.dtd">
<svg xmlns:xlink="http://www.w3.org/1999/xlink" width="1152pt" height="648pt" viewBox="0 0 1152 648" xmlns="http://www.w3.org/2000/svg" version="1.1">
 <metadata>
  <rdf:RDF xmlns:dc="http://purl.org/dc/elements/1.1/" xmlns:cc="http://creativecommons.org/ns#" xmlns:rdf="http://www.w3.org/1999/02/22-rdf-syntax-ns#">
   <cc:Work>
    <dc:type rdf:resource="http://purl.org/dc/dcmitype/StillImage"/>
    <dc:date>2025-09-19T13:51:42.246522</dc:date>
    <dc:format>image/svg+xml</dc:format>
    <dc:creator>
     <cc:Agent>
      <dc:title>Matplotlib v3.10.3, https://matplotlib.org/</dc:title>
     </cc:Agent>
    </dc:creator>
   </cc:Work>
  </rdf:RDF>
 </metadata>
 <defs>
  <style type="text/css">*{stroke-linejoin: round; stroke-linecap: butt}</style>
 </defs>
 <g id="figure_1">
  <g id="patch_1">
   <path d="M 0 648 
L 1152 648 
L 1152 0 
L 0 0 
L 0 648 
z
" style="fill: none"/>
  </g>
  <g id="axes_1">
   <g id="line2d_1">
    <path d="M 208.976 544.823585 
L 211.185455 543.612569 
L 213.394909 542.40357 
L 215.604364 541.196899 
L 217.813818 539.992869 
L 220.023273 538.791786 
L 222.232727 537.593956 
L 224.442182 536.39968 
L 226.651636 535.209256 
L 228.861091 534.022979 
L 231.070545 532.841136 
L 233.28 531.664015 
L 235.489455 530.491895 
L 237.698909 529.325051 
L 239.908364 528.163755 
L 242.117818 527.00827 
L 244.327273 525.858855 
L 246.536727 524.715765 
L 248.746182 523.579245 
L 250.955636 522.449537 
L 253.165091 521.326874 
L 255.374545 520.211485 
L 257.584 519.10359 
L 259.793455 518.003404 
L 262.002909 516.911133 
L 264.212364 515.826978 
L 266.421818 514.751131 
L 268.631273 513.683777 
L 270.840727 512.625096 
L 273.050182 511.575256 
L 275.259636 510.534422 
L 277.469091 509.502749 
L 279.678545 508.480386 
L 281.888 507.467472 
L 284.097455 506.464142 
L 286.306909 505.47052 
L 288.516364 504.486725 
L 290.725818 503.512867 
L 292.935273 502.54905 
L 295.144727 501.59537 
L 297.354182 500.651914 
L 299.563636 499.718765 
L 301.773091 498.795997 
L 303.982545 497.883676 
L 306.192 496.981864 
L 308.401455 496.090613 
L 310.610909 495.209969 
L 312.820364 494.339974 
L 315.029818 493.480659 
L 317.239273 492.632053 
L 319.448727 491.794176 
L 321.658182 490.967043 
L 323.867636 490.150662 
L 326.077091 489.345036 
L 328.286545 488.550163 
L 330.496 487.766035 
L 332.705455 486.992637 
L 334.914909 486.22995 
L 337.124364 485.477952 
L 339.333818 484.736612 
L 341.543273 484.005898 
L 343.752727 483.28577 
L 345.962182 482.576188 
L 348.171636 481.877103 
L 350.381091 481.188466 
L 352.590545 480.51022 
L 354.8 479.842308 
L 357.009455 479.184668 
L 359.218909 478.537233 
L 361.428364 477.899936 
L 363.637818 477.272703 
L 365.847273 476.655461 
L 368.056727 476.04813 
L 370.266182 475.450632 
L 372.475636 474.862882 
L 374.685091 474.284795 
L 376.894545 473.716285 
L 379.104 473.15726 
L 381.313455 472.60763 
L 383.522909 472.067301 
L 385.732364 471.536178 
L 387.941818 471.014164 
L 390.151273 470.501162 
L 392.360727 469.997071 
L 394.570182 469.50179 
L 396.779636 469.015219 
L 398.989091 468.537255 
L 401.198545 468.067794 
L 403.408 467.606731 
L 405.617455 467.153962 
L 407.826909 466.709381 
L 410.036364 466.272882 
L 412.245818 465.844359 
L 414.455273 465.423706 
L 416.664727 465.010814 
L 418.874182 464.605578 
L 421.083636 464.207891 
L 423.293091 463.817645 
L 425.502545 463.434734 
L 427.712 463.05905 
" clip-path="url(#pd33418b2c1)" style="fill: none; stroke: #3071f2; stroke-width: 3; stroke-linecap: round"/>
   </g>
   <g id="text_1">
    <path d="M 436.61698 464.779056 
Q 436.10448 464.779056 435.645105 464.682181 
Q 435.187292 464.583743 434.788855 464.388431 
Q 434.390417 464.193118 434.043542 463.899368 
L 434.043542 463.899368 
L 434.663855 463.138431 
L 434.663855 463.138431 
Q 435.070105 463.489993 435.557605 463.666556 
Q 436.046667 463.841556 436.61698 463.841556 
Q 437.388855 463.841556 437.813855 463.555618 
Q 438.238855 463.269681 438.238855 462.747806 
L 438.238855 462.743118 
Q 438.238855 462.371243 438.045105 462.154056 
Q 437.852917 461.936868 437.546667 461.832181 
Q 437.24198 461.727493 436.759167 461.638431 
Q 436.743542 461.633743 436.726355 461.633743 
Q 436.71073 461.633743 436.695105 461.629056 
L 436.621667 461.614993 
Q 435.909167 461.493118 435.462292 461.339993 
Q 435.015417 461.185306 434.69823 460.777493 
Q 434.381042 460.369681 434.381042 459.618118 
L 434.381042 459.613431 
Q 434.381042 458.954056 434.676355 458.488431 
Q 434.971667 458.021243 435.537292 457.777493 
Q 436.10448 457.532181 436.899792 457.532181 
Q 437.281042 457.532181 437.649792 457.616556 
Q 438.018542 457.699368 438.376355 457.863431 
Q 438.73573 458.025931 439.082605 458.274368 
L 439.082605 458.274368 
L 438.51698 459.066556 
L 438.51698 459.066556 
Q 438.11073 458.768118 437.707605 458.619681 
Q 437.306042 458.469681 436.899792 458.469681 
Q 436.17323 458.469681 435.770105 458.760306 
Q 435.36698 459.050931 435.36698 459.583743 
L 435.36698 459.588431 
Q 435.36698 459.954056 435.574792 460.164993 
Q 435.782605 460.374368 436.09198 460.474368 
Q 436.402917 460.574368 436.95448 460.682181 
Q 436.97323 460.686868 436.990417 460.689993 
Q 437.007605 460.691556 437.027917 460.696243 
Q 437.051355 460.700931 437.081042 460.707181 
Q 437.11073 460.711868 437.134167 460.716556 
Q 437.77948 460.847806 438.21073 461.029056 
Q 438.643542 461.208743 438.934167 461.611868 
Q 439.224792 462.014993 439.224792 462.713431 
L 439.224792 462.722806 
Q 439.224792 463.372806 438.91698 463.833743 
Q 438.609167 464.294681 438.024792 464.536868 
Q 437.44198 464.779056 436.61698 464.779056 
z
M 441.314832 463.758743 
L 442.921082 463.758743 
Q 443.707019 463.758743 444.138269 463.350931 
Q 444.571082 462.943118 444.571082 462.200931 
L 444.571082 460.110306 
Q 444.571082 459.368118 444.138269 458.960306 
Q 443.707019 458.552493 442.921082 458.552493 
L 441.314832 458.552493 
L 441.314832 457.605618 
L 442.891394 457.605618 
Q 443.746082 457.605618 444.350769 457.904056 
Q 444.957019 458.200931 445.274207 458.772806 
Q 445.591394 459.344681 445.591394 460.149368 
L 445.591394 462.161868 
Q 445.591394 462.966556 445.274207 463.538431 
Q 444.957019 464.110306 444.349207 464.408743 
Q 443.741394 464.705618 442.886707 464.705618 
L 441.314832 464.705618 
L 441.314832 463.758743 
z
M 440.641394 457.605618 
L 441.636707 457.605618 
L 441.636707 464.705618 
L 440.641394 464.705618 
L 440.641394 457.605618 
z
M 449.136707 464.779056 
Q 448.492957 464.779056 448.003894 464.535306 
Q 447.516394 464.289993 447.249207 463.843118 
Q 446.983582 463.396243 446.983582 462.805618 
L 446.983582 462.688431 
Q 446.983582 462.157181 447.249207 461.688431 
Q 447.516394 461.219681 447.960144 460.980618 
Q 447.583582 460.774368 447.357019 460.386868 
Q 447.130457 459.997806 447.130457 459.568118 
L 447.130457 459.397806 
Q 447.130457 458.841556 447.378894 458.419681 
Q 447.627332 457.996243 448.082019 457.764993 
Q 448.536707 457.532181 449.136707 457.532181 
Q 449.736707 457.532181 450.191394 457.764993 
Q 450.646082 457.996243 450.894519 458.419681 
Q 451.142957 458.841556 451.142957 459.397806 
L 451.142957 459.568118 
Q 451.142957 460.008743 450.911707 460.394681 
Q 450.680457 460.779056 450.299207 460.980618 
Q 450.747644 461.224368 451.017957 461.691556 
Q 451.289832 462.157181 451.289832 462.688431 
L 451.289832 462.805618 
Q 451.289832 463.396243 451.024207 463.843118 
Q 450.758582 464.289993 450.269519 464.535306 
Q 449.782019 464.779056 449.136707 464.779056 
z
M 449.136707 463.821243 
Q 449.483582 463.821243 449.746082 463.685306 
Q 450.010144 463.547806 450.153894 463.302493 
Q 450.299207 463.055618 450.299207 462.732181 
L 450.299207 462.664993 
Q 450.299207 462.336868 450.153894 462.091556 
Q 450.010144 461.844681 449.746082 461.708743 
Q 449.483582 461.571243 449.136707 461.571243 
Q 448.789832 461.571243 448.525769 461.708743 
Q 448.263269 461.844681 448.117957 462.093118 
Q 447.974207 462.341556 447.974207 462.669681 
L 447.974207 462.743118 
Q 447.974207 463.064993 448.117957 463.308743 
Q 448.263269 463.552493 448.525769 463.686868 
Q 448.789832 463.821243 449.136707 463.821243 
z
M 449.136707 460.613431 
Q 449.435144 460.613431 449.663269 460.485306 
Q 449.892957 460.355618 450.019519 460.116556 
Q 450.147644 459.875931 450.147644 459.563431 
L 450.147644 459.496243 
Q 450.147644 459.197806 450.019519 458.968118 
Q 449.892957 458.738431 449.663269 458.614993 
Q 449.435144 458.489993 449.136707 458.489993 
Q 448.838269 458.489993 448.608582 458.614993 
Q 448.380457 458.738431 448.252332 458.968118 
Q 448.125769 459.197806 448.125769 459.500931 
L 448.125769 459.574368 
Q 448.125769 459.880618 448.252332 460.118118 
Q 448.380457 460.355618 448.608582 460.485306 
Q 448.838269 460.613431 449.136707 460.613431 
z
M 456.597644 460.960306 
L 456.597644 461.907181 
L 452.633582 461.907181 
L 452.633582 460.960306 
L 456.597644 460.960306 
z
M 455.113269 463.416556 
L 454.117957 463.416556 
L 454.117957 459.450931 
L 455.113269 459.450931 
L 455.113269 463.416556 
z
M 464.674207 460.882181 
L 464.674207 462.122806 
Q 464.674207 462.913431 464.366394 463.516556 
Q 464.058582 464.119681 463.494519 464.449368 
Q 462.930457 464.779056 462.188269 464.779056 
Q 461.436707 464.779056 460.867957 464.469681 
Q 460.299207 464.158743 459.986707 463.593118 
Q 459.674207 463.025931 459.674207 462.279056 
L 459.674207 460.183743 
Q 459.674207 459.393118 459.982019 458.793118 
Q 460.289832 458.191556 460.852332 457.861868 
Q 461.416394 457.532181 462.158582 457.532181 
Q 462.769519 457.532181 463.283582 457.794681 
Q 463.799207 458.055618 464.146082 458.533743 
Q 464.492957 459.011868 464.614832 459.641556 
L 464.614832 459.641556 
L 463.536707 459.641556 
L 463.536707 459.641556 
Q 463.447644 459.285306 463.238269 459.029056 
Q 463.028894 458.772806 462.744519 458.638431 
Q 462.461707 458.504056 462.158582 458.504056 
Q 461.719519 458.504056 461.386707 458.714993 
Q 461.055457 458.924368 460.874207 459.302493 
Q 460.694519 459.680618 460.694519 460.183743 
L 460.694519 462.279056 
Q 460.694519 462.738431 460.878894 463.082181 
Q 461.064832 463.425931 461.403894 463.616556 
Q 461.744519 463.807181 462.188269 463.807181 
Q 462.627332 463.807181 462.958582 463.610306 
Q 463.291394 463.411868 463.472644 463.036868 
Q 463.653894 462.660306 463.653894 462.141556 
L 463.653894 461.833743 
L 462.213269 461.833743 
L 462.213269 460.882181 
L 464.674207 460.882181 
z
M 468.262488 464.779056 
Q 467.559363 464.779056 467.060925 464.514993 
Q 466.56405 464.250931 466.30155 463.741556 
Q 466.040613 463.230618 466.040613 462.508743 
L 466.040613 461.936868 
Q 466.040613 461.185306 466.292175 460.654056 
Q 466.543738 460.121243 467.021863 459.843118 
Q 467.50155 459.563431 468.174988 459.563431 
Q 468.809363 459.563431 469.2578 459.882181 
Q 469.7078 460.199368 469.943738 460.799368 
Q 470.181238 461.399368 470.181238 462.239993 
L 470.181238 462.571243 
L 466.76405 462.571243 
L 466.76405 461.771243 
L 469.234363 461.771243 
L 469.234363 461.771243 
Q 469.190613 461.150931 468.91405 460.807181 
Q 468.63905 460.461868 468.174988 460.461868 
Q 467.6078 460.461868 467.298425 460.833743 
Q 466.98905 461.204056 466.98905 461.883743 
L 466.98905 462.527493 
Q 466.98905 463.157181 467.3203 463.494681 
Q 467.653113 463.832181 468.262488 463.832181 
Q 468.565613 463.832181 468.862488 463.710306 
Q 469.160925 463.586868 469.3953 463.368118 
L 469.3953 463.368118 
L 470.049988 464.021243 
L 470.049988 464.021243 
Q 469.673425 464.383743 469.204675 464.582181 
Q 468.735925 464.779056 468.262488 464.779056 
z
M 471.548816 459.636868 
L 472.545691 459.636868 
L 472.545691 464.705618 
L 471.548816 464.705618 
L 471.548816 459.636868 
z
M 474.625378 461.633743 
Q 474.625378 461.097806 474.347253 460.805618 
Q 474.069128 460.511868 473.566003 460.511868 
Q 473.076941 460.511868 472.811316 460.771243 
Q 472.545691 461.029056 472.545691 461.497806 
L 472.442566 460.521243 
Q 472.676941 460.061868 473.055066 459.813431 
Q 473.433191 459.563431 473.892566 459.563431 
Q 474.717566 459.563431 475.169128 460.104056 
Q 475.620691 460.643118 475.620691 461.629056 
L 475.620691 464.705618 
L 474.625378 464.705618 
L 474.625378 461.633743 
z
M 478.800378 464.705618 
L 477.803503 464.705618 
L 477.803503 458.689993 
L 476.792566 459.310306 
L 476.792566 458.279056 
L 477.803503 457.605618 
L 478.800378 457.605618 
L 478.800378 464.705618 
z
" style="fill: #ffffff; stroke: #000000"/>
    <path d="M 436.61698 464.779056 
Q 436.10448 464.779056 435.645105 464.682181 
Q 435.187292 464.583743 434.788855 464.388431 
Q 434.390417 464.193118 434.043542 463.899368 
L 434.043542 463.899368 
L 434.663855 463.138431 
L 434.663855 463.138431 
Q 435.070105 463.489993 435.557605 463.666556 
Q 436.046667 463.841556 436.61698 463.841556 
Q 437.388855 463.841556 437.813855 463.555618 
Q 438.238855 463.269681 438.238855 462.747806 
L 438.238855 462.743118 
Q 438.238855 462.371243 438.045105 462.154056 
Q 437.852917 461.936868 437.546667 461.832181 
Q 437.24198 461.727493 436.759167 461.638431 
Q 436.743542 461.633743 436.726355 461.633743 
Q 436.71073 461.633743 436.695105 461.629056 
L 436.621667 461.614993 
Q 435.909167 461.493118 435.462292 461.339993 
Q 435.015417 461.185306 434.69823 460.777493 
Q 434.381042 460.369681 434.381042 459.618118 
L 434.381042 459.613431 
Q 434.381042 458.954056 434.676355 458.488431 
Q 434.971667 458.021243 435.537292 457.777493 
Q 436.10448 457.532181 436.899792 457.532181 
Q 437.281042 457.532181 437.649792 457.616556 
Q 438.018542 457.699368 438.376355 457.863431 
Q 438.73573 458.025931 439.082605 458.274368 
L 439.082605 458.274368 
L 438.51698 459.066556 
L 438.51698 459.066556 
Q 438.11073 458.768118 437.707605 458.619681 
Q 437.306042 458.469681 436.899792 458.469681 
Q 436.17323 458.469681 435.770105 458.760306 
Q 435.36698 459.050931 435.36698 459.583743 
L 435.36698 459.588431 
Q 435.36698 459.954056 435.574792 460.164993 
Q 435.782605 460.374368 436.09198 460.474368 
Q 436.402917 460.574368 436.95448 460.682181 
Q 436.97323 460.686868 436.990417 460.689993 
Q 437.007605 460.691556 437.027917 460.696243 
Q 437.051355 460.700931 437.081042 460.707181 
Q 437.11073 460.711868 437.134167 460.716556 
Q 437.77948 460.847806 438.21073 461.029056 
Q 438.643542 461.208743 438.934167 461.611868 
Q 439.224792 462.014993 439.224792 462.713431 
L 439.224792 462.722806 
Q 439.224792 463.372806 438.91698 463.833743 
Q 438.609167 464.294681 438.024792 464.536868 
Q 437.44198 464.779056 436.61698 464.779056 
z
M 441.314832 463.758743 
L 442.921082 463.758743 
Q 443.707019 463.758743 444.138269 463.350931 
Q 444.571082 462.943118 444.571082 462.200931 
L 444.571082 460.110306 
Q 444.571082 459.368118 444.138269 458.960306 
Q 443.707019 458.552493 442.921082 458.552493 
L 441.314832 458.552493 
L 441.314832 457.605618 
L 442.891394 457.605618 
Q 443.746082 457.605618 444.350769 457.904056 
Q 444.957019 458.200931 445.274207 458.772806 
Q 445.591394 459.344681 445.591394 460.149368 
L 445.591394 462.161868 
Q 445.591394 462.966556 445.274207 463.538431 
Q 444.957019 464.110306 444.349207 464.408743 
Q 443.741394 464.705618 442.886707 464.705618 
L 441.314832 464.705618 
L 441.314832 463.758743 
z
M 440.641394 457.605618 
L 441.636707 457.605618 
L 441.636707 464.705618 
L 440.641394 464.705618 
L 440.641394 457.605618 
z
M 449.136707 464.779056 
Q 448.492957 464.779056 448.003894 464.535306 
Q 447.516394 464.289993 447.249207 463.843118 
Q 446.983582 463.396243 446.983582 462.805618 
L 446.983582 462.688431 
Q 446.983582 462.157181 447.249207 461.688431 
Q 447.516394 461.219681 447.960144 460.980618 
Q 447.583582 460.774368 447.357019 460.386868 
Q 447.130457 459.997806 447.130457 459.568118 
L 447.130457 459.397806 
Q 447.130457 458.841556 447.378894 458.419681 
Q 447.627332 457.996243 448.082019 457.764993 
Q 448.536707 457.532181 449.136707 457.532181 
Q 449.736707 457.532181 450.191394 457.764993 
Q 450.646082 457.996243 450.894519 458.419681 
Q 451.142957 458.841556 451.142957 459.397806 
L 451.142957 459.568118 
Q 451.142957 460.008743 450.911707 460.394681 
Q 450.680457 460.779056 450.299207 460.980618 
Q 450.747644 461.224368 451.017957 461.691556 
Q 451.289832 462.157181 451.289832 462.688431 
L 451.289832 462.805618 
Q 451.289832 463.396243 451.024207 463.843118 
Q 450.758582 464.289993 450.269519 464.535306 
Q 449.782019 464.779056 449.136707 464.779056 
z
M 449.136707 463.821243 
Q 449.483582 463.821243 449.746082 463.685306 
Q 450.010144 463.547806 450.153894 463.302493 
Q 450.299207 463.055618 450.299207 462.732181 
L 450.299207 462.664993 
Q 450.299207 462.336868 450.153894 462.091556 
Q 450.010144 461.844681 449.746082 461.708743 
Q 449.483582 461.571243 449.136707 461.571243 
Q 448.789832 461.571243 448.525769 461.708743 
Q 448.263269 461.844681 448.117957 462.093118 
Q 447.974207 462.341556 447.974207 462.669681 
L 447.974207 462.743118 
Q 447.974207 463.064993 448.117957 463.308743 
Q 448.263269 463.552493 448.525769 463.686868 
Q 448.789832 463.821243 449.136707 463.821243 
z
M 449.136707 460.613431 
Q 449.435144 460.613431 449.663269 460.485306 
Q 449.892957 460.355618 450.019519 460.116556 
Q 450.147644 459.875931 450.147644 459.563431 
L 450.147644 459.496243 
Q 450.147644 459.197806 450.019519 458.968118 
Q 449.892957 458.738431 449.663269 458.614993 
Q 449.435144 458.489993 449.136707 458.489993 
Q 448.838269 458.489993 448.608582 458.614993 
Q 448.380457 458.738431 448.252332 458.968118 
Q 448.125769 459.197806 448.125769 459.500931 
L 448.125769 459.574368 
Q 448.125769 459.880618 448.252332 460.118118 
Q 448.380457 460.355618 448.608582 460.485306 
Q 448.838269 460.613431 449.136707 460.613431 
z
M 456.597644 460.960306 
L 456.597644 461.907181 
L 452.633582 461.907181 
L 452.633582 460.960306 
L 456.597644 460.960306 
z
M 455.113269 463.416556 
L 454.117957 463.416556 
L 454.117957 459.450931 
L 455.113269 459.450931 
L 455.113269 463.416556 
z
M 464.674207 460.882181 
L 464.674207 462.122806 
Q 464.674207 462.913431 464.366394 463.516556 
Q 464.058582 464.119681 463.494519 464.449368 
Q 462.930457 464.779056 462.188269 464.779056 
Q 461.436707 464.779056 460.867957 464.469681 
Q 460.299207 464.158743 459.986707 463.593118 
Q 459.674207 463.025931 459.674207 462.279056 
L 459.674207 460.183743 
Q 459.674207 459.393118 459.982019 458.793118 
Q 460.289832 458.191556 460.852332 457.861868 
Q 461.416394 457.532181 462.158582 457.532181 
Q 462.769519 457.532181 463.283582 457.794681 
Q 463.799207 458.055618 464.146082 458.533743 
Q 464.492957 459.011868 464.614832 459.641556 
L 464.614832 459.641556 
L 463.536707 459.641556 
L 463.536707 459.641556 
Q 463.447644 459.285306 463.238269 459.029056 
Q 463.028894 458.772806 462.744519 458.638431 
Q 462.461707 458.504056 462.158582 458.504056 
Q 461.719519 458.504056 461.386707 458.714993 
Q 461.055457 458.924368 460.874207 459.302493 
Q 460.694519 459.680618 460.694519 460.183743 
L 460.694519 462.279056 
Q 460.694519 462.738431 460.878894 463.082181 
Q 461.064832 463.425931 461.403894 463.616556 
Q 461.744519 463.807181 462.188269 463.807181 
Q 462.627332 463.807181 462.958582 463.610306 
Q 463.291394 463.411868 463.472644 463.036868 
Q 463.653894 462.660306 463.653894 462.141556 
L 463.653894 461.833743 
L 462.213269 461.833743 
L 462.213269 460.882181 
L 464.674207 460.882181 
z
M 468.262488 464.779056 
Q 467.559363 464.779056 467.060925 464.514993 
Q 466.56405 464.250931 466.30155 463.741556 
Q 466.040613 463.230618 466.040613 462.508743 
L 466.040613 461.936868 
Q 466.040613 461.185306 466.292175 460.654056 
Q 466.543738 460.121243 467.021863 459.843118 
Q 467.50155 459.563431 468.174988 459.563431 
Q 468.809363 459.563431 469.2578 459.882181 
Q 469.7078 460.199368 469.943738 460.799368 
Q 470.181238 461.399368 470.181238 462.239993 
L 470.181238 462.571243 
L 466.76405 462.571243 
L 466.76405 461.771243 
L 469.234363 461.771243 
L 469.234363 461.771243 
Q 469.190613 461.150931 468.91405 460.807181 
Q 468.63905 460.461868 468.174988 460.461868 
Q 467.6078 460.461868 467.298425 460.833743 
Q 466.98905 461.204056 466.98905 461.883743 
L 466.98905 462.527493 
Q 466.98905 463.157181 467.3203 463.494681 
Q 467.653113 463.832181 468.262488 463.832181 
Q 468.565613 463.832181 468.862488 463.710306 
Q 469.160925 463.586868 469.3953 463.368118 
L 469.3953 463.368118 
L 470.049988 464.021243 
L 470.049988 464.021243 
Q 469.673425 464.383743 469.204675 464.582181 
Q 468.735925 464.779056 468.262488 464.779056 
z
M 471.548816 459.636868 
L 472.545691 459.636868 
L 472.545691 464.705618 
L 471.548816 464.705618 
L 471.548816 459.636868 
z
M 474.625378 461.633743 
Q 474.625378 461.097806 474.347253 460.805618 
Q 474.069128 460.511868 473.566003 460.511868 
Q 473.076941 460.511868 472.811316 460.771243 
Q 472.545691 461.029056 472.545691 461.497806 
L 472.442566 460.521243 
Q 472.676941 460.061868 473.055066 459.813431 
Q 473.433191 459.563431 473.892566 459.563431 
Q 474.717566 459.563431 475.169128 460.104056 
Q 475.620691 460.643118 475.620691 461.629056 
L 475.620691 464.705618 
L 474.625378 464.705618 
L 474.625378 461.633743 
z
M 478.800378 464.705618 
L 477.803503 464.705618 
L 477.803503 458.689993 
L 476.792566 459.310306 
L 476.792566 458.279056 
L 477.803503 457.605618 
L 478.800378 457.605618 
L 478.800378 464.705618 
z
" style="fill: #ffffff"/>
   </g>
  </g>
 </g>
 <defs>
  <clipPath id="pd33418b2c1">
   <rect x="144" y="77.76" width="892.8" height="498.96"/>
  </clipPath>
 </defs>
</svg>
