<?xml version="1.0" encoding="utf-8" standalone="no"?>
<!DOCTYPE svg PUBLIC "-//W3C//DTD SVG 1.1//EN"
  "http://www.w3.org/Graphics/SVG/1.1/DTD/svg11.dtd">
<svg xmlns:xlink="http://www.w3.org/1999/xlink" width="1152pt" height="648pt" viewBox="0 0 1152 648" xmlns="http://www.w3.org/2000/svg" version="1.1">
 <metadata>
  <rdf:RDF xmlns:dc="http://purl.org/dc/elements/1.1/" xmlns:cc="http://creativecommons.org/ns#" xmlns:rdf="http://www.w3.org/1999/02/22-rdf-syntax-ns#">
   <cc:Work>
    <dc:type rdf:resource="http://purl.org/dc/dcmitype/StillImage"/>
    <dc:date>2025-09-19T13:51:42.154622</dc:date>
    <dc:format>image/svg+xml</dc:format>
    <dc:creator>
     <cc:Agent>
      <dc:title>Matplotlib v3.10.3, https://matplotlib.org/</dc:title>
     </cc:Agent>
    </dc:creator>
   </cc:Work>
  </rdf:RDF>
 </metadata>
 <defs>
  <style type="text/css">*{stroke-linejoin: round; stroke-linecap: butt}</style>
 </defs>
 <g id="figure_1">
  <g id="patch_1">
   <path d="M 0 648 
L 1152 648 
L 1152 0 
L 0 0 
L 0 648 
z
" style="fill: none"/>
  </g>
  <g id="axes_1">
   <g id="line2d_1">
    <path d="M 200.048 526.500597 
L 205.138263 520.488769 
L 210.228525 514.56764 
L 215.318788 508.73718 
L 220.409051 502.997298 
L 225.499313 497.347843 
L 230.589576 491.788608 
L 235.679838 486.319331 
L 240.770101 480.939697 
L 245.860364 475.649339 
L 250.950626 470.447842 
L 256.040889 465.334745 
L 261.131152 460.309541 
L 266.221414 455.371681 
L 271.311677 450.520575 
L 276.401939 445.755595 
L 281.492202 441.076077 
L 286.582465 436.48132 
L 291.672727 431.970593 
L 296.76299 427.543134 
L 301.853253 423.19815 
L 306.943515 418.934823 
L 312.033778 414.75231 
L 317.12404 410.649744 
L 322.214303 406.626237 
L 327.304566 402.68088 
L 332.394828 398.812747 
L 337.485091 395.020895 
L 342.575354 391.304366 
L 347.665616 387.662188 
L 352.755879 384.093378 
L 357.846141 380.596941 
L 362.936404 377.171874 
L 368.026667 373.817165 
L 373.116929 370.531797 
L 378.207192 367.314745 
L 383.297455 364.164982 
L 388.387717 361.081477 
L 393.47798 358.063196 
L 398.568242 355.109107 
L 403.658505 352.218173 
L 408.748768 349.389363 
L 413.83903 346.621645 
L 418.929293 343.91399 
L 424.019556 341.265372 
L 429.109818 338.67477 
L 434.200081 336.141168 
L 439.290343 333.663554 
L 444.380606 331.240925 
L 449.470869 328.872282 
L 454.561131 326.556636 
L 459.651394 324.293002 
L 464.741657 322.080408 
L 469.831919 319.917888 
L 474.922182 317.804485 
L 480.012444 315.739254 
L 485.102707 313.721257 
L 490.19297 311.74957 
L 495.283232 309.823275 
L 500.373495 307.94147 
L 505.463758 306.103259 
L 510.55402 304.307762 
L 515.644283 302.554108 
L 520.734545 300.841437 
L 525.824808 299.168904 
L 530.915071 297.535674 
L 536.005333 295.940923 
L 541.095596 294.383843 
L 546.185859 292.863633 
L 551.276121 291.379509 
L 556.366384 289.930698 
L 561.456646 288.516439 
L 566.546909 287.135984 
L 571.637172 285.788595 
L 576.727434 284.473551 
L 581.817697 283.190141 
L 586.90796 281.937664 
L 591.998222 280.715436 
L 597.088485 279.522782 
L 602.178747 278.359041 
L 607.26901 277.223562 
L 612.359273 276.115709 
L 617.449535 275.034855 
L 622.539798 273.980386 
L 627.630061 272.951701 
L 632.720323 271.948209 
L 637.810586 270.969331 
L 642.900848 270.0145 
L 647.991111 269.083159 
L 653.081374 268.174764 
L 658.171636 267.288779 
L 663.261899 266.424683 
L 668.352162 265.581962 
L 673.442424 264.760114 
L 678.532687 263.958649 
L 683.622949 263.177084 
L 688.713212 262.414949 
L 693.803475 261.671783 
L 698.893737 260.947134 
L 703.984 260.240561 
" clip-path="url(#pbc6d477bb3)" style="fill: none; stroke: #30b2f2; stroke-width: 3; stroke-linecap: round"/>
   </g>
   <g id="text_1">
    <path d="M 712.88898 261.960566 
Q 712.37648 261.960566 711.917105 261.863691 
Q 711.459292 261.765254 711.060855 261.569941 
Q 710.662417 261.374629 710.315542 261.080879 
L 710.315542 261.080879 
L 710.935855 260.319941 
L 710.935855 260.319941 
Q 711.342105 260.671504 711.829605 260.848066 
Q 712.318667 261.023066 712.88898 261.023066 
Q 713.660855 261.023066 714.085855 260.737129 
Q 714.510855 260.451191 714.510855 259.929316 
L 714.510855 259.924629 
Q 714.510855 259.552754 714.317105 259.335566 
Q 714.124917 259.118379 713.818667 259.013691 
Q 713.51398 258.909004 713.031167 258.819941 
Q 713.015542 258.815254 712.998355 258.815254 
Q 712.98273 258.815254 712.967105 258.810566 
L 712.893667 258.796504 
Q 712.181167 258.674629 711.734292 258.521504 
Q 711.287417 258.366816 710.97023 257.959004 
Q 710.653042 257.551191 710.653042 256.799629 
L 710.653042 256.794941 
Q 710.653042 256.135566 710.948355 255.669941 
Q 711.243667 255.202754 711.809292 254.959004 
Q 712.37648 254.713691 713.171792 254.713691 
Q 713.553042 254.713691 713.921792 254.798066 
Q 714.290542 254.880879 714.648355 255.044941 
Q 715.00773 255.207441 715.354605 255.455879 
L 715.354605 255.455879 
L 714.78898 256.248066 
L 714.78898 256.248066 
Q 714.38273 255.949629 713.979605 255.801191 
Q 713.578042 255.651191 713.171792 255.651191 
Q 712.44523 255.651191 712.042105 255.941816 
Q 711.63898 256.232441 711.63898 256.765254 
L 711.63898 256.769941 
Q 711.63898 257.135566 711.846792 257.346504 
Q 712.054605 257.555879 712.36398 257.655879 
Q 712.674917 257.755879 713.22648 257.863691 
Q 713.24523 257.868379 713.262417 257.871504 
Q 713.279605 257.873066 713.299917 257.877754 
Q 713.323355 257.882441 713.353042 257.888691 
Q 713.38273 257.893379 713.406167 257.898066 
Q 714.05148 258.029316 714.48273 258.210566 
Q 714.915542 258.390254 715.206167 258.793379 
Q 715.496792 259.196504 715.496792 259.894941 
L 715.496792 259.904316 
Q 715.496792 260.554316 715.18898 261.015254 
Q 714.881167 261.476191 714.296792 261.718379 
Q 713.71398 261.960566 712.88898 261.960566 
z
M 717.586832 260.940254 
L 719.193082 260.940254 
Q 719.979019 260.940254 720.410269 260.532441 
Q 720.843082 260.124629 720.843082 259.382441 
L 720.843082 257.291816 
Q 720.843082 256.549629 720.410269 256.141816 
Q 719.979019 255.734004 719.193082 255.734004 
L 717.586832 255.734004 
L 717.586832 254.787129 
L 719.163394 254.787129 
Q 720.018082 254.787129 720.622769 255.085566 
Q 721.229019 255.382441 721.546207 255.954316 
Q 721.863394 256.526191 721.863394 257.330879 
L 721.863394 259.343379 
Q 721.863394 260.148066 721.546207 260.719941 
Q 721.229019 261.291816 720.621207 261.590254 
Q 720.013394 261.887129 719.158707 261.887129 
L 717.586832 261.887129 
L 717.586832 260.940254 
z
M 716.913394 254.787129 
L 717.908707 254.787129 
L 717.908707 261.887129 
L 716.913394 261.887129 
L 716.913394 254.787129 
z
M 725.408707 261.960566 
Q 724.764957 261.960566 724.275894 261.716816 
Q 723.788394 261.471504 723.521207 261.024629 
Q 723.255582 260.577754 723.255582 259.987129 
L 723.255582 259.869941 
Q 723.255582 259.338691 723.521207 258.869941 
Q 723.788394 258.401191 724.232144 258.162129 
Q 723.855582 257.955879 723.629019 257.568379 
Q 723.402457 257.179316 723.402457 256.749629 
L 723.402457 256.579316 
Q 723.402457 256.023066 723.650894 255.601191 
Q 723.899332 255.177754 724.354019 254.946504 
Q 724.808707 254.713691 725.408707 254.713691 
Q 726.008707 254.713691 726.463394 254.946504 
Q 726.918082 255.177754 727.166519 255.601191 
Q 727.414957 256.023066 727.414957 256.579316 
L 727.414957 256.749629 
Q 727.414957 257.190254 727.183707 257.576191 
Q 726.952457 257.960566 726.571207 258.162129 
Q 727.019644 258.405879 727.289957 258.873066 
Q 727.561832 259.338691 727.561832 259.869941 
L 727.561832 259.987129 
Q 727.561832 260.577754 727.296207 261.024629 
Q 727.030582 261.471504 726.541519 261.716816 
Q 726.054019 261.960566 725.408707 261.960566 
z
M 725.408707 261.002754 
Q 725.755582 261.002754 726.018082 260.866816 
Q 726.282144 260.729316 726.425894 260.484004 
Q 726.571207 260.237129 726.571207 259.913691 
L 726.571207 259.846504 
Q 726.571207 259.518379 726.425894 259.273066 
Q 726.282144 259.026191 726.018082 258.890254 
Q 725.755582 258.752754 725.408707 258.752754 
Q 725.061832 258.752754 724.797769 258.890254 
Q 724.535269 259.026191 724.389957 259.274629 
Q 724.246207 259.523066 724.246207 259.851191 
L 724.246207 259.924629 
Q 724.246207 260.246504 724.389957 260.490254 
Q 724.535269 260.734004 724.797769 260.868379 
Q 725.061832 261.002754 725.408707 261.002754 
z
M 725.408707 257.794941 
Q 725.707144 257.794941 725.935269 257.666816 
Q 726.164957 257.537129 726.291519 257.298066 
Q 726.419644 257.057441 726.419644 256.744941 
L 726.419644 256.677754 
Q 726.419644 256.379316 726.291519 256.149629 
Q 726.164957 255.919941 725.935269 255.796504 
Q 725.707144 255.671504 725.408707 255.671504 
Q 725.110269 255.671504 724.880582 255.796504 
Q 724.652457 255.919941 724.524332 256.149629 
Q 724.397769 256.379316 724.397769 256.682441 
L 724.397769 256.755879 
Q 724.397769 257.062129 724.524332 257.299629 
Q 724.652457 257.537129 724.880582 257.666816 
Q 725.110269 257.794941 725.408707 257.794941 
z
M 730.809878 254.787129 
L 731.805191 254.787129 
L 731.805191 261.887129 
L 730.809878 261.887129 
L 730.809878 254.787129 
z
M 731.292691 260.940254 
L 735.369253 260.940254 
L 735.369253 261.887129 
L 731.292691 261.887129 
L 731.292691 260.940254 
z
M 731.292691 257.888691 
L 734.833316 257.888691 
L 734.833316 258.835566 
L 731.292691 258.835566 
L 731.292691 257.888691 
z
M 731.292691 254.787129 
L 735.369253 254.787129 
L 735.369253 255.734004 
L 731.292691 255.734004 
L 731.292691 254.787129 
z
M 737.684878 260.577754 
Q 737.684878 260.763691 737.764566 260.863691 
Q 737.845816 260.963691 737.991128 260.963691 
L 738.459878 260.963691 
L 738.459878 261.912129 
L 737.873941 261.912129 
Q 737.308316 261.912129 736.997378 261.560566 
Q 736.688003 261.209004 736.688003 260.568379 
L 736.688003 254.787129 
L 737.684878 254.787129 
L 737.684878 260.577754 
z
M 739.583511 254.787129 
L 740.580386 254.787129 
L 740.580386 255.784004 
L 739.583511 255.784004 
L 739.583511 254.787129 
z
M 739.583511 256.818379 
L 740.580386 256.818379 
L 740.580386 261.887129 
L 739.583511 261.887129 
L 739.583511 256.818379 
z
M 743.412027 261.912129 
Q 742.796402 261.912129 742.510464 261.573066 
Q 742.224527 261.232441 742.224527 260.568379 
L 742.224527 255.343379 
L 743.221402 255.343379 
L 743.221402 260.577754 
Q 743.221402 260.763691 743.294839 260.863691 
Q 743.368277 260.963691 743.508902 260.963691 
L 743.988589 260.963691 
L 743.988589 261.912129 
L 743.412027 261.912129 
z
M 741.702652 256.818379 
L 743.988589 256.818379 
L 743.988589 257.716816 
L 741.702652 257.716816 
L 741.702652 256.818379 
z
M 747.429996 261.960566 
Q 746.726871 261.960566 746.228433 261.696504 
Q 745.731558 261.432441 745.469058 260.923066 
Q 745.208121 260.412129 745.208121 259.690254 
L 745.208121 259.118379 
Q 745.208121 258.366816 745.459683 257.835566 
Q 745.711246 257.302754 746.189371 257.024629 
Q 746.669058 256.744941 747.342496 256.744941 
Q 747.976871 256.744941 748.425308 257.063691 
Q 748.875308 257.380879 749.111246 257.980879 
Q 749.348746 258.580879 749.348746 259.421504 
L 749.348746 259.752754 
L 745.931558 259.752754 
L 745.931558 258.952754 
L 748.401871 258.952754 
L 748.401871 258.952754 
Q 748.358121 258.332441 748.081558 257.988691 
Q 747.806558 257.643379 747.342496 257.643379 
Q 746.775308 257.643379 746.465933 258.015254 
Q 746.156558 258.385566 746.156558 259.065254 
L 746.156558 259.709004 
Q 746.156558 260.338691 746.487808 260.676191 
Q 746.820621 261.013691 747.429996 261.013691 
Q 747.733121 261.013691 748.029996 260.891816 
Q 748.328433 260.768379 748.562808 260.549629 
L 748.562808 260.549629 
L 749.217496 261.202754 
L 749.217496 261.202754 
Q 748.840933 261.565254 748.372183 261.763691 
Q 747.903433 261.960566 747.429996 261.960566 
z
M 754.256558 263.415254 
Q 753.387808 262.473066 752.954996 261.304316 
Q 752.523746 260.134004 752.523746 258.723066 
Q 752.523746 257.312129 752.954996 256.143379 
Q 753.387808 254.973066 754.256558 254.030879 
L 754.939371 254.651191 
Q 754.203433 255.471504 753.836246 256.487129 
Q 753.470621 257.502754 753.470621 258.723066 
Q 753.470621 259.943379 753.836246 260.959004 
Q 754.203433 261.974629 754.939371 262.799629 
L 754.256558 263.415254 
z
M 757.850113 261.960566 
Q 757.206363 261.960566 756.7173 261.716816 
Q 756.2298 261.471504 755.962613 261.024629 
Q 755.696988 260.577754 755.696988 259.987129 
L 755.696988 259.869941 
Q 755.696988 259.338691 755.962613 258.869941 
Q 756.2298 258.401191 756.67355 258.162129 
Q 756.296988 257.955879 756.070425 257.568379 
Q 755.843863 257.179316 755.843863 256.749629 
L 755.843863 256.579316 
Q 755.843863 256.023066 756.0923 255.601191 
Q 756.340738 255.177754 756.795425 254.946504 
Q 757.250113 254.713691 757.850113 254.713691 
Q 758.450113 254.713691 758.9048 254.946504 
Q 759.359488 255.177754 759.607925 255.601191 
Q 759.856363 256.023066 759.856363 256.579316 
L 759.856363 256.749629 
Q 759.856363 257.190254 759.625113 257.576191 
Q 759.393863 257.960566 759.012613 258.162129 
Q 759.46105 258.405879 759.731363 258.873066 
Q 760.003238 259.338691 760.003238 259.869941 
L 760.003238 259.987129 
Q 760.003238 260.577754 759.737613 261.024629 
Q 759.471988 261.471504 758.982925 261.716816 
Q 758.495425 261.960566 757.850113 261.960566 
z
M 757.850113 261.002754 
Q 758.196988 261.002754 758.459488 260.866816 
Q 758.72355 260.729316 758.8673 260.484004 
Q 759.012613 260.237129 759.012613 259.913691 
L 759.012613 259.846504 
Q 759.012613 259.518379 758.8673 259.273066 
Q 758.72355 259.026191 758.459488 258.890254 
Q 758.196988 258.752754 757.850113 258.752754 
Q 757.503238 258.752754 757.239175 258.890254 
Q 756.976675 259.026191 756.831363 259.274629 
Q 756.687613 259.523066 756.687613 259.851191 
L 756.687613 259.924629 
Q 756.687613 260.246504 756.831363 260.490254 
Q 756.976675 260.734004 757.239175 260.868379 
Q 757.503238 261.002754 757.850113 261.002754 
z
M 757.850113 257.794941 
Q 758.14855 257.794941 758.376675 257.666816 
Q 758.606363 257.537129 758.732925 257.298066 
Q 758.86105 257.057441 758.86105 256.744941 
L 758.86105 256.677754 
Q 758.86105 256.379316 758.732925 256.149629 
Q 758.606363 255.919941 758.376675 255.796504 
Q 758.14855 255.671504 757.850113 255.671504 
Q 757.551675 255.671504 757.321988 255.796504 
Q 757.093863 255.919941 756.965738 256.149629 
Q 756.839175 256.379316 756.839175 256.682441 
L 756.839175 256.755879 
Q 756.839175 257.062129 756.965738 257.299629 
Q 757.093863 257.537129 757.321988 257.666816 
Q 757.551675 257.794941 757.850113 257.794941 
z
M 763.378238 261.960566 
Q 762.840738 261.960566 762.421988 261.751191 
Q 762.0048 261.540254 761.743863 261.140254 
Q 761.482925 260.740254 761.395425 260.177754 
L 761.395425 260.173066 
L 762.390738 260.173066 
L 762.390738 260.177754 
Q 762.445425 260.568379 762.703238 260.785566 
Q 762.962613 261.002754 763.378238 261.002754 
Q 763.856363 261.002754 764.1173 260.684004 
Q 764.378238 260.363691 764.378238 259.782441 
L 764.378238 259.187129 
Q 764.378238 258.610566 764.1173 258.291816 
Q 763.856363 257.971504 763.378238 257.971504 
Q 763.118863 257.971504 762.8798 258.118379 
Q 762.640738 258.263691 762.459488 258.527754 
L 761.551675 258.527754 
L 761.551675 254.787129 
L 765.168863 254.787129 
L 765.168863 255.734004 
L 762.546988 255.734004 
L 762.546988 257.330879 
Q 762.732925 257.179316 762.962613 257.096504 
Q 763.1923 257.013691 763.431363 257.013691 
Q 764.046988 257.013691 764.482925 257.268379 
Q 764.920425 257.521504 765.146988 258.010566 
Q 765.375113 258.498066 765.375113 259.187129 
L 765.375113 259.782441 
Q 765.375113 260.471504 765.140738 260.960566 
Q 764.906363 261.448066 764.456363 261.704316 
Q 764.007925 261.960566 763.378238 261.960566 
z
M 768.675699 261.960566 
Q 768.080386 261.960566 767.625699 261.743379 
Q 767.171011 261.526191 766.894449 261.113691 
Q 766.619449 260.701191 766.546011 260.119941 
L 766.546011 260.119941 
L 767.561636 260.119941 
L 767.561636 260.119941 
Q 767.605386 260.421504 767.752261 260.616816 
Q 767.899136 260.812129 768.130386 260.907441 
Q 768.363199 261.002754 768.675699 261.002754 
Q 769.167886 261.002754 769.441324 260.740254 
Q 769.714761 260.476191 769.714761 259.998066 
L 769.714761 259.782441 
Q 769.714761 259.249629 769.455386 258.960566 
Q 769.197574 258.669941 768.724136 258.669941 
L 768.221011 258.669941 
L 768.221011 257.721504 
L 768.724136 257.721504 
Q 769.139761 257.721504 769.367886 257.473066 
Q 769.597574 257.224629 769.597574 256.769941 
L 769.597574 256.549629 
Q 769.597574 256.130879 769.355386 255.901191 
Q 769.114761 255.671504 768.671011 255.671504 
Q 768.416324 255.671504 768.216324 255.766816 
Q 768.016324 255.862129 767.877261 256.060566 
Q 767.738199 256.257441 767.674136 256.554316 
L 767.674136 256.554316 
L 766.663199 256.554316 
L 766.663199 256.554316 
Q 766.761636 255.974629 767.031949 255.559004 
Q 767.303824 255.143379 767.717886 254.929316 
Q 768.133511 254.713691 768.671011 254.713691 
Q 769.588199 254.713691 770.091324 255.198066 
Q 770.594449 255.680879 770.594449 256.560566 
L 770.594449 256.677754 
Q 770.594449 257.209004 770.305386 257.604316 
Q 770.017886 257.999629 769.491324 258.180879 
Q 770.072574 258.307441 770.391324 258.752754 
Q 770.711636 259.196504 770.711636 259.885566 
L 770.711636 260.002754 
Q 770.711636 260.623066 770.472574 261.062129 
Q 770.233511 261.501191 769.775699 261.730879 
Q 769.319449 261.960566 768.675699 261.960566 
z
M 773.963785 261.960566 
Q 773.368472 261.960566 772.913785 261.743379 
Q 772.459097 261.526191 772.182535 261.113691 
Q 771.907535 260.701191 771.834097 260.119941 
L 771.834097 260.119941 
L 772.849722 260.119941 
L 772.849722 260.119941 
Q 772.893472 260.421504 773.040347 260.616816 
Q 773.187222 260.812129 773.418472 260.907441 
Q 773.651285 261.002754 773.963785 261.002754 
Q 774.455972 261.002754 774.72941 260.740254 
Q 775.002847 260.476191 775.002847 259.998066 
L 775.002847 259.782441 
Q 775.002847 259.249629 774.743472 258.960566 
Q 774.48566 258.669941 774.012222 258.669941 
L 773.509097 258.669941 
L 773.509097 257.721504 
L 774.012222 257.721504 
Q 774.427847 257.721504 774.655972 257.473066 
Q 774.88566 257.224629 774.88566 256.769941 
L 774.88566 256.549629 
Q 774.88566 256.130879 774.643472 255.901191 
Q 774.402847 255.671504 773.959097 255.671504 
Q 773.70441 255.671504 773.50441 255.766816 
Q 773.30441 255.862129 773.165347 256.060566 
Q 773.026285 256.257441 772.962222 256.554316 
L 772.962222 256.554316 
L 771.951285 256.554316 
L 771.951285 256.554316 
Q 772.049722 255.974629 772.320035 255.559004 
Q 772.59191 255.143379 773.005972 254.929316 
Q 773.421597 254.713691 773.959097 254.713691 
Q 774.876285 254.713691 775.37941 255.198066 
Q 775.882535 255.680879 775.882535 256.560566 
L 775.882535 256.677754 
Q 775.882535 257.209004 775.593472 257.604316 
Q 775.305972 257.999629 774.77941 258.180879 
Q 775.36066 258.307441 775.67941 258.752754 
Q 775.999722 259.196504 775.999722 259.885566 
L 775.999722 260.002754 
Q 775.999722 260.623066 775.76066 261.062129 
Q 775.521597 261.501191 775.063785 261.730879 
Q 774.607535 261.960566 773.963785 261.960566 
z
M 776.781558 262.799629 
Q 777.517496 261.974629 777.883121 260.959004 
Q 778.250308 259.943379 778.250308 258.723066 
Q 778.250308 257.502754 777.883121 256.487129 
Q 777.517496 255.471504 776.781558 254.651191 
L 777.464371 254.030879 
Q 778.333121 254.973066 778.764371 256.143379 
Q 779.197183 257.312129 779.197183 258.723066 
Q 779.197183 260.134004 778.764371 261.304316 
Q 778.333121 262.473066 777.464371 263.415254 
L 776.781558 262.799629 
z
" style="fill: #ffffff; stroke: #000000"/>
    <path d="M 712.88898 261.960566 
Q 712.37648 261.960566 711.917105 261.863691 
Q 711.459292 261.765254 711.060855 261.569941 
Q 710.662417 261.374629 710.315542 261.080879 
L 710.315542 261.080879 
L 710.935855 260.319941 
L 710.935855 260.319941 
Q 711.342105 260.671504 711.829605 260.848066 
Q 712.318667 261.023066 712.88898 261.023066 
Q 713.660855 261.023066 714.085855 260.737129 
Q 714.510855 260.451191 714.510855 259.929316 
L 714.510855 259.924629 
Q 714.510855 259.552754 714.317105 259.335566 
Q 714.124917 259.118379 713.818667 259.013691 
Q 713.51398 258.909004 713.031167 258.819941 
Q 713.015542 258.815254 712.998355 258.815254 
Q 712.98273 258.815254 712.967105 258.810566 
L 712.893667 258.796504 
Q 712.181167 258.674629 711.734292 258.521504 
Q 711.287417 258.366816 710.97023 257.959004 
Q 710.653042 257.551191 710.653042 256.799629 
L 710.653042 256.794941 
Q 710.653042 256.135566 710.948355 255.669941 
Q 711.243667 255.202754 711.809292 254.959004 
Q 712.37648 254.713691 713.171792 254.713691 
Q 713.553042 254.713691 713.921792 254.798066 
Q 714.290542 254.880879 714.648355 255.044941 
Q 715.00773 255.207441 715.354605 255.455879 
L 715.354605 255.455879 
L 714.78898 256.248066 
L 714.78898 256.248066 
Q 714.38273 255.949629 713.979605 255.801191 
Q 713.578042 255.651191 713.171792 255.651191 
Q 712.44523 255.651191 712.042105 255.941816 
Q 711.63898 256.232441 711.63898 256.765254 
L 711.63898 256.769941 
Q 711.63898 257.135566 711.846792 257.346504 
Q 712.054605 257.555879 712.36398 257.655879 
Q 712.674917 257.755879 713.22648 257.863691 
Q 713.24523 257.868379 713.262417 257.871504 
Q 713.279605 257.873066 713.299917 257.877754 
Q 713.323355 257.882441 713.353042 257.888691 
Q 713.38273 257.893379 713.406167 257.898066 
Q 714.05148 258.029316 714.48273 258.210566 
Q 714.915542 258.390254 715.206167 258.793379 
Q 715.496792 259.196504 715.496792 259.894941 
L 715.496792 259.904316 
Q 715.496792 260.554316 715.18898 261.015254 
Q 714.881167 261.476191 714.296792 261.718379 
Q 713.71398 261.960566 712.88898 261.960566 
z
M 717.586832 260.940254 
L 719.193082 260.940254 
Q 719.979019 260.940254 720.410269 260.532441 
Q 720.843082 260.124629 720.843082 259.382441 
L 720.843082 257.291816 
Q 720.843082 256.549629 720.410269 256.141816 
Q 719.979019 255.734004 719.193082 255.734004 
L 717.586832 255.734004 
L 717.586832 254.787129 
L 719.163394 254.787129 
Q 720.018082 254.787129 720.622769 255.085566 
Q 721.229019 255.382441 721.546207 255.954316 
Q 721.863394 256.526191 721.863394 257.330879 
L 721.863394 259.343379 
Q 721.863394 260.148066 721.546207 260.719941 
Q 721.229019 261.291816 720.621207 261.590254 
Q 720.013394 261.887129 719.158707 261.887129 
L 717.586832 261.887129 
L 717.586832 260.940254 
z
M 716.913394 254.787129 
L 717.908707 254.787129 
L 717.908707 261.887129 
L 716.913394 261.887129 
L 716.913394 254.787129 
z
M 725.408707 261.960566 
Q 724.764957 261.960566 724.275894 261.716816 
Q 723.788394 261.471504 723.521207 261.024629 
Q 723.255582 260.577754 723.255582 259.987129 
L 723.255582 259.869941 
Q 723.255582 259.338691 723.521207 258.869941 
Q 723.788394 258.401191 724.232144 258.162129 
Q 723.855582 257.955879 723.629019 257.568379 
Q 723.402457 257.179316 723.402457 256.749629 
L 723.402457 256.579316 
Q 723.402457 256.023066 723.650894 255.601191 
Q 723.899332 255.177754 724.354019 254.946504 
Q 724.808707 254.713691 725.408707 254.713691 
Q 726.008707 254.713691 726.463394 254.946504 
Q 726.918082 255.177754 727.166519 255.601191 
Q 727.414957 256.023066 727.414957 256.579316 
L 727.414957 256.749629 
Q 727.414957 257.190254 727.183707 257.576191 
Q 726.952457 257.960566 726.571207 258.162129 
Q 727.019644 258.405879 727.289957 258.873066 
Q 727.561832 259.338691 727.561832 259.869941 
L 727.561832 259.987129 
Q 727.561832 260.577754 727.296207 261.024629 
Q 727.030582 261.471504 726.541519 261.716816 
Q 726.054019 261.960566 725.408707 261.960566 
z
M 725.408707 261.002754 
Q 725.755582 261.002754 726.018082 260.866816 
Q 726.282144 260.729316 726.425894 260.484004 
Q 726.571207 260.237129 726.571207 259.913691 
L 726.571207 259.846504 
Q 726.571207 259.518379 726.425894 259.273066 
Q 726.282144 259.026191 726.018082 258.890254 
Q 725.755582 258.752754 725.408707 258.752754 
Q 725.061832 258.752754 724.797769 258.890254 
Q 724.535269 259.026191 724.389957 259.274629 
Q 724.246207 259.523066 724.246207 259.851191 
L 724.246207 259.924629 
Q 724.246207 260.246504 724.389957 260.490254 
Q 724.535269 260.734004 724.797769 260.868379 
Q 725.061832 261.002754 725.408707 261.002754 
z
M 725.408707 257.794941 
Q 725.707144 257.794941 725.935269 257.666816 
Q 726.164957 257.537129 726.291519 257.298066 
Q 726.419644 257.057441 726.419644 256.744941 
L 726.419644 256.677754 
Q 726.419644 256.379316 726.291519 256.149629 
Q 726.164957 255.919941 725.935269 255.796504 
Q 725.707144 255.671504 725.408707 255.671504 
Q 725.110269 255.671504 724.880582 255.796504 
Q 724.652457 255.919941 724.524332 256.149629 
Q 724.397769 256.379316 724.397769 256.682441 
L 724.397769 256.755879 
Q 724.397769 257.062129 724.524332 257.299629 
Q 724.652457 257.537129 724.880582 257.666816 
Q 725.110269 257.794941 725.408707 257.794941 
z
M 730.809878 254.787129 
L 731.805191 254.787129 
L 731.805191 261.887129 
L 730.809878 261.887129 
L 730.809878 254.787129 
z
M 731.292691 260.940254 
L 735.369253 260.940254 
L 735.369253 261.887129 
L 731.292691 261.887129 
L 731.292691 260.940254 
z
M 731.292691 257.888691 
L 734.833316 257.888691 
L 734.833316 258.835566 
L 731.292691 258.835566 
L 731.292691 257.888691 
z
M 731.292691 254.787129 
L 735.369253 254.787129 
L 735.369253 255.734004 
L 731.292691 255.734004 
L 731.292691 254.787129 
z
M 737.684878 260.577754 
Q 737.684878 260.763691 737.764566 260.863691 
Q 737.845816 260.963691 737.991128 260.963691 
L 738.459878 260.963691 
L 738.459878 261.912129 
L 737.873941 261.912129 
Q 737.308316 261.912129 736.997378 261.560566 
Q 736.688003 261.209004 736.688003 260.568379 
L 736.688003 254.787129 
L 737.684878 254.787129 
L 737.684878 260.577754 
z
M 739.583511 254.787129 
L 740.580386 254.787129 
L 740.580386 255.784004 
L 739.583511 255.784004 
L 739.583511 254.787129 
z
M 739.583511 256.818379 
L 740.580386 256.818379 
L 740.580386 261.887129 
L 739.583511 261.887129 
L 739.583511 256.818379 
z
M 743.412027 261.912129 
Q 742.796402 261.912129 742.510464 261.573066 
Q 742.224527 261.232441 742.224527 260.568379 
L 742.224527 255.343379 
L 743.221402 255.343379 
L 743.221402 260.577754 
Q 743.221402 260.763691 743.294839 260.863691 
Q 743.368277 260.963691 743.508902 260.963691 
L 743.988589 260.963691 
L 743.988589 261.912129 
L 743.412027 261.912129 
z
M 741.702652 256.818379 
L 743.988589 256.818379 
L 743.988589 257.716816 
L 741.702652 257.716816 
L 741.702652 256.818379 
z
M 747.429996 261.960566 
Q 746.726871 261.960566 746.228433 261.696504 
Q 745.731558 261.432441 745.469058 260.923066 
Q 745.208121 260.412129 745.208121 259.690254 
L 745.208121 259.118379 
Q 745.208121 258.366816 745.459683 257.835566 
Q 745.711246 257.302754 746.189371 257.024629 
Q 746.669058 256.744941 747.342496 256.744941 
Q 747.976871 256.744941 748.425308 257.063691 
Q 748.875308 257.380879 749.111246 257.980879 
Q 749.348746 258.580879 749.348746 259.421504 
L 749.348746 259.752754 
L 745.931558 259.752754 
L 745.931558 258.952754 
L 748.401871 258.952754 
L 748.401871 258.952754 
Q 748.358121 258.332441 748.081558 257.988691 
Q 747.806558 257.643379 747.342496 257.643379 
Q 746.775308 257.643379 746.465933 258.015254 
Q 746.156558 258.385566 746.156558 259.065254 
L 746.156558 259.709004 
Q 746.156558 260.338691 746.487808 260.676191 
Q 746.820621 261.013691 747.429996 261.013691 
Q 747.733121 261.013691 748.029996 260.891816 
Q 748.328433 260.768379 748.562808 260.549629 
L 748.562808 260.549629 
L 749.217496 261.202754 
L 749.217496 261.202754 
Q 748.840933 261.565254 748.372183 261.763691 
Q 747.903433 261.960566 747.429996 261.960566 
z
M 754.256558 263.415254 
Q 753.387808 262.473066 752.954996 261.304316 
Q 752.523746 260.134004 752.523746 258.723066 
Q 752.523746 257.312129 752.954996 256.143379 
Q 753.387808 254.973066 754.256558 254.030879 
L 754.939371 254.651191 
Q 754.203433 255.471504 753.836246 256.487129 
Q 753.470621 257.502754 753.470621 258.723066 
Q 753.470621 259.943379 753.836246 260.959004 
Q 754.203433 261.974629 754.939371 262.799629 
L 754.256558 263.415254 
z
M 757.850113 261.960566 
Q 757.206363 261.960566 756.7173 261.716816 
Q 756.2298 261.471504 755.962613 261.024629 
Q 755.696988 260.577754 755.696988 259.987129 
L 755.696988 259.869941 
Q 755.696988 259.338691 755.962613 258.869941 
Q 756.2298 258.401191 756.67355 258.162129 
Q 756.296988 257.955879 756.070425 257.568379 
Q 755.843863 257.179316 755.843863 256.749629 
L 755.843863 256.579316 
Q 755.843863 256.023066 756.0923 255.601191 
Q 756.340738 255.177754 756.795425 254.946504 
Q 757.250113 254.713691 757.850113 254.713691 
Q 758.450113 254.713691 758.9048 254.946504 
Q 759.359488 255.177754 759.607925 255.601191 
Q 759.856363 256.023066 759.856363 256.579316 
L 759.856363 256.749629 
Q 759.856363 257.190254 759.625113 257.576191 
Q 759.393863 257.960566 759.012613 258.162129 
Q 759.46105 258.405879 759.731363 258.873066 
Q 760.003238 259.338691 760.003238 259.869941 
L 760.003238 259.987129 
Q 760.003238 260.577754 759.737613 261.024629 
Q 759.471988 261.471504 758.982925 261.716816 
Q 758.495425 261.960566 757.850113 261.960566 
z
M 757.850113 261.002754 
Q 758.196988 261.002754 758.459488 260.866816 
Q 758.72355 260.729316 758.8673 260.484004 
Q 759.012613 260.237129 759.012613 259.913691 
L 759.012613 259.846504 
Q 759.012613 259.518379 758.8673 259.273066 
Q 758.72355 259.026191 758.459488 258.890254 
Q 758.196988 258.752754 757.850113 258.752754 
Q 757.503238 258.752754 757.239175 258.890254 
Q 756.976675 259.026191 756.831363 259.274629 
Q 756.687613 259.523066 756.687613 259.851191 
L 756.687613 259.924629 
Q 756.687613 260.246504 756.831363 260.490254 
Q 756.976675 260.734004 757.239175 260.868379 
Q 757.503238 261.002754 757.850113 261.002754 
z
M 757.850113 257.794941 
Q 758.14855 257.794941 758.376675 257.666816 
Q 758.606363 257.537129 758.732925 257.298066 
Q 758.86105 257.057441 758.86105 256.744941 
L 758.86105 256.677754 
Q 758.86105 256.379316 758.732925 256.149629 
Q 758.606363 255.919941 758.376675 255.796504 
Q 758.14855 255.671504 757.850113 255.671504 
Q 757.551675 255.671504 757.321988 255.796504 
Q 757.093863 255.919941 756.965738 256.149629 
Q 756.839175 256.379316 756.839175 256.682441 
L 756.839175 256.755879 
Q 756.839175 257.062129 756.965738 257.299629 
Q 757.093863 257.537129 757.321988 257.666816 
Q 757.551675 257.794941 757.850113 257.794941 
z
M 763.378238 261.960566 
Q 762.840738 261.960566 762.421988 261.751191 
Q 762.0048 261.540254 761.743863 261.140254 
Q 761.482925 260.740254 761.395425 260.177754 
L 761.395425 260.173066 
L 762.390738 260.173066 
L 762.390738 260.177754 
Q 762.445425 260.568379 762.703238 260.785566 
Q 762.962613 261.002754 763.378238 261.002754 
Q 763.856363 261.002754 764.1173 260.684004 
Q 764.378238 260.363691 764.378238 259.782441 
L 764.378238 259.187129 
Q 764.378238 258.610566 764.1173 258.291816 
Q 763.856363 257.971504 763.378238 257.971504 
Q 763.118863 257.971504 762.8798 258.118379 
Q 762.640738 258.263691 762.459488 258.527754 
L 761.551675 258.527754 
L 761.551675 254.787129 
L 765.168863 254.787129 
L 765.168863 255.734004 
L 762.546988 255.734004 
L 762.546988 257.330879 
Q 762.732925 257.179316 762.962613 257.096504 
Q 763.1923 257.013691 763.431363 257.013691 
Q 764.046988 257.013691 764.482925 257.268379 
Q 764.920425 257.521504 765.146988 258.010566 
Q 765.375113 258.498066 765.375113 259.187129 
L 765.375113 259.782441 
Q 765.375113 260.471504 765.140738 260.960566 
Q 764.906363 261.448066 764.456363 261.704316 
Q 764.007925 261.960566 763.378238 261.960566 
z
M 768.675699 261.960566 
Q 768.080386 261.960566 767.625699 261.743379 
Q 767.171011 261.526191 766.894449 261.113691 
Q 766.619449 260.701191 766.546011 260.119941 
L 766.546011 260.119941 
L 767.561636 260.119941 
L 767.561636 260.119941 
Q 767.605386 260.421504 767.752261 260.616816 
Q 767.899136 260.812129 768.130386 260.907441 
Q 768.363199 261.002754 768.675699 261.002754 
Q 769.167886 261.002754 769.441324 260.740254 
Q 769.714761 260.476191 769.714761 259.998066 
L 769.714761 259.782441 
Q 769.714761 259.249629 769.455386 258.960566 
Q 769.197574 258.669941 768.724136 258.669941 
L 768.221011 258.669941 
L 768.221011 257.721504 
L 768.724136 257.721504 
Q 769.139761 257.721504 769.367886 257.473066 
Q 769.597574 257.224629 769.597574 256.769941 
L 769.597574 256.549629 
Q 769.597574 256.130879 769.355386 255.901191 
Q 769.114761 255.671504 768.671011 255.671504 
Q 768.416324 255.671504 768.216324 255.766816 
Q 768.016324 255.862129 767.877261 256.060566 
Q 767.738199 256.257441 767.674136 256.554316 
L 767.674136 256.554316 
L 766.663199 256.554316 
L 766.663199 256.554316 
Q 766.761636 255.974629 767.031949 255.559004 
Q 767.303824 255.143379 767.717886 254.929316 
Q 768.133511 254.713691 768.671011 254.713691 
Q 769.588199 254.713691 770.091324 255.198066 
Q 770.594449 255.680879 770.594449 256.560566 
L 770.594449 256.677754 
Q 770.594449 257.209004 770.305386 257.604316 
Q 770.017886 257.999629 769.491324 258.180879 
Q 770.072574 258.307441 770.391324 258.752754 
Q 770.711636 259.196504 770.711636 259.885566 
L 770.711636 260.002754 
Q 770.711636 260.623066 770.472574 261.062129 
Q 770.233511 261.501191 769.775699 261.730879 
Q 769.319449 261.960566 768.675699 261.960566 
z
M 773.963785 261.960566 
Q 773.368472 261.960566 772.913785 261.743379 
Q 772.459097 261.526191 772.182535 261.113691 
Q 771.907535 260.701191 771.834097 260.119941 
L 771.834097 260.119941 
L 772.849722 260.119941 
L 772.849722 260.119941 
Q 772.893472 260.421504 773.040347 260.616816 
Q 773.187222 260.812129 773.418472 260.907441 
Q 773.651285 261.002754 773.963785 261.002754 
Q 774.455972 261.002754 774.72941 260.740254 
Q 775.002847 260.476191 775.002847 259.998066 
L 775.002847 259.782441 
Q 775.002847 259.249629 774.743472 258.960566 
Q 774.48566 258.669941 774.012222 258.669941 
L 773.509097 258.669941 
L 773.509097 257.721504 
L 774.012222 257.721504 
Q 774.427847 257.721504 774.655972 257.473066 
Q 774.88566 257.224629 774.88566 256.769941 
L 774.88566 256.549629 
Q 774.88566 256.130879 774.643472 255.901191 
Q 774.402847 255.671504 773.959097 255.671504 
Q 773.70441 255.671504 773.50441 255.766816 
Q 773.30441 255.862129 773.165347 256.060566 
Q 773.026285 256.257441 772.962222 256.554316 
L 772.962222 256.554316 
L 771.951285 256.554316 
L 771.951285 256.554316 
Q 772.049722 255.974629 772.320035 255.559004 
Q 772.59191 255.143379 773.005972 254.929316 
Q 773.421597 254.713691 773.959097 254.713691 
Q 774.876285 254.713691 775.37941 255.198066 
Q 775.882535 255.680879 775.882535 256.560566 
L 775.882535 256.677754 
Q 775.882535 257.209004 775.593472 257.604316 
Q 775.305972 257.999629 774.77941 258.180879 
Q 775.36066 258.307441 775.67941 258.752754 
Q 775.999722 259.196504 775.999722 259.885566 
L 775.999722 260.002754 
Q 775.999722 260.623066 775.76066 261.062129 
Q 775.521597 261.501191 775.063785 261.730879 
Q 774.607535 261.960566 773.963785 261.960566 
z
M 776.781558 262.799629 
Q 777.517496 261.974629 777.883121 260.959004 
Q 778.250308 259.943379 778.250308 258.723066 
Q 778.250308 257.502754 777.883121 256.487129 
Q 777.517496 255.471504 776.781558 254.651191 
L 777.464371 254.030879 
Q 778.333121 254.973066 778.764371 256.143379 
Q 779.197183 257.312129 779.197183 258.723066 
Q 779.197183 260.134004 778.764371 261.304316 
Q 778.333121 262.473066 777.464371 263.415254 
L 776.781558 262.799629 
z
" style="fill: #ffffff"/>
   </g>
  </g>
 </g>
 <defs>
  <clipPath id="pbc6d477bb3">
   <rect x="144" y="77.76" width="892.8" height="498.96"/>
  </clipPath>
 </defs>
</svg>
