<?xml version="1.0" encoding="utf-8" standalone="no"?>
<!DOCTYPE svg PUBLIC "-//W3C//DTD SVG 1.1//EN"
  "http://www.w3.org/Graphics/SVG/1.1/DTD/svg11.dtd">
<svg xmlns:xlink="http://www.w3.org/1999/xlink" width="1152pt" height="648pt" viewBox="0 0 1152 648" xmlns="http://www.w3.org/2000/svg" version="1.1">
 <metadata>
  <rdf:RDF xmlns:dc="http://purl.org/dc/elements/1.1/" xmlns:cc="http://creativecommons.org/ns#" xmlns:rdf="http://www.w3.org/1999/02/22-rdf-syntax-ns#">
   <cc:Work>
    <dc:type rdf:resource="http://purl.org/dc/dcmitype/StillImage"/>
    <dc:date>2025-09-19T13:51:42.522397</dc:date>
    <dc:format>image/svg+xml</dc:format>
    <dc:creator>
     <cc:Agent>
      <dc:title>Matplotlib v3.10.3, https://matplotlib.org/</dc:title>
     </cc:Agent>
    </dc:creator>
   </cc:Work>
  </rdf:RDF>
 </metadata>
 <defs>
  <style type="text/css">*{stroke-linejoin: round; stroke-linecap: butt}</style>
 </defs>
 <g id="figure_1">
  <g id="patch_1">
   <path d="M 0 648 
L 1152 648 
L 1152 0 
L 0 0 
L 0 648 
z
" style="fill: none"/>
  </g>
  <g id="axes_1">
   <g id="line2d_1">
    <path d="M 248.16 515.956584 
L 253.275313 512.31049 
L 258.390626 508.749087 
L 263.505939 505.270937 
L 268.621253 501.874598 
L 273.736566 498.558627 
L 278.851879 495.321582 
L 283.967192 492.16202 
L 289.082505 489.078505 
L 294.197818 486.069601 
L 299.313131 483.133882 
L 304.428444 480.269926 
L 309.543758 477.476322 
L 314.659071 474.751665 
L 319.774384 472.094565 
L 324.889697 469.50364 
L 330.00501 466.977522 
L 335.120323 464.514857 
L 340.235636 462.114301 
L 345.350949 459.774531 
L 350.466263 457.494233 
L 355.581576 455.272113 
L 360.696889 453.106893 
L 365.812202 450.997311 
L 370.927515 448.942122 
L 376.042828 446.9401 
L 381.158141 444.990036 
L 386.273455 443.09074 
L 391.388768 441.24104 
L 396.504081 439.439784 
L 401.619394 437.685838 
L 406.734707 435.978088 
L 411.85002 434.315438 
L 416.965333 432.696812 
L 422.080646 431.121154 
L 427.19596 429.587425 
L 432.311273 428.094609 
L 437.426586 426.641707 
L 442.541899 425.227738 
L 447.657212 423.851744 
L 452.772525 422.512782 
L 457.887838 421.209932 
L 463.003152 419.942289 
L 468.118465 418.708968 
L 473.233778 417.509105 
L 478.349091 416.341851 
L 483.464404 415.206376 
L 488.579717 414.101869 
L 493.69503 413.027536 
L 498.810343 411.9826 
L 503.925657 410.966304 
L 509.04097 409.977904 
L 514.156283 409.016675 
L 519.271596 408.08191 
L 524.386909 407.172915 
L 529.502222 406.289015 
L 534.617535 405.429549 
L 539.732848 404.593872 
L 544.848162 403.781356 
L 549.963475 402.991386 
L 555.078788 402.223361 
L 560.194101 401.476697 
L 565.309414 400.750823 
L 570.424727 400.045182 
L 575.54004 399.359231 
L 580.655354 398.692439 
L 585.770667 398.044291 
L 590.88598 397.414282 
L 596.001293 396.801921 
L 601.116606 396.206729 
L 606.231919 395.62824 
L 611.347232 395.065999 
L 616.462545 394.519562 
L 621.577859 393.988498 
L 626.693172 393.472386 
L 631.808485 392.970817 
L 636.923798 392.48339 
L 642.039111 392.009717 
L 647.154424 391.549419 
L 652.269737 391.102127 
L 657.385051 390.667482 
L 662.500364 390.245135 
L 667.615677 389.834744 
L 672.73099 389.435979 
L 677.846303 389.048516 
L 682.961616 388.672042 
L 688.076929 388.30625 
L 693.192242 387.950843 
L 698.307556 387.605532 
L 703.422869 387.270035 
L 708.538182 386.944077 
L 713.653495 386.627392 
L 718.768808 386.31972 
L 723.884121 386.020808 
L 728.999434 385.730411 
L 734.114747 385.448289 
L 739.230061 385.174211 
L 744.345374 384.90795 
L 749.460687 384.649285 
L 754.576 384.398004 
" clip-path="url(#p1844d23d9f)" style="fill: none; stroke: #f2b230; stroke-width: 3; stroke-linecap: round"/>
   </g>
   <g id="text_1">
    <path d="M 762.021605 385.097697 
L 763.627855 385.097697 
Q 764.413792 385.097697 764.845042 384.689885 
Q 765.277855 384.282072 765.277855 383.539885 
L 765.277855 381.44926 
Q 765.277855 380.707072 764.845042 380.29926 
Q 764.413792 379.891447 763.627855 379.891447 
L 762.021605 379.891447 
L 762.021605 378.944572 
L 763.598168 378.944572 
Q 764.452855 378.944572 765.057542 379.24301 
Q 765.663792 379.539885 765.98098 380.11176 
Q 766.298167 380.683635 766.298167 381.488322 
L 766.298167 383.500822 
Q 766.298167 384.30551 765.98098 384.877385 
Q 765.663792 385.44926 765.05598 385.747697 
Q 764.448167 386.044572 763.59348 386.044572 
L 762.021605 386.044572 
L 762.021605 385.097697 
z
M 761.348168 378.944572 
L 762.34348 378.944572 
L 762.34348 386.044572 
L 761.348168 386.044572 
L 761.348168 378.944572 
z
M 770.277855 382.519572 
L 770.273167 382.694572 
Q 770.151292 382.919572 769.904418 383.02426 
Q 769.657542 383.128947 769.321605 383.128947 
Q 768.813792 383.128947 768.427855 382.871135 
Q 768.041917 382.61176 767.829417 382.141447 
Q 767.616917 381.669572 767.616917 381.04926 
L 767.616917 381.044572 
Q 767.616917 380.35551 767.848168 379.86801 
Q 768.08098 379.378947 768.527855 379.125822 
Q 768.97473 378.871135 769.59973 378.871135 
Q 770.22473 378.871135 770.66848 379.13051 
Q 771.113793 379.389885 771.345042 379.883635 
Q 771.576293 380.375822 771.576293 381.069572 
L 771.576293 381.07426 
Q 771.576293 381.453947 771.477855 381.88676 
Q 771.38098 382.319572 771.201293 382.74301 
Q 771.171605 382.807072 771.141917 382.872697 
Q 771.113793 382.938322 771.079417 383.002385 
L 769.565355 386.044572 
L 768.490355 386.044572 
L 770.277855 382.519572 
z
M 769.59973 382.221135 
Q 770.06848 382.221135 770.32473 381.903947 
Q 770.58098 381.58676 770.58098 381.010197 
L 770.58098 381.00551 
Q 770.58098 380.444572 770.32473 380.13676 
Q 770.06848 379.828947 769.59973 379.828947 
Q 769.126292 379.828947 768.870042 380.13676 
Q 768.613793 380.444572 768.613793 381.010197 
L 768.613793 381.014885 
Q 768.613793 381.591447 768.870042 381.907072 
Q 769.126292 382.221135 769.59973 382.221135 
z
M 772.787816 385.18051 
L 775.262816 381.878947 
Q 775.478441 381.596135 775.597191 381.291447 
Q 775.717503 380.985197 775.717503 380.722697 
L 775.717503 380.71176 
Q 775.717503 380.288322 775.467503 380.053947 
Q 775.219066 379.819572 774.761253 379.819572 
Q 774.325316 379.819572 774.056566 380.075822 
Q 773.789378 380.332072 773.730003 380.800822 
L 773.730003 380.80551 
L 772.700316 380.80551 
L 772.700316 380.800822 
Q 772.787816 380.189885 773.058128 379.758635 
Q 773.330003 379.325822 773.759691 379.09926 
Q 774.189378 378.871135 774.750316 378.871135 
Q 775.386253 378.871135 775.834691 379.088322 
Q 776.284691 379.30551 776.519066 379.721135 
Q 776.753441 380.13676 776.753441 380.722697 
L 776.753441 380.727385 
Q 776.753441 381.102385 776.597191 381.513322 
Q 776.440941 381.922697 776.161253 382.303947 
L 774.106566 385.097697 
L 776.792503 385.097697 
L 776.792503 386.044572 
L 772.787816 386.044572 
L 772.787816 385.18051 
z
M 780.088207 386.11801 
Q 779.091332 386.11801 778.575707 385.58676 
Q 778.061644 385.053947 778.061644 384.100822 
L 778.061644 380.87426 
Q 778.061644 379.916447 778.578832 379.38676 
Q 779.096019 378.857072 780.088207 378.857072 
Q 781.083519 378.857072 781.599144 379.385197 
Q 782.114769 379.91176 782.114769 380.87426 
L 782.114769 384.100822 
Q 782.114769 385.058635 781.596019 385.588322 
Q 781.078832 386.11801 780.088207 386.11801 
z
M 780.088207 385.171135 
Q 780.614769 385.171135 780.866332 384.894572 
Q 781.117894 384.61801 781.117894 384.100822 
L 781.117894 380.87426 
Q 781.117894 380.35551 780.867894 380.08051 
Q 780.619457 379.803947 780.088207 379.803947 
Q 779.555394 379.803947 779.305394 380.08051 
Q 779.056957 380.35551 779.056957 380.87426 
L 779.056957 384.100822 
Q 779.056957 384.61801 779.308519 384.894572 
Q 779.560082 385.171135 780.088207 385.171135 
z
M 785.605785 386.11801 
Q 784.60891 386.11801 784.093285 385.58676 
Q 783.579222 385.053947 783.579222 384.100822 
L 783.579222 380.87426 
Q 783.579222 379.916447 784.09641 379.38676 
Q 784.613597 378.857072 785.605785 378.857072 
Q 786.601097 378.857072 787.116722 379.385197 
Q 787.632347 379.91176 787.632347 380.87426 
L 787.632347 384.100822 
Q 787.632347 385.058635 787.113597 385.588322 
Q 786.59641 386.11801 785.605785 386.11801 
z
M 785.605785 385.171135 
Q 786.132347 385.171135 786.38391 384.894572 
Q 786.635472 384.61801 786.635472 384.100822 
L 786.635472 380.87426 
Q 786.635472 380.35551 786.385472 380.08051 
Q 786.137035 379.803947 785.605785 379.803947 
Q 785.072972 379.803947 784.822972 380.08051 
Q 784.574535 380.35551 784.574535 380.87426 
L 784.574535 384.100822 
Q 784.574535 384.61801 784.826097 384.894572 
Q 785.07766 385.171135 785.605785 385.171135 
z
M 793.012425 382.29926 
L 793.012425 383.246135 
L 789.048363 383.246135 
L 789.048363 382.29926 
L 793.012425 382.29926 
z
M 791.52805 384.75551 
L 790.532738 384.75551 
L 790.532738 380.789885 
L 791.52805 380.789885 
L 791.52805 384.75551 
z
" style="fill: #ffffff; stroke: #000000"/>
    <path d="M 762.021605 385.097697 
L 763.627855 385.097697 
Q 764.413792 385.097697 764.845042 384.689885 
Q 765.277855 384.282072 765.277855 383.539885 
L 765.277855 381.44926 
Q 765.277855 380.707072 764.845042 380.29926 
Q 764.413792 379.891447 763.627855 379.891447 
L 762.021605 379.891447 
L 762.021605 378.944572 
L 763.598168 378.944572 
Q 764.452855 378.944572 765.057542 379.24301 
Q 765.663792 379.539885 765.98098 380.11176 
Q 766.298167 380.683635 766.298167 381.488322 
L 766.298167 383.500822 
Q 766.298167 384.30551 765.98098 384.877385 
Q 765.663792 385.44926 765.05598 385.747697 
Q 764.448167 386.044572 763.59348 386.044572 
L 762.021605 386.044572 
L 762.021605 385.097697 
z
M 761.348168 378.944572 
L 762.34348 378.944572 
L 762.34348 386.044572 
L 761.348168 386.044572 
L 761.348168 378.944572 
z
M 770.277855 382.519572 
L 770.273167 382.694572 
Q 770.151292 382.919572 769.904418 383.02426 
Q 769.657542 383.128947 769.321605 383.128947 
Q 768.813792 383.128947 768.427855 382.871135 
Q 768.041917 382.61176 767.829417 382.141447 
Q 767.616917 381.669572 767.616917 381.04926 
L 767.616917 381.044572 
Q 767.616917 380.35551 767.848168 379.86801 
Q 768.08098 379.378947 768.527855 379.125822 
Q 768.97473 378.871135 769.59973 378.871135 
Q 770.22473 378.871135 770.66848 379.13051 
Q 771.113793 379.389885 771.345042 379.883635 
Q 771.576293 380.375822 771.576293 381.069572 
L 771.576293 381.07426 
Q 771.576293 381.453947 771.477855 381.88676 
Q 771.38098 382.319572 771.201293 382.74301 
Q 771.171605 382.807072 771.141917 382.872697 
Q 771.113793 382.938322 771.079417 383.002385 
L 769.565355 386.044572 
L 768.490355 386.044572 
L 770.277855 382.519572 
z
M 769.59973 382.221135 
Q 770.06848 382.221135 770.32473 381.903947 
Q 770.58098 381.58676 770.58098 381.010197 
L 770.58098 381.00551 
Q 770.58098 380.444572 770.32473 380.13676 
Q 770.06848 379.828947 769.59973 379.828947 
Q 769.126292 379.828947 768.870042 380.13676 
Q 768.613793 380.444572 768.613793 381.010197 
L 768.613793 381.014885 
Q 768.613793 381.591447 768.870042 381.907072 
Q 769.126292 382.221135 769.59973 382.221135 
z
M 772.787816 385.18051 
L 775.262816 381.878947 
Q 775.478441 381.596135 775.597191 381.291447 
Q 775.717503 380.985197 775.717503 380.722697 
L 775.717503 380.71176 
Q 775.717503 380.288322 775.467503 380.053947 
Q 775.219066 379.819572 774.761253 379.819572 
Q 774.325316 379.819572 774.056566 380.075822 
Q 773.789378 380.332072 773.730003 380.800822 
L 773.730003 380.80551 
L 772.700316 380.80551 
L 772.700316 380.800822 
Q 772.787816 380.189885 773.058128 379.758635 
Q 773.330003 379.325822 773.759691 379.09926 
Q 774.189378 378.871135 774.750316 378.871135 
Q 775.386253 378.871135 775.834691 379.088322 
Q 776.284691 379.30551 776.519066 379.721135 
Q 776.753441 380.13676 776.753441 380.722697 
L 776.753441 380.727385 
Q 776.753441 381.102385 776.597191 381.513322 
Q 776.440941 381.922697 776.161253 382.303947 
L 774.106566 385.097697 
L 776.792503 385.097697 
L 776.792503 386.044572 
L 772.787816 386.044572 
L 772.787816 385.18051 
z
M 780.088207 386.11801 
Q 779.091332 386.11801 778.575707 385.58676 
Q 778.061644 385.053947 778.061644 384.100822 
L 778.061644 380.87426 
Q 778.061644 379.916447 778.578832 379.38676 
Q 779.096019 378.857072 780.088207 378.857072 
Q 781.083519 378.857072 781.599144 379.385197 
Q 782.114769 379.91176 782.114769 380.87426 
L 782.114769 384.100822 
Q 782.114769 385.058635 781.596019 385.588322 
Q 781.078832 386.11801 780.088207 386.11801 
z
M 780.088207 385.171135 
Q 780.614769 385.171135 780.866332 384.894572 
Q 781.117894 384.61801 781.117894 384.100822 
L 781.117894 380.87426 
Q 781.117894 380.35551 780.867894 380.08051 
Q 780.619457 379.803947 780.088207 379.803947 
Q 779.555394 379.803947 779.305394 380.08051 
Q 779.056957 380.35551 779.056957 380.87426 
L 779.056957 384.100822 
Q 779.056957 384.61801 779.308519 384.894572 
Q 779.560082 385.171135 780.088207 385.171135 
z
M 785.605785 386.11801 
Q 784.60891 386.11801 784.093285 385.58676 
Q 783.579222 385.053947 783.579222 384.100822 
L 783.579222 380.87426 
Q 783.579222 379.916447 784.09641 379.38676 
Q 784.613597 378.857072 785.605785 378.857072 
Q 786.601097 378.857072 787.116722 379.385197 
Q 787.632347 379.91176 787.632347 380.87426 
L 787.632347 384.100822 
Q 787.632347 385.058635 787.113597 385.588322 
Q 786.59641 386.11801 785.605785 386.11801 
z
M 785.605785 385.171135 
Q 786.132347 385.171135 786.38391 384.894572 
Q 786.635472 384.61801 786.635472 384.100822 
L 786.635472 380.87426 
Q 786.635472 380.35551 786.385472 380.08051 
Q 786.137035 379.803947 785.605785 379.803947 
Q 785.072972 379.803947 784.822972 380.08051 
Q 784.574535 380.35551 784.574535 380.87426 
L 784.574535 384.100822 
Q 784.574535 384.61801 784.826097 384.894572 
Q 785.07766 385.171135 785.605785 385.171135 
z
M 793.012425 382.29926 
L 793.012425 383.246135 
L 789.048363 383.246135 
L 789.048363 382.29926 
L 793.012425 382.29926 
z
M 791.52805 384.75551 
L 790.532738 384.75551 
L 790.532738 380.789885 
L 791.52805 380.789885 
L 791.52805 384.75551 
z
" style="fill: #ffffff"/>
   </g>
  </g>
 </g>
 <defs>
  <clipPath id="p1844d23d9f">
   <rect x="144" y="77.76" width="892.8" height="498.96"/>
  </clipPath>
 </defs>
</svg>
