<?xml version="1.0" encoding="utf-8" standalone="no"?>
<!DOCTYPE svg PUBLIC "-//W3C//DTD SVG 1.1//EN"
  "http://www.w3.org/Graphics/SVG/1.1/DTD/svg11.dtd">
<svg xmlns:xlink="http://www.w3.org/1999/xlink" width="1152pt" height="648pt" viewBox="0 0 1152 648" xmlns="http://www.w3.org/2000/svg" version="1.1">
 <metadata>
  <rdf:RDF xmlns:dc="http://purl.org/dc/elements/1.1/" xmlns:cc="http://creativecommons.org/ns#" xmlns:rdf="http://www.w3.org/1999/02/22-rdf-syntax-ns#">
   <cc:Work>
    <dc:type rdf:resource="http://purl.org/dc/dcmitype/StillImage"/>
    <dc:date>2025-09-19T13:51:42.084424</dc:date>
    <dc:format>image/svg+xml</dc:format>
    <dc:creator>
     <cc:Agent>
      <dc:title>Matplotlib v3.10.3, https://matplotlib.org/</dc:title>
     </cc:Agent>
    </dc:creator>
   </cc:Work>
  </rdf:RDF>
 </metadata>
 <defs>
  <style type="text/css">*{stroke-linejoin: round; stroke-linecap: butt}</style>
 </defs>
 <g id="figure_1">
  <g id="patch_1">
   <path d="M 0 648 
L 1152 648 
L 1152 0 
L 0 0 
L 0 648 
z
" style="fill: none"/>
  </g>
  <g id="axes_1">
   <g id="line2d_1">
    <path d="M 189.136 552.811297 
L 193.424646 549.366677 
L 197.713293 545.923721 
L 202.001939 542.484088 
L 206.290586 539.049433 
L 210.579232 535.6214 
L 214.867879 532.201621 
L 219.156525 528.79171 
L 223.445172 525.393266 
L 227.733818 522.007864 
L 232.022465 518.637053 
L 236.311111 515.282358 
L 240.599758 511.945271 
L 244.888404 508.627254 
L 249.177051 505.329731 
L 253.465697 502.054092 
L 257.754343 498.801685 
L 262.04299 495.573818 
L 266.331636 492.371756 
L 270.620283 489.196719 
L 274.908929 486.049879 
L 279.197576 482.932363 
L 283.486222 479.845247 
L 287.774869 476.789558 
L 292.063515 473.766272 
L 296.352162 470.776313 
L 300.640808 467.820553 
L 304.929455 464.899812 
L 309.218101 462.014857 
L 313.506747 459.166403 
L 317.795394 456.35511 
L 322.08404 453.581588 
L 326.372687 450.846393 
L 330.661333 448.150029 
L 334.94998 445.492952 
L 339.238626 442.875562 
L 343.527273 440.298215 
L 347.815919 437.761215 
L 352.104566 435.264818 
L 356.393212 432.809234 
L 360.681859 430.394628 
L 364.970505 428.02112 
L 369.259152 425.688787 
L 373.547798 423.397664 
L 377.836444 421.147745 
L 382.125091 418.938988 
L 386.413737 416.77131 
L 390.702384 414.644594 
L 394.99103 412.558689 
L 399.279677 410.513409 
L 403.568323 408.508539 
L 407.85697 406.543832 
L 412.145616 404.619014 
L 416.434263 402.733786 
L 420.722909 400.887819 
L 425.011556 399.080766 
L 429.300202 397.312253 
L 433.588848 395.581887 
L 437.877495 393.889258 
L 442.166141 392.233935 
L 446.454788 390.615471 
L 450.743434 389.033404 
L 455.032081 387.487261 
L 459.320727 385.976551 
L 463.609374 384.500777 
L 467.89802 383.059428 
L 472.186667 381.651986 
L 476.475313 380.277924 
L 480.76396 378.93671 
L 485.052606 377.627804 
L 489.341253 376.350663 
L 493.629899 375.104739 
L 497.918545 373.889481 
L 502.207192 372.704337 
L 506.495838 371.548752 
L 510.784485 370.422172 
L 515.073131 369.324042 
L 519.361778 368.253808 
L 523.650424 367.21092 
L 527.939071 366.194825 
L 532.227717 365.204978 
L 536.516364 364.240834 
L 540.80501 363.301852 
L 545.093657 362.387497 
L 549.382303 361.497236 
L 553.670949 360.630543 
L 557.959596 359.786897 
L 562.248242 358.965782 
L 566.536889 358.166688 
L 570.825535 357.389111 
L 575.114182 356.632556 
L 579.402828 355.896531 
L 583.691475 355.180553 
L 587.980121 354.484147 
L 592.268768 353.806844 
L 596.557414 353.148181 
L 600.846061 352.507706 
L 605.134707 351.884972 
L 609.423354 351.27954 
L 613.712 350.69098 
" clip-path="url(#p3f4e7ab161)" style="fill: none; stroke: #80ffbf; stroke-width: 3; stroke-linecap: round"/>
   </g>
   <g id="text_1">
    <path d="M 622.41698 345.237548 
L 623.26698 345.237548 
L 625.884167 352.337548 
L 624.809167 352.337548 
L 622.84198 346.609423 
L 620.874793 352.337548 
L 619.799792 352.337548 
L 622.41698 345.237548 
z
M 621.006042 349.832861 
L 624.74198 349.832861 
L 624.74198 350.779736 
L 621.006042 350.779736 
L 621.006042 349.832861 
z
M 628.525964 352.337548 
L 627.529089 352.337548 
L 627.529089 346.321923 
L 626.518152 346.942236 
L 626.518152 345.910986 
L 627.529089 345.237548 
L 628.525964 345.237548 
L 628.525964 352.337548 
z
M 633.804285 346.126611 
L 631.968347 352.337548 
L 630.908972 352.337548 
L 632.74491 346.184423 
L 630.937097 346.184423 
L 630.937097 347.206298 
L 629.941785 347.206298 
L 629.941785 345.237548 
L 633.804285 345.237548 
L 633.804285 346.126611 
z
M 637.539636 348.635986 
L 639.809949 348.635986 
Q 640.131824 348.635986 640.375574 348.484423 
Q 640.620886 348.332861 640.753699 348.054736 
Q 640.888074 347.776611 640.888074 347.415673 
L 640.888074 347.415673 
Q 640.888074 347.050048 640.753699 346.771923 
Q 640.620886 346.492236 640.375574 346.339111 
Q 640.131824 346.184423 639.809949 346.184423 
L 637.539636 346.184423 
L 637.539636 345.237548 
L 639.775574 345.237548 
Q 640.409949 345.237548 640.892761 345.509423 
Q 641.377136 345.779736 641.642761 346.273486 
Q 641.909949 346.765673 641.909949 347.415673 
L 641.909949 347.415673 
Q 641.909949 348.065673 641.642761 348.556298 
Q 641.377136 349.046923 640.892761 349.315673 
Q 640.409949 349.582861 639.775574 349.582861 
L 637.539636 349.582861 
L 637.539636 348.635986 
z
M 637.027136 345.237548 
L 638.022449 345.237548 
L 638.022449 352.337548 
L 637.027136 352.337548 
L 637.027136 345.237548 
z
M 643.154285 347.268798 
L 644.15116 347.268798 
L 644.15116 352.337548 
L 643.154285 352.337548 
L 643.154285 347.268798 
z
M 645.941785 348.470361 
Q 645.810535 348.309423 645.610535 348.226611 
Q 645.410535 348.143798 645.146472 348.143798 
Q 644.673035 348.143798 644.412097 348.404736 
Q 644.15116 348.665673 644.15116 349.129736 
L 644.048035 348.153173 
Q 644.28241 347.698486 644.652722 347.446923 
Q 645.024597 347.195361 645.473035 347.195361 
Q 645.81991 347.195361 646.10116 347.295361 
Q 646.38241 347.395361 646.591785 347.590673 
L 645.941785 348.470361 
z
M 649.365613 352.410986 
Q 648.706238 352.410986 648.237488 352.153173 
Q 647.768738 351.893798 647.521863 351.398486 
Q 647.274988 350.901611 647.274988 350.203173 
L 647.274988 349.378173 
Q 647.274988 348.690673 647.521863 348.200048 
Q 647.768738 347.707861 648.237488 347.451611 
Q 648.706238 347.195361 649.365613 347.195361 
Q 650.024988 347.195361 650.493738 347.451611 
Q 650.962488 347.707861 651.2078 348.200048 
Q 651.454675 348.690673 651.454675 349.378173 
L 651.454675 350.218798 
Q 651.454675 350.910986 651.2078 351.403173 
Q 650.962488 351.893798 650.493738 352.153173 
Q 650.024988 352.410986 649.365613 352.410986 
z
M 649.365613 351.464111 
Q 649.887488 351.464111 650.173425 351.137548 
Q 650.459363 350.809423 650.459363 350.218798 
L 650.459363 349.378173 
Q 650.459363 348.787548 650.173425 348.465673 
Q 649.887488 348.143798 649.365613 348.143798 
Q 648.842175 348.143798 648.556238 348.465673 
Q 648.271863 348.787548 648.271863 349.378173 
L 648.271863 350.218798 
Q 648.271863 350.809423 648.556238 351.137548 
Q 648.842175 351.464111 649.365613 351.464111 
z
" style="fill: #ffffff; stroke: #000000"/>
    <path d="M 622.41698 345.237548 
L 623.26698 345.237548 
L 625.884167 352.337548 
L 624.809167 352.337548 
L 622.84198 346.609423 
L 620.874793 352.337548 
L 619.799792 352.337548 
L 622.41698 345.237548 
z
M 621.006042 349.832861 
L 624.74198 349.832861 
L 624.74198 350.779736 
L 621.006042 350.779736 
L 621.006042 349.832861 
z
M 628.525964 352.337548 
L 627.529089 352.337548 
L 627.529089 346.321923 
L 626.518152 346.942236 
L 626.518152 345.910986 
L 627.529089 345.237548 
L 628.525964 345.237548 
L 628.525964 352.337548 
z
M 633.804285 346.126611 
L 631.968347 352.337548 
L 630.908972 352.337548 
L 632.74491 346.184423 
L 630.937097 346.184423 
L 630.937097 347.206298 
L 629.941785 347.206298 
L 629.941785 345.237548 
L 633.804285 345.237548 
L 633.804285 346.126611 
z
M 637.539636 348.635986 
L 639.809949 348.635986 
Q 640.131824 348.635986 640.375574 348.484423 
Q 640.620886 348.332861 640.753699 348.054736 
Q 640.888074 347.776611 640.888074 347.415673 
L 640.888074 347.415673 
Q 640.888074 347.050048 640.753699 346.771923 
Q 640.620886 346.492236 640.375574 346.339111 
Q 640.131824 346.184423 639.809949 346.184423 
L 637.539636 346.184423 
L 637.539636 345.237548 
L 639.775574 345.237548 
Q 640.409949 345.237548 640.892761 345.509423 
Q 641.377136 345.779736 641.642761 346.273486 
Q 641.909949 346.765673 641.909949 347.415673 
L 641.909949 347.415673 
Q 641.909949 348.065673 641.642761 348.556298 
Q 641.377136 349.046923 640.892761 349.315673 
Q 640.409949 349.582861 639.775574 349.582861 
L 637.539636 349.582861 
L 637.539636 348.635986 
z
M 637.027136 345.237548 
L 638.022449 345.237548 
L 638.022449 352.337548 
L 637.027136 352.337548 
L 637.027136 345.237548 
z
M 643.154285 347.268798 
L 644.15116 347.268798 
L 644.15116 352.337548 
L 643.154285 352.337548 
L 643.154285 347.268798 
z
M 645.941785 348.470361 
Q 645.810535 348.309423 645.610535 348.226611 
Q 645.410535 348.143798 645.146472 348.143798 
Q 644.673035 348.143798 644.412097 348.404736 
Q 644.15116 348.665673 644.15116 349.129736 
L 644.048035 348.153173 
Q 644.28241 347.698486 644.652722 347.446923 
Q 645.024597 347.195361 645.473035 347.195361 
Q 645.81991 347.195361 646.10116 347.295361 
Q 646.38241 347.395361 646.591785 347.590673 
L 645.941785 348.470361 
z
M 649.365613 352.410986 
Q 648.706238 352.410986 648.237488 352.153173 
Q 647.768738 351.893798 647.521863 351.398486 
Q 647.274988 350.901611 647.274988 350.203173 
L 647.274988 349.378173 
Q 647.274988 348.690673 647.521863 348.200048 
Q 647.768738 347.707861 648.237488 347.451611 
Q 648.706238 347.195361 649.365613 347.195361 
Q 650.024988 347.195361 650.493738 347.451611 
Q 650.962488 347.707861 651.2078 348.200048 
Q 651.454675 348.690673 651.454675 349.378173 
L 651.454675 350.218798 
Q 651.454675 350.910986 651.2078 351.403173 
Q 650.962488 351.893798 650.493738 352.153173 
Q 650.024988 352.410986 649.365613 352.410986 
z
M 649.365613 351.464111 
Q 649.887488 351.464111 650.173425 351.137548 
Q 650.459363 350.809423 650.459363 350.218798 
L 650.459363 349.378173 
Q 650.459363 348.787548 650.173425 348.465673 
Q 649.887488 348.143798 649.365613 348.143798 
Q 648.842175 348.143798 648.556238 348.465673 
Q 648.271863 348.787548 648.271863 349.378173 
L 648.271863 350.218798 
Q 648.271863 350.809423 648.556238 351.137548 
Q 648.842175 351.464111 649.365613 351.464111 
z
" style="fill: #ffffff"/>
   </g>
  </g>
 </g>
 <defs>
  <clipPath id="p3f4e7ab161">
   <rect x="144" y="77.76" width="892.8" height="498.96"/>
  </clipPath>
 </defs>
</svg>
