<?xml version="1.0" encoding="utf-8" standalone="no"?>
<!DOCTYPE svg PUBLIC "-//W3C//DTD SVG 1.1//EN"
  "http://www.w3.org/Graphics/SVG/1.1/DTD/svg11.dtd">
<svg xmlns:xlink="http://www.w3.org/1999/xlink" width="1152pt" height="648pt" viewBox="0 0 1152 648" xmlns="http://www.w3.org/2000/svg" version="1.1">
 <metadata>
  <rdf:RDF xmlns:dc="http://purl.org/dc/elements/1.1/" xmlns:cc="http://creativecommons.org/ns#" xmlns:rdf="http://www.w3.org/1999/02/22-rdf-syntax-ns#">
   <cc:Work>
    <dc:type rdf:resource="http://purl.org/dc/dcmitype/StillImage"/>
    <dc:date>2025-09-19T13:51:42.179126</dc:date>
    <dc:format>image/svg+xml</dc:format>
    <dc:creator>
     <cc:Agent>
      <dc:title>Matplotlib v3.10.3, https://matplotlib.org/</dc:title>
     </cc:Agent>
    </dc:creator>
   </cc:Work>
  </rdf:RDF>
 </metadata>
 <defs>
  <style type="text/css">*{stroke-linejoin: round; stroke-linecap: butt}</style>
 </defs>
 <g id="figure_1">
  <g id="patch_1">
   <path d="M 0 648 
L 1152 648 
L 1152 0 
L 0 0 
L 0 648 
z
" style="fill: none"/>
  </g>
  <g id="axes_1">
   <g id="line2d_1">
    <path d="M 190.128 542.49463 
L 193.670141 540.057902 
L 197.212283 537.671972 
L 200.754424 535.335782 
L 204.296566 533.048298 
L 207.838707 530.808508 
L 211.380848 528.615419 
L 214.92299 526.46806 
L 218.465131 524.365479 
L 222.007273 522.306746 
L 225.549414 520.290948 
L 229.091556 518.317191 
L 232.633697 516.3846 
L 236.175838 514.492319 
L 239.71798 512.639509 
L 243.260121 510.825348 
L 246.802263 509.049031 
L 250.344404 507.30977 
L 253.886545 505.606795 
L 257.428687 503.939348 
L 260.970828 502.306692 
L 264.51297 500.7081 
L 268.055111 499.142863 
L 271.597253 497.610287 
L 275.139394 496.109692 
L 278.681535 494.64041 
L 282.223677 493.20179 
L 285.765818 491.793193 
L 289.30796 490.413992 
L 292.850101 489.063577 
L 296.392242 487.741346 
L 299.934384 486.446713 
L 303.476525 485.179101 
L 307.018667 483.937949 
L 310.560808 482.722704 
L 314.102949 481.532826 
L 317.645091 480.367787 
L 321.187232 479.227068 
L 324.729374 478.110163 
L 328.271515 477.016575 
L 331.813657 475.945818 
L 335.355798 474.897416 
L 338.897939 473.870903 
L 342.440081 472.865821 
L 345.982222 471.881725 
L 349.524364 470.918176 
L 353.066505 469.974746 
L 356.608646 469.051015 
L 360.150788 468.146573 
L 363.692929 467.261016 
L 367.235071 466.393952 
L 370.777212 465.544993 
L 374.319354 464.713764 
L 377.861495 463.899893 
L 381.403636 463.103018 
L 384.945778 462.322785 
L 388.487919 461.558846 
L 392.030061 460.810863 
L 395.572202 460.0785 
L 399.114343 459.361434 
L 402.656485 458.659343 
L 406.198626 457.971917 
L 409.740768 457.298848 
L 413.282909 456.639838 
L 416.825051 455.994592 
L 420.367192 455.362823 
L 423.909333 454.744251 
L 427.451475 454.1386 
L 430.993616 453.545599 
L 434.535758 452.964985 
L 438.077899 452.3965 
L 441.62004 451.839889 
L 445.162182 451.294906 
L 448.704323 450.761308 
L 452.246465 450.238856 
L 455.788606 449.727318 
L 459.330747 449.226466 
L 462.872889 448.736078 
L 466.41503 448.255934 
L 469.957172 447.785821 
L 473.499313 447.325529 
L 477.041455 446.874853 
L 480.583596 446.433592 
L 484.125737 446.001551 
L 487.667879 445.578536 
L 491.21002 445.164358 
L 494.752162 444.758834 
L 498.294303 444.361782 
L 501.836444 443.973026 
L 505.378586 443.592392 
L 508.920727 443.219711 
L 512.462869 442.854816 
L 516.00501 442.497546 
L 519.547152 442.14774 
L 523.089293 441.805243 
L 526.631434 441.469902 
L 530.173576 441.141568 
L 533.715717 440.820095 
L 537.257859 440.505338 
L 540.8 440.197158 
" clip-path="url(#p7478d6e7f1)" style="fill: none; stroke: #79caf2; stroke-width: 3; stroke-linecap: round"/>
   </g>
   <g id="text_1">
    <path d="M 549.70498 441.917164 
Q 549.19248 441.917164 548.733105 441.820289 
Q 548.275292 441.721851 547.876855 441.526539 
Q 547.478417 441.331226 547.131542 441.037476 
L 547.131542 441.037476 
L 547.751855 440.276539 
L 547.751855 440.276539 
Q 548.158105 440.628101 548.645605 440.804664 
Q 549.134667 440.979664 549.70498 440.979664 
Q 550.476855 440.979664 550.901855 440.693726 
Q 551.326855 440.407789 551.326855 439.885914 
L 551.326855 439.881226 
Q 551.326855 439.509351 551.133105 439.292164 
Q 550.940917 439.074976 550.634667 438.970289 
Q 550.32998 438.865601 549.847167 438.776539 
Q 549.831542 438.771851 549.814355 438.771851 
Q 549.79873 438.771851 549.783105 438.767164 
L 549.709667 438.753101 
Q 548.997167 438.631226 548.550292 438.478101 
Q 548.103417 438.323414 547.78623 437.915601 
Q 547.469042 437.507789 547.469042 436.756226 
L 547.469042 436.751539 
Q 547.469042 436.092164 547.764355 435.626539 
Q 548.059667 435.159351 548.625292 434.915601 
Q 549.19248 434.670289 549.987792 434.670289 
Q 550.369042 434.670289 550.737792 434.754664 
Q 551.106542 434.837476 551.464355 435.001539 
Q 551.82373 435.164039 552.170605 435.412476 
L 552.170605 435.412476 
L 551.60498 436.204664 
L 551.60498 436.204664 
Q 551.19873 435.906226 550.795605 435.757789 
Q 550.394042 435.607789 549.987792 435.607789 
Q 549.26123 435.607789 548.858105 435.898414 
Q 548.45498 436.189039 548.45498 436.721851 
L 548.45498 436.726539 
Q 548.45498 437.092164 548.662792 437.303101 
Q 548.870605 437.512476 549.17998 437.612476 
Q 549.490917 437.712476 550.04248 437.820289 
Q 550.06123 437.824976 550.078417 437.828101 
Q 550.095605 437.829664 550.115917 437.834351 
Q 550.139355 437.839039 550.169042 437.845289 
Q 550.19873 437.849976 550.222167 437.854664 
Q 550.86748 437.985914 551.29873 438.167164 
Q 551.731542 438.346851 552.022167 438.749976 
Q 552.312792 439.153101 552.312792 439.851539 
L 552.312792 439.860914 
Q 552.312792 440.510914 552.00498 440.971851 
Q 551.697167 441.432789 551.112792 441.674976 
Q 550.52998 441.917164 549.70498 441.917164 
z
M 554.402832 440.896851 
L 556.009082 440.896851 
Q 556.795019 440.896851 557.226269 440.489039 
Q 557.659082 440.081226 557.659082 439.339039 
L 557.659082 437.248414 
Q 557.659082 436.506226 557.226269 436.098414 
Q 556.795019 435.690601 556.009082 435.690601 
L 554.402832 435.690601 
L 554.402832 434.743726 
L 555.979394 434.743726 
Q 556.834082 434.743726 557.438769 435.042164 
Q 558.045019 435.339039 558.362207 435.910914 
Q 558.679394 436.482789 558.679394 437.287476 
L 558.679394 439.299976 
Q 558.679394 440.104664 558.362207 440.676539 
Q 558.045019 441.248414 557.437207 441.546851 
Q 556.829394 441.843726 555.974707 441.843726 
L 554.402832 441.843726 
L 554.402832 440.896851 
z
M 553.729394 434.743726 
L 554.724707 434.743726 
L 554.724707 441.843726 
L 553.729394 441.843726 
L 553.729394 434.743726 
z
M 562.224707 441.917164 
Q 561.580957 441.917164 561.091894 441.673414 
Q 560.604394 441.428101 560.337207 440.981226 
Q 560.071582 440.534351 560.071582 439.943726 
L 560.071582 439.826539 
Q 560.071582 439.295289 560.337207 438.826539 
Q 560.604394 438.357789 561.048144 438.118726 
Q 560.671582 437.912476 560.445019 437.524976 
Q 560.218457 437.135914 560.218457 436.706226 
L 560.218457 436.535914 
Q 560.218457 435.979664 560.466894 435.557789 
Q 560.715332 435.134351 561.170019 434.903101 
Q 561.624707 434.670289 562.224707 434.670289 
Q 562.824707 434.670289 563.279394 434.903101 
Q 563.734082 435.134351 563.982519 435.557789 
Q 564.230957 435.979664 564.230957 436.535914 
L 564.230957 436.706226 
Q 564.230957 437.146851 563.999707 437.532789 
Q 563.768457 437.917164 563.387207 438.118726 
Q 563.835644 438.362476 564.105957 438.829664 
Q 564.377832 439.295289 564.377832 439.826539 
L 564.377832 439.943726 
Q 564.377832 440.534351 564.112207 440.981226 
Q 563.846582 441.428101 563.357519 441.673414 
Q 562.870019 441.917164 562.224707 441.917164 
z
M 562.224707 440.959351 
Q 562.571582 440.959351 562.834082 440.823414 
Q 563.098144 440.685914 563.241894 440.440601 
Q 563.387207 440.193726 563.387207 439.870289 
L 563.387207 439.803101 
Q 563.387207 439.474976 563.241894 439.229664 
Q 563.098144 438.982789 562.834082 438.846851 
Q 562.571582 438.709351 562.224707 438.709351 
Q 561.877832 438.709351 561.613769 438.846851 
Q 561.351269 438.982789 561.205957 439.231226 
Q 561.062207 439.479664 561.062207 439.807789 
L 561.062207 439.881226 
Q 561.062207 440.203101 561.205957 440.446851 
Q 561.351269 440.690601 561.613769 440.824976 
Q 561.877832 440.959351 562.224707 440.959351 
z
M 562.224707 437.751539 
Q 562.523144 437.751539 562.751269 437.623414 
Q 562.980957 437.493726 563.107519 437.254664 
Q 563.235644 437.014039 563.235644 436.701539 
L 563.235644 436.634351 
Q 563.235644 436.335914 563.107519 436.106226 
Q 562.980957 435.876539 562.751269 435.753101 
Q 562.523144 435.628101 562.224707 435.628101 
Q 561.926269 435.628101 561.696582 435.753101 
Q 561.468457 435.876539 561.340332 436.106226 
Q 561.213769 436.335914 561.213769 436.639039 
L 561.213769 436.712476 
Q 561.213769 437.018726 561.340332 437.256226 
Q 561.468457 437.493726 561.696582 437.623414 
Q 561.926269 437.751539 562.224707 437.751539 
z
M 567.610644 441.917164 
Q 567.160644 441.917164 566.766894 441.829664 
Q 566.374707 441.740601 566.032519 441.565601 
Q 565.691894 441.389039 565.402832 441.126539 
L 565.402832 441.126539 
L 565.995019 440.398414 
L 565.995019 440.398414 
Q 566.404394 440.710914 566.809082 440.867164 
Q 567.215332 441.023414 567.610644 441.023414 
Q 568.201269 441.023414 568.496582 440.840601 
Q 568.791894 440.657789 568.791894 440.290601 
Q 568.791894 440.046851 568.630957 439.924976 
Q 568.470019 439.803101 568.230957 439.762476 
Q 567.991894 439.720289 567.557519 439.685914 
Q 567.518457 439.685914 567.473144 439.684351 
Q 567.429394 439.681226 567.390332 439.674976 
Q 567.371582 439.674976 567.351269 439.673414 
Q 567.332519 439.670289 567.312207 439.670289 
Q 566.820019 439.631226 566.477832 439.526539 
Q 566.135644 439.421851 565.909082 439.134351 
Q 565.682519 438.845289 565.682519 438.307789 
Q 565.682519 437.771851 565.901269 437.415601 
Q 566.121582 437.057789 566.555957 436.879664 
Q 566.990332 436.701539 567.645019 436.701539 
Q 568.040332 436.701539 568.398144 436.774976 
Q 568.757519 436.848414 569.084082 436.992164 
Q 569.412207 437.135914 569.715332 437.356226 
L 569.715332 437.356226 
L 569.113769 438.084351 
L 569.113769 438.084351 
Q 568.734082 437.839039 568.365332 437.717164 
Q 567.996582 437.595289 567.645019 437.595289 
Q 567.137207 437.595289 566.882519 437.768726 
Q 566.629394 437.942164 566.629394 438.289039 
Q 566.629394 438.493726 566.773144 438.596851 
Q 566.916894 438.698414 567.135644 438.732789 
Q 567.355957 438.767164 567.762207 438.792164 
Q 567.791894 438.796851 567.823144 438.796851 
Q 567.854394 438.796851 567.888769 438.801539 
Q 567.902832 438.801539 567.916894 438.801539 
Q 567.932519 438.801539 567.948144 438.806226 
Q 568.479394 438.840601 568.852832 438.948414 
Q 569.226269 439.056226 569.479394 439.373414 
Q 569.734082 439.690601 569.734082 440.290601 
Q 569.734082 440.837476 569.499707 441.196851 
Q 569.265332 441.556226 568.793457 441.737476 
Q 568.323144 441.917164 567.610644 441.917164 
z
M 577.66455 438.020289 
L 577.66455 439.260914 
Q 577.66455 440.051539 577.356738 440.654664 
Q 577.048925 441.257789 576.484863 441.587476 
Q 575.9208 441.917164 575.178613 441.917164 
Q 574.42705 441.917164 573.8583 441.607789 
Q 573.28955 441.296851 572.97705 440.731226 
Q 572.66455 440.164039 572.66455 439.417164 
L 572.66455 437.321851 
Q 572.66455 436.531226 572.972363 435.931226 
Q 573.280175 435.329664 573.842675 434.999976 
Q 574.406738 434.670289 575.148925 434.670289 
Q 575.759863 434.670289 576.273925 434.932789 
Q 576.78955 435.193726 577.136425 435.671851 
Q 577.4833 436.149976 577.605175 436.779664 
L 577.605175 436.779664 
L 576.52705 436.779664 
L 576.52705 436.779664 
Q 576.437988 436.423414 576.228613 436.167164 
Q 576.019238 435.910914 575.734863 435.776539 
Q 575.45205 435.642164 575.148925 435.642164 
Q 574.709863 435.642164 574.37705 435.853101 
Q 574.0458 436.062476 573.86455 436.440601 
Q 573.684863 436.818726 573.684863 437.321851 
L 573.684863 439.417164 
Q 573.684863 439.876539 573.869238 440.220289 
Q 574.055175 440.564039 574.394238 440.754664 
Q 574.734863 440.945289 575.178613 440.945289 
Q 575.617675 440.945289 575.948925 440.748414 
Q 576.281738 440.549976 576.462988 440.174976 
Q 576.644238 439.798414 576.644238 439.279664 
L 576.644238 438.971851 
L 575.203613 438.971851 
L 575.203613 438.020289 
L 577.66455 438.020289 
z
M 581.252832 441.917164 
Q 580.549707 441.917164 580.051269 441.653101 
Q 579.554394 441.389039 579.291894 440.879664 
Q 579.030957 440.368726 579.030957 439.646851 
L 579.030957 439.074976 
Q 579.030957 438.323414 579.282519 437.792164 
Q 579.534082 437.259351 580.012207 436.981226 
Q 580.491894 436.701539 581.165332 436.701539 
Q 581.799707 436.701539 582.248144 437.020289 
Q 582.698144 437.337476 582.934082 437.937476 
Q 583.171582 438.537476 583.171582 439.378101 
L 583.171582 439.709351 
L 579.754394 439.709351 
L 579.754394 438.909351 
L 582.224707 438.909351 
L 582.224707 438.909351 
Q 582.180957 438.289039 581.904394 437.945289 
Q 581.629394 437.599976 581.165332 437.599976 
Q 580.598144 437.599976 580.288769 437.971851 
Q 579.979394 438.342164 579.979394 439.021851 
L 579.979394 439.665601 
Q 579.979394 440.295289 580.310644 440.632789 
Q 580.643457 440.970289 581.252832 440.970289 
Q 581.555957 440.970289 581.852832 440.848414 
Q 582.151269 440.724976 582.385644 440.506226 
L 582.385644 440.506226 
L 583.040332 441.159351 
L 583.040332 441.159351 
Q 582.663769 441.521851 582.195019 441.720289 
Q 581.726269 441.917164 581.252832 441.917164 
z
M 584.53916 436.774976 
L 585.536035 436.774976 
L 585.536035 441.843726 
L 584.53916 441.843726 
L 584.53916 436.774976 
z
M 587.615722 438.771851 
Q 587.615722 438.235914 587.337597 437.943726 
Q 587.059472 437.649976 586.556347 437.649976 
Q 586.067285 437.649976 585.80166 437.909351 
Q 585.536035 438.167164 585.536035 438.635914 
L 585.43291 437.659351 
Q 585.667285 437.199976 586.04541 436.951539 
Q 586.423535 436.701539 586.88291 436.701539 
Q 587.70791 436.701539 588.159472 437.242164 
Q 588.611035 437.781226 588.611035 438.767164 
L 588.611035 441.843726 
L 587.615722 441.843726 
L 587.615722 438.771851 
z
M 591.912597 441.917164 
Q 591.317285 441.917164 590.862597 441.699976 
Q 590.40791 441.482789 590.131347 441.070289 
Q 589.856347 440.657789 589.78291 440.076539 
L 589.78291 440.076539 
L 590.798535 440.076539 
L 590.798535 440.076539 
Q 590.842285 440.378101 590.98916 440.573414 
Q 591.136035 440.768726 591.367285 440.864039 
Q 591.600097 440.959351 591.912597 440.959351 
Q 592.404785 440.959351 592.678222 440.696851 
Q 592.95166 440.432789 592.95166 439.954664 
L 592.95166 439.739039 
Q 592.95166 439.206226 592.692285 438.917164 
Q 592.434472 438.626539 591.961035 438.626539 
L 591.45791 438.626539 
L 591.45791 437.678101 
L 591.961035 437.678101 
Q 592.37666 437.678101 592.604785 437.429664 
Q 592.834472 437.181226 592.834472 436.726539 
L 592.834472 436.506226 
Q 592.834472 436.087476 592.592285 435.857789 
Q 592.35166 435.628101 591.90791 435.628101 
Q 591.653222 435.628101 591.453222 435.723414 
Q 591.253222 435.818726 591.11416 436.017164 
Q 590.975097 436.214039 590.911035 436.510914 
L 590.911035 436.510914 
L 589.900097 436.510914 
L 589.900097 436.510914 
Q 589.998535 435.931226 590.268847 435.515601 
Q 590.540722 435.099976 590.954785 434.885914 
Q 591.37041 434.670289 591.90791 434.670289 
Q 592.825097 434.670289 593.328222 435.154664 
Q 593.831347 435.637476 593.831347 436.517164 
L 593.831347 436.634351 
Q 593.831347 437.165601 593.542285 437.560914 
Q 593.254785 437.956226 592.728222 438.137476 
Q 593.309472 438.264039 593.628222 438.709351 
Q 593.948535 439.153101 593.948535 439.842164 
L 593.948535 439.959351 
Q 593.948535 440.579664 593.709472 441.018726 
Q 593.47041 441.457789 593.012597 441.687476 
Q 592.556347 441.917164 591.912597 441.917164 
z
" style="fill: #ffffff; stroke: #000000"/>
    <path d="M 549.70498 441.917164 
Q 549.19248 441.917164 548.733105 441.820289 
Q 548.275292 441.721851 547.876855 441.526539 
Q 547.478417 441.331226 547.131542 441.037476 
L 547.131542 441.037476 
L 547.751855 440.276539 
L 547.751855 440.276539 
Q 548.158105 440.628101 548.645605 440.804664 
Q 549.134667 440.979664 549.70498 440.979664 
Q 550.476855 440.979664 550.901855 440.693726 
Q 551.326855 440.407789 551.326855 439.885914 
L 551.326855 439.881226 
Q 551.326855 439.509351 551.133105 439.292164 
Q 550.940917 439.074976 550.634667 438.970289 
Q 550.32998 438.865601 549.847167 438.776539 
Q 549.831542 438.771851 549.814355 438.771851 
Q 549.79873 438.771851 549.783105 438.767164 
L 549.709667 438.753101 
Q 548.997167 438.631226 548.550292 438.478101 
Q 548.103417 438.323414 547.78623 437.915601 
Q 547.469042 437.507789 547.469042 436.756226 
L 547.469042 436.751539 
Q 547.469042 436.092164 547.764355 435.626539 
Q 548.059667 435.159351 548.625292 434.915601 
Q 549.19248 434.670289 549.987792 434.670289 
Q 550.369042 434.670289 550.737792 434.754664 
Q 551.106542 434.837476 551.464355 435.001539 
Q 551.82373 435.164039 552.170605 435.412476 
L 552.170605 435.412476 
L 551.60498 436.204664 
L 551.60498 436.204664 
Q 551.19873 435.906226 550.795605 435.757789 
Q 550.394042 435.607789 549.987792 435.607789 
Q 549.26123 435.607789 548.858105 435.898414 
Q 548.45498 436.189039 548.45498 436.721851 
L 548.45498 436.726539 
Q 548.45498 437.092164 548.662792 437.303101 
Q 548.870605 437.512476 549.17998 437.612476 
Q 549.490917 437.712476 550.04248 437.820289 
Q 550.06123 437.824976 550.078417 437.828101 
Q 550.095605 437.829664 550.115917 437.834351 
Q 550.139355 437.839039 550.169042 437.845289 
Q 550.19873 437.849976 550.222167 437.854664 
Q 550.86748 437.985914 551.29873 438.167164 
Q 551.731542 438.346851 552.022167 438.749976 
Q 552.312792 439.153101 552.312792 439.851539 
L 552.312792 439.860914 
Q 552.312792 440.510914 552.00498 440.971851 
Q 551.697167 441.432789 551.112792 441.674976 
Q 550.52998 441.917164 549.70498 441.917164 
z
M 554.402832 440.896851 
L 556.009082 440.896851 
Q 556.795019 440.896851 557.226269 440.489039 
Q 557.659082 440.081226 557.659082 439.339039 
L 557.659082 437.248414 
Q 557.659082 436.506226 557.226269 436.098414 
Q 556.795019 435.690601 556.009082 435.690601 
L 554.402832 435.690601 
L 554.402832 434.743726 
L 555.979394 434.743726 
Q 556.834082 434.743726 557.438769 435.042164 
Q 558.045019 435.339039 558.362207 435.910914 
Q 558.679394 436.482789 558.679394 437.287476 
L 558.679394 439.299976 
Q 558.679394 440.104664 558.362207 440.676539 
Q 558.045019 441.248414 557.437207 441.546851 
Q 556.829394 441.843726 555.974707 441.843726 
L 554.402832 441.843726 
L 554.402832 440.896851 
z
M 553.729394 434.743726 
L 554.724707 434.743726 
L 554.724707 441.843726 
L 553.729394 441.843726 
L 553.729394 434.743726 
z
M 562.224707 441.917164 
Q 561.580957 441.917164 561.091894 441.673414 
Q 560.604394 441.428101 560.337207 440.981226 
Q 560.071582 440.534351 560.071582 439.943726 
L 560.071582 439.826539 
Q 560.071582 439.295289 560.337207 438.826539 
Q 560.604394 438.357789 561.048144 438.118726 
Q 560.671582 437.912476 560.445019 437.524976 
Q 560.218457 437.135914 560.218457 436.706226 
L 560.218457 436.535914 
Q 560.218457 435.979664 560.466894 435.557789 
Q 560.715332 435.134351 561.170019 434.903101 
Q 561.624707 434.670289 562.224707 434.670289 
Q 562.824707 434.670289 563.279394 434.903101 
Q 563.734082 435.134351 563.982519 435.557789 
Q 564.230957 435.979664 564.230957 436.535914 
L 564.230957 436.706226 
Q 564.230957 437.146851 563.999707 437.532789 
Q 563.768457 437.917164 563.387207 438.118726 
Q 563.835644 438.362476 564.105957 438.829664 
Q 564.377832 439.295289 564.377832 439.826539 
L 564.377832 439.943726 
Q 564.377832 440.534351 564.112207 440.981226 
Q 563.846582 441.428101 563.357519 441.673414 
Q 562.870019 441.917164 562.224707 441.917164 
z
M 562.224707 440.959351 
Q 562.571582 440.959351 562.834082 440.823414 
Q 563.098144 440.685914 563.241894 440.440601 
Q 563.387207 440.193726 563.387207 439.870289 
L 563.387207 439.803101 
Q 563.387207 439.474976 563.241894 439.229664 
Q 563.098144 438.982789 562.834082 438.846851 
Q 562.571582 438.709351 562.224707 438.709351 
Q 561.877832 438.709351 561.613769 438.846851 
Q 561.351269 438.982789 561.205957 439.231226 
Q 561.062207 439.479664 561.062207 439.807789 
L 561.062207 439.881226 
Q 561.062207 440.203101 561.205957 440.446851 
Q 561.351269 440.690601 561.613769 440.824976 
Q 561.877832 440.959351 562.224707 440.959351 
z
M 562.224707 437.751539 
Q 562.523144 437.751539 562.751269 437.623414 
Q 562.980957 437.493726 563.107519 437.254664 
Q 563.235644 437.014039 563.235644 436.701539 
L 563.235644 436.634351 
Q 563.235644 436.335914 563.107519 436.106226 
Q 562.980957 435.876539 562.751269 435.753101 
Q 562.523144 435.628101 562.224707 435.628101 
Q 561.926269 435.628101 561.696582 435.753101 
Q 561.468457 435.876539 561.340332 436.106226 
Q 561.213769 436.335914 561.213769 436.639039 
L 561.213769 436.712476 
Q 561.213769 437.018726 561.340332 437.256226 
Q 561.468457 437.493726 561.696582 437.623414 
Q 561.926269 437.751539 562.224707 437.751539 
z
M 567.610644 441.917164 
Q 567.160644 441.917164 566.766894 441.829664 
Q 566.374707 441.740601 566.032519 441.565601 
Q 565.691894 441.389039 565.402832 441.126539 
L 565.402832 441.126539 
L 565.995019 440.398414 
L 565.995019 440.398414 
Q 566.404394 440.710914 566.809082 440.867164 
Q 567.215332 441.023414 567.610644 441.023414 
Q 568.201269 441.023414 568.496582 440.840601 
Q 568.791894 440.657789 568.791894 440.290601 
Q 568.791894 440.046851 568.630957 439.924976 
Q 568.470019 439.803101 568.230957 439.762476 
Q 567.991894 439.720289 567.557519 439.685914 
Q 567.518457 439.685914 567.473144 439.684351 
Q 567.429394 439.681226 567.390332 439.674976 
Q 567.371582 439.674976 567.351269 439.673414 
Q 567.332519 439.670289 567.312207 439.670289 
Q 566.820019 439.631226 566.477832 439.526539 
Q 566.135644 439.421851 565.909082 439.134351 
Q 565.682519 438.845289 565.682519 438.307789 
Q 565.682519 437.771851 565.901269 437.415601 
Q 566.121582 437.057789 566.555957 436.879664 
Q 566.990332 436.701539 567.645019 436.701539 
Q 568.040332 436.701539 568.398144 436.774976 
Q 568.757519 436.848414 569.084082 436.992164 
Q 569.412207 437.135914 569.715332 437.356226 
L 569.715332 437.356226 
L 569.113769 438.084351 
L 569.113769 438.084351 
Q 568.734082 437.839039 568.365332 437.717164 
Q 567.996582 437.595289 567.645019 437.595289 
Q 567.137207 437.595289 566.882519 437.768726 
Q 566.629394 437.942164 566.629394 438.289039 
Q 566.629394 438.493726 566.773144 438.596851 
Q 566.916894 438.698414 567.135644 438.732789 
Q 567.355957 438.767164 567.762207 438.792164 
Q 567.791894 438.796851 567.823144 438.796851 
Q 567.854394 438.796851 567.888769 438.801539 
Q 567.902832 438.801539 567.916894 438.801539 
Q 567.932519 438.801539 567.948144 438.806226 
Q 568.479394 438.840601 568.852832 438.948414 
Q 569.226269 439.056226 569.479394 439.373414 
Q 569.734082 439.690601 569.734082 440.290601 
Q 569.734082 440.837476 569.499707 441.196851 
Q 569.265332 441.556226 568.793457 441.737476 
Q 568.323144 441.917164 567.610644 441.917164 
z
M 577.66455 438.020289 
L 577.66455 439.260914 
Q 577.66455 440.051539 577.356738 440.654664 
Q 577.048925 441.257789 576.484863 441.587476 
Q 575.9208 441.917164 575.178613 441.917164 
Q 574.42705 441.917164 573.8583 441.607789 
Q 573.28955 441.296851 572.97705 440.731226 
Q 572.66455 440.164039 572.66455 439.417164 
L 572.66455 437.321851 
Q 572.66455 436.531226 572.972363 435.931226 
Q 573.280175 435.329664 573.842675 434.999976 
Q 574.406738 434.670289 575.148925 434.670289 
Q 575.759863 434.670289 576.273925 434.932789 
Q 576.78955 435.193726 577.136425 435.671851 
Q 577.4833 436.149976 577.605175 436.779664 
L 577.605175 436.779664 
L 576.52705 436.779664 
L 576.52705 436.779664 
Q 576.437988 436.423414 576.228613 436.167164 
Q 576.019238 435.910914 575.734863 435.776539 
Q 575.45205 435.642164 575.148925 435.642164 
Q 574.709863 435.642164 574.37705 435.853101 
Q 574.0458 436.062476 573.86455 436.440601 
Q 573.684863 436.818726 573.684863 437.321851 
L 573.684863 439.417164 
Q 573.684863 439.876539 573.869238 440.220289 
Q 574.055175 440.564039 574.394238 440.754664 
Q 574.734863 440.945289 575.178613 440.945289 
Q 575.617675 440.945289 575.948925 440.748414 
Q 576.281738 440.549976 576.462988 440.174976 
Q 576.644238 439.798414 576.644238 439.279664 
L 576.644238 438.971851 
L 575.203613 438.971851 
L 575.203613 438.020289 
L 577.66455 438.020289 
z
M 581.252832 441.917164 
Q 580.549707 441.917164 580.051269 441.653101 
Q 579.554394 441.389039 579.291894 440.879664 
Q 579.030957 440.368726 579.030957 439.646851 
L 579.030957 439.074976 
Q 579.030957 438.323414 579.282519 437.792164 
Q 579.534082 437.259351 580.012207 436.981226 
Q 580.491894 436.701539 581.165332 436.701539 
Q 581.799707 436.701539 582.248144 437.020289 
Q 582.698144 437.337476 582.934082 437.937476 
Q 583.171582 438.537476 583.171582 439.378101 
L 583.171582 439.709351 
L 579.754394 439.709351 
L 579.754394 438.909351 
L 582.224707 438.909351 
L 582.224707 438.909351 
Q 582.180957 438.289039 581.904394 437.945289 
Q 581.629394 437.599976 581.165332 437.599976 
Q 580.598144 437.599976 580.288769 437.971851 
Q 579.979394 438.342164 579.979394 439.021851 
L 579.979394 439.665601 
Q 579.979394 440.295289 580.310644 440.632789 
Q 580.643457 440.970289 581.252832 440.970289 
Q 581.555957 440.970289 581.852832 440.848414 
Q 582.151269 440.724976 582.385644 440.506226 
L 582.385644 440.506226 
L 583.040332 441.159351 
L 583.040332 441.159351 
Q 582.663769 441.521851 582.195019 441.720289 
Q 581.726269 441.917164 581.252832 441.917164 
z
M 584.53916 436.774976 
L 585.536035 436.774976 
L 585.536035 441.843726 
L 584.53916 441.843726 
L 584.53916 436.774976 
z
M 587.615722 438.771851 
Q 587.615722 438.235914 587.337597 437.943726 
Q 587.059472 437.649976 586.556347 437.649976 
Q 586.067285 437.649976 585.80166 437.909351 
Q 585.536035 438.167164 585.536035 438.635914 
L 585.43291 437.659351 
Q 585.667285 437.199976 586.04541 436.951539 
Q 586.423535 436.701539 586.88291 436.701539 
Q 587.70791 436.701539 588.159472 437.242164 
Q 588.611035 437.781226 588.611035 438.767164 
L 588.611035 441.843726 
L 587.615722 441.843726 
L 587.615722 438.771851 
z
M 591.912597 441.917164 
Q 591.317285 441.917164 590.862597 441.699976 
Q 590.40791 441.482789 590.131347 441.070289 
Q 589.856347 440.657789 589.78291 440.076539 
L 589.78291 440.076539 
L 590.798535 440.076539 
L 590.798535 440.076539 
Q 590.842285 440.378101 590.98916 440.573414 
Q 591.136035 440.768726 591.367285 440.864039 
Q 591.600097 440.959351 591.912597 440.959351 
Q 592.404785 440.959351 592.678222 440.696851 
Q 592.95166 440.432789 592.95166 439.954664 
L 592.95166 439.739039 
Q 592.95166 439.206226 592.692285 438.917164 
Q 592.434472 438.626539 591.961035 438.626539 
L 591.45791 438.626539 
L 591.45791 437.678101 
L 591.961035 437.678101 
Q 592.37666 437.678101 592.604785 437.429664 
Q 592.834472 437.181226 592.834472 436.726539 
L 592.834472 436.506226 
Q 592.834472 436.087476 592.592285 435.857789 
Q 592.35166 435.628101 591.90791 435.628101 
Q 591.653222 435.628101 591.453222 435.723414 
Q 591.253222 435.818726 591.11416 436.017164 
Q 590.975097 436.214039 590.911035 436.510914 
L 590.911035 436.510914 
L 589.900097 436.510914 
L 589.900097 436.510914 
Q 589.998535 435.931226 590.268847 435.515601 
Q 590.540722 435.099976 590.954785 434.885914 
Q 591.37041 434.670289 591.90791 434.670289 
Q 592.825097 434.670289 593.328222 435.154664 
Q 593.831347 435.637476 593.831347 436.517164 
L 593.831347 436.634351 
Q 593.831347 437.165601 593.542285 437.560914 
Q 593.254785 437.956226 592.728222 438.137476 
Q 593.309472 438.264039 593.628222 438.709351 
Q 593.948535 439.153101 593.948535 439.842164 
L 593.948535 439.959351 
Q 593.948535 440.579664 593.709472 441.018726 
Q 593.47041 441.457789 593.012597 441.687476 
Q 592.556347 441.917164 591.912597 441.917164 
z
" style="fill: #ffffff"/>
   </g>
  </g>
 </g>
 <defs>
  <clipPath id="p7478d6e7f1">
   <rect x="144" y="77.76" width="892.8" height="498.96"/>
  </clipPath>
 </defs>
</svg>
