<?xml version="1.0" encoding="utf-8" standalone="no"?>
<!DOCTYPE svg PUBLIC "-//W3C//DTD SVG 1.1//EN"
  "http://www.w3.org/Graphics/SVG/1.1/DTD/svg11.dtd">
<svg xmlns:xlink="http://www.w3.org/1999/xlink" width="1152pt" height="648pt" viewBox="0 0 1152 648" xmlns="http://www.w3.org/2000/svg" version="1.1">
 <metadata>
  <rdf:RDF xmlns:dc="http://purl.org/dc/elements/1.1/" xmlns:cc="http://creativecommons.org/ns#" xmlns:rdf="http://www.w3.org/1999/02/22-rdf-syntax-ns#">
   <cc:Work>
    <dc:type rdf:resource="http://purl.org/dc/dcmitype/StillImage"/>
    <dc:date>2025-12-29T11:52:38.416795</dc:date>
    <dc:format>image/svg+xml</dc:format>
    <dc:creator>
     <cc:Agent>
      <dc:title>Matplotlib v3.10.3, https://matplotlib.org/</dc:title>
     </cc:Agent>
    </dc:creator>
   </cc:Work>
  </rdf:RDF>
 </metadata>
 <defs>
  <style type="text/css">*{stroke-linejoin: round; stroke-linecap: butt}</style>
 </defs>
 <g id="figure_1">
  <g id="patch_1">
   <path d="M 0 648 
L 1152 648 
L 1152 0 
L 0 0 
L 0 648 
z
" style="fill: none"/>
  </g>
  <g id="axes_1">
   <g id="line2d_1">
    <path d="M 195.088 529.039578 
L 199.236364 524.965565 
L 203.384727 520.923116 
L 207.533091 516.913351 
L 211.681455 512.937346 
L 215.829818 508.996135 
L 219.978182 505.090708 
L 224.126545 501.222012 
L 228.274909 497.390947 
L 232.423273 493.598371 
L 236.571636 489.845093 
L 240.72 486.131879 
L 244.868364 482.459449 
L 249.016727 478.828475 
L 253.165091 475.239587 
L 257.313455 471.693367 
L 261.461818 468.190352 
L 265.610182 464.731036 
L 269.758545 461.315868 
L 273.906909 457.945252 
L 278.055273 454.61955 
L 282.203636 451.339081 
L 286.352 448.104123 
L 290.500364 444.914913 
L 294.648727 441.771646 
L 298.797091 438.674479 
L 302.945455 435.623532 
L 307.093818 432.618886 
L 311.242182 429.660586 
L 315.390545 426.748641 
L 319.538909 423.883028 
L 323.687273 421.063688 
L 327.835636 418.290532 
L 331.984 415.56344 
L 336.132364 412.882262 
L 340.280727 410.246818 
L 344.429091 407.656904 
L 348.577455 405.112287 
L 352.725818 402.612709 
L 356.874182 400.15789 
L 361.022545 397.747526 
L 365.170909 395.381292 
L 369.319273 393.058842 
L 373.467636 390.77981 
L 377.616 388.543815 
L 381.764364 386.350456 
L 385.912727 384.199317 
L 390.061091 382.089966 
L 394.209455 380.021959 
L 398.357818 377.994839 
L 402.506182 376.008135 
L 406.654545 374.061368 
L 410.802909 372.154046 
L 414.951273 370.285671 
L 419.099636 368.455734 
L 423.248 366.663721 
L 427.396364 364.90911 
L 431.544727 363.191374 
L 435.693091 361.509981 
L 439.841455 359.864395 
L 443.989818 358.254077 
L 448.138182 356.678483 
L 452.286545 355.13707 
L 456.434909 353.629291 
L 460.583273 352.154599 
L 464.731636 350.712448 
L 468.88 349.302291 
L 473.028364 347.92358 
L 477.176727 346.575772 
L 481.325091 345.258322 
L 485.473455 343.970691 
L 489.621818 342.712338 
L 493.770182 341.482729 
L 497.918545 340.281332 
L 502.066909 339.107617 
L 506.215273 337.96106 
L 510.363636 336.841141 
L 514.512 335.747343 
L 518.660364 334.679157 
L 522.808727 333.636075 
L 526.957091 332.617597 
L 531.105455 331.623229 
L 535.253818 330.652479 
L 539.402182 329.704866 
L 543.550545 328.779911 
L 547.698909 327.877143 
L 551.847273 326.996096 
L 555.995636 326.136312 
L 560.144 325.297337 
L 564.292364 324.478727 
L 568.440727 323.680041 
L 572.589091 322.900848 
L 576.737455 322.140721 
L 580.885818 321.399241 
L 585.034182 320.675996 
L 589.182545 319.970581 
L 593.330909 319.282596 
L 597.479273 318.61165 
L 601.627636 317.957357 
L 605.776 317.31934 
" clip-path="url(#pa9fdac23b2)" style="fill: none; stroke: #6699FF; stroke-width: 3; stroke-linecap: round"/>
   </g>
   <g id="text_1">
    <path d="M 614.68098 319.039346 
Q 614.16848 319.039346 613.709105 318.942471 
Q 613.251292 318.844033 612.852855 318.648721 
Q 612.454417 318.453408 612.107542 318.159658 
L 612.107542 318.159658 
L 612.727855 317.398721 
L 612.727855 317.398721 
Q 613.134105 317.750283 613.621605 317.926846 
Q 614.110667 318.101846 614.68098 318.101846 
Q 615.452855 318.101846 615.877855 317.815908 
Q 616.302855 317.529971 616.302855 317.008096 
L 616.302855 317.003408 
Q 616.302855 316.631533 616.109105 316.414346 
Q 615.916917 316.197158 615.610667 316.092471 
Q 615.30598 315.987783 614.823167 315.898721 
Q 614.807542 315.894033 614.790355 315.894033 
Q 614.77473 315.894033 614.759105 315.889346 
L 614.685667 315.875283 
Q 613.973167 315.753408 613.526292 315.600283 
Q 613.079417 315.445596 612.76223 315.037783 
Q 612.445042 314.629971 612.445042 313.878408 
L 612.445042 313.873721 
Q 612.445042 313.214346 612.740355 312.748721 
Q 613.035667 312.281533 613.601292 312.037783 
Q 614.16848 311.792471 614.963792 311.792471 
Q 615.345042 311.792471 615.713792 311.876846 
Q 616.082542 311.959658 616.440355 312.123721 
Q 616.79973 312.286221 617.146605 312.534658 
L 617.146605 312.534658 
L 616.58098 313.326846 
L 616.58098 313.326846 
Q 616.17473 313.028408 615.771605 312.879971 
Q 615.370042 312.729971 614.963792 312.729971 
Q 614.23723 312.729971 613.834105 313.020596 
Q 613.43098 313.311221 613.43098 313.844033 
L 613.43098 313.848721 
Q 613.43098 314.214346 613.638792 314.425283 
Q 613.846605 314.634658 614.15598 314.734658 
Q 614.466917 314.834658 615.01848 314.942471 
Q 615.03723 314.947158 615.054417 314.950283 
Q 615.071605 314.951846 615.091917 314.956533 
Q 615.115355 314.961221 615.145042 314.967471 
Q 615.17473 314.972158 615.198167 314.976846 
Q 615.84348 315.108096 616.27473 315.289346 
Q 616.707542 315.469033 616.998167 315.872158 
Q 617.288792 316.275283 617.288792 316.973721 
L 617.288792 316.983096 
Q 617.288792 317.633096 616.98098 318.094033 
Q 616.673167 318.554971 616.088792 318.797158 
Q 615.50598 319.039346 614.68098 319.039346 
z
M 619.378832 318.019033 
L 620.985082 318.019033 
Q 621.771019 318.019033 622.202269 317.611221 
Q 622.635082 317.203408 622.635082 316.461221 
L 622.635082 314.370596 
Q 622.635082 313.628408 622.202269 313.220596 
Q 621.771019 312.812783 620.985082 312.812783 
L 619.378832 312.812783 
L 619.378832 311.865908 
L 620.955394 311.865908 
Q 621.810082 311.865908 622.414769 312.164346 
Q 623.021019 312.461221 623.338207 313.033096 
Q 623.655394 313.604971 623.655394 314.409658 
L 623.655394 316.422158 
Q 623.655394 317.226846 623.338207 317.798721 
Q 623.021019 318.370596 622.413207 318.669033 
Q 621.805394 318.965908 620.950707 318.965908 
L 619.378832 318.965908 
L 619.378832 318.019033 
z
M 618.705394 311.865908 
L 619.700707 311.865908 
L 619.700707 318.965908 
L 618.705394 318.965908 
L 618.705394 311.865908 
z
M 627.200707 319.039346 
Q 626.556957 319.039346 626.067894 318.795596 
Q 625.580394 318.550283 625.313207 318.103408 
Q 625.047582 317.656533 625.047582 317.065908 
L 625.047582 316.948721 
Q 625.047582 316.417471 625.313207 315.948721 
Q 625.580394 315.479971 626.024144 315.240908 
Q 625.647582 315.034658 625.421019 314.647158 
Q 625.194457 314.258096 625.194457 313.828408 
L 625.194457 313.658096 
Q 625.194457 313.101846 625.442894 312.679971 
Q 625.691332 312.256533 626.146019 312.025283 
Q 626.600707 311.792471 627.200707 311.792471 
Q 627.800707 311.792471 628.255394 312.025283 
Q 628.710082 312.256533 628.958519 312.679971 
Q 629.206957 313.101846 629.206957 313.658096 
L 629.206957 313.828408 
Q 629.206957 314.269033 628.975707 314.654971 
Q 628.744457 315.039346 628.363207 315.240908 
Q 628.811644 315.484658 629.081957 315.951846 
Q 629.353832 316.417471 629.353832 316.948721 
L 629.353832 317.065908 
Q 629.353832 317.656533 629.088207 318.103408 
Q 628.822582 318.550283 628.333519 318.795596 
Q 627.846019 319.039346 627.200707 319.039346 
z
M 627.200707 318.081533 
Q 627.547582 318.081533 627.810082 317.945596 
Q 628.074144 317.808096 628.217894 317.562783 
Q 628.363207 317.315908 628.363207 316.992471 
L 628.363207 316.925283 
Q 628.363207 316.597158 628.217894 316.351846 
Q 628.074144 316.104971 627.810082 315.969033 
Q 627.547582 315.831533 627.200707 315.831533 
Q 626.853832 315.831533 626.589769 315.969033 
Q 626.327269 316.104971 626.181957 316.353408 
Q 626.038207 316.601846 626.038207 316.929971 
L 626.038207 317.003408 
Q 626.038207 317.325283 626.181957 317.569033 
Q 626.327269 317.812783 626.589769 317.947158 
Q 626.853832 318.081533 627.200707 318.081533 
z
M 627.200707 314.873721 
Q 627.499144 314.873721 627.727269 314.745596 
Q 627.956957 314.615908 628.083519 314.376846 
Q 628.211644 314.136221 628.211644 313.823721 
L 628.211644 313.756533 
Q 628.211644 313.458096 628.083519 313.228408 
Q 627.956957 312.998721 627.727269 312.875283 
Q 627.499144 312.750283 627.200707 312.750283 
Q 626.902269 312.750283 626.672582 312.875283 
Q 626.444457 312.998721 626.316332 313.228408 
Q 626.189769 313.458096 626.189769 313.761221 
L 626.189769 313.834658 
Q 626.189769 314.140908 626.316332 314.378408 
Q 626.444457 314.615908 626.672582 314.745596 
Q 626.902269 314.873721 627.200707 314.873721 
z
M 637.455003 315.142471 
L 637.455003 316.383096 
Q 637.455003 317.173721 637.147191 317.776846 
Q 636.839378 318.379971 636.275316 318.709658 
Q 635.711253 319.039346 634.969066 319.039346 
Q 634.217503 319.039346 633.648753 318.729971 
Q 633.080003 318.419033 632.767503 317.853408 
Q 632.455003 317.286221 632.455003 316.539346 
L 632.455003 314.444033 
Q 632.455003 313.653408 632.762816 313.053408 
Q 633.070628 312.451846 633.633128 312.122158 
Q 634.197191 311.792471 634.939378 311.792471 
Q 635.550316 311.792471 636.064378 312.054971 
Q 636.580003 312.315908 636.926878 312.794033 
Q 637.273753 313.272158 637.395628 313.901846 
L 637.395628 313.901846 
L 636.317503 313.901846 
L 636.317503 313.901846 
Q 636.228441 313.545596 636.019066 313.289346 
Q 635.809691 313.033096 635.525316 312.898721 
Q 635.242503 312.764346 634.939378 312.764346 
Q 634.500316 312.764346 634.167503 312.975283 
Q 633.836253 313.184658 633.655003 313.562783 
Q 633.475316 313.940908 633.475316 314.444033 
L 633.475316 316.539346 
Q 633.475316 316.998721 633.659691 317.342471 
Q 633.845628 317.686221 634.184691 317.876846 
Q 634.525316 318.067471 634.969066 318.067471 
Q 635.408128 318.067471 635.739378 317.870596 
Q 636.072191 317.672158 636.253441 317.297158 
Q 636.434691 316.920596 636.434691 316.401846 
L 636.434691 316.094033 
L 634.994066 316.094033 
L 634.994066 315.142471 
L 637.455003 315.142471 
z
M 641.043285 319.039346 
Q 640.34016 319.039346 639.841722 318.775283 
Q 639.344847 318.511221 639.082347 318.001846 
Q 638.82141 317.490908 638.82141 316.769033 
L 638.82141 316.197158 
Q 638.82141 315.445596 639.072972 314.914346 
Q 639.324535 314.381533 639.80266 314.103408 
Q 640.282347 313.823721 640.955785 313.823721 
Q 641.59016 313.823721 642.038597 314.142471 
Q 642.488597 314.459658 642.724535 315.059658 
Q 642.962035 315.659658 642.962035 316.500283 
L 642.962035 316.831533 
L 639.544847 316.831533 
L 639.544847 316.031533 
L 642.01516 316.031533 
L 642.01516 316.031533 
Q 641.97141 315.411221 641.694847 315.067471 
Q 641.419847 314.722158 640.955785 314.722158 
Q 640.388597 314.722158 640.079222 315.094033 
Q 639.769847 315.464346 639.769847 316.144033 
L 639.769847 316.787783 
Q 639.769847 317.417471 640.101097 317.754971 
Q 640.43391 318.092471 641.043285 318.092471 
Q 641.34641 318.092471 641.643285 317.970596 
Q 641.941722 317.847158 642.176097 317.628408 
L 642.176097 317.628408 
L 642.830785 318.281533 
L 642.830785 318.281533 
Q 642.454222 318.644033 641.985472 318.842471 
Q 641.516722 319.039346 641.043285 319.039346 
z
M 644.329613 313.897158 
L 645.326488 313.897158 
L 645.326488 318.965908 
L 644.329613 318.965908 
L 644.329613 313.897158 
z
M 647.406175 315.894033 
Q 647.406175 315.358096 647.12805 315.065908 
Q 646.849925 314.772158 646.3468 314.772158 
Q 645.857738 314.772158 645.592113 315.031533 
Q 645.326488 315.289346 645.326488 315.758096 
L 645.223363 314.781533 
Q 645.457738 314.322158 645.835863 314.073721 
Q 646.213988 313.823721 646.673363 313.823721 
Q 647.498363 313.823721 647.949925 314.364346 
Q 648.401488 314.903408 648.401488 315.889346 
L 648.401488 318.965908 
L 647.406175 318.965908 
L 647.406175 315.894033 
z
M 653.55891 319.039346 
Q 653.02141 319.039346 652.60266 318.829971 
Q 652.185472 318.619033 651.924535 318.219033 
Q 651.663597 317.819033 651.576097 317.256533 
L 651.576097 317.251846 
L 652.57141 317.251846 
L 652.57141 317.256533 
Q 652.626097 317.647158 652.88391 317.864346 
Q 653.143285 318.081533 653.55891 318.081533 
Q 654.037035 318.081533 654.297972 317.762783 
Q 654.55891 317.442471 654.55891 316.861221 
L 654.55891 316.265908 
Q 654.55891 315.689346 654.297972 315.370596 
Q 654.037035 315.050283 653.55891 315.050283 
Q 653.299535 315.050283 653.060472 315.197158 
Q 652.82141 315.342471 652.64016 315.606533 
L 651.732347 315.606533 
L 651.732347 311.865908 
L 655.349535 311.865908 
L 655.349535 312.812783 
L 652.72766 312.812783 
L 652.72766 314.409658 
Q 652.913597 314.258096 653.143285 314.175283 
Q 653.372972 314.092471 653.612035 314.092471 
Q 654.22766 314.092471 654.663597 314.347158 
Q 655.101097 314.600283 655.32766 315.089346 
Q 655.555785 315.576846 655.555785 316.265908 
L 655.555785 316.861221 
Q 655.555785 317.550283 655.32141 318.039346 
Q 655.087035 318.526846 654.637035 318.783096 
Q 654.188597 319.039346 653.55891 319.039346 
z
" style="fill: #ffffff; stroke: #000000"/>
    <path d="M 614.68098 319.039346 
Q 614.16848 319.039346 613.709105 318.942471 
Q 613.251292 318.844033 612.852855 318.648721 
Q 612.454417 318.453408 612.107542 318.159658 
L 612.107542 318.159658 
L 612.727855 317.398721 
L 612.727855 317.398721 
Q 613.134105 317.750283 613.621605 317.926846 
Q 614.110667 318.101846 614.68098 318.101846 
Q 615.452855 318.101846 615.877855 317.815908 
Q 616.302855 317.529971 616.302855 317.008096 
L 616.302855 317.003408 
Q 616.302855 316.631533 616.109105 316.414346 
Q 615.916917 316.197158 615.610667 316.092471 
Q 615.30598 315.987783 614.823167 315.898721 
Q 614.807542 315.894033 614.790355 315.894033 
Q 614.77473 315.894033 614.759105 315.889346 
L 614.685667 315.875283 
Q 613.973167 315.753408 613.526292 315.600283 
Q 613.079417 315.445596 612.76223 315.037783 
Q 612.445042 314.629971 612.445042 313.878408 
L 612.445042 313.873721 
Q 612.445042 313.214346 612.740355 312.748721 
Q 613.035667 312.281533 613.601292 312.037783 
Q 614.16848 311.792471 614.963792 311.792471 
Q 615.345042 311.792471 615.713792 311.876846 
Q 616.082542 311.959658 616.440355 312.123721 
Q 616.79973 312.286221 617.146605 312.534658 
L 617.146605 312.534658 
L 616.58098 313.326846 
L 616.58098 313.326846 
Q 616.17473 313.028408 615.771605 312.879971 
Q 615.370042 312.729971 614.963792 312.729971 
Q 614.23723 312.729971 613.834105 313.020596 
Q 613.43098 313.311221 613.43098 313.844033 
L 613.43098 313.848721 
Q 613.43098 314.214346 613.638792 314.425283 
Q 613.846605 314.634658 614.15598 314.734658 
Q 614.466917 314.834658 615.01848 314.942471 
Q 615.03723 314.947158 615.054417 314.950283 
Q 615.071605 314.951846 615.091917 314.956533 
Q 615.115355 314.961221 615.145042 314.967471 
Q 615.17473 314.972158 615.198167 314.976846 
Q 615.84348 315.108096 616.27473 315.289346 
Q 616.707542 315.469033 616.998167 315.872158 
Q 617.288792 316.275283 617.288792 316.973721 
L 617.288792 316.983096 
Q 617.288792 317.633096 616.98098 318.094033 
Q 616.673167 318.554971 616.088792 318.797158 
Q 615.50598 319.039346 614.68098 319.039346 
z
M 619.378832 318.019033 
L 620.985082 318.019033 
Q 621.771019 318.019033 622.202269 317.611221 
Q 622.635082 317.203408 622.635082 316.461221 
L 622.635082 314.370596 
Q 622.635082 313.628408 622.202269 313.220596 
Q 621.771019 312.812783 620.985082 312.812783 
L 619.378832 312.812783 
L 619.378832 311.865908 
L 620.955394 311.865908 
Q 621.810082 311.865908 622.414769 312.164346 
Q 623.021019 312.461221 623.338207 313.033096 
Q 623.655394 313.604971 623.655394 314.409658 
L 623.655394 316.422158 
Q 623.655394 317.226846 623.338207 317.798721 
Q 623.021019 318.370596 622.413207 318.669033 
Q 621.805394 318.965908 620.950707 318.965908 
L 619.378832 318.965908 
L 619.378832 318.019033 
z
M 618.705394 311.865908 
L 619.700707 311.865908 
L 619.700707 318.965908 
L 618.705394 318.965908 
L 618.705394 311.865908 
z
M 627.200707 319.039346 
Q 626.556957 319.039346 626.067894 318.795596 
Q 625.580394 318.550283 625.313207 318.103408 
Q 625.047582 317.656533 625.047582 317.065908 
L 625.047582 316.948721 
Q 625.047582 316.417471 625.313207 315.948721 
Q 625.580394 315.479971 626.024144 315.240908 
Q 625.647582 315.034658 625.421019 314.647158 
Q 625.194457 314.258096 625.194457 313.828408 
L 625.194457 313.658096 
Q 625.194457 313.101846 625.442894 312.679971 
Q 625.691332 312.256533 626.146019 312.025283 
Q 626.600707 311.792471 627.200707 311.792471 
Q 627.800707 311.792471 628.255394 312.025283 
Q 628.710082 312.256533 628.958519 312.679971 
Q 629.206957 313.101846 629.206957 313.658096 
L 629.206957 313.828408 
Q 629.206957 314.269033 628.975707 314.654971 
Q 628.744457 315.039346 628.363207 315.240908 
Q 628.811644 315.484658 629.081957 315.951846 
Q 629.353832 316.417471 629.353832 316.948721 
L 629.353832 317.065908 
Q 629.353832 317.656533 629.088207 318.103408 
Q 628.822582 318.550283 628.333519 318.795596 
Q 627.846019 319.039346 627.200707 319.039346 
z
M 627.200707 318.081533 
Q 627.547582 318.081533 627.810082 317.945596 
Q 628.074144 317.808096 628.217894 317.562783 
Q 628.363207 317.315908 628.363207 316.992471 
L 628.363207 316.925283 
Q 628.363207 316.597158 628.217894 316.351846 
Q 628.074144 316.104971 627.810082 315.969033 
Q 627.547582 315.831533 627.200707 315.831533 
Q 626.853832 315.831533 626.589769 315.969033 
Q 626.327269 316.104971 626.181957 316.353408 
Q 626.038207 316.601846 626.038207 316.929971 
L 626.038207 317.003408 
Q 626.038207 317.325283 626.181957 317.569033 
Q 626.327269 317.812783 626.589769 317.947158 
Q 626.853832 318.081533 627.200707 318.081533 
z
M 627.200707 314.873721 
Q 627.499144 314.873721 627.727269 314.745596 
Q 627.956957 314.615908 628.083519 314.376846 
Q 628.211644 314.136221 628.211644 313.823721 
L 628.211644 313.756533 
Q 628.211644 313.458096 628.083519 313.228408 
Q 627.956957 312.998721 627.727269 312.875283 
Q 627.499144 312.750283 627.200707 312.750283 
Q 626.902269 312.750283 626.672582 312.875283 
Q 626.444457 312.998721 626.316332 313.228408 
Q 626.189769 313.458096 626.189769 313.761221 
L 626.189769 313.834658 
Q 626.189769 314.140908 626.316332 314.378408 
Q 626.444457 314.615908 626.672582 314.745596 
Q 626.902269 314.873721 627.200707 314.873721 
z
M 637.455003 315.142471 
L 637.455003 316.383096 
Q 637.455003 317.173721 637.147191 317.776846 
Q 636.839378 318.379971 636.275316 318.709658 
Q 635.711253 319.039346 634.969066 319.039346 
Q 634.217503 319.039346 633.648753 318.729971 
Q 633.080003 318.419033 632.767503 317.853408 
Q 632.455003 317.286221 632.455003 316.539346 
L 632.455003 314.444033 
Q 632.455003 313.653408 632.762816 313.053408 
Q 633.070628 312.451846 633.633128 312.122158 
Q 634.197191 311.792471 634.939378 311.792471 
Q 635.550316 311.792471 636.064378 312.054971 
Q 636.580003 312.315908 636.926878 312.794033 
Q 637.273753 313.272158 637.395628 313.901846 
L 637.395628 313.901846 
L 636.317503 313.901846 
L 636.317503 313.901846 
Q 636.228441 313.545596 636.019066 313.289346 
Q 635.809691 313.033096 635.525316 312.898721 
Q 635.242503 312.764346 634.939378 312.764346 
Q 634.500316 312.764346 634.167503 312.975283 
Q 633.836253 313.184658 633.655003 313.562783 
Q 633.475316 313.940908 633.475316 314.444033 
L 633.475316 316.539346 
Q 633.475316 316.998721 633.659691 317.342471 
Q 633.845628 317.686221 634.184691 317.876846 
Q 634.525316 318.067471 634.969066 318.067471 
Q 635.408128 318.067471 635.739378 317.870596 
Q 636.072191 317.672158 636.253441 317.297158 
Q 636.434691 316.920596 636.434691 316.401846 
L 636.434691 316.094033 
L 634.994066 316.094033 
L 634.994066 315.142471 
L 637.455003 315.142471 
z
M 641.043285 319.039346 
Q 640.34016 319.039346 639.841722 318.775283 
Q 639.344847 318.511221 639.082347 318.001846 
Q 638.82141 317.490908 638.82141 316.769033 
L 638.82141 316.197158 
Q 638.82141 315.445596 639.072972 314.914346 
Q 639.324535 314.381533 639.80266 314.103408 
Q 640.282347 313.823721 640.955785 313.823721 
Q 641.59016 313.823721 642.038597 314.142471 
Q 642.488597 314.459658 642.724535 315.059658 
Q 642.962035 315.659658 642.962035 316.500283 
L 642.962035 316.831533 
L 639.544847 316.831533 
L 639.544847 316.031533 
L 642.01516 316.031533 
L 642.01516 316.031533 
Q 641.97141 315.411221 641.694847 315.067471 
Q 641.419847 314.722158 640.955785 314.722158 
Q 640.388597 314.722158 640.079222 315.094033 
Q 639.769847 315.464346 639.769847 316.144033 
L 639.769847 316.787783 
Q 639.769847 317.417471 640.101097 317.754971 
Q 640.43391 318.092471 641.043285 318.092471 
Q 641.34641 318.092471 641.643285 317.970596 
Q 641.941722 317.847158 642.176097 317.628408 
L 642.176097 317.628408 
L 642.830785 318.281533 
L 642.830785 318.281533 
Q 642.454222 318.644033 641.985472 318.842471 
Q 641.516722 319.039346 641.043285 319.039346 
z
M 644.329613 313.897158 
L 645.326488 313.897158 
L 645.326488 318.965908 
L 644.329613 318.965908 
L 644.329613 313.897158 
z
M 647.406175 315.894033 
Q 647.406175 315.358096 647.12805 315.065908 
Q 646.849925 314.772158 646.3468 314.772158 
Q 645.857738 314.772158 645.592113 315.031533 
Q 645.326488 315.289346 645.326488 315.758096 
L 645.223363 314.781533 
Q 645.457738 314.322158 645.835863 314.073721 
Q 646.213988 313.823721 646.673363 313.823721 
Q 647.498363 313.823721 647.949925 314.364346 
Q 648.401488 314.903408 648.401488 315.889346 
L 648.401488 318.965908 
L 647.406175 318.965908 
L 647.406175 315.894033 
z
M 653.55891 319.039346 
Q 653.02141 319.039346 652.60266 318.829971 
Q 652.185472 318.619033 651.924535 318.219033 
Q 651.663597 317.819033 651.576097 317.256533 
L 651.576097 317.251846 
L 652.57141 317.251846 
L 652.57141 317.256533 
Q 652.626097 317.647158 652.88391 317.864346 
Q 653.143285 318.081533 653.55891 318.081533 
Q 654.037035 318.081533 654.297972 317.762783 
Q 654.55891 317.442471 654.55891 316.861221 
L 654.55891 316.265908 
Q 654.55891 315.689346 654.297972 315.370596 
Q 654.037035 315.050283 653.55891 315.050283 
Q 653.299535 315.050283 653.060472 315.197158 
Q 652.82141 315.342471 652.64016 315.606533 
L 651.732347 315.606533 
L 651.732347 311.865908 
L 655.349535 311.865908 
L 655.349535 312.812783 
L 652.72766 312.812783 
L 652.72766 314.409658 
Q 652.913597 314.258096 653.143285 314.175283 
Q 653.372972 314.092471 653.612035 314.092471 
Q 654.22766 314.092471 654.663597 314.347158 
Q 655.101097 314.600283 655.32766 315.089346 
Q 655.555785 315.576846 655.555785 316.265908 
L 655.555785 316.861221 
Q 655.555785 317.550283 655.32141 318.039346 
Q 655.087035 318.526846 654.637035 318.783096 
Q 654.188597 319.039346 653.55891 319.039346 
z
" style="fill: #ffffff"/>
   </g>
  </g>
 </g>
 <defs>
  <clipPath id="pa9fdac23b2">
   <rect x="144" y="77.76" width="892.8" height="498.96"/>
  </clipPath>
 </defs>
</svg>
