<?xml version="1.0" encoding="utf-8" standalone="no"?>
<!DOCTYPE svg PUBLIC "-//W3C//DTD SVG 1.1//EN"
  "http://www.w3.org/Graphics/SVG/1.1/DTD/svg11.dtd">
<svg xmlns:xlink="http://www.w3.org/1999/xlink" width="1152pt" height="648pt" viewBox="0 0 1152 648" xmlns="http://www.w3.org/2000/svg" version="1.1">
 <metadata>
  <rdf:RDF xmlns:dc="http://purl.org/dc/elements/1.1/" xmlns:cc="http://creativecommons.org/ns#" xmlns:rdf="http://www.w3.org/1999/02/22-rdf-syntax-ns#">
   <cc:Work>
    <dc:type rdf:resource="http://purl.org/dc/dcmitype/StillImage"/>
    <dc:date>2025-09-19T13:51:42.748738</dc:date>
    <dc:format>image/svg+xml</dc:format>
    <dc:creator>
     <cc:Agent>
      <dc:title>Matplotlib v3.10.3, https://matplotlib.org/</dc:title>
     </cc:Agent>
    </dc:creator>
   </cc:Work>
  </rdf:RDF>
 </metadata>
 <defs>
  <style type="text/css">*{stroke-linejoin: round; stroke-linecap: butt}</style>
 </defs>
 <g id="figure_1">
  <g id="patch_1">
   <path d="M 0 648 
L 1152 648 
L 1152 0 
L 0 0 
L 0 648 
z
" style="fill: none"/>
  </g>
  <g id="axes_1">
   <g id="line2d_1">
    <path d="M 195.584 557.034389 
L 198.595071 555.35473 
L 201.606141 553.685159 
L 204.617212 552.025945 
L 207.628283 550.377348 
L 210.639354 548.739622 
L 213.650424 547.113011 
L 216.661495 545.497752 
L 219.672566 543.894074 
L 222.683636 542.302198 
L 225.694707 540.722335 
L 228.705778 539.15469 
L 231.716848 537.599457 
L 234.727919 536.056823 
L 237.73899 534.526968 
L 240.750061 533.01006 
L 243.761131 531.506262 
L 246.772202 530.015727 
L 249.783273 528.538599 
L 252.794343 527.075014 
L 255.805414 525.625102 
L 258.816485 524.188981 
L 261.827556 522.766764 
L 264.838626 521.358553 
L 267.849697 519.964444 
L 270.860768 518.584525 
L 273.871838 517.218875 
L 276.882909 515.867566 
L 279.89398 514.530662 
L 282.905051 513.20822 
L 285.916121 511.900288 
L 288.927192 510.60691 
L 291.938263 509.328118 
L 294.949333 508.063942 
L 297.960404 506.814402 
L 300.971475 505.579511 
L 303.982545 504.359278 
L 306.993616 503.153702 
L 310.004687 501.96278 
L 313.015758 500.786498 
L 316.026828 499.624839 
L 319.037899 498.477781 
L 322.04897 497.345294 
L 325.06004 496.227343 
L 328.071111 495.123888 
L 331.082182 494.034885 
L 334.093253 492.960283 
L 337.104323 491.900027 
L 340.115394 490.854057 
L 343.126465 489.82231 
L 346.137535 488.804716 
L 349.148606 487.801203 
L 352.159677 486.811694 
L 355.170747 485.836109 
L 358.181818 484.874362 
L 361.192889 483.926367 
L 364.20396 482.992031 
L 367.21503 482.07126 
L 370.226101 481.163957 
L 373.237172 480.270021 
L 376.248242 479.389348 
L 379.259313 478.521833 
L 382.270384 477.667367 
L 385.281455 476.82584 
L 388.292525 475.997137 
L 391.303596 475.181145 
L 394.314667 474.377747 
L 397.325737 473.586822 
L 400.336808 472.808252 
L 403.347879 472.041913 
L 406.358949 471.287683 
L 409.37002 470.545436 
L 412.381091 469.815047 
L 415.392162 469.096389 
L 418.403232 468.389333 
L 421.414303 467.693751 
L 424.425374 467.009513 
L 427.436444 466.336489 
L 430.447515 465.674549 
L 433.458586 465.023559 
L 436.469657 464.38339 
L 439.480727 463.75391 
L 442.491798 463.134985 
L 445.502869 462.526484 
L 448.513939 461.928274 
L 451.52501 461.340224 
L 454.536081 460.762201 
L 457.547152 460.194073 
L 460.558222 459.635708 
L 463.569293 459.086976 
L 466.580364 458.547744 
L 469.591434 458.017883 
L 472.602505 457.497263 
L 475.613576 456.985754 
L 478.624646 456.483227 
L 481.635717 455.989554 
L 484.646788 455.504607 
L 487.657859 455.02826 
L 490.668929 454.560387 
L 493.68 454.100862 
" clip-path="url(#p1fe0362373)" style="fill: none; stroke: #30b1f2; stroke-width: 3; stroke-linecap: round"/>
   </g>
   <g id="text_1">
    <path d="M 501.481855 449.22868 
L 502.477168 449.22868 
L 502.477168 455.74743 
L 501.481855 455.74743 
L 501.481855 449.22868 
z
M 499.474042 448.64743 
L 504.48498 448.64743 
L 504.48498 449.594305 
L 499.474042 449.594305 
L 499.474042 448.64743 
z
M 507.243183 455.820867 
Q 506.540058 455.820867 506.041621 455.556805 
Q 505.544746 455.292742 505.282246 454.783367 
Q 505.021308 454.27243 505.021308 453.550555 
L 505.021308 452.97868 
Q 505.021308 452.227117 505.272871 451.695867 
Q 505.524433 451.163055 506.002558 450.88493 
Q 506.482246 450.605242 507.155683 450.605242 
Q 507.790058 450.605242 508.238496 450.923992 
Q 508.688496 451.24118 508.924433 451.84118 
Q 509.161933 452.44118 509.161933 453.281805 
L 509.161933 453.613055 
L 505.744746 453.613055 
L 505.744746 452.813055 
L 508.215058 452.813055 
L 508.215058 452.813055 
Q 508.171308 452.192742 507.894746 451.848992 
Q 507.619746 451.50368 507.155683 451.50368 
Q 506.588496 451.50368 506.279121 451.875555 
Q 505.969746 452.245867 505.969746 452.925555 
L 505.969746 453.569305 
Q 505.969746 454.198992 506.300996 454.536492 
Q 506.633808 454.873992 507.243183 454.873992 
Q 507.546308 454.873992 507.843183 454.752117 
Q 508.141621 454.62868 508.375996 454.40993 
L 508.375996 454.40993 
L 509.030683 455.063055 
L 509.030683 455.063055 
Q 508.654121 455.425555 508.185371 455.623992 
Q 507.716621 455.820867 507.243183 455.820867 
z
M 510.529511 450.67868 
L 511.526386 450.67868 
L 511.526386 455.74743 
L 510.529511 455.74743 
L 510.529511 450.67868 
z
M 513.606074 452.675555 
Q 513.606074 452.139617 513.327949 451.84743 
Q 513.049824 451.55368 512.546699 451.55368 
Q 512.057636 451.55368 511.792011 451.813055 
Q 511.526386 452.070867 511.526386 452.539617 
L 511.423261 451.563055 
Q 511.657636 451.10368 512.035761 450.855242 
Q 512.413886 450.605242 512.873261 450.605242 
Q 513.698261 450.605242 514.149824 451.145867 
Q 514.601386 451.68493 514.601386 452.670867 
L 514.601386 455.74743 
L 513.606074 455.74743 
L 513.606074 452.675555 
z
M 517.907636 455.820867 
Q 517.457636 455.820867 517.063886 455.733367 
Q 516.671699 455.644305 516.329511 455.469305 
Q 515.988886 455.292742 515.699824 455.030242 
L 515.699824 455.030242 
L 516.292011 454.302117 
L 516.292011 454.302117 
Q 516.701386 454.614617 517.106074 454.770867 
Q 517.512324 454.927117 517.907636 454.927117 
Q 518.498261 454.927117 518.793574 454.744305 
Q 519.088886 454.561492 519.088886 454.194305 
Q 519.088886 453.950555 518.927949 453.82868 
Q 518.767011 453.706805 518.527949 453.66618 
Q 518.288886 453.623992 517.854511 453.589617 
Q 517.815449 453.589617 517.770136 453.588055 
Q 517.726386 453.58493 517.687324 453.57868 
Q 517.668574 453.57868 517.648261 453.577117 
Q 517.629511 453.573992 517.609199 453.573992 
Q 517.117011 453.53493 516.774824 453.430242 
Q 516.432636 453.325555 516.206074 453.038055 
Q 515.979511 452.748992 515.979511 452.211492 
Q 515.979511 451.675555 516.198261 451.319305 
Q 516.418574 450.961492 516.852949 450.783367 
Q 517.287324 450.605242 517.942011 450.605242 
Q 518.337324 450.605242 518.695136 450.67868 
Q 519.054511 450.752117 519.381074 450.895867 
Q 519.709199 451.039617 520.012324 451.25993 
L 520.012324 451.25993 
L 519.410761 451.988055 
L 519.410761 451.988055 
Q 519.031074 451.742742 518.662324 451.620867 
Q 518.293574 451.498992 517.942011 451.498992 
Q 517.434199 451.498992 517.179511 451.67243 
Q 516.926386 451.845867 516.926386 452.192742 
Q 516.926386 452.39743 517.070136 452.500555 
Q 517.213886 452.602117 517.432636 452.636492 
Q 517.652949 452.670867 518.059199 452.695867 
Q 518.088886 452.700555 518.120136 452.700555 
Q 518.151386 452.700555 518.185761 452.705242 
Q 518.199824 452.705242 518.213886 452.705242 
Q 518.229511 452.705242 518.245136 452.70993 
Q 518.776386 452.744305 519.149824 452.852117 
Q 519.523261 452.95993 519.776386 453.277117 
Q 520.031074 453.594305 520.031074 454.194305 
Q 520.031074 454.74118 519.796699 455.100555 
Q 519.562324 455.45993 519.090449 455.64118 
Q 518.620136 455.820867 517.907636 455.820867 
z
M 523.244746 455.820867 
Q 522.585371 455.820867 522.116621 455.563055 
Q 521.647871 455.30368 521.400996 454.808367 
Q 521.154121 454.311492 521.154121 453.613055 
L 521.154121 452.788055 
Q 521.154121 452.100555 521.400996 451.60993 
Q 521.647871 451.117742 522.116621 450.861492 
Q 522.585371 450.605242 523.244746 450.605242 
Q 523.904121 450.605242 524.372871 450.861492 
Q 524.841621 451.117742 525.086933 451.60993 
Q 525.333808 452.100555 525.333808 452.788055 
L 525.333808 453.62868 
Q 525.333808 454.320867 525.086933 454.813055 
Q 524.841621 455.30368 524.372871 455.563055 
Q 523.904121 455.820867 523.244746 455.820867 
z
M 523.244746 454.873992 
Q 523.766621 454.873992 524.052558 454.54743 
Q 524.338496 454.219305 524.338496 453.62868 
L 524.338496 452.788055 
Q 524.338496 452.19743 524.052558 451.875555 
Q 523.766621 451.55368 523.244746 451.55368 
Q 522.721308 451.55368 522.435371 451.875555 
Q 522.150996 452.19743 522.150996 452.788055 
L 522.150996 453.62868 
Q 522.150996 454.219305 522.435371 454.54743 
Q 522.721308 454.873992 523.244746 454.873992 
z
M 526.750214 450.67868 
L 527.747089 450.67868 
L 527.747089 455.74743 
L 526.750214 455.74743 
L 526.750214 450.67868 
z
M 529.537714 451.880242 
Q 529.406464 451.719305 529.206464 451.636492 
Q 529.006464 451.55368 528.742402 451.55368 
Q 528.268964 451.55368 528.008027 451.814617 
Q 527.747089 452.075555 527.747089 452.539617 
L 527.643964 451.563055 
Q 527.878339 451.108367 528.248652 450.856805 
Q 528.620527 450.605242 529.068964 450.605242 
Q 529.415839 450.605242 529.697089 450.705242 
Q 529.978339 450.805242 530.187714 451.000555 
L 529.537714 451.880242 
z
M 537.678339 451.923992 
L 537.678339 453.164617 
Q 537.678339 453.955242 537.370527 454.558367 
Q 537.062714 455.161492 536.498652 455.49118 
Q 535.934589 455.820867 535.192402 455.820867 
Q 534.440839 455.820867 533.872089 455.511492 
Q 533.303339 455.200555 532.990839 454.63493 
Q 532.678339 454.067742 532.678339 453.320867 
L 532.678339 451.225555 
Q 532.678339 450.43493 532.986152 449.83493 
Q 533.293964 449.233367 533.856464 448.90368 
Q 534.420527 448.573992 535.162714 448.573992 
Q 535.773652 448.573992 536.287714 448.836492 
Q 536.803339 449.09743 537.150214 449.575555 
Q 537.497089 450.05368 537.618964 450.683367 
L 537.618964 450.683367 
L 536.540839 450.683367 
L 536.540839 450.683367 
Q 536.451777 450.327117 536.242402 450.070867 
Q 536.033027 449.814617 535.748652 449.680242 
Q 535.465839 449.545867 535.162714 449.545867 
Q 534.723652 449.545867 534.390839 449.756805 
Q 534.059589 449.96618 533.878339 450.344305 
Q 533.698652 450.72243 533.698652 451.225555 
L 533.698652 453.320867 
Q 533.698652 453.780242 533.883027 454.123992 
Q 534.068964 454.467742 534.408027 454.658367 
Q 534.748652 454.848992 535.192402 454.848992 
Q 535.631464 454.848992 535.962714 454.652117 
Q 536.295527 454.45368 536.476777 454.07868 
Q 536.658027 453.702117 536.658027 453.183367 
L 536.658027 452.875555 
L 535.217402 452.875555 
L 535.217402 451.923992 
L 537.678339 451.923992 
z
M 539.044746 453.794305 
L 541.427558 448.652117 
L 542.454121 448.652117 
L 540.129121 453.73493 
L 543.610371 453.73493 
L 543.610371 454.658367 
L 539.044746 454.658367 
L 539.044746 453.794305 
z
M 542.107246 451.57243 
L 543.079121 451.57243 
L 543.079121 455.752117 
L 542.107246 455.752117 
L 542.107246 451.57243 
z
" style="fill: #ffffff; stroke: #000000"/>
    <path d="M 501.481855 449.22868 
L 502.477168 449.22868 
L 502.477168 455.74743 
L 501.481855 455.74743 
L 501.481855 449.22868 
z
M 499.474042 448.64743 
L 504.48498 448.64743 
L 504.48498 449.594305 
L 499.474042 449.594305 
L 499.474042 448.64743 
z
M 507.243183 455.820867 
Q 506.540058 455.820867 506.041621 455.556805 
Q 505.544746 455.292742 505.282246 454.783367 
Q 505.021308 454.27243 505.021308 453.550555 
L 505.021308 452.97868 
Q 505.021308 452.227117 505.272871 451.695867 
Q 505.524433 451.163055 506.002558 450.88493 
Q 506.482246 450.605242 507.155683 450.605242 
Q 507.790058 450.605242 508.238496 450.923992 
Q 508.688496 451.24118 508.924433 451.84118 
Q 509.161933 452.44118 509.161933 453.281805 
L 509.161933 453.613055 
L 505.744746 453.613055 
L 505.744746 452.813055 
L 508.215058 452.813055 
L 508.215058 452.813055 
Q 508.171308 452.192742 507.894746 451.848992 
Q 507.619746 451.50368 507.155683 451.50368 
Q 506.588496 451.50368 506.279121 451.875555 
Q 505.969746 452.245867 505.969746 452.925555 
L 505.969746 453.569305 
Q 505.969746 454.198992 506.300996 454.536492 
Q 506.633808 454.873992 507.243183 454.873992 
Q 507.546308 454.873992 507.843183 454.752117 
Q 508.141621 454.62868 508.375996 454.40993 
L 508.375996 454.40993 
L 509.030683 455.063055 
L 509.030683 455.063055 
Q 508.654121 455.425555 508.185371 455.623992 
Q 507.716621 455.820867 507.243183 455.820867 
z
M 510.529511 450.67868 
L 511.526386 450.67868 
L 511.526386 455.74743 
L 510.529511 455.74743 
L 510.529511 450.67868 
z
M 513.606074 452.675555 
Q 513.606074 452.139617 513.327949 451.84743 
Q 513.049824 451.55368 512.546699 451.55368 
Q 512.057636 451.55368 511.792011 451.813055 
Q 511.526386 452.070867 511.526386 452.539617 
L 511.423261 451.563055 
Q 511.657636 451.10368 512.035761 450.855242 
Q 512.413886 450.605242 512.873261 450.605242 
Q 513.698261 450.605242 514.149824 451.145867 
Q 514.601386 451.68493 514.601386 452.670867 
L 514.601386 455.74743 
L 513.606074 455.74743 
L 513.606074 452.675555 
z
M 517.907636 455.820867 
Q 517.457636 455.820867 517.063886 455.733367 
Q 516.671699 455.644305 516.329511 455.469305 
Q 515.988886 455.292742 515.699824 455.030242 
L 515.699824 455.030242 
L 516.292011 454.302117 
L 516.292011 454.302117 
Q 516.701386 454.614617 517.106074 454.770867 
Q 517.512324 454.927117 517.907636 454.927117 
Q 518.498261 454.927117 518.793574 454.744305 
Q 519.088886 454.561492 519.088886 454.194305 
Q 519.088886 453.950555 518.927949 453.82868 
Q 518.767011 453.706805 518.527949 453.66618 
Q 518.288886 453.623992 517.854511 453.589617 
Q 517.815449 453.589617 517.770136 453.588055 
Q 517.726386 453.58493 517.687324 453.57868 
Q 517.668574 453.57868 517.648261 453.577117 
Q 517.629511 453.573992 517.609199 453.573992 
Q 517.117011 453.53493 516.774824 453.430242 
Q 516.432636 453.325555 516.206074 453.038055 
Q 515.979511 452.748992 515.979511 452.211492 
Q 515.979511 451.675555 516.198261 451.319305 
Q 516.418574 450.961492 516.852949 450.783367 
Q 517.287324 450.605242 517.942011 450.605242 
Q 518.337324 450.605242 518.695136 450.67868 
Q 519.054511 450.752117 519.381074 450.895867 
Q 519.709199 451.039617 520.012324 451.25993 
L 520.012324 451.25993 
L 519.410761 451.988055 
L 519.410761 451.988055 
Q 519.031074 451.742742 518.662324 451.620867 
Q 518.293574 451.498992 517.942011 451.498992 
Q 517.434199 451.498992 517.179511 451.67243 
Q 516.926386 451.845867 516.926386 452.192742 
Q 516.926386 452.39743 517.070136 452.500555 
Q 517.213886 452.602117 517.432636 452.636492 
Q 517.652949 452.670867 518.059199 452.695867 
Q 518.088886 452.700555 518.120136 452.700555 
Q 518.151386 452.700555 518.185761 452.705242 
Q 518.199824 452.705242 518.213886 452.705242 
Q 518.229511 452.705242 518.245136 452.70993 
Q 518.776386 452.744305 519.149824 452.852117 
Q 519.523261 452.95993 519.776386 453.277117 
Q 520.031074 453.594305 520.031074 454.194305 
Q 520.031074 454.74118 519.796699 455.100555 
Q 519.562324 455.45993 519.090449 455.64118 
Q 518.620136 455.820867 517.907636 455.820867 
z
M 523.244746 455.820867 
Q 522.585371 455.820867 522.116621 455.563055 
Q 521.647871 455.30368 521.400996 454.808367 
Q 521.154121 454.311492 521.154121 453.613055 
L 521.154121 452.788055 
Q 521.154121 452.100555 521.400996 451.60993 
Q 521.647871 451.117742 522.116621 450.861492 
Q 522.585371 450.605242 523.244746 450.605242 
Q 523.904121 450.605242 524.372871 450.861492 
Q 524.841621 451.117742 525.086933 451.60993 
Q 525.333808 452.100555 525.333808 452.788055 
L 525.333808 453.62868 
Q 525.333808 454.320867 525.086933 454.813055 
Q 524.841621 455.30368 524.372871 455.563055 
Q 523.904121 455.820867 523.244746 455.820867 
z
M 523.244746 454.873992 
Q 523.766621 454.873992 524.052558 454.54743 
Q 524.338496 454.219305 524.338496 453.62868 
L 524.338496 452.788055 
Q 524.338496 452.19743 524.052558 451.875555 
Q 523.766621 451.55368 523.244746 451.55368 
Q 522.721308 451.55368 522.435371 451.875555 
Q 522.150996 452.19743 522.150996 452.788055 
L 522.150996 453.62868 
Q 522.150996 454.219305 522.435371 454.54743 
Q 522.721308 454.873992 523.244746 454.873992 
z
M 526.750214 450.67868 
L 527.747089 450.67868 
L 527.747089 455.74743 
L 526.750214 455.74743 
L 526.750214 450.67868 
z
M 529.537714 451.880242 
Q 529.406464 451.719305 529.206464 451.636492 
Q 529.006464 451.55368 528.742402 451.55368 
Q 528.268964 451.55368 528.008027 451.814617 
Q 527.747089 452.075555 527.747089 452.539617 
L 527.643964 451.563055 
Q 527.878339 451.108367 528.248652 450.856805 
Q 528.620527 450.605242 529.068964 450.605242 
Q 529.415839 450.605242 529.697089 450.705242 
Q 529.978339 450.805242 530.187714 451.000555 
L 529.537714 451.880242 
z
M 537.678339 451.923992 
L 537.678339 453.164617 
Q 537.678339 453.955242 537.370527 454.558367 
Q 537.062714 455.161492 536.498652 455.49118 
Q 535.934589 455.820867 535.192402 455.820867 
Q 534.440839 455.820867 533.872089 455.511492 
Q 533.303339 455.200555 532.990839 454.63493 
Q 532.678339 454.067742 532.678339 453.320867 
L 532.678339 451.225555 
Q 532.678339 450.43493 532.986152 449.83493 
Q 533.293964 449.233367 533.856464 448.90368 
Q 534.420527 448.573992 535.162714 448.573992 
Q 535.773652 448.573992 536.287714 448.836492 
Q 536.803339 449.09743 537.150214 449.575555 
Q 537.497089 450.05368 537.618964 450.683367 
L 537.618964 450.683367 
L 536.540839 450.683367 
L 536.540839 450.683367 
Q 536.451777 450.327117 536.242402 450.070867 
Q 536.033027 449.814617 535.748652 449.680242 
Q 535.465839 449.545867 535.162714 449.545867 
Q 534.723652 449.545867 534.390839 449.756805 
Q 534.059589 449.96618 533.878339 450.344305 
Q 533.698652 450.72243 533.698652 451.225555 
L 533.698652 453.320867 
Q 533.698652 453.780242 533.883027 454.123992 
Q 534.068964 454.467742 534.408027 454.658367 
Q 534.748652 454.848992 535.192402 454.848992 
Q 535.631464 454.848992 535.962714 454.652117 
Q 536.295527 454.45368 536.476777 454.07868 
Q 536.658027 453.702117 536.658027 453.183367 
L 536.658027 452.875555 
L 535.217402 452.875555 
L 535.217402 451.923992 
L 537.678339 451.923992 
z
M 539.044746 453.794305 
L 541.427558 448.652117 
L 542.454121 448.652117 
L 540.129121 453.73493 
L 543.610371 453.73493 
L 543.610371 454.658367 
L 539.044746 454.658367 
L 539.044746 453.794305 
z
M 542.107246 451.57243 
L 543.079121 451.57243 
L 543.079121 455.752117 
L 542.107246 455.752117 
L 542.107246 451.57243 
z
" style="fill: #ffffff"/>
   </g>
  </g>
 </g>
 <defs>
  <clipPath id="p1fe0362373">
   <rect x="144" y="77.76" width="892.8" height="498.96"/>
  </clipPath>
 </defs>
</svg>
