<?xml version="1.0" encoding="utf-8" standalone="no"?>
<!DOCTYPE svg PUBLIC "-//W3C//DTD SVG 1.1//EN"
  "http://www.w3.org/Graphics/SVG/1.1/DTD/svg11.dtd">
<svg xmlns:xlink="http://www.w3.org/1999/xlink" width="1152pt" height="648pt" viewBox="0 0 1152 648" xmlns="http://www.w3.org/2000/svg" version="1.1">
 <metadata>
  <rdf:RDF xmlns:dc="http://purl.org/dc/elements/1.1/" xmlns:cc="http://creativecommons.org/ns#" xmlns:rdf="http://www.w3.org/1999/02/22-rdf-syntax-ns#">
   <cc:Work>
    <dc:type rdf:resource="http://purl.org/dc/dcmitype/StillImage"/>
    <dc:date>2025-09-19T13:51:42.130151</dc:date>
    <dc:format>image/svg+xml</dc:format>
    <dc:creator>
     <cc:Agent>
      <dc:title>Matplotlib v3.10.3, https://matplotlib.org/</dc:title>
     </cc:Agent>
    </dc:creator>
   </cc:Work>
  </rdf:RDF>
 </metadata>
 <defs>
  <style type="text/css">*{stroke-linejoin: round; stroke-linecap: butt}</style>
 </defs>
 <g id="figure_1">
  <g id="patch_1">
   <path d="M 0 648 
L 1152 648 
L 1152 0 
L 0 0 
L 0 648 
z
" style="fill: none"/>
  </g>
  <g id="axes_1">
   <g id="line2d_1">
    <path d="M 200.048 526.241437 
L 205.273535 520.261486 
L 210.499071 514.348734 
L 215.724606 508.504682 
L 220.950141 502.730734 
L 226.175677 497.028199 
L 231.401212 491.39829 
L 236.626747 485.842125 
L 241.852283 480.360727 
L 247.077818 474.955023 
L 252.303354 469.62585 
L 257.528889 464.373951 
L 262.754424 459.199981 
L 267.97996 454.104503 
L 273.205495 449.087997 
L 278.43103 444.150856 
L 283.656566 439.293389 
L 288.882101 434.515827 
L 294.107636 429.81832 
L 299.333172 425.200943 
L 304.558707 420.663696 
L 309.784242 416.206511 
L 315.009778 411.829248 
L 320.235313 407.531701 
L 325.460848 403.313604 
L 330.686384 399.174627 
L 335.911919 395.114383 
L 341.137455 391.13243 
L 346.36299 387.228274 
L 351.588525 383.40137 
L 356.814061 379.651127 
L 362.039596 375.976908 
L 367.265131 372.378036 
L 372.490667 368.853794 
L 377.716202 365.403429 
L 382.941737 362.026152 
L 388.167273 358.721143 
L 393.392808 355.487556 
L 398.618343 352.324512 
L 403.843879 349.231114 
L 409.069414 346.206438 
L 414.294949 343.24954 
L 419.520485 340.359462 
L 424.74602 337.535224 
L 429.971556 334.775837 
L 435.197091 332.080297 
L 440.422626 329.44759 
L 445.648162 326.876693 
L 450.873697 324.366576 
L 456.099232 321.916205 
L 461.324768 319.524538 
L 466.550303 317.190536 
L 471.775838 314.913154 
L 477.001374 312.691349 
L 482.226909 310.52408 
L 487.452444 308.410306 
L 492.67798 306.348992 
L 497.903515 304.339107 
L 503.129051 302.379624 
L 508.354586 300.469524 
L 513.580121 298.607794 
L 518.805657 296.793431 
L 524.031192 295.025438 
L 529.256727 293.30283 
L 534.482263 291.624629 
L 539.707798 289.989871 
L 544.933333 288.3976 
L 550.158869 286.846874 
L 555.384404 285.336761 
L 560.609939 283.866344 
L 565.835475 282.434715 
L 571.06101 281.040983 
L 576.286545 279.684266 
L 581.512081 278.3637 
L 586.737616 277.078432 
L 591.963152 275.827623 
L 597.188687 274.610448 
L 602.414222 273.426098 
L 607.639758 272.273776 
L 612.865293 271.152701 
L 618.090828 270.062105 
L 623.316364 269.001235 
L 628.541899 267.969352 
L 633.767434 266.965732 
L 638.99297 265.989665 
L 644.218505 265.040454 
L 649.44404 264.117418 
L 654.669576 263.21989 
L 659.895111 262.347215 
L 665.120646 261.498754 
L 670.346182 260.67388 
L 675.571717 259.871981 
L 680.797253 259.092458 
L 686.022788 258.334726 
L 691.248323 257.59821 
L 696.473859 256.882353 
L 701.699394 256.186606 
L 706.924929 255.510435 
L 712.150465 254.85332 
L 717.376 254.214749 
" clip-path="url(#p4fc30db9d4)" style="fill: none; stroke: #79def2; stroke-width: 3; stroke-linecap: round"/>
   </g>
   <g id="text_1">
    <path d="M 726.28098 255.934755 
Q 725.76848 255.934755 725.309105 255.83788 
Q 724.851292 255.739442 724.452855 255.54413 
Q 724.054417 255.348817 723.707542 255.055067 
L 723.707542 255.055067 
L 724.327855 254.29413 
L 724.327855 254.29413 
Q 724.734105 254.645692 725.221605 254.822255 
Q 725.710667 254.997255 726.28098 254.997255 
Q 727.052855 254.997255 727.477855 254.711317 
Q 727.902855 254.42538 727.902855 253.903505 
L 727.902855 253.898817 
Q 727.902855 253.526942 727.709105 253.309755 
Q 727.516917 253.092567 727.210667 252.98788 
Q 726.90598 252.883192 726.423167 252.79413 
Q 726.407542 252.789442 726.390355 252.789442 
Q 726.37473 252.789442 726.359105 252.784755 
L 726.285667 252.770692 
Q 725.573167 252.648817 725.126292 252.495692 
Q 724.679417 252.341005 724.36223 251.933192 
Q 724.045042 251.52538 724.045042 250.773817 
L 724.045042 250.76913 
Q 724.045042 250.109755 724.340355 249.64413 
Q 724.635667 249.176942 725.201292 248.933192 
Q 725.76848 248.68788 726.563792 248.68788 
Q 726.945042 248.68788 727.313792 248.772255 
Q 727.682542 248.855067 728.040355 249.01913 
Q 728.39973 249.18163 728.746605 249.430067 
L 728.746605 249.430067 
L 728.18098 250.222255 
L 728.18098 250.222255 
Q 727.77473 249.923817 727.371605 249.77538 
Q 726.970042 249.62538 726.563792 249.62538 
Q 725.83723 249.62538 725.434105 249.916005 
Q 725.03098 250.20663 725.03098 250.739442 
L 725.03098 250.74413 
Q 725.03098 251.109755 725.238792 251.320692 
Q 725.446605 251.530067 725.75598 251.630067 
Q 726.066917 251.730067 726.61848 251.83788 
Q 726.63723 251.842567 726.654417 251.845692 
Q 726.671605 251.847255 726.691917 251.851942 
Q 726.715355 251.85663 726.745042 251.86288 
Q 726.77473 251.867567 726.798167 251.872255 
Q 727.44348 252.003505 727.87473 252.184755 
Q 728.307542 252.364442 728.598167 252.767567 
Q 728.888792 253.170692 728.888792 253.86913 
L 728.888792 253.878505 
Q 728.888792 254.528505 728.58098 254.989442 
Q 728.273167 255.45038 727.688792 255.692567 
Q 727.10598 255.934755 726.28098 255.934755 
z
M 730.978832 254.914442 
L 732.585082 254.914442 
Q 733.371019 254.914442 733.802269 254.50663 
Q 734.235082 254.098817 734.235082 253.35663 
L 734.235082 251.266005 
Q 734.235082 250.523817 733.802269 250.116005 
Q 733.371019 249.708192 732.585082 249.708192 
L 730.978832 249.708192 
L 730.978832 248.761317 
L 732.555394 248.761317 
Q 733.410082 248.761317 734.014769 249.059755 
Q 734.621019 249.35663 734.938207 249.928505 
Q 735.255394 250.50038 735.255394 251.305067 
L 735.255394 253.317567 
Q 735.255394 254.122255 734.938207 254.69413 
Q 734.621019 255.266005 734.013207 255.564442 
Q 733.405394 255.861317 732.550707 255.861317 
L 730.978832 255.861317 
L 730.978832 254.914442 
z
M 730.305394 248.761317 
L 731.300707 248.761317 
L 731.300707 255.861317 
L 730.305394 255.861317 
L 730.305394 248.761317 
z
M 738.800707 255.934755 
Q 738.156957 255.934755 737.667894 255.691005 
Q 737.180394 255.445692 736.913207 254.998817 
Q 736.647582 254.551942 736.647582 253.961317 
L 736.647582 253.84413 
Q 736.647582 253.31288 736.913207 252.84413 
Q 737.180394 252.37538 737.624144 252.136317 
Q 737.247582 251.930067 737.021019 251.542567 
Q 736.794457 251.153505 736.794457 250.723817 
L 736.794457 250.553505 
Q 736.794457 249.997255 737.042894 249.57538 
Q 737.291332 249.151942 737.746019 248.920692 
Q 738.200707 248.68788 738.800707 248.68788 
Q 739.400707 248.68788 739.855394 248.920692 
Q 740.310082 249.151942 740.558519 249.57538 
Q 740.806957 249.997255 740.806957 250.553505 
L 740.806957 250.723817 
Q 740.806957 251.164442 740.575707 251.55038 
Q 740.344457 251.934755 739.963207 252.136317 
Q 740.411644 252.380067 740.681957 252.847255 
Q 740.953832 253.31288 740.953832 253.84413 
L 740.953832 253.961317 
Q 740.953832 254.551942 740.688207 254.998817 
Q 740.422582 255.445692 739.933519 255.691005 
Q 739.446019 255.934755 738.800707 255.934755 
z
M 738.800707 254.976942 
Q 739.147582 254.976942 739.410082 254.841005 
Q 739.674144 254.703505 739.817894 254.458192 
Q 739.963207 254.211317 739.963207 253.88788 
L 739.963207 253.820692 
Q 739.963207 253.492567 739.817894 253.247255 
Q 739.674144 253.00038 739.410082 252.864442 
Q 739.147582 252.726942 738.800707 252.726942 
Q 738.453832 252.726942 738.189769 252.864442 
Q 737.927269 253.00038 737.781957 253.248817 
Q 737.638207 253.497255 737.638207 253.82538 
L 737.638207 253.898817 
Q 737.638207 254.220692 737.781957 254.464442 
Q 737.927269 254.708192 738.189769 254.842567 
Q 738.453832 254.976942 738.800707 254.976942 
z
M 738.800707 251.76913 
Q 739.099144 251.76913 739.327269 251.641005 
Q 739.556957 251.511317 739.683519 251.272255 
Q 739.811644 251.03163 739.811644 250.71913 
L 739.811644 250.651942 
Q 739.811644 250.353505 739.683519 250.123817 
Q 739.556957 249.89413 739.327269 249.770692 
Q 739.099144 249.645692 738.800707 249.645692 
Q 738.502269 249.645692 738.272582 249.770692 
Q 738.044457 249.89413 737.916332 250.123817 
Q 737.789769 250.353505 737.789769 250.65663 
L 737.789769 250.730067 
Q 737.789769 251.036317 737.916332 251.273817 
Q 738.044457 251.511317 738.272582 251.641005 
Q 738.502269 251.76913 738.800707 251.76913 
z
M 744.201878 248.761317 
L 745.197191 248.761317 
L 745.197191 255.861317 
L 744.201878 255.861317 
L 744.201878 248.761317 
z
M 744.684691 254.914442 
L 748.761253 254.914442 
L 748.761253 255.861317 
L 744.684691 255.861317 
L 744.684691 254.914442 
z
M 744.684691 251.86288 
L 748.225316 251.86288 
L 748.225316 252.809755 
L 744.684691 252.809755 
L 744.684691 251.86288 
z
M 744.684691 248.761317 
L 748.761253 248.761317 
L 748.761253 249.708192 
L 744.684691 249.708192 
L 744.684691 248.761317 
z
M 751.076878 254.551942 
Q 751.076878 254.73788 751.156566 254.83788 
Q 751.237816 254.93788 751.383128 254.93788 
L 751.851878 254.93788 
L 751.851878 255.886317 
L 751.265941 255.886317 
Q 750.700316 255.886317 750.389378 255.534755 
Q 750.080003 255.183192 750.080003 254.542567 
L 750.080003 248.761317 
L 751.076878 248.761317 
L 751.076878 254.551942 
z
M 752.975511 248.761317 
L 753.972386 248.761317 
L 753.972386 249.758192 
L 752.975511 249.758192 
L 752.975511 248.761317 
z
M 752.975511 250.792567 
L 753.972386 250.792567 
L 753.972386 255.861317 
L 752.975511 255.861317 
L 752.975511 250.792567 
z
M 756.804027 255.886317 
Q 756.188402 255.886317 755.902464 255.547255 
Q 755.616527 255.20663 755.616527 254.542567 
L 755.616527 249.317567 
L 756.613402 249.317567 
L 756.613402 254.551942 
Q 756.613402 254.73788 756.686839 254.83788 
Q 756.760277 254.93788 756.900902 254.93788 
L 757.380589 254.93788 
L 757.380589 255.886317 
L 756.804027 255.886317 
z
M 755.094652 250.792567 
L 757.380589 250.792567 
L 757.380589 251.691005 
L 755.094652 251.691005 
L 755.094652 250.792567 
z
M 760.821996 255.934755 
Q 760.118871 255.934755 759.620433 255.670692 
Q 759.123558 255.40663 758.861058 254.897255 
Q 758.600121 254.386317 758.600121 253.664442 
L 758.600121 253.092567 
Q 758.600121 252.341005 758.851683 251.809755 
Q 759.103246 251.276942 759.581371 250.998817 
Q 760.061058 250.71913 760.734496 250.71913 
Q 761.368871 250.71913 761.817308 251.03788 
Q 762.267308 251.355067 762.503246 251.955067 
Q 762.740746 252.555067 762.740746 253.395692 
L 762.740746 253.726942 
L 759.323558 253.726942 
L 759.323558 252.926942 
L 761.793871 252.926942 
L 761.793871 252.926942 
Q 761.750121 252.30663 761.473558 251.96288 
Q 761.198558 251.617567 760.734496 251.617567 
Q 760.167308 251.617567 759.857933 251.989442 
Q 759.548558 252.359755 759.548558 253.039442 
L 759.548558 253.683192 
Q 759.548558 254.31288 759.879808 254.65038 
Q 760.212621 254.98788 760.821996 254.98788 
Q 761.125121 254.98788 761.421996 254.866005 
Q 761.720433 254.742567 761.954808 254.523817 
L 761.954808 254.523817 
L 762.609496 255.176942 
L 762.609496 255.176942 
Q 762.232933 255.539442 761.764183 255.73788 
Q 761.295433 255.934755 760.821996 255.934755 
z
M 767.648558 257.389442 
Q 766.779808 256.447255 766.346996 255.278505 
Q 765.915746 254.108192 765.915746 252.697255 
Q 765.915746 251.286317 766.346996 250.117567 
Q 766.779808 248.947255 767.648558 248.005067 
L 768.331371 248.62538 
Q 767.595433 249.445692 767.228246 250.461317 
Q 766.862621 251.476942 766.862621 252.697255 
Q 766.862621 253.917567 767.228246 254.933192 
Q 767.595433 255.948817 768.331371 256.773817 
L 767.648558 257.389442 
z
M 771.676488 252.336317 
L 771.6718 252.511317 
Q 771.549925 252.736317 771.30305 252.841005 
Q 771.056175 252.945692 770.720238 252.945692 
Q 770.212425 252.945692 769.826488 252.68788 
Q 769.44055 252.428505 769.22805 251.958192 
Q 769.01555 251.486317 769.01555 250.866005 
L 769.01555 250.861317 
Q 769.01555 250.172255 769.2468 249.684755 
Q 769.479613 249.195692 769.926488 248.942567 
Q 770.373363 248.68788 770.998363 248.68788 
Q 771.623363 248.68788 772.067113 248.947255 
Q 772.512425 249.20663 772.743675 249.70038 
Q 772.974925 250.192567 772.974925 250.886317 
L 772.974925 250.891005 
Q 772.974925 251.270692 772.876488 251.703505 
Q 772.779613 252.136317 772.599925 252.559755 
Q 772.570238 252.623817 772.54055 252.689442 
Q 772.512425 252.755067 772.47805 252.81913 
L 770.963988 255.861317 
L 769.888988 255.861317 
L 771.676488 252.336317 
z
M 770.998363 252.03788 
Q 771.467113 252.03788 771.723363 251.720692 
Q 771.979613 251.403505 771.979613 250.826942 
L 771.979613 250.822255 
Q 771.979613 250.261317 771.723363 249.953505 
Q 771.467113 249.645692 770.998363 249.645692 
Q 770.524925 249.645692 770.268675 249.953505 
Q 770.012425 250.261317 770.012425 250.826942 
L 770.012425 250.83163 
Q 770.012425 251.408192 770.268675 251.723817 
Q 770.524925 252.03788 770.998363 252.03788 
z
M 776.125511 255.934755 
Q 775.500511 255.934755 775.055199 255.683192 
Q 774.611449 255.43163 774.378636 254.95038 
Q 774.147386 254.46913 774.147386 253.791005 
L 774.147386 253.786317 
Q 774.147386 253.391005 774.239574 252.95663 
Q 774.333324 252.520692 774.508324 252.101942 
Q 774.538011 252.028505 774.572386 251.958192 
Q 774.606761 251.886317 774.641136 251.817567 
L 776.183324 248.761317 
L 777.258324 248.761317 
L 775.445824 252.301942 
L 775.450511 252.12538 
Q 775.573949 251.895692 775.808324 251.76913 
Q 776.042699 251.642567 776.355199 251.642567 
Q 776.906761 251.642567 777.302074 251.892567 
Q 777.697386 252.141005 777.902074 252.617567 
Q 778.106761 253.092567 778.106761 253.761317 
L 778.106761 253.766005 
Q 778.106761 254.45038 777.875511 254.939442 
Q 777.644261 255.426942 777.197386 255.68163 
Q 776.750511 255.934755 776.125511 255.934755 
z
M 776.125511 254.976942 
Q 776.598949 254.976942 776.855199 254.684755 
Q 777.111449 254.391005 777.111449 253.848817 
L 777.111449 253.84413 
Q 777.111449 253.248817 776.842699 252.923817 
Q 776.573949 252.598817 776.075511 252.598817 
Q 775.631761 252.598817 775.388011 252.926942 
Q 775.144261 253.253505 775.144261 253.848817 
L 775.144261 253.855067 
Q 775.144261 254.395692 775.400511 254.686317 
Q 775.656761 254.976942 776.125511 254.976942 
z
M 781.45266 255.934755 
Q 780.455785 255.934755 779.94016 255.403505 
Q 779.426097 254.870692 779.426097 253.917567 
L 779.426097 250.691005 
Q 779.426097 249.733192 779.943285 249.203505 
Q 780.460472 248.673817 781.45266 248.673817 
Q 782.447972 248.673817 782.963597 249.201942 
Q 783.479222 249.728505 783.479222 250.691005 
L 783.479222 253.917567 
Q 783.479222 254.87538 782.960472 255.405067 
Q 782.443285 255.934755 781.45266 255.934755 
z
M 781.45266 254.98788 
Q 781.979222 254.98788 782.230785 254.711317 
Q 782.482347 254.434755 782.482347 253.917567 
L 782.482347 250.691005 
Q 782.482347 250.172255 782.232347 249.897255 
Q 781.98391 249.620692 781.45266 249.620692 
Q 780.919847 249.620692 780.669847 249.897255 
Q 780.42141 250.172255 780.42141 250.691005 
L 780.42141 253.917567 
Q 780.42141 254.434755 780.672972 254.711317 
Q 780.924535 254.98788 781.45266 254.98788 
z
M 786.970238 255.934755 
Q 785.973363 255.934755 785.457738 255.403505 
Q 784.943675 254.870692 784.943675 253.917567 
L 784.943675 250.691005 
Q 784.943675 249.733192 785.460863 249.203505 
Q 785.97805 248.673817 786.970238 248.673817 
Q 787.96555 248.673817 788.481175 249.201942 
Q 788.9968 249.728505 788.9968 250.691005 
L 788.9968 253.917567 
Q 788.9968 254.87538 788.47805 255.405067 
Q 787.960863 255.934755 786.970238 255.934755 
z
M 786.970238 254.98788 
Q 787.4968 254.98788 787.748363 254.711317 
Q 787.999925 254.434755 787.999925 253.917567 
L 787.999925 250.691005 
Q 787.999925 250.172255 787.749925 249.897255 
Q 787.501488 249.620692 786.970238 249.620692 
Q 786.437425 249.620692 786.187425 249.897255 
Q 785.938988 250.172255 785.938988 250.691005 
L 785.938988 253.917567 
Q 785.938988 254.434755 786.19055 254.711317 
Q 786.442113 254.98788 786.970238 254.98788 
z
M 789.826878 256.773817 
Q 790.562816 255.948817 790.928441 254.933192 
Q 791.295628 253.917567 791.295628 252.697255 
Q 791.295628 251.476942 790.928441 250.461317 
Q 790.562816 249.445692 789.826878 248.62538 
L 790.509691 248.005067 
Q 791.378441 248.947255 791.809691 250.117567 
Q 792.242503 251.286317 792.242503 252.697255 
Q 792.242503 254.108192 791.809691 255.278505 
Q 791.378441 256.447255 790.509691 257.389442 
L 789.826878 256.773817 
z
" style="fill: #ffffff; stroke: #000000"/>
    <path d="M 726.28098 255.934755 
Q 725.76848 255.934755 725.309105 255.83788 
Q 724.851292 255.739442 724.452855 255.54413 
Q 724.054417 255.348817 723.707542 255.055067 
L 723.707542 255.055067 
L 724.327855 254.29413 
L 724.327855 254.29413 
Q 724.734105 254.645692 725.221605 254.822255 
Q 725.710667 254.997255 726.28098 254.997255 
Q 727.052855 254.997255 727.477855 254.711317 
Q 727.902855 254.42538 727.902855 253.903505 
L 727.902855 253.898817 
Q 727.902855 253.526942 727.709105 253.309755 
Q 727.516917 253.092567 727.210667 252.98788 
Q 726.90598 252.883192 726.423167 252.79413 
Q 726.407542 252.789442 726.390355 252.789442 
Q 726.37473 252.789442 726.359105 252.784755 
L 726.285667 252.770692 
Q 725.573167 252.648817 725.126292 252.495692 
Q 724.679417 252.341005 724.36223 251.933192 
Q 724.045042 251.52538 724.045042 250.773817 
L 724.045042 250.76913 
Q 724.045042 250.109755 724.340355 249.64413 
Q 724.635667 249.176942 725.201292 248.933192 
Q 725.76848 248.68788 726.563792 248.68788 
Q 726.945042 248.68788 727.313792 248.772255 
Q 727.682542 248.855067 728.040355 249.01913 
Q 728.39973 249.18163 728.746605 249.430067 
L 728.746605 249.430067 
L 728.18098 250.222255 
L 728.18098 250.222255 
Q 727.77473 249.923817 727.371605 249.77538 
Q 726.970042 249.62538 726.563792 249.62538 
Q 725.83723 249.62538 725.434105 249.916005 
Q 725.03098 250.20663 725.03098 250.739442 
L 725.03098 250.74413 
Q 725.03098 251.109755 725.238792 251.320692 
Q 725.446605 251.530067 725.75598 251.630067 
Q 726.066917 251.730067 726.61848 251.83788 
Q 726.63723 251.842567 726.654417 251.845692 
Q 726.671605 251.847255 726.691917 251.851942 
Q 726.715355 251.85663 726.745042 251.86288 
Q 726.77473 251.867567 726.798167 251.872255 
Q 727.44348 252.003505 727.87473 252.184755 
Q 728.307542 252.364442 728.598167 252.767567 
Q 728.888792 253.170692 728.888792 253.86913 
L 728.888792 253.878505 
Q 728.888792 254.528505 728.58098 254.989442 
Q 728.273167 255.45038 727.688792 255.692567 
Q 727.10598 255.934755 726.28098 255.934755 
z
M 730.978832 254.914442 
L 732.585082 254.914442 
Q 733.371019 254.914442 733.802269 254.50663 
Q 734.235082 254.098817 734.235082 253.35663 
L 734.235082 251.266005 
Q 734.235082 250.523817 733.802269 250.116005 
Q 733.371019 249.708192 732.585082 249.708192 
L 730.978832 249.708192 
L 730.978832 248.761317 
L 732.555394 248.761317 
Q 733.410082 248.761317 734.014769 249.059755 
Q 734.621019 249.35663 734.938207 249.928505 
Q 735.255394 250.50038 735.255394 251.305067 
L 735.255394 253.317567 
Q 735.255394 254.122255 734.938207 254.69413 
Q 734.621019 255.266005 734.013207 255.564442 
Q 733.405394 255.861317 732.550707 255.861317 
L 730.978832 255.861317 
L 730.978832 254.914442 
z
M 730.305394 248.761317 
L 731.300707 248.761317 
L 731.300707 255.861317 
L 730.305394 255.861317 
L 730.305394 248.761317 
z
M 738.800707 255.934755 
Q 738.156957 255.934755 737.667894 255.691005 
Q 737.180394 255.445692 736.913207 254.998817 
Q 736.647582 254.551942 736.647582 253.961317 
L 736.647582 253.84413 
Q 736.647582 253.31288 736.913207 252.84413 
Q 737.180394 252.37538 737.624144 252.136317 
Q 737.247582 251.930067 737.021019 251.542567 
Q 736.794457 251.153505 736.794457 250.723817 
L 736.794457 250.553505 
Q 736.794457 249.997255 737.042894 249.57538 
Q 737.291332 249.151942 737.746019 248.920692 
Q 738.200707 248.68788 738.800707 248.68788 
Q 739.400707 248.68788 739.855394 248.920692 
Q 740.310082 249.151942 740.558519 249.57538 
Q 740.806957 249.997255 740.806957 250.553505 
L 740.806957 250.723817 
Q 740.806957 251.164442 740.575707 251.55038 
Q 740.344457 251.934755 739.963207 252.136317 
Q 740.411644 252.380067 740.681957 252.847255 
Q 740.953832 253.31288 740.953832 253.84413 
L 740.953832 253.961317 
Q 740.953832 254.551942 740.688207 254.998817 
Q 740.422582 255.445692 739.933519 255.691005 
Q 739.446019 255.934755 738.800707 255.934755 
z
M 738.800707 254.976942 
Q 739.147582 254.976942 739.410082 254.841005 
Q 739.674144 254.703505 739.817894 254.458192 
Q 739.963207 254.211317 739.963207 253.88788 
L 739.963207 253.820692 
Q 739.963207 253.492567 739.817894 253.247255 
Q 739.674144 253.00038 739.410082 252.864442 
Q 739.147582 252.726942 738.800707 252.726942 
Q 738.453832 252.726942 738.189769 252.864442 
Q 737.927269 253.00038 737.781957 253.248817 
Q 737.638207 253.497255 737.638207 253.82538 
L 737.638207 253.898817 
Q 737.638207 254.220692 737.781957 254.464442 
Q 737.927269 254.708192 738.189769 254.842567 
Q 738.453832 254.976942 738.800707 254.976942 
z
M 738.800707 251.76913 
Q 739.099144 251.76913 739.327269 251.641005 
Q 739.556957 251.511317 739.683519 251.272255 
Q 739.811644 251.03163 739.811644 250.71913 
L 739.811644 250.651942 
Q 739.811644 250.353505 739.683519 250.123817 
Q 739.556957 249.89413 739.327269 249.770692 
Q 739.099144 249.645692 738.800707 249.645692 
Q 738.502269 249.645692 738.272582 249.770692 
Q 738.044457 249.89413 737.916332 250.123817 
Q 737.789769 250.353505 737.789769 250.65663 
L 737.789769 250.730067 
Q 737.789769 251.036317 737.916332 251.273817 
Q 738.044457 251.511317 738.272582 251.641005 
Q 738.502269 251.76913 738.800707 251.76913 
z
M 744.201878 248.761317 
L 745.197191 248.761317 
L 745.197191 255.861317 
L 744.201878 255.861317 
L 744.201878 248.761317 
z
M 744.684691 254.914442 
L 748.761253 254.914442 
L 748.761253 255.861317 
L 744.684691 255.861317 
L 744.684691 254.914442 
z
M 744.684691 251.86288 
L 748.225316 251.86288 
L 748.225316 252.809755 
L 744.684691 252.809755 
L 744.684691 251.86288 
z
M 744.684691 248.761317 
L 748.761253 248.761317 
L 748.761253 249.708192 
L 744.684691 249.708192 
L 744.684691 248.761317 
z
M 751.076878 254.551942 
Q 751.076878 254.73788 751.156566 254.83788 
Q 751.237816 254.93788 751.383128 254.93788 
L 751.851878 254.93788 
L 751.851878 255.886317 
L 751.265941 255.886317 
Q 750.700316 255.886317 750.389378 255.534755 
Q 750.080003 255.183192 750.080003 254.542567 
L 750.080003 248.761317 
L 751.076878 248.761317 
L 751.076878 254.551942 
z
M 752.975511 248.761317 
L 753.972386 248.761317 
L 753.972386 249.758192 
L 752.975511 249.758192 
L 752.975511 248.761317 
z
M 752.975511 250.792567 
L 753.972386 250.792567 
L 753.972386 255.861317 
L 752.975511 255.861317 
L 752.975511 250.792567 
z
M 756.804027 255.886317 
Q 756.188402 255.886317 755.902464 255.547255 
Q 755.616527 255.20663 755.616527 254.542567 
L 755.616527 249.317567 
L 756.613402 249.317567 
L 756.613402 254.551942 
Q 756.613402 254.73788 756.686839 254.83788 
Q 756.760277 254.93788 756.900902 254.93788 
L 757.380589 254.93788 
L 757.380589 255.886317 
L 756.804027 255.886317 
z
M 755.094652 250.792567 
L 757.380589 250.792567 
L 757.380589 251.691005 
L 755.094652 251.691005 
L 755.094652 250.792567 
z
M 760.821996 255.934755 
Q 760.118871 255.934755 759.620433 255.670692 
Q 759.123558 255.40663 758.861058 254.897255 
Q 758.600121 254.386317 758.600121 253.664442 
L 758.600121 253.092567 
Q 758.600121 252.341005 758.851683 251.809755 
Q 759.103246 251.276942 759.581371 250.998817 
Q 760.061058 250.71913 760.734496 250.71913 
Q 761.368871 250.71913 761.817308 251.03788 
Q 762.267308 251.355067 762.503246 251.955067 
Q 762.740746 252.555067 762.740746 253.395692 
L 762.740746 253.726942 
L 759.323558 253.726942 
L 759.323558 252.926942 
L 761.793871 252.926942 
L 761.793871 252.926942 
Q 761.750121 252.30663 761.473558 251.96288 
Q 761.198558 251.617567 760.734496 251.617567 
Q 760.167308 251.617567 759.857933 251.989442 
Q 759.548558 252.359755 759.548558 253.039442 
L 759.548558 253.683192 
Q 759.548558 254.31288 759.879808 254.65038 
Q 760.212621 254.98788 760.821996 254.98788 
Q 761.125121 254.98788 761.421996 254.866005 
Q 761.720433 254.742567 761.954808 254.523817 
L 761.954808 254.523817 
L 762.609496 255.176942 
L 762.609496 255.176942 
Q 762.232933 255.539442 761.764183 255.73788 
Q 761.295433 255.934755 760.821996 255.934755 
z
M 767.648558 257.389442 
Q 766.779808 256.447255 766.346996 255.278505 
Q 765.915746 254.108192 765.915746 252.697255 
Q 765.915746 251.286317 766.346996 250.117567 
Q 766.779808 248.947255 767.648558 248.005067 
L 768.331371 248.62538 
Q 767.595433 249.445692 767.228246 250.461317 
Q 766.862621 251.476942 766.862621 252.697255 
Q 766.862621 253.917567 767.228246 254.933192 
Q 767.595433 255.948817 768.331371 256.773817 
L 767.648558 257.389442 
z
M 771.676488 252.336317 
L 771.6718 252.511317 
Q 771.549925 252.736317 771.30305 252.841005 
Q 771.056175 252.945692 770.720238 252.945692 
Q 770.212425 252.945692 769.826488 252.68788 
Q 769.44055 252.428505 769.22805 251.958192 
Q 769.01555 251.486317 769.01555 250.866005 
L 769.01555 250.861317 
Q 769.01555 250.172255 769.2468 249.684755 
Q 769.479613 249.195692 769.926488 248.942567 
Q 770.373363 248.68788 770.998363 248.68788 
Q 771.623363 248.68788 772.067113 248.947255 
Q 772.512425 249.20663 772.743675 249.70038 
Q 772.974925 250.192567 772.974925 250.886317 
L 772.974925 250.891005 
Q 772.974925 251.270692 772.876488 251.703505 
Q 772.779613 252.136317 772.599925 252.559755 
Q 772.570238 252.623817 772.54055 252.689442 
Q 772.512425 252.755067 772.47805 252.81913 
L 770.963988 255.861317 
L 769.888988 255.861317 
L 771.676488 252.336317 
z
M 770.998363 252.03788 
Q 771.467113 252.03788 771.723363 251.720692 
Q 771.979613 251.403505 771.979613 250.826942 
L 771.979613 250.822255 
Q 771.979613 250.261317 771.723363 249.953505 
Q 771.467113 249.645692 770.998363 249.645692 
Q 770.524925 249.645692 770.268675 249.953505 
Q 770.012425 250.261317 770.012425 250.826942 
L 770.012425 250.83163 
Q 770.012425 251.408192 770.268675 251.723817 
Q 770.524925 252.03788 770.998363 252.03788 
z
M 776.125511 255.934755 
Q 775.500511 255.934755 775.055199 255.683192 
Q 774.611449 255.43163 774.378636 254.95038 
Q 774.147386 254.46913 774.147386 253.791005 
L 774.147386 253.786317 
Q 774.147386 253.391005 774.239574 252.95663 
Q 774.333324 252.520692 774.508324 252.101942 
Q 774.538011 252.028505 774.572386 251.958192 
Q 774.606761 251.886317 774.641136 251.817567 
L 776.183324 248.761317 
L 777.258324 248.761317 
L 775.445824 252.301942 
L 775.450511 252.12538 
Q 775.573949 251.895692 775.808324 251.76913 
Q 776.042699 251.642567 776.355199 251.642567 
Q 776.906761 251.642567 777.302074 251.892567 
Q 777.697386 252.141005 777.902074 252.617567 
Q 778.106761 253.092567 778.106761 253.761317 
L 778.106761 253.766005 
Q 778.106761 254.45038 777.875511 254.939442 
Q 777.644261 255.426942 777.197386 255.68163 
Q 776.750511 255.934755 776.125511 255.934755 
z
M 776.125511 254.976942 
Q 776.598949 254.976942 776.855199 254.684755 
Q 777.111449 254.391005 777.111449 253.848817 
L 777.111449 253.84413 
Q 777.111449 253.248817 776.842699 252.923817 
Q 776.573949 252.598817 776.075511 252.598817 
Q 775.631761 252.598817 775.388011 252.926942 
Q 775.144261 253.253505 775.144261 253.848817 
L 775.144261 253.855067 
Q 775.144261 254.395692 775.400511 254.686317 
Q 775.656761 254.976942 776.125511 254.976942 
z
M 781.45266 255.934755 
Q 780.455785 255.934755 779.94016 255.403505 
Q 779.426097 254.870692 779.426097 253.917567 
L 779.426097 250.691005 
Q 779.426097 249.733192 779.943285 249.203505 
Q 780.460472 248.673817 781.45266 248.673817 
Q 782.447972 248.673817 782.963597 249.201942 
Q 783.479222 249.728505 783.479222 250.691005 
L 783.479222 253.917567 
Q 783.479222 254.87538 782.960472 255.405067 
Q 782.443285 255.934755 781.45266 255.934755 
z
M 781.45266 254.98788 
Q 781.979222 254.98788 782.230785 254.711317 
Q 782.482347 254.434755 782.482347 253.917567 
L 782.482347 250.691005 
Q 782.482347 250.172255 782.232347 249.897255 
Q 781.98391 249.620692 781.45266 249.620692 
Q 780.919847 249.620692 780.669847 249.897255 
Q 780.42141 250.172255 780.42141 250.691005 
L 780.42141 253.917567 
Q 780.42141 254.434755 780.672972 254.711317 
Q 780.924535 254.98788 781.45266 254.98788 
z
M 786.970238 255.934755 
Q 785.973363 255.934755 785.457738 255.403505 
Q 784.943675 254.870692 784.943675 253.917567 
L 784.943675 250.691005 
Q 784.943675 249.733192 785.460863 249.203505 
Q 785.97805 248.673817 786.970238 248.673817 
Q 787.96555 248.673817 788.481175 249.201942 
Q 788.9968 249.728505 788.9968 250.691005 
L 788.9968 253.917567 
Q 788.9968 254.87538 788.47805 255.405067 
Q 787.960863 255.934755 786.970238 255.934755 
z
M 786.970238 254.98788 
Q 787.4968 254.98788 787.748363 254.711317 
Q 787.999925 254.434755 787.999925 253.917567 
L 787.999925 250.691005 
Q 787.999925 250.172255 787.749925 249.897255 
Q 787.501488 249.620692 786.970238 249.620692 
Q 786.437425 249.620692 786.187425 249.897255 
Q 785.938988 250.172255 785.938988 250.691005 
L 785.938988 253.917567 
Q 785.938988 254.434755 786.19055 254.711317 
Q 786.442113 254.98788 786.970238 254.98788 
z
M 789.826878 256.773817 
Q 790.562816 255.948817 790.928441 254.933192 
Q 791.295628 253.917567 791.295628 252.697255 
Q 791.295628 251.476942 790.928441 250.461317 
Q 790.562816 249.445692 789.826878 248.62538 
L 790.509691 248.005067 
Q 791.378441 248.947255 791.809691 250.117567 
Q 792.242503 251.286317 792.242503 252.697255 
Q 792.242503 254.108192 791.809691 255.278505 
Q 791.378441 256.447255 790.509691 257.389442 
L 789.826878 256.773817 
z
" style="fill: #ffffff"/>
   </g>
  </g>
 </g>
 <defs>
  <clipPath id="p4fc30db9d4">
   <rect x="144" y="77.76" width="892.8" height="498.96"/>
  </clipPath>
 </defs>
</svg>
