<?xml version="1.0" encoding="utf-8" standalone="no"?>
<!DOCTYPE svg PUBLIC "-//W3C//DTD SVG 1.1//EN"
  "http://www.w3.org/Graphics/SVG/1.1/DTD/svg11.dtd">
<svg xmlns:xlink="http://www.w3.org/1999/xlink" width="1152pt" height="648pt" viewBox="0 0 1152 648" xmlns="http://www.w3.org/2000/svg" version="1.1">
 <metadata>
  <rdf:RDF xmlns:dc="http://purl.org/dc/elements/1.1/" xmlns:cc="http://creativecommons.org/ns#" xmlns:rdf="http://www.w3.org/1999/02/22-rdf-syntax-ns#">
   <cc:Work>
    <dc:type rdf:resource="http://purl.org/dc/dcmitype/StillImage"/>
    <dc:date>2025-09-19T13:51:42.704448</dc:date>
    <dc:format>image/svg+xml</dc:format>
    <dc:creator>
     <cc:Agent>
      <dc:title>Matplotlib v3.10.3, https://matplotlib.org/</dc:title>
     </cc:Agent>
    </dc:creator>
   </cc:Work>
  </rdf:RDF>
 </metadata>
 <defs>
  <style type="text/css">*{stroke-linejoin: round; stroke-linecap: butt}</style>
 </defs>
 <g id="figure_1">
  <g id="patch_1">
   <path d="M 0 648 
L 1152 648 
L 1152 0 
L 0 0 
L 0 648 
z
" style="fill: none"/>
  </g>
  <g id="axes_1">
   <g id="line2d_1">
    <path d="M 244.688 501.525081 
L 249.031758 498.364973 
L 253.375515 495.232944 
L 257.719273 492.129528 
L 262.06303 489.055229 
L 266.406788 486.010526 
L 270.750545 482.995874 
L 275.094303 480.011698 
L 279.438061 477.058399 
L 283.781818 474.136351 
L 288.125576 471.245903 
L 292.469333 468.387378 
L 296.813091 465.561071 
L 301.156848 462.767255 
L 305.500606 460.006177 
L 309.844364 457.278058 
L 314.188121 454.583096 
L 318.531879 451.921465 
L 322.875636 449.293315 
L 327.219394 446.698774 
L 331.563152 444.137944 
L 335.906909 441.61091 
L 340.250667 439.11773 
L 344.594424 436.658445 
L 348.938182 434.233074 
L 353.281939 431.841614 
L 357.625697 429.484046 
L 361.969455 427.160329 
L 366.313212 424.870405 
L 370.65697 422.614198 
L 375.000727 420.391615 
L 379.344485 418.202545 
L 383.688242 416.046863 
L 388.032 413.924428 
L 392.375758 411.835082 
L 396.719515 409.778657 
L 401.063273 407.754967 
L 405.40703 405.763815 
L 409.750788 403.804993 
L 414.094545 401.878277 
L 418.438303 399.983437 
L 422.782061 398.120227 
L 427.125818 396.288395 
L 431.469576 394.487677 
L 435.813333 392.717802 
L 440.157091 390.978487 
L 444.500848 389.269445 
L 448.844606 387.59038 
L 453.188364 385.940987 
L 457.532121 384.320959 
L 461.875879 382.729978 
L 466.219636 381.167725 
L 470.563394 379.633872 
L 474.907152 378.12809 
L 479.250909 376.650044 
L 483.594667 375.199395 
L 487.938424 373.775801 
L 492.282182 372.378918 
L 496.625939 371.008398 
L 500.969697 369.663892 
L 505.313455 368.345049 
L 509.657212 367.051516 
L 514.00097 365.78294 
L 518.344727 364.538965 
L 522.688485 363.319236 
L 527.032242 362.123399 
L 531.376 360.951098 
L 535.719758 359.801978 
L 540.063515 358.675684 
L 544.407273 357.571864 
L 548.75103 356.490164 
L 553.094788 355.430235 
L 557.438545 354.391725 
L 561.782303 353.374287 
L 566.126061 352.377576 
L 570.469818 351.401246 
L 574.813576 350.444957 
L 579.157333 349.508369 
L 583.501091 348.591146 
L 587.844848 347.692952 
L 592.188606 346.813457 
L 596.532364 345.952333 
L 600.876121 345.109253 
L 605.219879 344.283897 
L 609.563636 343.475944 
L 613.907394 342.685079 
L 618.251152 341.910991 
L 622.594909 341.15337 
L 626.938667 340.411912 
L 631.282424 339.686314 
L 635.626182 338.976278 
L 639.969939 338.281512 
L 644.313697 337.601724 
L 648.657455 336.936628 
L 653.001212 336.28594 
L 657.34497 335.649383 
L 661.688727 335.026681 
L 666.032485 334.417563 
L 670.376242 333.821763 
L 674.72 333.239015 
" clip-path="url(#p4ac0b72ec3)" style="fill: none; stroke: #30b1f2; stroke-width: 3; stroke-linecap: round"/>
   </g>
   <g id="text_1">
    <path d="M 681.492167 327.785583 
L 682.48748 327.785583 
L 682.48748 334.885583 
L 681.492167 334.885583 
L 681.492167 327.785583 
z
M 681.97498 333.938708 
L 686.051542 333.938708 
L 686.051542 334.885583 
L 681.97498 334.885583 
L 681.97498 333.938708 
z
M 681.97498 330.887146 
L 685.515605 330.887146 
L 685.515605 331.834021 
L 681.97498 331.834021 
L 681.97498 330.887146 
z
M 681.97498 327.785583 
L 686.051542 327.785583 
L 686.051542 328.732458 
L 681.97498 328.732458 
L 681.97498 327.785583 
z
M 687.214042 334.021521 
L 689.689042 330.719958 
Q 689.904667 330.437146 690.023417 330.132458 
Q 690.14373 329.826208 690.14373 329.563708 
L 690.14373 329.552771 
Q 690.14373 329.129333 689.89373 328.894958 
Q 689.645292 328.660583 689.18748 328.660583 
Q 688.751542 328.660583 688.482792 328.916833 
Q 688.215605 329.173083 688.15623 329.641833 
L 688.15623 329.646521 
L 687.126542 329.646521 
L 687.126542 329.641833 
Q 687.214042 329.030896 687.484355 328.599646 
Q 687.75623 328.166833 688.185917 327.940271 
Q 688.615605 327.712146 689.176542 327.712146 
Q 689.81248 327.712146 690.260917 327.929333 
Q 690.710917 328.146521 690.945292 328.562146 
Q 691.179667 328.977771 691.179667 329.563708 
L 691.179667 329.568396 
Q 691.179667 329.943396 691.023417 330.354333 
Q 690.867167 330.763708 690.58748 331.144958 
L 688.532792 333.938708 
L 691.21873 333.938708 
L 691.21873 334.885583 
L 687.214042 334.885583 
L 687.214042 334.021521 
z
M 692.389433 332.932458 
L 694.772246 327.790271 
L 695.798808 327.790271 
L 693.473808 332.873083 
L 696.955058 332.873083 
L 696.955058 333.796521 
L 692.389433 333.796521 
L 692.389433 332.932458 
z
M 695.451933 330.710583 
L 696.423808 330.710583 
L 696.423808 334.890271 
L 695.451933 334.890271 
L 695.451933 330.710583 
z
M 700.20291 334.959021 
Q 699.206035 334.959021 698.69041 334.427771 
Q 698.176347 333.894958 698.176347 332.941833 
L 698.176347 329.715271 
Q 698.176347 328.757458 698.693535 328.227771 
Q 699.210722 327.698083 700.20291 327.698083 
Q 701.198222 327.698083 701.713847 328.226208 
Q 702.229472 328.752771 702.229472 329.715271 
L 702.229472 332.941833 
Q 702.229472 333.899646 701.710722 334.429333 
Q 701.193535 334.959021 700.20291 334.959021 
z
M 700.20291 334.012146 
Q 700.729472 334.012146 700.981035 333.735583 
Q 701.232597 333.459021 701.232597 332.941833 
L 701.232597 329.715271 
Q 701.232597 329.196521 700.982597 328.921521 
Q 700.73416 328.644958 700.20291 328.644958 
Q 699.670097 328.644958 699.420097 328.921521 
Q 699.17166 329.196521 699.17166 329.715271 
L 699.17166 332.941833 
Q 699.17166 333.459021 699.423222 333.735583 
Q 699.674785 334.012146 700.20291 334.012146 
z
M 705.720488 334.959021 
Q 704.723613 334.959021 704.207988 334.427771 
Q 703.693925 333.894958 703.693925 332.941833 
L 703.693925 329.715271 
Q 703.693925 328.757458 704.211113 328.227771 
Q 704.7283 327.698083 705.720488 327.698083 
Q 706.7158 327.698083 707.231425 328.226208 
Q 707.74705 328.752771 707.74705 329.715271 
L 707.74705 332.941833 
Q 707.74705 333.899646 707.2283 334.429333 
Q 706.711113 334.959021 705.720488 334.959021 
z
M 705.720488 334.012146 
Q 706.24705 334.012146 706.498613 333.735583 
Q 706.750175 333.459021 706.750175 332.941833 
L 706.750175 329.715271 
Q 706.750175 329.196521 706.500175 328.921521 
Q 706.251738 328.644958 705.720488 328.644958 
Q 705.187675 328.644958 704.937675 328.921521 
Q 704.689238 329.196521 704.689238 329.715271 
L 704.689238 332.941833 
Q 704.689238 333.459021 704.9408 333.735583 
Q 705.192363 334.012146 705.720488 334.012146 
z
" style="fill: #ffffff; stroke: #000000"/>
    <path d="M 681.492167 327.785583 
L 682.48748 327.785583 
L 682.48748 334.885583 
L 681.492167 334.885583 
L 681.492167 327.785583 
z
M 681.97498 333.938708 
L 686.051542 333.938708 
L 686.051542 334.885583 
L 681.97498 334.885583 
L 681.97498 333.938708 
z
M 681.97498 330.887146 
L 685.515605 330.887146 
L 685.515605 331.834021 
L 681.97498 331.834021 
L 681.97498 330.887146 
z
M 681.97498 327.785583 
L 686.051542 327.785583 
L 686.051542 328.732458 
L 681.97498 328.732458 
L 681.97498 327.785583 
z
M 687.214042 334.021521 
L 689.689042 330.719958 
Q 689.904667 330.437146 690.023417 330.132458 
Q 690.14373 329.826208 690.14373 329.563708 
L 690.14373 329.552771 
Q 690.14373 329.129333 689.89373 328.894958 
Q 689.645292 328.660583 689.18748 328.660583 
Q 688.751542 328.660583 688.482792 328.916833 
Q 688.215605 329.173083 688.15623 329.641833 
L 688.15623 329.646521 
L 687.126542 329.646521 
L 687.126542 329.641833 
Q 687.214042 329.030896 687.484355 328.599646 
Q 687.75623 328.166833 688.185917 327.940271 
Q 688.615605 327.712146 689.176542 327.712146 
Q 689.81248 327.712146 690.260917 327.929333 
Q 690.710917 328.146521 690.945292 328.562146 
Q 691.179667 328.977771 691.179667 329.563708 
L 691.179667 329.568396 
Q 691.179667 329.943396 691.023417 330.354333 
Q 690.867167 330.763708 690.58748 331.144958 
L 688.532792 333.938708 
L 691.21873 333.938708 
L 691.21873 334.885583 
L 687.214042 334.885583 
L 687.214042 334.021521 
z
M 692.389433 332.932458 
L 694.772246 327.790271 
L 695.798808 327.790271 
L 693.473808 332.873083 
L 696.955058 332.873083 
L 696.955058 333.796521 
L 692.389433 333.796521 
L 692.389433 332.932458 
z
M 695.451933 330.710583 
L 696.423808 330.710583 
L 696.423808 334.890271 
L 695.451933 334.890271 
L 695.451933 330.710583 
z
M 700.20291 334.959021 
Q 699.206035 334.959021 698.69041 334.427771 
Q 698.176347 333.894958 698.176347 332.941833 
L 698.176347 329.715271 
Q 698.176347 328.757458 698.693535 328.227771 
Q 699.210722 327.698083 700.20291 327.698083 
Q 701.198222 327.698083 701.713847 328.226208 
Q 702.229472 328.752771 702.229472 329.715271 
L 702.229472 332.941833 
Q 702.229472 333.899646 701.710722 334.429333 
Q 701.193535 334.959021 700.20291 334.959021 
z
M 700.20291 334.012146 
Q 700.729472 334.012146 700.981035 333.735583 
Q 701.232597 333.459021 701.232597 332.941833 
L 701.232597 329.715271 
Q 701.232597 329.196521 700.982597 328.921521 
Q 700.73416 328.644958 700.20291 328.644958 
Q 699.670097 328.644958 699.420097 328.921521 
Q 699.17166 329.196521 699.17166 329.715271 
L 699.17166 332.941833 
Q 699.17166 333.459021 699.423222 333.735583 
Q 699.674785 334.012146 700.20291 334.012146 
z
M 705.720488 334.959021 
Q 704.723613 334.959021 704.207988 334.427771 
Q 703.693925 333.894958 703.693925 332.941833 
L 703.693925 329.715271 
Q 703.693925 328.757458 704.211113 328.227771 
Q 704.7283 327.698083 705.720488 327.698083 
Q 706.7158 327.698083 707.231425 328.226208 
Q 707.74705 328.752771 707.74705 329.715271 
L 707.74705 332.941833 
Q 707.74705 333.899646 707.2283 334.429333 
Q 706.711113 334.959021 705.720488 334.959021 
z
M 705.720488 334.012146 
Q 706.24705 334.012146 706.498613 333.735583 
Q 706.750175 333.459021 706.750175 332.941833 
L 706.750175 329.715271 
Q 706.750175 329.196521 706.500175 328.921521 
Q 706.251738 328.644958 705.720488 328.644958 
Q 705.187675 328.644958 704.937675 328.921521 
Q 704.689238 329.196521 704.689238 329.715271 
L 704.689238 332.941833 
Q 704.689238 333.459021 704.9408 333.735583 
Q 705.192363 334.012146 705.720488 334.012146 
z
" style="fill: #ffffff"/>
   </g>
  </g>
 </g>
 <defs>
  <clipPath id="p4ac0b72ec3">
   <rect x="144" y="77.76" width="892.8" height="498.96"/>
  </clipPath>
 </defs>
</svg>
