<?xml version="1.0" encoding="utf-8" standalone="no"?>
<!DOCTYPE svg PUBLIC "-//W3C//DTD SVG 1.1//EN"
  "http://www.w3.org/Graphics/SVG/1.1/DTD/svg11.dtd">
<svg xmlns:xlink="http://www.w3.org/1999/xlink" width="1152pt" height="648pt" viewBox="0 0 1152 648" xmlns="http://www.w3.org/2000/svg" version="1.1">
 <metadata>
  <rdf:RDF xmlns:dc="http://purl.org/dc/elements/1.1/" xmlns:cc="http://creativecommons.org/ns#" xmlns:rdf="http://www.w3.org/1999/02/22-rdf-syntax-ns#">
   <cc:Work>
    <dc:type rdf:resource="http://purl.org/dc/dcmitype/StillImage"/>
    <dc:date>2025-09-19T13:51:42.543478</dc:date>
    <dc:format>image/svg+xml</dc:format>
    <dc:creator>
     <cc:Agent>
      <dc:title>Matplotlib v3.10.3, https://matplotlib.org/</dc:title>
     </cc:Agent>
    </dc:creator>
   </cc:Work>
  </rdf:RDF>
 </metadata>
 <defs>
  <style type="text/css">*{stroke-linejoin: round; stroke-linecap: butt}</style>
 </defs>
 <g id="figure_1">
  <g id="patch_1">
   <path d="M 0 648 
L 1152 648 
L 1152 0 
L 0 0 
L 0 648 
z
" style="fill: none"/>
  </g>
  <g id="axes_1">
   <g id="line2d_1">
    <path d="M 194.592 555.310578 
L 196.786424 554.396443 
L 198.980848 553.482413 
L 201.175273 552.568591 
L 203.369697 551.655081 
L 205.564121 550.741988 
L 207.758545 549.829414 
L 209.95297 548.917464 
L 212.147394 548.00624 
L 214.341818 547.095846 
L 216.536242 546.186383 
L 218.730667 545.277955 
L 220.925091 544.370662 
L 223.119515 543.464605 
L 225.313939 542.559886 
L 227.508364 541.656603 
L 229.702788 540.754857 
L 231.897212 539.854746 
L 234.091636 538.956367 
L 236.286061 538.059818 
L 238.480485 537.165196 
L 240.674909 536.272594 
L 242.869333 535.382109 
L 245.063758 534.493833 
L 247.258182 533.60786 
L 249.452606 532.72428 
L 251.64703 531.843185 
L 253.841455 530.964664 
L 256.035879 530.088805 
L 258.230303 529.215696 
L 260.424727 528.345422 
L 262.619152 527.47807 
L 264.813576 526.613721 
L 267.008 525.75246 
L 269.202424 524.894366 
L 271.396848 524.03952 
L 273.591273 523.188 
L 275.785697 522.339883 
L 277.980121 521.495245 
L 280.174545 520.65416 
L 282.36897 519.816702 
L 284.563394 518.98294 
L 286.757818 518.152947 
L 288.952242 517.326789 
L 291.146667 516.504534 
L 293.341091 515.686248 
L 295.535515 514.871993 
L 297.729939 514.061834 
L 299.924364 513.25583 
L 302.118788 512.45404 
L 304.313212 511.656523 
L 306.507636 510.863334 
L 308.702061 510.074529 
L 310.896485 509.290159 
L 313.090909 508.510277 
L 315.285333 507.734931 
L 317.479758 506.964171 
L 319.674182 506.198042 
L 321.868606 505.436589 
L 324.06303 504.679857 
L 326.257455 503.927886 
L 328.451879 503.180716 
L 330.646303 502.438386 
L 332.840727 501.700934 
L 335.035152 500.968393 
L 337.229576 500.240799 
L 339.424 499.518183 
L 341.618424 498.800575 
L 343.812848 498.088005 
L 346.007273 497.380501 
L 348.201697 496.678087 
L 350.396121 495.98079 
L 352.590545 495.28863 
L 354.78497 494.601631 
L 356.979394 493.919812 
L 359.173818 493.243191 
L 361.368242 492.571785 
L 363.562667 491.90561 
L 365.757091 491.244681 
L 367.951515 490.589009 
L 370.145939 489.938606 
L 372.340364 489.293482 
L 374.534788 488.653646 
L 376.729212 488.019105 
L 378.923636 487.389865 
L 381.118061 486.765931 
L 383.312485 486.147305 
L 385.506909 485.533991 
L 387.701333 484.925989 
L 389.895758 484.323298 
L 392.090182 483.725918 
L 394.284606 483.133845 
L 396.47903 482.547076 
L 398.673455 481.965605 
L 400.867879 481.389427 
L 403.062303 480.818535 
L 405.256727 480.252919 
L 407.451152 479.692572 
L 409.645576 479.137482 
L 411.84 478.587639 
" clip-path="url(#pba5ef08f1c)" style="fill: none; stroke: #f2ca79; stroke-width: 3; stroke-linecap: round"/>
   </g>
   <g id="text_1">
    <path d="M 419.285605 479.287332 
L 420.891855 479.287332 
Q 421.677793 479.287332 422.109042 478.879519 
Q 422.541855 478.471707 422.541855 477.729519 
L 422.541855 475.638894 
Q 422.541855 474.896707 422.109042 474.488894 
Q 421.677793 474.081082 420.891855 474.081082 
L 419.285605 474.081082 
L 419.285605 473.134207 
L 420.862167 473.134207 
Q 421.716855 473.134207 422.321543 473.432644 
Q 422.927793 473.729519 423.24498 474.301394 
Q 423.562167 474.873269 423.562167 475.677957 
L 423.562167 477.690457 
Q 423.562167 478.495144 423.24498 479.067019 
Q 422.927793 479.638894 422.31998 479.937332 
Q 421.712168 480.234207 420.85748 480.234207 
L 419.285605 480.234207 
L 419.285605 479.287332 
z
M 418.612167 473.134207 
L 419.60748 473.134207 
L 419.60748 480.234207 
L 418.612167 480.234207 
L 418.612167 473.134207 
z
M 427.541855 476.709207 
L 427.537168 476.884207 
Q 427.415293 477.109207 427.168418 477.213894 
Q 426.921542 477.318582 426.585605 477.318582 
Q 426.077792 477.318582 425.691855 477.060769 
Q 425.305918 476.801394 425.093417 476.331082 
Q 424.880918 475.859207 424.880918 475.238894 
L 424.880918 475.234207 
Q 424.880918 474.545144 425.112167 474.057644 
Q 425.34498 473.568582 425.791855 473.315457 
Q 426.23873 473.060769 426.86373 473.060769 
Q 427.48873 473.060769 427.93248 473.320144 
Q 428.377792 473.579519 428.609042 474.073269 
Q 428.840293 474.565457 428.840293 475.259207 
L 428.840293 475.263894 
Q 428.840293 475.643582 428.741855 476.076394 
Q 428.64498 476.509207 428.465293 476.932644 
Q 428.435605 476.996707 428.405917 477.062332 
Q 428.377792 477.127957 428.343417 477.192019 
L 426.829355 480.234207 
L 425.754355 480.234207 
L 427.541855 476.709207 
z
M 426.86373 476.410769 
Q 427.33248 476.410769 427.58873 476.093582 
Q 427.84498 475.776394 427.84498 475.199832 
L 427.84498 475.195144 
Q 427.84498 474.634207 427.58873 474.326394 
Q 427.33248 474.018582 426.86373 474.018582 
Q 426.390292 474.018582 426.134043 474.326394 
Q 425.877792 474.634207 425.877792 475.199832 
L 425.877792 475.204519 
Q 425.877792 475.781082 426.134043 476.096707 
Q 426.390292 476.410769 426.86373 476.410769 
z
M 432.186191 480.307644 
Q 431.189316 480.307644 430.673691 479.776394 
Q 430.159628 479.243582 430.159628 478.290457 
L 430.159628 475.063894 
Q 430.159628 474.106082 430.676816 473.576394 
Q 431.194003 473.046707 432.186191 473.046707 
Q 433.181503 473.046707 433.697128 473.574832 
Q 434.212753 474.101394 434.212753 475.063894 
L 434.212753 478.290457 
Q 434.212753 479.248269 433.694003 479.777957 
Q 433.176816 480.307644 432.186191 480.307644 
z
M 432.186191 479.360769 
Q 432.712753 479.360769 432.964316 479.084207 
Q 433.215878 478.807644 433.215878 478.290457 
L 433.215878 475.063894 
Q 433.215878 474.545144 432.965878 474.270144 
Q 432.717441 473.993582 432.186191 473.993582 
Q 431.653378 473.993582 431.403378 474.270144 
Q 431.154941 474.545144 431.154941 475.063894 
L 431.154941 478.290457 
Q 431.154941 478.807644 431.406503 479.084207 
Q 431.658066 479.360769 432.186191 479.360769 
z
M 437.703769 480.307644 
Q 436.706894 480.307644 436.191269 479.776394 
Q 435.677207 479.243582 435.677207 478.290457 
L 435.677207 475.063894 
Q 435.677207 474.106082 436.194394 473.576394 
Q 436.711582 473.046707 437.703769 473.046707 
Q 438.699082 473.046707 439.214707 473.574832 
Q 439.730332 474.101394 439.730332 475.063894 
L 439.730332 478.290457 
Q 439.730332 479.248269 439.211582 479.777957 
Q 438.694394 480.307644 437.703769 480.307644 
z
M 437.703769 479.360769 
Q 438.230332 479.360769 438.481894 479.084207 
Q 438.733457 478.807644 438.733457 478.290457 
L 438.733457 475.063894 
Q 438.733457 474.545144 438.483457 474.270144 
Q 438.235019 473.993582 437.703769 473.993582 
Q 437.170957 473.993582 436.920957 474.270144 
Q 436.672519 474.545144 436.672519 475.063894 
L 436.672519 478.290457 
Q 436.672519 478.807644 436.924082 479.084207 
Q 437.175644 479.360769 437.703769 479.360769 
z
M 443.221347 480.307644 
Q 442.224472 480.307644 441.708847 479.776394 
Q 441.194785 479.243582 441.194785 478.290457 
L 441.194785 475.063894 
Q 441.194785 474.106082 441.711972 473.576394 
Q 442.22916 473.046707 443.221347 473.046707 
Q 444.21666 473.046707 444.732285 473.574832 
Q 445.24791 474.101394 445.24791 475.063894 
L 445.24791 478.290457 
Q 445.24791 479.248269 444.72916 479.777957 
Q 444.211972 480.307644 443.221347 480.307644 
z
M 443.221347 479.360769 
Q 443.74791 479.360769 443.999472 479.084207 
Q 444.251035 478.807644 444.251035 478.290457 
L 444.251035 475.063894 
Q 444.251035 474.545144 444.001035 474.270144 
Q 443.752597 473.993582 443.221347 473.993582 
Q 442.688535 473.993582 442.438535 474.270144 
Q 442.190097 474.545144 442.190097 475.063894 
L 442.190097 478.290457 
Q 442.190097 478.807644 442.44166 479.084207 
Q 442.693222 479.360769 443.221347 479.360769 
z
" style="fill: #ffffff; stroke: #000000"/>
    <path d="M 419.285605 479.287332 
L 420.891855 479.287332 
Q 421.677793 479.287332 422.109042 478.879519 
Q 422.541855 478.471707 422.541855 477.729519 
L 422.541855 475.638894 
Q 422.541855 474.896707 422.109042 474.488894 
Q 421.677793 474.081082 420.891855 474.081082 
L 419.285605 474.081082 
L 419.285605 473.134207 
L 420.862167 473.134207 
Q 421.716855 473.134207 422.321543 473.432644 
Q 422.927793 473.729519 423.24498 474.301394 
Q 423.562167 474.873269 423.562167 475.677957 
L 423.562167 477.690457 
Q 423.562167 478.495144 423.24498 479.067019 
Q 422.927793 479.638894 422.31998 479.937332 
Q 421.712168 480.234207 420.85748 480.234207 
L 419.285605 480.234207 
L 419.285605 479.287332 
z
M 418.612167 473.134207 
L 419.60748 473.134207 
L 419.60748 480.234207 
L 418.612167 480.234207 
L 418.612167 473.134207 
z
M 427.541855 476.709207 
L 427.537168 476.884207 
Q 427.415293 477.109207 427.168418 477.213894 
Q 426.921542 477.318582 426.585605 477.318582 
Q 426.077792 477.318582 425.691855 477.060769 
Q 425.305918 476.801394 425.093417 476.331082 
Q 424.880918 475.859207 424.880918 475.238894 
L 424.880918 475.234207 
Q 424.880918 474.545144 425.112167 474.057644 
Q 425.34498 473.568582 425.791855 473.315457 
Q 426.23873 473.060769 426.86373 473.060769 
Q 427.48873 473.060769 427.93248 473.320144 
Q 428.377792 473.579519 428.609042 474.073269 
Q 428.840293 474.565457 428.840293 475.259207 
L 428.840293 475.263894 
Q 428.840293 475.643582 428.741855 476.076394 
Q 428.64498 476.509207 428.465293 476.932644 
Q 428.435605 476.996707 428.405917 477.062332 
Q 428.377792 477.127957 428.343417 477.192019 
L 426.829355 480.234207 
L 425.754355 480.234207 
L 427.541855 476.709207 
z
M 426.86373 476.410769 
Q 427.33248 476.410769 427.58873 476.093582 
Q 427.84498 475.776394 427.84498 475.199832 
L 427.84498 475.195144 
Q 427.84498 474.634207 427.58873 474.326394 
Q 427.33248 474.018582 426.86373 474.018582 
Q 426.390292 474.018582 426.134043 474.326394 
Q 425.877792 474.634207 425.877792 475.199832 
L 425.877792 475.204519 
Q 425.877792 475.781082 426.134043 476.096707 
Q 426.390292 476.410769 426.86373 476.410769 
z
M 432.186191 480.307644 
Q 431.189316 480.307644 430.673691 479.776394 
Q 430.159628 479.243582 430.159628 478.290457 
L 430.159628 475.063894 
Q 430.159628 474.106082 430.676816 473.576394 
Q 431.194003 473.046707 432.186191 473.046707 
Q 433.181503 473.046707 433.697128 473.574832 
Q 434.212753 474.101394 434.212753 475.063894 
L 434.212753 478.290457 
Q 434.212753 479.248269 433.694003 479.777957 
Q 433.176816 480.307644 432.186191 480.307644 
z
M 432.186191 479.360769 
Q 432.712753 479.360769 432.964316 479.084207 
Q 433.215878 478.807644 433.215878 478.290457 
L 433.215878 475.063894 
Q 433.215878 474.545144 432.965878 474.270144 
Q 432.717441 473.993582 432.186191 473.993582 
Q 431.653378 473.993582 431.403378 474.270144 
Q 431.154941 474.545144 431.154941 475.063894 
L 431.154941 478.290457 
Q 431.154941 478.807644 431.406503 479.084207 
Q 431.658066 479.360769 432.186191 479.360769 
z
M 437.703769 480.307644 
Q 436.706894 480.307644 436.191269 479.776394 
Q 435.677207 479.243582 435.677207 478.290457 
L 435.677207 475.063894 
Q 435.677207 474.106082 436.194394 473.576394 
Q 436.711582 473.046707 437.703769 473.046707 
Q 438.699082 473.046707 439.214707 473.574832 
Q 439.730332 474.101394 439.730332 475.063894 
L 439.730332 478.290457 
Q 439.730332 479.248269 439.211582 479.777957 
Q 438.694394 480.307644 437.703769 480.307644 
z
M 437.703769 479.360769 
Q 438.230332 479.360769 438.481894 479.084207 
Q 438.733457 478.807644 438.733457 478.290457 
L 438.733457 475.063894 
Q 438.733457 474.545144 438.483457 474.270144 
Q 438.235019 473.993582 437.703769 473.993582 
Q 437.170957 473.993582 436.920957 474.270144 
Q 436.672519 474.545144 436.672519 475.063894 
L 436.672519 478.290457 
Q 436.672519 478.807644 436.924082 479.084207 
Q 437.175644 479.360769 437.703769 479.360769 
z
M 443.221347 480.307644 
Q 442.224472 480.307644 441.708847 479.776394 
Q 441.194785 479.243582 441.194785 478.290457 
L 441.194785 475.063894 
Q 441.194785 474.106082 441.711972 473.576394 
Q 442.22916 473.046707 443.221347 473.046707 
Q 444.21666 473.046707 444.732285 473.574832 
Q 445.24791 474.101394 445.24791 475.063894 
L 445.24791 478.290457 
Q 445.24791 479.248269 444.72916 479.777957 
Q 444.211972 480.307644 443.221347 480.307644 
z
M 443.221347 479.360769 
Q 443.74791 479.360769 443.999472 479.084207 
Q 444.251035 478.807644 444.251035 478.290457 
L 444.251035 475.063894 
Q 444.251035 474.545144 444.001035 474.270144 
Q 443.752597 473.993582 443.221347 473.993582 
Q 442.688535 473.993582 442.438535 474.270144 
Q 442.190097 474.545144 442.190097 475.063894 
L 442.190097 478.290457 
Q 442.190097 478.807644 442.44166 479.084207 
Q 442.693222 479.360769 443.221347 479.360769 
z
" style="fill: #ffffff"/>
   </g>
  </g>
 </g>
 <defs>
  <clipPath id="pba5ef08f1c">
   <rect x="144" y="77.76" width="892.8" height="498.96"/>
  </clipPath>
 </defs>
</svg>
