<?xml version="1.0" encoding="utf-8" standalone="no"?>
<!DOCTYPE svg PUBLIC "-//W3C//DTD SVG 1.1//EN"
  "http://www.w3.org/Graphics/SVG/1.1/DTD/svg11.dtd">
<svg xmlns:xlink="http://www.w3.org/1999/xlink" width="1152pt" height="648pt" viewBox="0 0 1152 648" xmlns="http://www.w3.org/2000/svg" version="1.1">
 <metadata>
  <rdf:RDF xmlns:dc="http://purl.org/dc/elements/1.1/" xmlns:cc="http://creativecommons.org/ns#" xmlns:rdf="http://www.w3.org/1999/02/22-rdf-syntax-ns#">
   <cc:Work>
    <dc:type rdf:resource="http://purl.org/dc/dcmitype/StillImage"/>
    <dc:date>2024-12-23T18:23:43.968837</dc:date>
    <dc:format>image/svg+xml</dc:format>
    <dc:creator>
     <cc:Agent>
      <dc:title>Matplotlib v3.9.2, https://matplotlib.org/</dc:title>
     </cc:Agent>
    </dc:creator>
   </cc:Work>
  </rdf:RDF>
 </metadata>
 <defs>
  <style type="text/css">*{stroke-linejoin: round; stroke-linecap: butt}</style>
 </defs>
 <g id="figure_1">
  <g id="patch_1">
   <path d="M 0 648 
L 1152 648 
L 1152 0 
L 0 0 
L 0 648 
z
" style="fill: none"/>
  </g>
  <g id="axes_1">
   <g id="line2d_1">
    <path d="M 195.894 531.086173 
L 199.878909 527.837203 
L 203.863818 524.655962 
L 207.848727 521.541042 
L 211.833636 518.491064 
L 215.818545 515.504677 
L 219.803455 512.580558 
L 223.788364 509.717413 
L 227.773273 506.913973 
L 231.758182 504.168995 
L 235.743091 501.481264 
L 239.728 498.849588 
L 243.712909 496.2728 
L 247.697818 493.749759 
L 251.682727 491.279345 
L 255.667636 488.860463 
L 259.652545 486.492041 
L 263.637455 484.173027 
L 267.622364 481.902393 
L 271.607273 479.679131 
L 275.592182 477.502255 
L 279.577091 475.3708 
L 283.562 473.283818 
L 287.546909 471.240383 
L 291.531818 469.239589 
L 295.516727 467.280547 
L 299.501636 465.362386 
L 303.486545 463.484257 
L 307.471455 461.645323 
L 311.456364 459.844769 
L 315.441273 458.081795 
L 319.426182 456.355617 
L 323.411091 454.665468 
L 327.396 453.010598 
L 331.380909 451.390272 
L 335.365818 449.803768 
L 339.350727 448.250383 
L 343.335636 446.729424 
L 347.320545 445.240218 
L 351.305455 443.782101 
L 355.290364 442.354425 
L 359.275273 440.956555 
L 363.260182 439.58787 
L 367.245091 438.247761 
L 371.23 436.935633 
L 375.214909 435.650901 
L 379.199818 434.392994 
L 383.184727 433.161353 
L 387.169636 431.95543 
L 391.154545 430.774688 
L 395.139455 429.618602 
L 399.124364 428.486658 
L 403.109273 427.378352 
L 407.094182 426.29319 
L 411.079091 425.23069 
L 415.064 424.19038 
L 419.048909 423.171795 
L 423.033818 422.174483 
L 427.018727 421.198 
L 431.003636 420.241911 
L 434.988545 419.305791 
L 438.973455 418.389222 
L 442.958364 417.491797 
L 446.943273 416.613117 
L 450.928182 415.752789 
L 454.913091 414.910431 
L 458.898 414.085668 
L 462.882909 413.278133 
L 466.867818 412.487465 
L 470.852727 411.713314 
L 474.837636 410.955333 
L 478.822545 410.213186 
L 482.807455 409.486542 
L 486.792364 408.775077 
L 490.777273 408.078474 
L 494.762182 407.396424 
L 498.747091 406.728622 
L 502.732 406.07477 
L 506.716909 405.434578 
L 510.701818 404.807761 
L 514.686727 404.194038 
L 518.671636 403.593137 
L 522.656545 403.00479 
L 526.641455 402.428734 
L 530.626364 401.864714 
L 534.611273 401.312477 
L 538.596182 400.771778 
L 542.581091 400.242376 
L 546.566 399.724034 
L 550.550909 399.216522 
L 554.535818 398.719614 
L 558.520727 398.233088 
L 562.505636 397.756727 
L 566.490545 397.29032 
L 570.475455 396.833657 
L 574.460364 396.386536 
L 578.445273 395.948758 
L 582.430182 395.520126 
L 586.415091 395.100451 
L 590.4 394.689544 
" clip-path="url(#p1dd4f05659)" style="fill: none; stroke: #79def2; stroke-width: 3; stroke-linecap: round"/>
   </g>
   <g id="text_1">
    <path d="M 599.30498 396.40955 
Q 598.79248 396.40955 598.333105 396.312675 
Q 597.875293 396.214237 597.476855 396.018925 
Q 597.078418 395.823612 596.731543 395.529862 
L 596.731543 395.529862 
L 597.351855 394.768925 
L 597.351855 394.768925 
Q 597.758105 395.120487 598.245605 395.29705 
Q 598.734668 395.47205 599.30498 395.47205 
Q 600.076855 395.47205 600.501855 395.186112 
Q 600.926855 394.900175 600.926855 394.3783 
L 600.926855 394.373612 
Q 600.926855 394.001737 600.733105 393.78455 
Q 600.540918 393.567362 600.234668 393.462675 
Q 599.92998 393.357987 599.447168 393.268925 
Q 599.431543 393.264237 599.414355 393.264237 
Q 599.39873 393.264237 599.383105 393.25955 
L 599.309668 393.245487 
Q 598.597168 393.123612 598.150293 392.970487 
Q 597.703418 392.8158 597.38623 392.407987 
Q 597.069043 392.000175 597.069043 391.248612 
L 597.069043 391.243925 
Q 597.069043 390.58455 597.364355 390.118925 
Q 597.659668 389.651737 598.225293 389.407987 
Q 598.79248 389.162675 599.587793 389.162675 
Q 599.969043 389.162675 600.337793 389.24705 
Q 600.706543 389.329862 601.064355 389.493925 
Q 601.42373 389.656425 601.770605 389.904862 
L 601.770605 389.904862 
L 601.20498 390.69705 
L 601.20498 390.69705 
Q 600.79873 390.398612 600.395605 390.250175 
Q 599.994043 390.100175 599.587793 390.100175 
Q 598.86123 390.100175 598.458105 390.3908 
Q 598.05498 390.681425 598.05498 391.214237 
L 598.05498 391.218925 
Q 598.05498 391.58455 598.262793 391.795487 
Q 598.470605 392.004862 598.77998 392.104862 
Q 599.090918 392.204862 599.64248 392.312675 
Q 599.66123 392.317362 599.678418 392.320487 
Q 599.695605 392.32205 599.715918 392.326737 
Q 599.739355 392.331425 599.769043 392.337675 
Q 599.79873 392.342362 599.822168 392.34705 
Q 600.46748 392.4783 600.89873 392.65955 
Q 601.331543 392.839237 601.622168 393.242362 
Q 601.912793 393.645487 601.912793 394.343925 
L 601.912793 394.3533 
Q 601.912793 395.0033 601.60498 395.464237 
Q 601.297168 395.925175 600.712793 396.167362 
Q 600.12998 396.40955 599.30498 396.40955 
z
M 604.002832 395.389237 
L 605.609082 395.389237 
Q 606.395019 395.389237 606.826269 394.981425 
Q 607.259082 394.573612 607.259082 393.831425 
L 607.259082 391.7408 
Q 607.259082 390.998612 606.826269 390.5908 
Q 606.395019 390.182987 605.609082 390.182987 
L 604.002832 390.182987 
L 604.002832 389.236112 
L 605.579394 389.236112 
Q 606.434082 389.236112 607.038769 389.53455 
Q 607.645019 389.831425 607.962207 390.4033 
Q 608.279394 390.975175 608.279394 391.779862 
L 608.279394 393.792362 
Q 608.279394 394.59705 607.962207 395.168925 
Q 607.645019 395.7408 607.037207 396.039237 
Q 606.429394 396.336112 605.574707 396.336112 
L 604.002832 396.336112 
L 604.002832 395.389237 
z
M 603.329394 389.236112 
L 604.324707 389.236112 
L 604.324707 396.336112 
L 603.329394 396.336112 
L 603.329394 389.236112 
z
M 611.824707 396.40955 
Q 611.180957 396.40955 610.691894 396.1658 
Q 610.204394 395.920487 609.937207 395.473612 
Q 609.671582 395.026737 609.671582 394.436112 
L 609.671582 394.318925 
Q 609.671582 393.787675 609.937207 393.318925 
Q 610.204394 392.850175 610.648144 392.611112 
Q 610.271582 392.404862 610.045019 392.017362 
Q 609.818457 391.6283 609.818457 391.198612 
L 609.818457 391.0283 
Q 609.818457 390.47205 610.066894 390.050175 
Q 610.315332 389.626737 610.770019 389.395487 
Q 611.224707 389.162675 611.824707 389.162675 
Q 612.424707 389.162675 612.879394 389.395487 
Q 613.334082 389.626737 613.582519 390.050175 
Q 613.830957 390.47205 613.830957 391.0283 
L 613.830957 391.198612 
Q 613.830957 391.639237 613.599707 392.025175 
Q 613.368457 392.40955 612.987207 392.611112 
Q 613.435644 392.854862 613.705957 393.32205 
Q 613.977832 393.787675 613.977832 394.318925 
L 613.977832 394.436112 
Q 613.977832 395.026737 613.712207 395.473612 
Q 613.446582 395.920487 612.957519 396.1658 
Q 612.470019 396.40955 611.824707 396.40955 
z
M 611.824707 395.451737 
Q 612.171582 395.451737 612.434082 395.3158 
Q 612.698144 395.1783 612.841894 394.932987 
Q 612.987207 394.686112 612.987207 394.362675 
L 612.987207 394.295487 
Q 612.987207 393.967362 612.841894 393.72205 
Q 612.698144 393.475175 612.434082 393.339237 
Q 612.171582 393.201737 611.824707 393.201737 
Q 611.477832 393.201737 611.213769 393.339237 
Q 610.951269 393.475175 610.805957 393.723612 
Q 610.662207 393.97205 610.662207 394.300175 
L 610.662207 394.373612 
Q 610.662207 394.695487 610.805957 394.939237 
Q 610.951269 395.182987 611.213769 395.317362 
Q 611.477832 395.451737 611.824707 395.451737 
z
M 611.824707 392.243925 
Q 612.123144 392.243925 612.351269 392.1158 
Q 612.580957 391.986112 612.707519 391.74705 
Q 612.835644 391.506425 612.835644 391.193925 
L 612.835644 391.126737 
Q 612.835644 390.8283 612.707519 390.598612 
Q 612.580957 390.368925 612.351269 390.245487 
Q 612.123144 390.120487 611.824707 390.120487 
Q 611.526269 390.120487 611.296582 390.245487 
Q 611.068457 390.368925 610.940332 390.598612 
Q 610.813769 390.8283 610.813769 391.131425 
L 610.813769 391.204862 
Q 610.813769 391.511112 610.940332 391.748612 
Q 611.068457 391.986112 611.296582 392.1158 
Q 611.526269 392.243925 611.824707 392.243925 
z
M 617.649707 396.40955 
Q 617.137207 396.40955 616.677832 396.312675 
Q 616.220019 396.214237 615.821582 396.018925 
Q 615.423144 395.823612 615.076269 395.529862 
L 615.076269 395.529862 
L 615.696582 394.768925 
L 615.696582 394.768925 
Q 616.102832 395.120487 616.590332 395.29705 
Q 617.079394 395.47205 617.649707 395.47205 
Q 618.421582 395.47205 618.846582 395.186112 
Q 619.271582 394.900175 619.271582 394.3783 
L 619.271582 394.373612 
Q 619.271582 394.001737 619.077832 393.78455 
Q 618.885644 393.567362 618.579394 393.462675 
Q 618.274707 393.357987 617.791894 393.268925 
Q 617.776269 393.264237 617.759082 393.264237 
Q 617.743457 393.264237 617.727832 393.25955 
L 617.654394 393.245487 
Q 616.941894 393.123612 616.495019 392.970487 
Q 616.048144 392.8158 615.730957 392.407987 
Q 615.413769 392.000175 615.413769 391.248612 
L 615.413769 391.243925 
Q 615.413769 390.58455 615.709082 390.118925 
Q 616.004394 389.651737 616.570019 389.407987 
Q 617.137207 389.162675 617.932519 389.162675 
Q 618.313769 389.162675 618.682519 389.24705 
Q 619.051269 389.329862 619.409082 389.493925 
Q 619.768457 389.656425 620.115332 389.904862 
L 620.115332 389.904862 
L 619.549707 390.69705 
L 619.549707 390.69705 
Q 619.143457 390.398612 618.740332 390.250175 
Q 618.338769 390.100175 617.932519 390.100175 
Q 617.205957 390.100175 616.802832 390.3908 
Q 616.399707 390.681425 616.399707 391.214237 
L 616.399707 391.218925 
Q 616.399707 391.58455 616.607519 391.795487 
Q 616.815332 392.004862 617.124707 392.104862 
Q 617.435644 392.204862 617.987207 392.312675 
Q 618.005957 392.317362 618.023144 392.320487 
Q 618.040332 392.32205 618.060644 392.326737 
Q 618.084082 392.331425 618.113769 392.337675 
Q 618.143457 392.342362 618.166894 392.34705 
Q 618.812207 392.4783 619.243457 392.65955 
Q 619.676269 392.839237 619.966894 393.242362 
Q 620.257519 393.645487 620.257519 394.343925 
L 620.257519 394.3533 
Q 620.257519 395.0033 619.949707 395.464237 
Q 619.641894 395.925175 619.057519 396.167362 
Q 618.474707 396.40955 617.649707 396.40955 
z
M 628.23623 392.512675 
L 628.23623 393.7533 
Q 628.23623 394.543925 627.928418 395.14705 
Q 627.620605 395.750175 627.056543 396.079862 
Q 626.49248 396.40955 625.750293 396.40955 
Q 624.99873 396.40955 624.42998 396.100175 
Q 623.86123 395.789237 623.54873 395.223612 
Q 623.23623 394.656425 623.23623 393.90955 
L 623.23623 391.814237 
Q 623.23623 391.023612 623.544043 390.423612 
Q 623.851855 389.82205 624.414355 389.492362 
Q 624.978418 389.162675 625.720605 389.162675 
Q 626.331543 389.162675 626.845605 389.425175 
Q 627.36123 389.686112 627.708105 390.164237 
Q 628.05498 390.642362 628.176855 391.27205 
L 628.176855 391.27205 
L 627.09873 391.27205 
L 627.09873 391.27205 
Q 627.009668 390.9158 626.800293 390.65955 
Q 626.590918 390.4033 626.306543 390.268925 
Q 626.02373 390.13455 625.720605 390.13455 
Q 625.281543 390.13455 624.94873 390.345487 
Q 624.61748 390.554862 624.43623 390.932987 
Q 624.256543 391.311112 624.256543 391.814237 
L 624.256543 393.90955 
Q 624.256543 394.368925 624.440918 394.712675 
Q 624.626855 395.056425 624.965918 395.24705 
Q 625.306543 395.437675 625.750293 395.437675 
Q 626.189355 395.437675 626.520605 395.2408 
Q 626.853418 395.042362 627.034668 394.667362 
Q 627.215918 394.2908 627.215918 393.77205 
L 627.215918 393.464237 
L 625.775293 393.464237 
L 625.775293 392.512675 
L 628.23623 392.512675 
z
M 631.824511 396.40955 
Q 631.121386 396.40955 630.622949 396.145487 
Q 630.126074 395.881425 629.863574 395.37205 
Q 629.602636 394.861112 629.602636 394.139237 
L 629.602636 393.567362 
Q 629.602636 392.8158 629.854199 392.28455 
Q 630.105761 391.751737 630.583886 391.473612 
Q 631.063574 391.193925 631.737011 391.193925 
Q 632.371386 391.193925 632.819824 391.512675 
Q 633.269824 391.829862 633.505761 392.429862 
Q 633.743261 393.029862 633.743261 393.870487 
L 633.743261 394.201737 
L 630.326074 394.201737 
L 630.326074 393.401737 
L 632.796386 393.401737 
L 632.796386 393.401737 
Q 632.752636 392.781425 632.476074 392.437675 
Q 632.201074 392.092362 631.737011 392.092362 
Q 631.169824 392.092362 630.860449 392.464237 
Q 630.551074 392.83455 630.551074 393.514237 
L 630.551074 394.157987 
Q 630.551074 394.787675 630.882324 395.125175 
Q 631.215136 395.462675 631.824511 395.462675 
Q 632.127636 395.462675 632.424511 395.3408 
Q 632.722949 395.217362 632.957324 394.998612 
L 632.957324 394.998612 
L 633.612011 395.651737 
L 633.612011 395.651737 
Q 633.235449 396.014237 632.766699 396.212675 
Q 632.297949 396.40955 631.824511 396.40955 
z
M 635.110839 391.267362 
L 636.107714 391.267362 
L 636.107714 396.336112 
L 635.110839 396.336112 
L 635.110839 391.267362 
z
M 638.187402 393.264237 
Q 638.187402 392.7283 637.909277 392.436112 
Q 637.631152 392.142362 637.128027 392.142362 
Q 636.638964 392.142362 636.373339 392.401737 
Q 636.107714 392.65955 636.107714 393.1283 
L 636.004589 392.151737 
Q 636.238964 391.692362 636.617089 391.443925 
Q 636.995214 391.193925 637.454589 391.193925 
Q 638.279589 391.193925 638.731152 391.73455 
Q 639.182714 392.273612 639.182714 393.25955 
L 639.182714 396.336112 
L 638.187402 396.336112 
L 638.187402 393.264237 
z
M 642.484277 396.40955 
Q 641.888964 396.40955 641.434277 396.192362 
Q 640.979589 395.975175 640.703027 395.562675 
Q 640.428027 395.150175 640.354589 394.568925 
L 640.354589 394.568925 
L 641.370214 394.568925 
L 641.370214 394.568925 
Q 641.413964 394.870487 641.560839 395.0658 
Q 641.707714 395.261112 641.938964 395.356425 
Q 642.171777 395.451737 642.484277 395.451737 
Q 642.976464 395.451737 643.249902 395.189237 
Q 643.523339 394.925175 643.523339 394.44705 
L 643.523339 394.231425 
Q 643.523339 393.698612 643.263964 393.40955 
Q 643.006152 393.118925 642.532714 393.118925 
L 642.029589 393.118925 
L 642.029589 392.170487 
L 642.532714 392.170487 
Q 642.948339 392.170487 643.176464 391.92205 
Q 643.406152 391.673612 643.406152 391.218925 
L 643.406152 390.998612 
Q 643.406152 390.579862 643.163964 390.350175 
Q 642.923339 390.120487 642.479589 390.120487 
Q 642.224902 390.120487 642.024902 390.2158 
Q 641.824902 390.311112 641.685839 390.50955 
Q 641.546777 390.706425 641.482714 391.0033 
L 641.482714 391.0033 
L 640.471777 391.0033 
L 640.471777 391.0033 
Q 640.570214 390.423612 640.840527 390.007987 
Q 641.112402 389.592362 641.526464 389.3783 
Q 641.942089 389.162675 642.479589 389.162675 
Q 643.396777 389.162675 643.899902 389.64705 
Q 644.403027 390.129862 644.403027 391.00955 
L 644.403027 391.126737 
Q 644.403027 391.657987 644.113964 392.0533 
Q 643.826464 392.448612 643.299902 392.629862 
Q 643.881152 392.756425 644.199902 393.201737 
Q 644.520214 393.645487 644.520214 394.33455 
L 644.520214 394.451737 
Q 644.520214 395.07205 644.281152 395.511112 
Q 644.042089 395.950175 643.584277 396.179862 
Q 643.128027 396.40955 642.484277 396.40955 
z
" style="fill: #ffffff; stroke: #000000"/>
    <path d="M 599.30498 396.40955 
Q 598.79248 396.40955 598.333105 396.312675 
Q 597.875293 396.214237 597.476855 396.018925 
Q 597.078418 395.823612 596.731543 395.529862 
L 596.731543 395.529862 
L 597.351855 394.768925 
L 597.351855 394.768925 
Q 597.758105 395.120487 598.245605 395.29705 
Q 598.734668 395.47205 599.30498 395.47205 
Q 600.076855 395.47205 600.501855 395.186112 
Q 600.926855 394.900175 600.926855 394.3783 
L 600.926855 394.373612 
Q 600.926855 394.001737 600.733105 393.78455 
Q 600.540918 393.567362 600.234668 393.462675 
Q 599.92998 393.357987 599.447168 393.268925 
Q 599.431543 393.264237 599.414355 393.264237 
Q 599.39873 393.264237 599.383105 393.25955 
L 599.309668 393.245487 
Q 598.597168 393.123612 598.150293 392.970487 
Q 597.703418 392.8158 597.38623 392.407987 
Q 597.069043 392.000175 597.069043 391.248612 
L 597.069043 391.243925 
Q 597.069043 390.58455 597.364355 390.118925 
Q 597.659668 389.651737 598.225293 389.407987 
Q 598.79248 389.162675 599.587793 389.162675 
Q 599.969043 389.162675 600.337793 389.24705 
Q 600.706543 389.329862 601.064355 389.493925 
Q 601.42373 389.656425 601.770605 389.904862 
L 601.770605 389.904862 
L 601.20498 390.69705 
L 601.20498 390.69705 
Q 600.79873 390.398612 600.395605 390.250175 
Q 599.994043 390.100175 599.587793 390.100175 
Q 598.86123 390.100175 598.458105 390.3908 
Q 598.05498 390.681425 598.05498 391.214237 
L 598.05498 391.218925 
Q 598.05498 391.58455 598.262793 391.795487 
Q 598.470605 392.004862 598.77998 392.104862 
Q 599.090918 392.204862 599.64248 392.312675 
Q 599.66123 392.317362 599.678418 392.320487 
Q 599.695605 392.32205 599.715918 392.326737 
Q 599.739355 392.331425 599.769043 392.337675 
Q 599.79873 392.342362 599.822168 392.34705 
Q 600.46748 392.4783 600.89873 392.65955 
Q 601.331543 392.839237 601.622168 393.242362 
Q 601.912793 393.645487 601.912793 394.343925 
L 601.912793 394.3533 
Q 601.912793 395.0033 601.60498 395.464237 
Q 601.297168 395.925175 600.712793 396.167362 
Q 600.12998 396.40955 599.30498 396.40955 
z
M 604.002832 395.389237 
L 605.609082 395.389237 
Q 606.395019 395.389237 606.826269 394.981425 
Q 607.259082 394.573612 607.259082 393.831425 
L 607.259082 391.7408 
Q 607.259082 390.998612 606.826269 390.5908 
Q 606.395019 390.182987 605.609082 390.182987 
L 604.002832 390.182987 
L 604.002832 389.236112 
L 605.579394 389.236112 
Q 606.434082 389.236112 607.038769 389.53455 
Q 607.645019 389.831425 607.962207 390.4033 
Q 608.279394 390.975175 608.279394 391.779862 
L 608.279394 393.792362 
Q 608.279394 394.59705 607.962207 395.168925 
Q 607.645019 395.7408 607.037207 396.039237 
Q 606.429394 396.336112 605.574707 396.336112 
L 604.002832 396.336112 
L 604.002832 395.389237 
z
M 603.329394 389.236112 
L 604.324707 389.236112 
L 604.324707 396.336112 
L 603.329394 396.336112 
L 603.329394 389.236112 
z
M 611.824707 396.40955 
Q 611.180957 396.40955 610.691894 396.1658 
Q 610.204394 395.920487 609.937207 395.473612 
Q 609.671582 395.026737 609.671582 394.436112 
L 609.671582 394.318925 
Q 609.671582 393.787675 609.937207 393.318925 
Q 610.204394 392.850175 610.648144 392.611112 
Q 610.271582 392.404862 610.045019 392.017362 
Q 609.818457 391.6283 609.818457 391.198612 
L 609.818457 391.0283 
Q 609.818457 390.47205 610.066894 390.050175 
Q 610.315332 389.626737 610.770019 389.395487 
Q 611.224707 389.162675 611.824707 389.162675 
Q 612.424707 389.162675 612.879394 389.395487 
Q 613.334082 389.626737 613.582519 390.050175 
Q 613.830957 390.47205 613.830957 391.0283 
L 613.830957 391.198612 
Q 613.830957 391.639237 613.599707 392.025175 
Q 613.368457 392.40955 612.987207 392.611112 
Q 613.435644 392.854862 613.705957 393.32205 
Q 613.977832 393.787675 613.977832 394.318925 
L 613.977832 394.436112 
Q 613.977832 395.026737 613.712207 395.473612 
Q 613.446582 395.920487 612.957519 396.1658 
Q 612.470019 396.40955 611.824707 396.40955 
z
M 611.824707 395.451737 
Q 612.171582 395.451737 612.434082 395.3158 
Q 612.698144 395.1783 612.841894 394.932987 
Q 612.987207 394.686112 612.987207 394.362675 
L 612.987207 394.295487 
Q 612.987207 393.967362 612.841894 393.72205 
Q 612.698144 393.475175 612.434082 393.339237 
Q 612.171582 393.201737 611.824707 393.201737 
Q 611.477832 393.201737 611.213769 393.339237 
Q 610.951269 393.475175 610.805957 393.723612 
Q 610.662207 393.97205 610.662207 394.300175 
L 610.662207 394.373612 
Q 610.662207 394.695487 610.805957 394.939237 
Q 610.951269 395.182987 611.213769 395.317362 
Q 611.477832 395.451737 611.824707 395.451737 
z
M 611.824707 392.243925 
Q 612.123144 392.243925 612.351269 392.1158 
Q 612.580957 391.986112 612.707519 391.74705 
Q 612.835644 391.506425 612.835644 391.193925 
L 612.835644 391.126737 
Q 612.835644 390.8283 612.707519 390.598612 
Q 612.580957 390.368925 612.351269 390.245487 
Q 612.123144 390.120487 611.824707 390.120487 
Q 611.526269 390.120487 611.296582 390.245487 
Q 611.068457 390.368925 610.940332 390.598612 
Q 610.813769 390.8283 610.813769 391.131425 
L 610.813769 391.204862 
Q 610.813769 391.511112 610.940332 391.748612 
Q 611.068457 391.986112 611.296582 392.1158 
Q 611.526269 392.243925 611.824707 392.243925 
z
M 617.649707 396.40955 
Q 617.137207 396.40955 616.677832 396.312675 
Q 616.220019 396.214237 615.821582 396.018925 
Q 615.423144 395.823612 615.076269 395.529862 
L 615.076269 395.529862 
L 615.696582 394.768925 
L 615.696582 394.768925 
Q 616.102832 395.120487 616.590332 395.29705 
Q 617.079394 395.47205 617.649707 395.47205 
Q 618.421582 395.47205 618.846582 395.186112 
Q 619.271582 394.900175 619.271582 394.3783 
L 619.271582 394.373612 
Q 619.271582 394.001737 619.077832 393.78455 
Q 618.885644 393.567362 618.579394 393.462675 
Q 618.274707 393.357987 617.791894 393.268925 
Q 617.776269 393.264237 617.759082 393.264237 
Q 617.743457 393.264237 617.727832 393.25955 
L 617.654394 393.245487 
Q 616.941894 393.123612 616.495019 392.970487 
Q 616.048144 392.8158 615.730957 392.407987 
Q 615.413769 392.000175 615.413769 391.248612 
L 615.413769 391.243925 
Q 615.413769 390.58455 615.709082 390.118925 
Q 616.004394 389.651737 616.570019 389.407987 
Q 617.137207 389.162675 617.932519 389.162675 
Q 618.313769 389.162675 618.682519 389.24705 
Q 619.051269 389.329862 619.409082 389.493925 
Q 619.768457 389.656425 620.115332 389.904862 
L 620.115332 389.904862 
L 619.549707 390.69705 
L 619.549707 390.69705 
Q 619.143457 390.398612 618.740332 390.250175 
Q 618.338769 390.100175 617.932519 390.100175 
Q 617.205957 390.100175 616.802832 390.3908 
Q 616.399707 390.681425 616.399707 391.214237 
L 616.399707 391.218925 
Q 616.399707 391.58455 616.607519 391.795487 
Q 616.815332 392.004862 617.124707 392.104862 
Q 617.435644 392.204862 617.987207 392.312675 
Q 618.005957 392.317362 618.023144 392.320487 
Q 618.040332 392.32205 618.060644 392.326737 
Q 618.084082 392.331425 618.113769 392.337675 
Q 618.143457 392.342362 618.166894 392.34705 
Q 618.812207 392.4783 619.243457 392.65955 
Q 619.676269 392.839237 619.966894 393.242362 
Q 620.257519 393.645487 620.257519 394.343925 
L 620.257519 394.3533 
Q 620.257519 395.0033 619.949707 395.464237 
Q 619.641894 395.925175 619.057519 396.167362 
Q 618.474707 396.40955 617.649707 396.40955 
z
M 628.23623 392.512675 
L 628.23623 393.7533 
Q 628.23623 394.543925 627.928418 395.14705 
Q 627.620605 395.750175 627.056543 396.079862 
Q 626.49248 396.40955 625.750293 396.40955 
Q 624.99873 396.40955 624.42998 396.100175 
Q 623.86123 395.789237 623.54873 395.223612 
Q 623.23623 394.656425 623.23623 393.90955 
L 623.23623 391.814237 
Q 623.23623 391.023612 623.544043 390.423612 
Q 623.851855 389.82205 624.414355 389.492362 
Q 624.978418 389.162675 625.720605 389.162675 
Q 626.331543 389.162675 626.845605 389.425175 
Q 627.36123 389.686112 627.708105 390.164237 
Q 628.05498 390.642362 628.176855 391.27205 
L 628.176855 391.27205 
L 627.09873 391.27205 
L 627.09873 391.27205 
Q 627.009668 390.9158 626.800293 390.65955 
Q 626.590918 390.4033 626.306543 390.268925 
Q 626.02373 390.13455 625.720605 390.13455 
Q 625.281543 390.13455 624.94873 390.345487 
Q 624.61748 390.554862 624.43623 390.932987 
Q 624.256543 391.311112 624.256543 391.814237 
L 624.256543 393.90955 
Q 624.256543 394.368925 624.440918 394.712675 
Q 624.626855 395.056425 624.965918 395.24705 
Q 625.306543 395.437675 625.750293 395.437675 
Q 626.189355 395.437675 626.520605 395.2408 
Q 626.853418 395.042362 627.034668 394.667362 
Q 627.215918 394.2908 627.215918 393.77205 
L 627.215918 393.464237 
L 625.775293 393.464237 
L 625.775293 392.512675 
L 628.23623 392.512675 
z
M 631.824511 396.40955 
Q 631.121386 396.40955 630.622949 396.145487 
Q 630.126074 395.881425 629.863574 395.37205 
Q 629.602636 394.861112 629.602636 394.139237 
L 629.602636 393.567362 
Q 629.602636 392.8158 629.854199 392.28455 
Q 630.105761 391.751737 630.583886 391.473612 
Q 631.063574 391.193925 631.737011 391.193925 
Q 632.371386 391.193925 632.819824 391.512675 
Q 633.269824 391.829862 633.505761 392.429862 
Q 633.743261 393.029862 633.743261 393.870487 
L 633.743261 394.201737 
L 630.326074 394.201737 
L 630.326074 393.401737 
L 632.796386 393.401737 
L 632.796386 393.401737 
Q 632.752636 392.781425 632.476074 392.437675 
Q 632.201074 392.092362 631.737011 392.092362 
Q 631.169824 392.092362 630.860449 392.464237 
Q 630.551074 392.83455 630.551074 393.514237 
L 630.551074 394.157987 
Q 630.551074 394.787675 630.882324 395.125175 
Q 631.215136 395.462675 631.824511 395.462675 
Q 632.127636 395.462675 632.424511 395.3408 
Q 632.722949 395.217362 632.957324 394.998612 
L 632.957324 394.998612 
L 633.612011 395.651737 
L 633.612011 395.651737 
Q 633.235449 396.014237 632.766699 396.212675 
Q 632.297949 396.40955 631.824511 396.40955 
z
M 635.110839 391.267362 
L 636.107714 391.267362 
L 636.107714 396.336112 
L 635.110839 396.336112 
L 635.110839 391.267362 
z
M 638.187402 393.264237 
Q 638.187402 392.7283 637.909277 392.436112 
Q 637.631152 392.142362 637.128027 392.142362 
Q 636.638964 392.142362 636.373339 392.401737 
Q 636.107714 392.65955 636.107714 393.1283 
L 636.004589 392.151737 
Q 636.238964 391.692362 636.617089 391.443925 
Q 636.995214 391.193925 637.454589 391.193925 
Q 638.279589 391.193925 638.731152 391.73455 
Q 639.182714 392.273612 639.182714 393.25955 
L 639.182714 396.336112 
L 638.187402 396.336112 
L 638.187402 393.264237 
z
M 642.484277 396.40955 
Q 641.888964 396.40955 641.434277 396.192362 
Q 640.979589 395.975175 640.703027 395.562675 
Q 640.428027 395.150175 640.354589 394.568925 
L 640.354589 394.568925 
L 641.370214 394.568925 
L 641.370214 394.568925 
Q 641.413964 394.870487 641.560839 395.0658 
Q 641.707714 395.261112 641.938964 395.356425 
Q 642.171777 395.451737 642.484277 395.451737 
Q 642.976464 395.451737 643.249902 395.189237 
Q 643.523339 394.925175 643.523339 394.44705 
L 643.523339 394.231425 
Q 643.523339 393.698612 643.263964 393.40955 
Q 643.006152 393.118925 642.532714 393.118925 
L 642.029589 393.118925 
L 642.029589 392.170487 
L 642.532714 392.170487 
Q 642.948339 392.170487 643.176464 391.92205 
Q 643.406152 391.673612 643.406152 391.218925 
L 643.406152 390.998612 
Q 643.406152 390.579862 643.163964 390.350175 
Q 642.923339 390.120487 642.479589 390.120487 
Q 642.224902 390.120487 642.024902 390.2158 
Q 641.824902 390.311112 641.685839 390.50955 
Q 641.546777 390.706425 641.482714 391.0033 
L 641.482714 391.0033 
L 640.471777 391.0033 
L 640.471777 391.0033 
Q 640.570214 390.423612 640.840527 390.007987 
Q 641.112402 389.592362 641.526464 389.3783 
Q 641.942089 389.162675 642.479589 389.162675 
Q 643.396777 389.162675 643.899902 389.64705 
Q 644.403027 390.129862 644.403027 391.00955 
L 644.403027 391.126737 
Q 644.403027 391.657987 644.113964 392.0533 
Q 643.826464 392.448612 643.299902 392.629862 
Q 643.881152 392.756425 644.199902 393.201737 
Q 644.520214 393.645487 644.520214 394.33455 
L 644.520214 394.451737 
Q 644.520214 395.07205 644.281152 395.511112 
Q 644.042089 395.950175 643.584277 396.179862 
Q 643.128027 396.40955 642.484277 396.40955 
z
" style="fill: #ffffff"/>
   </g>
  </g>
 </g>
 <defs>
  <clipPath id="p1dd4f05659">
   <rect x="144" y="77.76" width="892.8" height="498.96"/>
  </clipPath>
 </defs>
</svg>
