<?xml version="1.0" encoding="utf-8" standalone="no"?>
<!DOCTYPE svg PUBLIC "-//W3C//DTD SVG 1.1//EN"
  "http://www.w3.org/Graphics/SVG/1.1/DTD/svg11.dtd">
<svg xmlns:xlink="http://www.w3.org/1999/xlink" width="1152pt" height="648pt" viewBox="0 0 1152 648" xmlns="http://www.w3.org/2000/svg" version="1.1">
 <metadata>
  <rdf:RDF xmlns:dc="http://purl.org/dc/elements/1.1/" xmlns:cc="http://creativecommons.org/ns#" xmlns:rdf="http://www.w3.org/1999/02/22-rdf-syntax-ns#">
   <cc:Work>
    <dc:type rdf:resource="http://purl.org/dc/dcmitype/StillImage"/>
    <dc:date>2025-09-19T13:51:42.336157</dc:date>
    <dc:format>image/svg+xml</dc:format>
    <dc:creator>
     <cc:Agent>
      <dc:title>Matplotlib v3.10.3, https://matplotlib.org/</dc:title>
     </cc:Agent>
    </dc:creator>
   </cc:Work>
  </rdf:RDF>
 </metadata>
 <defs>
  <style type="text/css">*{stroke-linejoin: round; stroke-linecap: butt}</style>
 </defs>
 <g id="figure_1">
  <g id="patch_1">
   <path d="M 0 648 
L 1152 648 
L 1152 0 
L 0 0 
L 0 648 
z
" style="fill: none"/>
  </g>
  <g id="axes_1">
   <g id="line2d_1">
    <path d="M 224.848 554.430637 
L 225.439192 554.244525 
L 226.030384 554.058449 
L 226.621576 553.872446 
L 227.212768 553.686551 
L 227.80396 553.500802 
L 228.395152 553.315233 
L 228.986343 553.129881 
L 229.577535 552.944782 
L 230.168727 552.75997 
L 230.759919 552.575482 
L 231.351111 552.391352 
L 231.942303 552.207616 
L 232.533495 552.024306 
L 233.124687 551.841459 
L 233.715879 551.659106 
L 234.307071 551.477283 
L 234.898263 551.296022 
L 235.489455 551.115355 
L 236.080646 550.935314 
L 236.671838 550.755932 
L 237.26303 550.577239 
L 237.854222 550.399266 
L 238.445414 550.222044 
L 239.036606 550.045602 
L 239.627798 549.869968 
L 240.21899 549.695172 
L 240.810182 549.521241 
L 241.401374 549.348202 
L 241.992566 549.176083 
L 242.583758 549.004909 
L 243.174949 548.834705 
L 243.766141 548.665497 
L 244.357333 548.497308 
L 244.948525 548.330161 
L 245.539717 548.164079 
L 246.130909 547.999085 
L 246.722101 547.835198 
L 247.313293 547.672441 
L 247.904485 547.510832 
L 248.495677 547.350391 
L 249.086869 547.191135 
L 249.678061 547.033084 
L 250.269253 546.876253 
L 250.860444 546.720658 
L 251.451636 546.566316 
L 252.042828 546.41324 
L 252.63402 546.261445 
L 253.225212 546.110944 
L 253.816404 545.961749 
L 254.407596 545.813873 
L 254.998788 545.667326 
L 255.58998 545.522118 
L 256.181172 545.37826 
L 256.772364 545.23576 
L 257.363556 545.094626 
L 257.954747 544.954867 
L 258.545939 544.816488 
L 259.137131 544.679497 
L 259.728323 544.543898 
L 260.319515 544.409697 
L 260.910707 544.276898 
L 261.501899 544.145505 
L 262.093091 544.015519 
L 262.684283 543.886945 
L 263.275475 543.759784 
L 263.866667 543.634037 
L 264.457859 543.509704 
L 265.049051 543.386787 
L 265.640242 543.265283 
L 266.231434 543.145193 
L 266.822626 543.026515 
L 267.413818 542.909247 
L 268.00501 542.793386 
L 268.596202 542.67893 
L 269.187394 542.565874 
L 269.778586 542.454215 
L 270.369778 542.343949 
L 270.96097 542.235071 
L 271.552162 542.127575 
L 272.143354 542.021456 
L 272.734545 541.916709 
L 273.325737 541.813326 
L 273.916929 541.711301 
L 274.508121 541.610627 
L 275.099313 541.511296 
L 275.690505 541.413301 
L 276.281697 541.316634 
L 276.872889 541.221286 
L 277.464081 541.127249 
L 278.055273 541.034514 
L 278.646465 540.943072 
L 279.237657 540.852913 
L 279.828848 540.764028 
L 280.42004 540.676406 
L 281.011232 540.590039 
L 281.602424 540.504915 
L 282.193616 540.421024 
L 282.784808 540.338356 
L 283.376 540.2569 
" clip-path="url(#p9a1f77c770)" style="fill: none; stroke: #3030f2; stroke-width: 3; stroke-linecap: round"/>
   </g>
   <g id="text_1">
    <path d="M 292.28098 541.976906 
Q 291.76848 541.976906 291.309105 541.880031 
Q 290.851292 541.781593 290.452855 541.586281 
Q 290.054417 541.390968 289.707542 541.097218 
L 289.707542 541.097218 
L 290.327855 540.336281 
L 290.327855 540.336281 
Q 290.734105 540.687843 291.221605 540.864406 
Q 291.710667 541.039406 292.28098 541.039406 
Q 293.052855 541.039406 293.477855 540.753468 
Q 293.902855 540.467531 293.902855 539.945656 
L 293.902855 539.940968 
Q 293.902855 539.569093 293.709105 539.351906 
Q 293.516917 539.134718 293.210667 539.030031 
Q 292.90598 538.925343 292.423167 538.836281 
Q 292.407542 538.831593 292.390355 538.831593 
Q 292.37473 538.831593 292.359105 538.826906 
L 292.285667 538.812843 
Q 291.573167 538.690968 291.126292 538.537843 
Q 290.679417 538.383156 290.36223 537.975343 
Q 290.045042 537.567531 290.045042 536.815968 
L 290.045042 536.811281 
Q 290.045042 536.151906 290.340355 535.686281 
Q 290.635667 535.219093 291.201292 534.975343 
Q 291.76848 534.730031 292.563792 534.730031 
Q 292.945042 534.730031 293.313792 534.814406 
Q 293.682542 534.897218 294.040355 535.061281 
Q 294.39973 535.223781 294.746605 535.472218 
L 294.746605 535.472218 
L 294.18098 536.264406 
L 294.18098 536.264406 
Q 293.77473 535.965968 293.371605 535.817531 
Q 292.970042 535.667531 292.563792 535.667531 
Q 291.83723 535.667531 291.434105 535.958156 
Q 291.03098 536.248781 291.03098 536.781593 
L 291.03098 536.786281 
Q 291.03098 537.151906 291.238792 537.362843 
Q 291.446605 537.572218 291.75598 537.672218 
Q 292.066917 537.772218 292.61848 537.880031 
Q 292.63723 537.884718 292.654417 537.887843 
Q 292.671605 537.889406 292.691917 537.894093 
Q 292.715355 537.898781 292.745042 537.905031 
Q 292.77473 537.909718 292.798167 537.914406 
Q 293.44348 538.045656 293.87473 538.226906 
Q 294.307542 538.406593 294.598167 538.809718 
Q 294.888792 539.212843 294.888792 539.911281 
L 294.888792 539.920656 
Q 294.888792 540.570656 294.58098 541.031593 
Q 294.273167 541.492531 293.688792 541.734718 
Q 293.10598 541.976906 292.28098 541.976906 
z
M 296.978832 540.956593 
L 298.585082 540.956593 
Q 299.371019 540.956593 299.802269 540.548781 
Q 300.235082 540.140968 300.235082 539.398781 
L 300.235082 537.308156 
Q 300.235082 536.565968 299.802269 536.158156 
Q 299.371019 535.750343 298.585082 535.750343 
L 296.978832 535.750343 
L 296.978832 534.803468 
L 298.555394 534.803468 
Q 299.410082 534.803468 300.014769 535.101906 
Q 300.621019 535.398781 300.938207 535.970656 
Q 301.255394 536.542531 301.255394 537.347218 
L 301.255394 539.359718 
Q 301.255394 540.164406 300.938207 540.736281 
Q 300.621019 541.308156 300.013207 541.606593 
Q 299.405394 541.903468 298.550707 541.903468 
L 296.978832 541.903468 
L 296.978832 540.956593 
z
M 296.305394 534.803468 
L 297.300707 534.803468 
L 297.300707 541.903468 
L 296.305394 541.903468 
L 296.305394 534.803468 
z
M 306.388207 535.692531 
L 304.552269 541.903468 
L 303.492894 541.903468 
L 305.328832 535.750343 
L 303.521019 535.750343 
L 303.521019 536.772218 
L 302.525707 536.772218 
L 302.525707 534.803468 
L 306.388207 534.803468 
L 306.388207 535.692531 
z
M 309.834886 541.976906 
Q 309.191136 541.976906 308.702074 541.733156 
Q 308.214574 541.487843 307.947386 541.040968 
Q 307.681761 540.594093 307.681761 540.003468 
L 307.681761 539.886281 
Q 307.681761 539.355031 307.947386 538.886281 
Q 308.214574 538.417531 308.658324 538.178468 
Q 308.281761 537.972218 308.055199 537.584718 
Q 307.828636 537.195656 307.828636 536.765968 
L 307.828636 536.595656 
Q 307.828636 536.039406 308.077074 535.617531 
Q 308.325511 535.194093 308.780199 534.962843 
Q 309.234886 534.730031 309.834886 534.730031 
Q 310.434886 534.730031 310.889574 534.962843 
Q 311.344261 535.194093 311.592699 535.617531 
Q 311.841136 536.039406 311.841136 536.595656 
L 311.841136 536.765968 
Q 311.841136 537.206593 311.609886 537.592531 
Q 311.378636 537.976906 310.997386 538.178468 
Q 311.445824 538.422218 311.716136 538.889406 
Q 311.988011 539.355031 311.988011 539.886281 
L 311.988011 540.003468 
Q 311.988011 540.594093 311.722386 541.040968 
Q 311.456761 541.487843 310.967699 541.733156 
Q 310.480199 541.976906 309.834886 541.976906 
z
M 309.834886 541.019093 
Q 310.181761 541.019093 310.444261 540.883156 
Q 310.708324 540.745656 310.852074 540.500343 
Q 310.997386 540.253468 310.997386 539.930031 
L 310.997386 539.862843 
Q 310.997386 539.534718 310.852074 539.289406 
Q 310.708324 539.042531 310.444261 538.906593 
Q 310.181761 538.769093 309.834886 538.769093 
Q 309.488011 538.769093 309.223949 538.906593 
Q 308.961449 539.042531 308.816136 539.290968 
Q 308.672386 539.539406 308.672386 539.867531 
L 308.672386 539.940968 
Q 308.672386 540.262843 308.816136 540.506593 
Q 308.961449 540.750343 309.223949 540.884718 
Q 309.488011 541.019093 309.834886 541.019093 
z
M 309.834886 537.811281 
Q 310.133324 537.811281 310.361449 537.683156 
Q 310.591136 537.553468 310.717699 537.314406 
Q 310.845824 537.073781 310.845824 536.761281 
L 310.845824 536.694093 
Q 310.845824 536.395656 310.717699 536.165968 
Q 310.591136 535.936281 310.361449 535.812843 
Q 310.133324 535.687843 309.834886 535.687843 
Q 309.536449 535.687843 309.306761 535.812843 
Q 309.078636 535.936281 308.950511 536.165968 
Q 308.823949 536.395656 308.823949 536.698781 
L 308.823949 536.772218 
Q 308.823949 537.078468 308.950511 537.315968 
Q 309.078636 537.553468 309.306761 537.683156 
Q 309.536449 537.811281 309.834886 537.811281 
z
M 315.406761 541.976906 
Q 314.409886 541.976906 313.894261 541.445656 
Q 313.380199 540.912843 313.380199 539.959718 
L 313.380199 536.733156 
Q 313.380199 535.775343 313.897386 535.245656 
Q 314.414574 534.715968 315.406761 534.715968 
Q 316.402074 534.715968 316.917699 535.244093 
Q 317.433324 535.770656 317.433324 536.733156 
L 317.433324 539.959718 
Q 317.433324 540.917531 316.914574 541.447218 
Q 316.397386 541.976906 315.406761 541.976906 
z
M 315.406761 541.030031 
Q 315.933324 541.030031 316.184886 540.753468 
Q 316.436449 540.476906 316.436449 539.959718 
L 316.436449 536.733156 
Q 316.436449 536.214406 316.186449 535.939406 
Q 315.938011 535.662843 315.406761 535.662843 
Q 314.873949 535.662843 314.623949 535.939406 
Q 314.375511 536.214406 314.375511 536.733156 
L 314.375511 539.959718 
Q 314.375511 540.476906 314.627074 540.753468 
Q 314.878636 541.030031 315.406761 541.030031 
z
M 323.897777 538.080031 
L 323.897777 539.320656 
Q 323.897777 540.111281 323.589964 540.714406 
Q 323.282152 541.317531 322.718089 541.647218 
Q 322.154027 541.976906 321.411839 541.976906 
Q 320.660277 541.976906 320.091527 541.667531 
Q 319.522777 541.356593 319.210277 540.790968 
Q 318.897777 540.223781 318.897777 539.476906 
L 318.897777 537.381593 
Q 318.897777 536.590968 319.205589 535.990968 
Q 319.513402 535.389406 320.075902 535.059718 
Q 320.639964 534.730031 321.382152 534.730031 
Q 321.993089 534.730031 322.507152 534.992531 
Q 323.022777 535.253468 323.369652 535.731593 
Q 323.716527 536.209718 323.838402 536.839406 
L 323.838402 536.839406 
L 322.760277 536.839406 
L 322.760277 536.839406 
Q 322.671214 536.483156 322.461839 536.226906 
Q 322.252464 535.970656 321.968089 535.836281 
Q 321.685277 535.701906 321.382152 535.701906 
Q 320.943089 535.701906 320.610277 535.912843 
Q 320.279027 536.122218 320.097777 536.500343 
Q 319.918089 536.878468 319.918089 537.381593 
L 319.918089 539.476906 
Q 319.918089 539.936281 320.102464 540.280031 
Q 320.288402 540.623781 320.627464 540.814406 
Q 320.968089 541.005031 321.411839 541.005031 
Q 321.850902 541.005031 322.182152 540.808156 
Q 322.514964 540.609718 322.696214 540.234718 
Q 322.877464 539.858156 322.877464 539.339406 
L 322.877464 539.031593 
L 321.436839 539.031593 
L 321.436839 538.080031 
L 323.897777 538.080031 
z
" style="fill: #ffffff; stroke: #000000"/>
    <path d="M 292.28098 541.976906 
Q 291.76848 541.976906 291.309105 541.880031 
Q 290.851292 541.781593 290.452855 541.586281 
Q 290.054417 541.390968 289.707542 541.097218 
L 289.707542 541.097218 
L 290.327855 540.336281 
L 290.327855 540.336281 
Q 290.734105 540.687843 291.221605 540.864406 
Q 291.710667 541.039406 292.28098 541.039406 
Q 293.052855 541.039406 293.477855 540.753468 
Q 293.902855 540.467531 293.902855 539.945656 
L 293.902855 539.940968 
Q 293.902855 539.569093 293.709105 539.351906 
Q 293.516917 539.134718 293.210667 539.030031 
Q 292.90598 538.925343 292.423167 538.836281 
Q 292.407542 538.831593 292.390355 538.831593 
Q 292.37473 538.831593 292.359105 538.826906 
L 292.285667 538.812843 
Q 291.573167 538.690968 291.126292 538.537843 
Q 290.679417 538.383156 290.36223 537.975343 
Q 290.045042 537.567531 290.045042 536.815968 
L 290.045042 536.811281 
Q 290.045042 536.151906 290.340355 535.686281 
Q 290.635667 535.219093 291.201292 534.975343 
Q 291.76848 534.730031 292.563792 534.730031 
Q 292.945042 534.730031 293.313792 534.814406 
Q 293.682542 534.897218 294.040355 535.061281 
Q 294.39973 535.223781 294.746605 535.472218 
L 294.746605 535.472218 
L 294.18098 536.264406 
L 294.18098 536.264406 
Q 293.77473 535.965968 293.371605 535.817531 
Q 292.970042 535.667531 292.563792 535.667531 
Q 291.83723 535.667531 291.434105 535.958156 
Q 291.03098 536.248781 291.03098 536.781593 
L 291.03098 536.786281 
Q 291.03098 537.151906 291.238792 537.362843 
Q 291.446605 537.572218 291.75598 537.672218 
Q 292.066917 537.772218 292.61848 537.880031 
Q 292.63723 537.884718 292.654417 537.887843 
Q 292.671605 537.889406 292.691917 537.894093 
Q 292.715355 537.898781 292.745042 537.905031 
Q 292.77473 537.909718 292.798167 537.914406 
Q 293.44348 538.045656 293.87473 538.226906 
Q 294.307542 538.406593 294.598167 538.809718 
Q 294.888792 539.212843 294.888792 539.911281 
L 294.888792 539.920656 
Q 294.888792 540.570656 294.58098 541.031593 
Q 294.273167 541.492531 293.688792 541.734718 
Q 293.10598 541.976906 292.28098 541.976906 
z
M 296.978832 540.956593 
L 298.585082 540.956593 
Q 299.371019 540.956593 299.802269 540.548781 
Q 300.235082 540.140968 300.235082 539.398781 
L 300.235082 537.308156 
Q 300.235082 536.565968 299.802269 536.158156 
Q 299.371019 535.750343 298.585082 535.750343 
L 296.978832 535.750343 
L 296.978832 534.803468 
L 298.555394 534.803468 
Q 299.410082 534.803468 300.014769 535.101906 
Q 300.621019 535.398781 300.938207 535.970656 
Q 301.255394 536.542531 301.255394 537.347218 
L 301.255394 539.359718 
Q 301.255394 540.164406 300.938207 540.736281 
Q 300.621019 541.308156 300.013207 541.606593 
Q 299.405394 541.903468 298.550707 541.903468 
L 296.978832 541.903468 
L 296.978832 540.956593 
z
M 296.305394 534.803468 
L 297.300707 534.803468 
L 297.300707 541.903468 
L 296.305394 541.903468 
L 296.305394 534.803468 
z
M 306.388207 535.692531 
L 304.552269 541.903468 
L 303.492894 541.903468 
L 305.328832 535.750343 
L 303.521019 535.750343 
L 303.521019 536.772218 
L 302.525707 536.772218 
L 302.525707 534.803468 
L 306.388207 534.803468 
L 306.388207 535.692531 
z
M 309.834886 541.976906 
Q 309.191136 541.976906 308.702074 541.733156 
Q 308.214574 541.487843 307.947386 541.040968 
Q 307.681761 540.594093 307.681761 540.003468 
L 307.681761 539.886281 
Q 307.681761 539.355031 307.947386 538.886281 
Q 308.214574 538.417531 308.658324 538.178468 
Q 308.281761 537.972218 308.055199 537.584718 
Q 307.828636 537.195656 307.828636 536.765968 
L 307.828636 536.595656 
Q 307.828636 536.039406 308.077074 535.617531 
Q 308.325511 535.194093 308.780199 534.962843 
Q 309.234886 534.730031 309.834886 534.730031 
Q 310.434886 534.730031 310.889574 534.962843 
Q 311.344261 535.194093 311.592699 535.617531 
Q 311.841136 536.039406 311.841136 536.595656 
L 311.841136 536.765968 
Q 311.841136 537.206593 311.609886 537.592531 
Q 311.378636 537.976906 310.997386 538.178468 
Q 311.445824 538.422218 311.716136 538.889406 
Q 311.988011 539.355031 311.988011 539.886281 
L 311.988011 540.003468 
Q 311.988011 540.594093 311.722386 541.040968 
Q 311.456761 541.487843 310.967699 541.733156 
Q 310.480199 541.976906 309.834886 541.976906 
z
M 309.834886 541.019093 
Q 310.181761 541.019093 310.444261 540.883156 
Q 310.708324 540.745656 310.852074 540.500343 
Q 310.997386 540.253468 310.997386 539.930031 
L 310.997386 539.862843 
Q 310.997386 539.534718 310.852074 539.289406 
Q 310.708324 539.042531 310.444261 538.906593 
Q 310.181761 538.769093 309.834886 538.769093 
Q 309.488011 538.769093 309.223949 538.906593 
Q 308.961449 539.042531 308.816136 539.290968 
Q 308.672386 539.539406 308.672386 539.867531 
L 308.672386 539.940968 
Q 308.672386 540.262843 308.816136 540.506593 
Q 308.961449 540.750343 309.223949 540.884718 
Q 309.488011 541.019093 309.834886 541.019093 
z
M 309.834886 537.811281 
Q 310.133324 537.811281 310.361449 537.683156 
Q 310.591136 537.553468 310.717699 537.314406 
Q 310.845824 537.073781 310.845824 536.761281 
L 310.845824 536.694093 
Q 310.845824 536.395656 310.717699 536.165968 
Q 310.591136 535.936281 310.361449 535.812843 
Q 310.133324 535.687843 309.834886 535.687843 
Q 309.536449 535.687843 309.306761 535.812843 
Q 309.078636 535.936281 308.950511 536.165968 
Q 308.823949 536.395656 308.823949 536.698781 
L 308.823949 536.772218 
Q 308.823949 537.078468 308.950511 537.315968 
Q 309.078636 537.553468 309.306761 537.683156 
Q 309.536449 537.811281 309.834886 537.811281 
z
M 315.406761 541.976906 
Q 314.409886 541.976906 313.894261 541.445656 
Q 313.380199 540.912843 313.380199 539.959718 
L 313.380199 536.733156 
Q 313.380199 535.775343 313.897386 535.245656 
Q 314.414574 534.715968 315.406761 534.715968 
Q 316.402074 534.715968 316.917699 535.244093 
Q 317.433324 535.770656 317.433324 536.733156 
L 317.433324 539.959718 
Q 317.433324 540.917531 316.914574 541.447218 
Q 316.397386 541.976906 315.406761 541.976906 
z
M 315.406761 541.030031 
Q 315.933324 541.030031 316.184886 540.753468 
Q 316.436449 540.476906 316.436449 539.959718 
L 316.436449 536.733156 
Q 316.436449 536.214406 316.186449 535.939406 
Q 315.938011 535.662843 315.406761 535.662843 
Q 314.873949 535.662843 314.623949 535.939406 
Q 314.375511 536.214406 314.375511 536.733156 
L 314.375511 539.959718 
Q 314.375511 540.476906 314.627074 540.753468 
Q 314.878636 541.030031 315.406761 541.030031 
z
M 323.897777 538.080031 
L 323.897777 539.320656 
Q 323.897777 540.111281 323.589964 540.714406 
Q 323.282152 541.317531 322.718089 541.647218 
Q 322.154027 541.976906 321.411839 541.976906 
Q 320.660277 541.976906 320.091527 541.667531 
Q 319.522777 541.356593 319.210277 540.790968 
Q 318.897777 540.223781 318.897777 539.476906 
L 318.897777 537.381593 
Q 318.897777 536.590968 319.205589 535.990968 
Q 319.513402 535.389406 320.075902 535.059718 
Q 320.639964 534.730031 321.382152 534.730031 
Q 321.993089 534.730031 322.507152 534.992531 
Q 323.022777 535.253468 323.369652 535.731593 
Q 323.716527 536.209718 323.838402 536.839406 
L 323.838402 536.839406 
L 322.760277 536.839406 
L 322.760277 536.839406 
Q 322.671214 536.483156 322.461839 536.226906 
Q 322.252464 535.970656 321.968089 535.836281 
Q 321.685277 535.701906 321.382152 535.701906 
Q 320.943089 535.701906 320.610277 535.912843 
Q 320.279027 536.122218 320.097777 536.500343 
Q 319.918089 536.878468 319.918089 537.381593 
L 319.918089 539.476906 
Q 319.918089 539.936281 320.102464 540.280031 
Q 320.288402 540.623781 320.627464 540.814406 
Q 320.968089 541.005031 321.411839 541.005031 
Q 321.850902 541.005031 322.182152 540.808156 
Q 322.514964 540.609718 322.696214 540.234718 
Q 322.877464 539.858156 322.877464 539.339406 
L 322.877464 539.031593 
L 321.436839 539.031593 
L 321.436839 538.080031 
L 323.897777 538.080031 
z
" style="fill: #ffffff"/>
   </g>
  </g>
 </g>
 <defs>
  <clipPath id="p9a1f77c770">
   <rect x="144" y="77.76" width="892.8" height="498.96"/>
  </clipPath>
 </defs>
</svg>
