<?xml version="1.0" encoding="utf-8" standalone="no"?>
<!DOCTYPE svg PUBLIC "-//W3C//DTD SVG 1.1//EN"
  "http://www.w3.org/Graphics/SVG/1.1/DTD/svg11.dtd">
<svg xmlns:xlink="http://www.w3.org/1999/xlink" width="1152pt" height="648pt" viewBox="0 0 1152 648" xmlns="http://www.w3.org/2000/svg" version="1.1">
 <metadata>
  <rdf:RDF xmlns:dc="http://purl.org/dc/elements/1.1/" xmlns:cc="http://creativecommons.org/ns#" xmlns:rdf="http://www.w3.org/1999/02/22-rdf-syntax-ns#">
   <cc:Work>
    <dc:type rdf:resource="http://purl.org/dc/dcmitype/StillImage"/>
    <dc:date>2025-09-24T16:26:27.484715</dc:date>
    <dc:format>image/svg+xml</dc:format>
    <dc:creator>
     <cc:Agent>
      <dc:title>Matplotlib v3.10.3, https://matplotlib.org/</dc:title>
     </cc:Agent>
    </dc:creator>
   </cc:Work>
  </rdf:RDF>
 </metadata>
 <defs>
  <style type="text/css">*{stroke-linejoin: round; stroke-linecap: butt}</style>
 </defs>
 <g id="figure_1">
  <g id="patch_1">
   <path d="M 0 648 
L 1152 648 
L 1152 0 
L 0 0 
L 0 648 
z
" style="fill: none"/>
  </g>
  <g id="axes_1">
   <g id="line2d_1">
    <path d="M 285.36 394.766876 
L 291.342061 390.111546 
L 297.324121 385.52614 
L 303.306182 381.00961 
L 309.288242 376.560925 
L 315.270303 372.179068 
L 321.252364 367.863038 
L 327.234424 363.611848 
L 333.216485 359.424528 
L 339.198545 355.300119 
L 345.180606 351.237679 
L 351.162667 347.236278 
L 357.144727 343.295003 
L 363.126788 339.412951 
L 369.108848 335.589234 
L 375.090909 331.822978 
L 381.07297 328.113322 
L 387.05503 324.459417 
L 393.037091 320.860425 
L 399.019152 317.315525 
L 405.001212 313.823905 
L 410.983273 310.384765 
L 416.965333 306.997318 
L 422.947394 303.660789 
L 428.929455 300.374414 
L 434.911515 297.137441 
L 440.893576 293.949128 
L 446.875636 290.808745 
L 452.857697 287.715573 
L 458.839758 284.668904 
L 464.821818 281.668039 
L 470.803879 278.712291 
L 476.785939 275.800984 
L 482.768 272.933449 
L 488.750061 270.10903 
L 494.732121 267.32708 
L 500.714182 264.586961 
L 506.696242 261.888046 
L 512.678303 259.229715 
L 518.660364 256.611359 
L 524.642424 254.032378 
L 530.624485 251.492181 
L 536.606545 248.990186 
L 542.588606 246.525818 
L 548.570667 244.098513 
L 554.552727 241.707714 
L 560.534788 239.352873 
L 566.516848 237.033449 
L 572.498909 234.748912 
L 578.48097 232.498736 
L 584.46303 230.282405 
L 590.445091 228.099412 
L 596.427152 225.949255 
L 602.409212 223.831441 
L 608.391273 221.745485 
L 614.373333 219.690907 
L 620.355394 217.667235 
L 626.337455 215.674007 
L 632.319515 213.710764 
L 638.301576 211.777055 
L 644.283636 209.872438 
L 650.265697 207.996474 
L 656.247758 206.148733 
L 662.229818 204.328791 
L 668.211879 202.53623 
L 674.193939 200.770639 
L 680.176 199.031612 
L 686.158061 197.31875 
L 692.140121 195.63166 
L 698.122182 193.969955 
L 704.104242 192.333252 
L 710.086303 190.721176 
L 716.068364 189.133357 
L 722.050424 187.56943 
L 728.032485 186.029035 
L 734.014545 184.51182 
L 739.996606 183.017436 
L 745.978667 181.545539 
L 751.960727 180.095791 
L 757.942788 178.66786 
L 763.924848 177.261416 
L 769.906909 175.876138 
L 775.88897 174.511707 
L 781.87103 173.167809 
L 787.853091 171.844136 
L 793.835152 170.540383 
L 799.817212 169.256252 
L 805.799273 167.991446 
L 811.781333 166.745675 
L 817.763394 165.518654 
L 823.745455 164.310099 
L 829.727515 163.119734 
L 835.709576 161.947284 
L 841.691636 160.792481 
L 847.673697 159.655058 
L 853.655758 158.534755 
L 859.637818 157.431314 
L 865.619879 156.344481 
L 871.601939 155.274007 
L 877.584 154.219645 
" clip-path="url(#p85ebfb8406)" style="fill: none; stroke: #f27979; stroke-width: 3; stroke-linecap: round"/>
   </g>
   <g id="text_1">
    <path d="M 885.029605 154.919338 
L 886.635855 154.919338 
Q 887.421792 154.919338 887.853042 154.511525 
Q 888.285855 154.103713 888.285855 153.361525 
L 888.285855 151.2709 
Q 888.285855 150.528713 887.853042 150.1209 
Q 887.421792 149.713088 886.635855 149.713088 
L 885.029605 149.713088 
L 885.029605 148.766213 
L 886.606167 148.766213 
Q 887.460855 148.766213 888.065542 149.06465 
Q 888.671792 149.361525 888.98898 149.9334 
Q 889.306167 150.505275 889.306167 151.309963 
L 889.306167 153.322463 
Q 889.306167 154.12715 888.98898 154.699025 
Q 888.671792 155.2709 888.06398 155.569338 
Q 887.456167 155.866213 886.60148 155.866213 
L 885.029605 155.866213 
L 885.029605 154.919338 
z
M 884.356167 148.766213 
L 885.35148 148.766213 
L 885.35148 155.866213 
L 884.356167 155.866213 
L 884.356167 148.766213 
z
M 893.285855 152.341213 
L 893.281167 152.516213 
Q 893.159292 152.741213 892.912417 152.8459 
Q 892.665542 152.950588 892.329605 152.950588 
Q 891.821792 152.950588 891.435855 152.692775 
Q 891.049917 152.4334 890.837417 151.963088 
Q 890.624917 151.491213 890.624917 150.8709 
L 890.624917 150.866213 
Q 890.624917 150.17715 890.856167 149.68965 
Q 891.08898 149.200588 891.535855 148.947463 
Q 891.98273 148.692775 892.60773 148.692775 
Q 893.23273 148.692775 893.67648 148.95215 
Q 894.121792 149.211525 894.353042 149.705275 
Q 894.584292 150.197463 894.584292 150.891213 
L 894.584292 150.8959 
Q 894.584292 151.275588 894.485855 151.7084 
Q 894.38898 152.141213 894.209292 152.56465 
Q 894.179605 152.628713 894.149917 152.694338 
Q 894.121792 152.759963 894.087417 152.824025 
L 892.573355 155.866213 
L 891.498355 155.866213 
L 893.285855 152.341213 
z
M 892.60773 152.042775 
Q 893.07648 152.042775 893.33273 151.725588 
Q 893.58898 151.4084 893.58898 150.831838 
L 893.58898 150.82715 
Q 893.58898 150.266213 893.33273 149.9584 
Q 893.07648 149.650588 892.60773 149.650588 
Q 892.134292 149.650588 891.878042 149.9584 
Q 891.621792 150.266213 891.621792 150.831838 
L 891.621792 150.836525 
Q 891.621792 151.413088 891.878042 151.728713 
Q 892.134292 152.042775 892.60773 152.042775 
z
M 897.886441 155.93965 
Q 897.348941 155.93965 896.930191 155.730275 
Q 896.513003 155.519338 896.252066 155.119338 
Q 895.991128 154.719338 895.903628 154.156838 
L 895.903628 154.15215 
L 896.898941 154.15215 
L 896.898941 154.156838 
Q 896.953628 154.547463 897.211441 154.76465 
Q 897.470816 154.981838 897.886441 154.981838 
Q 898.364566 154.981838 898.625503 154.663088 
Q 898.886441 154.342775 898.886441 153.761525 
L 898.886441 153.166213 
Q 898.886441 152.58965 898.625503 152.2709 
Q 898.364566 151.950588 897.886441 151.950588 
Q 897.627066 151.950588 897.388003 152.097463 
Q 897.148941 152.242775 896.967691 152.506838 
L 896.059878 152.506838 
L 896.059878 148.766213 
L 899.677066 148.766213 
L 899.677066 149.713088 
L 897.055191 149.713088 
L 897.055191 151.309963 
Q 897.241128 151.1584 897.470816 151.075588 
Q 897.700503 150.992775 897.939566 150.992775 
Q 898.555191 150.992775 898.991128 151.247463 
Q 899.428628 151.500588 899.655191 151.98965 
Q 899.883316 152.47715 899.883316 153.166213 
L 899.883316 153.761525 
Q 899.883316 154.450588 899.648941 154.93965 
Q 899.414566 155.42715 898.964566 155.6834 
Q 898.516128 155.93965 897.886441 155.93965 
z
M 903.374527 155.93965 
Q 902.377652 155.93965 901.862027 155.4084 
Q 901.347964 154.875588 901.347964 153.922463 
L 901.347964 150.6959 
Q 901.347964 149.738088 901.865152 149.2084 
Q 902.382339 148.678713 903.374527 148.678713 
Q 904.369839 148.678713 904.885464 149.206838 
Q 905.401089 149.7334 905.401089 150.6959 
L 905.401089 153.922463 
Q 905.401089 154.880275 904.882339 155.409963 
Q 904.365152 155.93965 903.374527 155.93965 
z
M 903.374527 154.992775 
Q 903.901089 154.992775 904.152652 154.716213 
Q 904.404214 154.43965 904.404214 153.922463 
L 904.404214 150.6959 
Q 904.404214 150.17715 904.154214 149.90215 
Q 903.905777 149.625588 903.374527 149.625588 
Q 902.841714 149.625588 902.591714 149.90215 
Q 902.343277 150.17715 902.343277 150.6959 
L 902.343277 153.922463 
Q 902.343277 154.43965 902.594839 154.716213 
Q 902.846402 154.992775 903.374527 154.992775 
z
M 908.892105 155.93965 
Q 907.89523 155.93965 907.379605 155.4084 
Q 906.865542 154.875588 906.865542 153.922463 
L 906.865542 150.6959 
Q 906.865542 149.738088 907.38273 149.2084 
Q 907.899917 148.678713 908.892105 148.678713 
Q 909.887417 148.678713 910.403042 149.206838 
Q 910.918667 149.7334 910.918667 150.6959 
L 910.918667 153.922463 
Q 910.918667 154.880275 910.399917 155.409963 
Q 909.88273 155.93965 908.892105 155.93965 
z
M 908.892105 154.992775 
Q 909.418667 154.992775 909.67023 154.716213 
Q 909.921792 154.43965 909.921792 153.922463 
L 909.921792 150.6959 
Q 909.921792 150.17715 909.671792 149.90215 
Q 909.423355 149.625588 908.892105 149.625588 
Q 908.359292 149.625588 908.109292 149.90215 
Q 907.860855 150.17715 907.860855 150.6959 
L 907.860855 153.922463 
Q 907.860855 154.43965 908.112417 154.716213 
Q 908.36398 154.992775 908.892105 154.992775 
z
" style="fill: #ffffff; stroke: #000000"/>
    <path d="M 885.029605 154.919338 
L 886.635855 154.919338 
Q 887.421792 154.919338 887.853042 154.511525 
Q 888.285855 154.103713 888.285855 153.361525 
L 888.285855 151.2709 
Q 888.285855 150.528713 887.853042 150.1209 
Q 887.421792 149.713088 886.635855 149.713088 
L 885.029605 149.713088 
L 885.029605 148.766213 
L 886.606167 148.766213 
Q 887.460855 148.766213 888.065542 149.06465 
Q 888.671792 149.361525 888.98898 149.9334 
Q 889.306167 150.505275 889.306167 151.309963 
L 889.306167 153.322463 
Q 889.306167 154.12715 888.98898 154.699025 
Q 888.671792 155.2709 888.06398 155.569338 
Q 887.456167 155.866213 886.60148 155.866213 
L 885.029605 155.866213 
L 885.029605 154.919338 
z
M 884.356167 148.766213 
L 885.35148 148.766213 
L 885.35148 155.866213 
L 884.356167 155.866213 
L 884.356167 148.766213 
z
M 893.285855 152.341213 
L 893.281167 152.516213 
Q 893.159292 152.741213 892.912417 152.8459 
Q 892.665542 152.950588 892.329605 152.950588 
Q 891.821792 152.950588 891.435855 152.692775 
Q 891.049917 152.4334 890.837417 151.963088 
Q 890.624917 151.491213 890.624917 150.8709 
L 890.624917 150.866213 
Q 890.624917 150.17715 890.856167 149.68965 
Q 891.08898 149.200588 891.535855 148.947463 
Q 891.98273 148.692775 892.60773 148.692775 
Q 893.23273 148.692775 893.67648 148.95215 
Q 894.121792 149.211525 894.353042 149.705275 
Q 894.584292 150.197463 894.584292 150.891213 
L 894.584292 150.8959 
Q 894.584292 151.275588 894.485855 151.7084 
Q 894.38898 152.141213 894.209292 152.56465 
Q 894.179605 152.628713 894.149917 152.694338 
Q 894.121792 152.759963 894.087417 152.824025 
L 892.573355 155.866213 
L 891.498355 155.866213 
L 893.285855 152.341213 
z
M 892.60773 152.042775 
Q 893.07648 152.042775 893.33273 151.725588 
Q 893.58898 151.4084 893.58898 150.831838 
L 893.58898 150.82715 
Q 893.58898 150.266213 893.33273 149.9584 
Q 893.07648 149.650588 892.60773 149.650588 
Q 892.134292 149.650588 891.878042 149.9584 
Q 891.621792 150.266213 891.621792 150.831838 
L 891.621792 150.836525 
Q 891.621792 151.413088 891.878042 151.728713 
Q 892.134292 152.042775 892.60773 152.042775 
z
M 897.886441 155.93965 
Q 897.348941 155.93965 896.930191 155.730275 
Q 896.513003 155.519338 896.252066 155.119338 
Q 895.991128 154.719338 895.903628 154.156838 
L 895.903628 154.15215 
L 896.898941 154.15215 
L 896.898941 154.156838 
Q 896.953628 154.547463 897.211441 154.76465 
Q 897.470816 154.981838 897.886441 154.981838 
Q 898.364566 154.981838 898.625503 154.663088 
Q 898.886441 154.342775 898.886441 153.761525 
L 898.886441 153.166213 
Q 898.886441 152.58965 898.625503 152.2709 
Q 898.364566 151.950588 897.886441 151.950588 
Q 897.627066 151.950588 897.388003 152.097463 
Q 897.148941 152.242775 896.967691 152.506838 
L 896.059878 152.506838 
L 896.059878 148.766213 
L 899.677066 148.766213 
L 899.677066 149.713088 
L 897.055191 149.713088 
L 897.055191 151.309963 
Q 897.241128 151.1584 897.470816 151.075588 
Q 897.700503 150.992775 897.939566 150.992775 
Q 898.555191 150.992775 898.991128 151.247463 
Q 899.428628 151.500588 899.655191 151.98965 
Q 899.883316 152.47715 899.883316 153.166213 
L 899.883316 153.761525 
Q 899.883316 154.450588 899.648941 154.93965 
Q 899.414566 155.42715 898.964566 155.6834 
Q 898.516128 155.93965 897.886441 155.93965 
z
M 903.374527 155.93965 
Q 902.377652 155.93965 901.862027 155.4084 
Q 901.347964 154.875588 901.347964 153.922463 
L 901.347964 150.6959 
Q 901.347964 149.738088 901.865152 149.2084 
Q 902.382339 148.678713 903.374527 148.678713 
Q 904.369839 148.678713 904.885464 149.206838 
Q 905.401089 149.7334 905.401089 150.6959 
L 905.401089 153.922463 
Q 905.401089 154.880275 904.882339 155.409963 
Q 904.365152 155.93965 903.374527 155.93965 
z
M 903.374527 154.992775 
Q 903.901089 154.992775 904.152652 154.716213 
Q 904.404214 154.43965 904.404214 153.922463 
L 904.404214 150.6959 
Q 904.404214 150.17715 904.154214 149.90215 
Q 903.905777 149.625588 903.374527 149.625588 
Q 902.841714 149.625588 902.591714 149.90215 
Q 902.343277 150.17715 902.343277 150.6959 
L 902.343277 153.922463 
Q 902.343277 154.43965 902.594839 154.716213 
Q 902.846402 154.992775 903.374527 154.992775 
z
M 908.892105 155.93965 
Q 907.89523 155.93965 907.379605 155.4084 
Q 906.865542 154.875588 906.865542 153.922463 
L 906.865542 150.6959 
Q 906.865542 149.738088 907.38273 149.2084 
Q 907.899917 148.678713 908.892105 148.678713 
Q 909.887417 148.678713 910.403042 149.206838 
Q 910.918667 149.7334 910.918667 150.6959 
L 910.918667 153.922463 
Q 910.918667 154.880275 910.399917 155.409963 
Q 909.88273 155.93965 908.892105 155.93965 
z
M 908.892105 154.992775 
Q 909.418667 154.992775 909.67023 154.716213 
Q 909.921792 154.43965 909.921792 153.922463 
L 909.921792 150.6959 
Q 909.921792 150.17715 909.671792 149.90215 
Q 909.423355 149.625588 908.892105 149.625588 
Q 908.359292 149.625588 908.109292 149.90215 
Q 907.860855 150.17715 907.860855 150.6959 
L 907.860855 153.922463 
Q 907.860855 154.43965 908.112417 154.716213 
Q 908.36398 154.992775 908.892105 154.992775 
z
" style="fill: #ffffff"/>
   </g>
  </g>
 </g>
 <defs>
  <clipPath id="p85ebfb8406">
   <rect x="144" y="77.76" width="892.8" height="498.96"/>
  </clipPath>
 </defs>
</svg>
