<?xml version="1.0" encoding="utf-8" standalone="no"?>
<!DOCTYPE svg PUBLIC "-//W3C//DTD SVG 1.1//EN"
  "http://www.w3.org/Graphics/SVG/1.1/DTD/svg11.dtd">
<svg xmlns:xlink="http://www.w3.org/1999/xlink" width="1152pt" height="648pt" viewBox="0 0 1152 648" xmlns="http://www.w3.org/2000/svg" version="1.1">
 <metadata>
  <rdf:RDF xmlns:dc="http://purl.org/dc/elements/1.1/" xmlns:cc="http://creativecommons.org/ns#" xmlns:rdf="http://www.w3.org/1999/02/22-rdf-syntax-ns#">
   <cc:Work>
    <dc:type rdf:resource="http://purl.org/dc/dcmitype/StillImage"/>
    <dc:date>2025-09-19T13:51:42.268679</dc:date>
    <dc:format>image/svg+xml</dc:format>
    <dc:creator>
     <cc:Agent>
      <dc:title>Matplotlib v3.10.3, https://matplotlib.org/</dc:title>
     </cc:Agent>
    </dc:creator>
   </cc:Work>
  </rdf:RDF>
 </metadata>
 <defs>
  <style type="text/css">*{stroke-linejoin: round; stroke-linecap: butt}</style>
 </defs>
 <g id="figure_1">
  <g id="patch_1">
   <path d="M 0 648 
L 1152 648 
L 1152 0 
L 0 0 
L 0 648 
z
" style="fill: none"/>
  </g>
  <g id="axes_1">
   <g id="line2d_1">
    <path d="M 217.408 545.67375 
L 220.188606 544.465938 
L 222.969212 543.270064 
L 225.749818 542.086118 
L 228.530424 540.914089 
L 231.31103 539.753961 
L 234.091636 538.605718 
L 236.872242 537.469337 
L 239.652848 536.344796 
L 242.433455 535.232068 
L 245.214061 534.131123 
L 247.994667 533.04193 
L 250.775273 531.964453 
L 253.555879 530.898655 
L 256.336485 529.844497 
L 259.117091 528.801936 
L 261.897697 527.770929 
L 264.678303 526.751427 
L 267.458909 525.743383 
L 270.239515 524.746745 
L 273.020121 523.76146 
L 275.800727 522.787472 
L 278.581333 521.824726 
L 281.361939 520.873161 
L 284.142545 519.932718 
L 286.923152 519.003333 
L 289.703758 518.084944 
L 292.484364 517.177483 
L 295.26497 516.280884 
L 298.045576 515.395079 
L 300.826182 514.519997 
L 303.606788 513.655567 
L 306.387394 512.801716 
L 309.168 511.958371 
L 311.948606 511.125456 
L 314.729212 510.302897 
L 317.509818 509.490614 
L 320.290424 508.688531 
L 323.07103 507.896569 
L 325.851636 507.114648 
L 328.632242 506.342686 
L 331.412848 505.580603 
L 334.193455 504.828317 
L 336.974061 504.085744 
L 339.754667 503.352802 
L 342.535273 502.629407 
L 345.315879 501.915473 
L 348.096485 501.210917 
L 350.877091 500.515653 
L 353.657697 499.829596 
L 356.438303 499.152658 
L 359.218909 498.484755 
L 361.999515 497.825799 
L 364.780121 497.175704 
L 367.560727 496.534382 
L 370.341333 495.901748 
L 373.121939 495.277712 
L 375.902545 494.66219 
L 378.683152 494.055092 
L 381.463758 493.456333 
L 384.244364 492.865824 
L 387.02497 492.283479 
L 389.805576 491.709211 
L 392.586182 491.142933 
L 395.366788 490.584557 
L 398.147394 490.033999 
L 400.928 489.49117 
L 403.708606 488.955985 
L 406.489212 488.428359 
L 409.269818 487.908206 
L 412.050424 487.39544 
L 414.83103 486.889977 
L 417.611636 486.391733 
L 420.392242 485.900622 
L 423.172848 485.416561 
L 425.953455 484.939468 
L 428.734061 484.469258 
L 431.514667 484.00585 
L 434.295273 483.549161 
L 437.075879 483.09911 
L 439.856485 482.655616 
L 442.637091 482.218598 
L 445.417697 481.787977 
L 448.198303 481.363672 
L 450.978909 480.945606 
L 453.759515 480.533698 
L 456.540121 480.127873 
L 459.320727 479.728051 
L 462.101333 479.334158 
L 464.881939 478.946116 
L 467.662545 478.56385 
L 470.443152 478.187286 
L 473.223758 477.816349 
L 476.004364 477.450965 
L 478.78497 477.091062 
L 481.565576 476.736567 
L 484.346182 476.387408 
L 487.126788 476.043515 
L 489.907394 475.704817 
L 492.688 475.371244 
" clip-path="url(#p54b35f650c)" style="fill: none; stroke: #79a1f2; stroke-width: 3; stroke-linecap: round"/>
   </g>
   <g id="text_1">
    <path d="M 468.36098 481.428758 
Q 467.84848 481.428758 467.389105 481.331883 
Q 466.931292 481.233446 466.532855 481.038133 
Q 466.134417 480.842821 465.787542 480.549071 
L 465.787542 480.549071 
L 466.407855 479.788133 
L 466.407855 479.788133 
Q 466.814105 480.139696 467.301605 480.316258 
Q 467.790667 480.491258 468.36098 480.491258 
Q 469.132855 480.491258 469.557855 480.205321 
Q 469.982855 479.919383 469.982855 479.397508 
L 469.982855 479.392821 
Q 469.982855 479.020946 469.789105 478.803758 
Q 469.596918 478.586571 469.290667 478.481883 
Q 468.98598 478.377196 468.503168 478.288133 
Q 468.487543 478.283446 468.470355 478.283446 
Q 468.45473 478.283446 468.439105 478.278758 
L 468.365667 478.264696 
Q 467.653167 478.142821 467.206293 477.989696 
Q 466.759417 477.835008 466.44223 477.427196 
Q 466.125043 477.019383 466.125043 476.267821 
L 466.125043 476.263133 
Q 466.125043 475.603758 466.420355 475.138133 
Q 466.715667 474.670946 467.281293 474.427196 
Q 467.84848 474.181883 468.643793 474.181883 
Q 469.025042 474.181883 469.393793 474.266258 
Q 469.762542 474.349071 470.120355 474.513133 
Q 470.47973 474.675633 470.826605 474.924071 
L 470.826605 474.924071 
L 470.26098 475.716258 
L 470.26098 475.716258 
Q 469.85473 475.417821 469.451605 475.269383 
Q 469.050043 475.119383 468.643793 475.119383 
Q 467.91723 475.119383 467.514105 475.410008 
Q 467.11098 475.700633 467.11098 476.233446 
L 467.11098 476.238133 
Q 467.11098 476.603758 467.318792 476.814696 
Q 467.526605 477.024071 467.83598 477.124071 
Q 468.146917 477.224071 468.69848 477.331883 
Q 468.71723 477.336571 468.734418 477.339696 
Q 468.751605 477.341258 468.771917 477.345946 
Q 468.795355 477.350633 468.825042 477.356883 
Q 468.85473 477.361571 468.878168 477.366258 
Q 469.52348 477.497508 469.95473 477.678758 
Q 470.387542 477.858446 470.678167 478.261571 
Q 470.968793 478.664696 470.968793 479.363133 
L 470.968793 479.372508 
Q 470.968793 480.022508 470.66098 480.483446 
Q 470.353167 480.944383 469.768793 481.186571 
Q 469.18598 481.428758 468.36098 481.428758 
z
M 473.058832 480.408446 
L 474.665082 480.408446 
Q 475.451019 480.408446 475.882269 480.000633 
Q 476.315082 479.592821 476.315082 478.850633 
L 476.315082 476.760008 
Q 476.315082 476.017821 475.882269 475.610008 
Q 475.451019 475.202196 474.665082 475.202196 
L 473.058832 475.202196 
L 473.058832 474.255321 
L 474.635394 474.255321 
Q 475.490082 474.255321 476.094769 474.553758 
Q 476.701019 474.850633 477.018207 475.422508 
Q 477.335394 475.994383 477.335394 476.799071 
L 477.335394 478.811571 
Q 477.335394 479.616258 477.018207 480.188133 
Q 476.701019 480.760008 476.093207 481.058446 
Q 475.485394 481.355321 474.630707 481.355321 
L 473.058832 481.355321 
L 473.058832 480.408446 
z
M 472.385394 474.255321 
L 473.380707 474.255321 
L 473.380707 481.355321 
L 472.385394 481.355321 
L 472.385394 474.255321 
z
M 480.880707 481.428758 
Q 480.236957 481.428758 479.747894 481.185008 
Q 479.260394 480.939696 478.993207 480.492821 
Q 478.727582 480.045946 478.727582 479.455321 
L 478.727582 479.338133 
Q 478.727582 478.806883 478.993207 478.338133 
Q 479.260394 477.869383 479.704144 477.630321 
Q 479.327582 477.424071 479.101019 477.036571 
Q 478.874457 476.647508 478.874457 476.217821 
L 478.874457 476.047508 
Q 478.874457 475.491258 479.122894 475.069383 
Q 479.371332 474.645946 479.826019 474.414696 
Q 480.280707 474.181883 480.880707 474.181883 
Q 481.480707 474.181883 481.935394 474.414696 
Q 482.390082 474.645946 482.638519 475.069383 
Q 482.886957 475.491258 482.886957 476.047508 
L 482.886957 476.217821 
Q 482.886957 476.658446 482.655707 477.044383 
Q 482.424457 477.428758 482.043207 477.630321 
Q 482.491644 477.874071 482.761957 478.341258 
Q 483.033832 478.806883 483.033832 479.338133 
L 483.033832 479.455321 
Q 483.033832 480.045946 482.768207 480.492821 
Q 482.502582 480.939696 482.013519 481.185008 
Q 481.526019 481.428758 480.880707 481.428758 
z
M 480.880707 480.470946 
Q 481.227582 480.470946 481.490082 480.335008 
Q 481.754144 480.197508 481.897894 479.952196 
Q 482.043207 479.705321 482.043207 479.381883 
L 482.043207 479.314696 
Q 482.043207 478.986571 481.897894 478.741258 
Q 481.754144 478.494383 481.490082 478.358446 
Q 481.227582 478.220946 480.880707 478.220946 
Q 480.533832 478.220946 480.269769 478.358446 
Q 480.007269 478.494383 479.861957 478.742821 
Q 479.718207 478.991258 479.718207 479.319383 
L 479.718207 479.392821 
Q 479.718207 479.714696 479.861957 479.958446 
Q 480.007269 480.202196 480.269769 480.336571 
Q 480.533832 480.470946 480.880707 480.470946 
z
M 480.880707 477.263133 
Q 481.179144 477.263133 481.407269 477.135008 
Q 481.636957 477.005321 481.763519 476.766258 
Q 481.891644 476.525633 481.891644 476.213133 
L 481.891644 476.145946 
Q 481.891644 475.847508 481.763519 475.617821 
Q 481.636957 475.388133 481.407269 475.264696 
Q 481.179144 475.139696 480.880707 475.139696 
Q 480.582269 475.139696 480.352582 475.264696 
Q 480.124457 475.388133 479.996332 475.617821 
Q 479.869769 475.847508 479.869769 476.150633 
L 479.869769 476.224071 
Q 479.869769 476.530321 479.996332 476.767821 
Q 480.124457 477.005321 480.352582 477.135008 
Q 480.582269 477.263133 480.880707 477.263133 
z
M 491.135003 477.531883 
L 491.135003 478.772508 
Q 491.135003 479.563133 490.827191 480.166258 
Q 490.519378 480.769383 489.955316 481.099071 
Q 489.391253 481.428758 488.649066 481.428758 
Q 487.897503 481.428758 487.328753 481.119383 
Q 486.760003 480.808446 486.447503 480.242821 
Q 486.135003 479.675633 486.135003 478.928758 
L 486.135003 476.833446 
Q 486.135003 476.042821 486.442816 475.442821 
Q 486.750628 474.841258 487.313128 474.511571 
Q 487.877191 474.181883 488.619378 474.181883 
Q 489.230316 474.181883 489.744378 474.444383 
Q 490.260003 474.705321 490.606878 475.183446 
Q 490.953753 475.661571 491.075628 476.291258 
L 491.075628 476.291258 
L 489.997503 476.291258 
L 489.997503 476.291258 
Q 489.908441 475.935008 489.699066 475.678758 
Q 489.489691 475.422508 489.205316 475.288133 
Q 488.922503 475.153758 488.619378 475.153758 
Q 488.180316 475.153758 487.847503 475.364696 
Q 487.516253 475.574071 487.335003 475.952196 
Q 487.155316 476.330321 487.155316 476.833446 
L 487.155316 478.928758 
Q 487.155316 479.388133 487.339691 479.731883 
Q 487.525628 480.075633 487.864691 480.266258 
Q 488.205316 480.456883 488.649066 480.456883 
Q 489.088128 480.456883 489.419378 480.260008 
Q 489.752191 480.061571 489.933441 479.686571 
Q 490.114691 479.310008 490.114691 478.791258 
L 490.114691 478.483446 
L 488.674066 478.483446 
L 488.674066 477.531883 
L 491.135003 477.531883 
z
M 494.723285 481.428758 
Q 494.02016 481.428758 493.521722 481.164696 
Q 493.024847 480.900633 492.762347 480.391258 
Q 492.50141 479.880321 492.50141 479.158446 
L 492.50141 478.586571 
Q 492.50141 477.835008 492.752972 477.303758 
Q 493.004535 476.770946 493.48266 476.492821 
Q 493.962347 476.213133 494.635785 476.213133 
Q 495.27016 476.213133 495.718597 476.531883 
Q 496.168597 476.849071 496.404535 477.449071 
Q 496.642035 478.049071 496.642035 478.889696 
L 496.642035 479.220946 
L 493.224847 479.220946 
L 493.224847 478.420946 
L 495.69516 478.420946 
L 495.69516 478.420946 
Q 495.65141 477.800633 495.374847 477.456883 
Q 495.099847 477.111571 494.635785 477.111571 
Q 494.068597 477.111571 493.759222 477.483446 
Q 493.449847 477.853758 493.449847 478.533446 
L 493.449847 479.177196 
Q 493.449847 479.806883 493.781097 480.144383 
Q 494.11391 480.481883 494.723285 480.481883 
Q 495.02641 480.481883 495.323285 480.360008 
Q 495.621722 480.236571 495.856097 480.017821 
L 495.856097 480.017821 
L 496.510785 480.670946 
L 496.510785 480.670946 
Q 496.134222 481.033446 495.665472 481.231883 
Q 495.196722 481.428758 494.723285 481.428758 
z
M 498.009613 476.286571 
L 499.006488 476.286571 
L 499.006488 481.355321 
L 498.009613 481.355321 
L 498.009613 476.286571 
z
M 501.086175 478.283446 
Q 501.086175 477.747508 500.80805 477.455321 
Q 500.529925 477.161571 500.0268 477.161571 
Q 499.537738 477.161571 499.272113 477.420946 
Q 499.006488 477.678758 499.006488 478.147508 
L 498.903363 477.170946 
Q 499.137738 476.711571 499.515863 476.463133 
Q 499.893988 476.213133 500.353363 476.213133 
Q 501.178363 476.213133 501.629925 476.753758 
Q 502.081488 477.292821 502.081488 478.278758 
L 502.081488 481.355321 
L 501.086175 481.355321 
L 501.086175 478.283446 
z
M 505.261175 481.355321 
L 504.2643 481.355321 
L 504.2643 475.339696 
L 503.253363 475.960008 
L 503.253363 474.928758 
L 504.2643 474.255321 
L 505.261175 474.255321 
L 505.261175 481.355321 
z
" style="fill: #ffffff; stroke: #000000"/>
    <path d="M 468.36098 481.428758 
Q 467.84848 481.428758 467.389105 481.331883 
Q 466.931292 481.233446 466.532855 481.038133 
Q 466.134417 480.842821 465.787542 480.549071 
L 465.787542 480.549071 
L 466.407855 479.788133 
L 466.407855 479.788133 
Q 466.814105 480.139696 467.301605 480.316258 
Q 467.790667 480.491258 468.36098 480.491258 
Q 469.132855 480.491258 469.557855 480.205321 
Q 469.982855 479.919383 469.982855 479.397508 
L 469.982855 479.392821 
Q 469.982855 479.020946 469.789105 478.803758 
Q 469.596918 478.586571 469.290667 478.481883 
Q 468.98598 478.377196 468.503168 478.288133 
Q 468.487543 478.283446 468.470355 478.283446 
Q 468.45473 478.283446 468.439105 478.278758 
L 468.365667 478.264696 
Q 467.653167 478.142821 467.206293 477.989696 
Q 466.759417 477.835008 466.44223 477.427196 
Q 466.125043 477.019383 466.125043 476.267821 
L 466.125043 476.263133 
Q 466.125043 475.603758 466.420355 475.138133 
Q 466.715667 474.670946 467.281293 474.427196 
Q 467.84848 474.181883 468.643793 474.181883 
Q 469.025042 474.181883 469.393793 474.266258 
Q 469.762542 474.349071 470.120355 474.513133 
Q 470.47973 474.675633 470.826605 474.924071 
L 470.826605 474.924071 
L 470.26098 475.716258 
L 470.26098 475.716258 
Q 469.85473 475.417821 469.451605 475.269383 
Q 469.050043 475.119383 468.643793 475.119383 
Q 467.91723 475.119383 467.514105 475.410008 
Q 467.11098 475.700633 467.11098 476.233446 
L 467.11098 476.238133 
Q 467.11098 476.603758 467.318792 476.814696 
Q 467.526605 477.024071 467.83598 477.124071 
Q 468.146917 477.224071 468.69848 477.331883 
Q 468.71723 477.336571 468.734418 477.339696 
Q 468.751605 477.341258 468.771917 477.345946 
Q 468.795355 477.350633 468.825042 477.356883 
Q 468.85473 477.361571 468.878168 477.366258 
Q 469.52348 477.497508 469.95473 477.678758 
Q 470.387542 477.858446 470.678167 478.261571 
Q 470.968793 478.664696 470.968793 479.363133 
L 470.968793 479.372508 
Q 470.968793 480.022508 470.66098 480.483446 
Q 470.353167 480.944383 469.768793 481.186571 
Q 469.18598 481.428758 468.36098 481.428758 
z
M 473.058832 480.408446 
L 474.665082 480.408446 
Q 475.451019 480.408446 475.882269 480.000633 
Q 476.315082 479.592821 476.315082 478.850633 
L 476.315082 476.760008 
Q 476.315082 476.017821 475.882269 475.610008 
Q 475.451019 475.202196 474.665082 475.202196 
L 473.058832 475.202196 
L 473.058832 474.255321 
L 474.635394 474.255321 
Q 475.490082 474.255321 476.094769 474.553758 
Q 476.701019 474.850633 477.018207 475.422508 
Q 477.335394 475.994383 477.335394 476.799071 
L 477.335394 478.811571 
Q 477.335394 479.616258 477.018207 480.188133 
Q 476.701019 480.760008 476.093207 481.058446 
Q 475.485394 481.355321 474.630707 481.355321 
L 473.058832 481.355321 
L 473.058832 480.408446 
z
M 472.385394 474.255321 
L 473.380707 474.255321 
L 473.380707 481.355321 
L 472.385394 481.355321 
L 472.385394 474.255321 
z
M 480.880707 481.428758 
Q 480.236957 481.428758 479.747894 481.185008 
Q 479.260394 480.939696 478.993207 480.492821 
Q 478.727582 480.045946 478.727582 479.455321 
L 478.727582 479.338133 
Q 478.727582 478.806883 478.993207 478.338133 
Q 479.260394 477.869383 479.704144 477.630321 
Q 479.327582 477.424071 479.101019 477.036571 
Q 478.874457 476.647508 478.874457 476.217821 
L 478.874457 476.047508 
Q 478.874457 475.491258 479.122894 475.069383 
Q 479.371332 474.645946 479.826019 474.414696 
Q 480.280707 474.181883 480.880707 474.181883 
Q 481.480707 474.181883 481.935394 474.414696 
Q 482.390082 474.645946 482.638519 475.069383 
Q 482.886957 475.491258 482.886957 476.047508 
L 482.886957 476.217821 
Q 482.886957 476.658446 482.655707 477.044383 
Q 482.424457 477.428758 482.043207 477.630321 
Q 482.491644 477.874071 482.761957 478.341258 
Q 483.033832 478.806883 483.033832 479.338133 
L 483.033832 479.455321 
Q 483.033832 480.045946 482.768207 480.492821 
Q 482.502582 480.939696 482.013519 481.185008 
Q 481.526019 481.428758 480.880707 481.428758 
z
M 480.880707 480.470946 
Q 481.227582 480.470946 481.490082 480.335008 
Q 481.754144 480.197508 481.897894 479.952196 
Q 482.043207 479.705321 482.043207 479.381883 
L 482.043207 479.314696 
Q 482.043207 478.986571 481.897894 478.741258 
Q 481.754144 478.494383 481.490082 478.358446 
Q 481.227582 478.220946 480.880707 478.220946 
Q 480.533832 478.220946 480.269769 478.358446 
Q 480.007269 478.494383 479.861957 478.742821 
Q 479.718207 478.991258 479.718207 479.319383 
L 479.718207 479.392821 
Q 479.718207 479.714696 479.861957 479.958446 
Q 480.007269 480.202196 480.269769 480.336571 
Q 480.533832 480.470946 480.880707 480.470946 
z
M 480.880707 477.263133 
Q 481.179144 477.263133 481.407269 477.135008 
Q 481.636957 477.005321 481.763519 476.766258 
Q 481.891644 476.525633 481.891644 476.213133 
L 481.891644 476.145946 
Q 481.891644 475.847508 481.763519 475.617821 
Q 481.636957 475.388133 481.407269 475.264696 
Q 481.179144 475.139696 480.880707 475.139696 
Q 480.582269 475.139696 480.352582 475.264696 
Q 480.124457 475.388133 479.996332 475.617821 
Q 479.869769 475.847508 479.869769 476.150633 
L 479.869769 476.224071 
Q 479.869769 476.530321 479.996332 476.767821 
Q 480.124457 477.005321 480.352582 477.135008 
Q 480.582269 477.263133 480.880707 477.263133 
z
M 491.135003 477.531883 
L 491.135003 478.772508 
Q 491.135003 479.563133 490.827191 480.166258 
Q 490.519378 480.769383 489.955316 481.099071 
Q 489.391253 481.428758 488.649066 481.428758 
Q 487.897503 481.428758 487.328753 481.119383 
Q 486.760003 480.808446 486.447503 480.242821 
Q 486.135003 479.675633 486.135003 478.928758 
L 486.135003 476.833446 
Q 486.135003 476.042821 486.442816 475.442821 
Q 486.750628 474.841258 487.313128 474.511571 
Q 487.877191 474.181883 488.619378 474.181883 
Q 489.230316 474.181883 489.744378 474.444383 
Q 490.260003 474.705321 490.606878 475.183446 
Q 490.953753 475.661571 491.075628 476.291258 
L 491.075628 476.291258 
L 489.997503 476.291258 
L 489.997503 476.291258 
Q 489.908441 475.935008 489.699066 475.678758 
Q 489.489691 475.422508 489.205316 475.288133 
Q 488.922503 475.153758 488.619378 475.153758 
Q 488.180316 475.153758 487.847503 475.364696 
Q 487.516253 475.574071 487.335003 475.952196 
Q 487.155316 476.330321 487.155316 476.833446 
L 487.155316 478.928758 
Q 487.155316 479.388133 487.339691 479.731883 
Q 487.525628 480.075633 487.864691 480.266258 
Q 488.205316 480.456883 488.649066 480.456883 
Q 489.088128 480.456883 489.419378 480.260008 
Q 489.752191 480.061571 489.933441 479.686571 
Q 490.114691 479.310008 490.114691 478.791258 
L 490.114691 478.483446 
L 488.674066 478.483446 
L 488.674066 477.531883 
L 491.135003 477.531883 
z
M 494.723285 481.428758 
Q 494.02016 481.428758 493.521722 481.164696 
Q 493.024847 480.900633 492.762347 480.391258 
Q 492.50141 479.880321 492.50141 479.158446 
L 492.50141 478.586571 
Q 492.50141 477.835008 492.752972 477.303758 
Q 493.004535 476.770946 493.48266 476.492821 
Q 493.962347 476.213133 494.635785 476.213133 
Q 495.27016 476.213133 495.718597 476.531883 
Q 496.168597 476.849071 496.404535 477.449071 
Q 496.642035 478.049071 496.642035 478.889696 
L 496.642035 479.220946 
L 493.224847 479.220946 
L 493.224847 478.420946 
L 495.69516 478.420946 
L 495.69516 478.420946 
Q 495.65141 477.800633 495.374847 477.456883 
Q 495.099847 477.111571 494.635785 477.111571 
Q 494.068597 477.111571 493.759222 477.483446 
Q 493.449847 477.853758 493.449847 478.533446 
L 493.449847 479.177196 
Q 493.449847 479.806883 493.781097 480.144383 
Q 494.11391 480.481883 494.723285 480.481883 
Q 495.02641 480.481883 495.323285 480.360008 
Q 495.621722 480.236571 495.856097 480.017821 
L 495.856097 480.017821 
L 496.510785 480.670946 
L 496.510785 480.670946 
Q 496.134222 481.033446 495.665472 481.231883 
Q 495.196722 481.428758 494.723285 481.428758 
z
M 498.009613 476.286571 
L 499.006488 476.286571 
L 499.006488 481.355321 
L 498.009613 481.355321 
L 498.009613 476.286571 
z
M 501.086175 478.283446 
Q 501.086175 477.747508 500.80805 477.455321 
Q 500.529925 477.161571 500.0268 477.161571 
Q 499.537738 477.161571 499.272113 477.420946 
Q 499.006488 477.678758 499.006488 478.147508 
L 498.903363 477.170946 
Q 499.137738 476.711571 499.515863 476.463133 
Q 499.893988 476.213133 500.353363 476.213133 
Q 501.178363 476.213133 501.629925 476.753758 
Q 502.081488 477.292821 502.081488 478.278758 
L 502.081488 481.355321 
L 501.086175 481.355321 
L 501.086175 478.283446 
z
M 505.261175 481.355321 
L 504.2643 481.355321 
L 504.2643 475.339696 
L 503.253363 475.960008 
L 503.253363 474.928758 
L 504.2643 474.255321 
L 505.261175 474.255321 
L 505.261175 481.355321 
z
" style="fill: #ffffff"/>
   </g>
  </g>
 </g>
 <defs>
  <clipPath id="p54b35f650c">
   <rect x="144" y="77.76" width="892.8" height="498.96"/>
  </clipPath>
 </defs>
</svg>
