<?xml version="1.0" encoding="utf-8" standalone="no"?>
<!DOCTYPE svg PUBLIC "-//W3C//DTD SVG 1.1//EN"
  "http://www.w3.org/Graphics/SVG/1.1/DTD/svg11.dtd">
<svg xmlns:xlink="http://www.w3.org/1999/xlink" width="1152pt" height="648pt" viewBox="0 0 1152 648" xmlns="http://www.w3.org/2000/svg" version="1.1">
 <metadata>
  <rdf:RDF xmlns:dc="http://purl.org/dc/elements/1.1/" xmlns:cc="http://creativecommons.org/ns#" xmlns:rdf="http://www.w3.org/1999/02/22-rdf-syntax-ns#">
   <cc:Work>
    <dc:type rdf:resource="http://purl.org/dc/dcmitype/StillImage"/>
    <dc:date>2025-09-19T13:51:42.291709</dc:date>
    <dc:format>image/svg+xml</dc:format>
    <dc:creator>
     <cc:Agent>
      <dc:title>Matplotlib v3.10.3, https://matplotlib.org/</dc:title>
     </cc:Agent>
    </dc:creator>
   </cc:Work>
  </rdf:RDF>
 </metadata>
 <defs>
  <style type="text/css">*{stroke-linejoin: round; stroke-linecap: butt}</style>
 </defs>
 <g id="figure_1">
  <g id="patch_1">
   <path d="M 0 648 
L 1152 648 
L 1152 0 
L 0 0 
L 0 648 
z
" style="fill: none"/>
  </g>
  <g id="axes_1">
   <g id="line2d_1">
    <path d="M 214.432 549.374779 
L 216.501172 548.612274 
L 218.570343 547.862041 
L 220.639515 547.123884 
L 222.708687 546.397608 
L 224.777859 545.683022 
L 226.84703 544.97994 
L 228.916202 544.288174 
L 230.985374 543.607545 
L 233.054545 542.937871 
L 235.123717 542.278979 
L 237.192889 541.630693 
L 239.262061 540.992844 
L 241.331232 540.365263 
L 243.400404 539.747786 
L 245.469576 539.14025 
L 247.538747 538.542495 
L 249.607919 537.954364 
L 251.677091 537.375701 
L 253.746263 536.806356 
L 255.815434 536.246177 
L 257.884606 535.695018 
L 259.953778 535.152734 
L 262.022949 534.61918 
L 264.092121 534.094218 
L 266.161293 533.577709 
L 268.230465 533.069517 
L 270.299636 532.569508 
L 272.368808 532.07755 
L 274.43798 531.593514 
L 276.507152 531.117273 
L 278.576323 530.648701 
L 280.645495 530.187674 
L 282.714667 529.734072 
L 284.783838 529.287774 
L 286.85301 528.848663 
L 288.922182 528.416625 
L 290.991354 527.991543 
L 293.060525 527.573308 
L 295.129697 527.161808 
L 297.198869 526.756936 
L 299.26804 526.358584 
L 301.337212 525.966648 
L 303.406384 525.581024 
L 305.475556 525.201611 
L 307.544727 524.828308 
L 309.613899 524.461018 
L 311.683071 524.099644 
L 313.752242 523.74409 
L 315.821414 523.394263 
L 317.890586 523.05007 
L 319.959758 522.711422 
L 322.028929 522.378228 
L 324.098101 522.0504 
L 326.167273 521.727854 
L 328.236444 521.410502 
L 330.305616 521.098263 
L 332.374788 520.791052 
L 334.44396 520.488791 
L 336.513131 520.191398 
L 338.582303 519.898796 
L 340.651475 519.610907 
L 342.720646 519.327655 
L 344.789818 519.048966 
L 346.85899 518.774767 
L 348.928162 518.504984 
L 350.997333 518.239548 
L 353.066505 517.978387 
L 355.135677 517.721434 
L 357.204848 517.468619 
L 359.27402 517.219878 
L 361.343192 516.975143 
L 363.412364 516.734351 
L 365.481535 516.497439 
L 367.550707 516.264342 
L 369.619879 516.035001 
L 371.689051 515.809355 
L 373.758222 515.587344 
L 375.827394 515.368909 
L 377.896566 515.153994 
L 379.965737 514.942541 
L 382.034909 514.734494 
L 384.104081 514.5298 
L 386.173253 514.328403 
L 388.242424 514.130251 
L 390.311596 513.935291 
L 392.380768 513.743472 
L 394.449939 513.554743 
L 396.519111 513.369055 
L 398.588283 513.186359 
L 400.657455 513.006607 
L 402.726626 512.82975 
L 404.795798 512.655743 
L 406.86497 512.484539 
L 408.934141 512.316094 
L 411.003313 512.150362 
L 413.072485 511.987301 
L 415.141657 511.826867 
L 417.210828 511.669018 
L 419.28 511.513712 
" clip-path="url(#p36570a8e74)" style="fill: none; stroke: #3051f2; stroke-width: 3; stroke-linecap: round"/>
   </g>
   <g id="text_1">
    <path d="M 428.18498 513.233718 
Q 427.67248 513.233718 427.213105 513.136843 
Q 426.755292 513.038405 426.356855 512.843093 
Q 425.958417 512.64778 425.611542 512.35403 
L 425.611542 512.35403 
L 426.231855 511.593093 
L 426.231855 511.593093 
Q 426.638105 511.944655 427.125605 512.121218 
Q 427.614667 512.296218 428.18498 512.296218 
Q 428.956855 512.296218 429.381855 512.01028 
Q 429.806855 511.724343 429.806855 511.202468 
L 429.806855 511.19778 
Q 429.806855 510.825905 429.613105 510.608718 
Q 429.420917 510.39153 429.114667 510.286843 
Q 428.80998 510.182155 428.327167 510.093093 
Q 428.311542 510.088405 428.294355 510.088405 
Q 428.27873 510.088405 428.263105 510.083718 
L 428.189667 510.069655 
Q 427.477167 509.94778 427.030292 509.794655 
Q 426.583417 509.639968 426.26623 509.232155 
Q 425.949042 508.824343 425.949042 508.07278 
L 425.949042 508.068093 
Q 425.949042 507.408718 426.244355 506.943093 
Q 426.539667 506.475905 427.105292 506.232155 
Q 427.67248 505.986843 428.467792 505.986843 
Q 428.849042 505.986843 429.217792 506.071218 
Q 429.586542 506.15403 429.944355 506.318093 
Q 430.30373 506.480593 430.650605 506.72903 
L 430.650605 506.72903 
L 430.08498 507.521218 
L 430.08498 507.521218 
Q 429.67873 507.22278 429.275605 507.074343 
Q 428.874042 506.924343 428.467792 506.924343 
Q 427.74123 506.924343 427.338105 507.214968 
Q 426.93498 507.505593 426.93498 508.038405 
L 426.93498 508.043093 
Q 426.93498 508.408718 427.142792 508.619655 
Q 427.350605 508.82903 427.65998 508.92903 
Q 427.970917 509.02903 428.52248 509.136843 
Q 428.54123 509.14153 428.558417 509.144655 
Q 428.575605 509.146218 428.595917 509.150905 
Q 428.619355 509.155593 428.649042 509.161843 
Q 428.67873 509.16653 428.702167 509.171218 
Q 429.34748 509.302468 429.77873 509.483718 
Q 430.211542 509.663405 430.502167 510.06653 
Q 430.792792 510.469655 430.792792 511.168093 
L 430.792792 511.177468 
Q 430.792792 511.827468 430.48498 512.288405 
Q 430.177167 512.749343 429.592792 512.99153 
Q 429.00998 513.233718 428.18498 513.233718 
z
M 432.882832 512.213405 
L 434.489082 512.213405 
Q 435.275019 512.213405 435.706269 511.805593 
Q 436.139082 511.39778 436.139082 510.655593 
L 436.139082 508.564968 
Q 436.139082 507.82278 435.706269 507.414968 
Q 435.275019 507.007155 434.489082 507.007155 
L 432.882832 507.007155 
L 432.882832 506.06028 
L 434.459394 506.06028 
Q 435.314082 506.06028 435.918769 506.358718 
Q 436.525019 506.655593 436.842207 507.227468 
Q 437.159394 507.799343 437.159394 508.60403 
L 437.159394 510.61653 
Q 437.159394 511.421218 436.842207 511.993093 
Q 436.525019 512.564968 435.917207 512.863405 
Q 435.309394 513.16028 434.454707 513.16028 
L 432.882832 513.16028 
L 432.882832 512.213405 
z
M 432.209394 506.06028 
L 433.204707 506.06028 
L 433.204707 513.16028 
L 432.209394 513.16028 
L 432.209394 506.06028 
z
M 440.704707 513.233718 
Q 440.060957 513.233718 439.571894 512.989968 
Q 439.084394 512.744655 438.817207 512.29778 
Q 438.551582 511.850905 438.551582 511.26028 
L 438.551582 511.143093 
Q 438.551582 510.611843 438.817207 510.143093 
Q 439.084394 509.674343 439.528144 509.43528 
Q 439.151582 509.22903 438.925019 508.84153 
Q 438.698457 508.452468 438.698457 508.02278 
L 438.698457 507.852468 
Q 438.698457 507.296218 438.946894 506.874343 
Q 439.195332 506.450905 439.650019 506.219655 
Q 440.104707 505.986843 440.704707 505.986843 
Q 441.304707 505.986843 441.759394 506.219655 
Q 442.214082 506.450905 442.462519 506.874343 
Q 442.710957 507.296218 442.710957 507.852468 
L 442.710957 508.02278 
Q 442.710957 508.463405 442.479707 508.849343 
Q 442.248457 509.233718 441.867207 509.43528 
Q 442.315644 509.67903 442.585957 510.146218 
Q 442.857832 510.611843 442.857832 511.143093 
L 442.857832 511.26028 
Q 442.857832 511.850905 442.592207 512.29778 
Q 442.326582 512.744655 441.837519 512.989968 
Q 441.350019 513.233718 440.704707 513.233718 
z
M 440.704707 512.275905 
Q 441.051582 512.275905 441.314082 512.139968 
Q 441.578144 512.002468 441.721894 511.757155 
Q 441.867207 511.51028 441.867207 511.186843 
L 441.867207 511.119655 
Q 441.867207 510.79153 441.721894 510.546218 
Q 441.578144 510.299343 441.314082 510.163405 
Q 441.051582 510.025905 440.704707 510.025905 
Q 440.357832 510.025905 440.093769 510.163405 
Q 439.831269 510.299343 439.685957 510.54778 
Q 439.542207 510.796218 439.542207 511.124343 
L 439.542207 511.19778 
Q 439.542207 511.519655 439.685957 511.763405 
Q 439.831269 512.007155 440.093769 512.14153 
Q 440.357832 512.275905 440.704707 512.275905 
z
M 440.704707 509.068093 
Q 441.003144 509.068093 441.231269 508.939968 
Q 441.460957 508.81028 441.587519 508.571218 
Q 441.715644 508.330593 441.715644 508.018093 
L 441.715644 507.950905 
Q 441.715644 507.652468 441.587519 507.42278 
Q 441.460957 507.193093 441.231269 507.069655 
Q 441.003144 506.944655 440.704707 506.944655 
Q 440.406269 506.944655 440.176582 507.069655 
Q 439.948457 507.193093 439.820332 507.42278 
Q 439.693769 507.652468 439.693769 507.955593 
L 439.693769 508.02903 
Q 439.693769 508.33528 439.820332 508.57278 
Q 439.948457 508.81028 440.176582 508.939968 
Q 440.406269 509.068093 440.704707 509.068093 
z
M 446.329707 513.233718 
Q 445.685957 513.233718 445.196894 512.989968 
Q 444.709394 512.744655 444.442207 512.29778 
Q 444.176582 511.850905 444.176582 511.26028 
L 444.176582 511.143093 
Q 444.176582 510.611843 444.442207 510.143093 
Q 444.709394 509.674343 445.153144 509.43528 
Q 444.776582 509.22903 444.550019 508.84153 
Q 444.323457 508.452468 444.323457 508.02278 
L 444.323457 507.852468 
Q 444.323457 507.296218 444.571894 506.874343 
Q 444.820332 506.450905 445.275019 506.219655 
Q 445.729707 505.986843 446.329707 505.986843 
Q 446.929707 505.986843 447.384394 506.219655 
Q 447.839082 506.450905 448.087519 506.874343 
Q 448.335957 507.296218 448.335957 507.852468 
L 448.335957 508.02278 
Q 448.335957 508.463405 448.104707 508.849343 
Q 447.873457 509.233718 447.492207 509.43528 
Q 447.940644 509.67903 448.210957 510.146218 
Q 448.482832 510.611843 448.482832 511.143093 
L 448.482832 511.26028 
Q 448.482832 511.850905 448.217207 512.29778 
Q 447.951582 512.744655 447.462519 512.989968 
Q 446.975019 513.233718 446.329707 513.233718 
z
M 446.329707 512.275905 
Q 446.676582 512.275905 446.939082 512.139968 
Q 447.203144 512.002468 447.346894 511.757155 
Q 447.492207 511.51028 447.492207 511.186843 
L 447.492207 511.119655 
Q 447.492207 510.79153 447.346894 510.546218 
Q 447.203144 510.299343 446.939082 510.163405 
Q 446.676582 510.025905 446.329707 510.025905 
Q 445.982832 510.025905 445.718769 510.163405 
Q 445.456269 510.299343 445.310957 510.54778 
Q 445.167207 510.796218 445.167207 511.124343 
L 445.167207 511.19778 
Q 445.167207 511.519655 445.310957 511.763405 
Q 445.456269 512.007155 445.718769 512.14153 
Q 445.982832 512.275905 446.329707 512.275905 
z
M 446.329707 509.068093 
Q 446.628144 509.068093 446.856269 508.939968 
Q 447.085957 508.81028 447.212519 508.571218 
Q 447.340644 508.330593 447.340644 508.018093 
L 447.340644 507.950905 
Q 447.340644 507.652468 447.212519 507.42278 
Q 447.085957 507.193093 446.856269 507.069655 
Q 446.628144 506.944655 446.329707 506.944655 
Q 446.031269 506.944655 445.801582 507.069655 
Q 445.573457 507.193093 445.445332 507.42278 
Q 445.318769 507.652468 445.318769 507.955593 
L 445.318769 508.02903 
Q 445.318769 508.33528 445.445332 508.57278 
Q 445.573457 508.81028 445.801582 508.939968 
Q 446.031269 509.068093 446.329707 509.068093 
z
M 451.954707 513.233718 
Q 451.310957 513.233718 450.821894 512.989968 
Q 450.334394 512.744655 450.067207 512.29778 
Q 449.801582 511.850905 449.801582 511.26028 
L 449.801582 511.143093 
Q 449.801582 510.611843 450.067207 510.143093 
Q 450.334394 509.674343 450.778144 509.43528 
Q 450.401582 509.22903 450.175019 508.84153 
Q 449.948457 508.452468 449.948457 508.02278 
L 449.948457 507.852468 
Q 449.948457 507.296218 450.196894 506.874343 
Q 450.445332 506.450905 450.900019 506.219655 
Q 451.354707 505.986843 451.954707 505.986843 
Q 452.554707 505.986843 453.009394 506.219655 
Q 453.464082 506.450905 453.712519 506.874343 
Q 453.960957 507.296218 453.960957 507.852468 
L 453.960957 508.02278 
Q 453.960957 508.463405 453.729707 508.849343 
Q 453.498457 509.233718 453.117207 509.43528 
Q 453.565644 509.67903 453.835957 510.146218 
Q 454.107832 510.611843 454.107832 511.143093 
L 454.107832 511.26028 
Q 454.107832 511.850905 453.842207 512.29778 
Q 453.576582 512.744655 453.087519 512.989968 
Q 452.600019 513.233718 451.954707 513.233718 
z
M 451.954707 512.275905 
Q 452.301582 512.275905 452.564082 512.139968 
Q 452.828144 512.002468 452.971894 511.757155 
Q 453.117207 511.51028 453.117207 511.186843 
L 453.117207 511.119655 
Q 453.117207 510.79153 452.971894 510.546218 
Q 452.828144 510.299343 452.564082 510.163405 
Q 452.301582 510.025905 451.954707 510.025905 
Q 451.607832 510.025905 451.343769 510.163405 
Q 451.081269 510.299343 450.935957 510.54778 
Q 450.792207 510.796218 450.792207 511.124343 
L 450.792207 511.19778 
Q 450.792207 511.519655 450.935957 511.763405 
Q 451.081269 512.007155 451.343769 512.14153 
Q 451.607832 512.275905 451.954707 512.275905 
z
M 451.954707 509.068093 
Q 452.253144 509.068093 452.481269 508.939968 
Q 452.710957 508.81028 452.837519 508.571218 
Q 452.965644 508.330593 452.965644 508.018093 
L 452.965644 507.950905 
Q 452.965644 507.652468 452.837519 507.42278 
Q 452.710957 507.193093 452.481269 507.069655 
Q 452.253144 506.944655 451.954707 506.944655 
Q 451.656269 506.944655 451.426582 507.069655 
Q 451.198457 507.193093 451.070332 507.42278 
Q 450.943769 507.652468 450.943769 507.955593 
L 450.943769 508.02903 
Q 450.943769 508.33528 451.070332 508.57278 
Q 451.198457 508.81028 451.426582 508.939968 
Q 451.656269 509.068093 451.954707 509.068093 
z
" style="fill: #ffffff; stroke: #000000"/>
    <path d="M 428.18498 513.233718 
Q 427.67248 513.233718 427.213105 513.136843 
Q 426.755292 513.038405 426.356855 512.843093 
Q 425.958417 512.64778 425.611542 512.35403 
L 425.611542 512.35403 
L 426.231855 511.593093 
L 426.231855 511.593093 
Q 426.638105 511.944655 427.125605 512.121218 
Q 427.614667 512.296218 428.18498 512.296218 
Q 428.956855 512.296218 429.381855 512.01028 
Q 429.806855 511.724343 429.806855 511.202468 
L 429.806855 511.19778 
Q 429.806855 510.825905 429.613105 510.608718 
Q 429.420917 510.39153 429.114667 510.286843 
Q 428.80998 510.182155 428.327167 510.093093 
Q 428.311542 510.088405 428.294355 510.088405 
Q 428.27873 510.088405 428.263105 510.083718 
L 428.189667 510.069655 
Q 427.477167 509.94778 427.030292 509.794655 
Q 426.583417 509.639968 426.26623 509.232155 
Q 425.949042 508.824343 425.949042 508.07278 
L 425.949042 508.068093 
Q 425.949042 507.408718 426.244355 506.943093 
Q 426.539667 506.475905 427.105292 506.232155 
Q 427.67248 505.986843 428.467792 505.986843 
Q 428.849042 505.986843 429.217792 506.071218 
Q 429.586542 506.15403 429.944355 506.318093 
Q 430.30373 506.480593 430.650605 506.72903 
L 430.650605 506.72903 
L 430.08498 507.521218 
L 430.08498 507.521218 
Q 429.67873 507.22278 429.275605 507.074343 
Q 428.874042 506.924343 428.467792 506.924343 
Q 427.74123 506.924343 427.338105 507.214968 
Q 426.93498 507.505593 426.93498 508.038405 
L 426.93498 508.043093 
Q 426.93498 508.408718 427.142792 508.619655 
Q 427.350605 508.82903 427.65998 508.92903 
Q 427.970917 509.02903 428.52248 509.136843 
Q 428.54123 509.14153 428.558417 509.144655 
Q 428.575605 509.146218 428.595917 509.150905 
Q 428.619355 509.155593 428.649042 509.161843 
Q 428.67873 509.16653 428.702167 509.171218 
Q 429.34748 509.302468 429.77873 509.483718 
Q 430.211542 509.663405 430.502167 510.06653 
Q 430.792792 510.469655 430.792792 511.168093 
L 430.792792 511.177468 
Q 430.792792 511.827468 430.48498 512.288405 
Q 430.177167 512.749343 429.592792 512.99153 
Q 429.00998 513.233718 428.18498 513.233718 
z
M 432.882832 512.213405 
L 434.489082 512.213405 
Q 435.275019 512.213405 435.706269 511.805593 
Q 436.139082 511.39778 436.139082 510.655593 
L 436.139082 508.564968 
Q 436.139082 507.82278 435.706269 507.414968 
Q 435.275019 507.007155 434.489082 507.007155 
L 432.882832 507.007155 
L 432.882832 506.06028 
L 434.459394 506.06028 
Q 435.314082 506.06028 435.918769 506.358718 
Q 436.525019 506.655593 436.842207 507.227468 
Q 437.159394 507.799343 437.159394 508.60403 
L 437.159394 510.61653 
Q 437.159394 511.421218 436.842207 511.993093 
Q 436.525019 512.564968 435.917207 512.863405 
Q 435.309394 513.16028 434.454707 513.16028 
L 432.882832 513.16028 
L 432.882832 512.213405 
z
M 432.209394 506.06028 
L 433.204707 506.06028 
L 433.204707 513.16028 
L 432.209394 513.16028 
L 432.209394 506.06028 
z
M 440.704707 513.233718 
Q 440.060957 513.233718 439.571894 512.989968 
Q 439.084394 512.744655 438.817207 512.29778 
Q 438.551582 511.850905 438.551582 511.26028 
L 438.551582 511.143093 
Q 438.551582 510.611843 438.817207 510.143093 
Q 439.084394 509.674343 439.528144 509.43528 
Q 439.151582 509.22903 438.925019 508.84153 
Q 438.698457 508.452468 438.698457 508.02278 
L 438.698457 507.852468 
Q 438.698457 507.296218 438.946894 506.874343 
Q 439.195332 506.450905 439.650019 506.219655 
Q 440.104707 505.986843 440.704707 505.986843 
Q 441.304707 505.986843 441.759394 506.219655 
Q 442.214082 506.450905 442.462519 506.874343 
Q 442.710957 507.296218 442.710957 507.852468 
L 442.710957 508.02278 
Q 442.710957 508.463405 442.479707 508.849343 
Q 442.248457 509.233718 441.867207 509.43528 
Q 442.315644 509.67903 442.585957 510.146218 
Q 442.857832 510.611843 442.857832 511.143093 
L 442.857832 511.26028 
Q 442.857832 511.850905 442.592207 512.29778 
Q 442.326582 512.744655 441.837519 512.989968 
Q 441.350019 513.233718 440.704707 513.233718 
z
M 440.704707 512.275905 
Q 441.051582 512.275905 441.314082 512.139968 
Q 441.578144 512.002468 441.721894 511.757155 
Q 441.867207 511.51028 441.867207 511.186843 
L 441.867207 511.119655 
Q 441.867207 510.79153 441.721894 510.546218 
Q 441.578144 510.299343 441.314082 510.163405 
Q 441.051582 510.025905 440.704707 510.025905 
Q 440.357832 510.025905 440.093769 510.163405 
Q 439.831269 510.299343 439.685957 510.54778 
Q 439.542207 510.796218 439.542207 511.124343 
L 439.542207 511.19778 
Q 439.542207 511.519655 439.685957 511.763405 
Q 439.831269 512.007155 440.093769 512.14153 
Q 440.357832 512.275905 440.704707 512.275905 
z
M 440.704707 509.068093 
Q 441.003144 509.068093 441.231269 508.939968 
Q 441.460957 508.81028 441.587519 508.571218 
Q 441.715644 508.330593 441.715644 508.018093 
L 441.715644 507.950905 
Q 441.715644 507.652468 441.587519 507.42278 
Q 441.460957 507.193093 441.231269 507.069655 
Q 441.003144 506.944655 440.704707 506.944655 
Q 440.406269 506.944655 440.176582 507.069655 
Q 439.948457 507.193093 439.820332 507.42278 
Q 439.693769 507.652468 439.693769 507.955593 
L 439.693769 508.02903 
Q 439.693769 508.33528 439.820332 508.57278 
Q 439.948457 508.81028 440.176582 508.939968 
Q 440.406269 509.068093 440.704707 509.068093 
z
M 446.329707 513.233718 
Q 445.685957 513.233718 445.196894 512.989968 
Q 444.709394 512.744655 444.442207 512.29778 
Q 444.176582 511.850905 444.176582 511.26028 
L 444.176582 511.143093 
Q 444.176582 510.611843 444.442207 510.143093 
Q 444.709394 509.674343 445.153144 509.43528 
Q 444.776582 509.22903 444.550019 508.84153 
Q 444.323457 508.452468 444.323457 508.02278 
L 444.323457 507.852468 
Q 444.323457 507.296218 444.571894 506.874343 
Q 444.820332 506.450905 445.275019 506.219655 
Q 445.729707 505.986843 446.329707 505.986843 
Q 446.929707 505.986843 447.384394 506.219655 
Q 447.839082 506.450905 448.087519 506.874343 
Q 448.335957 507.296218 448.335957 507.852468 
L 448.335957 508.02278 
Q 448.335957 508.463405 448.104707 508.849343 
Q 447.873457 509.233718 447.492207 509.43528 
Q 447.940644 509.67903 448.210957 510.146218 
Q 448.482832 510.611843 448.482832 511.143093 
L 448.482832 511.26028 
Q 448.482832 511.850905 448.217207 512.29778 
Q 447.951582 512.744655 447.462519 512.989968 
Q 446.975019 513.233718 446.329707 513.233718 
z
M 446.329707 512.275905 
Q 446.676582 512.275905 446.939082 512.139968 
Q 447.203144 512.002468 447.346894 511.757155 
Q 447.492207 511.51028 447.492207 511.186843 
L 447.492207 511.119655 
Q 447.492207 510.79153 447.346894 510.546218 
Q 447.203144 510.299343 446.939082 510.163405 
Q 446.676582 510.025905 446.329707 510.025905 
Q 445.982832 510.025905 445.718769 510.163405 
Q 445.456269 510.299343 445.310957 510.54778 
Q 445.167207 510.796218 445.167207 511.124343 
L 445.167207 511.19778 
Q 445.167207 511.519655 445.310957 511.763405 
Q 445.456269 512.007155 445.718769 512.14153 
Q 445.982832 512.275905 446.329707 512.275905 
z
M 446.329707 509.068093 
Q 446.628144 509.068093 446.856269 508.939968 
Q 447.085957 508.81028 447.212519 508.571218 
Q 447.340644 508.330593 447.340644 508.018093 
L 447.340644 507.950905 
Q 447.340644 507.652468 447.212519 507.42278 
Q 447.085957 507.193093 446.856269 507.069655 
Q 446.628144 506.944655 446.329707 506.944655 
Q 446.031269 506.944655 445.801582 507.069655 
Q 445.573457 507.193093 445.445332 507.42278 
Q 445.318769 507.652468 445.318769 507.955593 
L 445.318769 508.02903 
Q 445.318769 508.33528 445.445332 508.57278 
Q 445.573457 508.81028 445.801582 508.939968 
Q 446.031269 509.068093 446.329707 509.068093 
z
M 451.954707 513.233718 
Q 451.310957 513.233718 450.821894 512.989968 
Q 450.334394 512.744655 450.067207 512.29778 
Q 449.801582 511.850905 449.801582 511.26028 
L 449.801582 511.143093 
Q 449.801582 510.611843 450.067207 510.143093 
Q 450.334394 509.674343 450.778144 509.43528 
Q 450.401582 509.22903 450.175019 508.84153 
Q 449.948457 508.452468 449.948457 508.02278 
L 449.948457 507.852468 
Q 449.948457 507.296218 450.196894 506.874343 
Q 450.445332 506.450905 450.900019 506.219655 
Q 451.354707 505.986843 451.954707 505.986843 
Q 452.554707 505.986843 453.009394 506.219655 
Q 453.464082 506.450905 453.712519 506.874343 
Q 453.960957 507.296218 453.960957 507.852468 
L 453.960957 508.02278 
Q 453.960957 508.463405 453.729707 508.849343 
Q 453.498457 509.233718 453.117207 509.43528 
Q 453.565644 509.67903 453.835957 510.146218 
Q 454.107832 510.611843 454.107832 511.143093 
L 454.107832 511.26028 
Q 454.107832 511.850905 453.842207 512.29778 
Q 453.576582 512.744655 453.087519 512.989968 
Q 452.600019 513.233718 451.954707 513.233718 
z
M 451.954707 512.275905 
Q 452.301582 512.275905 452.564082 512.139968 
Q 452.828144 512.002468 452.971894 511.757155 
Q 453.117207 511.51028 453.117207 511.186843 
L 453.117207 511.119655 
Q 453.117207 510.79153 452.971894 510.546218 
Q 452.828144 510.299343 452.564082 510.163405 
Q 452.301582 510.025905 451.954707 510.025905 
Q 451.607832 510.025905 451.343769 510.163405 
Q 451.081269 510.299343 450.935957 510.54778 
Q 450.792207 510.796218 450.792207 511.124343 
L 450.792207 511.19778 
Q 450.792207 511.519655 450.935957 511.763405 
Q 451.081269 512.007155 451.343769 512.14153 
Q 451.607832 512.275905 451.954707 512.275905 
z
M 451.954707 509.068093 
Q 452.253144 509.068093 452.481269 508.939968 
Q 452.710957 508.81028 452.837519 508.571218 
Q 452.965644 508.330593 452.965644 508.018093 
L 452.965644 507.950905 
Q 452.965644 507.652468 452.837519 507.42278 
Q 452.710957 507.193093 452.481269 507.069655 
Q 452.253144 506.944655 451.954707 506.944655 
Q 451.656269 506.944655 451.426582 507.069655 
Q 451.198457 507.193093 451.070332 507.42278 
Q 450.943769 507.652468 450.943769 507.955593 
L 450.943769 508.02903 
Q 450.943769 508.33528 451.070332 508.57278 
Q 451.198457 508.81028 451.426582 508.939968 
Q 451.656269 509.068093 451.954707 509.068093 
z
" style="fill: #ffffff"/>
   </g>
  </g>
 </g>
 <defs>
  <clipPath id="p36570a8e74">
   <rect x="144" y="77.76" width="892.8" height="498.96"/>
  </clipPath>
 </defs>
</svg>
