<?xml version="1.0" encoding="utf-8" standalone="no"?>
<!DOCTYPE svg PUBLIC "-//W3C//DTD SVG 1.1//EN"
  "http://www.w3.org/Graphics/SVG/1.1/DTD/svg11.dtd">
<svg xmlns:xlink="http://www.w3.org/1999/xlink" width="1152pt" height="648pt" viewBox="0 0 1152 648" xmlns="http://www.w3.org/2000/svg" version="1.1">
 <metadata>
  <rdf:RDF xmlns:dc="http://purl.org/dc/elements/1.1/" xmlns:cc="http://creativecommons.org/ns#" xmlns:rdf="http://www.w3.org/1999/02/22-rdf-syntax-ns#">
   <cc:Work>
    <dc:type rdf:resource="http://purl.org/dc/dcmitype/StillImage"/>
    <dc:date>2025-09-19T13:51:42.630850</dc:date>
    <dc:format>image/svg+xml</dc:format>
    <dc:creator>
     <cc:Agent>
      <dc:title>Matplotlib v3.10.3, https://matplotlib.org/</dc:title>
     </cc:Agent>
    </dc:creator>
   </cc:Work>
  </rdf:RDF>
 </metadata>
 <defs>
  <style type="text/css">*{stroke-linejoin: round; stroke-linecap: butt}</style>
 </defs>
 <g id="figure_1">
  <g id="patch_1">
   <path d="M 0 648 
L 1152 648 
L 1152 0 
L 0 0 
L 0 648 
z
" style="fill: none"/>
  </g>
  <g id="axes_1">
   <g id="line2d_1">
    <path d="M 182.192 558.942376 
L 183.334303 558.333192 
L 184.476606 557.728478 
L 185.618909 557.128201 
L 186.761212 556.532329 
L 187.903515 555.94083 
L 189.045818 555.353671 
L 190.188121 554.770822 
L 191.330424 554.19225 
L 192.472727 553.617925 
L 193.61503 553.047815 
L 194.757333 552.481891 
L 195.899636 551.92012 
L 197.041939 551.362473 
L 198.184242 550.80892 
L 199.326545 550.259431 
L 200.468848 549.713976 
L 201.611152 549.172526 
L 202.753455 548.635052 
L 203.895758 548.101523 
L 205.038061 547.571913 
L 206.180364 547.046192 
L 207.322667 546.524331 
L 208.46497 546.006303 
L 209.607273 545.492079 
L 210.749576 544.981631 
L 211.891879 544.474933 
L 213.034182 543.971957 
L 214.176485 543.472675 
L 215.318788 542.97706 
L 216.461091 542.485086 
L 217.603394 541.996726 
L 218.745697 541.511953 
L 219.888 541.030742 
L 221.030303 540.553067 
L 222.172606 540.078901 
L 223.314909 539.608218 
L 224.457212 539.140994 
L 225.599515 538.677203 
L 226.741818 538.21682 
L 227.884121 537.75982 
L 229.026424 537.306179 
L 230.168727 536.855871 
L 231.31103 536.408872 
L 232.453333 535.965158 
L 233.595636 535.524706 
L 234.737939 535.087491 
L 235.880242 534.653489 
L 237.022545 534.222677 
L 238.164848 533.795032 
L 239.307152 533.37053 
L 240.449455 532.949149 
L 241.591758 532.530866 
L 242.734061 532.115657 
L 243.876364 531.703501 
L 245.018667 531.294375 
L 246.16097 530.888257 
L 247.303273 530.485124 
L 248.445576 530.084956 
L 249.587879 529.68773 
L 250.730182 529.293425 
L 251.872485 528.902019 
L 253.014788 528.513492 
L 254.157091 528.127821 
L 255.299394 527.744987 
L 256.441697 527.364967 
L 257.584 526.987743 
L 258.726303 526.613293 
L 259.868606 526.241596 
L 261.010909 525.872634 
L 262.153212 525.506385 
L 263.295515 525.14283 
L 264.437818 524.781949 
L 265.580121 524.423723 
L 266.722424 524.068131 
L 267.864727 523.715155 
L 269.00703 523.364776 
L 270.149333 523.016975 
L 271.291636 522.671731 
L 272.433939 522.329028 
L 273.576242 521.988846 
L 274.718545 521.651167 
L 275.860848 521.315972 
L 277.003152 520.983243 
L 278.145455 520.652963 
L 279.287758 520.325112 
L 280.430061 519.999674 
L 281.572364 519.67663 
L 282.714667 519.355964 
L 283.85697 519.037657 
L 284.999273 518.721692 
L 286.141576 518.408053 
L 287.283879 518.096721 
L 288.426182 517.787681 
L 289.568485 517.480915 
L 290.710788 517.176407 
L 291.853091 516.87414 
L 292.995394 516.574097 
L 294.137697 516.276263 
L 295.28 515.980621 
" clip-path="url(#pa204caeb75)" style="fill: none; stroke: #f2f279; stroke-width: 3; stroke-linecap: round"/>
   </g>
   <g id="text_1">
    <path d="M 302.725605 516.680314 
L 304.331855 516.680314 
Q 305.117792 516.680314 305.549042 516.272501 
Q 305.981855 515.864689 305.981855 515.122501 
L 305.981855 513.031876 
Q 305.981855 512.289689 305.549042 511.881876 
Q 305.117792 511.474064 304.331855 511.474064 
L 302.725605 511.474064 
L 302.725605 510.527189 
L 304.302167 510.527189 
Q 305.156855 510.527189 305.761542 510.825626 
Q 306.367792 511.122501 306.68498 511.694376 
Q 307.002167 512.266251 307.002167 513.070939 
L 307.002167 515.083439 
Q 307.002167 515.888126 306.68498 516.460001 
Q 306.367792 517.031876 305.75998 517.330314 
Q 305.152167 517.627189 304.29748 517.627189 
L 302.725605 517.627189 
L 302.725605 516.680314 
z
M 302.052167 510.527189 
L 303.04748 510.527189 
L 303.04748 517.627189 
L 302.052167 517.627189 
L 302.052167 510.527189 
z
M 310.54748 517.700626 
Q 309.90373 517.700626 309.414667 517.456876 
Q 308.927167 517.211564 308.65998 516.764689 
Q 308.394355 516.317814 308.394355 515.727189 
L 308.394355 515.610001 
Q 308.394355 515.078751 308.65998 514.610001 
Q 308.927167 514.141251 309.370917 513.902189 
Q 308.994355 513.695939 308.767792 513.308439 
Q 308.54123 512.919376 308.54123 512.489689 
L 308.54123 512.319376 
Q 308.54123 511.763126 308.789667 511.341251 
Q 309.038105 510.917814 309.492792 510.686564 
Q 309.94748 510.453751 310.54748 510.453751 
Q 311.14748 510.453751 311.602167 510.686564 
Q 312.056855 510.917814 312.305292 511.341251 
Q 312.55373 511.763126 312.55373 512.319376 
L 312.55373 512.489689 
Q 312.55373 512.930314 312.32248 513.316251 
Q 312.09123 513.700626 311.70998 513.902189 
Q 312.158417 514.145939 312.42873 514.613126 
Q 312.700605 515.078751 312.700605 515.610001 
L 312.700605 515.727189 
Q 312.700605 516.317814 312.43498 516.764689 
Q 312.169355 517.211564 311.680292 517.456876 
Q 311.192792 517.700626 310.54748 517.700626 
z
M 310.54748 516.742814 
Q 310.894355 516.742814 311.156855 516.606876 
Q 311.420917 516.469376 311.564667 516.224064 
Q 311.70998 515.977189 311.70998 515.653751 
L 311.70998 515.586564 
Q 311.70998 515.258439 311.564667 515.013126 
Q 311.420917 514.766251 311.156855 514.630314 
Q 310.894355 514.492814 310.54748 514.492814 
Q 310.200605 514.492814 309.936542 514.630314 
Q 309.674042 514.766251 309.52873 515.014689 
Q 309.38498 515.263126 309.38498 515.591251 
L 309.38498 515.664689 
Q 309.38498 515.986564 309.52873 516.230314 
Q 309.674042 516.474064 309.936542 516.608439 
Q 310.200605 516.742814 310.54748 516.742814 
z
M 310.54748 513.535001 
Q 310.845917 513.535001 311.074042 513.406876 
Q 311.30373 513.277189 311.430292 513.038126 
Q 311.558417 512.797501 311.558417 512.485001 
L 311.558417 512.417814 
Q 311.558417 512.119376 311.430292 511.889689 
Q 311.30373 511.660001 311.074042 511.536564 
Q 310.845917 511.411564 310.54748 511.411564 
Q 310.249042 511.411564 310.019355 511.536564 
Q 309.79123 511.660001 309.663105 511.889689 
Q 309.536542 512.119376 309.536542 512.422501 
L 309.536542 512.495939 
Q 309.536542 512.802189 309.663105 513.039689 
Q 309.79123 513.277189 310.019355 513.406876 
Q 310.249042 513.535001 310.54748 513.535001 
z
M 315.806855 517.627189 
L 314.80998 517.627189 
L 314.80998 511.611564 
L 313.799042 512.231876 
L 313.799042 511.200626 
L 314.80998 510.527189 
L 315.806855 510.527189 
L 315.806855 517.627189 
z
M 319.44455 517.700626 
Q 318.447675 517.700626 317.93205 517.169376 
Q 317.417988 516.636564 317.417988 515.683439 
L 317.417988 512.456876 
Q 317.417988 511.499064 317.935175 510.969376 
Q 318.452363 510.439689 319.44455 510.439689 
Q 320.439863 510.439689 320.955488 510.967814 
Q 321.471113 511.494376 321.471113 512.456876 
L 321.471113 515.683439 
Q 321.471113 516.641251 320.952363 517.170939 
Q 320.435175 517.700626 319.44455 517.700626 
z
M 319.44455 516.753751 
Q 319.971113 516.753751 320.222675 516.477189 
Q 320.474238 516.200626 320.474238 515.683439 
L 320.474238 512.456876 
Q 320.474238 511.938126 320.224238 511.663126 
Q 319.9758 511.386564 319.44455 511.386564 
Q 318.911738 511.386564 318.661738 511.663126 
Q 318.4133 511.938126 318.4133 512.456876 
L 318.4133 515.683439 
Q 318.4133 516.200626 318.664863 516.477189 
Q 318.916425 516.753751 319.44455 516.753751 
z
M 324.962128 517.700626 
Q 323.965253 517.700626 323.449628 517.169376 
Q 322.935566 516.636564 322.935566 515.683439 
L 322.935566 512.456876 
Q 322.935566 511.499064 323.452753 510.969376 
Q 323.969941 510.439689 324.962128 510.439689 
Q 325.957441 510.439689 326.473066 510.967814 
Q 326.988691 511.494376 326.988691 512.456876 
L 326.988691 515.683439 
Q 326.988691 516.641251 326.469941 517.170939 
Q 325.952753 517.700626 324.962128 517.700626 
z
M 324.962128 516.753751 
Q 325.488691 516.753751 325.740253 516.477189 
Q 325.991816 516.200626 325.991816 515.683439 
L 325.991816 512.456876 
Q 325.991816 511.938126 325.741816 511.663126 
Q 325.493378 511.386564 324.962128 511.386564 
Q 324.429316 511.386564 324.179316 511.663126 
Q 323.930878 511.938126 323.930878 512.456876 
L 323.930878 515.683439 
Q 323.930878 516.200626 324.182441 516.477189 
Q 324.434003 516.753751 324.962128 516.753751 
z
" style="fill: #ffffff; stroke: #000000"/>
    <path d="M 302.725605 516.680314 
L 304.331855 516.680314 
Q 305.117792 516.680314 305.549042 516.272501 
Q 305.981855 515.864689 305.981855 515.122501 
L 305.981855 513.031876 
Q 305.981855 512.289689 305.549042 511.881876 
Q 305.117792 511.474064 304.331855 511.474064 
L 302.725605 511.474064 
L 302.725605 510.527189 
L 304.302167 510.527189 
Q 305.156855 510.527189 305.761542 510.825626 
Q 306.367792 511.122501 306.68498 511.694376 
Q 307.002167 512.266251 307.002167 513.070939 
L 307.002167 515.083439 
Q 307.002167 515.888126 306.68498 516.460001 
Q 306.367792 517.031876 305.75998 517.330314 
Q 305.152167 517.627189 304.29748 517.627189 
L 302.725605 517.627189 
L 302.725605 516.680314 
z
M 302.052167 510.527189 
L 303.04748 510.527189 
L 303.04748 517.627189 
L 302.052167 517.627189 
L 302.052167 510.527189 
z
M 310.54748 517.700626 
Q 309.90373 517.700626 309.414667 517.456876 
Q 308.927167 517.211564 308.65998 516.764689 
Q 308.394355 516.317814 308.394355 515.727189 
L 308.394355 515.610001 
Q 308.394355 515.078751 308.65998 514.610001 
Q 308.927167 514.141251 309.370917 513.902189 
Q 308.994355 513.695939 308.767792 513.308439 
Q 308.54123 512.919376 308.54123 512.489689 
L 308.54123 512.319376 
Q 308.54123 511.763126 308.789667 511.341251 
Q 309.038105 510.917814 309.492792 510.686564 
Q 309.94748 510.453751 310.54748 510.453751 
Q 311.14748 510.453751 311.602167 510.686564 
Q 312.056855 510.917814 312.305292 511.341251 
Q 312.55373 511.763126 312.55373 512.319376 
L 312.55373 512.489689 
Q 312.55373 512.930314 312.32248 513.316251 
Q 312.09123 513.700626 311.70998 513.902189 
Q 312.158417 514.145939 312.42873 514.613126 
Q 312.700605 515.078751 312.700605 515.610001 
L 312.700605 515.727189 
Q 312.700605 516.317814 312.43498 516.764689 
Q 312.169355 517.211564 311.680292 517.456876 
Q 311.192792 517.700626 310.54748 517.700626 
z
M 310.54748 516.742814 
Q 310.894355 516.742814 311.156855 516.606876 
Q 311.420917 516.469376 311.564667 516.224064 
Q 311.70998 515.977189 311.70998 515.653751 
L 311.70998 515.586564 
Q 311.70998 515.258439 311.564667 515.013126 
Q 311.420917 514.766251 311.156855 514.630314 
Q 310.894355 514.492814 310.54748 514.492814 
Q 310.200605 514.492814 309.936542 514.630314 
Q 309.674042 514.766251 309.52873 515.014689 
Q 309.38498 515.263126 309.38498 515.591251 
L 309.38498 515.664689 
Q 309.38498 515.986564 309.52873 516.230314 
Q 309.674042 516.474064 309.936542 516.608439 
Q 310.200605 516.742814 310.54748 516.742814 
z
M 310.54748 513.535001 
Q 310.845917 513.535001 311.074042 513.406876 
Q 311.30373 513.277189 311.430292 513.038126 
Q 311.558417 512.797501 311.558417 512.485001 
L 311.558417 512.417814 
Q 311.558417 512.119376 311.430292 511.889689 
Q 311.30373 511.660001 311.074042 511.536564 
Q 310.845917 511.411564 310.54748 511.411564 
Q 310.249042 511.411564 310.019355 511.536564 
Q 309.79123 511.660001 309.663105 511.889689 
Q 309.536542 512.119376 309.536542 512.422501 
L 309.536542 512.495939 
Q 309.536542 512.802189 309.663105 513.039689 
Q 309.79123 513.277189 310.019355 513.406876 
Q 310.249042 513.535001 310.54748 513.535001 
z
M 315.806855 517.627189 
L 314.80998 517.627189 
L 314.80998 511.611564 
L 313.799042 512.231876 
L 313.799042 511.200626 
L 314.80998 510.527189 
L 315.806855 510.527189 
L 315.806855 517.627189 
z
M 319.44455 517.700626 
Q 318.447675 517.700626 317.93205 517.169376 
Q 317.417988 516.636564 317.417988 515.683439 
L 317.417988 512.456876 
Q 317.417988 511.499064 317.935175 510.969376 
Q 318.452363 510.439689 319.44455 510.439689 
Q 320.439863 510.439689 320.955488 510.967814 
Q 321.471113 511.494376 321.471113 512.456876 
L 321.471113 515.683439 
Q 321.471113 516.641251 320.952363 517.170939 
Q 320.435175 517.700626 319.44455 517.700626 
z
M 319.44455 516.753751 
Q 319.971113 516.753751 320.222675 516.477189 
Q 320.474238 516.200626 320.474238 515.683439 
L 320.474238 512.456876 
Q 320.474238 511.938126 320.224238 511.663126 
Q 319.9758 511.386564 319.44455 511.386564 
Q 318.911738 511.386564 318.661738 511.663126 
Q 318.4133 511.938126 318.4133 512.456876 
L 318.4133 515.683439 
Q 318.4133 516.200626 318.664863 516.477189 
Q 318.916425 516.753751 319.44455 516.753751 
z
M 324.962128 517.700626 
Q 323.965253 517.700626 323.449628 517.169376 
Q 322.935566 516.636564 322.935566 515.683439 
L 322.935566 512.456876 
Q 322.935566 511.499064 323.452753 510.969376 
Q 323.969941 510.439689 324.962128 510.439689 
Q 325.957441 510.439689 326.473066 510.967814 
Q 326.988691 511.494376 326.988691 512.456876 
L 326.988691 515.683439 
Q 326.988691 516.641251 326.469941 517.170939 
Q 325.952753 517.700626 324.962128 517.700626 
z
M 324.962128 516.753751 
Q 325.488691 516.753751 325.740253 516.477189 
Q 325.991816 516.200626 325.991816 515.683439 
L 325.991816 512.456876 
Q 325.991816 511.938126 325.741816 511.663126 
Q 325.493378 511.386564 324.962128 511.386564 
Q 324.429316 511.386564 324.179316 511.663126 
Q 323.930878 511.938126 323.930878 512.456876 
L 323.930878 515.683439 
Q 323.930878 516.200626 324.182441 516.477189 
Q 324.434003 516.753751 324.962128 516.753751 
z
" style="fill: #ffffff"/>
   </g>
  </g>
 </g>
 <defs>
  <clipPath id="pa204caeb75">
   <rect x="144" y="77.76" width="892.8" height="498.96"/>
  </clipPath>
 </defs>
</svg>
