<?xml version="1.0" encoding="utf-8" standalone="no"?>
<!DOCTYPE svg PUBLIC "-//W3C//DTD SVG 1.1//EN"
  "http://www.w3.org/Graphics/SVG/1.1/DTD/svg11.dtd">
<svg xmlns:xlink="http://www.w3.org/1999/xlink" width="1152pt" height="648pt" viewBox="0 0 1152 648" xmlns="http://www.w3.org/2000/svg" version="1.1">
 <metadata>
  <rdf:RDF xmlns:dc="http://purl.org/dc/elements/1.1/" xmlns:cc="http://creativecommons.org/ns#" xmlns:rdf="http://www.w3.org/1999/02/22-rdf-syntax-ns#">
   <cc:Work>
    <dc:type rdf:resource="http://purl.org/dc/dcmitype/StillImage"/>
    <dc:date>2025-09-19T13:51:41.954777</dc:date>
    <dc:format>image/svg+xml</dc:format>
    <dc:creator>
     <cc:Agent>
      <dc:title>Matplotlib v3.10.3, https://matplotlib.org/</dc:title>
     </cc:Agent>
    </dc:creator>
   </cc:Work>
  </rdf:RDF>
 </metadata>
 <defs>
  <style type="text/css">*{stroke-linejoin: round; stroke-linecap: butt}</style>
 </defs>
 <g id="figure_1">
  <g id="patch_1">
   <path d="M 0 648 
L 1152 648 
L 1152 0 
L 0 0 
L 0 648 
z
" style="fill: none"/>
  </g>
  <g id="axes_1">
   <g id="line2d_1">
    <path d="M 280.896 413.9343 
L 286.121535 409.983086 
L 291.347071 406.085772 
L 296.572606 402.241698 
L 301.798141 398.450208 
L 307.023677 394.710655 
L 312.249212 391.022395 
L 317.474747 387.384792 
L 322.700283 383.797216 
L 327.925818 380.259042 
L 333.151354 376.769651 
L 338.376889 373.32843 
L 343.602424 369.934772 
L 348.82796 366.588078 
L 354.053495 363.287752 
L 359.27903 360.033205 
L 364.504566 356.823855 
L 369.730101 353.659124 
L 374.955636 350.538441 
L 380.181172 347.461242 
L 385.406707 344.426966 
L 390.632242 341.435062 
L 395.857778 338.484979 
L 401.083313 335.576178 
L 406.308848 332.708122 
L 411.534384 329.880281 
L 416.759919 327.09213 
L 421.985455 324.34315 
L 427.21099 321.632829 
L 432.436525 318.960658 
L 437.662061 316.326136 
L 442.887596 313.728767 
L 448.113131 311.168059 
L 453.338667 308.643528 
L 458.564202 306.154694 
L 463.789737 303.701082 
L 469.015273 301.282224 
L 474.240808 298.897656 
L 479.466343 296.546921 
L 484.691879 294.229564 
L 489.917414 291.945139 
L 495.142949 289.693204 
L 500.368485 287.473321 
L 505.59402 285.285058 
L 510.819556 283.127988 
L 516.045091 281.00169 
L 521.270626 278.905748 
L 526.496162 276.839748 
L 531.721697 274.803284 
L 536.947232 272.795956 
L 542.172768 270.817364 
L 547.398303 268.867118 
L 552.623838 266.94483 
L 557.849374 265.050118 
L 563.074909 263.182603 
L 568.300444 261.341912 
L 573.52598 259.527677 
L 578.751515 257.739533 
L 583.977051 255.977121 
L 589.202586 254.240086 
L 594.428121 252.528078 
L 599.653657 250.84075 
L 604.879192 249.17776 
L 610.104727 247.538772 
L 615.330263 245.923451 
L 620.555798 244.331469 
L 625.781333 242.762502 
L 631.006869 241.216227 
L 636.232404 239.69233 
L 641.457939 238.190498 
L 646.683475 236.710422 
L 651.90901 235.251798 
L 657.134545 233.814325 
L 662.360081 232.397707 
L 667.585616 231.001651 
L 672.811152 229.625869 
L 678.036687 228.270074 
L 683.262222 226.933987 
L 688.487758 225.617328 
L 693.713293 224.319825 
L 698.938828 223.041207 
L 704.164364 221.781206 
L 709.389899 220.539561 
L 714.615434 219.31601 
L 719.84097 218.110297 
L 725.066505 216.92217 
L 730.29204 215.751379 
L 735.517576 214.597678 
L 740.743111 213.460824 
L 745.968646 212.340577 
L 751.194182 211.236701 
L 756.419717 210.148963 
L 761.645253 209.077132 
L 766.870788 208.020981 
L 772.096323 206.980287 
L 777.321859 205.954829 
L 782.547394 204.944389 
L 787.772929 203.948751 
L 792.998465 202.967705 
L 798.224 202.00104 
" clip-path="url(#p20354027dc)" style="fill: none; stroke: #ccff33; stroke-width: 3; stroke-linecap: round"/>
   </g>
   <g id="text_1">
    <path d="M 806.92898 196.547608 
L 807.77898 196.547608 
L 810.396167 203.647608 
L 809.321167 203.647608 
L 807.35398 197.919483 
L 805.386792 203.647608 
L 804.311792 203.647608 
L 806.92898 196.547608 
z
M 805.518042 201.14292 
L 809.25398 201.14292 
L 809.25398 202.089795 
L 805.518042 202.089795 
L 805.518042 201.14292 
z
M 813.037964 203.647608 
L 812.041089 203.647608 
L 812.041089 197.631983 
L 811.030152 198.252295 
L 811.030152 197.221045 
L 812.041089 196.547608 
L 813.037964 196.547608 
L 813.037964 203.647608 
z
M 817.16316 200.122608 
L 817.158472 200.297608 
Q 817.036597 200.522608 816.789722 200.627295 
Q 816.542847 200.731983 816.20691 200.731983 
Q 815.699097 200.731983 815.31316 200.47417 
Q 814.927222 200.214795 814.714722 199.744483 
Q 814.502222 199.272608 814.502222 198.652295 
L 814.502222 198.647608 
Q 814.502222 197.958545 814.733472 197.471045 
Q 814.966285 196.981983 815.41316 196.728858 
Q 815.860035 196.47417 816.485035 196.47417 
Q 817.110035 196.47417 817.553785 196.733545 
Q 817.999097 196.99292 818.230347 197.48667 
Q 818.461597 197.978858 818.461597 198.672608 
L 818.461597 198.677295 
Q 818.461597 199.056983 818.36316 199.489795 
Q 818.266285 199.922608 818.086597 200.346045 
Q 818.05691 200.410108 818.027222 200.475733 
Q 817.999097 200.541358 817.964722 200.60542 
L 816.45066 203.647608 
L 815.37566 203.647608 
L 817.16316 200.122608 
z
M 816.485035 199.82417 
Q 816.953785 199.82417 817.210035 199.506983 
Q 817.466285 199.189795 817.466285 198.613233 
L 817.466285 198.608545 
Q 817.466285 198.047608 817.210035 197.739795 
Q 816.953785 197.431983 816.485035 197.431983 
Q 816.011597 197.431983 815.755347 197.739795 
Q 815.499097 198.047608 815.499097 198.613233 
L 815.499097 198.61792 
Q 815.499097 199.194483 815.755347 199.510108 
Q 816.011597 199.82417 816.485035 199.82417 
z
M 822.149292 199.946045 
L 824.419605 199.946045 
Q 824.74148 199.946045 824.98523 199.794483 
Q 825.230542 199.64292 825.363355 199.364795 
Q 825.49773 199.08667 825.49773 198.725733 
L 825.49773 198.725733 
Q 825.49773 198.360108 825.363355 198.081983 
Q 825.230542 197.802295 824.98523 197.64917 
Q 824.74148 197.494483 824.419605 197.494483 
L 822.149292 197.494483 
L 822.149292 196.547608 
L 824.38523 196.547608 
Q 825.019605 196.547608 825.502417 196.819483 
Q 825.986792 197.089795 826.252417 197.583545 
Q 826.519605 198.075733 826.519605 198.725733 
L 826.519605 198.725733 
Q 826.519605 199.375733 826.252417 199.866358 
Q 825.986792 200.356983 825.502417 200.625733 
Q 825.019605 200.89292 824.38523 200.89292 
L 822.149292 200.89292 
L 822.149292 199.946045 
z
M 821.636792 196.547608 
L 822.632105 196.547608 
L 822.632105 203.647608 
L 821.636792 203.647608 
L 821.636792 196.547608 
z
M 827.763941 198.578858 
L 828.760816 198.578858 
L 828.760816 203.647608 
L 827.763941 203.647608 
L 827.763941 198.578858 
z
M 830.551441 199.78042 
Q 830.420191 199.619483 830.220191 199.53667 
Q 830.020191 199.453858 829.756128 199.453858 
Q 829.282691 199.453858 829.021753 199.714795 
Q 828.760816 199.975733 828.760816 200.439795 
L 828.657691 199.463233 
Q 828.892066 199.008545 829.262378 198.756983 
Q 829.634253 198.50542 830.082691 198.50542 
Q 830.429566 198.50542 830.710816 198.60542 
Q 830.992066 198.70542 831.201441 198.900733 
L 830.551441 199.78042 
z
M 833.975269 203.721045 
Q 833.315894 203.721045 832.847144 203.463233 
Q 832.378394 203.203858 832.131519 202.708545 
Q 831.884644 202.21167 831.884644 201.513233 
L 831.884644 200.688233 
Q 831.884644 200.000733 832.131519 199.510108 
Q 832.378394 199.01792 832.847144 198.76167 
Q 833.315894 198.50542 833.975269 198.50542 
Q 834.634644 198.50542 835.103394 198.76167 
Q 835.572144 199.01792 835.817457 199.510108 
Q 836.064332 200.000733 836.064332 200.688233 
L 836.064332 201.528858 
Q 836.064332 202.221045 835.817457 202.713233 
Q 835.572144 203.203858 835.103394 203.463233 
Q 834.634644 203.721045 833.975269 203.721045 
z
M 833.975269 202.77417 
Q 834.497144 202.77417 834.783082 202.447608 
Q 835.069019 202.119483 835.069019 201.528858 
L 835.069019 200.688233 
Q 835.069019 200.097608 834.783082 199.775733 
Q 834.497144 199.453858 833.975269 199.453858 
Q 833.451832 199.453858 833.165894 199.775733 
Q 832.881519 200.097608 832.881519 200.688233 
L 832.881519 201.528858 
Q 832.881519 202.119483 833.165894 202.447608 
Q 833.451832 202.77417 833.975269 202.77417 
z
" style="fill: #ffffff; stroke: #000000"/>
    <path d="M 806.92898 196.547608 
L 807.77898 196.547608 
L 810.396167 203.647608 
L 809.321167 203.647608 
L 807.35398 197.919483 
L 805.386792 203.647608 
L 804.311792 203.647608 
L 806.92898 196.547608 
z
M 805.518042 201.14292 
L 809.25398 201.14292 
L 809.25398 202.089795 
L 805.518042 202.089795 
L 805.518042 201.14292 
z
M 813.037964 203.647608 
L 812.041089 203.647608 
L 812.041089 197.631983 
L 811.030152 198.252295 
L 811.030152 197.221045 
L 812.041089 196.547608 
L 813.037964 196.547608 
L 813.037964 203.647608 
z
M 817.16316 200.122608 
L 817.158472 200.297608 
Q 817.036597 200.522608 816.789722 200.627295 
Q 816.542847 200.731983 816.20691 200.731983 
Q 815.699097 200.731983 815.31316 200.47417 
Q 814.927222 200.214795 814.714722 199.744483 
Q 814.502222 199.272608 814.502222 198.652295 
L 814.502222 198.647608 
Q 814.502222 197.958545 814.733472 197.471045 
Q 814.966285 196.981983 815.41316 196.728858 
Q 815.860035 196.47417 816.485035 196.47417 
Q 817.110035 196.47417 817.553785 196.733545 
Q 817.999097 196.99292 818.230347 197.48667 
Q 818.461597 197.978858 818.461597 198.672608 
L 818.461597 198.677295 
Q 818.461597 199.056983 818.36316 199.489795 
Q 818.266285 199.922608 818.086597 200.346045 
Q 818.05691 200.410108 818.027222 200.475733 
Q 817.999097 200.541358 817.964722 200.60542 
L 816.45066 203.647608 
L 815.37566 203.647608 
L 817.16316 200.122608 
z
M 816.485035 199.82417 
Q 816.953785 199.82417 817.210035 199.506983 
Q 817.466285 199.189795 817.466285 198.613233 
L 817.466285 198.608545 
Q 817.466285 198.047608 817.210035 197.739795 
Q 816.953785 197.431983 816.485035 197.431983 
Q 816.011597 197.431983 815.755347 197.739795 
Q 815.499097 198.047608 815.499097 198.613233 
L 815.499097 198.61792 
Q 815.499097 199.194483 815.755347 199.510108 
Q 816.011597 199.82417 816.485035 199.82417 
z
M 822.149292 199.946045 
L 824.419605 199.946045 
Q 824.74148 199.946045 824.98523 199.794483 
Q 825.230542 199.64292 825.363355 199.364795 
Q 825.49773 199.08667 825.49773 198.725733 
L 825.49773 198.725733 
Q 825.49773 198.360108 825.363355 198.081983 
Q 825.230542 197.802295 824.98523 197.64917 
Q 824.74148 197.494483 824.419605 197.494483 
L 822.149292 197.494483 
L 822.149292 196.547608 
L 824.38523 196.547608 
Q 825.019605 196.547608 825.502417 196.819483 
Q 825.986792 197.089795 826.252417 197.583545 
Q 826.519605 198.075733 826.519605 198.725733 
L 826.519605 198.725733 
Q 826.519605 199.375733 826.252417 199.866358 
Q 825.986792 200.356983 825.502417 200.625733 
Q 825.019605 200.89292 824.38523 200.89292 
L 822.149292 200.89292 
L 822.149292 199.946045 
z
M 821.636792 196.547608 
L 822.632105 196.547608 
L 822.632105 203.647608 
L 821.636792 203.647608 
L 821.636792 196.547608 
z
M 827.763941 198.578858 
L 828.760816 198.578858 
L 828.760816 203.647608 
L 827.763941 203.647608 
L 827.763941 198.578858 
z
M 830.551441 199.78042 
Q 830.420191 199.619483 830.220191 199.53667 
Q 830.020191 199.453858 829.756128 199.453858 
Q 829.282691 199.453858 829.021753 199.714795 
Q 828.760816 199.975733 828.760816 200.439795 
L 828.657691 199.463233 
Q 828.892066 199.008545 829.262378 198.756983 
Q 829.634253 198.50542 830.082691 198.50542 
Q 830.429566 198.50542 830.710816 198.60542 
Q 830.992066 198.70542 831.201441 198.900733 
L 830.551441 199.78042 
z
M 833.975269 203.721045 
Q 833.315894 203.721045 832.847144 203.463233 
Q 832.378394 203.203858 832.131519 202.708545 
Q 831.884644 202.21167 831.884644 201.513233 
L 831.884644 200.688233 
Q 831.884644 200.000733 832.131519 199.510108 
Q 832.378394 199.01792 832.847144 198.76167 
Q 833.315894 198.50542 833.975269 198.50542 
Q 834.634644 198.50542 835.103394 198.76167 
Q 835.572144 199.01792 835.817457 199.510108 
Q 836.064332 200.000733 836.064332 200.688233 
L 836.064332 201.528858 
Q 836.064332 202.221045 835.817457 202.713233 
Q 835.572144 203.203858 835.103394 203.463233 
Q 834.634644 203.721045 833.975269 203.721045 
z
M 833.975269 202.77417 
Q 834.497144 202.77417 834.783082 202.447608 
Q 835.069019 202.119483 835.069019 201.528858 
L 835.069019 200.688233 
Q 835.069019 200.097608 834.783082 199.775733 
Q 834.497144 199.453858 833.975269 199.453858 
Q 833.451832 199.453858 833.165894 199.775733 
Q 832.881519 200.097608 832.881519 200.688233 
L 832.881519 201.528858 
Q 832.881519 202.119483 833.165894 202.447608 
Q 833.451832 202.77417 833.975269 202.77417 
z
" style="fill: #ffffff"/>
   </g>
  </g>
 </g>
 <defs>
  <clipPath id="p20354027dc">
   <rect x="144" y="77.76" width="892.8" height="498.96"/>
  </clipPath>
 </defs>
</svg>
