<?xml version="1.0" encoding="utf-8" standalone="no"?>
<!DOCTYPE svg PUBLIC "-//W3C//DTD SVG 1.1//EN"
  "http://www.w3.org/Graphics/SVG/1.1/DTD/svg11.dtd">
<svg xmlns:xlink="http://www.w3.org/1999/xlink" width="1152pt" height="648pt" viewBox="0 0 1152 648" xmlns="http://www.w3.org/2000/svg" version="1.1">
 <metadata>
  <rdf:RDF xmlns:dc="http://purl.org/dc/elements/1.1/" xmlns:cc="http://creativecommons.org/ns#" xmlns:rdf="http://www.w3.org/1999/02/22-rdf-syntax-ns#">
   <cc:Work>
    <dc:type rdf:resource="http://purl.org/dc/dcmitype/StillImage"/>
    <dc:date>2025-09-19T13:51:42.223801</dc:date>
    <dc:format>image/svg+xml</dc:format>
    <dc:creator>
     <cc:Agent>
      <dc:title>Matplotlib v3.10.3, https://matplotlib.org/</dc:title>
     </cc:Agent>
    </dc:creator>
   </cc:Work>
  </rdf:RDF>
 </metadata>
 <defs>
  <style type="text/css">*{stroke-linejoin: round; stroke-linecap: butt}</style>
 </defs>
 <g id="figure_1">
  <g id="patch_1">
   <path d="M 0 648 
L 1152 648 
L 1152 0 
L 0 0 
L 0 648 
z
" style="fill: none"/>
  </g>
  <g id="axes_1">
   <g id="line2d_1">
    <path d="M 192.608 550.282345 
L 194.937697 548.410994 
L 197.267394 546.556996 
L 199.597091 544.720282 
L 201.926788 542.90078 
L 204.256485 541.098418 
L 206.586182 539.31312 
L 208.915879 537.54481 
L 211.245576 535.793409 
L 213.575273 534.058838 
L 215.90497 532.341014 
L 218.234667 530.639856 
L 220.564364 528.955277 
L 222.894061 527.287192 
L 225.223758 525.635513 
L 227.553455 524.000153 
L 229.883152 522.38102 
L 232.212848 520.778024 
L 234.542545 519.191072 
L 236.872242 517.62007 
L 239.201939 516.064925 
L 241.531636 514.52554 
L 243.861333 513.001818 
L 246.19103 511.493663 
L 248.520727 510.000975 
L 250.850424 508.523656 
L 253.180121 507.061604 
L 255.509818 505.61472 
L 257.839515 504.182901 
L 260.169212 502.766046 
L 262.498909 501.36405 
L 264.828606 499.976812 
L 267.158303 498.604226 
L 269.488 497.246187 
L 271.817697 495.902592 
L 274.147394 494.573334 
L 276.477091 493.258307 
L 278.806788 491.957405 
L 281.136485 490.670521 
L 283.466182 489.397548 
L 285.795879 488.138379 
L 288.125576 486.892907 
L 290.455273 485.661023 
L 292.78497 484.442619 
L 295.114667 483.237589 
L 297.444364 482.045823 
L 299.774061 480.867213 
L 302.103758 479.701651 
L 304.433455 478.549029 
L 306.763152 477.409238 
L 309.092848 476.282171 
L 311.422545 475.167717 
L 313.752242 474.065771 
L 316.081939 472.976223 
L 318.411636 471.898966 
L 320.741333 470.833891 
L 323.07103 469.780892 
L 325.400727 468.739861 
L 327.730424 467.710689 
L 330.060121 466.693272 
L 332.389818 465.687501 
L 334.719515 464.693271 
L 337.049212 463.710475 
L 339.378909 462.739008 
L 341.708606 461.778763 
L 344.038303 460.829637 
L 346.368 459.891523 
L 348.697697 458.964318 
L 351.027394 458.047917 
L 353.357091 457.142218 
L 355.686788 456.247116 
L 358.016485 455.362509 
L 360.346182 454.488296 
L 362.675879 453.624373 
L 365.005576 452.770641 
L 367.335273 451.926997 
L 369.66497 451.093342 
L 371.994667 450.269575 
L 374.324364 449.455598 
L 376.654061 448.651312 
L 378.983758 447.856619 
L 381.313455 447.071421 
L 383.643152 446.295621 
L 385.972848 445.529122 
L 388.302545 444.771828 
L 390.632242 444.023645 
L 392.961939 443.284477 
L 395.291636 442.554231 
L 397.621333 441.832813 
L 399.95103 441.120129 
L 402.280727 440.416088 
L 404.610424 439.720599 
L 406.940121 439.033569 
L 409.269818 438.354909 
L 411.599515 437.684529 
L 413.929212 437.02234 
L 416.258909 436.368253 
L 418.588606 435.722181 
L 420.918303 435.084036 
L 423.248 434.453732 
" clip-path="url(#p8bac8e40fe)" style="fill: none; stroke: #79b6f2; stroke-width: 3; stroke-linecap: round"/>
   </g>
   <g id="text_1">
    <path d="M 432.15298 436.173738 
Q 431.64048 436.173738 431.181105 436.076863 
Q 430.723293 435.978425 430.324855 435.783113 
Q 429.926418 435.5878 429.579543 435.29405 
L 429.579543 435.29405 
L 430.199855 434.533113 
L 430.199855 434.533113 
Q 430.606105 434.884675 431.093605 435.061238 
Q 431.582668 435.236238 432.15298 435.236238 
Q 432.924855 435.236238 433.349855 434.9503 
Q 433.774855 434.664363 433.774855 434.142488 
L 433.774855 434.1378 
Q 433.774855 433.765925 433.581105 433.548738 
Q 433.388918 433.33155 433.082668 433.226863 
Q 432.77798 433.122175 432.295168 433.033113 
Q 432.279543 433.028425 432.262355 433.028425 
Q 432.24673 433.028425 432.231105 433.023738 
L 432.157668 433.009675 
Q 431.445168 432.8878 430.998293 432.734675 
Q 430.551418 432.579988 430.23423 432.172175 
Q 429.917043 431.764363 429.917043 431.0128 
L 429.917043 431.008113 
Q 429.917043 430.348738 430.212355 429.883113 
Q 430.507668 429.415925 431.073293 429.172175 
Q 431.64048 428.926863 432.435793 428.926863 
Q 432.817043 428.926863 433.185793 429.011238 
Q 433.554543 429.09405 433.912355 429.258113 
Q 434.27173 429.420613 434.618605 429.66905 
L 434.618605 429.66905 
L 434.05298 430.461238 
L 434.05298 430.461238 
Q 433.64673 430.1628 433.243605 430.014363 
Q 432.842043 429.864363 432.435793 429.864363 
Q 431.70923 429.864363 431.306105 430.154988 
Q 430.90298 430.445613 430.90298 430.978425 
L 430.90298 430.983113 
Q 430.90298 431.348738 431.110793 431.559675 
Q 431.318605 431.76905 431.62798 431.86905 
Q 431.938918 431.96905 432.49048 432.076863 
Q 432.50923 432.08155 432.526418 432.084675 
Q 432.543605 432.086238 432.563918 432.090925 
Q 432.587355 432.095613 432.617043 432.101863 
Q 432.64673 432.10655 432.670168 432.111238 
Q 433.31548 432.242488 433.74673 432.423738 
Q 434.179543 432.603425 434.470168 433.00655 
Q 434.760793 433.409675 434.760793 434.108113 
L 434.760793 434.117488 
Q 434.760793 434.767488 434.45298 435.228425 
Q 434.145168 435.689363 433.560793 435.93155 
Q 432.97798 436.173738 432.15298 436.173738 
z
M 436.850832 435.153425 
L 438.457082 435.153425 
Q 439.243019 435.153425 439.674269 434.745613 
Q 440.107082 434.3378 440.107082 433.595613 
L 440.107082 431.504988 
Q 440.107082 430.7628 439.674269 430.354988 
Q 439.243019 429.947175 438.457082 429.947175 
L 436.850832 429.947175 
L 436.850832 429.0003 
L 438.427394 429.0003 
Q 439.282082 429.0003 439.886769 429.298738 
Q 440.493019 429.595613 440.810207 430.167488 
Q 441.127394 430.739363 441.127394 431.54405 
L 441.127394 433.55655 
Q 441.127394 434.361238 440.810207 434.933113 
Q 440.493019 435.504988 439.885207 435.803425 
Q 439.277394 436.1003 438.422707 436.1003 
L 436.850832 436.1003 
L 436.850832 435.153425 
z
M 436.177394 429.0003 
L 437.172707 429.0003 
L 437.172707 436.1003 
L 436.177394 436.1003 
L 436.177394 429.0003 
z
M 444.672707 436.173738 
Q 444.028957 436.173738 443.539894 435.929988 
Q 443.052394 435.684675 442.785207 435.2378 
Q 442.519582 434.790925 442.519582 434.2003 
L 442.519582 434.083113 
Q 442.519582 433.551863 442.785207 433.083113 
Q 443.052394 432.614363 443.496144 432.3753 
Q 443.119582 432.16905 442.893019 431.78155 
Q 442.666457 431.392488 442.666457 430.9628 
L 442.666457 430.792488 
Q 442.666457 430.236238 442.914894 429.814363 
Q 443.163332 429.390925 443.618019 429.159675 
Q 444.072707 428.926863 444.672707 428.926863 
Q 445.272707 428.926863 445.727394 429.159675 
Q 446.182082 429.390925 446.430519 429.814363 
Q 446.678957 430.236238 446.678957 430.792488 
L 446.678957 430.9628 
Q 446.678957 431.403425 446.447707 431.789363 
Q 446.216457 432.173738 445.835207 432.3753 
Q 446.283644 432.61905 446.553957 433.086238 
Q 446.825832 433.551863 446.825832 434.083113 
L 446.825832 434.2003 
Q 446.825832 434.790925 446.560207 435.2378 
Q 446.294582 435.684675 445.805519 435.929988 
Q 445.318019 436.173738 444.672707 436.173738 
z
M 444.672707 435.215925 
Q 445.019582 435.215925 445.282082 435.079988 
Q 445.546144 434.942488 445.689894 434.697175 
Q 445.835207 434.4503 445.835207 434.126863 
L 445.835207 434.059675 
Q 445.835207 433.73155 445.689894 433.486238 
Q 445.546144 433.239363 445.282082 433.103425 
Q 445.019582 432.965925 444.672707 432.965925 
Q 444.325832 432.965925 444.061769 433.103425 
Q 443.799269 433.239363 443.653957 433.4878 
Q 443.510207 433.736238 443.510207 434.064363 
L 443.510207 434.1378 
Q 443.510207 434.459675 443.653957 434.703425 
Q 443.799269 434.947175 444.061769 435.08155 
Q 444.325832 435.215925 444.672707 435.215925 
z
M 444.672707 432.008113 
Q 444.971144 432.008113 445.199269 431.879988 
Q 445.428957 431.7503 445.555519 431.511238 
Q 445.683644 431.270613 445.683644 430.958113 
L 445.683644 430.890925 
Q 445.683644 430.592488 445.555519 430.3628 
Q 445.428957 430.133113 445.199269 430.009675 
Q 444.971144 429.884675 444.672707 429.884675 
Q 444.374269 429.884675 444.144582 430.009675 
Q 443.916457 430.133113 443.788332 430.3628 
Q 443.661769 430.592488 443.661769 430.895613 
L 443.661769 430.96905 
Q 443.661769 431.2753 443.788332 431.5128 
Q 443.916457 431.7503 444.144582 431.879988 
Q 444.374269 432.008113 444.672707 432.008113 
z
M 454.927003 432.276863 
L 454.927003 433.517488 
Q 454.927003 434.308113 454.619191 434.911238 
Q 454.311378 435.514363 453.747316 435.84405 
Q 453.183253 436.173738 452.441066 436.173738 
Q 451.689503 436.173738 451.120753 435.864363 
Q 450.552003 435.553425 450.239503 434.9878 
Q 449.927003 434.420613 449.927003 433.673738 
L 449.927003 431.578425 
Q 449.927003 430.7878 450.234816 430.1878 
Q 450.542628 429.586238 451.105128 429.25655 
Q 451.669191 428.926863 452.411378 428.926863 
Q 453.022316 428.926863 453.536378 429.189363 
Q 454.052003 429.4503 454.398878 429.928425 
Q 454.745753 430.40655 454.867628 431.036238 
L 454.867628 431.036238 
L 453.789503 431.036238 
L 453.789503 431.036238 
Q 453.700441 430.679988 453.491066 430.423738 
Q 453.281691 430.167488 452.997316 430.033113 
Q 452.714503 429.898738 452.411378 429.898738 
Q 451.972316 429.898738 451.639503 430.109675 
Q 451.308253 430.31905 451.127003 430.697175 
Q 450.947316 431.0753 450.947316 431.578425 
L 450.947316 433.673738 
Q 450.947316 434.133113 451.131691 434.476863 
Q 451.317628 434.820613 451.656691 435.011238 
Q 451.997316 435.201863 452.441066 435.201863 
Q 452.880128 435.201863 453.211378 435.004988 
Q 453.544191 434.80655 453.725441 434.43155 
Q 453.906691 434.054988 453.906691 433.536238 
L 453.906691 433.228425 
L 452.466066 433.228425 
L 452.466066 432.276863 
L 454.927003 432.276863 
z
M 458.515285 436.173738 
Q 457.81216 436.173738 457.313722 435.909675 
Q 456.816847 435.645613 456.554347 435.136238 
Q 456.29341 434.6253 456.29341 433.903425 
L 456.29341 433.33155 
Q 456.29341 432.579988 456.544972 432.048738 
Q 456.796535 431.515925 457.27466 431.2378 
Q 457.754347 430.958113 458.427785 430.958113 
Q 459.06216 430.958113 459.510597 431.276863 
Q 459.960597 431.59405 460.196535 432.19405 
Q 460.434035 432.79405 460.434035 433.634675 
L 460.434035 433.965925 
L 457.016847 433.965925 
L 457.016847 433.165925 
L 459.48716 433.165925 
L 459.48716 433.165925 
Q 459.44341 432.545613 459.166847 432.201863 
Q 458.891847 431.85655 458.427785 431.85655 
Q 457.860597 431.85655 457.551222 432.228425 
Q 457.241847 432.598738 457.241847 433.278425 
L 457.241847 433.922175 
Q 457.241847 434.551863 457.573097 434.889363 
Q 457.90591 435.226863 458.515285 435.226863 
Q 458.81841 435.226863 459.115285 435.104988 
Q 459.413722 434.98155 459.648097 434.7628 
L 459.648097 434.7628 
L 460.302785 435.415925 
L 460.302785 435.415925 
Q 459.926222 435.778425 459.457472 435.976863 
Q 458.988722 436.173738 458.515285 436.173738 
z
M 461.801613 431.03155 
L 462.798488 431.03155 
L 462.798488 436.1003 
L 461.801613 436.1003 
L 461.801613 431.03155 
z
M 464.878175 433.028425 
Q 464.878175 432.492488 464.60005 432.2003 
Q 464.321925 431.90655 463.8188 431.90655 
Q 463.329738 431.90655 463.064113 432.165925 
Q 462.798488 432.423738 462.798488 432.892488 
L 462.695363 431.915925 
Q 462.929738 431.45655 463.307863 431.208113 
Q 463.685988 430.958113 464.145363 430.958113 
Q 464.970363 430.958113 465.421925 431.498738 
Q 465.873488 432.0378 465.873488 433.023738 
L 465.873488 436.1003 
L 464.878175 436.1003 
L 464.878175 433.028425 
z
M 467.2313 435.236238 
L 469.7063 431.934675 
Q 469.921925 431.651863 470.040675 431.347175 
Q 470.160988 431.040925 470.160988 430.778425 
L 470.160988 430.767488 
Q 470.160988 430.34405 469.910988 430.109675 
Q 469.66255 429.8753 469.204738 429.8753 
Q 468.7688 429.8753 468.50005 430.13155 
Q 468.232863 430.3878 468.173488 430.85655 
L 468.173488 430.861238 
L 467.1438 430.861238 
L 467.1438 430.85655 
Q 467.2313 430.245613 467.501613 429.814363 
Q 467.773488 429.38155 468.203175 429.154988 
Q 468.632863 428.926863 469.1938 428.926863 
Q 469.829738 428.926863 470.278175 429.14405 
Q 470.728175 429.361238 470.96255 429.776863 
Q 471.196925 430.192488 471.196925 430.778425 
L 471.196925 430.783113 
Q 471.196925 431.158113 471.040675 431.56905 
Q 470.884425 431.978425 470.604738 432.359675 
L 468.55005 435.153425 
L 471.235988 435.153425 
L 471.235988 436.1003 
L 467.2313 436.1003 
L 467.2313 435.236238 
z
" style="fill: #ffffff; stroke: #000000"/>
    <path d="M 432.15298 436.173738 
Q 431.64048 436.173738 431.181105 436.076863 
Q 430.723293 435.978425 430.324855 435.783113 
Q 429.926418 435.5878 429.579543 435.29405 
L 429.579543 435.29405 
L 430.199855 434.533113 
L 430.199855 434.533113 
Q 430.606105 434.884675 431.093605 435.061238 
Q 431.582668 435.236238 432.15298 435.236238 
Q 432.924855 435.236238 433.349855 434.9503 
Q 433.774855 434.664363 433.774855 434.142488 
L 433.774855 434.1378 
Q 433.774855 433.765925 433.581105 433.548738 
Q 433.388918 433.33155 433.082668 433.226863 
Q 432.77798 433.122175 432.295168 433.033113 
Q 432.279543 433.028425 432.262355 433.028425 
Q 432.24673 433.028425 432.231105 433.023738 
L 432.157668 433.009675 
Q 431.445168 432.8878 430.998293 432.734675 
Q 430.551418 432.579988 430.23423 432.172175 
Q 429.917043 431.764363 429.917043 431.0128 
L 429.917043 431.008113 
Q 429.917043 430.348738 430.212355 429.883113 
Q 430.507668 429.415925 431.073293 429.172175 
Q 431.64048 428.926863 432.435793 428.926863 
Q 432.817043 428.926863 433.185793 429.011238 
Q 433.554543 429.09405 433.912355 429.258113 
Q 434.27173 429.420613 434.618605 429.66905 
L 434.618605 429.66905 
L 434.05298 430.461238 
L 434.05298 430.461238 
Q 433.64673 430.1628 433.243605 430.014363 
Q 432.842043 429.864363 432.435793 429.864363 
Q 431.70923 429.864363 431.306105 430.154988 
Q 430.90298 430.445613 430.90298 430.978425 
L 430.90298 430.983113 
Q 430.90298 431.348738 431.110793 431.559675 
Q 431.318605 431.76905 431.62798 431.86905 
Q 431.938918 431.96905 432.49048 432.076863 
Q 432.50923 432.08155 432.526418 432.084675 
Q 432.543605 432.086238 432.563918 432.090925 
Q 432.587355 432.095613 432.617043 432.101863 
Q 432.64673 432.10655 432.670168 432.111238 
Q 433.31548 432.242488 433.74673 432.423738 
Q 434.179543 432.603425 434.470168 433.00655 
Q 434.760793 433.409675 434.760793 434.108113 
L 434.760793 434.117488 
Q 434.760793 434.767488 434.45298 435.228425 
Q 434.145168 435.689363 433.560793 435.93155 
Q 432.97798 436.173738 432.15298 436.173738 
z
M 436.850832 435.153425 
L 438.457082 435.153425 
Q 439.243019 435.153425 439.674269 434.745613 
Q 440.107082 434.3378 440.107082 433.595613 
L 440.107082 431.504988 
Q 440.107082 430.7628 439.674269 430.354988 
Q 439.243019 429.947175 438.457082 429.947175 
L 436.850832 429.947175 
L 436.850832 429.0003 
L 438.427394 429.0003 
Q 439.282082 429.0003 439.886769 429.298738 
Q 440.493019 429.595613 440.810207 430.167488 
Q 441.127394 430.739363 441.127394 431.54405 
L 441.127394 433.55655 
Q 441.127394 434.361238 440.810207 434.933113 
Q 440.493019 435.504988 439.885207 435.803425 
Q 439.277394 436.1003 438.422707 436.1003 
L 436.850832 436.1003 
L 436.850832 435.153425 
z
M 436.177394 429.0003 
L 437.172707 429.0003 
L 437.172707 436.1003 
L 436.177394 436.1003 
L 436.177394 429.0003 
z
M 444.672707 436.173738 
Q 444.028957 436.173738 443.539894 435.929988 
Q 443.052394 435.684675 442.785207 435.2378 
Q 442.519582 434.790925 442.519582 434.2003 
L 442.519582 434.083113 
Q 442.519582 433.551863 442.785207 433.083113 
Q 443.052394 432.614363 443.496144 432.3753 
Q 443.119582 432.16905 442.893019 431.78155 
Q 442.666457 431.392488 442.666457 430.9628 
L 442.666457 430.792488 
Q 442.666457 430.236238 442.914894 429.814363 
Q 443.163332 429.390925 443.618019 429.159675 
Q 444.072707 428.926863 444.672707 428.926863 
Q 445.272707 428.926863 445.727394 429.159675 
Q 446.182082 429.390925 446.430519 429.814363 
Q 446.678957 430.236238 446.678957 430.792488 
L 446.678957 430.9628 
Q 446.678957 431.403425 446.447707 431.789363 
Q 446.216457 432.173738 445.835207 432.3753 
Q 446.283644 432.61905 446.553957 433.086238 
Q 446.825832 433.551863 446.825832 434.083113 
L 446.825832 434.2003 
Q 446.825832 434.790925 446.560207 435.2378 
Q 446.294582 435.684675 445.805519 435.929988 
Q 445.318019 436.173738 444.672707 436.173738 
z
M 444.672707 435.215925 
Q 445.019582 435.215925 445.282082 435.079988 
Q 445.546144 434.942488 445.689894 434.697175 
Q 445.835207 434.4503 445.835207 434.126863 
L 445.835207 434.059675 
Q 445.835207 433.73155 445.689894 433.486238 
Q 445.546144 433.239363 445.282082 433.103425 
Q 445.019582 432.965925 444.672707 432.965925 
Q 444.325832 432.965925 444.061769 433.103425 
Q 443.799269 433.239363 443.653957 433.4878 
Q 443.510207 433.736238 443.510207 434.064363 
L 443.510207 434.1378 
Q 443.510207 434.459675 443.653957 434.703425 
Q 443.799269 434.947175 444.061769 435.08155 
Q 444.325832 435.215925 444.672707 435.215925 
z
M 444.672707 432.008113 
Q 444.971144 432.008113 445.199269 431.879988 
Q 445.428957 431.7503 445.555519 431.511238 
Q 445.683644 431.270613 445.683644 430.958113 
L 445.683644 430.890925 
Q 445.683644 430.592488 445.555519 430.3628 
Q 445.428957 430.133113 445.199269 430.009675 
Q 444.971144 429.884675 444.672707 429.884675 
Q 444.374269 429.884675 444.144582 430.009675 
Q 443.916457 430.133113 443.788332 430.3628 
Q 443.661769 430.592488 443.661769 430.895613 
L 443.661769 430.96905 
Q 443.661769 431.2753 443.788332 431.5128 
Q 443.916457 431.7503 444.144582 431.879988 
Q 444.374269 432.008113 444.672707 432.008113 
z
M 454.927003 432.276863 
L 454.927003 433.517488 
Q 454.927003 434.308113 454.619191 434.911238 
Q 454.311378 435.514363 453.747316 435.84405 
Q 453.183253 436.173738 452.441066 436.173738 
Q 451.689503 436.173738 451.120753 435.864363 
Q 450.552003 435.553425 450.239503 434.9878 
Q 449.927003 434.420613 449.927003 433.673738 
L 449.927003 431.578425 
Q 449.927003 430.7878 450.234816 430.1878 
Q 450.542628 429.586238 451.105128 429.25655 
Q 451.669191 428.926863 452.411378 428.926863 
Q 453.022316 428.926863 453.536378 429.189363 
Q 454.052003 429.4503 454.398878 429.928425 
Q 454.745753 430.40655 454.867628 431.036238 
L 454.867628 431.036238 
L 453.789503 431.036238 
L 453.789503 431.036238 
Q 453.700441 430.679988 453.491066 430.423738 
Q 453.281691 430.167488 452.997316 430.033113 
Q 452.714503 429.898738 452.411378 429.898738 
Q 451.972316 429.898738 451.639503 430.109675 
Q 451.308253 430.31905 451.127003 430.697175 
Q 450.947316 431.0753 450.947316 431.578425 
L 450.947316 433.673738 
Q 450.947316 434.133113 451.131691 434.476863 
Q 451.317628 434.820613 451.656691 435.011238 
Q 451.997316 435.201863 452.441066 435.201863 
Q 452.880128 435.201863 453.211378 435.004988 
Q 453.544191 434.80655 453.725441 434.43155 
Q 453.906691 434.054988 453.906691 433.536238 
L 453.906691 433.228425 
L 452.466066 433.228425 
L 452.466066 432.276863 
L 454.927003 432.276863 
z
M 458.515285 436.173738 
Q 457.81216 436.173738 457.313722 435.909675 
Q 456.816847 435.645613 456.554347 435.136238 
Q 456.29341 434.6253 456.29341 433.903425 
L 456.29341 433.33155 
Q 456.29341 432.579988 456.544972 432.048738 
Q 456.796535 431.515925 457.27466 431.2378 
Q 457.754347 430.958113 458.427785 430.958113 
Q 459.06216 430.958113 459.510597 431.276863 
Q 459.960597 431.59405 460.196535 432.19405 
Q 460.434035 432.79405 460.434035 433.634675 
L 460.434035 433.965925 
L 457.016847 433.965925 
L 457.016847 433.165925 
L 459.48716 433.165925 
L 459.48716 433.165925 
Q 459.44341 432.545613 459.166847 432.201863 
Q 458.891847 431.85655 458.427785 431.85655 
Q 457.860597 431.85655 457.551222 432.228425 
Q 457.241847 432.598738 457.241847 433.278425 
L 457.241847 433.922175 
Q 457.241847 434.551863 457.573097 434.889363 
Q 457.90591 435.226863 458.515285 435.226863 
Q 458.81841 435.226863 459.115285 435.104988 
Q 459.413722 434.98155 459.648097 434.7628 
L 459.648097 434.7628 
L 460.302785 435.415925 
L 460.302785 435.415925 
Q 459.926222 435.778425 459.457472 435.976863 
Q 458.988722 436.173738 458.515285 436.173738 
z
M 461.801613 431.03155 
L 462.798488 431.03155 
L 462.798488 436.1003 
L 461.801613 436.1003 
L 461.801613 431.03155 
z
M 464.878175 433.028425 
Q 464.878175 432.492488 464.60005 432.2003 
Q 464.321925 431.90655 463.8188 431.90655 
Q 463.329738 431.90655 463.064113 432.165925 
Q 462.798488 432.423738 462.798488 432.892488 
L 462.695363 431.915925 
Q 462.929738 431.45655 463.307863 431.208113 
Q 463.685988 430.958113 464.145363 430.958113 
Q 464.970363 430.958113 465.421925 431.498738 
Q 465.873488 432.0378 465.873488 433.023738 
L 465.873488 436.1003 
L 464.878175 436.1003 
L 464.878175 433.028425 
z
M 467.2313 435.236238 
L 469.7063 431.934675 
Q 469.921925 431.651863 470.040675 431.347175 
Q 470.160988 431.040925 470.160988 430.778425 
L 470.160988 430.767488 
Q 470.160988 430.34405 469.910988 430.109675 
Q 469.66255 429.8753 469.204738 429.8753 
Q 468.7688 429.8753 468.50005 430.13155 
Q 468.232863 430.3878 468.173488 430.85655 
L 468.173488 430.861238 
L 467.1438 430.861238 
L 467.1438 430.85655 
Q 467.2313 430.245613 467.501613 429.814363 
Q 467.773488 429.38155 468.203175 429.154988 
Q 468.632863 428.926863 469.1938 428.926863 
Q 469.829738 428.926863 470.278175 429.14405 
Q 470.728175 429.361238 470.96255 429.776863 
Q 471.196925 430.192488 471.196925 430.778425 
L 471.196925 430.783113 
Q 471.196925 431.158113 471.040675 431.56905 
Q 470.884425 431.978425 470.604738 432.359675 
L 468.55005 435.153425 
L 471.235988 435.153425 
L 471.235988 436.1003 
L 467.2313 436.1003 
L 467.2313 435.236238 
z
" style="fill: #ffffff"/>
   </g>
  </g>
 </g>
 <defs>
  <clipPath id="p8bac8e40fe">
   <rect x="144" y="77.76" width="892.8" height="498.96"/>
  </clipPath>
 </defs>
</svg>
